<?xml version="1.0" encoding="utf-8"?>
<!-- Generator: Adobe Illustrator 20.0.0, SVG Export Plug-In . SVG Version: 6.00 Build 0)  -->
<svg version="1.1" id="Слой_1" xmlns="http://www.w3.org/2000/svg" xmlns:xlink="http://www.w3.org/1999/xlink" x="0px" y="0px"
	 viewBox="0 0 18.4 29.2" style="enable-background:new 0 0 18.4 29.2;" xml:space="preserve">
<style type="text/css">
	.st0{fill-rule:evenodd;clip-rule:evenodd;fill:#668FD8;}
</style>
<path class="st0" d="M9.2,0.1c-5,0-9,4-9,9c0,7.6,9,20,9,20s9-11.9,9-20C18.2,4.1,14.1,0.1,9.2,0.1z M12.4,14.1H11v-2.5
	c0-0.1,0-0.3,0-0.4c0-0.2,0-0.6,0.1-1.2h0l-1.2,4.2H8.3L7.1,9.9h0c0.1,0.7,0.1,1.3,0.1,1.7v2.5H5.8V8.3h2.1l1.2,4.1h0l1.2-4.1h2.1
	V14.1z"/>
</svg>
