<svg xmlns="http://www.w3.org/2000/svg" viewBox="0 0 48 48"><path d="M24 14c5.5 0 10 4.5 10 10s-4.5 10-10 10-10-4.5-10-10 4.5-10 10-10m0-2c-6.6 0-12 5.4-12 12s5.4 12 12 12 12-5.4 12-12-5.4-12-12-12z"/><path fill="#FFF" d="M24 9.5c-.3 0-.5-.2-.5-.5V1c0-.3.2-.5.5-.5s.5.2.5.5v8c0 .3-.2.5-.5.5z"/><path d="M24 1v8-8m0-1c-.6 0-1 .4-1 1v8c0 .6.4 1 1 1s1-.4 1-1V1c0-.6-.4-1-1-1z"/><path fill="#FFF" d="M24 47.5c-.3 0-.5-.2-.5-.5v-8c0-.3.2-.5.5-.5s.5.2.5.5v8c0 .3-.2.5-.5.5z"/><path d="M24 39v8-8m0-1c-.6 0-1 .4-1 1v8c0 .6.4 1 1 1s1-.4 1-1v-8c0-.6-.4-1-1-1z"/><path fill="#FFF" d="M39 24.5c-.3 0-.5-.2-.5-.5s.2-.5.5-.5h8c.3 0 .5.2.5.5s-.2.5-.5.5h-8z"/><path d="M47 23h-8c-.6 0-1 .4-1 1s.4 1 1 1h8c.6 0 1-.4 1-1s-.4-1-1-1z"/><path fill="#FFF" d="M1 24.5c-.3 0-.5-.2-.5-.5s.2-.5.5-.5h8c.3 0 .5.2.5.5s-.2.5-.5.5H1z"/><path d="M9 23H1c-.6 0-1 .4-1 1s.4 1 1 1h8c.6 0 1-.4 1-1s-.4-1-1-1z"/><path fill="#FFF" d="M34.6 13.9c-.1 0-.3-.1-.4-.1-.1-.1-.1-.2-.1-.4 0-.1.1-.3.1-.4l5.7-5.7c.1-.1.2-.1.4-.1s.3.1.4.1c.2.2.2.5 0 .7L35 13.7c-.1.1-.3.2-.4.2z"/><path d="M40.3 7.7l-5.7 5.7 5.7-5.7m0-1c-.3 0-.5.1-.7.3l-5.7 5.7c-.4.4-.4 1 0 1.4.2.2.5.3.7.3.3 0 .5-.1.7-.3L41 8.4c.4-.4.4-1 0-1.4-.2-.2-.5-.3-.7-.3z"/><path fill="#FFF" d="M7.7 40.8c-.1 0-.3-.1-.4-.1-.2-.2-.2-.5 0-.7l5.7-5.7c.1-.1.2-.1.4-.1.1 0 .3.1.4.1.1.1.1.2.1.4s-.1.3-.1.4l-5.7 5.7c-.1-.1-.2 0-.4 0z"/><path d="M13.4 34.6l-5.7 5.7 5.7-5.7m0-1c-.3 0-.5.1-.7.3L7 39.6c-.4.4-.4 1 0 1.4.2.2.5.3.7.3.3 0 .5-.1.7-.3l5.7-5.7c.4-.4.4-1 0-1.4-.2-.2-.5-.3-.7-.3z"/><path fill="#FFF" d="M13.4 14.2c-.1 0-.3-.1-.4-.1L7.4 8.4c-.2-.2-.2-.5 0-.7.1-.1.2-.1.4-.1.1 0 .3.1.4.1l5.7 5.7c.1.1.1.2.1.4 0 .1-.1.3-.1.4-.2-.1-.4 0-.5 0z"/><path d="M7.7 8l5.7 5.7L7.7 8m0-1c-.2 0-.5.1-.7.3-.4.4-.4 1 0 1.4l5.7 5.7c.2.2.5.3.7.3.3 0 .5-.1.7-.3.4-.4.4-1 0-1.4L8.4 7.3C8.2 7.1 8 7 7.7 7z"/><path fill="#FFF" d="M40.3 41c-.1 0-.3-.1-.4-.1l-5.7-5.7c-.1-.1-.1-.2-.1-.4s.1-.3.1-.4.2-.1.4-.1.3.1.4.1l5.7 5.7c.2.2.2.5 0 .7-.2.2-.3.2-.4.2z"/><path d="M34.6 34.9l5.7 5.7-5.7-5.7m0-1c-.3 0-.5.1-.7.3-.4.4-.4 1 0 1.4l5.7 5.7c.2.2.5.3.7.3.3 0 .5-.1.7-.3.4-.4.4-1 0-1.4l-5.7-5.7c-.2-.2-.4-.3-.7-.3z"/></svg>