<svg id="Layer_1" xmlns="http://www.w3.org/2000/svg" viewBox="0 0 64 46"><style>.st0,.st1{fill:none;stroke:#000;stroke-miterlimit:10}.st1{fill:#fff;stroke-width:2}.st2{fill:#04dda6}</style><path class="st0" d="M4 23.5h10m-10 2h14m-14 3h4m11-3h2m1 0h6m1 0h8m-33-9h2m1 0h6m1 0h8m18-2h-6m-1 0h-6m-1 0h-8m16 9h1m0-4h1m-32 11h8m-3-2h17m-22 4h5m5 0h5m-6-2h3m11-2h5m-15 2h5m-2-9h8m1 0h3m1 0h5m-23 2h8m1 0h3m-8-15h10m1 0h8m1 0h3m-19 8h8m1 0h3m-7 7h5m-17-4h8m1 0h3m1 0h5m-5-7h1m-7 0h5m-14 7h1m14-9h8m1 0h3m-14 0h1m-23 0H4m20 0h-8m-1 0h-3m-1 0H6m20 0h-1m-19 4h8m1 0h2m-13 0h1m-1 5h3m1 0h5m-3 13h3m-9-11h5m5 0h5m-9-13h8m-14 0h5m1 13h3m1-9h8m-14 0h5m-9 0h3"/><path d="M63 5H1v1h62V5zm-6-2h-2v1h2V3zm-3 0h-2v1h2V3zm6 0h-2v1h2V3z"/><path class="st2" d="M29.5 45.5v-2.2l-.3-.1c-.2-.1-.4-.2-.6-.2l-.3-.2-1.6 1.6-2.1-2.1 1.6-1.6-.2-.3c-.1-.2-.2-.4-.2-.5l-.1-.3h-2.2v-3h2.2l.1-.3c.1-.2.1-.4.2-.5l.2-.3-1.6-1.6 2.1-2.1 1.6 1.6.3-.2c.2-.1.4-.2.5-.2l.3-.1v-2.2h3v2.2l.3.1c.2.1.4.1.5.2l.3.2 1.6-1.6 2.1 2.1-1.6 1.6.2.3c.1.2.2.4.2.5l.1.3h2.2v3h-2.2l-.1.3c.1.1 0 .3 0 .5l-.2.3 1.6 1.6-2.1 2.1-1.6-1.6-.3.2c-.2.1-.4.2-.5.2l-.3.1v2.2h-3.1zm1.5-11c-1.9 0-3.5 1.6-3.5 3.5s1.6 3.5 3.5 3.5 3.5-1.6 3.5-3.5-1.6-3.5-3.5-3.5z"/><path d="M32 31v2l.7.2c.2.1.3.1.5.2l.6.3.5-.5 1-1 1.4 1.4-1 1-.5.5.3.6c.1.2.1.3.2.5l.2.7H38v2h-2l-.2.7c-.1.2-.1.3-.2.5l-.3.6.5.5 1 1-1.4 1.4-1-1-.5-.5-.6.3c-.2.1-.3.1-.5.2l-.8.3V45h-2v-2l-.7-.2c-.2-.1-.3-.1-.5-.2l-.6-.3-.5.5-1 1-1.4-1.4 1-1 .5-.5-.3-.6c-.1-.2-.1-.3-.2-.5l-.2-.8H24v-2h2l.2-.7c.1-.2.1-.3.2-.5l.3-.6-.5-.5-1-1 1.4-1.4 1 1 .5.5.6-.3c.2-.1.3-.1.5-.2l.7-.2V31H32m-1 11c2.2 0 4-1.8 4-4s-1.8-4-4-4-4 1.8-4 4 1.8 4 4 4m2-12h-4v2.3c-.2.1-.4.2-.6.2l-1.7-1.7-2.8 2.8 1.7 1.7c-.1.2-.2.4-.2.6H23v4h2.3c.1.2.2.4.2.6l-1.7 1.7 2.8 2.8 1.7-1.7c.2.1.4.2.6.2V46h4v-2.3c.2-.1.4-.2.6-.2l1.7 1.7 2.8-2.8-1.7-1.7c.1-.2.2-.4.2-.6H39v-4h-2.3c-.1-.2-.2-.4-.2-.6l1.7-1.7-2.8-2.8-1.7 1.7c-.2-.1-.4-.2-.6-.2V30H33zm-2 11c-1.7 0-3-1.3-3-3s1.3-3 3-3 3 1.3 3 3-1.3 3-3 3z"/><path d="M61 0H3C1.3 0 0 1.3 0 3v33c0 1.7 1.3 3 3 3h18v-2H4c-1.1 0-2-.9-2-2V4c0-1.1.9-2 2-2h56c1.1 0 2 .9 2 2v31c0 1.1-.9 2-2 2v2h1c1.7 0 3-1.3 3-3V3c0-1.7-1.3-3-3-3z"/><path class="st2" d="M47.5 40.5v-1.4l-.3-.1c-.3-.1-.6-.2-.8-.3l-.4-.2-1 1-3.5-3.5 1-1-.2-.3c-.1-.3-.2-.5-.3-.8l-.1-.3h-1.4v-5h1.4l.1-.3c.1-.3.2-.6.3-.8l.2-.3-1-1 3.5-3.5 1 1 .3-.2c.3-.1.5-.2.8-.3l.3-.1v-1.4h5v1.4l.3.1c.3.1.6.2.8.3l.3.2 1-1 3.5 3.5-1 1 .2.3c.1.3.2.5.3.8l.1.3h1.4v5h-1.4l.1.2c-.1.3-.2.6-.3.8l-.2.4 1 1-3.5 3.5-1-1-.3.2c-.3.1-.5.2-.8.3l-.3.1v1.4h-5.1zm2.5-15c-3 0-5.5 2.5-5.5 5.5s2.5 5.5 5.5 5.5 5.5-2.5 5.5-5.5-2.5-5.5-5.5-5.5z"/><path d="M52 22v1.2l.7.2c.3.1.5.2.8.3l.6.3.5-.5.4-.4 2.8 2.8-.4.4-.5.5.3.6c.1.3.2.5.3.8l.2.7H59v4h-1.2l-.2.7c-.1.3-.2.5-.3.8l-.3.6.5.5.4.4-2.8 2.8-.4-.4-.5-.5-.6.3c-.3.1-.5.2-.8.3l-.8.4V40h-4v-1.2l-.7-.2c-.3-.1-.5-.2-.8-.3l-.6-.3-.5.5-.4.4-2.8-2.8.4-.4.5-.5-.3-.6c-.1-.3-.2-.5-.3-.8l-.3-.8H41v-4h1.2l.2-.7c.1-.3.2-.5.3-.8l.3-.6-.5-.5-.4-.4 2.8-2.8.4.4.5.5.6-.3c.3-.1.5-.2.8-.3l.7-.2V22H52m-2 15c3.3 0 6-2.7 6-6s-2.7-6-6-6-6 2.7-6 6 2.7 6 6 6m3-16h-6v1.5c-.3.1-.6.2-.9.4L45 21.8 40.8 26l1.1 1.1c-.1.3-.3.6-.4.9H40v6h1.5c.1.3.2.6.4.9L40.8 36l4.2 4.2 1.1-1.1c.3.1.6.3.9.4V41h6v-1.5c.3-.1.6-.2.9-.4l1.1 1.1 4.2-4.2-1.1-1.1c.1-.3.3-.6.4-.9H60v-6h-1.5c-.1-.3-.2-.6-.4-.9l1.1-1.1-4.2-4.2-1.1 1.1c-.3-.1-.6-.3-.9-.4V21zm-3 15c-2.8 0-5-2.2-5-5s2.2-5 5-5 5 2.2 5 5-2.2 5-5 5z"/></svg>