<svg id="Layer_1" xmlns="http://www.w3.org/2000/svg" viewBox="0 0 24 46"><style>.st0{fill:none;stroke:#000;stroke-miterlimit:10}.st1{fill:#04dda6}</style><path d="M20 2c1.1 0 2 .9 2 2v38c0 1.1-.9 2-2 2H4c-1.1 0-2-.9-2-2V4c0-1.1.9-2 2-2h16m0-2H4C1.8 0 0 1.8 0 4v38c0 2.2 1.8 4 4 4h16c2.2 0 4-1.8 4-4V4c0-2.2-1.8-4-4-4z"/><path class="st0" d="M1 5.5h22m-22 32h22"/><path d="M12 40c.6 0 1 .4 1 1s-.4 1-1 1-1-.4-1-1 .4-1 1-1m0-1c-1.1 0-2 .9-2 2s.9 2 2 2 2-.9 2-2-.9-2-2-2z"/><path class="st1" d="M5 16.5c-.8 0-1.5-.7-1.5-1.5v-5c0-.8.7-1.5 1.5-1.5h14c.8 0 1.5.7 1.5 1.5v5c0 .8-.7 1.5-1.5 1.5H5z"/><path d="M19 9c.6 0 1 .4 1 1v5c0 .6-.4 1-1 1H5c-.6 0-1-.4-1-1v-5c0-.6.4-1 1-1h14m0-1H5c-1.1 0-2 .9-2 2v5c0 1.1.9 2 2 2h14c1.1 0 2-.9 2-2v-5c0-1.1-.9-2-2-2z"/><path class="st0" d="M3 18.5h18m-18 2h15"/><path class="st1" d="M5 34.5c-.8 0-1.5-.7-1.5-1.5v-5c0-.8.7-1.5 1.5-1.5h14c.8 0 1.5.7 1.5 1.5v5c0 .8-.7 1.5-1.5 1.5H5z"/><path d="M19 27c.6 0 1 .4 1 1v5c0 .6-.4 1-1 1H5c-.6 0-1-.4-1-1v-5c0-.6.4-1 1-1h14m0-1H5c-1.1 0-2 .9-2 2v5c0 1.1.9 2 2 2h14c1.1 0 2-.9 2-2v-5c0-1.1-.9-2-2-2z"/><path class="st0" d="M8 3.5h6m1 0h1"/></svg>