<svg id="Layer_1" xmlns="http://www.w3.org/2000/svg" viewBox="0 0 50 46"><style>.st0{fill:#04dda6}.st1{fill:none;stroke:#000;stroke-linecap:square;stroke-miterlimit:10}</style><path d="M47 2c.6 0 1 .4 1 1v40c0 .6-.4 1-1 1H3c-.6 0-1-.4-1-1V3c0-.6.4-1 1-1h44m0-2H3C1.3 0 0 1.3 0 3v40c0 1.7 1.3 3 3 3h44c1.7 0 3-1.3 3-3V3c0-1.7-1.3-3-3-3z"/><path d="M40 27H29v1h11v-1zm3 2H29v1h14v-1zm-6 2h-8v1h8v-1zm3 8H29v1h11v-1zm3 2H29v1h14v-1zm-6 2h-8v1h8v-1z"/><path class="st0" d="M6 23.5c-.8 0-1.5-.7-1.5-1.5V10c0-.8.7-1.5 1.5-1.5h38c.8 0 1.5.7 1.5 1.5v12c0 .8-.7 1.5-1.5 1.5H6z"/><path d="M44 9c.6 0 1 .4 1 1v12c0 .6-.4 1-1 1H6c-.6 0-1-.4-1-1V10c0-.6.4-1 1-1h38m0-1H6c-1.1 0-2 .9-2 2v12c0 1.1.9 2 2 2h38c1.1 0 2-.9 2-2V10c0-1.1-.9-2-2-2z"/><path class="st0" d="M4.5 27.5h5v5h-5z"/><path d="M9 28v4H5v-4h4m1-1H4v6h6v-6z"/><path class="st0" d="M12.5 27.5h5v5h-5z"/><path d="M17 28v4h-4v-4h4m1-1h-6v6h6v-6z"/><path class="st0" d="M20.5 27.5h5v5h-5z"/><path d="M25 28v4h-4v-4h4m1-1h-6v6h6v-6z"/><path class="st0" d="M4.5 39.5h5v5h-5z"/><path d="M9 40v4H5v-4h4m1-1H4v6h6v-6z"/><path class="st0" d="M12.5 39.5h5v5h-5z"/><path d="M17 40v4h-4v-4h4m1-1h-6v6h6v-6z"/><path class="st0" d="M20.5 39.5h5v5h-5z"/><path d="M25 40v4h-4v-4h4m1-1h-6v6h6v-6zm-16-5H4v1h6v-1zm-2 2H4v1h4v-1zm10-2h-6v1h6v-1zm-2 2h-4v1h4v-1zm10-2h-6v1h6v-1zm-2 2h-4v1h4v-1zM50 5H1v1h49V5zm-6-2h-2v1h2V3zm-3 0h-2v1h2V3zm6 0h-2v1h2V3z"/><path class="st1" d="M13 23l7-7 6 7m-3-4l6-7 10 11"/></svg>