<svg id="Layer_1" xmlns="http://www.w3.org/2000/svg" viewBox="0 0 52 47"><style>.st0,.st1{stroke:#000;stroke-miterlimit:10}.st0{fill:none}.st1{stroke-width:2}.st1,.st2{fill:#04dda6}.st3{fill:#fff;stroke:#000;stroke-linecap:square;stroke-miterlimit:10}</style><path d="M29 21v14H9V21h20m1-1H8v16h22V20zM13 39v2H9v-2h4m1-1H8v4h6v-4zm7 1v2h-4v-2h4m1-1h-6v4h6v-4zm7 1v2h-4v-2h4m1-1h-6v4h6v-4zm-16 5H8v1h6v-1zm5 0h-3v1h3v-1zm10 0h-5v1h5v-1zm8-4v2h-4v-2h4m1-1h-6v4h6v-4zm7 1v2h-4v-2h4m1-1h-6v4h6v-4zm-9 5h-5v1h5v-1zm6 0h-3v1h3v-1z"/><path class="st0" d="M32 20.5h14m-14 2h10m-10 2h12"/><path d="M47 3c.6 0 1 .4 1 1v40c0 .6-.4 1-1 1H5c-.6 0-1-.4-1-1V4c0-.6.4-1 1-1h42m0-2H5C3.3 1 2 2.3 2 4v40c0 1.7 1.3 3 3 3h42c1.7 0 3-1.3 3-3V4c0-1.7-1.3-3-3-3z"/><path class="st1" d="M8 17H4c-1.7 0-3-1.3-3-3V5c0-2.2 1.8-4 4-4h6v13c0 1.7-1.3 3-3 3zm10 0h-4c-1.7 0-3-1.3-3-3V1h10v13c0 1.7-1.3 3-3 3zm10 0h-4c-1.7 0-3-1.3-3-3V1h10v13c0 1.7-1.3 3-3 3zm10 0h-4c-1.7 0-3-1.3-3-3V1h10v13c0 1.7-1.3 3-3 3zm10 0h-4c-1.7 0-3-1.3-3-3V1h6c2.2 0 4 1.8 4 4v9c0 1.7-1.3 3-3 3z"/><path class="st2" d="M32.5 32.5h13v3h-13z"/><path d="M45 33v2H33v-2h12m1-1H32v4h14v-4z"/><path class="st2" d="M16.4 30l-.8-3h6.8l-.8 3z"/><path d="M21.7 28l-.5 2h-4.4l-.5-2H22m1-1h-8l1 4h6l1-4z"/><path class="st3" d="M17 26l1 1m2 0l1-1"/></svg>