<svg id="Layer_1" xmlns="http://www.w3.org/2000/svg" viewBox="0 0 64 46"><style>.st0{fill:#04dda6}.st1,.st2{fill:#fff;stroke:#000;stroke-miterlimit:10}.st2{fill:#04dda6}</style><path d="M63 5H1v1h62V5zm-6-2h-2v1h2V3zm-3 0h-2v1h2V3zm6 0h-2v1h2V3z"/><path d="M61 2c.6 0 1 .4 1 1v40c0 .6-.4 1-1 1H3c-.6 0-1-.4-1-1V3c0-.6.4-1 1-1h58m0-2H3C1.3 0 0 1.3 0 3v40c0 1.7 1.3 3 3 3h58c1.7 0 3-1.3 3-3V3c0-1.7-1.3-3-3-3z"/><path class="st0" d="M4.5 8.5h12v12h-12z"/><path d="M16 9v11H5V9h11m1-1H4v13h13V8z"/><path class="st1" d="M5 9l11 11m0-11L5 20"/><path class="st0" d="M4 22h13v1H4z"/><path d="M17 22H4v1h13v-1z"/><path class="st0" d="M4 24h9v1H4z"/><path d="M13 24H4v1h9v-1z"/><path class="st0" d="M19 22h13v1H19z"/><path d="M32 22H19v1h13v-1z"/><path class="st0" d="M19 24h9v1h-9z"/><path d="M28 24h-9v1h9v-1z"/><path class="st0" d="M46 22h13v1H46z"/><path d="M59 22H46v1h13v-1z"/><path class="st0" d="M46 24h9v1h-9z"/><path d="M55 24h-9v1h9v-1z"/><path class="st0" d="M19 28h21v1H19z"/><path d="M40 28H19v1h21v-1z"/><path class="st0" d="M19 30h17v1H19z"/><path d="M36 30H19v1h17v-1z"/><path class="st0" d="M19 33h18v1H19z"/><path d="M37 33H19v1h18v-1z"/><path class="st0" d="M19 35h15v1H19z"/><path d="M34 35H19v1h15v-1z"/><path class="st0" d="M19 37h20v1H19z"/><path d="M39 37H19v1h20v-1z"/><path class="st0" d="M19 39h19v1H19z"/><path d="M38 39H19v1h19v-1z"/><path class="st0" d="M19 41h18v1H19z"/><path d="M37 41H19v1h18v-1z"/><path class="st0" d="M46 28h13v1H46z"/><path d="M59 28H46v1h13v-1z"/><path class="st0" d="M46 30h12v1H46z"/><path d="M58 30H46v1h12v-1z"/><path class="st0" d="M46 33h13v1H46z"/><path d="M59 33H46v1h13v-1z"/><path class="st0" d="M46 35h12v1H46z"/><path d="M58 35H46v1h12v-1z"/><path class="st0" d="M46 37h13v1H46z"/><path d="M59 37H46v1h13v-1z"/><path class="st0" d="M46 39h12v1H46z"/><path d="M58 39H46v1h12v-1z"/><path class="st0" d="M46 41h7v1h-7z"/><path d="M53 41h-7v1h7v-1z"/><path class="st0" d="M19 43h7v1h-7z"/><path d="M26 43h-7v1h7v-1z"/><path class="st0" d="M4.5 27.5h12v2h-12z"/><path d="M16 28v1H5v-1h11m1-1H4v3h13v-3z"/><path class="st0" d="M4.5 31.5h12v2h-12z"/><path d="M16 32v1H5v-1h11m1-1H4v3h13v-3z"/><path class="st0" d="M19.5 15.5h2v4h-2z"/><path d="M21 16v3h-1v-3h1m1-1h-3v5h3v-5z"/><path class="st0" d="M23.5 14.5h2v5h-2z"/><path d="M25 15v4h-1v-4h1m1-1h-3v6h3v-6z"/><path class="st0" d="M27.5 12.5h2v7h-2z"/><path d="M29 13v6h-1v-6h1m1-1h-3v8h3v-8z"/><path class="st0" d="M31.5 15.5h2v4h-2z"/><path d="M33 16v3h-1v-3h1m1-1h-3v5h3v-5z"/><path class="st0" d="M35.5 12.5h2v7h-2z"/><path d="M37 13v6h-1v-6h1m1-1h-3v8h3v-8z"/><path class="st0" d="M39.5 8.5h2v11h-2z"/><path d="M41 9v10h-1V9h1m1-1h-3v12h3V8z"/><circle class="st0" cx="51.5" cy="14.5" r="5"/><path d="M51.5 10c2.5 0 4.5 2 4.5 4.5S54 19 51.5 19 47 17 47 14.5s2-4.5 4.5-4.5m0-1c-3 0-5.5 2.5-5.5 5.5s2.5 5.5 5.5 5.5 5.5-2.5 5.5-5.5S54.5 9 51.5 9z"/><path class="st2" d="M54 10l-2.5 4.5H56"/></svg>