<?xml version="1.0" encoding="iso-8859-1"?>
<!-- Generator: Adobe Illustrator 18.1.1, SVG Export Plug-In . SVG Version: 6.00 Build 0)  -->
<svg version="1.1" xmlns="http://www.w3.org/2000/svg" xmlns:xlink="http://www.w3.org/1999/xlink" x="0px" y="0px"
	 viewBox="0 0 12.888 10.014" style="enable-background:new 0 0 12.888 10.014;" xml:space="preserve">
<g id="&#x421;&#x43B;&#x43E;&#x439;_1_1_">
	
		<path style="fill-rule:evenodd;clip-rule:evenodd;fill:none;stroke:#000000;stroke-width:0.4;stroke-linecap:round;stroke-miterlimit:22.9256;" d="
		M8.566,5.983c-0.381,0.829-1.21,1.36-2.122,1.36c-0.943,0-1.794-0.568-2.157-1.438"/>
	<path style="fill-rule:evenodd;clip-rule:evenodd;fill:none;stroke:#000000;stroke-width:0.4;stroke-miterlimit:22.9256;" d="
		M1.637,3.57c0.072,0,0.144,0.005,0.213,0.016C2.456,1.625,4.284,0.2,6.444,0.2c2.16,0,3.988,1.425,4.593,3.386
		c0.07-0.01,0.141-0.016,0.214-0.016c0.793,0,1.437,0.643,1.437,1.437s-0.643,1.437-1.437,1.437c-0.073,0-0.144-0.005-0.214-0.016
		c-0.606,1.961-2.433,3.386-4.593,3.386c-2.16,0-3.987-1.425-4.594-3.386c-0.07,0.01-0.141,0.016-0.213,0.016
		C0.843,6.444,0.2,5.8,0.2,5.007S0.843,3.57,1.637,3.57z"/>
	
		<path style="fill-rule:evenodd;clip-rule:evenodd;fill:none;stroke:#000000;stroke-width:0.4;stroke-linecap:round;stroke-miterlimit:22.9256;" d="
		M5.426,4.189c-0.101-0.22-0.322-0.362-0.565-0.362c-0.251,0-0.477,0.151-0.574,0.383"/>
	
		<path style="fill-rule:evenodd;clip-rule:evenodd;fill:none;stroke:#000000;stroke-width:0.4;stroke-linecap:round;stroke-miterlimit:22.9256;" d="
		M8.682,4.189C8.581,3.969,8.36,3.827,8.117,3.827c-0.251,0-0.477,0.151-0.574,0.383"/>
</g>
<g id="&#x421;&#x43B;&#x43E;&#x439;_1">
</g>
</svg>
