<?xml version="1.0" encoding="iso-8859-1"?>
<!-- Generator: Adobe Illustrator 18.1.1, SVG Export Plug-In . SVG Version: 6.00 Build 0)  -->
<svg version="1.1" xmlns="http://www.w3.org/2000/svg" xmlns:xlink="http://www.w3.org/1999/xlink" x="0px" y="0px"
	 viewBox="0 0 35.005 32.12" style="enable-background:new 0 0 35.005 32.12;" xml:space="preserve">
<g id="&#x421;&#x43B;&#x43E;&#x439;_1_1_">
	
		<line style="fill:none;stroke:#d5b674;stroke-width:0.75;stroke-linecap:round;stroke-miterlimit:22.9256;" x1="7.438" y1="20.417" x2="27.444" y2="20.417"/>
	
		<path style="fill-rule:evenodd;clip-rule:evenodd;fill:none;stroke:#d5b674;stroke-width:0.75;stroke-linecap:round;stroke-miterlimit:22.9256;" d="
		M17.347,24.507L17.347,24.507c2.465,0,4.482,1.945,4.482,4.323v2.915h-8.964V28.83C12.865,26.452,14.882,24.507,17.347,24.507z"/>
	
		<path style="fill-rule:evenodd;clip-rule:evenodd;fill:none;stroke:#d5b674;stroke-width:0.75;stroke-linecap:round;stroke-miterlimit:22.9256;" d="
		M0.375,22.345H2.36l0,0c2.111,0,2.976,0,5.086,0l0,0h1.985l0,0v0.986v0.459l-1.458,2.061H4.934H4.872H1.833l-1.458-2.061v-0.459
		V22.345L0.375,22.345z"/>
	
		<line style="fill-rule:evenodd;clip-rule:evenodd;fill:none;stroke:#d5b674;stroke-width:0.75;stroke-linecap:round;stroke-miterlimit:22.9256;" x1="2.36" y1="22.345" x2="2.329" y2="18.074"/>
	
		<line style="fill-rule:evenodd;clip-rule:evenodd;fill:none;stroke:#d5b674;stroke-width:0.75;stroke-linecap:round;stroke-miterlimit:22.9256;" x1="7.446" y1="22.345" x2="7.416" y2="18.074"/>
	
		<rect x="1.833" y="25.851" style="fill-rule:evenodd;clip-rule:evenodd;fill:none;stroke:#d5b674;stroke-width:0.75;stroke-linecap:round;stroke-miterlimit:22.9256;" width="6.119" height="5.893"/>
	
		<line style="fill-rule:evenodd;clip-rule:evenodd;fill:none;stroke:#d5b674;stroke-width:0.75;stroke-linecap:round;stroke-miterlimit:22.9256;" x1="1.941" y1="31.745" x2="33.153" y2="31.745"/>
	
		<polygon style="fill-rule:evenodd;clip-rule:evenodd;fill:none;stroke:#d5b674;stroke-width:0.75;stroke-linecap:round;stroke-miterlimit:22.9256;" points="
		4.881,9.892 6.471,13.983 8.062,18.074 4.881,18.074 1.7,18.074 3.29,13.983 	"/>
	
		<path style="fill-rule:evenodd;clip-rule:evenodd;fill:none;stroke:#d5b674;stroke-width:0.75;stroke-linecap:round;stroke-miterlimit:22.9256;" d="
		M25.574,22.345h1.985l0,0c2.111,0,2.976,0,5.086,0l0,0h1.985l0,0v0.986v0.459l-1.458,2.061h-3.039h-0.062h-3.039l-1.458-2.061
		v-0.459V22.345L25.574,22.345z"/>
	
		<line style="fill-rule:evenodd;clip-rule:evenodd;fill:none;stroke:#d5b674;stroke-width:0.75;stroke-linecap:round;stroke-miterlimit:22.9256;" x1="27.559" y1="22.345" x2="27.529" y2="18.074"/>
	
		<line style="fill-rule:evenodd;clip-rule:evenodd;fill:none;stroke:#d5b674;stroke-width:0.75;stroke-linecap:round;stroke-miterlimit:22.9256;" x1="32.646" y1="22.345" x2="32.615" y2="18.074"/>
	
		<rect x="27.032" y="25.851" style="fill-rule:evenodd;clip-rule:evenodd;fill:none;stroke:#d5b674;stroke-width:0.75;stroke-linecap:round;stroke-miterlimit:22.9256;" width="6.119" height="5.893"/>
	
		<polygon style="fill-rule:evenodd;clip-rule:evenodd;fill:none;stroke:#d5b674;stroke-width:0.75;stroke-linecap:round;stroke-miterlimit:22.9256;" points="
		30.08,9.892 31.671,13.983 33.261,18.074 30.08,18.074 26.899,18.074 28.49,13.983 	"/>
	
		<line style="fill-rule:evenodd;clip-rule:evenodd;fill:none;stroke:#d5b674;stroke-width:0.75;stroke-linecap:round;stroke-miterlimit:22.9256;" x1="17.347" y1="24.507" x2="17.347" y2="31.745"/>
	
		<line style="fill-rule:evenodd;clip-rule:evenodd;fill:none;stroke:#d5b674;stroke-width:0.75;stroke-linecap:round;stroke-miterlimit:22.9256;" x1="11.099" y1="18.074" x2="11.096" y2="14.93"/>
	
		<line style="fill-rule:evenodd;clip-rule:evenodd;fill:none;stroke:#d5b674;stroke-width:0.75;stroke-linecap:round;stroke-miterlimit:22.9256;" x1="24.067" y1="18.074" x2="24.064" y2="14.93"/>
	
		<line style="fill-rule:evenodd;clip-rule:evenodd;fill:none;stroke:#d5b674;stroke-width:0.75;stroke-linecap:round;stroke-miterlimit:22.9256;" x1="11.102" y1="14.93" x2="24.064" y2="14.93"/>
	
		<line style="fill-rule:evenodd;clip-rule:evenodd;fill:none;stroke:#d5b674;stroke-width:0.75;stroke-linecap:round;stroke-miterlimit:22.9256;" x1="13.941" y1="14.796" x2="13.896" y2="7.892"/>
	
		<line style="fill-rule:evenodd;clip-rule:evenodd;fill:none;stroke:#d5b674;stroke-width:0.75;stroke-linecap:round;stroke-miterlimit:22.9256;" x1="21.509" y1="14.796" x2="21.464" y2="7.892"/>
	
		<polygon style="fill-rule:evenodd;clip-rule:evenodd;fill:none;stroke:#d5b674;stroke-width:0.75;stroke-linecap:round;stroke-miterlimit:22.9256;" points="
		17.692,0.683 20.059,4.287 22.425,7.892 17.692,7.892 12.959,7.892 15.326,4.287 	"/>
	
		<line style="fill-rule:evenodd;clip-rule:evenodd;fill:none;stroke:#d5b674;stroke-width:0.75;stroke-linecap:round;stroke-miterlimit:22.9256;" x1="7.438" y1="18.1" x2="27.444" y2="18.1"/>
	
		<line style="fill-rule:evenodd;clip-rule:evenodd;fill:none;stroke:#d5b674;stroke-width:0.75;stroke-linecap:round;stroke-miterlimit:22.9256;" x1="4.771" y1="19.328" x2="4.771" y2="20.984"/>
	
		<line style="fill-rule:evenodd;clip-rule:evenodd;fill:none;stroke:#d5b674;stroke-width:0.75;stroke-linecap:round;stroke-miterlimit:22.9256;" x1="15.493" y1="9.803" x2="15.493" y2="12.263"/>
	
		<line style="fill-rule:evenodd;clip-rule:evenodd;fill:none;stroke:#d5b674;stroke-width:0.75;stroke-linecap:round;stroke-miterlimit:22.9256;" x1="17.712" y1="9.803" x2="17.712" y2="12.263"/>
	
		<line style="fill-rule:evenodd;clip-rule:evenodd;fill:none;stroke:#d5b674;stroke-width:0.75;stroke-linecap:round;stroke-miterlimit:22.9256;" x1="19.889" y1="9.803" x2="19.889" y2="12.263"/>
	
		<line style="fill-rule:evenodd;clip-rule:evenodd;fill:none;stroke:#d5b674;stroke-width:0.75;stroke-linecap:round;stroke-miterlimit:22.9256;" x1="29.998" y1="19.328" x2="29.998" y2="20.984"/>
</g>
<g id="&#x421;&#x43B;&#x43E;&#x439;_1">
</g>
</svg>
