<?xml version="1.0" encoding="iso-8859-1"?>
<!-- Generator: Adobe Illustrator 18.1.1, SVG Export Plug-In . SVG Version: 6.00 Build 0)  -->
<svg version="1.1" xmlns="http://www.w3.org/2000/svg" xmlns:xlink="http://www.w3.org/1999/xlink" x="0px" y="0px"
	 viewBox="0 0 33.344 25.925" style="enable-background:new 0 0 33.344 25.925;" xml:space="preserve">
<g id="&#x421;&#x43B;&#x43E;&#x439;_1_1_">
	<path style="fill-rule:evenodd;clip-rule:evenodd;fill:none;stroke:#d5b674;stroke-width:0.75;stroke-miterlimit:22.9256;" d="
		M3.073,10.153c-1.317,2.277-0.778,1.329-1.317,2.277c-0.218,0.382-0.33,0.855-0.328,1.614c0.006,2.513,0.01,4.771,0.01,7.151
		c0,0.315-0.003,0.609-0.005,0.883h30.562c-0.002-0.207-0.003-0.424-0.003-0.653c0.003-2.435-0.003-4.869,0-7.304
		c0.001-0.721-0.075-1.176-0.238-1.534c-0.172-0.38-1.105-2.066-1.483-2.434 M30.934,11.567l-0.037-0.037"/>
	
		<path style="fill-rule:evenodd;clip-rule:evenodd;fill:none;stroke:#d5b674;stroke-width:0.75;stroke-linecap:round;stroke-miterlimit:22.9256;" d="
		M6.803,22.079v2.786c0,0.377-0.36,0.685-0.8,0.685H2.232c-0.44,0-0.801-0.308-0.801-0.685v-2.786H6.803z"/>
	
		<line style="fill-rule:evenodd;clip-rule:evenodd;fill:none;stroke:#d5b674;stroke-width:0.75;stroke-linecap:round;stroke-miterlimit:22.9256;" x1="1.435" y1="18.63" x2="31.991" y2="18.63"/>
	
		<line style="fill-rule:evenodd;clip-rule:evenodd;fill:none;stroke:#d5b674;stroke-width:0.75;stroke-linecap:round;stroke-miterlimit:22.9256;" x1="12.333" y1="16.615" x2="20.652" y2="16.615"/>
	
		<line style="fill-rule:evenodd;clip-rule:evenodd;fill:none;stroke:#d5b674;stroke-width:0.75;stroke-linecap:round;stroke-miterlimit:22.9256;" x1="12.333" y1="15.328" x2="20.652" y2="15.328"/>
	
		<path style="fill-rule:evenodd;clip-rule:evenodd;fill:none;stroke:#d5b674;stroke-width:0.75;stroke-linecap:round;stroke-miterlimit:22.9256;" d="
		M3.54,14.052h5.3c0.263,0,0.478,0.215,0.478,0.479v1.598c0,0.263-0.215,0.479-0.478,0.479h-5.3c-0.263,0-0.479-0.215-0.479-0.479
		v-1.598C3.062,14.268,3.277,14.052,3.54,14.052z"/>
	
		<path style="fill-rule:evenodd;clip-rule:evenodd;fill:none;stroke:#d5b674;stroke-width:0.75;stroke-linecap:round;stroke-miterlimit:22.9256;" d="
		M24.327,14.052h5.3c0.263,0,0.479,0.215,0.479,0.479v1.598c0,0.263-0.216,0.479-0.479,0.479h-5.3c-0.263,0-0.479-0.215-0.479-0.479
		v-1.598C23.848,14.268,24.063,14.052,24.327,14.052z"/>
	
		<path style="fill-rule:evenodd;clip-rule:evenodd;fill:none;stroke:#d5b674;stroke-width:0.75;stroke-linecap:round;stroke-miterlimit:22.9256;" d="
		M31.994,22.079v2.786c0,0.377-0.36,0.685-0.8,0.685h-3.771c-0.441,0-0.801-0.308-0.801-0.685v-2.786H31.994z"/>
	
		<path style="fill-rule:evenodd;clip-rule:evenodd;fill:none;stroke:#d5b674;stroke-width:0.75;stroke-linecap:round;stroke-miterlimit:22.9256;" d="
		M3.515,9.628l2.268-8.02C6.346,0.23,6.227,0.38,7.691,0.38h8.314h1.292h8.371c1.423,0,1.301-0.12,1.852,1.228l2.268,8.02H17.263
		h-1.225H3.515z"/>
	
		<path style="fill-rule:evenodd;clip-rule:evenodd;fill:none;stroke:#d5b674;stroke-width:0.75;stroke-linecap:round;stroke-miterlimit:22.9256;" d="
		M4.072,7.587L1.67,7.436C0.804,7.435,0.605,7.79,0.458,8.21c-0.179,0.51-0.132,1.125,0.791,1.4l1.824,0.544L3.41,9.514L4.072,7.587
		z"/>
	
		<path style="fill-rule:evenodd;clip-rule:evenodd;fill:none;stroke:#d5b674;stroke-width:0.75;stroke-linecap:round;stroke-miterlimit:22.9256;" d="
		M29.272,7.587l2.403-0.151c0.866-0.001,1.065,0.354,1.212,0.774c0.179,0.51,0.132,1.125-0.791,1.4l-1.824,0.544l-0.337-0.639
		L29.272,7.587z"/>
</g>
<g id="&#x421;&#x43B;&#x43E;&#x439;_1">
</g>
</svg>
