<?xml version="1.0" encoding="iso-8859-1"?>
<!-- Generator: Adobe Illustrator 18.1.1, SVG Export Plug-In . SVG Version: 6.00 Build 0)  -->
<svg version="1.1" xmlns="http://www.w3.org/2000/svg" xmlns:xlink="http://www.w3.org/1999/xlink" x="0px" y="0px"
	 viewBox="0 0 277.475 90.918" style="enable-background:new 0 0 277.475 90.918;" xml:space="preserve">
<g>
	<path style="fill-rule:evenodd;clip-rule:evenodd;fill:#004993;" d="M83.696,12.149C88.592,3.669,96.011-0.015,101.44,0
		c9.273,0.025,0.457,14.873-11.06,14.14c-0.855-0.054-1.067-0.14,0.011-0.177c0.223-0.008,0.502-0.033,0.841-0.051
		c3.321-0.177,7.662-2.308,9.349-5.49c3.96-7.47-7.706-6.886-14.241,4.124l-19.541,32.92l8.562-0.625l0.008-0.024l7.697-0.56
		c-0.042-0.05-0.076-0.101-0.102-0.153l-7.148-0.507l5.969-16.256c0.402-1.513,1.79-2.864,3.34-3.252
		c1.55-0.388,2.85,0.292,3.129,1.635l-0.25,2.613h4.236v0.491h-4.282l-1.318,13.795c1.57,0.089,2.775,0.612,2.775,1.243l2.895-0.009
		c1.51-0.057,2.279,0.983,2.306,2.37c0.525,0.223,0.844,0.519,0.844,0.844c0,0.39-0.462,0.739-1.186,0.97
		c-0.656,1.664-2.171,2.853-3.926,2.919l-5.713,0.014l-7.199,16.637h4.823v0.49h-5.035l-0.546,1.259
		c-1.005,1.391-2.694,2.183-4.068,1.906c-1.374-0.278-2.064-1.55-1.664-3.063l3.125-17.673l-9.223-1.777L56.54,62.747
		c-27.718,41.848-68.114,31.338-53.413,5.541c8.736-15.331,27.227-23.381,43.355-22.4c2.966,0.181,3.707,0.476-0.027,0.613
		c-0.772,0.028-1.736,0.118-2.911,0.184c-11.494,0.646-26.408,8.069-32.067,19.11c-13.232,25.813,21.554,29.91,43.762-6.748
		L83.696,12.149L83.696,12.149z M59.15,43.047h1.259c0.591,0,0.947,0.484,0.789,1.075l-0.475,1.788l0.044-0.004l-1.095,1.849
		l-0.056-0.011l-1.631,2.687h-0.797c-0.591,0-0.946-0.483-0.788-1.074l0.563-2.124l-0.803-0.155l0.186-0.849l0.901-0.066
		l0.542-2.041C57.948,43.531,58.559,43.047,59.15,43.047L59.15,43.047z M94.482,39.978c2.062,0.429,3.056,4.032,2.219,8.046
		c-0.836,4.014-3.186,6.92-5.247,6.491c-0.971-0.202-1.705-1.108-2.123-2.428c0.379,0.798,0.925,1.333,1.603,1.474
		c1.803,0.375,3.857-2.165,4.588-5.674c0.73-3.51-0.138-6.66-1.939-7.035c-0.859-0.179-1.775,0.305-2.578,1.239
		C92.034,40.575,93.305,39.732,94.482,39.978L94.482,39.978z"/>
	<path style="fill-rule:evenodd;clip-rule:evenodd;" d="M265.879,31.841h2.04c4.004,0,5.553,2.606,5.553,4.836
		c0,2.267-1.474,4.91-6.271,4.91c-0.454,0-0.869-0.038-1.322-0.075V31.841L265.879,31.841z M261.874,28.139V54.28l4.005-0.453
		v-8.613c0.566,0.076,1.171,0.076,1.737,0.076c6.611,0,9.859-4.269,9.859-8.575c0-4.004-2.796-8.575-9.557-8.575H261.874
		L261.874,28.139z"/>
	<path style="fill-rule:evenodd;clip-rule:evenodd;" d="M234.6,41.134c0-5.1,3.891-9.897,9.859-9.897
		c5.931,0,9.859,4.798,9.859,9.897c0,5.364-4.344,9.821-9.859,9.821C238.906,50.956,234.6,46.499,234.6,41.134L234.6,41.134z
		 M230.595,41.096c0,7.934,6.687,13.562,13.864,13.562c7.177,0,13.863-5.628,13.863-13.562c0-8.424-7.215-13.562-13.863-13.562
		C237.811,27.535,230.595,32.672,230.595,41.096L230.595,41.096z"/>
	<polygon style="fill-rule:evenodd;clip-rule:evenodd;" points="219.075,31.841 219.075,54.28 223.079,53.827 223.079,31.841 
		228.821,31.841 228.821,28.139 213.522,28.139 212.35,31.841 219.075,31.841 	"/>
	<path style="fill-rule:evenodd;clip-rule:evenodd;" d="M201.579,35.015l3.551,7.365h-7.141L201.579,35.015L201.579,35.015z
		 M196.403,45.856h10.313l4.231,8.802l4.004-0.831l-13.297-26.745l-13.373,26.783l3.853,0.793L196.403,45.856L196.403,45.856z"/>
	<polygon style="fill-rule:evenodd;clip-rule:evenodd;" points="168.796,27.686 164.792,28.139 164.792,55.262 182.055,36.526 
		182.055,54.28 186.059,53.827 186.059,26.93 168.796,45.63 168.796,27.686 	"/>
	<path style="fill-rule:evenodd;clip-rule:evenodd;" d="M147.09,42.532h3.929c3.173,0,4.57,2.04,4.57,3.929
		c0,1.965-1.587,3.891-4.949,3.891h-3.551V42.532L147.09,42.532z M147.09,31.841h2.984c3.06,0,4.571,1.624,4.571,3.626
		c0,1.927-1.549,3.665-4.155,3.665h-3.4V31.841L147.09,31.841z M143.086,28.139v25.914h7.479c5.817,0,9.028-3.135,9.028-7.366
		c0-3.173-1.964-5.213-4.419-5.968c2.304-1.21,3.4-3.438,3.4-5.704c0-2.721-1.738-6.876-9.217-6.876H143.086L143.086,28.139z"/>
	<path style="fill-rule:evenodd;clip-rule:evenodd;" d="M126.941,35.015l3.55,7.365h-7.14L126.941,35.015L126.941,35.015z
		 M121.765,45.856h10.313l4.231,8.802l4.004-0.831l-13.297-26.745l-13.373,26.783l3.853,0.793L121.765,45.856L121.765,45.856z"/>
	<path d="M115.582,67.797h-1.354V77.82h1.354V74.3l1.574-1.506l3.506,5.025h1.754l-4.28-5.978l4.169-4.045h-1.864l-4.859,4.859
		V67.797L115.582,67.797z M131.109,67.797v4.956c0,2.775-0.221,4.101-1.284,4.101c-0.276,0-0.525-0.027-0.635-0.056v1.132
		c0.304,0.056,0.635,0.098,0.925,0.098c1.381,0,2.347-0.967,2.347-4.846v-4.185h3.824v8.822h1.353V67.797H131.109L131.109,67.797z
		 M152.67,67.797l-2.913,6.848l-3.079-6.848h-1.449l3.879,8.159c-0.456,0.814-0.594,0.967-1.105,0.967
		c-0.331,0-0.552-0.014-0.787-0.056v1.118c0.276,0.056,0.635,0.111,0.98,0.111c0.814,0,1.491-0.332,2.167-1.864l3.755-8.436H152.67
		L152.67,67.797z M161.819,67.797V77.82h4.653c1.809,0,2.969-1.2,2.969-2.816c0-1.394-0.829-3.064-3.01-3.064h-3.258v-2.941h5.702
		v-1.2H161.819L161.819,67.797z M163.173,73.14h2.802c1.215,0,2.071,0.497,2.071,1.85c0,1.257-0.856,1.63-1.975,1.63h-2.899V73.14
		L163.173,73.14z M178.907,67.797h-1.353V77.82h1.353v-4.68h5.233v4.68h1.352V67.797h-1.352v4.142h-5.233V67.797L178.907,67.797z
		 M195.36,67.797h-1.352V77.82h4.652c1.809,0,2.969-1.2,2.969-2.816c0-1.394-0.829-3.064-3.01-3.064h-3.259V67.797L195.36,67.797z
		 M195.36,73.14h2.803c1.215,0,2.071,0.497,2.071,1.85c0,1.257-0.856,1.63-1.975,1.63h-2.899V73.14L195.36,73.14z M204.238,67.797
		h-1.354V77.82h1.354V67.797L204.238,67.797z M214.105,67.797h-1.354V77.82h1.561l5.094-8.09h0.028v8.09h1.353V67.797h-1.546
		l-5.081,8.2h-0.055V67.797L214.105,67.797z M215.278,65.119h-0.689c0.055,0.497,0.248,1.905,2.084,1.905
		c1.837,0,2.016-1.408,2.071-1.905h-0.677c-0.165,0.607-0.455,1.049-1.395,1.049C215.72,66.168,215.458,65.726,215.278,65.119
		L215.278,65.119z M234.312,67.797v3.175c0,2.334-0.097,3.659-1.049,5.647h-0.842v3.368h1.242V77.82h6.848v2.168h1.242V76.62h-0.883
		v-8.822H234.312L234.312,67.797z M239.517,76.62h-4.888c0.87-1.727,1.036-3.162,1.036-5.385v-2.237h3.852V76.62L239.517,76.62z
		 M257.516,72.809c0,2.36-1.298,4.072-3.479,4.072c-2.182,0-3.479-1.739-3.479-4.101c0-2.36,1.298-4.045,3.479-4.045
		C256.218,68.736,257.516,70.448,257.516,72.809L257.516,72.809z M258.911,72.809c0-2.168-1.132-5.274-4.873-5.274
		c-3.742,0-4.874,3.106-4.874,5.274c0,2.167,1.132,5.273,4.874,5.273C257.779,78.083,258.911,74.976,258.911,72.809L258.911,72.809z
		 M267.024,67.797V77.82h1.313v-5.922c0-0.29-0.042-1.588-0.042-2.499h0.042l2.816,8.421h1.339l2.83-8.421h0.014
		c0,0.925-0.041,2.209-0.041,2.499v5.922h1.312V67.797h-1.919l-2.858,8.477h-0.027l-2.844-8.477H267.024L267.024,67.797z"/>
</g>
<g>
</g>
</svg>
