<?xml version="1.0" encoding="iso-8859-1"?>
<!-- Generator: Adobe Illustrator 18.1.1, SVG Export Plug-In . SVG Version: 6.00 Build 0)  -->
<svg version="1.1" xmlns="http://www.w3.org/2000/svg" xmlns:xlink="http://www.w3.org/1999/xlink" x="0px" y="0px"
	 viewBox="0 0 12.137 12.233" style="enable-background:new 0 0 12.137 12.233;" xml:space="preserve">
<g id="&#x421;&#x43B;&#x43E;&#x439;_1_1_">
	
		<path style="fill-rule:evenodd;clip-rule:evenodd;fill:none;stroke:#000000;stroke-width:0.5669;stroke-linecap:round;stroke-miterlimit:22.9256;" d="
		M11.853,7.168c-0.143,0.778-0.443,1.52-0.88,2.178c-1.784,2.682-5.404,3.41-8.086,1.626C0.204,9.189-0.524,5.568,1.26,2.886
		c1.784-2.682,5.404-3.41,8.086-1.626c0.859,0.571,1.551,1.36,2.006,2.286"/>
	<path style="fill-rule:evenodd;clip-rule:evenodd;" d="M5.022,3.605C4.407,4.563,4.45,5.463,4.424,6.394l0.034,0.548
		C4.558,7.705,4.818,8.594,5.56,9.051c0.481,0.296,0.696,0.241,1.113,0.265c0.157,0.009,0.4,0.051,0.539-0.203
		c0.121-0.221,0.066-1.366-0.334-1.627C6.787,7.426,6.697,7.407,6.6,7.398c-0.062-0.006-0.069,0-0.129-0.001
		c-0.056,0-0.09-0.008-0.147-0.01C6.164,7.379,5.96,7.461,5.774,7.268C5.538,7.022,5.511,6.388,5.521,6.18
		c0.018-0.368-0.012-0.688,0.125-1.105c0.352-1.069,1.413,0.358,1.679-1.244c0.045-0.27,0.214-0.906-0.181-1.051
		c-0.205-0.076-0.81-0.05-1.099,0.032C5.67,2.919,5.269,3.22,5.022,3.605z"/>
	<polygon style="fill-rule:evenodd;clip-rule:evenodd;" points="11.864,4.816 11.049,4.147 10.234,3.478 11.075,3.093 11.915,2.708 
		11.89,3.762 	"/>
</g>
<g id="&#x421;&#x43B;&#x43E;&#x439;_1">
</g>
</svg>
