<?xml version="1.0" encoding="iso-8859-1"?>
<!-- Generator: Adobe Illustrator 18.1.1, SVG Export Plug-In . SVG Version: 6.00 Build 0)  -->
<svg version="1.1" xmlns="http://www.w3.org/2000/svg" xmlns:xlink="http://www.w3.org/1999/xlink" x="0px" y="0px"
	 viewBox="0 0 423.522 422.622" style="enable-background:new 0 0 423.522 422.622;" xml:space="preserve">
<g id="&#x421;&#x43B;&#x43E;&#x439;_1_1_">
	<g>
		
			<path style="fill-rule:evenodd;clip-rule:evenodd;stroke:#484b67;stroke-width:2.8346;stroke-linecap:round;stroke-miterlimit:22.9256;" d="
			M216.667,38.506l-35.207,136.764c11.416,11.416,22.832,22.832,34.248,34.248c1.346,1.346,1.1,1.371,1.1-0.534V38.502
			C216.809,38.293,216.704,38.363,216.667,38.506z"/>
		
			<path style="fill-rule:evenodd;clip-rule:evenodd;fill:none;stroke:#484b67;stroke-width:2.8346;stroke-linecap:round;stroke-miterlimit:22.9256;" d="
			M216.9,38.506l35.207,136.764c-11.416,11.416-22.832,22.832-34.248,34.248c-1.346,1.346-1.1,1.371-1.1-0.534V38.502
			C216.759,38.293,216.863,38.363,216.9,38.506z"/>
		
			<path style="fill-rule:evenodd;clip-rule:evenodd;fill:none;stroke:#484b67;stroke-width:2.8346;stroke-linecap:round;stroke-miterlimit:22.9256;" d="
			M216.667,382.627l-35.207-136.765c11.416-11.416,22.832-22.832,34.248-34.248c1.346-1.347,1.1-1.371,1.1,0.533v170.483
			C216.809,382.841,216.704,382.77,216.667,382.627z"/>
		
			<path style="fill-rule:evenodd;clip-rule:evenodd;stroke:#484b67;stroke-width:2.8346;stroke-linecap:round;stroke-miterlimit:22.9256;" d="
			M216.9,382.627l35.207-136.765c-11.416-11.416-22.832-22.832-34.248-34.248c-1.346-1.347-1.1-1.371-1.1,0.533v170.483
			C216.759,382.841,216.863,382.77,216.9,382.627z"/>
		
			<path style="fill-rule:evenodd;clip-rule:evenodd;stroke:#484b67;stroke-width:2.8346;stroke-linecap:round;stroke-miterlimit:22.9256;" d="
			M45.278,210.821l136.765,35.207c11.416-11.416,22.832-22.832,34.248-34.248c1.346-1.346,1.371-1.1-0.533-1.1H45.274
			C45.064,210.68,45.135,210.784,45.278,210.821z"/>
		
			<path style="fill-rule:evenodd;clip-rule:evenodd;fill:none;stroke:#484b67;stroke-width:2.8346;stroke-linecap:round;stroke-miterlimit:22.9256;" d="
			M44.696,210.477l136.765-35.207c11.416,11.416,22.832,22.832,34.248,34.248c1.346,1.346,1.371,1.1-0.533,1.1H44.692
			C44.483,210.619,44.553,210.514,44.696,210.477z"/>
		
			<path style="fill-rule:evenodd;clip-rule:evenodd;fill:none;stroke:#484b67;stroke-width:2.8346;stroke-linecap:round;stroke-miterlimit:22.9256;" d="
			M389.11,210.821l-136.764,35.207c-11.416-11.416-22.832-22.832-34.248-34.248c-1.346-1.346-1.371-1.1,0.533-1.1h170.483
			C389.324,210.68,389.254,210.784,389.11,210.821z"/>
		
			<path style="fill-rule:evenodd;clip-rule:evenodd;stroke:#484b67;stroke-width:2.8346;stroke-linecap:round;stroke-miterlimit:22.9256;" d="
			M389.692,210.477l-136.764-35.207c-11.416,11.416-22.832,22.832-34.248,34.248c-1.346,1.346-1.371,1.1,0.533,1.1h170.484
			C389.906,210.619,389.836,210.514,389.692,210.477z"/>
		<path style="fill-rule:evenodd;clip-rule:evenodd;" d="M140.081,134.39l26.997,45.716l14.915-3.839l3.864-15.01l-45.672-26.972
			c-0.056-0.033-0.111-0.036-0.108-0.003C140.045,134.279,140.048,134.334,140.081,134.39L140.081,134.39z M295.125,134.267
			l-0.287,0.232l0.521-0.521c0.095-0.095,0.016-0.11-0.065-0.062l-46.49,27.454l3.835,14.896
			c-54.426,54.428-29.192,29.381,1.367-1.051l0.221-0.011c-41.444,41.533-51.378,51.673-0.767,1.062l14.724,3.79l27.002-45.724
			C295.236,134.252,295.22,134.173,295.125,134.267L295.125,134.267z M140.481,288.857l0.173-0.118l-0.221,0.221
			c-0.094,0.094-0.016,0.11,0.066,0.062l45.442-26.836l-3.835-14.899l-0.074,0.074l-0.004-0.051l0.066-0.066l-0.095-0.37
			l-14.725-3.791l-27.192,46.045c-0.048,0.081-0.032,0.159,0.062,0.065L140.481,288.857L140.481,288.857z M267.874,243.164
			l27.131,45.942c0.033,0.056,0.036,0.111,0.004,0.108c0.002,0.032-0.053,0.029-0.109-0.004l-46.147-27.252l3.887-15.099
			c-46.684-46.686-45.756-45.829,0.24,0.165L267.874,243.164z"/>
		
			<path style="fill-rule:evenodd;clip-rule:evenodd;fill:none;stroke:#484b67;stroke-width:2.8346;stroke-linecap:round;stroke-miterlimit:22.9256;" d="
			M336.661,225.52c-7.022,55.776-51.53,99.372-107.44,105.238"/>
		
			<path style="fill-rule:evenodd;clip-rule:evenodd;fill:none;stroke:#484b67;stroke-width:2.8346;stroke-linecap:round;stroke-miterlimit:22.9256;" d="
			M231.908,90.359c56.224,7.173,99.936,52.409,105.182,108.845"/>
		
			<path style="fill-rule:evenodd;clip-rule:evenodd;fill:none;stroke:#484b67;stroke-width:2.8346;stroke-linecap:round;stroke-miterlimit:22.9256;" d="
			M96.525,195.277c7.172-56.928,53.334-100.994,110.534-105.515"/>
		
			<path style="fill-rule:evenodd;clip-rule:evenodd;fill:none;stroke:#484b67;stroke-width:2.8346;stroke-linecap:round;stroke-miterlimit:22.9256;" d="
			M203.3,330.687c-57.785-6.386-102.864-52.961-107.361-110.923"/>
		<path style="fill-rule:evenodd;clip-rule:evenodd;" d="M223.047,25.92h4.068V2.304l2.88-0.864c0.108-0.468,0.108-0.972,0-1.44
			h-8.784c-0.108,0.468-0.108,0.972,0,1.44l3.276,0.9v16.236h-0.144L213.219,0h-8.172c-0.108,0.468-0.108,0.972,0,1.44l2.88,0.864
			v21.312l-2.88,0.864c-0.108,0.468-0.108,0.972,0,1.44h8.748c0.108-0.468,0.108-0.972,0-1.44l-3.24-0.9V5.328h0.144L223.047,25.92z
			"/>
		<path style="fill-rule:evenodd;clip-rule:evenodd;" d="M208.572,420.426c2.124,1.476,4.824,2.196,8.1,2.196
			c3.024,0,5.616-0.684,7.74-2.088c2.16-1.404,3.24-3.456,3.24-6.156c0-2.88-1.548-4.896-3.672-5.76
			c-1.044-0.432-2.196-0.828-3.42-1.188c-3.564-0.972-7.092-1.512-7.092-4.608c0-1.44,0.576-2.52,1.764-3.204
			s2.592-1.044,4.284-1.044c1.224,0,2.376,0.18,3.456,0.54l1.62,4.212c0.648,0.144,1.296,0.144,1.98,0v-5.508
			c-2.34-1.224-4.968-1.836-7.92-1.836c-3.6,0-6.552,0.9-8.46,3.312c-0.972,1.188-1.44,2.664-1.44,4.428
			c0,9.828,14.112,5.868,14.112,11.772c0,1.548-0.648,2.664-1.98,3.384c-1.296,0.684-2.88,1.044-4.788,1.044
			c-1.296,0-2.556-0.18-3.78-0.504l-1.728-4.68c-0.684-0.144-1.332-0.144-2.016,0V420.426z"/>
		<path style="fill-rule:evenodd;clip-rule:evenodd;" d="M0.081,197.449c-0.108,0.468-0.108,0.936,0,1.44l2.916,0.9l6.408,23.58
			h4.248l5.076-17.496h0.144l4.896,17.496h4.248l6.552-23.58l2.952-0.9c0.108-0.468,0.108-0.972,0-1.44h-8.928
			c-0.108,0.468-0.108,0.972,0,1.44l3.24,0.9l-4.68,16.992h-0.18l-5.292-18.972h-3.348l-5.508,18.972h-0.18l-4.572-16.992l3.312-0.9
			c0.108-0.468,0.108-0.972,0-1.44H0.081z"/>
		<path style="fill-rule:evenodd;clip-rule:evenodd;" d="M402.21,221.929c-0.108,0.468-0.108,0.972,0,1.44h21.312v-6.048
			c-0.684-0.144-1.332-0.144-1.98,0l-1.26,3.456h-9.9v-9.612h6.66l0.9,2.88c0.54,0.108,1.08,0.108,1.62,0v-7.704
			c-0.54-0.108-1.08-0.108-1.62,0l-0.9,2.232h-6.66v-8.532h9.216l1.224,3.276c0.648,0.144,1.332,0.144,2.016,0v-5.868H402.21
			c-0.108,0.468-0.108,0.972,0,1.44l3.276,0.9v21.24L402.21,221.929z"/>
	</g>
</g>
<g id="&#x421;&#x43B;&#x43E;&#x439;_1">
</g>
</svg>
