<svg xmlns="http://www.w3.org/2000/svg" viewBox="0 0 296.472 111.063"><g clip-rule="evenodd" fill="none" stroke="#878787" stroke-miterlimit="22.926"><path stroke-width=".567" stroke-linecap="square" d="M43.123 38.881h8.041v8.012h-8.041zm-23.23-3.879h15.631v16.166H19.893z"/><path stroke-width=".283" stroke-linecap="square" d="M23.365 35.096v16.072m8.874-16.072v16.072m-4.343-16.072v16.072m-8.002-14.422h15.63m-15.63 9.242h15.63"/><path stroke-width=".567" stroke-linecap="square" d="M16.561 32.607h131.754M16.561 35.002h131.784M43.123 57.245h8.041v8.012h-8.041zm-23.23-3.298h15.631v16.072H19.893z"/><path stroke-width=".283" stroke-linecap="square" d="M23.365 53.947v16.072m8.874-16.072v16.072m-4.343-16.072v16.072m-8.002-14.422h15.63m-15.63 9.242h15.63"/><path stroke-width=".567" stroke-linecap="square" d="M19.893 72.905h15.631v13.346H19.893z"/><path stroke-width=".283" stroke-linecap="square" d="M23.365 72.905V86.25m8.874-13.345V86.25m-4.343-13.345V86.25m-8.002-11.695h15.63m-15.63 9.242h15.63"/><path stroke-width=".567" stroke-linecap="square" d="M43.123 75.479h8.041v8.012h-8.041zM17.451 35.002v51.279"/><path stroke-width=".283" stroke-linecap="square" d="M40.881 37.729v48.552"/><path stroke-width=".567" stroke-linecap="square" d="M16.561 86.283h131.784M16.561 35.002v-2.211m0-.184l6.684-19.786 7.028.003M16.561 89.958h131.784"/><path stroke-width=".283" stroke-linecap="square" d="M56.081 86.283l-.754 3.675"/><path stroke-width=".567" stroke-linecap="square" d="M16.561 86.283l-.064 24.268m7.819-92.444h9.328v9.472h-9.328z"/><path stroke-width=".283" stroke-linecap="square" d="M25.904 21.091h6.171v6.488h-6.171z"/><path stroke-width=".567" stroke-linecap="square" d="M19.955 32.607v-5.028h16.01v5.028"/><path stroke-width=".283" stroke-linecap="square" d="M23.448 27.579v5.028m4.443-5.028v5.028m-7.936-3.521h16.01m-16.01 1.633h16.01"/><path stroke-width=".567" stroke-linecap="square" d="M26.052 93.475h9.167v13.938h-9.167z"/><path stroke-width=".283" stroke-linecap="square" d="M26.067 97.431h4.125"/><path stroke-width=".567" stroke-linecap="square" d="M40.679 89.958h13.359v1.634H40.679zM58.69 35.002h20.403v16.166H58.69z"/><path stroke-width=".283" stroke-linecap="square" d="M58.879 36.746h20.213M58.83 45.988h20.262M63.678 35.096v16.072m5.462-16.072v16.072m5.086-16.072v16.072"/><path stroke-width=".567" stroke-linecap="square" d="M58.673 53.943h20.402v16.073H58.673z"/><path stroke-width=".283" stroke-linecap="square" d="M59.158 55.594h19.918M58.92 64.836h20.156M63.662 53.944v16.072m5.462-16.072v16.072m5.085-16.072v16.072"/><path stroke-width=".567" stroke-linecap="square" d="M58.69 72.903h20.403v13.38H58.69z"/><path stroke-width=".283" stroke-linecap="square" d="M58.88 74.554h20.212M58.88 83.796h20.212M63.678 72.904v13.379m5.462-13.379v13.379m5.086-13.379v13.379"/><path stroke-width=".567" stroke-linecap="square" d="M86.399 38.881h6.705v8.012h-6.705z"/><path stroke-width=".283" stroke-linecap="square" d="M90.523 38.88v8.013"/><path stroke-width=".567" stroke-linecap="square" d="M86.399 57.245h6.751v8.012h-6.751z"/><path stroke-width=".283" stroke-linecap="square" d="M90.523 57.245v8.012"/><path stroke-width=".567" stroke-linecap="square" d="M86.399 75.479h6.751v8.012h-6.751z"/><path stroke-width=".283" stroke-linecap="square" d="M90.523 75.479v8.013M16.561 32.607l.003-.93V15.601l5.184.061h.549"/><path stroke-width=".283" stroke-linecap="square" d="M20.733 15.649V4.609h8.475v8.215"/><path stroke-width=".567" stroke-linecap="square" d="M.283 110.78h148.062m-131.839-3.367h68.152"/><path stroke-width=".283" stroke-linecap="square" d="M25.904 19.561h6.171v8.017h-6.171zm6.337 8.018v5.028"/><path stroke-width=".567" stroke-linecap="square" d="M58.818 32.607v-5.028h20.287v5.028"/><path stroke-width=".283" stroke-linecap="square" d="M63.708 27.579v5.028m5.426-5.028v5.028m-10.316-3.521H78.93m-20.112 1.633H78.93m-4.671-3.14v5.028M46.885 38.88v8.013m0 10.352v8.013m-.148 10.222v8.013M31.173 97.431h4.046m-4.992-2.149v12.131M47.541 38.88v8.013m0 10.352v8.013m-.148 10.222v8.013m-5.529-45.764v48.552m10.644-48.552v48.552m.983-48.552v48.552"/><path stroke-width=".567" stroke-linecap="square" d="M64.347 18.107h9.328v9.472h-9.328z"/><path stroke-width=".283" stroke-linecap="square" d="M65.935 21.091h6.171v6.488h-6.171z"/><path stroke-width=".283" stroke-linecap="square" d="M65.935 19.561h6.171v8.017h-6.171z"/><path stroke-width=".283" stroke-linecap="round" d="M41.864 67.234h10.644"/><path stroke-width=".283" stroke-linecap="square" d="M35.629 37.729H58.63M26.052 98.07h4.125m.759-2.788v2.149m-.007.639h4.147m-4.14-1.402v10.745"/><path stroke-width=".567" stroke-linecap="square" d="M26.327 95.145h8.892"/><path stroke-width=".283" stroke-linecap="square" d="M89.876 38.88v8.013m0 10.352v8.012m0 10.222v8.013m-5.682-45.763v48.552m.983-48.552v48.552m9.187-48.552v48.552m.983-48.552v48.552M78.941 37.729h53.775"/><path stroke-width=".283" stroke-linecap="round" d="M85.27 67.234h9.094"/><path stroke-width=".567" stroke-linecap="square" d="M102.476 38.881h6.705v8.012h-6.705z"/><path stroke-width=".283" stroke-linecap="square" d="M106.6 38.88v8.013"/><path stroke-width=".567" stroke-linecap="square" d="M102.476 57.245h6.751v8.012h-6.751z"/><path stroke-width=".283" stroke-linecap="square" d="M106.6 57.245v8.012"/><path stroke-width=".567" stroke-linecap="square" d="M102.476 75.479h6.751v8.012h-6.751z"/><path stroke-width=".283" stroke-linecap="square" d="M106.6 75.479v8.013m-.647-44.612v8.013m0 10.352v8.012m0 10.222v8.013m-5.682-45.763v48.552m.983-48.552v48.552m9.187-48.552v48.552m.983-48.552v48.552"/><path stroke-width=".283" stroke-linecap="round" d="M101.348 67.234h9.093"/><path stroke-width=".567" stroke-linecap="square" d="M58.828 27.494l-4.956-14.672-25.049.002"/><path stroke-width=".567" stroke-linecap="square" d="M42.878 18.107h9.328v14.5h-9.328z"/><path stroke-width=".283" stroke-linecap="square" d="M44.467 21.091h6.171v6.545h-6.171z"/><path stroke-width=".283" stroke-linecap="square" d="M44.467 19.561h6.171v8.075h-6.171z"/><path stroke-width=".567" stroke-linecap="square" d="M118.189 38.881h8.041v8.012h-8.041zm0 18.364h8.041v8.012h-8.041zm0 18.234h8.041v8.012h-8.041z"/><path stroke-width=".283" stroke-linecap="square" d="M115.947 37.729v48.552m6.004-47.401v8.013m0 10.352v8.013m-.148 10.222v8.013m.805-44.613v8.013m0 10.352v8.013m-.149 10.222v8.013m-5.529-45.764v48.552m10.644-48.552v48.552m.983-48.552v48.552"/><path stroke-width=".283" stroke-linecap="round" d="M116.93 67.234h10.644"/><path stroke-width=".567" stroke-linecap="square" d="M84.994 18.107h9.328v14.5h-9.328z"/><path stroke-width=".283" stroke-linecap="square" d="M86.582 21.091h6.171v6.545h-6.171z"/><path stroke-width=".283" stroke-linecap="square" d="M86.582 19.561h6.171v8.075h-6.171z"/><path stroke-width=".567" stroke-linecap="square" d="M100.744 18.107h9.328v14.5h-9.328z"/><path stroke-width=".283" stroke-linecap="square" d="M102.332 21.091h6.171v6.545h-6.171z"/><path stroke-width=".283" stroke-linecap="square" d="M102.332 19.561h6.171v8.075h-6.171z"/><path stroke-width=".567" stroke-linecap="square" d="M116.906 18.107h9.328v14.5h-9.328z"/><path stroke-width=".283" stroke-linecap="square" d="M118.494 21.091h6.171v6.545h-6.171z"/><path stroke-width=".283" stroke-linecap="square" d="M118.494 19.561h6.171v8.075h-6.171z"/><path stroke-width=".567" stroke-linecap="square" d="M79.105 27.494l4.956-14.672 25.049.002m23.583 19.783v-5.028h15.575"/><path stroke-width=".283" stroke-linecap="square" d="M137.583 27.579v5.028m5.427-5.028v5.028m-10.317-3.521h15.622m-15.622 1.633h15.622m0-3.14v5.028"/><path stroke-width=".567" stroke-linecap="square" d="M136.038 18.107h9.328v9.472h-9.328z"/><path stroke-width=".283" stroke-linecap="square" d="M137.626 21.091h6.171v6.488h-6.171z"/><path stroke-width=".283" stroke-linecap="square" d="M137.626 19.561h6.171v8.017h-6.171z"/><path stroke-width=".567" stroke-linecap="square" d="M133.068 27.494l-4.956-14.672-25.049.002m45.443-.063l-125.13.078m125.13-4.851l-125.13.215v4.389"/><path stroke-width=".283" stroke-linecap="square" d="M23.611 9.628h124.567M23.611 11.26h124.567M35.376 8.1v4.886"/><path stroke-width=".567" stroke-linecap="round" d="M19.893 51.168v2.779m15.631-2.779v2.779M19.893 70.019v2.78m15.631-2.78v2.78M58.69 51.168v2.779m20.402-2.779v2.779M58.69 70.019v2.78m20.386-2.783v2.786"/><path stroke-width=".567" stroke-linecap="square" d="M148.316 51.168h-15.591V35.002h15.497"/><path stroke-width=".283" stroke-linecap="square" d="M132.894 36.746h15.358m-15.395 9.242h15.395m-10.548-10.892v16.072m5.463-16.072v16.072m5.085-16.072v16.072m-15.125 4.426h15.109m-15.29 9.242h15.29m-10.548-10.892v16.072m5.462-16.072v16.072m5.086-16.072v16.072m-15.33 4.538h15.346m-15.346 9.242h15.346m-10.548-10.892v13.379m5.463-13.379v13.379m5.085-13.379v13.379"/><path stroke-width=".567" stroke-linecap="round" d="M132.716 51.168v2.779m0 16.072v2.78"/><path stroke-width=".283" stroke-linecap="square" d="M41.206 8.1v4.886M46.831 8.1v4.886M52.662 8.1v4.886m-11.471-.158V4.609h27.701v8.215"/><path stroke-width=".567" stroke-linecap="square" d="M148.316 70.126h-15.591V53.96h15.497m.094 32.332h-15.591V72.898h15.497"/><path stroke-width=".283" stroke-linecap="square" d="M58.251 8.1v4.886M63.666 8.1v4.886m20.999-.158V4.609h5.642v8.215M73.689 8.1v4.886M79.103 8.1v4.886m16.336-.158V4.609h17.771v8.215M101.146 8.1v4.886m5.849-4.886v4.886"/><path stroke-width=".567" stroke-linecap="square" d="M42.775 93.475h9.167v13.938h-9.167z"/><path stroke-width=".283" stroke-linecap="square" d="M42.79 97.431h4.125m.982 0h4.045m-4.991-2.149v12.131m-4.176-9.343H46.9m.76-2.788v2.149m-.007.639h4.146m-4.139-1.402v10.745"/><path stroke-width=".567" stroke-linecap="square" d="M43.05 95.145h8.892m14.808-1.67h9.167v13.938H66.75z"/><path stroke-width=".283" stroke-linecap="square" d="M66.765 97.431h4.125m.982 0h4.045m-4.992-2.149v12.131M66.75 98.07h4.125m.76-2.788v2.149m-.007.639h4.146m-4.139-1.402v10.745"/><path stroke-width=".567" stroke-linecap="square" d="M67.025 95.145h8.892m8.741-1.67h9.167v17.304h-9.167z"/><path stroke-width=".283" stroke-linecap="square" d="M84.673 97.431h4.125m.982 0h4.045m-4.991-2.149v14.146M84.658 98.07h4.125m.76-2.788v2.149m-.007.639h4.146m-4.139-1.172v12.53"/><path stroke-width=".567" stroke-linecap="square" d="M84.933 95.145h8.892m6.996-1.67h9.167v17.304h-9.167z"/><path stroke-width=".283" stroke-linecap="square" d="M100.835 97.431h4.125m.982 0h4.046m-4.992-2.149v14.146m-4.175-11.358h4.125m.759-2.788v2.149m-.007.639h4.147m-4.14-1.172v12.53"/><path stroke-width=".567" stroke-linecap="square" d="M101.096 95.145h8.892m7.926-1.67h9.167v13.938h-9.167z"/><path stroke-width=".283" stroke-linecap="square" d="M117.929 97.431h4.125m.982 0h4.045m-4.991-2.149v12.131m-4.176-9.343h4.125m.76-2.788v2.149m-.007.639h4.146m-4.139-1.402v10.745"/><path stroke-width=".567" stroke-linecap="square" d="M118.189 95.145h8.892m7.557-1.67h9.167v13.938h-9.167z"/><path stroke-width=".283" stroke-linecap="square" d="M134.652 97.431h4.125m.982 0h4.045m-4.991-2.149v12.131m-4.175-9.343h4.125m.759-2.788v2.149m-.007.639h4.146m-4.139-1.402v10.745"/><path stroke-width=".567" stroke-linecap="square" d="M134.913 95.145h8.892m-33.362 12.268h38.044m-54.638 0h6.972"/><path stroke-width=".283" stroke-linecap="square" d="M118.761 12.828V1.617h5.642v11.205m5.55-4.722v4.668m5.335-4.668v4.668m5.274-4.668v4.668m5.186-4.668v4.668"/><path stroke-width=".567" stroke-linecap="square" d="M245.308 38.881h8.041v8.012h-8.041zm15.64-3.879h15.631v16.166h-15.631z"/><path stroke-width=".283" stroke-linecap="square" d="M273.107 35.096v16.072m-8.874-16.072v16.072m4.343-16.072v16.072m8.002-14.422h-15.63m15.63 9.242h-15.63"/><path stroke-width=".567" stroke-linecap="square" d="M279.911 32.607H148.157m131.754 2.395H148.127m97.181 22.243h8.041v8.012h-8.041zm15.64-3.298h15.631v16.072h-15.631z"/><path stroke-width=".283" stroke-linecap="square" d="M273.107 53.947v16.072m-8.874-16.072v16.072m4.343-16.072v16.072m8.002-14.422h-15.63m15.63 9.242h-15.63"/><path stroke-width=".567" stroke-linecap="square" d="M260.948 72.905h15.631v13.346h-15.631z"/><path stroke-width=".283" stroke-linecap="square" d="M273.107 72.905V86.25m-8.874-13.345V86.25m4.343-13.345V86.25m8.002-11.695h-15.63m15.63 9.242h-15.63"/><path stroke-width=".567" stroke-linecap="square" d="M245.308 75.479h8.041v8.012h-8.041zm33.713-40.477v51.279"/><path stroke-width=".283" stroke-linecap="square" d="M255.591 37.729v48.552"/><path stroke-width=".567" stroke-linecap="square" d="M279.911 86.283H148.127m131.784-51.281v-2.211m0-.184l-6.684-19.786-7.029.003m13.713 77.134H148.127"/><path stroke-width=".283" stroke-linecap="square" d="M240.391 86.283l.754 3.675"/><path stroke-width=".567" stroke-linecap="square" d="M279.911 86.283l.064 24.268m-17.147-92.444h9.328v9.472h-9.328z"/><path stroke-width=".283" stroke-linecap="square" d="M264.396 21.091h6.171v6.488h-6.171z"/><path stroke-width=".567" stroke-linecap="square" d="M276.517 32.607v-5.028h-16.01v5.028"/><path stroke-width=".283" stroke-linecap="square" d="M273.024 27.579v5.028m-4.443-5.028v5.028m7.936-3.521h-16.01m16.01 1.633h-16.01"/><path stroke-width=".567" stroke-linecap="square" d="M261.253 93.475h9.167v13.938h-9.167z"/><path stroke-width=".283" stroke-linecap="square" d="M270.405 97.431h-4.125"/><path stroke-width=".567" stroke-linecap="square" d="M242.433 89.958h13.359v1.634h-13.359zM217.38 35.002h20.403v16.166H217.38z"/><path stroke-width=".283" stroke-linecap="square" d="M237.593 36.746H217.38m20.262 9.242H217.38m15.414-10.892v16.072m-5.462-16.072v16.072m-5.086-16.072v16.072"/><path stroke-width=".567" stroke-linecap="square" d="M217.396 53.943h20.402v16.073h-20.402z"/><path stroke-width=".283" stroke-linecap="square" d="M237.314 55.594h-19.918m20.156 9.242h-20.156m15.414-10.892v16.072m-5.462-16.072v16.072m-5.085-16.072v16.072"/><path stroke-width=".567" stroke-linecap="square" d="M217.38 72.903h20.403v13.38H217.38z"/><path stroke-width=".283" stroke-linecap="square" d="M237.592 74.554H217.38m20.212 9.242H217.38m15.414-10.892v13.379m-5.462-13.379v13.379m-5.086-13.379v13.379"/><path stroke-width=".567" stroke-linecap="square" d="M203.368 38.881h6.705v8.012h-6.705z"/><path stroke-width=".283" stroke-linecap="square" d="M205.949 38.88v8.013"/><path stroke-width=".567" stroke-linecap="square" d="M203.322 57.245h6.751v8.012h-6.751z"/><path stroke-width=".283" stroke-linecap="square" d="M205.949 57.245v8.012"/><path stroke-width=".567" stroke-linecap="square" d="M203.322 75.479h6.751v8.012h-6.751z"/><path stroke-width=".283" stroke-linecap="square" d="M205.949 75.479v8.013m73.962-50.885l-.003-.93V15.601l-5.184.061h-.549"/><path stroke-width=".283" stroke-linecap="square" d="M275.739 15.649V4.609h-8.475v8.215"/><path stroke-width=".567" stroke-linecap="square" d="M296.188 110.78H148.127m131.839-3.367h-68.152"/><path stroke-width=".283" stroke-linecap="square" d="M264.396 19.561h6.171v8.017h-6.171zm-.165 8.018v5.028"/><path stroke-width=".567" stroke-linecap="square" d="M237.654 32.607v-5.028h-20.287v5.028"/><path stroke-width=".283" stroke-linecap="square" d="M232.764 27.579v5.028m-5.427-5.028v5.028m10.317-3.521h-20.113m20.113 1.633h-20.113m4.672-3.14v5.028m27.374 6.273v8.013m0 10.352v8.013m.148 10.222v8.013m15.563 13.938h-4.045m4.992-2.149v12.131M248.931 38.88v8.013m0 10.352v8.013m.148 10.222v8.013m5.529-45.764v48.552m-10.644-48.552v48.552m-.983-48.552v48.552"/><path stroke-width=".567" stroke-linecap="square" d="M222.797 18.107h9.328v9.472h-9.328z"/><path stroke-width=".283" stroke-linecap="square" d="M224.365 21.091h6.171v6.488h-6.171z"/><path stroke-width=".283" stroke-linecap="square" d="M224.365 19.561h6.171v8.017h-6.171z"/><path stroke-width=".283" stroke-linecap="round" d="M254.608 67.234h-10.644"/><path stroke-width=".283" stroke-linecap="square" d="M260.843 37.729h-23.001M270.42 98.07h-4.125m-.76-2.788v2.149m.008.639h-4.147m4.139-1.402v10.745"/><path stroke-width=".567" stroke-linecap="square" d="M270.145 95.145h-8.892"/><path stroke-width=".283" stroke-linecap="square" d="M206.596 38.88v8.013m0 10.352v8.012m0 10.222v8.013m5.682-45.763v48.552m-.983-48.552v48.552m-9.187-48.552v48.552m-.983-48.552v48.552m16.406-48.552h-53.775"/><path stroke-width=".283" stroke-linecap="round" d="M211.202 67.234h-9.094"/><path stroke-width=".567" stroke-linecap="square" d="M187.291 38.881h6.705v8.012h-6.705z"/><path stroke-width=".283" stroke-linecap="square" d="M189.872 38.88v8.013"/><path stroke-width=".567" stroke-linecap="square" d="M187.245 57.245h6.751v8.012h-6.751z"/><path stroke-width=".283" stroke-linecap="square" d="M189.872 57.245v8.012"/><path stroke-width=".567" stroke-linecap="square" d="M187.245 75.479h6.751v8.012h-6.751z"/><path stroke-width=".283" stroke-linecap="square" d="M189.872 75.479v8.013m.647-44.612v8.013m0 10.352v8.012m0 10.222v8.013m5.682-45.763v48.552m-.983-48.552v48.552m-9.187-48.552v48.552m-.983-48.552v48.552"/><path stroke-width=".283" stroke-linecap="round" d="M195.124 67.234h-9.093"/><path stroke-width=".567" stroke-linecap="square" d="M237.644 27.494l4.956-14.672 25.049.002"/><path stroke-width=".567" stroke-linecap="square" d="M244.265 18.107h9.328v14.5h-9.328z"/><path stroke-width=".283" stroke-linecap="square" d="M245.834 21.091h6.171v6.545h-6.171z"/><path stroke-width=".283" stroke-linecap="square" d="M245.834 19.561h6.171v8.075h-6.171z"/><path stroke-width=".567" stroke-linecap="square" d="M170.241 38.881h8.041v8.012h-8.041zm0 18.364h8.041v8.012h-8.041zm0 18.234h8.041v8.012h-8.041z"/><path stroke-width=".283" stroke-linecap="square" d="M180.525 37.729v48.552m-6.004-47.401v8.013m0 10.352v8.013m.148 10.222v8.013m-.805-44.613v8.013m0 10.352v8.013m.149 10.222v8.013m5.529-45.764v48.552m-10.644-48.552v48.552m-.983-48.552v48.552"/><path stroke-width=".283" stroke-linecap="round" d="M179.542 67.234h-10.644"/><path stroke-width=".567" stroke-linecap="square" d="M202.15 18.107h9.328v14.5h-9.328z"/><path stroke-width=".283" stroke-linecap="square" d="M203.718 21.091h6.171v6.545h-6.171z"/><path stroke-width=".283" stroke-linecap="square" d="M203.718 19.561h6.171v8.075h-6.171z"/><path stroke-width=".567" stroke-linecap="square" d="M186.4 18.107h9.328v14.5H186.4z"/><path stroke-width=".283" stroke-linecap="square" d="M187.968 21.091h6.171v6.545h-6.171z"/><path stroke-width=".283" stroke-linecap="square" d="M187.968 19.561h6.171v8.075h-6.171z"/><path stroke-width=".567" stroke-linecap="square" d="M170.238 18.107h9.328v14.5h-9.328z"/><path stroke-width=".283" stroke-linecap="square" d="M171.806 21.091h6.171v6.545h-6.171z"/><path stroke-width=".283" stroke-linecap="square" d="M171.806 19.561h6.171v8.075h-6.171z"/><path stroke-width=".567" stroke-linecap="square" d="M217.367 27.494l-4.956-14.672-25.049.002m-23.583 19.783v-5.028h-15.575"/><path stroke-width=".283" stroke-linecap="square" d="M158.889 27.579v5.028m-5.427-5.028v5.028m10.317-3.521h-15.622m15.622 1.633h-15.622m0-3.14v5.028"/><path stroke-width=".567" stroke-linecap="square" d="M151.106 18.107h9.328v9.472h-9.328z"/><path stroke-width=".283" stroke-linecap="square" d="M152.674 21.091h6.171v6.488h-6.171z"/><path stroke-width=".283" stroke-linecap="square" d="M152.674 19.561h6.171v8.017h-6.171z"/><path stroke-width=".567" stroke-linecap="square" d="M163.404 27.494l4.956-14.672 25.049.002m-45.443-.063l125.13.078m-125.13-4.851l125.13.215v4.389"/><path stroke-width=".283" stroke-linecap="square" d="M272.861 9.628H148.294m124.567 1.632H148.294M261.096 8.1v4.886"/><path stroke-width=".567" stroke-linecap="round" d="M276.579 51.168v2.779m-15.631-2.779v2.779m15.631 16.072v2.78m-15.631-2.78v2.78m-23.166-21.631v2.779m-20.402-2.779v2.779m20.402 16.072v2.78m-20.386-2.783v2.786"/><path stroke-width=".567" stroke-linecap="square" d="M148.156 51.168h15.591V35.002H148.25"/><path stroke-width=".283" stroke-linecap="square" d="M163.578 36.746H148.22m15.395 9.242H148.22m10.548-10.892v16.072m-5.463-16.072v16.072m-5.085-16.072v16.072m15.125 4.426h-15.109m15.29 9.242h-15.29m10.548-10.892v16.072m-5.462-16.072v16.072m-5.086-16.072v16.072m15.33 4.538H148.22m15.346 9.242H148.22m10.548-10.892v13.379m-5.463-13.379v13.379m-5.085-13.379v13.379"/><path stroke-width=".567" stroke-linecap="round" d="M163.756 51.168v2.779m0 16.072v2.78"/><path stroke-width=".283" stroke-linecap="square" d="M255.266 8.1v4.886M249.641 8.1v4.886M243.81 8.1v4.886m11.471-.158V4.609H227.58v8.215"/><path stroke-width=".567" stroke-linecap="square" d="M148.156 70.126h15.591V53.96H148.25m-.094 32.332h15.591V72.898H148.25"/><path stroke-width=".283" stroke-linecap="square" d="M238.221 8.1v4.886M232.806 8.1v4.886M222.783 8.1v4.886M217.369 8.1v4.886m-27.964-.158V4.609h-6.217v8.215M195.326 8.1v4.886M189.477 8.1v4.886"/><path stroke-width=".567" stroke-linecap="square" d="M244.53 93.475h9.167v13.938h-9.167z"/><path stroke-width=".283" stroke-linecap="square" d="M253.682 97.431h-4.125m-.982 0h-4.045m4.991-2.149v12.131m4.176-9.343h-4.125m-.76-2.788v2.149m.007.639h-4.146m4.139-1.402v10.745"/><path stroke-width=".567" stroke-linecap="square" d="M253.422 95.145h-8.892m-23.975-1.67h9.167v13.938h-9.167z"/><path stroke-width=".283" stroke-linecap="square" d="M229.707 97.431h-4.125m-.982 0h-4.045m4.992-2.149v12.131m4.175-9.343h-4.125m-.76-2.788v2.149m.007.639h-4.146m4.139-1.402v10.745"/><path stroke-width=".567" stroke-linecap="square" d="M229.447 95.145h-8.892m-17.908-1.67h9.167v17.304h-9.167z"/><path stroke-width=".283" stroke-linecap="square" d="M211.799 97.431h-4.125m-.982 0h-4.045m4.991-2.149v14.185m4.176-11.397h-4.125m-.76-2.788v2.149m.007.639h-4.146m4.139-1.167v12.564"/><path stroke-width=".567" stroke-linecap="square" d="M211.539 95.145h-8.892m-16.163-1.67h9.167v17.304h-9.167z"/><path stroke-width=".283" stroke-linecap="square" d="M195.636 97.431h-4.124m-.982 0h-4.046m4.992-2.149v14.185m4.175-11.397h-4.125m-.759-2.788v2.149m.007.639h-4.147m4.14-1.167v12.564"/><path stroke-width=".567" stroke-linecap="square" d="M195.376 95.145h-8.892m-17.093-1.67h9.167v13.938h-9.167z"/><path stroke-width=".283" stroke-linecap="square" d="M178.543 97.431h-4.125m-.982 0h-4.045m4.991-2.149v12.131m4.175-9.343h-4.125m-.759-2.788v2.149m.007.639h-4.146m4.139-1.402v10.745"/><path stroke-width=".567" stroke-linecap="square" d="M178.283 95.145h-8.892m-16.723-1.67h9.167v13.938h-9.167z"/><path stroke-width=".283" stroke-linecap="square" d="M161.82 97.431h-4.125m-.982 0h-4.045m4.991-2.149v12.131m4.175-9.343h-4.125m-.759-2.788v2.149m.007.639h-4.146m4.139-1.402v10.745"/><path stroke-width=".567" stroke-linecap="square" d="M161.559 95.145h-8.892m33.362 12.268h-38.044m54.637 0h-6.971"/><path stroke-width=".283" stroke-linecap="square" d="M177.711 12.828V1.617h-5.642v11.205m-5.55-4.722v4.668M161.184 8.1v4.668M155.91 8.1v4.668M150.724 8.1v4.668m-66.066 96.66h9.167v1.351h-9.167zm16.175 0H110v1.351h-9.167zm85.651 0h9.167v1.351h-9.167zm16.174 0h9.167v1.351h-9.167zm9.646-96.6V.157H189.45v12.664M201.336 8.1v4.886m5.437-4.886v4.886m-186.04 1.188V3.134h8.475v8.215m11.983.004V3.134h27.701v8.215m15.773.004V3.134h5.642v8.215m5.132.004V3.134h17.771v8.215m5.551.004V.142h5.642v11.205m65.002.006V3.134h-6.217v8.215"/><path stroke-width=".283" stroke-linecap="square" d="M177.711 11.353V.142h-5.642v11.205m83.212.006V3.134H227.58v8.215m48.159 2.544V2.853h-8.475v8.214"/></g></svg>