<?xml version="1.0" encoding="utf-8"?>
<!-- Generator: Adobe Illustrator 19.1.0, SVG Export Plug-In . SVG Version: 6.00 Build 0)  -->
<svg version="1.1" id="Слой_1" xmlns="http://www.w3.org/2000/svg" xmlns:xlink="http://www.w3.org/1999/xlink" x="0px" y="0px"
	 viewBox="0 0 48 48" enable-background="new 0 0 48 48" xml:space="preserve">
<g>
	<path d="M24,14c5.5,0,10,4.5,10,10s-4.5,10-10,10s-10-4.5-10-10S18.5,14,24,14 M24,12c-6.6,0-12,5.4-12,12s5.4,12,12,12
		s12-5.4,12-12S30.6,12,24,12L24,12z"/>
</g>
<g>
	<path fill="#FFFFFF" d="M24,9.5c-0.3,0-0.5-0.2-0.5-0.5V1c0-0.3,0.2-0.5,0.5-0.5s0.5,0.2,0.5,0.5v8C24.5,9.3,24.3,9.5,24,9.5z"/>
	<path d="M24,1v8V1L24,1 M24,0c-0.6,0-1,0.4-1,1v8c0,0.6,0.4,1,1,1s1-0.4,1-1V1C25,0.4,24.6,0,24,0L24,0z"/>
</g>
<g>
	<path fill="#FFFFFF" d="M24,47.5c-0.3,0-0.5-0.2-0.5-0.5v-8c0-0.3,0.2-0.5,0.5-0.5s0.5,0.2,0.5,0.5v8C24.5,47.3,24.3,47.5,24,47.5z
		"/>
	<path d="M24,39v8V39L24,39 M24,38c-0.6,0-1,0.4-1,1v8c0,0.6,0.4,1,1,1s1-0.4,1-1v-8C25,38.4,24.6,38,24,38L24,38z"/>
</g>
<g>
	<path fill="#FFFFFF" d="M39,24.5c-0.3,0-0.5-0.2-0.5-0.5s0.2-0.5,0.5-0.5h8c0.3,0,0.5,0.2,0.5,0.5s-0.2,0.5-0.5,0.5H39z"/>
	<path d="M47,23h-8c-0.6,0-1,0.4-1,1s0.4,1,1,1h8c0.6,0,1-0.4,1-1S47.6,23,47,23L47,23z"/>
</g>
<g>
	<path fill="#FFFFFF" d="M1,24.5c-0.3,0-0.5-0.2-0.5-0.5s0.2-0.5,0.5-0.5h8c0.3,0,0.5,0.2,0.5,0.5S9.3,24.5,9,24.5H1z"/>
	<path d="M9,23H1c-0.6,0-1,0.4-1,1s0.4,1,1,1h8c0.6,0,1-0.4,1-1S9.6,23,9,23L9,23z"/>
</g>
<g>
	<path fill="#FFFFFF" d="M34.6,13.9c-0.1,0-0.3-0.1-0.4-0.1c-0.1-0.1-0.1-0.2-0.1-0.4c0-0.1,0.1-0.3,0.1-0.4l5.7-5.7
		c0.1-0.1,0.2-0.1,0.4-0.1s0.3,0.1,0.4,0.1c0.2,0.2,0.2,0.5,0,0.7L35,13.7C34.9,13.8,34.7,13.9,34.6,13.9z"/>
	<path d="M40.3,7.7L40.3,7.7l-5.7,5.7L40.3,7.7C40.3,7.7,40.3,7.7,40.3,7.7 M40.3,6.7c-0.3,0-0.5,0.1-0.7,0.3l-5.7,5.7
		c-0.4,0.4-0.4,1,0,1.4c0.2,0.2,0.5,0.3,0.7,0.3c0.3,0,0.5-0.1,0.7-0.3L41,8.4c0.4-0.4,0.4-1,0-1.4C40.8,6.8,40.5,6.7,40.3,6.7
		L40.3,6.7z"/>
</g>
<g>
	<path fill="#FFFFFF" d="M7.7,40.8c-0.1,0-0.3-0.1-0.4-0.1c-0.2-0.2-0.2-0.5,0-0.7l5.7-5.7c0.1-0.1,0.2-0.1,0.4-0.1
		c0.1,0,0.3,0.1,0.4,0.1c0.1,0.1,0.1,0.2,0.1,0.4s-0.1,0.3-0.1,0.4l-5.7,5.7C8,40.7,7.9,40.8,7.7,40.8z"/>
	<path d="M13.4,34.6L13.4,34.6l-5.7,5.7L13.4,34.6C13.4,34.6,13.4,34.6,13.4,34.6 M13.4,33.6c-0.3,0-0.5,0.1-0.7,0.3L7,39.6
		c-0.4,0.4-0.4,1,0,1.4c0.2,0.2,0.5,0.3,0.7,0.3c0.3,0,0.5-0.1,0.7-0.3l5.7-5.7c0.4-0.4,0.4-1,0-1.4C13.9,33.7,13.6,33.6,13.4,33.6
		L13.4,33.6z"/>
</g>
<g>
	<path fill="#FFFFFF" d="M13.4,14.2c-0.1,0-0.3-0.1-0.4-0.1L7.4,8.4c-0.2-0.2-0.2-0.5,0-0.7c0.1-0.1,0.2-0.1,0.4-0.1
		c0.1,0,0.3,0.1,0.4,0.1l5.7,5.7c0.1,0.1,0.1,0.2,0.1,0.4c0,0.1-0.1,0.3-0.1,0.4C13.7,14.1,13.5,14.2,13.4,14.2z"/>
	<path d="M7.7,8L7.7,8l5.7,5.7L7.7,8C7.7,8,7.7,8,7.7,8 M7.7,7C7.5,7,7.2,7.1,7,7.3c-0.4,0.4-0.4,1,0,1.4l5.7,5.7
		c0.2,0.2,0.5,0.3,0.7,0.3c0.3,0,0.5-0.1,0.7-0.3c0.4-0.4,0.4-1,0-1.4L8.4,7.3C8.2,7.1,8,7,7.7,7L7.7,7z"/>
</g>
<g>
	<path fill="#FFFFFF" d="M40.3,41c-0.1,0-0.3-0.1-0.4-0.1l-5.7-5.7c-0.1-0.1-0.1-0.2-0.1-0.4s0.1-0.3,0.1-0.4s0.2-0.1,0.4-0.1
		s0.3,0.1,0.4,0.1l5.7,5.7c0.2,0.2,0.2,0.5,0,0.7C40.5,41,40.4,41,40.3,41z"/>
	<path d="M34.6,34.9L34.6,34.9l5.7,5.7L34.6,34.9C34.6,34.9,34.6,34.9,34.6,34.9 M34.6,33.9c-0.3,0-0.5,0.1-0.7,0.3
		c-0.4,0.4-0.4,1,0,1.4l5.7,5.7c0.2,0.2,0.5,0.3,0.7,0.3c0.3,0,0.5-0.1,0.7-0.3c0.4-0.4,0.4-1,0-1.4l-5.7-5.7
		C35.1,34,34.9,33.9,34.6,33.9L34.6,33.9z"/>
</g>
</svg>
