<?xml version="1.0" encoding="utf-8"?>
<!-- Generator: Adobe Illustrator 19.1.0, SVG Export Plug-In . SVG Version: 6.00 Build 0)  -->
<svg version="1.1" id="Слой_1" xmlns="http://www.w3.org/2000/svg" xmlns:xlink="http://www.w3.org/1999/xlink" x="0px" y="0px"
	 viewBox="0 0 30 31.6" enable-background="new 0 0 30 31.6" xml:space="preserve">
<g>
	<path d="M7.1,1.9L7.1,1.9L7.1,1.9 M6.4,2.6C5.9,5,5.9,7.4,6.3,9.9c1.4,8.5,8.4,15.3,17,16.5c0.9,0.1,1.9,0.2,2.8,0.2
		c0.5,0,0.9,0,1.4,0c-2.7,2-6,3-9.4,3c-0.5,0-1,0-1.4-0.1C9.1,28.9,2.8,22.8,2.1,15.3C1.6,10.5,3.2,6,6.4,2.6 M6.9,0
		C6.5,0,6.1,0.1,5.7,0.5c-3.9,3.7-6.2,9.1-5.6,15C0.9,24,7.9,30.8,16.4,31.5c0.5,0,1.1,0.1,1.6,0.1c4.3,0,8.3-1.5,11.4-4.1
		c1.3-1,0.5-3.1-1.1-3.1c-0.1,0-0.1,0-0.2,0c-0.7,0.1-1.4,0.1-2.1,0.1c-0.8,0-1.7-0.1-2.5-0.2c-7.7-1.1-14-7.2-15.3-14.9
		C7.8,7,8,4.5,8.6,2.1C8.9,1,7.9,0,6.9,0L6.9,0z"/>
</g>
</svg>
