<svg xmlns="http://www.w3.org/2000/svg" viewBox="0 0 33.344 25.925"><g clip-rule="evenodd" fill="none" stroke="#d5b674" stroke-width=".75" stroke-miterlimit="22.926"><path d="M3.073 10.153c-1.317 2.277-.778 1.329-1.317 2.277-.218.382-.33.855-.328 1.614.006 2.513.01 4.771.01 7.151 0 .315-.003.609-.005.883h30.562a67.609 67.609 0 0 1-.003-.653c.003-2.435-.003-4.869 0-7.304.001-.721-.075-1.176-.238-1.534-.172-.38-1.105-2.066-1.483-2.434m.663 1.414l-.037-.037"/><path d="M6.803 22.079v2.786c0 .377-.36.685-.8.685H2.232c-.44 0-.801-.308-.801-.685v-2.786h5.372zM1.435 18.63h30.556M12.333 16.615h8.319M12.333 15.328h8.319M3.54 14.052h5.3a.48.48 0 0 1 .478.479v1.598a.48.48 0 0 1-.478.479h-5.3a.48.48 0 0 1-.479-.479v-1.598a.482.482 0 0 1 .479-.479zM24.327 14.052h5.3a.48.48 0 0 1 .479.479v1.598a.481.481 0 0 1-.479.479h-5.3a.48.48 0 0 1-.479-.479v-1.598a.48.48 0 0 1 .479-.479zM31.994 22.079v2.786c0 .377-.36.685-.8.685h-3.771c-.441 0-.801-.308-.801-.685v-2.786h5.372zM3.515 9.628l2.268-8.02C6.346.23 6.227.38 7.691.38h17.977c1.423 0 1.301-.12 1.852 1.228l2.268 8.02H3.515zM4.072 7.587L1.67 7.436C.804 7.435.605 7.79.458 8.21c-.179.51-.132 1.125.791 1.4l1.824.544.337-.64.662-1.927zM29.272 7.587l2.403-.151c.866-.001 1.065.354 1.212.774.179.51.132 1.125-.791 1.4l-1.824.544-.337-.639-.663-1.928z" stroke-linecap="round"/></g></svg>