<svg xmlns="http://www.w3.org/2000/svg" viewBox="0 0 12.888 10.014"><g clip-rule="evenodd" fill="none" stroke="#000" stroke-width=".4" stroke-miterlimit="22.926"><path d="M8.566 5.983a2.335 2.335 0 0 1-4.279-.078" stroke-linecap="round"/><path d="M1.637 3.57c.072 0 .144.005.213.016a4.81 4.81 0 0 1 9.187 0 1.437 1.437 0 1 1 0 2.842 4.809 4.809 0 0 1-9.187 0 1.437 1.437 0 1 1-.213-2.858z"/><path d="M5.426 4.189a.622.622 0 0 0-1.139.021m4.395-.021a.622.622 0 0 0-1.139.021" stroke-linecap="round"/></g></svg>