<svg xmlns="http://www.w3.org/2000/svg" viewBox="0 0 36.167 25.084"><g clip-rule="evenodd" fill="none" stroke="#d5b674" stroke-width=".75" stroke-linecap="round" stroke-miterlimit="22.926"><path d="M3.12 3.858h4.324v17.138H3.12zm25.685 0h4.324v17.138h-4.324zm-26.84-1.67h6.634v1.67H1.965zm25.57 0h6.634v1.67h-6.634zM1.965 20.997h6.634v1.856H1.965zm25.57 0h6.634v1.856h-6.634zM.375 22.853h35.417v1.856H.375z"/><path d="M.375.375h35.417v1.856H.375zm4.916 4.943v13.437M30.947 5.318v13.437M18.135 6.35a3.7 3.7 0 0 1 3.688 3.687v7.816h-7.375v-7.816a3.698 3.698 0 0 1 3.687-3.687zm-3.687 3.687h7.375m-3.687 7.816v-7.816m-5.485 7.816h10.75v1.856h-10.75z"/></g></svg>