<svg xmlns="http://www.w3.org/2000/svg" viewBox="0 0 35.702 28.124"><g clip-rule="evenodd" fill="none" stroke="#d5b674" stroke-width=".75" stroke-linecap="round" stroke-miterlimit="22.926"><path d="M1.805 8.601h32.431v19.148H1.805z"/><path d="M1.805 21.746h32.431v6.003H1.805z"/><path d="M17.77 3.844c2.129 0 3.871 1.48 3.871 3.29v14.613H13.9V7.133c-.001-1.809 1.741-3.289 3.87-3.289z"/><path d="M31.252 2.262H4.68l-4 6.339h34.572M11.446.375h1.244v1.887h-1.244zm11.369 0h1.244v1.887h-1.244z"/><path d="M35.327 8.601l-4-6.339H4.755m3.093 8.46v6.788m0 0v1.218m0-13.228v1.218m9.769 4.004v6.788m0 0v1.218m0-13.228v1.218m10.2 4.004v6.788m0 0v1.218m0-13.228v1.218M17.617 24.1v3.649"/></g></svg>