<svg xmlns="http://www.w3.org/2000/svg" viewBox="0 0 38.3 38.5"><circle fill="none" stroke="#C4AD7B" stroke-miterlimit="10" cx="19" cy="19.5" r="10.7"/><circle fill="none" stroke="#C4AD7B" stroke-miterlimit="10" cx="19" cy="19.5" r="8.5"/><path fill="none" stroke="#C4AD7B" stroke-miterlimit="10" d="M34.1 19.5c0-.4 0-.9-.1-1.3l3.7-.8-1.3-5.9-4.1.9c-.2-.5-.5-.9-.8-1.3l2.9-3L30 3.9l-2.8 3c-.5-.3-1.1-.7-1.7-.9l1-3.9L20.6.6l-1 3.9h-.5c-.4 0-.8 0-1.2.1l-1-3.9L11 2.2l1 4.1c-.5.3-.9.5-1.4.8L7.9 4.4 3.7 8.7l2.8 2.8c-.3.4-.5.9-.8 1.3l-4-.8-1.2 5.9 3.5.7v.9c0 .5 0 .9.1 1.4l-3.5 1 1.6 5.8 3.6-1 .9 1.5-2.5 2.6 4.4 4.1 2.4-2.6c.5.3 1.1.6 1.7.9l-.8 3.1 5.8 1.5.8-3.3h.3c.5 0 1 0 1.5-.1l.9 3.4 5.8-1.5-1-3.6c.6-.3 1.1-.6 1.6-1l2.4 2.5 4.4-4.1-2.4-2.9c.2-.4.5-.8.7-1.2l3.9.7 1.1-5.9-3.6-.7v-.6z"/></svg>