<svg xmlns="http://www.w3.org/2000/svg" viewBox="0 0 35.005 32.12"><g fill="none" stroke="#d5b674" stroke-width=".75" stroke-linecap="round" stroke-miterlimit="22.926"><path d="M7.438 20.417h20.006"/><path d="M17.347 24.507c2.465 0 4.482 1.945 4.482 4.323v2.915h-8.964V28.83c0-2.378 2.017-4.323 4.482-4.323zM.375 22.345H9.431v1.445l-1.458 2.061H1.833L.375 23.79v-1.445zM2.36 22.345l-.031-4.271M7.446 22.345l-.03-4.271M1.833 25.851h6.119v5.893H1.833zM1.941 31.745h31.212M4.881 9.892l1.59 4.091 1.591 4.091H1.7l1.59-4.091zM25.574 22.345H34.63v1.445l-1.458 2.061H27.032l-1.458-2.061v-1.445zM27.559 22.345l-.03-4.271M32.646 22.345l-.031-4.271M27.032 25.851h6.119v5.893h-6.119zM30.08 9.892l1.591 4.091 1.59 4.091h-6.362l1.591-4.091zM17.347 24.507v7.238M11.099 18.074l-.003-3.144M24.067 18.074l-.003-3.144M11.102 14.93h12.962M13.941 14.796l-.045-6.904M21.509 14.796l-.045-6.904M17.692.683l2.367 3.604 2.366 3.605h-9.466l2.367-3.605zM7.438 18.1h20.006M4.771 19.328v1.656M15.493 9.803v2.46M17.712 9.803v2.46M19.889 9.803v2.46M29.998 19.328v1.656" clip-rule="evenodd"/></g></svg>