<svg xmlns="http://www.w3.org/2000/svg" viewBox="0 0 277.475 90.918"><path d="M83.696 12.149C88.592 3.669 96.011-.015 101.44 0c9.273.025.457 14.873-11.06 14.14-.855-.054-1.067-.14.011-.177.223-.008.502-.033.841-.051 3.321-.177 7.662-2.308 9.349-5.49 3.96-7.47-7.706-6.886-14.241 4.124l-19.541 32.92 8.562-.625.008-.024 7.697-.56a.784.784 0 0 1-.102-.153l-7.148-.507 5.969-16.256c.402-1.513 1.79-2.864 3.34-3.252 1.55-.388 2.85.292 3.129 1.635l-.25 2.613h4.236v.491h-4.282L86.64 42.623c1.57.089 2.775.612 2.775 1.243l2.895-.009c1.51-.057 2.279.983 2.306 2.37.525.223.844.519.844.844 0 .39-.462.739-1.186.97-.656 1.664-2.171 2.853-3.926 2.919l-5.713.014-7.199 16.637h4.823v.49h-5.035l-.546 1.259c-1.005 1.391-2.694 2.183-4.068 1.906-1.374-.278-2.064-1.55-1.664-3.063l3.125-17.673-9.223-1.777-8.308 13.994c-27.718 41.848-68.114 31.338-53.413 5.541 8.736-15.331 27.227-23.381 43.355-22.4 2.966.181 3.707.476-.027.613-.772.028-1.736.118-2.911.184-11.494.646-26.408 8.069-32.067 19.11-13.232 25.813 21.554 29.91 43.762-6.748l28.457-46.898zM59.15 43.047h1.259c.591 0 .947.484.789 1.075l-.475 1.788.044-.004-1.095 1.849-.056-.011-1.631 2.687h-.797c-.591 0-.946-.483-.788-1.074l.563-2.124-.803-.155.186-.849.901-.066.542-2.041c.159-.591.77-1.075 1.361-1.075zm35.332-3.069c2.062.429 3.056 4.032 2.219 8.046-.836 4.014-3.186 6.92-5.247 6.491-.971-.202-1.705-1.108-2.123-2.428.379.798.925 1.333 1.603 1.474 1.803.375 3.857-2.165 4.588-5.674.73-3.51-.138-6.66-1.939-7.035-.859-.179-1.775.305-2.578 1.239 1.029-1.516 2.3-2.359 3.477-2.113z" fill-rule="evenodd" clip-rule="evenodd" fill="#004993"/><path d="M265.879 31.841h2.04c4.004 0 5.553 2.606 5.553 4.836 0 2.267-1.474 4.91-6.271 4.91-.454 0-.869-.038-1.322-.075v-9.671zm-4.005-3.702V54.28l4.005-.453v-8.613c.566.076 1.171.076 1.737.076 6.611 0 9.859-4.269 9.859-8.575 0-4.004-2.796-8.575-9.557-8.575h-6.044v-.001zM234.6 41.134c0-5.1 3.891-9.897 9.859-9.897 5.931 0 9.859 4.798 9.859 9.897 0 5.364-4.344 9.821-9.859 9.821a9.808 9.808 0 0 1-9.859-9.821zm-4.005-.038c0 7.934 6.687 13.562 13.864 13.562 7.177 0 13.863-5.628 13.863-13.562 0-8.424-7.215-13.562-13.863-13.562-6.648.001-13.864 5.138-13.864 13.562zM219.075 31.841V54.28l4.004-.453V31.841h5.742v-3.702h-15.299l-1.172 3.702h6.725zM201.579 35.015l3.551 7.365h-7.141l3.59-7.365zm-5.176 10.841h10.313l4.231 8.802 4.004-.831-13.297-26.745-13.373 26.783 3.853.793 4.269-8.802zM168.796 27.686l-4.004.453v27.123l17.263-18.736V54.28l4.004-.453V26.93l-17.263 18.7V27.686zM147.09 42.532h3.929c3.173 0 4.57 2.04 4.57 3.929 0 1.965-1.587 3.891-4.949 3.891h-3.551v-7.82h.001zm0-10.691h2.984c3.06 0 4.571 1.624 4.571 3.626 0 1.927-1.549 3.665-4.155 3.665h-3.4v-7.291zm-4.004-3.702v25.914h7.479c5.817 0 9.028-3.135 9.028-7.366 0-3.173-1.964-5.213-4.419-5.968 2.304-1.21 3.4-3.438 3.4-5.704 0-2.721-1.738-6.876-9.217-6.876h-6.271zM126.941 35.015l3.55 7.365h-7.14l3.59-7.365zm-5.176 10.841h10.313l4.231 8.802 4.004-.831-13.297-26.745-13.373 26.783 3.853.793 4.269-8.802z" fill-rule="evenodd" clip-rule="evenodd"/><path d="M115.582 67.797h-1.354V77.82h1.354V74.3l1.574-1.506 3.506 5.025h1.754l-4.28-5.978 4.169-4.045h-1.864l-4.859 4.859v-4.858zm15.527 0v4.956c0 2.775-.221 4.101-1.284 4.101a3.01 3.01 0 0 1-.635-.056v1.132c.304.056.635.098.925.098 1.381 0 2.347-.967 2.347-4.846v-4.185h3.824v8.822h1.353V67.797h-6.53zm21.561 0l-2.913 6.848-3.079-6.848h-1.449l3.879 8.159c-.456.814-.594.967-1.105.967-.331 0-.552-.014-.787-.056v1.118c.276.056.635.111.98.111.814 0 1.491-.332 2.167-1.864l3.755-8.436h-1.448v.001zm9.149 0V77.82h4.653c1.809 0 2.969-1.2 2.969-2.816 0-1.394-.829-3.064-3.01-3.064h-3.258v-2.941h5.702v-1.2h-7.056v-.002zm1.354 5.343h2.802c1.215 0 2.071.497 2.071 1.85 0 1.257-.856 1.63-1.975 1.63h-2.899v-3.48h.001zm15.734-5.343h-1.353V77.82h1.353v-4.68h5.233v4.68h1.352V67.797h-1.352v4.142h-5.233v-4.142zm16.453 0h-1.352V77.82h4.652c1.809 0 2.969-1.2 2.969-2.816 0-1.394-.829-3.064-3.01-3.064h-3.259v-4.143zm0 5.343h2.803c1.215 0 2.071.497 2.071 1.85 0 1.257-.856 1.63-1.975 1.63h-2.899v-3.48zm8.878-5.343h-1.354V77.82h1.354V67.797zm9.867 0h-1.354V77.82h1.561l5.094-8.09h.028v8.09h1.353V67.797h-1.546l-5.081 8.2h-.055v-8.2zm1.173-2.678h-.689c.055.497.248 1.905 2.084 1.905 1.837 0 2.016-1.408 2.071-1.905h-.677c-.165.607-.455 1.049-1.395 1.049-.952 0-1.214-.442-1.394-1.049zm19.034 2.678v3.175c0 2.334-.097 3.659-1.049 5.647h-.842v3.368h1.242V77.82h6.848v2.168h1.242V76.62h-.883v-8.822h-6.558v-.001zm5.205 8.823h-4.888c.87-1.727 1.036-3.162 1.036-5.385v-2.237h3.852v7.622zm17.999-3.811c0 2.36-1.298 4.072-3.479 4.072-2.182 0-3.479-1.739-3.479-4.101 0-2.36 1.298-4.045 3.479-4.045 2.181.001 3.479 1.713 3.479 4.074zm1.395 0c0-2.168-1.132-5.274-4.873-5.274-3.742 0-4.874 3.106-4.874 5.274 0 2.167 1.132 5.273 4.874 5.273 3.741.001 4.873-3.106 4.873-5.273zm8.113-5.012V77.82h1.313v-5.922c0-.29-.042-1.588-.042-2.499h.042l2.816 8.421h1.339l2.83-8.421h.014c0 .925-.041 2.209-.041 2.499v5.922h1.312V67.797h-1.919l-2.858 8.477h-.027l-2.844-8.477h-1.935z"/></svg>