<svg xmlns="http://www.w3.org/2000/svg" viewBox="0 0 12.137 12.233"><g clip-rule="evenodd"><path d="M11.853 7.168a5.832 5.832 0 0 1-8.966 3.804 5.832 5.832 0 1 1 8.465-7.426" fill="none" stroke="#000" stroke-width=".567" stroke-linecap="round" stroke-miterlimit="22.926"/><path d="M5.022 3.605c-.615.958-.572 1.858-.598 2.789l.034.548c.1.763.36 1.652 1.102 2.109.481.296.696.241 1.113.265.157.009.4.051.539-.203.121-.221.066-1.366-.334-1.627a.571.571 0 0 0-.278-.088c-.062-.006-.069 0-.129-.001-.056 0-.09-.008-.147-.01-.16-.008-.364.074-.55-.119-.236-.246-.263-.88-.253-1.088.018-.368-.012-.688.125-1.105.352-1.069 1.413.358 1.679-1.244.045-.27.214-.906-.181-1.051-.205-.076-.81-.05-1.099.032-.375.107-.776.408-1.023.793zM11.864 4.816l-.815-.669-.815-.669.841-.385.84-.385-.025 1.054z" fill-rule="evenodd"/></g></svg>