<svg xmlns="http://www.w3.org/2000/svg" viewBox="0 0 423.522 422.622"><g clip-rule="evenodd"><path d="M216.667 38.506L181.46 175.27l34.248 34.248c1.346 1.346 1.1 1.371 1.1-.534V38.502c.001-.209-.104-.139-.141.004z" fill-rule="evenodd" stroke="#484b67" stroke-width="2.835" stroke-linecap="round" stroke-miterlimit="22.926"/><path d="M216.9 38.506l35.207 136.764-34.248 34.248c-1.346 1.346-1.1 1.371-1.1-.534V38.502c0-.209.104-.139.141.004z" fill="none" stroke="#484b67" stroke-width="2.835" stroke-linecap="round" stroke-miterlimit="22.926"/><path d="M216.667 382.627L181.46 245.862l34.248-34.248c1.346-1.347 1.1-1.371 1.1.533V382.63c.001.211-.104.14-.141-.003z" fill="none" stroke="#484b67" stroke-width="2.835" stroke-linecap="round" stroke-miterlimit="22.926"/><path d="M216.9 382.627l35.207-136.765-34.248-34.248c-1.346-1.347-1.1-1.371-1.1.533V382.63c0 .211.104.14.141-.003z" fill-rule="evenodd" stroke="#484b67" stroke-width="2.835" stroke-linecap="round" stroke-miterlimit="22.926"/><path d="M45.278 210.821l136.765 35.207 34.248-34.248c1.346-1.346 1.371-1.1-.533-1.1H45.274c-.21 0-.139.104.004.141z" fill-rule="evenodd" stroke="#484b67" stroke-width="2.835" stroke-linecap="round" stroke-miterlimit="22.926"/><path d="M44.696 210.477l136.765-35.207 34.248 34.248c1.346 1.346 1.371 1.1-.533 1.1H44.692c-.209.001-.139-.104.004-.141z" fill="none" stroke="#484b67" stroke-width="2.835" stroke-linecap="round" stroke-miterlimit="22.926"/><path d="M389.11 210.821l-136.764 35.207-34.248-34.248c-1.346-1.346-1.371-1.1.533-1.1h170.483c.21 0 .14.104-.004.141z" fill="none" stroke="#484b67" stroke-width="2.835" stroke-linecap="round" stroke-miterlimit="22.926"/><path d="M389.692 210.477L252.928 175.27l-34.248 34.248c-1.346 1.346-1.371 1.1.533 1.1h170.484c.209.001.139-.104-.005-.141z" fill-rule="evenodd" stroke="#484b67" stroke-width="2.835" stroke-linecap="round" stroke-miterlimit="22.926"/><path d="M140.081 134.39l26.997 45.716 14.915-3.839 3.864-15.01-45.672-26.972c-.056-.033-.111-.036-.108-.003-.032-.003-.029.052.004.108zm155.044-.123l-.287.232.521-.521c.095-.095.016-.11-.065-.062l-46.49 27.454 3.835 14.896c-54.426 54.428-29.192 29.381 1.367-1.051l.221-.011c-41.444 41.533-51.378 51.673-.767 1.062l14.724 3.79 27.002-45.724c.05-.08.034-.159-.061-.065zm-154.644 154.59l.173-.118-.221.221c-.094.094-.016.11.066.062l45.442-26.836-3.835-14.899-.074.074-.004-.051.066-.066-.095-.37-14.725-3.791-27.192 46.045c-.048.081-.032.159.062.065l.337-.336zm127.393-45.693l27.131 45.942c.033.056.036.111.004.108.002.032-.053.029-.109-.004l-46.147-27.252 3.887-15.099c-46.684-46.686-45.756-45.829.24.165l14.994-3.86z" fill-rule="evenodd"/><path d="M336.661 225.52c-7.022 55.776-51.53 99.372-107.44 105.238M231.908 90.359c56.224 7.173 99.936 52.409 105.182 108.845M96.525 195.277c7.172-56.928 53.334-100.994 110.534-105.515M203.3 330.687c-57.785-6.386-102.864-52.961-107.361-110.923" fill="none" stroke="#484b67" stroke-width="2.835" stroke-linecap="round" stroke-miterlimit="22.926"/><path d="M223.047 25.92h4.068V2.304l2.88-.864a3.24 3.24 0 0 0 0-1.44h-8.784a3.24 3.24 0 0 0 0 1.44l3.276.9v16.236h-.144L213.219 0h-8.172a3.24 3.24 0 0 0 0 1.44l2.88.864v21.312l-2.88.864a3.24 3.24 0 0 0 0 1.44h8.748a3.24 3.24 0 0 0 0-1.44l-3.24-.9V5.328h.144l12.348 20.592zM208.572 420.426c2.124 1.476 4.824 2.196 8.1 2.196 3.024 0 5.616-.684 7.74-2.088 2.16-1.404 3.24-3.456 3.24-6.156 0-2.88-1.548-4.896-3.672-5.76a34.375 34.375 0 0 0-3.42-1.188c-3.564-.972-7.092-1.512-7.092-4.608 0-1.44.576-2.52 1.764-3.204s2.592-1.044 4.284-1.044c1.224 0 2.376.18 3.456.54l1.62 4.212a4.59 4.59 0 0 0 1.98 0v-5.508c-2.34-1.224-4.968-1.836-7.92-1.836-3.6 0-6.552.9-8.46 3.312-.972 1.188-1.44 2.664-1.44 4.428 0 9.828 14.112 5.868 14.112 11.772 0 1.548-.648 2.664-1.98 3.384-1.296.684-2.88 1.044-4.788 1.044a14.72 14.72 0 0 1-3.78-.504l-1.728-4.68a4.758 4.758 0 0 0-2.016 0v5.688zM.081 197.449a3.24 3.24 0 0 0 0 1.44l2.916.9 6.408 23.58h4.248l5.076-17.496h.144l4.896 17.496h4.248l6.552-23.58 2.952-.9a3.24 3.24 0 0 0 0-1.44h-8.928a3.24 3.24 0 0 0 0 1.44l3.24.9-4.68 16.992h-.18l-5.292-18.972h-3.348l-5.508 18.972h-.18l-4.572-16.992 3.312-.9a3.24 3.24 0 0 0 0-1.44H.081zM402.21 221.929a3.24 3.24 0 0 0 0 1.44h21.312v-6.048a4.59 4.59 0 0 0-1.98 0l-1.26 3.456h-9.9v-9.612h6.66l.9 2.88a4.09 4.09 0 0 0 1.62 0v-7.704a4.09 4.09 0 0 0-1.62 0l-.9 2.232h-6.66v-8.532h9.216l1.224 3.276a4.757 4.757 0 0 0 2.016 0v-5.868H402.21a3.24 3.24 0 0 0 0 1.44l3.276.9v21.24l-3.276.9z" fill-rule="evenodd"/></g></svg>