<svg width="20" height="20" viewBox="0 0 20 20" xmlns="http://www.w3.org/2000/svg"><title>86E0BB72-D171-44EB-B95E-27B4C775FE8D</title><path d="M16.84 12.552c-.717-.718-1.615-.718-2.333 0-.538.539-1.1 1.077-1.616 1.638-.134.157-.269.18-.448.09-.36-.202-.718-.337-1.055-.561-1.57-.987-2.895-2.267-4.062-3.703-.583-.718-1.1-1.48-1.458-2.333-.068-.18-.068-.292.09-.427.538-.516 1.077-1.077 1.615-1.593.74-.74.74-1.638 0-2.379L6.294 2.005 4.97.681C4.23-.037 3.332-.037 2.614.66c-.539.538-1.077 1.1-1.638 1.616a2.64 2.64 0 0 0-.83 1.795C.056 5.214.348 6.29.729 7.324c.808 2.176 2.042 4.084 3.523 5.856a21.229 21.229 0 0 0 7.203 5.633c1.257.606 2.58 1.077 3.995 1.167.987.045 1.84-.202 2.513-.965.471-.516.987-.988 1.48-1.504.741-.74.741-1.638 0-2.378a278.6 278.6 0 0 1-2.602-2.581z" fill="#FFF" fill-rule="evenodd"/></svg>