<svg width="52" height="40" viewBox="0 0 52 40" xmlns="http://www.w3.org/2000/svg" xmlns:xlink="http://www.w3.org/1999/xlink"><title>A8D2B899-6CC5-460B-B809-771216FFBFA5</title><defs><path d="M14.465 12.303H7.997A3 3 0 0 0 5 15.307v14.648a2.997 2.997 0 0 0 2.997 3.003h31.006A2.998 2.998 0 0 0 42 29.955V15.307a2.997 2.997 0 0 0-2.997-3.004h-6.468v-1.307A3.006 3.006 0 0 0 29.53 8H17.47a3 3 0 0 0-3.005 2.996v1.307z" id="a"/><mask id="b" x="0" y="0" width="37" height="24.958" fill="#fff"><use xlink:href="#a"/></mask></defs><g stroke="#ED2324" fill="none" fill-rule="evenodd"><use mask="url(#b)" stroke-width="2" xlink:href="#a"/><ellipse cx="23.884" cy="21.514" rx="6.14" ry="6.141"/></g></svg>