<svg width="52" height="40" viewBox="0 0 52 40" xmlns="http://www.w3.org/2000/svg"><title>snow</title><path d="M38.755 10.49c-.295-.507-.927-.675-1.434-.38l-3.626 2.066V8.043c0-.59-.464-1.054-1.054-1.054-.59 0-1.054.463-1.054 1.053V13.4l-8.225 4.765v-9.53l4.64-2.7c.507-.296.676-.928.38-1.434-.295-.506-.928-.674-1.434-.38L23.36 6.19V2.054c0-.59-.463-1.054-1.053-1.054-.59 0-1.054.464-1.054 1.054v4.134L17.668 4.12c-.506-.294-1.14-.126-1.434.38-.295.507-.127 1.14.38 1.435l4.64 2.7v9.53L13.027 13.4V8.043c0-.59-.463-1.054-1.054-1.054-.59 0-1.054.463-1.054 1.053v4.133L7.335 10.11c-.506-.295-1.14-.127-1.434.38-.294.506-.126 1.138.38 1.433l3.585 2.067-3.585 2.067c-.506.295-.674.927-.38 1.434.212.338.55.55.93.55.167 0 .378-.043.505-.128l4.64-2.7 8.223 4.767-8.224 4.765-4.64-2.7c-.505-.295-1.138-.126-1.433.38-.294.506-.126 1.14.38 1.434l3.585 2.066-3.585 2.066c-.506.295-.674.928-.38 1.434.212.338.55.548.93.548.167 0 .378-.042.505-.126l3.585-2.067v4.135c0 .59.464 1.054 1.054 1.054.59 0 1.054-.465 1.054-1.055v-5.357l8.225-4.766v9.532l-4.64 2.7c-.506.295-.674.927-.38 1.433.212.338.55.55.93.55.167 0 .378-.044.505-.128l3.585-2.068v4.134c0 .59.464 1.054 1.054 1.054.59 0 1.054-.464 1.054-1.054v-4.134l3.586 2.067c.17.083.338.126.506.126.38 0 .717-.17.928-.55.296-.505.127-1.137-.38-1.433l-4.64-2.7v-9.53l8.226 4.765v5.357c0 .59.464 1.054 1.054 1.054.59 0 1.054-.465 1.054-1.055V27.78l3.585 2.068c.168.084.337.126.505.126.38 0 .717-.168.928-.548.295-.506.127-1.14-.38-1.434l-3.584-2.066 3.584-2.067c.506-.296.674-.93.38-1.435-.296-.506-.93-.675-1.435-.38l-4.64 2.7-8.224-4.766 8.224-4.767 4.64 2.7c.168.084.337.126.505.126.38 0 .717-.17.928-.55.295-.506.127-1.138-.38-1.433L34.75 13.99l3.584-2.067c.548-.295.717-.927.42-1.434z" stroke="#FFF" fill="#ED2324" fill-rule="evenodd"/></svg>