<?xml version="1.0" standalone="no"?>
<!DOCTYPE svg PUBLIC "-//W3C//DTD SVG 20010904//EN"
 "http://www.w3.org/TR/2001/REC-SVG-20010904/DTD/svg10.dtd">
<svg version="1.0" xmlns="http://www.w3.org/2000/svg"
 width="192.000000pt" height="192.000000pt" viewBox="0 0 192.000000 192.000000"
 preserveAspectRatio="xMidYMid meet">
<metadata>
Created by potrace 1.11, written by Peter Selinger 2001-2013
</metadata>
<g transform="translate(0.000000,192.000000) scale(0.100000,-0.100000)"
fill="#000000" stroke="none">
<path d="M850 1905 c-309 -55 -563 -252 -695 -539 -78 -167 -105 -405 -67
-586 77 -371 328 -647 683 -751 59 -17 106 -22 234 -25 144 -3 169 -1 255 21
146 38 296 117 401 210 69 61 199 228 199 255 0 4 -28 22 -62 39 -35 18 -77
41 -94 52 l-31 19 -36 -53 c-145 -209 -368 -329 -612 -328 -44 0 -96 2 -115 6
-298 53 -533 277 -604 576 -22 93 -15 274 13 359 30 88 47 125 89 188 109 166
303 296 487 327 209 35 405 -12 574 -138 86 -63 181 -173 181 -207 0 -8 7 -9
18 -5 9 4 54 20 99 37 46 16 85 33 88 37 6 11 -77 143 -128 204 -105 125 -302
243 -482 287 -106 26 -294 34 -395 15z"/>
<path d="M709 1338 c16 -35 59 -128 96 -208 37 -80 68 -149 68 -155 0 -9 -33
-79 -151 -325 -28 -58 -49 -106 -48 -108 2 -1 23 6 47 17 24 10 181 78 349
151 168 72 323 139 345 149 22 10 81 36 130 57 50 21 100 43 113 50 22 11 22
11 -10 24 -18 7 -55 23 -83 35 -27 12 -138 60 -245 105 -107 45 -223 95 -258
111 -34 16 -64 29 -67 29 -2 0 -72 29 -156 65 -83 36 -153 65 -155 65 -2 0 10
-28 25 -62z"/>
</g>
</svg>
