<?xml version="1.0" encoding="utf-8"?>
<!-- Generator: Adobe Illustrator 20.1.0, SVG Export Plug-In . SVG Version: 6.00 Build 0)  -->
<svg version="1.1" id="Layer_1" xmlns="http://www.w3.org/2000/svg" xmlns:xlink="http://www.w3.org/1999/xlink" x="0px" y="0px"
	 viewBox="0 0 64 46" style="enable-background:new 0 0 64 46;" xml:space="preserve">
<style type="text/css">
	.st0{fill:none;stroke:#000000;stroke-miterlimit:10;}
	.st1{fill:#FFFFFF;stroke:#000000;stroke-width:2;stroke-miterlimit:10;}
	.st2{fill:#04DDA6;}
</style>
<line class="st0" x1="4" y1="23.5" x2="14" y2="23.5"/>
<line class="st0" x1="4" y1="25.5" x2="18" y2="25.5"/>
<line class="st0" x1="4" y1="28.5" x2="8" y2="28.5"/>
<line class="st0" x1="19" y1="25.5" x2="21" y2="25.5"/>
<line class="st0" x1="22" y1="25.5" x2="28" y2="25.5"/>
<line class="st0" x1="29" y1="25.5" x2="37" y2="25.5"/>
<line class="st0" x1="4" y1="16.5" x2="6" y2="16.5"/>
<line class="st0" x1="7" y1="16.5" x2="13" y2="16.5"/>
<line class="st0" x1="14" y1="16.5" x2="22" y2="16.5"/>
<line class="st0" x1="40" y1="14.5" x2="34" y2="14.5"/>
<line class="st0" x1="33" y1="14.5" x2="27" y2="14.5"/>
<line class="st0" x1="26" y1="14.5" x2="18" y2="14.5"/>
<line class="st0" x1="34" y1="23.5" x2="35" y2="23.5"/>
<line class="st0" x1="35" y1="19.5" x2="36" y2="19.5"/>
<line class="st0" x1="4" y1="30.5" x2="12" y2="30.5"/>
<line class="st0" x1="9" y1="28.5" x2="26" y2="28.5"/>
<line class="st0" x1="4" y1="32.5" x2="9" y2="32.5"/>
<line class="st0" x1="14" y1="32.5" x2="19" y2="32.5"/>
<line class="st0" x1="13" y1="30.5" x2="16" y2="30.5"/>
<line class="st0" x1="27" y1="28.5" x2="32" y2="28.5"/>
<line class="st0" x1="17" y1="30.5" x2="22" y2="30.5"/>
<line class="st0" x1="20" y1="21.5" x2="28" y2="21.5"/>
<line class="st0" x1="29" y1="21.5" x2="32" y2="21.5"/>
<line class="st0" x1="33" y1="21.5" x2="38" y2="21.5"/>
<line class="st0" x1="15" y1="23.5" x2="23" y2="23.5"/>
<line class="st0" x1="24" y1="23.5" x2="27" y2="23.5"/>
<line class="st0" x1="19" y1="8.5" x2="29" y2="8.5"/>
<line class="st0" x1="30" y1="8.5" x2="38" y2="8.5"/>
<line class="st0" x1="39" y1="8.5" x2="42" y2="8.5"/>
<line class="st0" x1="23" y1="16.5" x2="31" y2="16.5"/>
<line class="st0" x1="32" y1="16.5" x2="35" y2="16.5"/>
<line class="st0" x1="28" y1="23.5" x2="33" y2="23.5"/>
<line class="st0" x1="16" y1="19.5" x2="24" y2="19.5"/>
<line class="st0" x1="25" y1="19.5" x2="28" y2="19.5"/>
<line class="st0" x1="29" y1="19.5" x2="34" y2="19.5"/>
<line class="st0" x1="29" y1="12.5" x2="30" y2="12.5"/>
<line class="st0" x1="23" y1="12.5" x2="28" y2="12.5"/>
<line class="st0" x1="14" y1="19.5" x2="15" y2="19.5"/>
<line class="st0" x1="29" y1="10.5" x2="37" y2="10.5"/>
<line class="st0" x1="38" y1="10.5" x2="41" y2="10.5"/>
<line class="st0" x1="27" y1="10.5" x2="28" y2="10.5"/>
<line class="st0" x1="5" y1="10.5" x2="4" y2="10.5"/>
<line class="st0" x1="24" y1="10.5" x2="16" y2="10.5"/>
<line class="st0" x1="15" y1="10.5" x2="12" y2="10.5"/>
<line class="st0" x1="11" y1="10.5" x2="6" y2="10.5"/>
<line class="st0" x1="26" y1="10.5" x2="25" y2="10.5"/>
<line class="st0" x1="6" y1="14.5" x2="14" y2="14.5"/>
<line class="st0" x1="15" y1="14.5" x2="17" y2="14.5"/>
<line class="st0" x1="4" y1="14.5" x2="5" y2="14.5"/>
<line class="st0" x1="4" y1="19.5" x2="7" y2="19.5"/>
<line class="st0" x1="8" y1="19.5" x2="13" y2="19.5"/>
<line class="st0" x1="10" y1="32.5" x2="13" y2="32.5"/>
<line class="st0" x1="4" y1="21.5" x2="9" y2="21.5"/>
<line class="st0" x1="14" y1="21.5" x2="19" y2="21.5"/>
<line class="st0" x1="10" y1="8.5" x2="18" y2="8.5"/>
<line class="st0" x1="4" y1="8.5" x2="9" y2="8.5"/>
<line class="st0" x1="10" y1="21.5" x2="13" y2="21.5"/>
<line class="st0" x1="14" y1="12.5" x2="22" y2="12.5"/>
<line class="st0" x1="8" y1="12.5" x2="13" y2="12.5"/>
<line class="st0" x1="4" y1="12.5" x2="7" y2="12.5"/>
<path class="st1" d="M0,0"/>
<g>
	<polygon points="63,5 1,5 1,6 63,6 63,5 	"/>
</g>
<g>
	<polygon points="57,3 55,3 55,4 57,4 57,3 	"/>
</g>
<g>
	<polygon points="54,3 52,3 52,4 54,4 54,3 	"/>
</g>
<g>
	<polygon points="60,3 58,3 58,4 60,4 60,3 	"/>
</g>
<g>
	<path class="st2" d="M29.5,45.5v-2.2l-0.3-0.1C29,43.1,28.8,43,28.6,43l-0.3-0.2l-1.6,1.6l-2.1-2.1l1.6-1.6L26,40.4
		c-0.1-0.2-0.2-0.4-0.2-0.5l-0.1-0.3h-2.2v-3h2.2l0.1-0.3c0.1-0.2,0.1-0.4,0.2-0.5l0.2-0.3l-1.6-1.6l2.1-2.1l1.6,1.6l0.3-0.2
		c0.2-0.1,0.4-0.2,0.5-0.2l0.3-0.1v-2.2h3v2.2l0.3,0.1c0.2,0.1,0.4,0.1,0.5,0.2l0.3,0.2l1.6-1.6l2.1,2.1l-1.6,1.6l0.2,0.3
		c0.1,0.2,0.2,0.4,0.2,0.5l0.1,0.3h2.2v3h-2.2l-0.1,0.3C36.1,40,36,40.2,36,40.4l-0.2,0.3l1.6,1.6l-2.1,2.1l-1.6-1.6L33.4,43
		c-0.2,0.1-0.4,0.2-0.5,0.2l-0.3,0.1v2.2H29.5z M31,34.5c-1.9,0-3.5,1.6-3.5,3.5s1.6,3.5,3.5,3.5s3.5-1.6,3.5-3.5S32.9,34.5,31,34.5
		z"/>
	<path d="M32,31v1.3v0.7l0.7,0.2c0.2,0.1,0.3,0.1,0.5,0.2l0.6,0.3l0.5-0.5l1-1l1.4,1.4l-1,1l-0.5,0.5l0.3,0.6
		c0.1,0.2,0.1,0.3,0.2,0.5l0.2,0.7h0.7H38v2h-1.3h-0.7l-0.2,0.7c-0.1,0.2-0.1,0.3-0.2,0.5l-0.3,0.6l0.5,0.5l1,1l-1.4,1.4l-1-1
		l-0.5-0.5l-0.6,0.3c-0.2,0.1-0.3,0.1-0.5,0.2L32,42.9v0.7V45h-2v-1.3v-0.7l-0.7-0.2c-0.2-0.1-0.3-0.1-0.5-0.2l-0.6-0.3l-0.5,0.5
		l-1,1l-1.4-1.4l1-1l0.5-0.5l-0.3-0.6c-0.1-0.2-0.1-0.3-0.2-0.5L26.1,39h-0.7H24v-2h1.3h0.7l0.2-0.7c0.1-0.2,0.1-0.3,0.2-0.5
		l0.3-0.6l-0.5-0.5l-1-1l1.4-1.4l1,1l0.5,0.5l0.6-0.3c0.2-0.1,0.3-0.1,0.5-0.2l0.7-0.2v-0.7V31H32 M31,42c2.2,0,4-1.8,4-4
		s-1.8-4-4-4s-4,1.8-4,4S28.8,42,31,42 M33,30h-4v2.3c-0.2,0.1-0.4,0.2-0.6,0.2l-1.7-1.7l-2.8,2.8l1.7,1.7c-0.1,0.2-0.2,0.4-0.2,0.6
		H23v4h2.3c0.1,0.2,0.2,0.4,0.2,0.6l-1.7,1.7l2.8,2.8l1.7-1.7c0.2,0.1,0.4,0.2,0.6,0.2V46h4v-2.3c0.2-0.1,0.4-0.2,0.6-0.2l1.7,1.7
		l2.8-2.8l-1.7-1.7c0.1-0.2,0.2-0.4,0.2-0.6H39v-4h-2.3c-0.1-0.2-0.2-0.4-0.2-0.6l1.7-1.7l-2.8-2.8l-1.7,1.7
		c-0.2-0.1-0.4-0.2-0.6-0.2V30L33,30z M31,41c-1.7,0-3-1.3-3-3s1.3-3,3-3s3,1.3,3,3S32.7,41,31,41L31,41z"/>
</g>
<g>
	<path d="M61,0H3C1.3,0,0,1.3,0,3v33c0,1.7,1.3,3,3,3h18v-2H4c-1.1,0-2-0.9-2-2V4c0-1.1,0.9-2,2-2h56c1.1,0,2,0.9,2,2v31
		c0,1.1-0.9,2-2,2v2h1c1.7,0,3-1.3,3-3V3C64,1.3,62.7,0,61,0L61,0z"/>
</g>
<g>
	<path class="st2" d="M47.5,40.5v-1.4L47.2,39c-0.3-0.1-0.6-0.2-0.8-0.3L46,38.5l-1,1l-3.5-3.5l1-1l-0.2-0.3
		c-0.1-0.3-0.2-0.5-0.3-0.8l-0.1-0.3h-1.4v-5h1.4l0.1-0.3c0.1-0.3,0.2-0.6,0.3-0.8l0.2-0.3l-1-1l3.5-3.5l1,1l0.3-0.2
		c0.3-0.1,0.5-0.2,0.8-0.3l0.3-0.1v-1.4h5v1.4l0.3,0.1c0.3,0.1,0.6,0.2,0.8,0.3l0.3,0.2l1-1l3.5,3.5l-1,1l0.2,0.3
		c0.1,0.3,0.2,0.5,0.3,0.8l0.1,0.3h1.4v5h-1.4L58,33.8c-0.1,0.3-0.2,0.6-0.3,0.8L57.5,35l1,1L55,39.5l-1-1l-0.3,0.2
		c-0.3,0.1-0.5,0.2-0.8,0.3l-0.3,0.1v1.4H47.5z M50,25.5c-3,0-5.5,2.5-5.5,5.5c0,3,2.5,5.5,5.5,5.5s5.5-2.5,5.5-5.5
		C55.5,28,53,25.5,50,25.5z"/>
	<path d="M52,22v0.5v0.7l0.7,0.2c0.3,0.1,0.5,0.2,0.8,0.3l0.6,0.3l0.5-0.5l0.4-0.4l2.8,2.8l-0.4,0.4l-0.5,0.5l0.3,0.6
		c0.1,0.3,0.2,0.5,0.3,0.8l0.2,0.7h0.7H59v4h-0.5h-0.7l-0.2,0.7c-0.1,0.3-0.2,0.5-0.3,0.8l-0.3,0.6l0.5,0.5l0.4,0.4l-2.8,2.8
		l-0.4-0.4l-0.5-0.5l-0.6,0.3c-0.3,0.1-0.5,0.2-0.8,0.3L52,38.8v0.7V40h-4v-0.5v-0.7l-0.7-0.2c-0.3-0.1-0.5-0.2-0.8-0.3l-0.6-0.3
		l-0.5,0.5l-0.4,0.4l-2.8-2.8l0.4-0.4l0.5-0.5l-0.3-0.6c-0.1-0.3-0.2-0.5-0.3-0.8L42.2,33h-0.7H41v-4h0.5h0.7l0.2-0.7
		c0.1-0.3,0.2-0.5,0.3-0.8l0.3-0.6l-0.5-0.5l-0.4-0.4l2.8-2.8l0.4,0.4l0.5,0.5l0.6-0.3c0.3-0.1,0.5-0.2,0.8-0.3l0.7-0.2v-0.7V22H52
		 M50,37c3.3,0,6-2.7,6-6s-2.7-6-6-6s-6,2.7-6,6S46.7,37,50,37 M53,21h-6v1.5c-0.3,0.1-0.6,0.2-0.9,0.4l-1.1-1.1l-4.2,4.2l1.1,1.1
		c-0.1,0.3-0.3,0.6-0.4,0.9H40v6h1.5c0.1,0.3,0.2,0.6,0.4,0.9l-1.1,1.1l4.2,4.2l1.1-1.1c0.3,0.1,0.6,0.3,0.9,0.4V41h6v-1.5
		c0.3-0.1,0.6-0.2,0.9-0.4l1.1,1.1l4.2-4.2l-1.1-1.1c0.1-0.3,0.3-0.6,0.4-0.9H60v-6h-1.5c-0.1-0.3-0.2-0.6-0.4-0.9l1.1-1.1l-4.2-4.2
		l-1.1,1.1c-0.3-0.1-0.6-0.3-0.9-0.4V21L53,21z M50,36c-2.8,0-5-2.2-5-5s2.2-5,5-5s5,2.2,5,5S52.8,36,50,36L50,36z"/>
</g>
</svg>
