<?xml version="1.0" encoding="utf-8"?>
<!-- Generator: Adobe Illustrator 20.1.0, SVG Export Plug-In . SVG Version: 6.00 Build 0)  -->
<svg version="1.1" id="Layer_1" xmlns="http://www.w3.org/2000/svg" xmlns:xlink="http://www.w3.org/1999/xlink" x="0px" y="0px"
	 viewBox="0 0 64 46" style="enable-background:new 0 0 64 46;" xml:space="preserve">
<style type="text/css">
	.st0{fill:#04DDA6;}
	.st1{fill:#FFFFFF;stroke:#000000;stroke-miterlimit:10;}
	.st2{fill:#04DDA6;stroke:#000000;stroke-miterlimit:10;}
</style>
<g>
	<polygon points="63,5 1,5 1,6 63,6 63,5 	"/>
</g>
<g>
	<polygon points="57,3 55,3 55,4 57,4 57,3 	"/>
</g>
<g>
	<polygon points="54,3 52,3 52,4 54,4 54,3 	"/>
</g>
<g>
	<polygon points="60,3 58,3 58,4 60,4 60,3 	"/>
</g>
<g>
	<path d="M61,2c0.6,0,1,0.4,1,1v40c0,0.6-0.4,1-1,1H3c-0.6,0-1-0.4-1-1V3c0-0.6,0.4-1,1-1H61 M61,0H3C1.3,0,0,1.3,0,3v40
		c0,1.7,1.3,3,3,3h58c1.7,0,3-1.3,3-3V3C64,1.3,62.7,0,61,0L61,0z"/>
</g>
<g>
	<rect x="4.5" y="8.5" class="st0" width="12" height="12"/>
	<g>
		<path d="M16,9v11H5V9H16 M17,8H4v13h13V8L17,8z"/>
	</g>
</g>
<line class="st1" x1="5" y1="9" x2="16" y2="20"/>
<line class="st1" x1="16" y1="9" x2="5" y2="20"/>
<g>
	<rect x="4" y="22" class="st0" width="13" height="1"/>
	<polygon points="17,22 4,22 4,23 17,23 17,22 	"/>
</g>
<g>
	<rect x="4" y="24" class="st0" width="9" height="1"/>
	<polygon points="13,24 4,24 4,25 13,25 13,24 	"/>
</g>
<g>
	<rect x="19" y="22" class="st0" width="13" height="1"/>
	<polygon points="32,22 19,22 19,23 32,23 32,22 	"/>
</g>
<g>
	<rect x="19" y="24" class="st0" width="9" height="1"/>
	<polygon points="28,24 19,24 19,25 28,25 28,24 	"/>
</g>
<g>
	<rect x="46" y="22" class="st0" width="13" height="1"/>
	<polygon points="59,22 46,22 46,23 59,23 59,22 	"/>
</g>
<g>
	<rect x="46" y="24" class="st0" width="9" height="1"/>
	<polygon points="55,24 46,24 46,25 55,25 55,24 	"/>
</g>
<g>
	<rect x="19" y="28" class="st0" width="21" height="1"/>
	<polygon points="40,28 19,28 19,29 40,29 40,28 	"/>
</g>
<g>
	<rect x="19" y="30" class="st0" width="17" height="1"/>
	<polygon points="36,30 19,30 19,31 36,31 36,30 	"/>
</g>
<g>
	<rect x="19" y="33" class="st0" width="18" height="1"/>
	<polygon points="37,33 19,33 19,34 37,34 37,33 	"/>
</g>
<g>
	<rect x="19" y="35" class="st0" width="15" height="1"/>
	<polygon points="34,35 19,35 19,36 34,36 34,35 	"/>
</g>
<g>
	<rect x="19" y="37" class="st0" width="20" height="1"/>
	<polygon points="39,37 19,37 19,38 39,38 39,37 	"/>
</g>
<g>
	<rect x="19" y="39" class="st0" width="19" height="1"/>
	<polygon points="38,39 19,39 19,40 38,40 38,39 	"/>
</g>
<g>
	<rect x="19" y="41" class="st0" width="18" height="1"/>
	<polygon points="37,41 19,41 19,42 37,42 37,41 	"/>
</g>
<g>
	<rect x="46" y="28" class="st0" width="13" height="1"/>
	<polygon points="59,28 46,28 46,29 59,29 59,28 	"/>
</g>
<g>
	<rect x="46" y="30" class="st0" width="12" height="1"/>
	<polygon points="58,30 46,30 46,31 58,31 58,30 	"/>
</g>
<g>
	<rect x="46" y="33" class="st0" width="13" height="1"/>
	<polygon points="59,33 46,33 46,34 59,34 59,33 	"/>
</g>
<g>
	<rect x="46" y="35" class="st0" width="12" height="1"/>
	<polygon points="58,35 46,35 46,36 58,36 58,35 	"/>
</g>
<g>
	<rect x="46" y="37" class="st0" width="13" height="1"/>
	<polygon points="59,37 46,37 46,38 59,38 59,37 	"/>
</g>
<g>
	<rect x="46" y="39" class="st0" width="12" height="1"/>
	<polygon points="58,39 46,39 46,40 58,40 58,39 	"/>
</g>
<g>
	<rect x="46" y="41" class="st0" width="7" height="1"/>
	<polygon points="53,41 46,41 46,42 53,42 53,41 	"/>
</g>
<g>
	<rect x="19" y="43" class="st0" width="7" height="1"/>
	<polygon points="26,43 19,43 19,44 26,44 26,43 	"/>
</g>
<g>
	<rect x="4.5" y="27.5" class="st0" width="12" height="2"/>
	<path d="M16,28v1H5v-1H16 M17,27H4v3h13V27L17,27z"/>
</g>
<g>
	<rect x="4.5" y="31.5" class="st0" width="12" height="2"/>
	<path d="M16,32v1H5v-1H16 M17,31H4v3h13V31L17,31z"/>
</g>
<g>
	<rect x="19.5" y="15.5" class="st0" width="2" height="4"/>
	<path d="M21,16v3h-1v-3H21 M22,15h-3v5h3V15L22,15z"/>
</g>
<g>
	<rect x="23.5" y="14.5" class="st0" width="2" height="5"/>
	<path d="M25,15v4h-1v-4H25 M26,14h-3v6h3V14L26,14z"/>
</g>
<g>
	<rect x="27.5" y="12.5" class="st0" width="2" height="7"/>
	<path d="M29,13v6h-1v-6H29 M30,12h-3v8h3V12L30,12z"/>
</g>
<g>
	<rect x="31.5" y="15.5" class="st0" width="2" height="4"/>
	<path d="M33,16v3h-1v-3H33 M34,15h-3v5h3V15L34,15z"/>
</g>
<g>
	<rect x="35.5" y="12.5" class="st0" width="2" height="7"/>
	<path d="M37,13v6h-1v-6H37 M38,12h-3v8h3V12L38,12z"/>
</g>
<g>
	<rect x="39.5" y="8.5" class="st0" width="2" height="11"/>
	<path d="M41,9v10h-1V9H41 M42,8h-3v12h3V8L42,8z"/>
</g>
<g>
	<circle class="st0" cx="51.5" cy="14.5" r="5"/>
	<path d="M51.5,10c2.5,0,4.5,2,4.5,4.5S54,19,51.5,19S47,17,47,14.5S49,10,51.5,10 M51.5,9c-3,0-5.5,2.5-5.5,5.5s2.5,5.5,5.5,5.5
		s5.5-2.5,5.5-5.5S54.5,9,51.5,9L51.5,9z"/>
</g>
<polyline class="st2" points="54,10 51.5,14.5 56,14.5 "/>
</svg>
