<svg id="Layer_1" xmlns="http://www.w3.org/2000/svg" xmlns:xlink="http://www.w3.org/1999/xlink" viewBox="0 0 415 415"><style>.st0{clip-path:url(#SVGID_2_);fill-rule:evenodd;clip-rule:evenodd;fill:#FFFFFF;}</style><defs><path id="SVGID_1_" d="M0 0h415v415H0z"/></defs><clipPath id="SVGID_2_"><use xlink:href="#SVGID_1_" overflow="visible"/></clipPath><path class="st0" d="M351 0H63.9C28.6 0 0 28.6 0 63.9V351c0 35.3 28.6 64 63.9 64H351c35.3 0 63.9-28.6 63.9-63.9V63.9C415 28.6 386.3 0 351 0m-14.9 290.5l-37.9.5s-8.1 1.6-18.9-5.8c-14.2-9.7-27.6-35.1-38-31.7-10.6 3.4-10.2 26.1-10.2 26.1s.1 4.9-2.3 7.5c-2.6 2.8-7.7 3.4-7.7 3.4h-17s-37.5 2.3-70.4-32.1C97.7 220.9 66 146.6 66 146.6s-1.8-4.9.2-7.2c2.2-2.6 8.3-2.8 8.3-2.8l40.6-.3s3.8.6 6.6 2.6c2.3 1.7 3.5 4.8 3.5 4.8s6.6 16.6 15.2 31.6c17 29.3 24.8 35.7 30.6 32.6 8.4-4.6 5.9-41.4 5.9-41.4s.2-13.4-4.2-19.3c-3.4-4.6-9.8-6-12.6-6.3-2.3-.3 1.5-5.6 6.3-8 7.3-3.6 20.2-3.8 35.4-3.6 11.9.1 15.3.9 19.9 2 14 3.4 9.2 16.4 9.2 47.7 0 10-1.8 24.1 5.4 28.8 3.1 2 10.7.3 29.7-32 9-15.3 15.8-33.3 15.8-33.3s1.5-3.2 3.8-4.6c2.3-1.4 5.5-1 5.5-1l42.7-.3s12.8-1.5 14.9 4.3c2.2 6.1-4.8 20.3-22.2 43.5-28.6 38.2-31.8 34.6-8.1 56.7 22.7 21.1 27.4 31.4 28.2 32.6 9.3 15.6-10.5 16.8-10.5 16.8"/></svg>