<svg width="20px" height="12px" xmlns="http://www.w3.org/2000/svg" viewBox="0 0 512 325.3"><path fill="#ffffff" d="M212 147.6c10.7-5.4 18.8-11.5 24.3-18.1 9.8-11.8 14.8-27.5 14.8-46.9 0-18.9-4.9-35.1-14.6-48.6C220.3 12 192.8.7 154 .1H0v318.5h143.5c16.2 0 31.2-1.4 45-4.3s25.8-8.2 36-16c9-6.8 16.5-15.1 22.5-25.1 9.5-15 14.2-31.9 14.2-50.8 0-18.3-4.2-33.8-12.4-46.7-8.2-12.9-20.5-22.2-36.8-28.1zM63.5 55.3h69.3c15.3 0 27.8 1.7 37.6 5 11.4 4.8 17.1 14.6 17.1 29.4 0 13.3-4.3 22.7-12.9 28-8.6 5.3-19.8 7.9-33.7 7.9H63.5V55.3zm109.6 202.3c-7.7 3.8-18.5 5.6-32.3 5.6H63.5v-84.9h78.4c13.7.2 24.3 1.9 31.8 5.4 13.5 6.2 20.3 17.6 20.3 34.2 0 19.5-6.9 32.7-20.9 39.7zM330.9 19.2h128v30.7h-128zM509.9 170.1c-2.9-18.5-9.2-34.7-18.8-48.7-10.7-15.9-24.3-27.5-40.7-34.8-16.4-7.3-34.9-11-55.4-11-34.5 0-62.6 10.9-84.2 32.7-21.6 21.8-32.5 53.1-32.5 93.9 0 43.5 12 75 35.9 94.3 24 19.3 51.6 29 82.9 29 38 0 67.5-11.4 88.6-34.3 11-11.8 18.1-23.3 21.3-34.7h-66c-2.4 3.3-5 6.1-7.9 8.4-8.7 7.2-20.1 10.8-34.2 10.8-13.2 0-24.5-2.9-33.9-8.9-15.5-9.5-23.7-26.1-24.6-49.7h171.5c.3-20.6-.4-36.2-2-47zm-168 6.1c2.3-15.3 7.7-27.5 16.4-36.4 8.7-9 21-13.5 36.8-13.5 14.5 0 26.7 4.2 36.5 12.7s15.3 20.9 16.4 37.2H341.9z"/></svg>