<?xml version="1.0" encoding="utf-8"?>
<!-- Generator: Adobe Illustrator 20.1.0, SVG Export Plug-In . SVG Version: 6.00 Build 0)  -->
<svg version="1.1" id="Layer_1" xmlns="http://www.w3.org/2000/svg" xmlns:xlink="http://www.w3.org/1999/xlink" x="0px" y="0px"
	 viewBox="0 0 50 46" style="enable-background:new 0 0 50 46;" xml:space="preserve">
<style type="text/css">
	.st0{fill:#04DDA6;}
	.st1{fill:none;stroke:#000000;stroke-linecap:square;stroke-miterlimit:10;}
</style>
<g>
	<path d="M47,2c0.6,0,1,0.4,1,1v40c0,0.6-0.4,1-1,1H3c-0.6,0-1-0.4-1-1V3c0-0.6,0.4-1,1-1H47 M47,0H3C1.3,0,0,1.3,0,3v40
		c0,1.7,1.3,3,3,3h44c1.7,0,3-1.3,3-3V3C50,1.3,48.7,0,47,0L47,0z"/>
</g>
<g>
	<polygon points="40,27 29,27 29,28 40,28 40,27 	"/>
</g>
<g>
	<polygon points="43,29 29,29 29,30 43,30 43,29 	"/>
</g>
<g>
	<polygon points="37,31 29,31 29,32 37,32 37,31 	"/>
</g>
<g>
	<polygon points="40,39 29,39 29,40 40,40 40,39 	"/>
</g>
<g>
	<polygon points="43,41 29,41 29,42 43,42 43,41 	"/>
</g>
<g>
	<polygon points="37,43 29,43 29,44 37,44 37,43 	"/>
</g>
<g>
	<path class="st0" d="M6,23.5c-0.8,0-1.5-0.7-1.5-1.5V10c0-0.8,0.7-1.5,1.5-1.5h38c0.8,0,1.5,0.7,1.5,1.5v12c0,0.8-0.7,1.5-1.5,1.5
		H6z"/>
	<path d="M44,9c0.6,0,1,0.4,1,1v12c0,0.6-0.4,1-1,1H6c-0.6,0-1-0.4-1-1V10c0-0.6,0.4-1,1-1H44 M44,8H6c-1.1,0-2,0.9-2,2v12
		c0,1.1,0.9,2,2,2h38c1.1,0,2-0.9,2-2V10C46,8.9,45.1,8,44,8L44,8z"/>
</g>
<g>
	<rect x="4.5" y="27.5" class="st0" width="5" height="5"/>
	<path d="M9,28v4H5v-4H9 M10,27H4v6h6V27L10,27z"/>
</g>
<g>
	<rect x="12.5" y="27.5" class="st0" width="5" height="5"/>
	<path d="M17,28v4h-4v-4H17 M18,27h-6v6h6V27L18,27z"/>
</g>
<g>
	<rect x="20.5" y="27.5" class="st0" width="5" height="5"/>
	<path d="M25,28v4h-4v-4H25 M26,27h-6v6h6V27L26,27z"/>
</g>
<g>
	<rect x="4.5" y="39.5" class="st0" width="5" height="5"/>
	<path d="M9,40v4H5v-4H9 M10,39H4v6h6V39L10,39z"/>
</g>
<g>
	<rect x="12.5" y="39.5" class="st0" width="5" height="5"/>
	<path d="M17,40v4h-4v-4H17 M18,39h-6v6h6V39L18,39z"/>
</g>
<g>
	<rect x="20.5" y="39.5" class="st0" width="5" height="5"/>
	<path d="M25,40v4h-4v-4H25 M26,39h-6v6h6V39L26,39z"/>
</g>
<g>
	<polygon points="10,34 4,34 4,35 10,35 10,34 	"/>
</g>
<g>
	<polygon points="8,36 4,36 4,37 8,37 8,36 	"/>
</g>
<g>
	<polygon points="18,34 12,34 12,35 18,35 18,34 	"/>
</g>
<g>
	<polygon points="16,36 12,36 12,37 16,37 16,36 	"/>
</g>
<g>
	<polygon points="26,34 20,34 20,35 26,35 26,34 	"/>
</g>
<g>
	<polygon points="24,36 20,36 20,37 24,37 24,36 	"/>
</g>
<g>
	<polygon points="50,5 1,5 1,6 50,6 50,5 	"/>
</g>
<g>
	<polygon points="44,3 42,3 42,4 44,4 44,3 	"/>
</g>
<g>
	<polygon points="41,3 39,3 39,4 41,4 41,3 	"/>
</g>
<g>
	<polygon points="47,3 45,3 45,4 47,4 47,3 	"/>
</g>
<polyline class="st1" points="13,23 20,16 26,23 "/>
<polyline class="st1" points="23,19 29,12 39,23 "/>
</svg>
