<?xml version="1.0" encoding="utf-8"?>
<!-- Generator: Adobe Illustrator 20.1.0, SVG Export Plug-In . SVG Version: 6.00 Build 0)  -->
<svg version="1.1" id="Layer_1" xmlns="http://www.w3.org/2000/svg" xmlns:xlink="http://www.w3.org/1999/xlink" x="0px" y="0px"
	 viewBox="0 0 24 46" style="enable-background:new 0 0 24 46;" xml:space="preserve">
<style type="text/css">
	.st0{fill:none;stroke:#000000;stroke-miterlimit:10;}
	.st1{fill:#04DDA6;}
</style>
<g>
	<path d="M20,2c1.1,0,2,0.9,2,2v38c0,1.1-0.9,2-2,2H4c-1.1,0-2-0.9-2-2V4c0-1.1,0.9-2,2-2H20 M20,0H4C1.8,0,0,1.8,0,4v38
		c0,2.2,1.8,4,4,4h16c2.2,0,4-1.8,4-4V4C24,1.8,22.2,0,20,0L20,0z"/>
</g>
<line class="st0" x1="1" y1="5.5" x2="23" y2="5.5"/>
<line class="st0" x1="1" y1="37.5" x2="23" y2="37.5"/>
<g>
	<path d="M12,40c0.6,0,1,0.4,1,1s-0.4,1-1,1s-1-0.4-1-1S11.4,40,12,40 M12,39c-1.1,0-2,0.9-2,2s0.9,2,2,2s2-0.9,2-2S13.1,39,12,39
		L12,39z"/>
</g>
<g>
	<path class="st1" d="M5,16.5c-0.8,0-1.5-0.7-1.5-1.5v-5c0-0.8,0.7-1.5,1.5-1.5h14c0.8,0,1.5,0.7,1.5,1.5v5c0,0.8-0.7,1.5-1.5,1.5H5
		z"/>
	<g>
		<path d="M19,9c0.6,0,1,0.4,1,1v5c0,0.6-0.4,1-1,1H5c-0.6,0-1-0.4-1-1v-5c0-0.6,0.4-1,1-1H19 M19,8H5c-1.1,0-2,0.9-2,2v5
			c0,1.1,0.9,2,2,2h14c1.1,0,2-0.9,2-2v-5C21,8.9,20.1,8,19,8L19,8z"/>
	</g>
</g>
<line class="st0" x1="3" y1="18.5" x2="21" y2="18.5"/>
<line class="st0" x1="3" y1="20.5" x2="18" y2="20.5"/>
<g>
	<path class="st1" d="M5,34.5c-0.8,0-1.5-0.7-1.5-1.5v-5c0-0.8,0.7-1.5,1.5-1.5h14c0.8,0,1.5,0.7,1.5,1.5v5c0,0.8-0.7,1.5-1.5,1.5H5
		z"/>
	<g>
		<path d="M19,27c0.6,0,1,0.4,1,1v5c0,0.6-0.4,1-1,1H5c-0.6,0-1-0.4-1-1v-5c0-0.6,0.4-1,1-1H19 M19,26H5c-1.1,0-2,0.9-2,2v5
			c0,1.1,0.9,2,2,2h14c1.1,0,2-0.9,2-2v-5C21,26.9,20.1,26,19,26L19,26z"/>
	</g>
</g>
<line class="st0" x1="8" y1="3.5" x2="14" y2="3.5"/>
<line class="st0" x1="15" y1="3.5" x2="16" y2="3.5"/>
</svg>
