<svg id="Layer_1" xmlns="http://www.w3.org/2000/svg" xmlns:xlink="http://www.w3.org/1999/xlink" viewBox="0 0 415.9 415.9"><style>.st0{clip-path:url(#SVGID_2_);fill:#FFFFFF;}</style><defs><path id="SVGID_1_" d="M0 0h415.9v415.9H0z"/></defs><clipPath id="SVGID_2_"><use xlink:href="#SVGID_1_" overflow="visible"/></clipPath><path class="st0" d="M351.4 0h-287C28.8 0 0 28.8 0 64.4v287c0 35.6 28.8 64.4 64.4 64.4h157.7v-161h-54.2V192h54.2v-46.3c0-53.7 32.8-83 80.7-83 23 0 42.7 1.7 48.4 2.5v56.1H318c-26.1 0-31.1 12.4-31.1 30.6V192H349l-8.1 62.8h-54.1v161h64.5c35.6 0 64.4-28.8 64.4-64.4v-287C415.9 28.8 387 0 351.4 0"/></svg>