<?xml version="1.0" encoding="utf-8"?>
<!-- Generator: Adobe Illustrator 20.1.0, SVG Export Plug-In . SVG Version: 6.00 Build 0)  -->
<svg version="1.1" id="Layer_1" xmlns="http://www.w3.org/2000/svg" xmlns:xlink="http://www.w3.org/1999/xlink" x="0px" y="0px"
	 viewBox="0 0 52 47" style="enable-background:new 0 0 52 47;" xml:space="preserve">
<style type="text/css">
	.st0{fill:none;stroke:#000000;stroke-miterlimit:10;}
	.st1{fill:#04DDA6;stroke:#000000;stroke-width:2;stroke-miterlimit:10;}
	.st2{fill:#04DDA6;}
	.st3{fill:#FFFFFF;stroke:#000000;stroke-linecap:square;stroke-miterlimit:10;}
</style>
<g>
	<path d="M29,21v14H9V21H29 M30,20H8v16h22V20L30,20z"/>
</g>
<g>
	<path d="M13,39v2H9v-2H13 M14,38H8v4h6V38L14,38z"/>
</g>
<g>
	<path d="M21,39v2h-4v-2H21 M22,38h-6v4h6V38L22,38z"/>
</g>
<g>
	<path d="M29,39v2h-4v-2H29 M30,38h-6v4h6V38L30,38z"/>
</g>
<g>
	<polygon points="14,43 8,43 8,44 14,44 14,43 	"/>
</g>
<g>
	<polygon points="19,43 16,43 16,44 19,44 19,43 	"/>
</g>
<g>
	<polygon points="29,43 24,43 24,44 29,44 29,43 	"/>
</g>
<g>
	<path d="M37,39v2h-4v-2H37 M38,38h-6v4h6V38L38,38z"/>
</g>
<g>
	<path d="M45,39v2h-4v-2H45 M46,38h-6v4h6V38L46,38z"/>
</g>
<g>
	<polygon points="37,43 32,43 32,44 37,44 37,43 	"/>
</g>
<g>
	<polygon points="43,43 40,43 40,44 43,44 43,43 	"/>
</g>
<line class="st0" x1="32" y1="20.5" x2="46" y2="20.5"/>
<line class="st0" x1="32" y1="22.5" x2="42" y2="22.5"/>
<line class="st0" x1="32" y1="24.5" x2="44" y2="24.5"/>
<g>
	<path d="M47,3c0.6,0,1,0.4,1,1v40c0,0.6-0.4,1-1,1H5c-0.6,0-1-0.4-1-1V4c0-0.6,0.4-1,1-1H47 M47,1H5C3.3,1,2,2.3,2,4v40
		c0,1.7,1.3,3,3,3h42c1.7,0,3-1.3,3-3V4C50,2.3,48.7,1,47,1L47,1z"/>
</g>
<path class="st1" d="M8,17H4c-1.7,0-3-1.3-3-3V5c0-2.2,1.8-4,4-4h6v13C11,15.7,9.7,17,8,17z"/>
<path class="st1" d="M18,17h-4c-1.7,0-3-1.3-3-3V1h10v13C21,15.7,19.7,17,18,17z"/>
<path class="st1" d="M28,17h-4c-1.7,0-3-1.3-3-3V1h10v13C31,15.7,29.7,17,28,17z"/>
<path class="st1" d="M38,17h-4c-1.7,0-3-1.3-3-3V1h10v13C41,15.7,39.7,17,38,17z"/>
<path class="st1" d="M48,17h-4c-1.7,0-3-1.3-3-3V1h6c2.2,0,4,1.8,4,4v9C51,15.7,49.7,17,48,17z"/>
<g>
	<rect x="32.5" y="32.5" class="st2" width="13" height="3"/>
	<path d="M45,33v2H33v-2H45 M46,32H32v4h14V32L46,32z"/>
</g>
<g>
	<polygon class="st2" points="16.4,30 15.6,27 22.4,27 21.6,30 	"/>
	<path d="M21.7,28l-0.5,2h-4.4l-0.5-2H22 M23,27h-8l1,4h6L23,27L23,27z"/>
</g>
<line class="st3" x1="17" y1="26" x2="18" y2="27"/>
<line class="st3" x1="20" y1="27" x2="21" y2="26"/>
</svg>
