<?xml version="1.0" encoding="utf-8"?>
<!-- Generator: Adobe Illustrator 19.1.0, SVG Export Plug-In . SVG Version: 6.00 Build 0)  -->
<svg version="1.1" id="Слой_1" xmlns="http://www.w3.org/2000/svg" xmlns:xlink="http://www.w3.org/1999/xlink" x="0px" y="0px"
	 viewBox="0 0 89.9 84.8" enable-background="new 0 0 89.9 84.8" xml:space="preserve">
<g>
	<polygon points="54.8,0 47.9,6.9 57.2,16.1 2.6,70.9 12.1,80.4 66.8,25.5 76.2,34.8 89.9,21.1 68.5,0 	"/>
	<polygon points="8.6,34.8 22.4,33.4 29.1,40.1 38.6,30.6 32.2,24.2 33.4,10 26.5,3.1 14.7,1.6 11.2,5.1 21.2,15.1 13.6,22.7 
		3.6,12.7 0,16.3 1.7,27.9 	"/>
	<polygon points="80,73.7 83.6,70.1 81.9,58.5 75,51.6 61.2,52.9 52.4,44.2 42.9,53.7 51.4,62.1 50.2,76.4 57.1,83.3 68.9,84.8 
		72.4,81.2 62.4,71.2 70,63.7 	"/>
</g>
</svg>
