<?xml version="1.0" encoding="utf-8"?>
<!-- Generator: Adobe Illustrator 19.1.0, SVG Export Plug-In . SVG Version: 6.00 Build 0)  -->
<svg version="1.1" id="Слой_1" xmlns="http://www.w3.org/2000/svg" xmlns:xlink="http://www.w3.org/1999/xlink" x="0px" y="0px"
	 viewBox="0 0 84 72" enable-background="new 0 0 84 72" xml:space="preserve">
<g transform="translate(0,-952.36218)">
	<path fill="#FFFFFF" d="M4,952.4c-2.2,0-4,1.8-4,4v50c0,2.2,1.8,4,4,4h76c2.2,0,4-1.8,4-4v-50c0-2.2-1.8-4-4-4H4z M50,962.4
		c2.2,0,4,1.8,4,4s-1.8,4-4,4c-1.5,0-2.7-0.8-3.4-2H42v11h4.6c0.7-1.2,2-2,3.4-2c2.2,0,4,1.8,4,4s-1.8,4-4,4c-1.5,0-2.7-0.8-3.4-2
		H42v11h4.6c0.7-1.2,2-2,3.4-2c2.2,0,4,1.8,4,4s-1.8,4-4,4c-1.5,0-2.7-0.8-3.4-2H38v-15h-4.6c-0.7,1.2-2,2-3.4,2c-2.2,0-4-1.8-4-4
		s1.8-4,4-4c1.5,0,2.7,0.8,3.4,2H38v-15h8.6C47.3,963.2,48.5,962.4,50,962.4z M35,1012.4v6h14v-6H35z M30,1020.4c-1.1,0-2,0.9-2,2
		c0,1.1,0.9,2,2,2h24c1.1,0,2-0.9,2-2c0-1.1-0.9-2-2-2H30z"/>
</g>
</svg>
