<?xml version="1.0" encoding="utf-8"?>
<!-- Generator: Adobe Illustrator 19.1.0, SVG Export Plug-In . SVG Version: 6.00 Build 0)  -->
<svg version="1.1" id="Layer_1" xmlns="http://www.w3.org/2000/svg" xmlns:xlink="http://www.w3.org/1999/xlink" x="0px" y="0px"
	 viewBox="0 0 848 556.2" enable-background="new 0 0 848 556.2" xml:space="preserve">
<g>
	<defs>
		<rect id="SVGID_1_" x="0" width="848" height="556.2"/>
	</defs>
	<clipPath id="SVGID_2_">
		<use xlink:href="#SVGID_1_"  overflow="visible"/>
	</clipPath>
	<path clip-path="url(#SVGID_2_)" d="M751.8,447.7c-10.1,0-18.3,8.2-18.3,18.3c0,10.1,8.2,18.3,18.3,18.3c10.1,0,18.3-8.2,18.3-18.3
		C770.2,455.9,761.9,447.7,751.8,447.7 M751.8,473.4c-4.1,0-7.4-3.3-7.4-7.4s3.3-7.4,7.4-7.4c4.1,0,7.4,3.3,7.4,7.4
		S755.9,473.4,751.8,473.4"/>
	<path clip-path="url(#SVGID_2_)" d="M340.1,472c-2.1-2.1-5.6-2.1-7.7,0c-2.1,2.1-2.1,5.6,0,7.7l33.2,32.8c1.1,1.1,2.4,1.6,3.8,1.6
		c1.4,0,2.8-0.5,3.9-1.6c2.1-2.1,2.1-5.6,0-7.7L340.1,472z"/>
	<path clip-path="url(#SVGID_2_)" d="M839.1,236.6V125.2c0-18.6-15.1-33.7-33.7-33.7h-44c-19.7-16.8-43.9-32.4-74.2-47.7l4.8-12.5
		c1.4-3.7-0.2-7.9-3.8-9.6C686.5,20.8,642.9,0,580,0C503.7,0,432,31.4,372.5,90.9c-106,106-84.2,227.9-61.8,291.1
		c8.8,24.9,5.2,52.5-9.5,74l-0.6,0.9c-10.8,15.7-8.7,36.6,5,49.8l4.9,4.7H7.6c-4.2,0-7.6,3.4-7.6,7.6v29.6c0,4.2,3.4,7.6,7.6,7.6
		c4.2,0,7.6-3.4,7.6-7.6v-22h310.9l23.7,22.9c1.4,1.4,3.3,2.1,5.3,2.1h369.2c68,0,123.4-55.3,123.4-123.3l0.1-74.8
		C848,307.8,845.1,269.4,839.1,236.6 M823.9,125.2v55.1c-4.3-11.3-9.2-21.8-14.8-31.6c-8.6-15.2-18.8-29-31.3-41.9h27.7
		C815.6,106.8,823.9,115.1,823.9,125.2 M795.8,156.2c12.8,22.6,22.1,49.2,28.1,81.6v1.2h0.2c5.8,31.9,8.6,69.5,8.6,114.5l-0.1,46.2
		l-33.4-29.5c-16.3-14.4-25-36.1-23.2-58.1c6.7-84.2-15-144.3-70.3-194.9c-16.5-15.1-24.3-36.8-22.1-58.2
		C740.7,88.4,773.5,117,795.8,156.2 M724.4,536.3H358.3l-42.2-40.7c-8.3-8-9.5-20.7-3-30.1l0.6-0.9c17.6-25.5,21.8-58.3,11.4-87.8
		c-21.2-59.8-41.9-175.1,58.2-275.2C440.6,44.4,506.8,15.3,580,15.3c45.2,0,80.3,11.6,94.7,17.2c-14,33.1-6.1,71.5,20.7,96
		c52.2,47.8,71.8,102.3,65.4,182.4c-2.1,26.8,8.5,53.3,28.3,70.8l43.5,38.3l0,8.2C832.5,487.9,784,536.3,724.4,536.3"/>
	<path clip-path="url(#SVGID_2_)" d="M555.8,130.2c-40.3,0-78.4,15.5-107.3,43.5c-29.5,28.7-46,67.1-46.6,108.2
		c-0.6,41.1,14.9,80,43.5,109.5c29.2,30.1,68.4,46.6,110.4,46.6c40.3,0,78.4-15.5,107.3-43.5c60.9-59.1,62.3-156.8,3.1-217.6
		C636.9,146.8,597.7,130.2,555.8,130.2 M429.6,341.7L617,159.7c7.9,3.9,15.4,8.5,22.4,13.9l-196.6,191
		C437.7,357.4,433.3,349.7,429.6,341.7 M419.1,307.2l163.7-159.1c9.6,1.9,18.9,4.8,27.8,8.6L426.9,335.3
		C423.3,326.3,420.7,316.8,419.1,307.2 M574.7,146.8L418,299.1c-0.6-5.6-0.9-11.2-0.8-17c0.1-6.6,0.7-13.1,1.7-19.5l119.3-116
		c5.8-0.7,11.7-1.1,17.6-1.1C562.2,145.5,568.5,146,574.7,146.8 M459.2,184.7c18.9-18.4,42.3-30.8,67.6-36.1L421.1,251.3
		C427.2,226.1,440.2,203.2,459.2,184.7 M446.8,369.8l197.8-192.2c3.7,3.1,7.2,6.4,10.6,9.9c2.6,2.7,5,5.5,7.4,8.3L464.5,388.4
		c-2.8-2.4-5.5-5-8.1-7.6C453,377.2,449.8,373.6,446.8,369.8 M680.4,223.4L491.4,407c-7.7-4-15-8.9-21.9-14.4L666.7,201
		C672,208.1,676.6,215.6,680.4,223.4 M691.7,257.2L524.9,419.3c-9.4-2.1-18.5-5.2-27.2-9.2l185.6-180.3
		C687,238.6,689.8,247.8,691.7,257.2 M532.7,420.8L693,265c1.6,11.7,1.7,23.6,0.4,35.3L568,422.2c-4,0.3-8.1,0.6-12.2,0.6
		C548,422.8,540.3,422.1,532.7,420.8 M652.4,383.5c-20.4,19.9-46,32.7-73.6,37.3l112.9-109.7C686.4,337.8,673.3,363.2,652.4,383.5"
		/>
</g>
</svg>
