<svg xmlns="http://www.w3.org/2000/svg" viewBox="0 0 1366 134.9"><path fill-rule="evenodd" clip-rule="evenodd" fill="#353E47" d="M156.1 0l31.1 66h1.9l26.2-66h31.5l-49.6 109.3c-7.9 17.1-17.9 25.7-31.9 25.7-8.9 0-16-1.3-23-4.5l6.4-25c3.4 1.6 7.7 2.4 11.1 2.4 6 0 10.4-2.6 12.1-7.3l1.5-4.1L121.8 0h34.3zm134.2 0l26 47h1.9l25.1-47h34.9l-40.3 65 44.3 67h-36.6l-28.3-51h-1.9l-27.9 51h-36.4l44.3-68.6L255 0h35.3zM432 0v52h55V0h29v132h-29V79h-55v53h-28V0h28zm141 0v88.1L634.4 0H659v132h-28V49.3L573.1 132H545V0h28zM28 0v50.5l13.7-1.7L77.3 0h34.9l-47 61.7 51.5 70.3H80.3L41.8 76H28v56H0V0h28z"/><path fill-rule="evenodd" clip-rule="evenodd" fill="#BE504E" d="M874.7 132.3h-24.4V26h-25.2V.2h49.6v132.1z"/><path fill-rule="evenodd" clip-rule="evenodd" fill="#C9C8C8" d="M816 0h-66v26h66V0zm-66 62h91V36h-91v26zm0 35h91V72h-91v25zm0 35h91v-25h-91v25z"/><path fill-rule="evenodd" clip-rule="evenodd" fill="#353E47" d="M1357 111h-13.1c-5.1 0-9.2-3.7-9.2-9.3s3.8-9.7 9.2-9.7h13.1v19zm-12.8-28c-10.1 0-18.8 6.7-18.8 18.2s9 15.9 9 15.9l-9.9 15h10.8l8.1-13h13.7v13h9V83h-21.9zm-412 23.4L916.3 83H907v49h9V98.1l14 21.9h3.8L948 98.3V132h9V83h-9.3l-15.5 23.4zM980 111h26v-9h-26V92h29v-9h-38v49h39v-9h-30v-12zm100 0h24v-9h-24V92h27v-9h-37v49h38v-9h-28v-12zm-35.1 13H1031v-16h13.7c4.1 0 8 2.5 8 7.4 0 5.3-3.7 8.6-7.8 8.6zm.5-24H1031v-8h26v-9h-36v49h24.8c8.5 0 16.1-5.8 16.1-16.7 0-11-8.2-15.3-16.5-15.3zm79 17.5c-.5 3.8-1.5 6.2-4.5 6.2s-4.9-.9-4.9-.9l-2 7.9s1.1 1.9 8.2 1.9 10.6-4.5 11.6-10.7c1-6.2 3.8-30 3.8-30h16.3v40h9V83h-33.1c.1 0-3.8 30.7-4.4 34.5zm71.2 5.5H1183v-17h12.3c5.1 0 8.8 2.7 8.8 7.8 0 5.7-3.3 9.2-8.5 9.2zm-.9-26H1183V83h-10v49h22.4c7.3 0 17.9-4.2 17.9-18.4-.1-13.6-11.4-16.6-18.6-16.6zm57.3 5h-22V83h-10v49h10v-21h22v21h10V83h-10v19zm33 13l7.6-23h2.3l7.6 23H1285zm3.3-32l-20 49h9.9l3.4-9h24.2l3.4 9h10l-19.8-49h-11.1zM1023 9h14.4c5.1 0 8.4 3.6 8.4 9.2 0 5-3.6 7.8-8.7 7.8H1023V9zm0 26h13.7c7 0 18.1-3.3 18.1-16.6 0-13.9-10.3-18.4-17.5-18.4H1014v49h9V35zM916 9h27v40h9V0h-45v49h9V9zm155 18h15.8c4.7 0 7.1 2.8 7.1 6.9 0 4.1-2.6 7.1-6.7 7.1H1071V27zm0-18h14.5c2.9 0 5.8 1.4 5.8 4.8s-2 5.2-5 5.2H1071V9zm32 25c0-9.8-7.4-12.1-7.4-12.1s4.8-1.4 4.8-9.8c0-8.7-7.9-12-15.5-12H1062v49h24.1c9.7-.1 16.9-5.4 16.9-15.1zm-99 7h-30V28h26v-9h-26V9h29V0h-38v49h39v-8zm176.8-32h13.2v19h-13.2c-5.1 0-9.2-3.7-9.2-9.3 0-5.5 3.9-9.7 9.2-9.7zm-8.6 40l8.1-13h13.7v13h9V0h-21.9c-10.1 0-18.8 6.7-18.8 18.2s9 15.8 9 15.8l-9.9 15h10.8zm-42.7-40h2.3l7.6 23h-17.5l7.6-23zm-10.9 32h24.2l3.4 8h10l-19.8-49h-11.2l-20 49h9.9l3.5-8z"/></svg>