<?xml version="1.0" encoding="utf-8"?>
<!-- Generator: Adobe Illustrator 19.1.0, SVG Export Plug-In . SVG Version: 6.00 Build 0)  -->
<svg version="1.1" id="Слой_1" xmlns="http://www.w3.org/2000/svg" xmlns:xlink="http://www.w3.org/1999/xlink" x="0px" y="0px"
	 viewBox="0 0 67.7 95.2" enable-background="new 0 0 67.7 95.2" xml:space="preserve">
<g>
	<path fill="#FFFFFF" d="M67.2,4.4c-0.4-0.4-0.9-0.6-1.4-0.6h-6.2c0-0.9,0.1-1.9,0.1-2.9c0-0.5-0.4-0.9-0.9-0.9H9.1
		C8.6,0,8.2,0.4,8.2,0.9c0,1,0,1.9,0.1,2.9H2C1.5,3.8,1,4,0.6,4.4C0.2,4.8,0,5.3,0,5.8c0,0.4,0.1,9.9,6.1,15.1
		c4.8,4.2,11.6,6.5,11.9,6.6c0.2,0.1,12.2,8.2,12.3,8.3v4.9c-1.2,0.8-2.7,2.4-5.3,5l-0.5,2.8L21,50.6c-0.5,0.4-0.7,3.8-0.7,3.8h27
		c0,0-0.2-3.4-0.7-3.8l-3.2-2.1l-0.5-2.8c-2.7-2.5-4.3-4.1-5.4-5v-4.9c0,0,0.1-0.1,0.2-0.1c4.2-2.5,8.3-5,11.8-8.3
		c1.2-0.4,7.4-2.7,12-6.5c6.2-5.2,6.3-14.7,6.3-15.1C67.7,5.3,67.5,4.8,67.2,4.4z M8.8,17.9c-3.2-2.7-4.2-7.4-4.5-10h4.4
		c0.7,5.3,2.2,9.4,4.2,12.9C11.4,19.9,10,19,8.8,17.9z M58.9,17.8c-1.1,1-2.4,1.8-3.7,2.5c1.9-3.4,3.3-7.4,4-12.5h4.4
		C63.2,10.5,62.1,15.1,58.9,17.8z"/>
	<path fill="#FFFFFF" d="M51.9,89.3h-36c-1.6,0-2.9,1.3-2.9,2.9s1.3,2.9,2.9,2.9h36c1.6,0,2.9-1.3,2.9-2.9S53.5,89.3,51.9,89.3z"/>
	<path fill="#FFFFFF" d="M50.1,86.6c0.6,0,1.1-0.5,1.1-1.1v-27c0-0.6-0.5-1.1-1.1-1.1H17.7c-0.6,0-1.1,0.5-1.1,1.1v27
		c0,0.6,0.5,1.1,1.1,1.1H50.1z M27.3,69.2h4.9l1.5-4.7c0-0.1,0.3-0.1,0.3,0l1.5,4.7h4.9c0.1,0,0.1,0,0.2,0.1c0,0.1,0,0.1-0.1,0.2
		l-4,2.9l1.5,4.7c0,0.1,0,0.1-0.1,0.2c-0.1,0-0.1,0-0.2,0l-4-2.9l-4,2.9c0,0-0.1,0-0.1,0s-0.1,0-0.1,0c-0.1,0-0.1-0.1-0.1-0.2
		l1.5-4.7l-4-2.9c-0.1,0-0.1-0.1-0.1-0.2S27.2,69.2,27.3,69.2z"/>
</g>
</svg>
