<?xml version="1.0" encoding="utf-8"?>
<!-- Generator: Adobe Illustrator 19.1.0, SVG Export Plug-In . SVG Version: 6.00 Build 0)  -->
<svg version="1.1" id="Layer_1" xmlns="http://www.w3.org/2000/svg" xmlns:xlink="http://www.w3.org/1999/xlink" x="0px" y="0px"
	 viewBox="0 0 1366 134.9" enable-background="new 0 0 1366 134.9" xml:space="preserve">
<path fill-rule="evenodd" clip-rule="evenodd" fill="#FFFFFF" d="M156.1,0l31.1,66h1.9l26.2-66h31.5l-49.6,109.3
	c-7.9,17.1-17.9,25.7-31.9,25.7c-8.9,0-16-1.3-23-4.5l6.4-25c3.4,1.6,7.7,2.4,11.1,2.4c6,0,10.4-2.6,12.1-7.3l1.5-4.1L121.8,0H156.1
	L156.1,0z"/>
<polygon fill-rule="evenodd" clip-rule="evenodd" fill="#FFFFFF" points="290.3,0 316.3,47 318.2,47 343.3,0 378.2,0 337.9,65 
	382.2,132 345.6,132 317.3,81 315.4,81 287.5,132 251.1,132 295.4,63.4 255,0 290.3,0 "/>
<polygon fill-rule="evenodd" clip-rule="evenodd" fill="#FFFFFF" points="432,0 432,52 487,52 487,0 516,0 516,132 487,132 487,79 
	432,79 432,132 404,132 404,0 432,0 "/>
<polygon fill-rule="evenodd" clip-rule="evenodd" fill="#FFFFFF" points="573,0 573,88.1 634.4,0 659,0 659,132 631,132 631,49.3 
	573.1,132 545,132 545,0 573,0 "/>
<polygon fill-rule="evenodd" clip-rule="evenodd" fill="#FFFFFF" points="28,0 28,50.5 41.7,48.8 77.3,0 112.2,0 65.2,61.7 
	116.7,132 80.3,132 41.8,76 28,76 28,132 0,132 0,0 28,0 "/>
<polygon fill-rule="evenodd" clip-rule="evenodd" fill="#BE504E" points="874.7,132.3 850.3,132.3 850.3,26 825.1,26 825.1,0.2 
	874.7,0.2 874.7,132.3 "/>
<polygon fill-rule="evenodd" clip-rule="evenodd" fill="#C9C8C8" points="816,0 750,0 750,26 816,26 816,0 "/>
<polygon fill-rule="evenodd" clip-rule="evenodd" fill="#C9C8C8" points="750,62 841,62 841,36 750,36 750,62 "/>
<polygon fill-rule="evenodd" clip-rule="evenodd" fill="#C9C8C8" points="750,97 841,97 841,72 750,72 750,97 "/>
<polygon fill-rule="evenodd" clip-rule="evenodd" fill="#C9C8C8" points="750,132 841,132 841,107 750,107 750,132 "/>
<path fill-rule="evenodd" clip-rule="evenodd" fill="#FFFFFF" d="M1357,111h-13.1c-5.1,0-9.2-3.7-9.2-9.3s3.8-9.7,9.2-9.7h13.1V111
	L1357,111z M1344.2,83c-10.1,0-18.8,6.7-18.8,18.2c0,11.5,9,15.9,9,15.9l-9.9,15h10.8l8.1-13h13.7v13h9V83H1344.2L1344.2,83z"/>
<polygon fill-rule="evenodd" clip-rule="evenodd" fill="#FFFFFF" points="932.2,106.4 916.3,83 907,83 907,132 916,132 916,98.1 
	930,120 933.8,120 948,98.3 948,132 957,132 957,83 947.7,83 932.2,106.4 "/>
<polygon fill-rule="evenodd" clip-rule="evenodd" fill="#FFFFFF" points="980,111 1006,111 1006,102 980,102 980,92 1009,92 
	1009,83 971,83 971,132 1010,132 1010,123 980,123 980,111 "/>
<polygon fill-rule="evenodd" clip-rule="evenodd" fill="#FFFFFF" points="1080,111 1104,111 1104,102 1080,102 1080,92 1107,92 
	1107,83 1070,83 1070,132 1108,132 1108,123 1080,123 1080,111 "/>
<path fill-rule="evenodd" clip-rule="evenodd" fill="#FFFFFF" d="M1044.9,124H1031v-16h13.7c4.1,0,8,2.5,8,7.4
	C1052.7,120.7,1049,124,1044.9,124L1044.9,124z M1045.4,100H1031v-8h26v-9h-36v49h24.8c8.5,0,16.1-5.8,16.1-16.7
	C1061.9,104.3,1053.7,100,1045.4,100L1045.4,100z"/>
<path fill-rule="evenodd" clip-rule="evenodd" fill="#FFFFFF" d="M1124.4,117.5c-0.5,3.8-1.5,6.2-4.5,6.2c-3,0-4.9-0.9-4.9-0.9
	l-2,7.9c0,0,1.1,1.9,8.2,1.9c7.1,0,10.6-4.5,11.6-10.7c1-6.2,3.8-30,3.8-30h16.3v40h9V83h-33.1C1128.9,83,1125,113.7,1124.4,117.5
	L1124.4,117.5z"/>
<path fill-rule="evenodd" clip-rule="evenodd" fill="#FFFFFF" d="M1195.6,123H1183v-17h12.3c5.1,0,8.8,2.7,8.8,7.8
	C1204.1,119.5,1200.8,123,1195.6,123L1195.6,123z M1194.7,97H1183V83h-10v49h22.4c7.3,0,17.9-4.2,17.9-18.4
	C1213.2,100,1201.9,97,1194.7,97L1194.7,97z"/>
<polygon fill-rule="evenodd" clip-rule="evenodd" fill="#FFFFFF" points="1252,102 1230,102 1230,83 1220,83 1220,132 1230,132 
	1230,111 1252,111 1252,132 1262,132 1262,83 1252,83 1252,102 "/>
<path fill-rule="evenodd" clip-rule="evenodd" fill="#FFFFFF" d="M1285,115l7.6-23h2.3l7.6,23H1285L1285,115z M1288.3,83l-20,49h9.9
	l3.4-9h24.2l3.4,9h10l-19.8-49H1288.3L1288.3,83z"/>
<path fill-rule="evenodd" clip-rule="evenodd" fill="#FFFFFF" d="M1023,9h14.4c5.1,0,8.4,3.6,8.4,9.2c0,5-3.6,7.8-8.7,7.8H1023V9
	L1023,9z M1023,35h13.7c7,0,18.1-3.3,18.1-16.6c0-13.9-10.3-18.4-17.5-18.4H1014v49h9V35L1023,35z"/>
<polygon fill-rule="evenodd" clip-rule="evenodd" fill="#FFFFFF" points="916,9 943,9 943,49 952,49 952,0 907,0 907,49 916,49 
	916,9 "/>
<path fill-rule="evenodd" clip-rule="evenodd" fill="#FFFFFF" d="M1071,27h15.8c4.7,0,7.1,2.8,7.1,6.9c0,4.1-2.6,7.1-6.7,7.1H1071
	V27L1071,27z M1071,9h14.5c2.9,0,5.8,1.4,5.8,4.8c0,3.4-2,5.2-5,5.2H1071V9L1071,9z M1103,34c0-9.8-7.4-12.1-7.4-12.1
	s4.8-1.4,4.8-9.8c0-8.7-7.9-12-15.5-12H1062v49h24.1C1095.8,49,1103,43.7,1103,34L1103,34z"/>
<polygon fill-rule="evenodd" clip-rule="evenodd" fill="#FFFFFF" points="1004,41 974,41 974,28 1000,28 1000,19 974,19 974,9 
	1003,9 1003,0 965,0 965,49 1004,49 1004,41 "/>
<path fill-rule="evenodd" clip-rule="evenodd" fill="#FFFFFF" d="M1180.8,9h13.2v19h-13.2c-5.1,0-9.2-3.7-9.2-9.3
	C1171.6,13.2,1175.5,9,1180.8,9L1180.8,9z M1172.2,49l8.1-13h13.7v13h9V0h-21.9c-10.1,0-18.8,6.7-18.8,18.2c0,11.5,9,15.8,9,15.8
	l-9.9,15H1172.2L1172.2,49z"/>
<path fill-rule="evenodd" clip-rule="evenodd" fill="#FFFFFF" d="M1129.5,9h2.3l7.6,23h-17.5L1129.5,9L1129.5,9z M1118.6,41h24.2
	l3.4,8h10l-19.8-49h-11.2l-20,49h9.9L1118.6,41L1118.6,41z"/>
</svg>
