<?xml version="1.0" encoding="utf-8"?>
<!-- Generator: Adobe Illustrator 19.1.0, SVG Export Plug-In . SVG Version: 6.00 Build 0)  -->
<svg version="1.1" id="Слой_1" xmlns="http://www.w3.org/2000/svg" xmlns:xlink="http://www.w3.org/1999/xlink" x="0px" y="0px"
	 viewBox="0 0 95.4 72.5" enable-background="new 0 0 95.4 72.5" xml:space="preserve">
<g>
	<path d="M95.4,59.5v-5.6c0-2.2-1.7-4.2-3.9-4.4V38.1c0-4.3-3.5-7.8-7.8-7.8l-5-0.9l-9.2-13.9c-0.2-0.1-0.3-0.4-0.4-0.5
		c-1.4-1.9-3.7-3.2-6.3-3.2H47.7H35.2l0.7,0.7c1.4,1.3,1.6,3.4,0.6,5c-0.1,0.3-0.3,0.5-0.5,0.7l-4.7,4.7L20.6,33.6
		c-0.7,0.8-1.7,1.2-2.8,1.2l0,0c-1,0-2-0.4-2.8-1.2l-5-5v14.6v0.7v5.7c-2,0.5-3.4,2.3-3.4,4.3v5.6c0,2.5,2,4.4,4.4,4.4h6.3
		c1.4,5,6,8.6,11.5,8.6s10.1-3.7,11.5-8.6h7.4h14.8c1.4,5,6,8.6,11.5,8.6s10.1-3.7,11.5-8.6H91C93.5,63.9,95.4,61.9,95.4,59.5z
		 M34.8,60.6c0,3.2-2.6,6-6,6s-6-2.8-6-6s2.8-6,6-6C32.2,54.6,34.8,57.4,34.8,60.6z M80,60.6c0,3.2-2.8,6-6,6c-3.4,0-6-2.8-6-6
		s2.8-6,6-6C77.3,54.6,80,57.4,80,60.6z M28.5,20.1L17.7,30.8l-5.2-5.2l6.5-6.5l-15.6,0H0l0-7.4h3.4H19l-1.8-1.8l-4.7-4.7L17.7,0
		l4.7,4.7l5.5,5.5l0,0l3.9,3.9l1.3,1.3l0,0l0,0L28.5,20.1z"/>
</g>
</svg>
