<?xml version="1.0" encoding="utf-8"?>
<!-- Generator: Adobe Illustrator 19.1.0, SVG Export Plug-In . SVG Version: 6.00 Build 0)  -->
<svg version="1.1" id="Слой_1" xmlns="http://www.w3.org/2000/svg" xmlns:xlink="http://www.w3.org/1999/xlink" x="0px" y="0px"
	 viewBox="0 0 85.4 78.2" enable-background="new 0 0 85.4 78.2" xml:space="preserve">
<path fill="#FFFFFF" d="M78.1,16c-0.6-1-1.3-2-2-2.9l2.1-3.8l-0.2-0.3c-1.8-2-3.9-3.6-6.1-5l-0.3-0.2l-3.1,2.9
	c-1.7-0.9-3.5-1.6-5.3-2l-0.6-4.3l-0.3-0.1C59.6,0,57-0.1,54.4,0.1l-0.4,0l-0.8,4.2c-1.9,0.3-3.8,0.8-5.7,1.6l-2.9-3.1L44.3,3
	c-0.6,0.3-1.1,0.6-1.7,0.9c-1.7,1-3.3,2.2-4.7,3.5l-0.3,0.2l1.8,3.9c-1.4,1.4-2.6,3-3.5,4.7l-4.2-0.8l-0.2,0.3
	c-1.2,2.3-2,4.8-2.5,7.4l-0.1,0.4l3.8,2.1c-0.2,1.8-0.2,3.7,0,5.6L29,33l0.1,0.4c0.4,2.6,1.3,5.1,2.5,7.5l0.2,0.3l4.3-0.6
	c0,0.1,0.1,0.1,0.1,0.2c0.9,1.5,1.9,2.8,2.9,4l-2,3.7l0.3,0.3c2,1.9,4.2,3.5,6.5,4.8l0.3,0.2l3.2-3c1.4,0.6,2.9,1.1,4.5,1.5l0.5,4.2
	l0.4,0.1c2.7,0.4,5.5,0.5,8.2,0.1l0.3,0l0.8-4.2c1.4-0.3,2.9-0.7,4.3-1.3l2.9,3.1l0.3-0.2c0.7-0.3,1.3-0.7,2-1.1
	c1.8-1,3.4-2.2,4.8-3.6l0.3-0.2l-1.8-3.9c1-1.1,2-2.3,2.8-3.5l4.2,0.8l0.2-0.3c1.3-2.4,2.3-5,2.9-7.7l0.1-0.4l-3.7-2
	c0.2-1.6,0.3-3.2,0.3-4.8l3.9-1.9l0-0.4c-0.3-2.6-1-5.3-2.1-7.8L83.1,17l-4.2,0.5C78.7,17,78.4,16.5,78.1,16z M68.8,21.5
	c3.8,6.5,1.7,14.8-4.8,18.7c-6.5,3.8-14.8,1.7-18.7-4.8c-3.8-6.5-1.7-14.8,4.8-18.7C56.6,12.9,65,15,68.8,21.5z"/>
<path fill="#FFFFFF" d="M39.1,53.1L39,52.8l-2.9,0c-0.4-1.2-1-2.4-1.6-3.5l1.8-2.4L36,46.6c-1.1-1.5-2.3-2.8-3.8-3.9L32,42.5
	l-2.4,1.7c-1.1-0.8-2.3-1.4-3.6-1.9l0-3l-0.3-0.1c-0.4-0.1-0.9-0.2-1.3-0.4c-1.3-0.3-2.7-0.5-4-0.5l-0.3,0l-0.9,2.8
	c-1.3,0.1-2.7,0.3-4,0.6l-1.7-2.4l-0.3,0.1c-1.7,0.6-3.3,1.5-4.8,2.5l-0.3,0.2L9,45.1c-1,0.8-1.9,1.7-2.6,2.7l-2.8-0.9l-0.2,0.3
	c-1,1.5-1.8,3.2-2.4,5l-0.1,0.3l2.4,1.8c0,0,0,0.1,0,0.1c-0.3,1.1-0.4,2.3-0.4,3.4L0,58.6L0,59c0.1,1.9,0.4,3.8,1,5.6l0.1,0.3l3,0
	c0.4,1,0.9,1.9,1.5,2.8L3.9,70L4,70.3c1.2,1.5,2.5,2.9,4.1,4l0.3,0.2l2.4-1.7c0.8,0.5,1.7,1,2.7,1.4l0,3l0.3,0.1
	c0.5,0.2,1,0.3,1.5,0.4c1.4,0.3,2.8,0.5,4.1,0.5l0.3,0l0.9-2.8c1,0,2-0.2,3-0.4l1.8,2.4l0.3-0.1c1.8-0.6,3.6-1.4,5.2-2.5l0.3-0.2
	l-0.9-2.8c0.9-0.7,1.6-1.4,2.4-2.2l2.9,0.9l0.2-0.3c1.1-1.5,2.1-3.1,2.7-4.9l0.1-0.3l-2.4-1.7c0.1-0.4,0.2-0.7,0.3-1.1
	c0.2-0.8,0.3-1.6,0.4-2.4l2.9-0.9v-0.3c0-0.1,0-0.2,0-0.3C39.8,56.5,39.6,54.8,39.1,53.1z M25,58.3c0,0.4,0,0.8-0.1,1.2
	c-0.6,2.4-2.7,3.9-5,3.9c-0.4,0-0.8,0-1.2-0.1c-2.4-0.5-3.9-2.7-3.9-5c0-0.4,0-0.8,0.1-1.2c0.6-2.4,2.7-3.9,5-3.9
	c0.4,0,0.8,0,1.2,0.1C23.4,53.8,25,56,25,58.3z"/>
<path fill="#FFFFFF" d="M55.2,37.6c-0.5,0-1-0.2-1.4-0.6c-0.8-0.8-0.8-2.1,0-2.8l5.7-5.7l-5.7-5.7c-0.8-0.8-0.8-2.1,0-2.8
	c0.8-0.8,2.1-0.8,2.8,0l8.6,8.6L56.6,37C56.2,37.4,55.7,37.6,55.2,37.6z"/>
</svg>
