<?xml version="1.0" encoding="utf-8"?>
<!-- Generator: Adobe Illustrator 19.1.0, SVG Export Plug-In . SVG Version: 6.00 Build 0)  -->
<svg version="1.1" id="Elements" xmlns="http://www.w3.org/2000/svg" xmlns:xlink="http://www.w3.org/1999/xlink" x="0px" y="0px"
	 viewBox="0 0 1479 925" style="enable-background:new 0 0 1479 925;" xml:space="preserve">
<style type="text/css">
	.st0{fill:#d3d3d3;}
</style>
<g>
	<g>
		<path class="st0" d="M11.5,693.3c1.4,0,2.5-1.1,2.5-2.5v-17.6c0-1.4-1.1-2.5-2.5-2.5c-1.4,0-2.5,1.1-2.5,2.5v17.6
			C9,692.1,10.1,693.3,11.5,693.3z"/>
	</g>
	<g>
		<path class="st0" d="M2.5,684h17.6c1.4,0,2.5-1.1,2.5-2.5c0-1.4-1.1-2.5-2.5-2.5H2.5c-1.4,0-2.5,1.1-2.5,2.5
			C0,682.9,1.1,684,2.5,684z"/>
	</g>
</g>
<g>
	<g>
		<path class="st0" d="M270.5,661.5c1.4,0,2.5-1.1,2.5-2.5v-17.6c0-1.4-1.1-2.5-2.5-2.5c-1.4,0-2.5,1.1-2.5,2.5V659
			C268,660.3,269.1,661.5,270.5,661.5z"/>
	</g>
	<g>
		<path class="st0" d="M261.5,653h17.6c1.4,0,2.5-1.1,2.5-2.5c0-1.4-1.1-2.5-2.5-2.5h-17.6c-1.4,0-2.5,1.1-2.5,2.5
			C259,651.9,260.1,653,261.5,653z"/>
	</g>
</g>
<g>
	<g>
		<path class="st0" d="M55,925h252.9c1.4,0,2.5-1.1,2.5-2.5c0-1.4-1.1-2.5-2.5-2.5H55c-1.4,0-2.5,1.1-2.5,2.5
			C52.5,923.9,53.6,925,55,925z"/>
	</g>
	<g>
		<path class="st0" d="M54.5,732c1.4,0,2.5-1.1,2.5-2.5V610h248v119.5c0,1.4,1.1,2.5,2.5,2.5c1.4,0,2.5-1.1,2.5-2.5V605H52v124.5
			C52,730.9,53.1,732,54.5,732z"/>
	</g>
	<g>
		<path class="st0" d="M33.8,738h295.3l-18.9,187H52.7L33.8,738z M323.6,743H39.3l17.9,177h248.4L323.6,743z"/>
	</g>
	<g>
		<path class="st0" d="M26,727h310v16H26V727z M331,732H31v6h300V732z"/>
	</g>
	<g>
		<path class="st0" d="M280.9,732c1.3,0,2.4-1,2.5-2.4c0-0.5,0-0.9,0-1.4c0-43-35-78-78-78c-43,0-78,35-78,78c0,0.4,0,0.9,0,1.3
			c0.1,1.4,1.2,2.5,2.6,2.4c1.4-0.1,2.5-1.2,2.4-2.6c0-0.4,0-0.8,0-1.1c0-40.3,32.8-73,73-73c40.3,0,73,32.8,73,73
			c0,0.4,0,0.7,0,1.1c-0.1,1.4,1,2.5,2.4,2.6C280.8,732,280.8,732,280.9,732z"/>
	</g>
	<g>
		<path class="st0" d="M259.2,709.4c0.3,0,0.6-0.1,0.9-0.2c1.3-0.5,1.9-2,1.4-3.2c-9.2-23.2-31.3-38.2-56.2-38.2
			c-1.4,0-2.5,1.1-2.5,2.5c0,1.4,1.1,2.5,2.5,2.5c22.8,0,43.1,13.7,51.5,35C257.3,708.8,258.2,709.4,259.2,709.4z"/>
	</g>
	<g>
		<path class="st0" d="M290.5,678.3c1.4,0,2.5-1.1,2.5-2.5v-45.2c0-1.4-1.1-2.5-2.5-2.5s-2.5,1.1-2.5,2.5v45.2
			C288,677.2,289.1,678.3,290.5,678.3z"/>
	</g>
	<g>
		<path class="st0" d="M68.2,621h204.3c1.4,0,2.5-1.1,2.5-2.5c0-1.4-1.1-2.5-2.5-2.5H68.2c-1.4,0-2.5,1.1-2.5,2.5
			C65.7,619.9,66.8,621,68.2,621z"/>
	</g>
	<g>
		<g>
			<path class="st0" d="M98,660.8c0-7.3,6.2-13.2,13.5-13.2c7.3,0,13.5,5.9,13.5,13.2V684H98V660.8z M120,660.8c0-4.5-4-8.2-8.5-8.2
				c-4.5,0-8.5,3.7-8.5,8.2V679h17V660.8z"/>
		</g>
		<g>
			<path class="st0" d="M111.5,652.6c1.4,0,2.5-1.1,2.5-2.5v-31.9c0-1.4-1.1-2.5-2.5-2.5c-1.4,0-2.5,1.1-2.5,2.5v31.9
				C109,651.5,110.1,652.6,111.5,652.6z"/>
		</g>
	</g>
	<g>
		<g>
			<path class="st0" d="M63,658.7c0-7.4,7.2-13.4,16-13.4c8.8,0,16,6,16,13.4V690H63V658.7z M90,658.7c0-4.6-5-8.4-11-8.4
				c-6,0-11,3.8-11,8.4V685h22V658.7z"/>
		</g>
		<g>
			<path class="st0" d="M78.5,650.3c1.4,0,2.5-1.1,2.5-2.5v-29.5c0-1.4-1.1-2.5-2.5-2.5c-1.4,0-2.5,1.1-2.5,2.5v29.5
				C76,649.2,77.1,650.3,78.5,650.3z"/>
		</g>
	</g>
	<g>
		<path class="st0" d="M115.5,732c1.4,0,2.5-1.1,2.5-2.5v-30.1c0-1.4-1.1-2.5-2.5-2.5c-1.4,0-2.5,1.1-2.5,2.5v30.1
			C113,730.9,114.1,732,115.5,732z"/>
	</g>
	<g>
		<path class="st0" d="M100.5,732c1.4,0,2.5-1.1,2.5-2.5v-30.1c0-1.4-1.1-2.5-2.5-2.5c-1.4,0-2.5,1.1-2.5,2.5v30.1
			C98,730.9,99.1,732,100.5,732z"/>
	</g>
	<g>
		<path class="st0" d="M86.5,732c1.4,0,2.5-1.1,2.5-2.5v-30.1c0-1.4-1.1-2.5-2.5-2.5c-1.4,0-2.5,1.1-2.5,2.5v30.1
			C84,730.9,85.1,732,86.5,732z"/>
	</g>
	<g>
		<g>
			<path class="st0" d="M278.5,784.1c1.4,0,2.5-1.1,2.5-2.5v-10.5c0-1.4-1.1-2.5-2.5-2.5s-2.5,1.1-2.5,2.5v10.5
				C276,783,277.1,784.1,278.5,784.1z"/>
		</g>
		<g>
			<path class="st0" d="M83.5,784.1c1.4,0,2.5-1.1,2.5-2.5v-10.5c0-1.4-1.1-2.5-2.5-2.5c-1.4,0-2.5,1.1-2.5,2.5v10.5
				C81,783,82.1,784.1,83.5,784.1z"/>
		</g>
		<g>
			<path class="st0" d="M84,779h194.9c1.4,0,2.5-1.1,2.5-2.5c0-1.4-1.1-2.5-2.5-2.5H84c-1.4,0-2.5,1.1-2.5,2.5
				C81.5,777.9,82.6,779,84,779z"/>
		</g>
	</g>
	<g>
		<path class="st0" d="M266.2,850.3c0.6,0,1.3-0.2,1.8-0.7c1-1,1-2.6,0-3.5l-13.5-13.5c-1-1-2.6-1-3.5,0c-1,1-1,2.6,0,3.5l13.5,13.5
			C264.9,850,265.6,850.3,266.2,850.3z"/>
	</g>
	<g>
		<path class="st0" d="M272.5,881c0.6,0,1.3-0.2,1.8-0.7c1-1,1-2.6,0-3.5l-53.1-53.1c-1-1-2.6-1-3.5,0c-1,1-1,2.6,0,3.5l53.1,53.1
			C271.2,880.8,271.9,881,272.5,881z"/>
	</g>
	<g>
		<path class="st0" d="M240.9,871.3c0.6,0,1.3-0.2,1.8-0.7c1-1,1-2.6,0-3.5l-7.2-7.2c-1-1-2.6-1-3.5,0c-1,1-1,2.6,0,3.5l7.2,7.2
			C239.6,871.1,240.2,871.3,240.9,871.3z"/>
	</g>
	<g>
		<path class="st0" d="M48.4,860h50.2c1.4,0,2.5-1.1,2.5-2.5c0-1.4-1.1-2.5-2.5-2.5H48.4c-1.4,0-2.5,1.1-2.5,2.5
			C45.9,858.9,47,860,48.4,860z"/>
	</g>
	<g>
		<path class="st0" d="M65.3,876h13.5c1.4,0,2.5-1.1,2.5-2.5s-1.1-2.5-2.5-2.5H65.3c-1.4,0-2.5,1.1-2.5,2.5S63.9,876,65.3,876z"/>
	</g>
	<g>
		<path class="st0" d="M52.1,896h53c1.4,0,2.5-1.1,2.5-2.5s-1.1-2.5-2.5-2.5h-53c-1.4,0-2.5,1.1-2.5,2.5S50.7,896,52.1,896z"/>
	</g>
</g>
<g>
	<g>
		<path class="st0" d="M514,605h258v320H514V605z M767,610H519v310h248V610z"/>
	</g>
	<g>
		<path class="st0" d="M543,743h200v143H543V743z M738,748H548v133h190V748z"/>
	</g>
	<g>
		<path class="st0" d="M516.7,678h252.9c1.4,0,2.5-1.1,2.5-2.5c0-1.4-1.1-2.5-2.5-2.5H516.7c-1.4,0-2.5,1.1-2.5,2.5
			C514.2,676.9,515.3,678,516.7,678z"/>
	</g>
	<g>
		<path class="st0" d="M741.5,718.6c1.4,0,2.5-1.1,2.5-2.5v-10.5c0-1.4-1.1-2.5-2.5-2.5c-1.4,0-2.5,1.1-2.5,2.5v10.5
			C739,717.5,740.1,718.6,741.5,718.6z"/>
	</g>
	<g>
		<path class="st0" d="M546.5,718.6c1.4,0,2.5-1.1,2.5-2.5v-10.5c0-1.4-1.1-2.5-2.5-2.5c-1.4,0-2.5,1.1-2.5,2.5v10.5
			C544,717.5,545.1,718.6,546.5,718.6z"/>
	</g>
	<g>
		<path class="st0" d="M546.5,713h194.9c1.4,0,2.5-1.1,2.5-2.5c0-1.4-1.1-2.5-2.5-2.5H546.5c-1.4,0-2.5,1.1-2.5,2.5
			C544,711.9,545.1,713,546.5,713z"/>
	</g>
	<g>
		<path class="st0" d="M713.4,789.2c0.6,0,1.3-0.2,1.8-0.7c1-1,1-2.6,0-3.5l-9.3-9.3c-1-1-2.6-1-3.5,0c-1,1-1,2.6,0,3.5l9.3,9.3
			C712.1,788.9,712.7,789.2,713.4,789.2z"/>
	</g>
	<g>
		<path class="st0" d="M721.6,817.1c0.6,0,1.3-0.2,1.8-0.7c1-1,1-2.6,0-3.5L682.5,772c-1-1-2.6-1-3.5,0c-1,1-1,2.6,0,3.5l40.8,40.8
			C720.3,816.9,720.9,817.1,721.6,817.1z"/>
	</g>
	<g>
		<path class="st0" d="M697,810.4c0.6,0,1.3-0.2,1.8-0.7c1-1,1-2.6,0-3.5l-10.9-10.9c-1-1-2.6-1-3.5,0c-1,1-1,2.6,0,3.5l10.9,10.9
			C695.7,810.2,696.3,810.4,697,810.4z"/>
	</g>
	<g>
		<path class="st0" d="M688,643.3c0,3.7-3,6.7-6.7,6.7h-77.7c-3.7,0-6.7-3-6.7-6.7v-9.7c0-3.7,3-6.7,6.7-6.7h77.7
			c3.7,0,6.7,3,6.7,6.7V643.3z M683,633.7c0-0.9-0.7-1.7-1.7-1.7h-77.7c-0.9,0-1.7,0.7-1.7,1.7v9.7c0,0.9,0.7,1.7,1.7,1.7h77.7
			c0.9,0,1.7-0.7,1.7-1.7V633.7z"/>
	</g>
	<g>
		<g>
			<path class="st0" d="M706.2,639.5c0-10.2,8.3-18.4,18.4-18.4c10.2,0,18.4,8.3,18.4,18.4c0,10.2-8.3,18.4-18.4,18.4
				C714.5,657.9,706.2,649.6,706.2,639.5z M711.2,639.5c0,7.4,6,13.4,13.4,13.4c7.4,0,13.4-6,13.4-13.4c0-7.4-6-13.4-13.4-13.4
				C717.3,626.1,711.2,632.1,711.2,639.5z"/>
		</g>
		<g>
			<path class="st0" d="M731.8,642c1.4,0,2.5-1.1,2.5-2.5c0-5.3-4.3-9.6-9.6-9.6c-1.4,0-2.5,1.1-2.5,2.5c0,1.4,1.1,2.5,2.5,2.5
				c2.6,0,4.6,2.1,4.6,4.6C729.3,640.9,730.4,642,731.8,642z"/>
		</g>
		<g>
			<path class="st0" d="M543.1,639.5c0-10.2,8.3-18.4,18.4-18.4c10.2,0,18.4,8.3,18.4,18.4c0,10.2-8.3,18.4-18.4,18.4
				C551.4,657.9,543.1,649.6,543.1,639.5z M548.1,639.5c0,7.4,6,13.4,13.4,13.4c7.4,0,13.4-6,13.4-13.4c0-7.4-6-13.4-13.4-13.4
				C554.2,626.1,548.1,632.1,548.1,639.5z"/>
		</g>
		<g>
			<path class="st0" d="M568.7,642c1.4,0,2.5-1.1,2.5-2.5c0-5.3-4.3-9.6-9.6-9.6c-1.4,0-2.5,1.1-2.5,2.5c0,1.4,1.1,2.5,2.5,2.5
				c2.6,0,4.6,2.1,4.6,4.6C566.2,640.9,567.3,642,568.7,642z"/>
		</g>
	</g>
	<g>
		<path class="st0" d="M680.5,665.4c1.4,0,2.5-1.1,2.5-2.5v-2.6c0-1.4-1.1-2.5-2.5-2.5c-1.4,0-2.5,1.1-2.5,2.5v2.6
			C678,664.3,679.1,665.4,680.5,665.4z"/>
	</g>
	<g>
		<path class="st0" d="M672.5,665.4c1.4,0,2.5-1.1,2.5-2.5v-2.6c0-1.4-1.1-2.5-2.5-2.5c-1.4,0-2.5,1.1-2.5,2.5v2.6
			C670,664.3,671.1,665.4,672.5,665.4z"/>
	</g>
	<g>
		<path class="st0" d="M663.5,665.4c1.4,0,2.5-1.1,2.5-2.5v-2.6c0-1.4-1.1-2.5-2.5-2.5c-1.4,0-2.5,1.1-2.5,2.5v2.6
			C661,664.3,662.1,665.4,663.5,665.4z"/>
	</g>
</g>
<g>
	<g>
		<g>
			<path class="st0" d="M371.9,311.8c0.6,0,1.3-0.2,1.7-0.7c23.9-23.1,53.8-42.6,88.8-58.1c19.4-8.6,40.2-15.8,61.9-21.4
				c37.8-9.8,77.8-14.8,118.8-14.8c41,0,80.9,5,118.8,14.8c21.6,5.6,42.4,12.8,61.9,21.4c35,15.5,64.9,35,88.8,58.1
				c1,1,2.6,0.9,3.5-0.1c1-1,0.9-2.6-0.1-3.5c-24.3-23.5-54.7-43.3-90.2-59c-19.7-8.7-40.8-16-62.6-21.7c-38.2-9.9-78.6-15-120-15
				c-41.4,0-81.8,5-120,15c-21.9,5.7-43,13-62.6,21.7c-35.5,15.7-65.9,35.6-90.2,59c-1,1-1,2.5-0.1,3.5
				C370.6,311.5,371.3,311.8,371.9,311.8z"/>
		</g>
		<g>
			<path class="st0" d="M523.7,194h238.8c1.4,0,2.5-1.1,2.5-2.5c0-1.4-1.1-2.5-2.5-2.5H523.7c-1.4,0-2.5,1.1-2.5,2.5
				C521.2,192.9,522.3,194,523.7,194z"/>
		</g>
		<g>
			<path class="st0" d="M467.1,277h352.1c4.5,0,7.8-3.5,7.8-8v-18.3c0-1.4-1.1-2.5-2.5-2.5c-1.4,0-2.5,1.1-2.5,2.5V269
				c0,1.7-1.1,3-2.8,3H467.1c-1.7,0-3.1-1.3-3.1-3v-18.3c0-1.4-1.1-2.5-2.5-2.5c-1.4,0-2.5,1.1-2.5,2.5V269
				C459,273.5,462.6,277,467.1,277z"/>
		</g>
		<g>
			<path class="st0" d="M523.5,231.7c1.4,0,2.5-1.1,2.5-2.5V5h234v224.2c0,1.4,1.1,2.5,2.5,2.5c1.4,0,2.5-1.1,2.5-2.5V0L521,0v229.2
				C521,230.5,522.1,231.7,523.5,231.7z"/>
		</g>
		<g>
			<g>
				<path class="st0" d="M690.2,248H739c1.4,0,2.5-1.1,2.5-2.5c0-1.4-1.1-2.5-2.5-2.5h-48.8c-1.4,0-2.5,1.1-2.5,2.5
					C687.7,246.9,688.8,248,690.2,248z"/>
			</g>
			<g>
				<path class="st0" d="M547.3,248H596c1.4,0,2.5-1.1,2.5-2.5c0-1.4-1.1-2.5-2.5-2.5h-48.8c-1.4,0-2.5,1.1-2.5,2.5
					C544.8,246.9,545.9,248,547.3,248z"/>
			</g>
		</g>
		<g>
			<path class="st0" d="M625.2,245.8c0-9.9,8-17.9,17.9-17.9c9.9,0,17.9,8,17.9,17.9c0,9.9-8,17.9-17.9,17.9
				C633.2,263.7,625.2,255.6,625.2,245.8z M630.2,245.8c0,7.1,5.8,12.9,12.9,12.9c7.1,0,12.9-5.8,12.9-12.9s-5.8-12.9-12.9-12.9
				C636,232.8,630.2,238.6,630.2,245.8z"/>
		</g>
		<g>
			<path class="st0" d="M710,93.9c0.6,0,1.3-0.2,1.8-0.7c1-1,1-2.6,0-3.5l-15.8-15.8c-1-1-2.6-1-3.5,0c-1,1-1,2.6,0,3.5l15.8,15.8
				C708.7,93.7,709.4,93.9,710,93.9z"/>
		</g>
		<g>
			<path class="st0" d="M718.6,140.2c0.6,0,1.3-0.2,1.8-0.7c1-1,1-2.6,0-3.5l-74.5-74.5c-1-1-2.6-1-3.5,0c-1,1-1,2.6,0,3.5
				l74.5,74.5C717.3,139.9,717.9,140.2,718.6,140.2z"/>
		</g>
		<g>
			<path class="st0" d="M669.8,129.9c0.6,0,1.3-0.2,1.8-0.7c1-1,1-2.6,0-3.5l-18-18c-1-1-2.6-1-3.5,0c-1,1-1,2.6,0,3.5l18,18
				C668.5,129.6,669.1,129.9,669.8,129.9z"/>
		</g>
	</g>
	<g>
		<path class="st0" d="M523.7,119h54.6c1.4,0,2.5-1.1,2.5-2.5c0-1.4-1.1-2.5-2.5-2.5h-54.6c-1.4,0-2.5,1.1-2.5,2.5
			C521.2,117.9,522.3,119,523.7,119z"/>
	</g>
	<g>
		<path class="st0" d="M523.7,134h54.6c1.4,0,2.5-1.1,2.5-2.5c0-1.4-1.1-2.5-2.5-2.5h-54.6c-1.4,0-2.5,1.1-2.5,2.5
			C521.2,132.9,522.3,134,523.7,134z"/>
	</g>
	<g>
		<path class="st0" d="M523.7,150h54.6c1.4,0,2.5-1.1,2.5-2.5c0-1.4-1.1-2.5-2.5-2.5h-54.6c-1.4,0-2.5,1.1-2.5,2.5
			C521.2,148.9,522.3,150,523.7,150z"/>
	</g>
</g>
<g>
	<path class="st0" d="M307.9,925H1208V605H305v124.5c0,1.4,1.1,2.5,2.5,2.5c1.4,0,2.5-1.1,2.5-2.5V610h893v310H307.9
		c-1.4,0-2.5,1.1-2.5,2.5C305.4,923.9,306.5,925,307.9,925z"/>
</g>
<g>
	<path class="st0" d="M34,546h1174v49H34V546z M1203,551H39v39h1164V551z"/>
</g>
<g>
	<g>
		<path class="st0" d="M1057.5,246.5c0.2-21.3,3.8-37.4,11.3-50.8c7.1-12.6,17.9-23.2,34.8-34.2l0.6-0.4h22.3l0.6,0.4
			c16.9,11.1,27.7,21.6,34.8,34.2c7.6,13.4,11.2,29.5,11.3,50.8l0,2.5h-115.8L1057.5,246.5z M1125.1,166h-19.4
			c-30.9,20-42.4,41-43.2,78h105.7C1167.5,207,1156,186,1125.1,166z"/>
	</g>
	<g>
		<path class="st0" d="M1115.5,166c1.4,0,2.5-1.1,2.5-2.5V16.9c0-1.4-1.1-2.5-2.5-2.5s-2.5,1.1-2.5,2.5v146.7
			C1113,164.9,1114.1,166,1115.5,166z"/>
	</g>
	<g>
		<path class="st0" d="M1094.4,0l41.9,0l-3.9,19h-34.2L1094.4,0z M1130.2,5h-29.7l1.8,9h26L1130.2,5z"/>
	</g>
	<g>
		<path class="st0" d="M1115.4,261.4c7.8,0,14.2-6.4,14.2-14.2c0-0.3,0-0.6,0-0.8c-0.1-1.4-1.3-2.4-2.7-2.3
			c-1.4,0.1-2.4,1.3-2.3,2.7c0,0.2,0,0.3,0,0.5c0,5.1-4.1,9.2-9.2,9.2s-9.2-4.1-9.2-9.2c0-0.2,0-0.4,0-0.5c0.1-1.4-1-2.6-2.3-2.7
			c-1.4-0.1-2.6,1-2.7,2.3c0,0.3,0,0.6,0,0.8C1101.2,255,1107.5,261.4,1115.4,261.4z"/>
	</g>
	<g>
		<path class="st0" d="M1122,204h40.2c1.4,0,2.5-1.1,2.5-2.5c0-1.4-1.1-2.5-2.5-2.5H1122c-1.4,0-2.5,1.1-2.5,2.5
			C1119.5,202.9,1120.6,204,1122,204z"/>
	</g>
	<g>
		<path class="st0" d="M1122,215h44.3c1.4,0,2.5-1.1,2.5-2.5c0-1.4-1.1-2.5-2.5-2.5H1122c-1.4,0-2.5,1.1-2.5,2.5
			C1119.5,213.9,1120.6,215,1122,215z"/>
	</g>
	<g>
		<path class="st0" d="M1122,225h46.8c1.4,0,2.5-1.1,2.5-2.5s-1.1-2.5-2.5-2.5H1122c-1.4,0-2.5,1.1-2.5,2.5S1120.6,225,1122,225z"/>
	</g>
</g>
<g>
	<path class="st0" d="M988.5,924.9c1.4,0,2.5-1.1,2.5-2.5V607.2c0-1.4-1.1-2.5-2.5-2.5c-1.4,0-2.5,1.1-2.5,2.5v315.2
		C986,923.8,987.1,924.9,988.5,924.9z"/>
</g>
<g>
	<path class="st0" d="M1151.5,814.8c1.4,0,2.5-1.1,2.5-2.5V679.6c0-1.4-1.1-2.5-2.5-2.5s-2.5,1.1-2.5,2.5v132.7
		C1149,813.7,1150.1,814.8,1151.5,814.8z"/>
</g>
<g>
	<path class="st0" d="M466.5,814.8c1.4,0,2.5-1.1,2.5-2.5V679.6c0-1.4-1.1-2.5-2.5-2.5c-1.4,0-2.5,1.1-2.5,2.5v132.7
		C464,813.7,465.1,814.8,466.5,814.8z"/>
</g>
<g>
	<path class="st0" d="M769.6,678h218.9c1.4,0,2.5-1.1,2.5-2.5c0-1.4-1.1-2.5-2.5-2.5H769.6c-1.4,0-2.5,1.1-2.5,2.5
		C767.1,676.9,768.2,678,769.6,678z"/>
</g>
<g>
	<path class="st0" d="M769.6,785h218.9c1.4,0,2.5-1.1,2.5-2.5c0-1.4-1.1-2.5-2.5-2.5H769.6c-1.4,0-2.5,1.1-2.5,2.5
		C767.1,783.9,768.2,785,769.6,785z"/>
</g>
<g>
	<path class="st0" d="M815.9,637H942c1.4,0,2.5-1.1,2.5-2.5s-1.1-2.5-2.5-2.5H815.9c-1.4,0-2.5,1.1-2.5,2.5S814.6,637,815.9,637z"/>
</g>
<g>
	<path class="st0" d="M815.9,810H942c1.4,0,2.5-1.1,2.5-2.5s-1.1-2.5-2.5-2.5H815.9c-1.4,0-2.5,1.1-2.5,2.5S814.6,810,815.9,810z"/>
</g>
<g>
	<path class="st0" d="M815.9,709H942c1.4,0,2.5-1.1,2.5-2.5s-1.1-2.5-2.5-2.5H815.9c-1.4,0-2.5,1.1-2.5,2.5S814.6,709,815.9,709z"/>
</g>
<g>
	<path class="st0" d="M493,511h300v25H493V511z M788,516H498v15h290V516z"/>
</g>
<g>
	<g>
		<g>
			<g>
				<path class="st0" d="M1218,295h261v630h-261V295z M1474,300h-251v620h251V300z"/>
			</g>
			<g>
				<path class="st0" d="M1441.5,424.1c1.4,0,2.5-1.1,2.5-2.5v-73.8c0-1.4-1.1-2.5-2.5-2.5s-2.5,1.1-2.5,2.5v73.8
					C1439,423,1440.1,424.1,1441.5,424.1z"/>
			</g>
			<g>
				<path class="st0" d="M1441.5,732.3c1.4,0,2.5-1.1,2.5-2.5V558.6c0-1.4-1.1-2.5-2.5-2.5s-2.5,1.1-2.5,2.5v171.2
					C1439,731.2,1440.1,732.3,1441.5,732.3z"/>
			</g>
			<g>
				<path class="st0" d="M1220.3,503h256c1.4,0,2.5-1.1,2.5-2.5c0-1.4-1.1-2.5-2.5-2.5h-256c-1.4,0-2.5,1.1-2.5,2.5
					C1217.8,501.9,1218.9,503,1220.3,503z"/>
			</g>
		</g>
	</g>
	<g>
		<path class="st0" d="M1308.5,395c0.6,0,1.3-0.2,1.8-0.7c1-1,1-2.6,0-3.5l-10.7-10.7c-1-1-2.6-1-3.5,0c-1,1-1,2.6,0,3.5l10.7,10.7
			C1307.2,394.8,1307.9,395,1308.5,395z"/>
	</g>
	<g>
		<path class="st0" d="M1319.7,440.9c0.6,0,1.3-0.2,1.8-0.7c1-1,1-2.6,0-3.5l-52.5-52.5c-1-1-2.6-1-3.5,0c-1,1-1,2.6,0,3.5
			l52.5,52.5C1318.5,440.6,1319.1,440.9,1319.7,440.9z"/>
	</g>
	<g>
		<path class="st0" d="M1285.1,440.9c0.6,0,1.3-0.2,1.8-0.7c1-1,1-2.6,0-3.5l-11.2-11.2c-1-1-2.6-1-3.5,0c-1,1-1,2.6,0,3.5
			l11.2,11.2C1283.8,440.6,1284.4,440.9,1285.1,440.9z"/>
	</g>
</g>
</svg>
