<?xml version="1.0" encoding="utf-8"?>
<!-- Generator: Adobe Illustrator 19.1.0, SVG Export Plug-In . SVG Version: 6.00 Build 0)  -->
<svg version="1.1" id="Слой_1" xmlns="http://www.w3.org/2000/svg" xmlns:xlink="http://www.w3.org/1999/xlink" x="0px" y="0px"
	 viewBox="0 0 90 90" enable-background="new 0 0 90 90" xml:space="preserve">
<g>
	<path fill="#FFFFFF" d="M89,13.6L76.4,1c-1.4-1.4-3.6-1.4-5,0L47.7,24.7L24.4,1.5c-2-2-5.2-2-7.2,0L1.5,17.2c-2,2-2,5.2,0,7.2
		L4,26.9l11.5-11.5c0.4-0.4,1.2-0.4,1.6,0c0.4,0.4,0.4,1.2,0,1.6L5.6,28.5l4.8,4.8l7.5-7.5c0.4-0.4,1.2-0.4,1.6,0
		c0.4,0.4,0.4,1.2,0,1.6L12,34.9l4.8,4.8l7.5-7.5c0.4-0.4,1.2-0.4,1.6,0c0.4,0.4,0.4,1.2,0,1.6l-7.5,7.5l4.8,4.8l11.5-11.5
		c0.4-0.4,1.2-0.4,1.6,0c0.4,0.4,0.4,1,0.1,1.5L2.5,69.9C1.1,71.3,0,74,0,75.9v10.5V90h3.5h0.6h9.9c1.9,0,4.7-1.1,6-2.5L89,18.6
		C90.3,17.2,90.3,15,89,13.6z"/>
	<path fill="#FFFFFF" d="M66.8,43.9L66.8,43.9l-0.9,0.9l-22,22l4.8,4.8l7.5-7.5c0.4-0.4,1.2-0.4,1.6,0c0.4,0.4,0.4,1.2,0,1.6
		l-7.5,7.5l4.8,4.8l7.5-7.5c0.4-0.4,1.2-0.4,1.6,0c0.4,0.4,0.4,1.2,0,1.6l-7.5,7.5l4.8,4.8L73,72.8c0.4-0.4,1.2-0.4,1.6,0
		c0.4,0.4,0.4,1.2,0,1.6L63.1,85.9l2.5,2.5c2,2,5.2,2,7.2,0l15.7-15.7c2-2,2-5.2,0-7.2L66.8,43.9z"/>
</g>
</svg>
