<?xml version="1.0" encoding="utf-8"?>
<!-- Generator: Adobe Illustrator 19.1.0, SVG Export Plug-In . SVG Version: 6.00 Build 0)  -->
<svg version="1.1" id="Layer_1" xmlns="http://www.w3.org/2000/svg" xmlns:xlink="http://www.w3.org/1999/xlink" x="0px" y="0px"
	 viewBox="0 0 149.5 17.6" enable-background="new 0 0 149.5 17.6" xml:space="preserve">
<g>
	<rect x="0" y="0" fill-rule="evenodd" clip-rule="evenodd" fill="#B6272E" width="16.8" height="17"/>
	<polygon fill-rule="evenodd" clip-rule="evenodd" fill="#FFFFFF" points="13.6,6.9 10,6.9 10,3.2 6.8,3.2 6.8,6.9 3.2,6.9 
		3.2,10.1 6.8,10.1 6.8,13.8 10,13.8 10,10.1 13.6,10.1 	"/>
	<g>
		<polygon fill-rule="evenodd" clip-rule="evenodd" fill="#FFFFFF" points="23.4,10.9 23.4,15.7 25.6,15.7 25.6,10.9 26.4,10.9 
			26.4,15.7 28.6,15.7 28.6,10.9 29.5,10.9 29.5,16.4 22.6,16.4 22.6,10.9 		"/>
		<path fill-rule="evenodd" clip-rule="evenodd" fill="#FFFFFF" d="M31.7,15.7h1.7c0.8,0,1.1-0.3,1.1-0.9c0-0.6-0.4-0.9-1.1-0.9
			h-1.7V15.7L31.7,15.7z M31.7,13.2h1.6c0.6,0,0.9-0.3,0.9-0.8c0-0.5-0.3-0.8-1.1-0.8h-1.4V13.2L31.7,13.2z M33.1,10.9
			c1.2,0,1.9,0.6,1.9,1.4c0,0.5-0.2,0.9-0.6,1.1v0.1c0.6,0.2,0.9,0.7,0.9,1.3c0,0.9-0.6,1.6-2,1.6h-2.5v-5.5H33.1z"/>
		<polygon fill-rule="evenodd" clip-rule="evenodd" fill="#FFFFFF" points="40.3,10.9 40.3,11.6 37.2,11.6 37.2,13.2 40,13.2 
			40,13.9 37.2,13.9 37.2,15.7 40.5,15.7 40.5,16.4 36.4,16.4 36.4,10.9 		"/>
		<path fill-rule="evenodd" clip-rule="evenodd" fill="#FFFFFF" d="M43.4,8.9c0,0.4,0.3,0.6,0.6,0.6s0.6-0.2,0.7-0.6h0.6
			c0,0.7-0.5,1.3-1.3,1.3c-0.8,0-1.3-0.5-1.3-1.3H43.4L43.4,8.9z M42.5,10.9v4.3l3.2-4.3h0.8v5.5h-0.8v-4.1l-3.1,4.1h-0.8v-5.5H42.5
			z"/>
		<polygon fill-rule="evenodd" clip-rule="evenodd" fill="#FFFFFF" points="48.6,10.9 48.6,15.7 51.4,15.7 51.4,10.9 52.2,10.9 
			52.2,15.7 53,15.7 53,16.1 53,17.6 52.3,17.6 52.2,16.4 47.7,16.4 47.7,10.9 		"/>
		<path fill-rule="evenodd" clip-rule="evenodd" fill="#FFFFFF" d="M55.4,14.4h2.2l-1.1-2.7h-0.1L55.4,14.4L55.4,14.4z M57,10.9
			l2.3,5.5h-0.9l-0.5-1.2h-2.8l-0.5,1.2h-0.9l2.3-5.5H57z"/>
		<path fill-rule="evenodd" clip-rule="evenodd" fill="#FFFFFF" d="M61.2,14h1.4c0.8,0,1.4-0.5,1.4-1.2c0-0.7-0.5-1.2-1.3-1.2h-1.4
			V14L61.2,14z M62.7,10.9c1.2,0,2.1,0.8,2.1,1.9c0,1.2-1,1.9-2.2,1.9h-1.4v1.7h-0.8v-5.5H62.7z"/>
		<path fill-rule="evenodd" clip-rule="evenodd" fill="#FFFFFF" d="M70.2,12.1c-0.5-0.4-1-0.6-1.7-0.6c-1.3,0-2.1,0.8-2.1,2.1
			c0,1.3,0.9,2.1,2.1,2.1c0.7,0,1.3-0.2,1.8-0.7l0.5,0.6c-0.6,0.6-1.3,0.9-2.3,0.9c-1.7,0-2.9-1.1-2.9-2.9c0-1.6,1.2-2.9,3-2.9
			c0.8,0,1.5,0.3,2,0.7L70.2,12.1z"/>
		<polygon fill-rule="evenodd" clip-rule="evenodd" fill="#FFFFFF" points="72.6,10.9 72.6,13.2 73.5,13.1 75.3,10.9 76.3,10.9 
			74.2,13.5 76.5,16.4 75.5,16.4 73.5,13.9 72.6,13.9 72.6,16.4 71.8,16.4 71.8,10.9 		"/>
		<polygon fill-rule="evenodd" clip-rule="evenodd" fill="#FFFFFF" points="78.3,10.9 78.3,15.2 81.5,10.9 82.3,10.9 82.3,16.4 
			81.4,16.4 81.4,12.3 78.3,16.4 77.5,16.4 77.5,10.9 		"/>
		<polygon fill-rule="evenodd" clip-rule="evenodd" fill="#FFFFFF" points="87.6,10.9 87.6,11.6 84.4,11.6 84.4,13.2 87.2,13.2 
			87.2,13.9 84.4,13.9 84.4,15.7 87.7,15.7 87.7,16.4 83.6,16.4 83.6,10.9 		"/>
		<polygon fill-rule="evenodd" clip-rule="evenodd" fill="#FFFFFF" points="95.9,10.9 95.9,11.7 93.9,11.7 93.9,16.4 93.1,16.4 
			93.1,11.7 91.1,11.7 91.1,10.9 		"/>
		<polygon fill-rule="evenodd" clip-rule="evenodd" fill="#FFFFFF" points="101,10.9 101,11.6 97.8,11.6 97.8,13.2 100.6,13.2 
			100.6,13.9 97.8,13.9 97.8,15.7 101.1,15.7 101.1,16.4 97,16.4 97,10.9 		"/>
		<polygon fill-rule="evenodd" clip-rule="evenodd" fill="#FFFFFF" points="103.1,10.9 104.5,13.1 104.6,13.1 106,10.9 107,10.9 
			105.2,13.6 107.2,16.4 106.1,16.4 104.6,14.1 104.5,14.1 102.9,16.4 101.9,16.4 103.9,13.5 102.1,10.9 		"/>
		<polygon fill-rule="evenodd" clip-rule="evenodd" fill="#FFFFFF" points="108.9,10.9 108.9,13.2 111.9,13.2 111.9,10.9 
			112.7,10.9 112.7,16.4 111.9,16.4 111.9,14 108.9,14 108.9,16.4 108.1,16.4 108.1,10.9 		"/>
		<path fill-rule="evenodd" clip-rule="evenodd" fill="#FFFFFF" d="M114.7,13.7c0,1.2,0.8,2.1,2.1,2.1c1.3,0,2.1-0.9,2.1-2.1
			c0-1.2-0.8-2.1-2.1-2.1C115.5,11.5,114.7,12.5,114.7,13.7L114.7,13.7z M119.6,13.7c0,1.6-1.2,2.9-2.9,2.9c-1.7,0-2.9-1.3-2.9-2.9
			c0-1.6,1.2-2.9,2.9-2.9C118.5,10.8,119.6,12,119.6,13.7z"/>
		<path fill-rule="evenodd" clip-rule="evenodd" fill="#FFFFFF" d="M125.6,10.9v5.5h-0.8v-4.8h-2.2c0,2-0.1,3.6-0.6,4.3
			c-0.3,0.3-0.6,0.5-1.1,0.5c-0.3,0-0.5,0-0.7-0.1l0.2-0.7c0.1,0,0.3,0.1,0.4,0.1c0.2,0,0.4-0.1,0.6-0.4c0.3-0.6,0.4-1.8,0.4-3.6
			v-0.9H125.6z"/>
		<path fill-rule="evenodd" clip-rule="evenodd" fill="#FFFFFF" d="M127.5,13.7c0,1.2,0.8,2.1,2.1,2.1c1.3,0,2.1-0.9,2.1-2.1
			c0-1.2-0.8-2.1-2.1-2.1C128.3,11.5,127.5,12.5,127.5,13.7L127.5,13.7z M132.5,13.7c0,1.6-1.2,2.9-2.9,2.9c-1.7,0-2.9-1.3-2.9-2.9
			c0-1.6,1.2-2.9,2.9-2.9C131.3,10.8,132.5,12,132.5,13.7z"/>
		<polygon fill-rule="evenodd" clip-rule="evenodd" fill="#FFFFFF" points="137.6,10.9 137.6,11.7 134.5,11.7 134.5,16.4 
			133.6,16.4 133.6,10.9 		"/>
		<polygon fill-rule="evenodd" clip-rule="evenodd" fill="#FFFFFF" points="139.4,10.9 139.4,15.2 142.6,10.9 143.4,10.9 
			143.4,16.4 142.5,16.4 142.5,12.3 139.4,16.4 138.6,16.4 138.6,10.9 		"/>
		<polygon fill-rule="evenodd" clip-rule="evenodd" fill="#FFFFFF" points="145.5,10.9 145.5,15.2 148.7,10.9 149.5,10.9 
			149.5,16.4 148.6,16.4 148.6,12.3 145.5,16.4 144.7,16.4 144.7,10.9 		"/>
		<path fill-rule="evenodd" clip-rule="evenodd" fill="#FFFFFF" d="M25.8,2.1c-0.4-0.3-1-0.5-1.6-0.5c-0.9,0-1.3,0.3-1.3,0.8
			c0,0.5,0.3,0.7,1,0.8l0.8,0.1c1.1,0.2,1.7,0.7,1.7,1.6c0,1-0.8,1.7-2.3,1.7c-0.9,0-1.5-0.2-2.2-0.6l0.4-0.7
			c0.6,0.4,1.2,0.6,1.8,0.6c0.9,0,1.4-0.4,1.4-0.9c0-0.5-0.3-0.8-1-0.9L23.6,4c-1-0.1-1.6-0.6-1.6-1.5c0-1,0.8-1.6,2.1-1.6
			c0.8,0,1.5,0.2,2.1,0.6L25.8,2.1z"/>
		<polygon fill-rule="evenodd" clip-rule="evenodd" fill="#FFFFFF" points="27.9,1 29.1,5.5 29.2,5.5 30.4,1.3 31.2,1.3 32.4,5.5 
			32.5,5.5 33.8,1 34.7,1 33,6.5 31.9,6.5 30.8,2.8 30.8,2.8 29.7,6.5 28.6,6.5 27,1 		"/>
		<rect x="35.7" y="1" fill-rule="evenodd" clip-rule="evenodd" fill="#FFFFFF" width="0.8" height="5.5"/>
		<path fill-rule="evenodd" clip-rule="evenodd" fill="#FFFFFF" d="M41.5,2.1c-0.4-0.3-1-0.5-1.6-0.5c-0.9,0-1.3,0.3-1.3,0.8
			c0,0.5,0.3,0.7,1,0.8l0.8,0.1c1.1,0.2,1.7,0.7,1.7,1.6c0,1-0.8,1.7-2.3,1.7c-0.9,0-1.5-0.2-2.2-0.6L38,5.3
			c0.6,0.4,1.2,0.6,1.8,0.6c0.9,0,1.4-0.4,1.4-0.9c0-0.5-0.3-0.8-1-0.9L39.4,4c-1-0.1-1.6-0.6-1.6-1.5c0-1,0.8-1.6,2.1-1.6
			c0.8,0,1.5,0.2,2.1,0.6L41.5,2.1z"/>
		<path fill-rule="evenodd" clip-rule="evenodd" fill="#FFFFFF" d="M46.8,2.1c-0.4-0.3-1-0.5-1.6-0.5c-0.9,0-1.3,0.3-1.3,0.8
			c0,0.5,0.3,0.7,1,0.8l0.8,0.1c1.1,0.2,1.7,0.7,1.7,1.6c0,1-0.8,1.7-2.3,1.7c-0.9,0-1.5-0.2-2.2-0.6l0.4-0.7
			c0.6,0.4,1.2,0.6,1.8,0.6c0.9,0,1.4-0.4,1.4-0.9c0-0.5-0.3-0.8-1-0.9L44.7,4c-1-0.1-1.6-0.6-1.6-1.5c0-1,0.8-1.6,2.1-1.6
			c0.8,0,1.5,0.2,2.1,0.6L46.8,2.1z"/>
		<polygon fill-rule="evenodd" clip-rule="evenodd" fill="#FFFFFF" points="55.6,1 55.6,1.7 53.5,1.7 53.5,6.5 52.7,6.5 52.7,1.7 
			50.7,1.7 50.7,1 		"/>
		<polygon fill-rule="evenodd" clip-rule="evenodd" fill="#FFFFFF" points="60.6,1 60.6,1.7 57.5,1.7 57.5,3.3 60.2,3.3 60.2,4 
			57.5,4 57.5,5.8 60.7,5.8 60.7,6.5 56.6,6.5 56.6,1 		"/>
		<path fill-rule="evenodd" clip-rule="evenodd" fill="#FFFFFF" d="M66.2,2.2c-0.5-0.4-1-0.6-1.7-0.6c-1.3,0-2.1,0.8-2.1,2.1
			c0,1.3,0.9,2.1,2.1,2.1c0.7,0,1.3-0.2,1.8-0.7l0.5,0.6c-0.6,0.6-1.3,0.9-2.3,0.9c-1.7,0-2.9-1.1-2.9-2.9c0-1.6,1.2-2.9,3-2.9
			c0.8,0,1.5,0.3,2,0.7L66.2,2.2z"/>
		<polygon fill-rule="evenodd" clip-rule="evenodd" fill="#FFFFFF" points="68.6,1 68.6,3.3 71.6,3.3 71.6,1 72.4,1 72.4,6.5 
			71.6,6.5 71.6,4.1 68.6,4.1 68.6,6.5 67.8,6.5 67.8,1 		"/>
		<polygon fill-rule="evenodd" clip-rule="evenodd" fill="#FFFFFF" points="78.6,1 78.6,6.5 77.8,6.5 74.6,2.3 74.6,6.5 73.8,6.5 
			73.8,1 74.6,1 77.8,5.3 77.8,1 		"/>
		<path fill-rule="evenodd" clip-rule="evenodd" fill="#FFFFFF" d="M80.6,3.7c0,1.2,0.8,2.1,2.1,2.1c1.3,0,2.1-0.9,2.1-2.1
			c0-1.2-0.8-2.1-2.1-2.1C81.3,1.6,80.6,2.5,80.6,3.7L80.6,3.7z M85.5,3.7c0,1.6-1.2,2.9-2.9,2.9c-1.7,0-2.9-1.3-2.9-2.9
			c0-1.6,1.2-2.9,2.9-2.9C84.4,0.9,85.5,2.1,85.5,3.7z"/>
		<polygon fill-rule="evenodd" clip-rule="evenodd" fill="#FFFFFF" points="87.5,1 87.5,5.8 90.7,5.8 90.7,6.5 86.6,6.5 86.6,1 		
			"/>
		<path fill-rule="evenodd" clip-rule="evenodd" fill="#FFFFFF" d="M92.2,3.7c0,1.2,0.8,2.1,2.1,2.1c1.3,0,2.1-0.9,2.1-2.1
			c0-1.2-0.8-2.1-2.1-2.1C92.9,1.6,92.2,2.5,92.2,3.7L92.2,3.7z M97.1,3.7c0,1.6-1.2,2.9-2.9,2.9c-1.7,0-2.9-1.3-2.9-2.9
			c0-1.6,1.2-2.9,2.9-2.9C95.9,0.9,97.1,2.1,97.1,3.7z"/>
		<path fill-rule="evenodd" clip-rule="evenodd" fill="#FFFFFF" d="M103.2,3.5v2.3c-0.6,0.5-1.4,0.8-2.2,0.8c-1.7,0-2.9-1.1-2.9-2.9
			c0-1.6,1.1-2.9,3-2.9c0.7,0,1.5,0.2,2,0.7l-0.4,0.6c-0.4-0.4-1-0.5-1.6-0.5c-1.3,0-2.1,0.8-2.1,2.1c0,1.3,0.9,2.1,2.1,2.1
			c0.6,0,1-0.1,1.4-0.4V4.3l-1.2-0.1V3.5H103.2z"/>
		<polygon fill-rule="evenodd" clip-rule="evenodd" fill="#FFFFFF" points="104.8,1 106.4,3.9 106.5,3.9 108.1,1 109.1,1 106.9,4.7 
			106.9,6.5 106.1,6.5 106.1,4.7 103.8,1 		"/>
	</g>
</g>
</svg>
