<?xml version="1.0" encoding="utf-8"?>
<!-- Generator: Adobe Illustrator 19.1.0, SVG Export Plug-In . SVG Version: 6.00 Build 0)  -->
<svg version="1.1" id="Слой_1" xmlns="http://www.w3.org/2000/svg" xmlns:xlink="http://www.w3.org/1999/xlink" x="0px" y="0px"
	 viewBox="0 0 262.2 375" enable-background="new 0 0 262.2 375" xml:space="preserve">
<g>
	<path d="M262.2,131.1C262.2,58.8,203.4,0,131.1,0S0,58.8,0,131.1c0,44.5,22.3,83.8,56.2,107.5V375l74.9-50l74.9,50V238.6
		C240,214.8,262.2,175.6,262.2,131.1z M37.4,131.1c0-51.6,42-93.7,93.7-93.7c51.6,0,93.7,42,93.7,93.7c0,51.6-42,93.7-93.7,93.7
		C79.5,224.8,37.4,182.8,37.4,131.1z M168.6,305l-37.5-25l-37.5,25v-48.3c11.9,3.5,24.4,5.5,37.4,5.5s25.6-2,37.5-5.5V305H168.6z"/>
	<polygon points="190.5,116.6 164,90.1 121.5,132.5 97.3,108.3 70.8,134.8 121.5,185.5 	"/>
</g>
</svg>
