<?xml version="1.0" encoding="utf-8"?>
<!-- Generator: Adobe Illustrator 19.1.0, SVG Export Plug-In . SVG Version: 6.00 Build 0)  -->
<svg version="1.1" id="Слой_1" xmlns="http://www.w3.org/2000/svg" xmlns:xlink="http://www.w3.org/1999/xlink" x="0px" y="0px"
	 viewBox="0 0 98.4 65.6" enable-background="new 0 0 98.4 65.6" xml:space="preserve">
<g>
	<path d="M0,32.8C0,15.7,9.2,0.2,28.1,0.2c18.9,0,28.1,15.5,28.1,32.7c0,17.2-9.2,32.7-28.1,32.7C9.2,65.6,0,50,0,32.8z M36.9,32.8
		c0-10.7-2.8-15.8-8.8-15.8s-8.8,5-8.8,15.8s2.8,15.9,8.8,15.9S36.9,43.6,36.9,32.8z"/>
</g>
<g>
	<path d="M58.2,9.3C58.2,4.1,62,0,67.8,0c5.9,0,9.7,4.1,9.7,9.3c0,5.2-3.8,9.2-9.7,9.2C62,18.5,58.2,14.5,58.2,9.3z M71.6,9.3
		c0-2.8-1.7-4.2-3.8-4.2c-2.1,0-3.7,1.4-3.7,4.2c0,2.7,1.6,4.1,3.7,4.1C70,13.4,71.6,12,71.6,9.3z M64.2,37.5L87.8,0.6h4.8
		L68.9,37.5H64.2z M79.1,29c0-5.2,3.8-9.3,9.6-9.3c5.9,0,9.7,4.1,9.7,9.3c0,5.2-3.8,9.2-9.7,9.2C82.9,38.2,79.1,34.1,79.1,29z
		 M92.5,29c0-2.8-1.7-4.2-3.8-4.2S85,26.2,85,29c0,2.7,1.6,4.1,3.7,4.1S92.5,31.7,92.5,29z"/>
</g>
</svg>
