<?xml version="1.0" encoding="utf-8"?>
<!-- Generator: Adobe Illustrator 19.2.1, SVG Export Plug-In . SVG Version: 6.00 Build 0)  -->
<svg version="1.1" id="Слой_1" xmlns="http://www.w3.org/2000/svg" xmlns:xlink="http://www.w3.org/1999/xlink" x="0px" y="0px"
	 viewBox="0 0 45 45" style="enable-background:new 0 0 45 45;" xml:space="preserve">
<style type="text/css">
	.st0{fill-rule:evenodd;clip-rule:evenodd;fill:#0C0E0F;}
	.st1{fill-rule:evenodd;clip-rule:evenodd;fill:none;stroke:#0C0E0F;stroke-width:2;stroke-miterlimit:10;}
</style>
<path class="st0" d="M24.9,28.3l-0.4,0.4c-0.4,0.4-1,0.4-1.4,0l-5-4.9c-0.4-0.4-0.4-1,0-1.4l0.4-0.4c0.4-0.4,1-0.4,1.4,0l5,4.9
	C25.3,27.3,25.3,27.9,24.9,28.3z"/>
<path class="st0" d="M24.5,17.3l0.4,0.4c0.4,0.4,0.4,1,0,1.4l-5,4.9c-0.4,0.4-1,0.4-1.4,0l-0.4-0.4c-0.4-0.4-0.4-1,0-1.4l5-4.9
	C23.5,16.9,24.1,16.9,24.5,17.3z"/>
<path class="st1" d="M22.4,1C10.6,1,1,10.7,1,22.5c0,11.8,9.6,21.4,21.5,21.4s21.5-9.6,21.5-21.4C43.9,10.7,34.3,1,22.4,1z"/>
</svg>
