<?xml version="1.0" encoding="utf-8"?>
<!-- Generator: Adobe Illustrator 19.2.1, SVG Export Plug-In . SVG Version: 6.00 Build 0)  -->
<svg version="1.1" id="Слой_1" xmlns="http://www.w3.org/2000/svg" xmlns:xlink="http://www.w3.org/1999/xlink" x="0px" y="0px"
	 viewBox="0 0 45 45" style="enable-background:new 0 0 45 45;" xml:space="preserve">
<style type="text/css">
	.st0{fill-rule:evenodd;clip-rule:evenodd;fill:#0C0E0F;}
	.st1{fill-rule:evenodd;clip-rule:evenodd;fill:none;stroke:#0C0E0F;stroke-width:2;stroke-miterlimit:10;}
</style>
<path class="st0" d="M20,28.3l0.4,0.4c0.4,0.4,1,0.4,1.4,0l5-5c0.4-0.4,0.4-1,0-1.4l-0.4-0.4c-0.4-0.4-1-0.4-1.4,0l-5,5
	C19.7,27.3,19.7,27.9,20,28.3z"/>
<path class="st0" d="M20.4,17.3L20,17.7c-0.4,0.4-0.4,1,0,1.4l5,5c0.4,0.4,1,0.4,1.4,0l0.4-0.4c0.4-0.4,0.4-1,0-1.4l-5-5
	C21.4,16.9,20.8,16.9,20.4,17.3z"/>
<path class="st1" d="M22.5,1C34.4,1,44,10.6,44,22.5C44,34.4,34.4,44,22.5,44S1,34.4,1,22.5C1,10.6,10.6,1,22.5,1z"/>
</svg>
