<?xml version="1.0" encoding="utf-8"?>
<!-- Generator: Adobe Illustrator 19.2.1, SVG Export Plug-In . SVG Version: 6.00 Build 0)  -->
<svg version="1.1" id="Слой_1" xmlns="http://www.w3.org/2000/svg" xmlns:xlink="http://www.w3.org/1999/xlink" x="0px" y="0px"
	 viewBox="0 0 60 60" style="enable-background:new 0 0 60 60;" xml:space="preserve">
<style type="text/css">
	.st0{fill:#4B4B4B;}
</style>
<path class="st0" d="M50,51.9h-2V56h-2v-4.1H15V56h-2v-4.1h-2H9v-2.1v-4.1v-1v-1v-5.1h2v5.1h39v-5.1h2v5.1v1v1v4.1v2.1H50z M11,45.7
	v4.1h2h2h31h2h2v-4.1H11z"/>
<path class="st0" d="M13,40c-4.4,0-8-3.6-8-8s3.6-8,8-8s8,3.6,8,8S17.4,40,13,40z M13,26c-3.3,0-6,2.7-6,6s2.7,6,6,6s6-2.7,6-6
	S16.3,26,13,26z"/>
<path class="st0" d="M48,40c-4.4,0-8-3.6-8-8s3.6-8,8-8s8,3.6,8,8S52.4,40,48,40z M48,26c-3.3,0-6,2.7-6,6s2.7,6,6,6s6-2.7,6-6
	S51.3,26,48,26z"/>
<path class="st0" d="M19,34h23v2H19V34z"/>
<path class="st0" d="M27.4,18l8.6,8.6L34.6,28L26,19.4L27.4,18z"/>
<path class="st0" d="M34.6,18L26,26.6l1.4,1.4l8.6-8.6L34.6,18z"/>
<path class="st0" d="M46,25v-2c0-8.3-6.7-15-15-15h-1c-8.3,0-15,6.7-15,15v2h-2v-1.5C13,13.8,20.8,6,30.5,6S48,13.8,48,23.5V25H46z"
	/>
</svg>
