<?xml version="1.0" encoding="utf-8"?>
<!-- Generator: Adobe Illustrator 19.2.1, SVG Export Plug-In . SVG Version: 6.00 Build 0)  -->
<svg version="1.1" id="Слой_1" xmlns="http://www.w3.org/2000/svg" xmlns:xlink="http://www.w3.org/1999/xlink" x="0px" y="0px"
	 viewBox="0 0 60 60" style="enable-background:new 0 0 60 60;" xml:space="preserve">
<style type="text/css">
	.st0{fill-rule:evenodd;clip-rule:evenodd;fill:#4B4B4B;}
</style>
<path class="st0" d="M52,52h-2v3h-2v-3H11v3H9v-3H7H5v-2v-8l0.2-2l0,0L11,16v-1l0,0V7V6V5h37v1v1v8l0,0v1l5.8,24l0,0l0.2,2v8v2H52z
	 M46,7H13v8h7v-4h19v4h7V7z M22,13v6h15v-6H22z M46.2,17H39v4H20v-4h-7.2l-2.6,11h38.8L46.2,17z M49.4,30H9.6L7.2,40h44.5L49.4,30z
	 M52,42H7v8h45V42z"/>
</svg>
