<?xml version="1.0" encoding="utf-8"?>
<!-- Generator: Adobe Illustrator 19.2.1, SVG Export Plug-In . SVG Version: 6.00 Build 0)  -->
<svg version="1.1" id="Слой_1" xmlns="http://www.w3.org/2000/svg" xmlns:xlink="http://www.w3.org/1999/xlink" x="0px" y="0px"
	 viewBox="0 0 60 60" style="enable-background:new 0 0 60 60;" xml:space="preserve">
<style type="text/css">
	.st0{fill:#4B4B4B;}
</style>
<path class="st0" d="M59.8,42L59.8,42l0.2,2H49.2c1.1,2.5,1.7,5.2,1.8,8h-1h-1H10H8.2l0,0v-2l0,0c0.2-2.1,0.8-4.1,1.6-6H0l0.2-2l0,0
	c0.7-4.7,4-8.6,8.3-10.2C5.8,30.3,4,27.3,4,24c0-5,4-9,9-9c1.7,0,3.3,0.5,4.7,1.4C19.4,11.5,24,8,29.5,8c5.7,0,10.4,3.8,12,8.9l0,0
	C43,15.7,44.9,15,47,15c5,0,9,4,9,9c0,3.3-1.8,6.3-4.5,7.8C55.8,33.4,59.1,37.3,59.8,42z M48.8,50c-0.8-6.6-5-12.2-10.7-15l-0.3-0.1
	l0,0c-2.5-1.2-5.3-1.9-8.3-1.9l0,0l0,0c-9.9,0-18.1,7.4-19.3,17H48.8z M24,31.7c-1.4-0.7-2.6-1.6-3.6-2.7c-0.8,1.1-1.8,2.1-3,2.8
	c1,0.4,1.9,0.8,2.7,1.4C21.4,32.6,22.7,32.1,24,31.7z M2.2,42h8.6c1.8-3.1,4.3-5.8,7.3-7.7C16.6,33.5,14.9,33,13,33
	C7.6,33,3.1,36.9,2.2,42z M17.2,18.4C16,17.5,14.6,17,13,17c-3.9,0-7,3.1-7,7s3.1,7,7,7c2.6,0,4.9-1.5,6.1-3.6
	c-1.3-2-2.1-4.3-2.1-6.9C17,19.8,17.1,19.1,17.2,18.4z M29.5,10C23.7,10,19,14.7,19,20.5S23.7,31,29.5,31S40,26.3,40,20.5
	S35.3,10,29.5,10z M54,24c0-3.9-3.1-7-7-7c-2,0-3.8,0.8-5.1,2.2c0,0.4,0.1,0.9,0.1,1.3c0,2.4-0.7,4.7-1.9,6.6
	c0.1-0.2,0.2-1.1,0.4-0.7C41.5,29,44,31,47,31C50.9,31,54,27.9,54,24z M47,33c-2.1,0-4.1,0.7-5.7,1.7c-0.6-0.4-1.2-0.9-1.8-1.2
	c0.9-0.7,2-1.2,3.1-1.6c-1.4-0.8-2.6-2-3.4-3.4c0.1-0.7,0.6-0.8,0.8-1.2c-1.2,1.9-3,3.5-5,4.5C40.7,33.2,45.4,37,48.2,42h9.6
	C56.9,36.9,52.4,33,47,33z"/>
</svg>
