<?xml version="1.0" encoding="utf-8"?>
<!-- Generator: Adobe Illustrator 19.2.1, SVG Export Plug-In . SVG Version: 6.00 Build 0)  -->
<svg version="1.1" id="Слой_1" xmlns="http://www.w3.org/2000/svg" xmlns:xlink="http://www.w3.org/1999/xlink" x="0px" y="0px"
	 viewBox="0 0 60 60" style="enable-background:new 0 0 60 60;" xml:space="preserve">
<style type="text/css">
	.st0{fill:#4B4B4B;}
</style>
<path class="st0" d="M7,2h45c0.6,0,1,0.4,1,1s-0.4,1-1,1H7C6.4,4,6,3.6,6,3S6.4,2,7,2z"/>
<path class="st0" d="M7,16h45c0.6,0,1,0.4,1,1s-0.4,1-1,1H7c-0.6,0-1-0.4-1-1S6.4,16,7,16z"/>
<path class="st0" d="M7,36h45c0.6,0,1,0.4,1,1s-0.4,1-1,1H7c-0.6,0-1-0.4-1-1S6.4,36,7,36z"/>
<path class="st0" d="M12.3,47h33.7c0.6,0,1.1,0.4,1.1,1s-0.4,1-1.1,1H12.3c-0.6,0-1.1-0.4-1.1-1S11.6,47,12.3,47z"/>
<path class="st0" d="M25,9h10c0.6,0,1,0.4,1,1s-0.4,1-1,1H25c-0.6,0-1-0.4-1-1S24.4,9,25,9z"/>
<path class="st0" d="M11,48v8c0,0.6-0.4,1-1,1s-1-0.4-1-1v-8c0-0.6,0.4-1,1-1S11,47.4,11,48z"/>
<path class="st0" d="M51,47.2v8.7c0,0.7-0.4,1.1-1,1.1s-1-0.4-1-1.1v-8.7c0-0.7,0.4-1.1,1-1.1S51,46.5,51,47.2z"/>
<path class="st0" d="M53,3v39c0,0.6-0.4,1-1,1s-1-0.4-1-1V3c0-0.6,0.4-1,1-1S53,2.4,53,3z"/>
<path class="st0" d="M8,3v39c0,0.6-0.4,1-1,1s-1-0.4-1-1V3c0-0.6,0.4-1,1-1S8,2.4,8,3z"/>
<path class="st0" d="M46.5,49c-3.6,0-6.5-2.9-6.5-6.5s2.9-6.5,6.5-6.5s6.5,2.9,6.5,6.5S50.1,49,46.5,49z M46.5,38
	C44,38,42,40,42,42.5s2,4.5,4.5,4.5s4.5-2,4.5-4.5S49,38,46.5,38z"/>
<path class="st0" d="M12.5,49C8.9,49,6,46.1,6,42.5S8.9,36,12.5,36s6.5,2.9,6.5,6.5S16.1,49,12.5,49z M12.5,38C10,38,8,40,8,42.5
	s2,4.5,4.5,4.5s4.5-2,4.5-4.5S15,38,12.5,38z"/>
</svg>
