<?xml version="1.0" encoding="utf-8"?>
<!-- Generator: Adobe Illustrator 19.2.1, SVG Export Plug-In . SVG Version: 6.00 Build 0)  -->
<svg version="1.1" id="Слой_1" xmlns="http://www.w3.org/2000/svg" xmlns:xlink="http://www.w3.org/1999/xlink" x="0px" y="0px"
	 viewBox="0 0 60 60" style="enable-background:new 0 0 60 60;" xml:space="preserve">
<style type="text/css">
	.st0{fill-rule:evenodd;clip-rule:evenodd;fill:#4B4B4B;}
</style>
<path class="st0" d="M47,52v8h-1h-1H15h-1h-1v-8H3v-1l0,0l0,0v-1h0c0.5-12.5,9.4-22.8,21.2-25.4C19.9,22.5,17,18.1,17,13
	c0-1,0.1-2,0.4-3H15V8h2V4c0-2.2,1.8-4,4-4h18c2.2,0,4,1.8,4,4v4h2v2h-2.4c0.2,1,0.4,2,0.4,3c0,5.1-2.9,9.5-7.2,11.6
	C47.6,27.2,56.5,37.5,57,50h0v2H47z M45,58V39H35v6v2h-2h-6h-2v-2v-6H15v19H45z M33,39h-6v6h6V39z M41,4c0-1.1-0.9-2-2-2H21
	c-1.1,0-2,0.9-2,2v4h1.2h19.6H41V4z M41,13c0-1-0.2-2-0.4-3H19.4c-0.3,1-0.4,2-0.4,3c0,6.1,4.9,11,11,11l0,0l0,0
	C36.1,24,41,19.1,41,13z M30,26C16.5,26,5.6,36.7,5.1,50H13V37h1h1h10h2h6h2h10h1h1v13h7.9C54.4,36.7,43.5,26,30,26z"/>
</svg>
