<?xml version="1.0" encoding="utf-8"?>
<!-- Generator: Adobe Illustrator 19.2.1, SVG Export Plug-In . SVG Version: 6.00 Build 0)  -->
<svg version="1.1" id="Слой_1" xmlns="http://www.w3.org/2000/svg" xmlns:xlink="http://www.w3.org/1999/xlink" x="0px" y="0px"
	 viewBox="0 0 60 60" style="enable-background:new 0 0 60 60;" xml:space="preserve">
<style type="text/css">
	.st0{fill-rule:evenodd;clip-rule:evenodd;fill:#4B4B4B;}
</style>
<path class="st0" d="M57,58h-1H38h-2H4H3H2V30v-2h16v-3H7c-1.1,0-2-0.9-2-2V3c0-1.1,0.9-2,2-2h28c1.1,0,2,0.9,2,2v17l0,0l0,0v3
	c0,1.1-0.9,2-2,2H25v3h15v-3v-2h2v-4h2h6h2v4h2v1v1v3h4v2v28H57z M35,3H7v16h28V3z M35,23v-2H7v2H35z M20,25v3h3v-3H20z M50,21h-6v2
	h6V21z M52,25h-2h-6h-2v3h10V25z M56,30H4v26h32v-6v-2v-6v-2v-6H6v-2h48v2H38v6h18V30z M56,42H38v6h18V42z M38,50v6h18v-6H38z
	 M47,54c-0.6,0-1-0.4-1-1s0.4-1,1-1s1,0.4,1,1S47.6,54,47,54z M47,44c0.6,0,1,0.4,1,1s-0.4,1-1,1s-1-0.4-1-1S46.4,44,47,44z M47,36
	c0.6,0,1,0.4,1,1s-0.4,1-1,1s-1-0.4-1-1S46.4,36,47,36z"/>
</svg>
