<?xml version="1.0" encoding="utf-8"?>
<!-- Generator: Adobe Illustrator 19.2.1, SVG Export Plug-In . SVG Version: 6.00 Build 0)  -->
<svg version="1.1" id="Слой_1" xmlns="http://www.w3.org/2000/svg" xmlns:xlink="http://www.w3.org/1999/xlink" x="0px" y="0px"
	 viewBox="0 0 162 60" style="enable-background:new 0 0 162 60;" xml:space="preserve">
<style type="text/css">
	.st0{fill:#5e5e5e;}
	.st1{fill-rule:evenodd;clip-rule:evenodd;fill:#5e5e5e;}
	.st2{fill:#5e5e5e;stroke:#5e5e5e;stroke-miterlimit:10;}
</style>
<g>
	<g>
		<path class="st0" d="M112.4,21.6c-0.6-5.7-5.8-10-12.1-10c-6.7,0-12.4,5-12.4,11.3c0,7.2,4.6,12,12.5,12c2.8,0,4.9-0.8,4.9-0.8
			c3.8-1.4,6.6-4.4,6.9-7.5H104c-0.3,1.5-2.1,2.5-3.6,2.5c-2.3,0-3.9-2-3.9-4h16C112.5,24.2,112.6,23,112.4,21.6z M96.5,20.2
			c0.3-1.5,1.8-2.8,3.6-2.8c1.8,0,3.6,1.5,3.9,2.8H96.5z"/>
	</g>
	<g>
		<path class="st1" d="M140.1,35V12.1h8.3v6.5h4.1c3.9,0,6.5,1.9,7.8,4.5c1.2,2.4,1,5.3-0.5,7.5c-1.2,1.8-4.7,4.3-10,4.3H140.1z
			 M112.9,35v-7c0.8,0.5,1.3,0.5,2.1,0.5c1.5,0,2.1-1.5,2.1-3.5V12.1h20.7V35h-8.3V18.1h-4.7v4.8c0,4.8-0.7,10.5-5.1,12
			C115.8,36.3,112.9,35,112.9,35z M61.5,20.9c0-9.1,3.9-16.3,12.7-16.6c2.4-0.1,5.5,0.2,7-2h5.2c-0.8,4-3.8,7.9-9,7.8
			c-1.6,0-3.3,0-4.7,0.6c-1.3,0.8-2.4,2.1-2.8,3.4H70c2-2.2,6.5-2.4,9.1-1.5c4.5,1.4,7.5,5.9,7.5,10.8C86.4,28.9,82.5,35,74.5,35
			C69.4,35,61.8,31.7,61.5,20.9z M36.2,22.9c0-6.3,5.7-11.3,12.4-11.3c6.3,0,11.5,4.2,12.1,10c0.1,1.4,0.1,2.6,0.1,3.6h-16
			c0,2,1.6,4,3.9,4c1.5,0,3.4-1,3.6-2.5h8.3c-0.2,3.1-3.1,6.2-6.9,7.5c0,0-2.1,0.8-4.9,0.8C40.8,35,36.1,30.2,36.2,22.9z M1,35V2.3
			h10.9l5.9,21.9h0.3l6.2-21.9h10.9V35h-8.8V18.6h-0.3L21.5,35h-7.3L9.8,18.6V35 M48.3,17.4c-1.8,0-3.4,1.3-3.6,2.8h7.5
			C51.9,18.9,50.1,17.4,48.3,17.4L48.3,17.4z M74.1,18.9c-2.6,0-4.1,2-4.1,4.5c0,2.8,1.6,4.8,4.1,4.8c2.3,0,4.1-2,4.1-4.8
			C78.3,20.9,76.5,18.9,74.1,18.9L74.1,18.9z M148.3,24.4v4.3h2.1c0.9,0,2.1-1,2.1-2.3c0-1-0.8-2-2.1-2H148.3z"/>
	</g>
	<path class="st1" d="M79.3,34.3"/>
	<path class="st1" d="M21.5,35"/>
	<path class="st1" d="M129.5,34.2"/>
	<g>
		<g>
			<polygon class="st2" points="100.9,46.9 100.8,46.9 102.9,38.5 98.6,38.5 95.4,52.7 99.6,52.7 106.8,44.2 105,52.7 109.1,52.7 
				112.4,38.5 108.1,38.5 			"/>
			<path class="st2" d="M89.4,38.2c-4.6,0-8.1,3.4-9,7.4c-0.2,0.6-0.2,1.2-0.3,1.7v0.8c0.2,3,2.2,5.1,6.1,5.1c3.7,0,7.2-1.7,8.4-5.8
				h-4.2c-0.8,1.5-2.1,2.5-3.6,2.5c-2.6,0-2.5-2.2-1.9-4.2c0.5-1.9,1.6-4.1,3.8-4.1c1.6,0,2.5,0.7,2.4,2.6h4.3
				C95.7,40.2,93.4,38.2,89.4,38.2z"/>
			<polygon class="st2" points="140.6,38.5 133.5,46.9 133.4,46.9 135.4,38.5 131.1,38.5 128.7,49.1 127.9,52.7 128.7,52.7 
				132.2,52.7 139.4,44.2 137.5,52.7 141.7,52.7 145,38.5 			"/>
			<polygon class="st2" points="127.4,41.8 128.1,38.5 127.3,38.5 115.4,38.5 114.7,41.8 118.9,41.8 116.5,52.7 120.7,52.7 
				123.1,41.8 127.3,41.8 			"/>
		</g>
		<polygon class="st2" points="127.9,52.7 128.7,52.7 128.7,49.1 		"/>
	</g>
</g>
</svg>
