<svg xmlns="http://www.w3.org/2000/svg" viewBox="0 0 149.5 17.6"><g fill-rule="evenodd" clip-rule="evenodd"><path fill="#B6272E" d="M0 0h16.8v17H0z"/><path fill="#FFF" d="M13.6 6.9H10V3.2H6.8v3.7H3.2v3.2h3.6v3.7H10v-3.7h3.6zm9.8 4v4.8h2.2v-4.8h.8v4.8h2.2v-4.8h.9v5.5h-6.9v-5.5zm8.3 4.8h1.7c.8 0 1.1-.3 1.1-.9 0-.6-.4-.9-1.1-.9h-1.7v1.8zm0-2.5h1.6c.6 0 .9-.3.9-.8s-.3-.8-1.1-.8h-1.4v1.6zm1.4-2.3c1.2 0 1.9.6 1.9 1.4 0 .5-.2.9-.6 1.1v.1c.6.2.9.7.9 1.3 0 .9-.6 1.6-2 1.6h-2.5v-5.5h2.3zm7.2 0v.7h-3.1v1.6H40v.7h-2.8v1.8h3.3v.7h-4.1v-5.5zm3.1-2c0 .4.3.6.6.6s.6-.2.7-.6h.6c0 .7-.5 1.3-1.3 1.3s-1.3-.5-1.3-1.3h.7zm-.9 2v4.3l3.2-4.3h.8v5.5h-.8v-4.1l-3.1 4.1h-.8v-5.5h.7zm6.1 0v4.8h2.8v-4.8h.8v4.8h.8v1.9h-.7l-.1-1.2h-4.5v-5.5zm6.8 3.5h2.2l-1.1-2.7h-.1l-1 2.7zm1.6-3.5l2.3 5.5h-.9l-.5-1.2h-2.8l-.5 1.2h-.9l2.3-5.5h1zm4.2 3.1h1.4c.8 0 1.4-.5 1.4-1.2s-.5-1.2-1.3-1.2h-1.4V14h-.1zm1.5-3.1c1.2 0 2.1.8 2.1 1.9 0 1.2-1 1.9-2.2 1.9h-1.4v1.7h-.8v-5.5h2.3zm7.5 1.2c-.5-.4-1-.6-1.7-.6-1.3 0-2.1.8-2.1 2.1s.9 2.1 2.1 2.1c.7 0 1.3-.2 1.8-.7l.5.6c-.6.6-1.3.9-2.3.9-1.7 0-2.9-1.1-2.9-2.9 0-1.6 1.2-2.9 3-2.9.8 0 1.5.3 2 .7l-.4.7zm2.4-1.2v2.3l.9-.1 1.8-2.2h1l-2.1 2.6 2.3 2.9h-1l-2-2.5h-.9v2.5h-.8v-5.5zm5.7 0v4.3l3.2-4.3h.8v5.5h-.9v-4.1l-3.1 4.1h-.8v-5.5zm9.3 0v.7h-3.2v1.6h2.8v.7h-2.8v1.8h3.3v.7h-4.1v-5.5zm8.3 0v.8h-2v4.7h-.8v-4.7h-2v-.8zm5.1 0v.7h-3.2v1.6h2.8v.7h-2.8v1.8h3.3v.7H97v-5.5zm2.1 0l1.4 2.2h.1l1.4-2.2h1l-1.8 2.7 2 2.8h-1.1l-1.5-2.3h-.1l-1.6 2.3h-1l2-2.9-1.8-2.6zm5.8 0v2.3h3v-2.3h.8v5.5h-.8V14h-3v2.4h-.8v-5.5zm5.8 2.8c0 1.2.8 2.1 2.1 2.1s2.1-.9 2.1-2.1c0-1.2-.8-2.1-2.1-2.1-1.3-.1-2.1.9-2.1 2.1zm4.9 0c0 1.6-1.2 2.9-2.9 2.9s-2.9-1.3-2.9-2.9c0-1.6 1.2-2.9 2.9-2.9 1.8 0 2.9 1.2 2.9 2.9zm6-2.8v5.5h-.8v-4.8h-2.2c0 2-.1 3.6-.6 4.3-.3.3-.6.5-1.1.5-.3 0-.5 0-.7-.1l.2-.7c.1 0 .3.1.4.1.2 0 .4-.1.6-.4.3-.6.4-1.8.4-3.6v-.9h3.8zm1.9 2.8c0 1.2.8 2.1 2.1 2.1s2.1-.9 2.1-2.1c0-1.2-.8-2.1-2.1-2.1-1.3-.1-2.1.9-2.1 2.1zm5 0c0 1.6-1.2 2.9-2.9 2.9s-2.9-1.3-2.9-2.9c0-1.6 1.2-2.9 2.9-2.9s2.9 1.2 2.9 2.9zm5.1-2.8v.8h-3.1v4.7h-.9v-5.5zm1.8 0v4.3l3.2-4.3h.8v5.5h-.9v-4.1l-3.1 4.1h-.8v-5.5zm6.1 0v4.3l3.2-4.3h.8v5.5h-.9v-4.1l-3.1 4.1h-.8v-5.5zM25.8 2.1c-.4-.3-1-.5-1.6-.5-.9 0-1.3.3-1.3.8s.3.7 1 .8l.8.1c1.1.2 1.7.7 1.7 1.6 0 1-.8 1.7-2.3 1.7-.9 0-1.5-.2-2.2-.6l.4-.7c.6.4 1.2.6 1.8.6.9 0 1.4-.4 1.4-.9s-.3-.8-1-.9l-.9-.1c-1-.1-1.6-.6-1.6-1.5 0-1 .8-1.6 2.1-1.6.8 0 1.5.2 2.1.6l-.4.6zM27.9 1l1.2 4.5h.1l1.2-4.2h.8l1.2 4.2h.1L33.8 1h.9L33 6.5h-1.1l-1.1-3.7-1.1 3.7h-1.1L27 1zm7.8 0h.8v5.5h-.8zm5.8 1.1c-.4-.3-1-.5-1.6-.5-.9 0-1.3.3-1.3.8s.3.7 1 .8l.8.1c1.1.2 1.7.7 1.7 1.6 0 1-.8 1.7-2.3 1.7-.9 0-1.5-.2-2.2-.6l.4-.7c.6.4 1.2.6 1.8.6.9 0 1.4-.4 1.4-.9s-.3-.8-1-.9l-.8-.1c-1-.1-1.6-.6-1.6-1.5 0-1 .8-1.6 2.1-1.6.8 0 1.5.2 2.1.6l-.5.6zm5.3 0c-.4-.3-1-.5-1.6-.5-.9 0-1.3.3-1.3.8s.3.7 1 .8l.8.1c1.1.2 1.7.7 1.7 1.6 0 1-.8 1.7-2.3 1.7-.9 0-1.5-.2-2.2-.6l.4-.7c.6.4 1.2.6 1.8.6.9 0 1.4-.4 1.4-.9s-.3-.8-1-.9l-.8-.1c-1-.1-1.6-.6-1.6-1.5 0-1 .8-1.6 2.1-1.6.8 0 1.5.2 2.1.6l-.5.6zM55.6 1v.7h-2.1v4.8h-.8V1.7h-2V1zm5 0v.7h-3.1v1.6h2.7V4h-2.7v1.8h3.2v.7h-4.1V1zm5.6 1.2c-.5-.4-1-.6-1.7-.6-1.3 0-2.1.8-2.1 2.1s.9 2.1 2.1 2.1c.7 0 1.3-.2 1.8-.7l.5.6c-.6.6-1.3.9-2.3.9-1.7 0-2.9-1.1-2.9-2.9 0-1.6 1.2-2.9 3-2.9.8 0 1.5.3 2 .7l-.4.7zM68.6 1v2.3h3V1h.8v5.5h-.8V4.1h-3v2.4h-.8V1zm10 0v5.5h-.8l-3.2-4.2v4.2h-.8V1h.8l3.2 4.3V1zm2 2.7c0 1.2.8 2.1 2.1 2.1s2.1-.9 2.1-2.1c0-1.2-.8-2.1-2.1-2.1-1.4 0-2.1.9-2.1 2.1zm4.9 0c0 1.6-1.2 2.9-2.9 2.9s-2.9-1.3-2.9-2.9c0-1.6 1.2-2.9 2.9-2.9 1.8.1 2.9 1.3 2.9 2.9zm2-2.7v4.8h3.2v.7h-4.1V1zm4.7 2.7c0 1.2.8 2.1 2.1 2.1s2.1-.9 2.1-2.1c0-1.2-.8-2.1-2.1-2.1-1.4 0-2.1.9-2.1 2.1zm4.9 0c0 1.6-1.2 2.9-2.9 2.9s-2.9-1.3-2.9-2.9c0-1.6 1.2-2.9 2.9-2.9 1.7.1 2.9 1.3 2.9 2.9zm6.1-.2v2.3c-.6.5-1.4.8-2.2.8-1.7 0-2.9-1.1-2.9-2.9 0-1.6 1.1-2.9 3-2.9.7 0 1.5.2 2 .7l-.4.6c-.4-.4-1-.5-1.6-.5-1.3 0-2.1.8-2.1 2.1s.9 2.1 2.1 2.1c.6 0 1-.1 1.4-.4V4.3l-1.2-.1v-.7h1.9zm1.6-2.5l1.6 2.9h.1l1.6-2.9h1l-2.2 3.7v1.8h-.8V4.7L103.8 1z"/></g></svg>