<svg xmlns="http://www.w3.org/2000/svg" viewBox="0 0 90 90"><path d="M89 13.6L76.4 1c-1.4-1.4-3.6-1.4-5 0L47.7 24.7 24.4 1.5c-2-2-5.2-2-7.2 0L1.5 17.2c-2 2-2 5.2 0 7.2L4 26.9l11.5-11.5c.4-.4 1.2-.4 1.6 0 .4.4.4 1.2 0 1.6L5.6 28.5l4.8 4.8 7.5-7.5c.4-.4 1.2-.4 1.6 0 .4.4.4 1.2 0 1.6L12 34.9l4.8 4.8 7.5-7.5c.4-.4 1.2-.4 1.6 0 .4.4.4 1.2 0 1.6l-7.5 7.5 4.8 4.8 11.5-11.5c.4-.4 1.2-.4 1.6 0 .4.4.4 1 .1 1.5L2.5 69.9C1.1 71.3 0 74 0 75.9V90h14c1.9 0 4.7-1.1 6-2.5l69-68.9c1.3-1.4 1.3-3.6 0-5zM66.8 43.9l-.9.9-22 22 4.8 4.8 7.5-7.5c.4-.4 1.2-.4 1.6 0 .4.4.4 1.2 0 1.6l-7.5 7.5 4.8 4.8 7.5-7.5c.4-.4 1.2-.4 1.6 0 .4.4.4 1.2 0 1.6l-7.5 7.5 4.8 4.8L73 72.8c.4-.4 1.2-.4 1.6 0 .4.4.4 1.2 0 1.6L63.1 85.9l2.5 2.5c2 2 5.2 2 7.2 0l15.7-15.7c2-2 2-5.2 0-7.2L66.8 43.9z" fill="#FFF"/></svg>