<svg xmlns="http://www.w3.org/2000/svg" viewBox="0 0 95.4 72.5"><path d="M95.4 59.5v-5.6c0-2.2-1.7-4.2-3.9-4.4V38.1c0-4.3-3.5-7.8-7.8-7.8l-5-.9-9.2-13.9c-.2-.1-.3-.4-.4-.5-1.4-1.9-3.7-3.2-6.3-3.2H35.2l.7.7c1.4 1.3 1.6 3.4.6 5-.1.3-.3.5-.5.7l-4.7 4.7-10.7 10.7c-.7.8-1.7 1.2-2.8 1.2-1 0-2-.4-2.8-1.2l-5-5v21c-2 .5-3.4 2.3-3.4 4.3v5.6c0 2.5 2 4.4 4.4 4.4h6.3c1.4 5 6 8.6 11.5 8.6s10.1-3.7 11.5-8.6h22.2c1.4 5 6 8.6 11.5 8.6s10.1-3.7 11.5-8.6H91c2.5 0 4.4-2 4.4-4.4zm-60.6 1.1c0 3.2-2.6 6-6 6s-6-2.8-6-6 2.8-6 6-6c3.4 0 6 2.8 6 6zm45.2 0c0 3.2-2.8 6-6 6-3.4 0-6-2.8-6-6s2.8-6 6-6c3.3 0 6 2.8 6 6zM28.5 20.1L17.7 30.8l-5.2-5.2 6.5-6.5H0v-7.4h19l-1.8-1.8-4.7-4.7L17.7 0l4.7 4.7 5.5 5.5 3.9 3.9 1.3 1.3-4.6 4.7z"/></svg>