<svg xmlns="http://www.w3.org/2000/svg" viewBox="0 0 84 72"><path fill="#FFF" d="M4 .038c-2.2 0-4 1.8-4 4v50c0 2.2 1.8 4 4 4h76c2.2 0 4-1.8 4-4v-50c0-2.2-1.8-4-4-4H4zm46 10c2.2 0 4 1.8 4 4s-1.8 4-4 4c-1.5 0-2.7-.8-3.4-2H42v11h4.6c.7-1.2 2-2 3.4-2 2.2 0 4 1.8 4 4s-1.8 4-4 4c-1.5 0-2.7-.8-3.4-2H42v11h4.6c.7-1.2 2-2 3.4-2 2.2 0 4 1.8 4 4s-1.8 4-4 4c-1.5 0-2.7-.8-3.4-2H38v-15h-4.6c-.7 1.2-2 2-3.4 2-2.2 0-4-1.8-4-4s1.8-4 4-4c1.5 0 2.7.8 3.4 2H38v-15h8.6c.7-1.2 1.9-2 3.4-2zm-15 50v6h14v-6H35zm-5 8c-1.1 0-2 .9-2 2s.9 2 2 2h24c1.1 0 2-.9 2-2s-.9-2-2-2H30z"/></svg>