<svg xmlns="http://www.w3.org/2000/svg" viewBox="0 0 98.4 65.6"><path d="M0 32.8C0 15.7 9.2.2 28.1.2 47 .2 56.2 15.7 56.2 32.9c0 17.2-9.2 32.7-28.1 32.7C9.2 65.6 0 50 0 32.8zm36.9 0c0-10.7-2.8-15.8-8.8-15.8s-8.8 5-8.8 15.8 2.8 15.9 8.8 15.9 8.8-5.1 8.8-15.9zM58.2 9.3C58.2 4.1 62 0 67.8 0c5.9 0 9.7 4.1 9.7 9.3 0 5.2-3.8 9.2-9.7 9.2-5.8 0-9.6-4-9.6-9.2zm13.4 0c0-2.8-1.7-4.2-3.8-4.2-2.1 0-3.7 1.4-3.7 4.2 0 2.7 1.6 4.1 3.7 4.1 2.2 0 3.8-1.4 3.8-4.1zm-7.4 28.2L87.8.6h4.8L68.9 37.5h-4.7zM79.1 29c0-5.2 3.8-9.3 9.6-9.3 5.9 0 9.7 4.1 9.7 9.3 0 5.2-3.8 9.2-9.7 9.2-5.8 0-9.6-4.1-9.6-9.2zm13.4 0c0-2.8-1.7-4.2-3.8-4.2S85 26.2 85 29c0 2.7 1.6 4.1 3.7 4.1s3.8-1.4 3.8-4.1z"/></svg>