<svg xmlns="http://www.w3.org/2000/svg" viewBox="0 0 85.4 78.2"><path fill="#FFF" d="M78.1 16c-.6-1-1.3-2-2-2.9l2.1-3.8L78 9c-1.8-2-3.9-3.6-6.1-5l-.3-.2-3.1 2.9c-1.7-.9-3.5-1.6-5.3-2L62.6.4l-.3-.1C59.6 0 57-.1 54.4.1H54l-.8 4.2c-1.9.3-3.8.8-5.7 1.6l-2.9-3.1-.3.2c-.6.3-1.1.6-1.7.9-1.7 1-3.3 2.2-4.7 3.5l-.3.2 1.8 3.9c-1.4 1.4-2.6 3-3.5 4.7l-4.2-.8-.2.3c-1.2 2.3-2 4.8-2.5 7.4l-.1.4 3.8 2.1c-.2 1.8-.2 3.7 0 5.6L29 33l.1.4c.4 2.6 1.3 5.1 2.5 7.5l.2.3 4.3-.6c0 .1.1.1.1.2.9 1.5 1.9 2.8 2.9 4l-2 3.7.3.3c2 1.9 4.2 3.5 6.5 4.8l.3.2 3.2-3c1.4.6 2.9 1.1 4.5 1.5l.5 4.2.4.1c2.7.4 5.5.5 8.2.1h.3l.8-4.2c1.4-.3 2.9-.7 4.3-1.3l2.9 3.1.3-.2c.7-.3 1.3-.7 2-1.1 1.8-1 3.4-2.2 4.8-3.6l.3-.2-1.8-3.9c1-1.1 2-2.3 2.8-3.5l4.2.8.2-.3c1.3-2.4 2.3-5 2.9-7.7l.1-.4-3.7-2c.2-1.6.3-3.2.3-4.8l3.9-1.9v-.4c-.3-2.6-1-5.3-2.1-7.8l-.4-.3-4.2.5c-.2-.5-.5-1-.8-1.5zm-9.3 5.5c3.8 6.5 1.7 14.8-4.8 18.7-6.5 3.8-14.8 1.7-18.7-4.8-3.8-6.5-1.7-14.8 4.8-18.7 6.5-3.8 14.9-1.7 18.7 4.8z"/><path fill="#FFF" d="M39.1 53.1l-.1-.3h-2.9c-.4-1.2-1-2.4-1.6-3.5l1.8-2.4-.3-.3c-1.1-1.5-2.3-2.8-3.8-3.9l-.2-.2-2.4 1.7c-1.1-.8-2.3-1.4-3.6-1.9v-3l-.3-.1c-.4-.1-.9-.2-1.3-.4-1.3-.3-2.7-.5-4-.5h-.3l-.9 2.8c-1.3.1-2.7.3-4 .6l-1.7-2.4-.3.1c-1.7.6-3.3 1.5-4.8 2.5l-.3.2.9 3c-1 .8-1.9 1.7-2.6 2.7l-2.8-.9-.2.3c-1 1.5-1.8 3.2-2.4 5l-.1.3 2.4 1.8v.1c-.3 1.1-.4 2.3-.4 3.4l-2.9.8v.4c.1 1.9.4 3.8 1 5.6l.1.3h3c.4 1 .9 1.9 1.5 2.8L3.9 70l.1.3c1.2 1.5 2.5 2.9 4.1 4l.3.2 2.4-1.7c.8.5 1.7 1 2.7 1.4v3l.3.1c.5.2 1 .3 1.5.4 1.4.3 2.8.5 4.1.5h.3l.9-2.8c1 0 2-.2 3-.4l1.8 2.4.3-.1c1.8-.6 3.6-1.4 5.2-2.5l.3-.2-.9-2.8c.9-.7 1.6-1.4 2.4-2.2l2.9.9.2-.3c1.1-1.5 2.1-3.1 2.7-4.9l.1-.3-2.4-1.7c.1-.4.2-.7.3-1.1.2-.8.3-1.6.4-2.4l2.9-.9v-.6c0-1.8-.2-3.5-.7-5.2zM25 58.3c0 .4 0 .8-.1 1.2-.6 2.4-2.7 3.9-5 3.9-.4 0-.8 0-1.2-.1-2.4-.5-3.9-2.7-3.9-5 0-.4 0-.8.1-1.2.6-2.4 2.7-3.9 5-3.9.4 0 .8 0 1.2.1 2.3.5 3.9 2.7 3.9 5zm30.2-20.7c-.5 0-1-.2-1.4-.6-.8-.8-.8-2.1 0-2.8l5.7-5.7-5.7-5.7c-.8-.8-.8-2.1 0-2.8.8-.8 2.1-.8 2.8 0l8.6 8.6-8.6 8.4c-.4.4-.9.6-1.4.6z"/></svg>