<svg xmlns="http://www.w3.org/2000/svg" viewBox="0 0 67.7 95.2"><path d="M67.2 4.4c-.4-.4-.9-.6-1.4-.6h-6.2c0-.9.1-1.9.1-2.9 0-.5-.4-.9-.9-.9H9.1c-.5 0-.9.4-.9.9 0 1 0 1.9.1 2.9H2c-.5 0-1 .2-1.4.6-.4.4-.6.9-.6 1.4 0 .4.1 9.9 6.1 15.1 4.8 4.2 11.6 6.5 11.9 6.6.2.1 12.2 8.2 12.3 8.3v4.9c-1.2.8-2.7 2.4-5.3 5l-.5 2.8-3.5 2.1c-.5.4-.7 3.8-.7 3.8h27s-.2-3.4-.7-3.8l-3.2-2.1-.5-2.8c-2.7-2.5-4.3-4.1-5.4-5v-4.9s.1-.1.2-.1c4.2-2.5 8.3-5 11.8-8.3 1.2-.4 7.4-2.7 12-6.5 6.2-5.2 6.3-14.7 6.3-15.1-.1-.5-.3-1-.6-1.4zM8.8 17.9c-3.2-2.7-4.2-7.4-4.5-10h4.4c.7 5.3 2.2 9.4 4.2 12.9-1.5-.9-2.9-1.8-4.1-2.9zm50.1-.1c-1.1 1-2.4 1.8-3.7 2.5 1.9-3.4 3.3-7.4 4-12.5h4.4c-.4 2.7-1.5 7.3-4.7 10zm-7 71.5h-36c-1.6 0-2.9 1.3-2.9 2.9s1.3 2.9 2.9 2.9h36c1.6 0 2.9-1.3 2.9-2.9s-1.3-2.9-2.9-2.9zm-1.8-2.7c.6 0 1.1-.5 1.1-1.1v-27c0-.6-.5-1.1-1.1-1.1H17.7c-.6 0-1.1.5-1.1 1.1v27c0 .6.5 1.1 1.1 1.1h32.4zM27.3 69.2h4.9l1.5-4.7c0-.1.3-.1.3 0l1.5 4.7h4.9c.1 0 .1 0 .2.1 0 .1 0 .1-.1.2l-4 2.9 1.5 4.7c0 .1 0 .1-.1.2h-.2l-4-2.9-4 2.9h-.2c-.1 0-.1-.1-.1-.2l1.5-4.7-4-2.9c-.1 0-.1-.1-.1-.2s.4-.1.5-.1z" fill="#FFF"/></svg>