<svg id="Elements" xmlns="http://www.w3.org/2000/svg" viewBox="0 0 1479 925"><style>.st0{fill:#d3d3d3}</style><path class="st0" d="M11.5 693.3c1.4 0 2.5-1.1 2.5-2.5v-17.6c0-1.4-1.1-2.5-2.5-2.5S9 671.8 9 673.2v17.6c0 1.3 1.1 2.5 2.5 2.5z"/><path class="st0" d="M2.5 684h17.6c1.4 0 2.5-1.1 2.5-2.5s-1.1-2.5-2.5-2.5H2.5c-1.4 0-2.5 1.1-2.5 2.5s1.1 2.5 2.5 2.5zm268-22.5c1.4 0 2.5-1.1 2.5-2.5v-17.6c0-1.4-1.1-2.5-2.5-2.5s-2.5 1.1-2.5 2.5V659c0 1.3 1.1 2.5 2.5 2.5z"/><path class="st0" d="M261.5 653h17.6c1.4 0 2.5-1.1 2.5-2.5s-1.1-2.5-2.5-2.5h-17.6c-1.4 0-2.5 1.1-2.5 2.5s1.1 2.5 2.5 2.5zM55 925h252.9c1.4 0 2.5-1.1 2.5-2.5s-1.1-2.5-2.5-2.5H55c-1.4 0-2.5 1.1-2.5 2.5s1.1 2.5 2.5 2.5z"/><path class="st0" d="M54.5 732c1.4 0 2.5-1.1 2.5-2.5V610h248v119.5c0 1.4 1.1 2.5 2.5 2.5s2.5-1.1 2.5-2.5V605H52v124.5c0 1.4 1.1 2.5 2.5 2.5zm-20.7 6h295.3l-18.9 187H52.7L33.8 738zm289.8 5H39.3l17.9 177h248.4l18-177z"/><path class="st0" d="M26 727h310v16H26v-16zm305 5H31v6h300v-6z"/><path class="st0" d="M280.9 732c1.3 0 2.4-1 2.5-2.4v-1.4c0-43-35-78-78-78s-78 35-78 78v1.3c.1 1.4 1.2 2.5 2.6 2.4 1.4-.1 2.5-1.2 2.4-2.6v-1.1c0-40.3 32.8-73 73-73 40.3 0 73 32.8 73 73v1.1c-.1 1.4 1 2.5 2.4 2.6 0 .1 0 .1.1.1z"/><path class="st0" d="M259.2 709.4c.3 0 .6-.1.9-.2 1.3-.5 1.9-2 1.4-3.2-9.2-23.2-31.3-38.2-56.2-38.2-1.4 0-2.5 1.1-2.5 2.5s1.1 2.5 2.5 2.5c22.8 0 43.1 13.7 51.5 35 .5 1 1.4 1.6 2.4 1.6zm31.3-31.1c1.4 0 2.5-1.1 2.5-2.5v-45.2c0-1.4-1.1-2.5-2.5-2.5s-2.5 1.1-2.5 2.5v45.2c0 1.4 1.1 2.5 2.5 2.5zM68.2 621h204.3c1.4 0 2.5-1.1 2.5-2.5s-1.1-2.5-2.5-2.5H68.2c-1.4 0-2.5 1.1-2.5 2.5s1.1 2.5 2.5 2.5zM98 660.8c0-7.3 6.2-13.2 13.5-13.2s13.5 5.9 13.5 13.2V684H98v-23.2zm22 0c0-4.5-4-8.2-8.5-8.2s-8.5 3.7-8.5 8.2V679h17v-18.2z"/><path class="st0" d="M111.5 652.6c1.4 0 2.5-1.1 2.5-2.5v-31.9c0-1.4-1.1-2.5-2.5-2.5s-2.5 1.1-2.5 2.5v31.9c0 1.4 1.1 2.5 2.5 2.5zM63 658.7c0-7.4 7.2-13.4 16-13.4s16 6 16 13.4V690H63v-31.3zm27 0c0-4.6-5-8.4-11-8.4s-11 3.8-11 8.4V685h22v-26.3z"/><path class="st0" d="M78.5 650.3c1.4 0 2.5-1.1 2.5-2.5v-29.5c0-1.4-1.1-2.5-2.5-2.5s-2.5 1.1-2.5 2.5v29.5c0 1.4 1.1 2.5 2.5 2.5zm37 81.7c1.4 0 2.5-1.1 2.5-2.5v-30.1c0-1.4-1.1-2.5-2.5-2.5s-2.5 1.1-2.5 2.5v30.1c0 1.4 1.1 2.5 2.5 2.5zm-15 0c1.4 0 2.5-1.1 2.5-2.5v-30.1c0-1.4-1.1-2.5-2.5-2.5S98 698 98 699.4v30.1c0 1.4 1.1 2.5 2.5 2.5zm-14 0c1.4 0 2.5-1.1 2.5-2.5v-30.1c0-1.4-1.1-2.5-2.5-2.5S84 698 84 699.4v30.1c0 1.4 1.1 2.5 2.5 2.5zm192 52.1c1.4 0 2.5-1.1 2.5-2.5v-10.5c0-1.4-1.1-2.5-2.5-2.5s-2.5 1.1-2.5 2.5v10.5c0 1.4 1.1 2.5 2.5 2.5zm-195 0c1.4 0 2.5-1.1 2.5-2.5v-10.5c0-1.4-1.1-2.5-2.5-2.5s-2.5 1.1-2.5 2.5v10.5c0 1.4 1.1 2.5 2.5 2.5z"/><path class="st0" d="M84 779h194.9c1.4 0 2.5-1.1 2.5-2.5s-1.1-2.5-2.5-2.5H84c-1.4 0-2.5 1.1-2.5 2.5s1.1 2.5 2.5 2.5zm182.2 71.3c.6 0 1.3-.2 1.8-.7 1-1 1-2.6 0-3.5l-13.5-13.5c-1-1-2.6-1-3.5 0-1 1-1 2.6 0 3.5l13.5 13.5c.4.4 1.1.7 1.7.7zm6.3 30.7c.6 0 1.3-.2 1.8-.7 1-1 1-2.6 0-3.5l-53.1-53.1c-1-1-2.6-1-3.5 0-1 1-1 2.6 0 3.5l53.1 53.1c.4.5 1.1.7 1.7.7zm-31.6-9.7c.6 0 1.3-.2 1.8-.7 1-1 1-2.6 0-3.5l-7.2-7.2c-1-1-2.6-1-3.5 0-1 1-1 2.6 0 3.5l7.2 7.2c.4.5 1 .7 1.7.7zM48.4 860h50.2c1.4 0 2.5-1.1 2.5-2.5s-1.1-2.5-2.5-2.5H48.4c-1.4 0-2.5 1.1-2.5 2.5s1.1 2.5 2.5 2.5zm16.9 16h13.5c1.4 0 2.5-1.1 2.5-2.5s-1.1-2.5-2.5-2.5H65.3c-1.4 0-2.5 1.1-2.5 2.5s1.1 2.5 2.5 2.5zm-13.2 20h53c1.4 0 2.5-1.1 2.5-2.5s-1.1-2.5-2.5-2.5h-53c-1.4 0-2.5 1.1-2.5 2.5s1.1 2.5 2.5 2.5zM514 605h258v320H514V605zm253 5H519v310h248V610z"/><path class="st0" d="M543 743h200v143H543V743zm195 5H548v133h190V748zm-221.3-70h252.9c1.4 0 2.5-1.1 2.5-2.5s-1.1-2.5-2.5-2.5H516.7c-1.4 0-2.5 1.1-2.5 2.5s1.1 2.5 2.5 2.5zm224.8 40.6c1.4 0 2.5-1.1 2.5-2.5v-10.5c0-1.4-1.1-2.5-2.5-2.5s-2.5 1.1-2.5 2.5v10.5c0 1.4 1.1 2.5 2.5 2.5zm-195 0c1.4 0 2.5-1.1 2.5-2.5v-10.5c0-1.4-1.1-2.5-2.5-2.5s-2.5 1.1-2.5 2.5v10.5c0 1.4 1.1 2.5 2.5 2.5z"/><path class="st0" d="M546.5 713h194.9c1.4 0 2.5-1.1 2.5-2.5s-1.1-2.5-2.5-2.5H546.5c-1.4 0-2.5 1.1-2.5 2.5s1.1 2.5 2.5 2.5zm166.9 76.2c.6 0 1.3-.2 1.8-.7 1-1 1-2.6 0-3.5l-9.3-9.3c-1-1-2.6-1-3.5 0-1 1-1 2.6 0 3.5l9.3 9.3c.4.4 1 .7 1.7.7zm8.2 27.9c.6 0 1.3-.2 1.8-.7 1-1 1-2.6 0-3.5L682.5 772c-1-1-2.6-1-3.5 0-1 1-1 2.6 0 3.5l40.8 40.8c.5.6 1.1.8 1.8.8zm-24.6-6.7c.6 0 1.3-.2 1.8-.7 1-1 1-2.6 0-3.5l-10.9-10.9c-1-1-2.6-1-3.5 0-1 1-1 2.6 0 3.5l10.9 10.9c.4.5 1 .7 1.7.7zm-9-167.1c0 3.7-3 6.7-6.7 6.7h-77.7c-3.7 0-6.7-3-6.7-6.7v-9.7c0-3.7 3-6.7 6.7-6.7h77.7c3.7 0 6.7 3 6.7 6.7v9.7zm-5-9.6c0-.9-.7-1.7-1.7-1.7h-77.7c-.9 0-1.7.7-1.7 1.7v9.7c0 .9.7 1.7 1.7 1.7h77.7c.9 0 1.7-.7 1.7-1.7v-9.7zm23.2 5.8c0-10.2 8.3-18.4 18.4-18.4 10.2 0 18.4 8.3 18.4 18.4 0 10.2-8.3 18.4-18.4 18.4-10.1 0-18.4-8.3-18.4-18.4zm5 0c0 7.4 6 13.4 13.4 13.4s13.4-6 13.4-13.4-6-13.4-13.4-13.4c-7.3 0-13.4 6-13.4 13.4z"/><path class="st0" d="M731.8 642c1.4 0 2.5-1.1 2.5-2.5 0-5.3-4.3-9.6-9.6-9.6-1.4 0-2.5 1.1-2.5 2.5s1.1 2.5 2.5 2.5c2.6 0 4.6 2.1 4.6 4.6 0 1.4 1.1 2.5 2.5 2.5zm-188.7-2.5c0-10.2 8.3-18.4 18.4-18.4 10.2 0 18.4 8.3 18.4 18.4 0 10.2-8.3 18.4-18.4 18.4-10.1 0-18.4-8.3-18.4-18.4zm5 0c0 7.4 6 13.4 13.4 13.4s13.4-6 13.4-13.4-6-13.4-13.4-13.4c-7.3 0-13.4 6-13.4 13.4z"/><path class="st0" d="M568.7 642c1.4 0 2.5-1.1 2.5-2.5 0-5.3-4.3-9.6-9.6-9.6-1.4 0-2.5 1.1-2.5 2.5s1.1 2.5 2.5 2.5c2.6 0 4.6 2.1 4.6 4.6 0 1.4 1.1 2.5 2.5 2.5zm111.8 23.4c1.4 0 2.5-1.1 2.5-2.5v-2.6c0-1.4-1.1-2.5-2.5-2.5s-2.5 1.1-2.5 2.5v2.6c0 1.4 1.1 2.5 2.5 2.5zm-8 0c1.4 0 2.5-1.1 2.5-2.5v-2.6c0-1.4-1.1-2.5-2.5-2.5s-2.5 1.1-2.5 2.5v2.6c0 1.4 1.1 2.5 2.5 2.5zm-9 0c1.4 0 2.5-1.1 2.5-2.5v-2.6c0-1.4-1.1-2.5-2.5-2.5s-2.5 1.1-2.5 2.5v2.6c0 1.4 1.1 2.5 2.5 2.5zM371.9 311.8c.6 0 1.3-.2 1.7-.7 23.9-23.1 53.8-42.6 88.8-58.1 19.4-8.6 40.2-15.8 61.9-21.4 37.8-9.8 77.8-14.8 118.8-14.8s80.9 5 118.8 14.8c21.6 5.6 42.4 12.8 61.9 21.4 35 15.5 64.9 35 88.8 58.1 1 1 2.6.9 3.5-.1 1-1 .9-2.6-.1-3.5-24.3-23.5-54.7-43.3-90.2-59-19.7-8.7-40.8-16-62.6-21.7-38.2-9.9-78.6-15-120-15-41.4 0-81.8 5-120 15-21.9 5.7-43 13-62.6 21.7-35.5 15.7-65.9 35.6-90.2 59-1 1-1 2.5-.1 3.5.3.5 1 .8 1.6.8zM523.7 194h238.8c1.4 0 2.5-1.1 2.5-2.5s-1.1-2.5-2.5-2.5H523.7c-1.4 0-2.5 1.1-2.5 2.5s1.1 2.5 2.5 2.5z"/><path class="st0" d="M467.1 277h352.1c4.5 0 7.8-3.5 7.8-8v-18.3c0-1.4-1.1-2.5-2.5-2.5s-2.5 1.1-2.5 2.5V269c0 1.7-1.1 3-2.8 3H467.1c-1.7 0-3.1-1.3-3.1-3v-18.3c0-1.4-1.1-2.5-2.5-2.5s-2.5 1.1-2.5 2.5V269c0 4.5 3.6 8 8.1 8zm56.4-45.3c1.4 0 2.5-1.1 2.5-2.5V5h234v224.2c0 1.4 1.1 2.5 2.5 2.5s2.5-1.1 2.5-2.5V0H521v229.2c0 1.3 1.1 2.5 2.5 2.5zM690.2 248H739c1.4 0 2.5-1.1 2.5-2.5s-1.1-2.5-2.5-2.5h-48.8c-1.4 0-2.5 1.1-2.5 2.5s1.1 2.5 2.5 2.5zm-142.9 0H596c1.4 0 2.5-1.1 2.5-2.5s-1.1-2.5-2.5-2.5h-48.8c-1.4 0-2.5 1.1-2.5 2.5.1 1.4 1.2 2.5 2.6 2.5z"/><path class="st0" d="M625.2 245.8c0-9.9 8-17.9 17.9-17.9 9.9 0 17.9 8 17.9 17.9 0 9.9-8 17.9-17.9 17.9-9.9 0-17.9-8.1-17.9-17.9zm5 0c0 7.1 5.8 12.9 12.9 12.9 7.1 0 12.9-5.8 12.9-12.9s-5.8-12.9-12.9-12.9c-7.1-.1-12.9 5.7-12.9 12.9zM710 93.9c.6 0 1.3-.2 1.8-.7 1-1 1-2.6 0-3.5L696 73.9c-1-1-2.6-1-3.5 0-1 1-1 2.6 0 3.5l15.8 15.8c.4.5 1.1.7 1.7.7zm8.6 46.3c.6 0 1.3-.2 1.8-.7 1-1 1-2.6 0-3.5l-74.5-74.5c-1-1-2.6-1-3.5 0-1 1-1 2.6 0 3.5l74.5 74.5c.4.4 1 .7 1.7.7zm-48.8-10.3c.6 0 1.3-.2 1.8-.7 1-1 1-2.6 0-3.5l-18-18c-1-1-2.6-1-3.5 0-1 1-1 2.6 0 3.5l18 18c.4.4 1 .7 1.7.7zM523.7 119h54.6c1.4 0 2.5-1.1 2.5-2.5s-1.1-2.5-2.5-2.5h-54.6c-1.4 0-2.5 1.1-2.5 2.5s1.1 2.5 2.5 2.5zm0 15h54.6c1.4 0 2.5-1.1 2.5-2.5s-1.1-2.5-2.5-2.5h-54.6c-1.4 0-2.5 1.1-2.5 2.5s1.1 2.5 2.5 2.5zm0 16h54.6c1.4 0 2.5-1.1 2.5-2.5s-1.1-2.5-2.5-2.5h-54.6c-1.4 0-2.5 1.1-2.5 2.5s1.1 2.5 2.5 2.5zM307.9 925H1208V605H305v124.5c0 1.4 1.1 2.5 2.5 2.5s2.5-1.1 2.5-2.5V610h893v310H307.9c-1.4 0-2.5 1.1-2.5 2.5s1.1 2.5 2.5 2.5zM34 546h1174v49H34v-49zm1169 5H39v39h1164v-39zm-145.5-304.5c.2-21.3 3.8-37.4 11.3-50.8 7.1-12.6 17.9-23.2 34.8-34.2l.6-.4h22.3l.6.4c16.9 11.1 27.7 21.6 34.8 34.2 7.6 13.4 11.2 29.5 11.3 50.8v2.5h-115.8l.1-2.5zm67.6-80.5h-19.4c-30.9 20-42.4 41-43.2 78h105.7c-.7-37-12.2-58-43.1-78z"/><path class="st0" d="M1115.5 166c1.4 0 2.5-1.1 2.5-2.5V16.9c0-1.4-1.1-2.5-2.5-2.5s-2.5 1.1-2.5 2.5v146.7c0 1.3 1.1 2.4 2.5 2.4z"/><path class="st0" d="M1094.4 0h41.9l-3.9 19h-34.2l-3.8-19zm35.8 5h-29.7l1.8 9h26l1.9-9zm-14.8 256.4c7.8 0 14.2-6.4 14.2-14.2v-.8c-.1-1.4-1.3-2.4-2.7-2.3-1.4.1-2.4 1.3-2.3 2.7v.5c0 5.1-4.1 9.2-9.2 9.2s-9.2-4.1-9.2-9.2v-.5c.1-1.4-1-2.6-2.3-2.7-1.4-.1-2.6 1-2.7 2.3v.8c0 7.8 6.3 14.2 14.2 14.2zm6.6-57.4h40.2c1.4 0 2.5-1.1 2.5-2.5s-1.1-2.5-2.5-2.5H1122c-1.4 0-2.5 1.1-2.5 2.5s1.1 2.5 2.5 2.5zm0 11h44.3c1.4 0 2.5-1.1 2.5-2.5s-1.1-2.5-2.5-2.5H1122c-1.4 0-2.5 1.1-2.5 2.5s1.1 2.5 2.5 2.5zm0 10h46.8c1.4 0 2.5-1.1 2.5-2.5s-1.1-2.5-2.5-2.5H1122c-1.4 0-2.5 1.1-2.5 2.5s1.1 2.5 2.5 2.5zM988.5 924.9c1.4 0 2.5-1.1 2.5-2.5V607.2c0-1.4-1.1-2.5-2.5-2.5s-2.5 1.1-2.5 2.5v315.2c0 1.4 1.1 2.5 2.5 2.5zm163-110.1c1.4 0 2.5-1.1 2.5-2.5V679.6c0-1.4-1.1-2.5-2.5-2.5s-2.5 1.1-2.5 2.5v132.7c0 1.4 1.1 2.5 2.5 2.5zm-685 0c1.4 0 2.5-1.1 2.5-2.5V679.6c0-1.4-1.1-2.5-2.5-2.5s-2.5 1.1-2.5 2.5v132.7c0 1.4 1.1 2.5 2.5 2.5z"/><path class="st0" d="M769.6 678h218.9c1.4 0 2.5-1.1 2.5-2.5s-1.1-2.5-2.5-2.5H769.6c-1.4 0-2.5 1.1-2.5 2.5s1.1 2.5 2.5 2.5zm0 107h218.9c1.4 0 2.5-1.1 2.5-2.5s-1.1-2.5-2.5-2.5H769.6c-1.4 0-2.5 1.1-2.5 2.5s1.1 2.5 2.5 2.5zm46.3-148H942c1.4 0 2.5-1.1 2.5-2.5s-1.1-2.5-2.5-2.5H815.9c-1.4 0-2.5 1.1-2.5 2.5s1.2 2.5 2.5 2.5zm0 173H942c1.4 0 2.5-1.1 2.5-2.5s-1.1-2.5-2.5-2.5H815.9c-1.4 0-2.5 1.1-2.5 2.5s1.2 2.5 2.5 2.5zm0-101H942c1.4 0 2.5-1.1 2.5-2.5s-1.1-2.5-2.5-2.5H815.9c-1.4 0-2.5 1.1-2.5 2.5s1.2 2.5 2.5 2.5zM493 511h300v25H493v-25zm295 5H498v15h290v-15zm430-221h261v630h-261V295zm256 5h-251v620h251V300z"/><path class="st0" d="M1441.5 424.1c1.4 0 2.5-1.1 2.5-2.5v-73.8c0-1.4-1.1-2.5-2.5-2.5s-2.5 1.1-2.5 2.5v73.8c0 1.4 1.1 2.5 2.5 2.5zm0 308.2c1.4 0 2.5-1.1 2.5-2.5V558.6c0-1.4-1.1-2.5-2.5-2.5s-2.5 1.1-2.5 2.5v171.2c0 1.4 1.1 2.5 2.5 2.5zM1220.3 503h256c1.4 0 2.5-1.1 2.5-2.5s-1.1-2.5-2.5-2.5h-256c-1.4 0-2.5 1.1-2.5 2.5s1.1 2.5 2.5 2.5zm88.2-108c.6 0 1.3-.2 1.8-.7 1-1 1-2.6 0-3.5l-10.7-10.7c-1-1-2.6-1-3.5 0-1 1-1 2.6 0 3.5l10.7 10.7c.4.5 1.1.7 1.7.7zm11.2 45.9c.6 0 1.3-.2 1.8-.7 1-1 1-2.6 0-3.5l-52.5-52.5c-1-1-2.6-1-3.5 0-1 1-1 2.6 0 3.5l52.5 52.5c.5.4 1.1.7 1.7.7zm-34.6 0c.6 0 1.3-.2 1.8-.7 1-1 1-2.6 0-3.5l-11.2-11.2c-1-1-2.6-1-3.5 0-1 1-1 2.6 0 3.5l11.2 11.2c.4.4 1 .7 1.7.7z"/></svg>