<svg xmlns="http://www.w3.org/2000/svg" viewBox="0 0 17.1 13.5"><path fill="none" stroke="#0D1413" stroke-width=".705" stroke-miterlimit="10" d="M2.8 6l4.1-2M2.1 6c1 0 1.7 1.3 1.7 1.9C3.8 8.5 3 9 2.1 9 1.1 9 .4 8.5.4 7.9c0-.6.7-1.9 1.7-1.9zM7 11.8L2.3 8.9M14.9 8.9c-4.5 2.8 0 0-4.7 2.9M10.3 4l4.2 2.1M2 4c.4 0 .8.4.8.8v.4c0 .4-.4.8-.8.8s-.8-.4-.8-.8v-.4c0-.4.4-.8.8-.8zM8.7 2.3c1 0 1.7 1.2 1.7 1.8s-.8 1.1-1.7 1.1c-1 0-1.7-.5-1.7-1.1s.7-1.8 1.7-1.8z"/><path fill="none" stroke="#0D1413" stroke-width=".705" stroke-miterlimit="10" d="M8.6.4c.5 0 .8.3.8.8v.3c0 .5-.4.8-.8.8-.5 0-.8-.4-.8-.8v-.4c0-.4.3-.7.8-.7zM8.7 10.2c1 0 1.7 1.3 1.7 1.9s-.8 1.1-1.7 1.1c-1 0-1.7-.5-1.7-1.1s.7-1.9 1.7-1.9zM8.6 8.2c.4 0 .8.4.8.8v.3c0 .4-.4.8-.8.8-.5 0-.8-.4-.8-.8V9c0-.4.3-.8.8-.8zM15 6c1 0 1.7 1.3 1.7 1.9 0 .6-.8 1.1-1.7 1.1-1 0-1.7-.5-1.7-1.1 0-.6.8-1.9 1.7-1.9zM15 4c.5 0 .8.4.8.8v.4c-.1.4-.4.8-.8.8-.5 0-.8-.4-.8-.8v-.4c-.1-.4.3-.8.8-.8z"/></svg>