<svg xmlns="http://www.w3.org/2000/svg" viewBox="0 0 47.2 20.5"><path fill="none" stroke="#272929" stroke-width=".6" stroke-miterlimit="10" d="M36.4 5.8c1.5 0 2.7 1.2 2.7 2.7v1.1c0 1.5-1.2 2.7-2.7 2.7-1.5 0-2.7-1.2-2.7-2.7V8.5c0-1.5 1.3-2.7 2.7-2.7zM39.6 13.3c1.7 1.1 2.9 3 2.9 5.1m-.1 0v1.8m0 0h-5.3m.1 0h-6.7v-1.8c0-3.3 2.7-6 6-6 1.2 0 2.2.3 3.1.9M10.7 5.8c1.5 0 2.7 1.2 2.7 2.7v1.1c0 1.5-1.2 2.7-2.7 2.7-1.5 0-2.7-1.2-2.7-2.7V8.5c.1-1.5 1.3-2.7 2.7-2.7zM13.9 13.3c1.7 1.1 2.9 3 2.9 5.1m-.1 0v1.8m0 0h-5.3m.1 0H4.8v-1.8c0-3.3 2.7-6 6-6 1.2 0 2.2.3 3.1.9M23.5.3c2 0 3.7 1.7 3.7 3.7v1.6c0 2-1.7 3.7-3.7 3.7-2.1 0-3.7-1.7-3.7-3.7V4C19.7 2 21.4.3 23.5.3z"/><path fill-rule="evenodd" clip-rule="evenodd" fill="#FFF" stroke="#272929" stroke-width=".6" stroke-miterlimit="10" d="M23.5 9.5c4.5 0 8.3 3.7 8.3 8.3v2.5H15.2v-2.5c0-4.6 3.7-8.3 8.3-8.3z"/><path fill="none" stroke="#272929" stroke-width=".6" stroke-miterlimit="10" d="M20.3 10l3 3.6M26.8 10l-3.1 3.6M23.5 13.4V20"/><path fill="none" stroke="#272929" stroke-width=".6" stroke-linecap="round" stroke-miterlimit="10" d="M4.8 20.2H.3M46.9 20.2h-4.5"/></svg>