<svg xmlns="http://www.w3.org/2000/svg" viewBox="0 0 19.7 12.3"><path fill="none" stroke="#0D1413" stroke-width=".734" stroke-miterlimit="10" d="M9 11.9c0-1.4-2-4.5-4.3-4.5C2.3 7.4.4 10.5.4 12H9zM4.6 2.3c1.1 0 2 .9 2 2v.9c0 1.1-.9 2-2 2s-2-.9-2-2v-1c.1-1.1 1-1.9 2-1.9zM11.8 3.9h6.5c.5 0 1 .5 1 1v3.4c0 .5-.4 1-1 1h-6.5c-.5 0-1-.4-1-1V4.9c.1-.6.5-1 1-1z"/><path fill="none" stroke="#0D1413" stroke-width=".734" stroke-linecap="round" stroke-miterlimit="10" d="M12.7 5.6h4.5M12.7 7.2h2.8"/><path fill="none" stroke="#0D1413" stroke-width=".734" stroke-miterlimit="10" d="M1.2 3.2C1.6 1.6 3 .4 4.6.4c1.7 0 3.1 1.2 3.5 2.8"/></svg>