<svg xmlns="http://www.w3.org/2000/svg" viewBox="0 0 16.9 12.4"><path fill="none" stroke="#0D1413" stroke-width=".734" stroke-linecap="round" stroke-miterlimit="10" d="M8.1 2.6c.6 0 1.1-.5 1.1-1.1C9.2.9 8.7.4 8.1.4 7.5.4 7 .9 7 1.5c0 .6.5 1.1 1.1 1.1zM11.1 6.7c-.7.9-1.9 1.5-3.1 1.5s-2.3-.6-3-1.6M8.1 2.3V8M6.4 4.2h3.3"/><path fill="none" stroke="#0F1412" stroke-width=".79" stroke-linecap="round" stroke-miterlimit="10" d="M3.6 11.6c-.5 0-1 .4-1.6.4-.5 0-1.1-.5-1.6-.5M10.1 11.6c-.5 0-1.1.4-1.6.4s-1.1-.5-1.6-.5-1.1.5-1.7.5-1.1-.5-1.6-.5M16.6 11.6c-.5 0-1.1.5-1.6.5s-1.1-.5-1.6-.5-1.1.5-1.6.5-1.1-.5-1.6-.5"/></svg>