<svg xmlns="http://www.w3.org/2000/svg" viewBox="0 0 325.7 84"><path fill-rule="evenodd" clip-rule="evenodd" fill="#DEDEE5" stroke="#1E1E1E" stroke-width=".709" stroke-miterlimit="10" d="M292.5 55.5H19.4v5.6H94v.1l6.6 6.9h110.7l6.6-6.9v-.1h74.6z"/><path fill-rule="evenodd" clip-rule="evenodd" fill="#9BA6D5" stroke="#1E1E1E" stroke-width=".709" stroke-miterlimit="10" d="M19.5.4h272.9v55.2H19.5z"/><path fill-rule="evenodd" clip-rule="evenodd" fill="#9D938F" stroke="#1E1E1E" stroke-width=".709" stroke-miterlimit="10" d="M38.4 82.8c5.1 0 9.2-4.2 9.2-9.3 0-5.1-4.1-9.2-9.2-9.2s-9.3 4.2-9.3 9.2c0 5.1 4.2 9.3 9.3 9.3z"/><path fill-rule="evenodd" clip-rule="evenodd" fill="#D1D1D3" stroke="#1E1E1E" stroke-width=".709" stroke-miterlimit="10" d="M38.4 80.4c3.8 0 6.8-3.1 6.8-6.9 0-3.7-3.1-6.8-6.8-6.8s-6.8 3.1-6.8 6.8c0 3.8 3 6.9 6.8 6.9z"/><path fill-rule="evenodd" clip-rule="evenodd" fill="#9D938F" stroke="#1E1E1E" stroke-width=".709" stroke-miterlimit="10" d="M74.6 82.8c5.1 0 9.2-4.2 9.2-9.3 0-5.1-4.1-9.2-9.2-9.2s-9.3 4.2-9.3 9.2c0 5.1 4.2 9.3 9.3 9.3z"/><path fill-rule="evenodd" clip-rule="evenodd" fill="#D1D1D3" stroke="#1E1E1E" stroke-width=".709" stroke-miterlimit="10" d="M74.6 80.4c3.8 0 6.8-3.1 6.8-6.9 0-3.7-3.1-6.8-6.8-6.8s-6.8 3.1-6.8 6.8c-.1 3.8 3 6.9 6.8 6.9z"/><path fill-rule="evenodd" clip-rule="evenodd" fill="#C8C7C9" stroke="#1E1E1E" stroke-width=".709" stroke-miterlimit="10" d="M53.6 68.5H83.7v3.8H71.5c-4 0-7 2.2-8.3 6.1H49c-1.3-3.9-4.3-6.1-8.3-6.1H29.2v-3.8h24.4z"/><path fill-rule="evenodd" clip-rule="evenodd" fill="#FFF" stroke="#1E1E1E" stroke-width=".709" stroke-miterlimit="10" d="M38.4 76.4c1.6 0 2.9-1.3 2.9-2.9 0-1.6-1.3-2.9-2.9-2.9s-2.9 1.3-2.9 2.9c0 1.7 1.3 2.9 2.9 2.9zM74.6 76.4c1.6 0 2.9-1.3 2.9-2.9 0-1.6-1.3-2.9-2.9-2.9s-2.9 1.3-2.9 2.9c0 1.7 1.3 2.9 2.9 2.9z"/><path fill-rule="evenodd" clip-rule="evenodd" fill="#9D938F" stroke="#1E1E1E" stroke-width=".709" stroke-miterlimit="10" d="M49.9 66.9h4.8v8.3h-4.8z"/><path fill="none" stroke="#1E1E1E" stroke-width=".709" stroke-miterlimit="10" d="M49.9 73.7h4.8M49.9 72h4.8M49.9 70.3h4.8M49.9 68.5h4.8"/><path fill-rule="evenodd" clip-rule="evenodd" fill="#9D938F" stroke="#1E1E1E" stroke-width=".709" stroke-miterlimit="10" d="M57.2 66.9H62v8.3h-4.8z"/><path fill="none" stroke="#1E1E1E" stroke-width=".709" stroke-miterlimit="10" d="M57.2 73.7h4.9M57.2 72H62M57.2 70.3H62M57.2 68.5h4.9"/><path fill-rule="evenodd" clip-rule="evenodd" fill="#9D938F" stroke="#1E1E1E" stroke-width=".709" stroke-miterlimit="10" d="M46.8 64.9h18.9v3.6H46.8z"/><path fill="none" stroke="#1E1E1E" stroke-width=".709" stroke-miterlimit="10" d="M103.2 61.2h27.6M181.6 61.2h27.6"/><path fill-rule="evenodd" clip-rule="evenodd" fill="#9D938F" stroke="#1E1E1E" stroke-width=".709" stroke-miterlimit="10" d="M9.3 55.5h10.1v3.9H9.3zM4.6 53.5h4.7v8.2H4.6z"/><path fill="none" stroke="#1E1E1E" stroke-width=".709" stroke-miterlimit="10" d="M32.5 66.4l-4.6-5.3M80.8 66.4l4.5-5.3M31.8 7.1v41.7M43.6 7.1v41.7M55.4 7.1v41.7M67.2 7.1v41.7M79 7.1v41.7M90.9 7.1v41.7M102.7 7.1v41.7M114.5 7.1v41.7M126.3 7.1v41.7M138.1 7.1v41.7M150 7.1v41.7M161.8 7.1v41.7M173.6 7.1v41.7M185.5 7.1v41.7M197.3 7.1v41.7M209.1 7.1v41.7M220.9 7.1v41.7M232.7 7.1v41.7M244.6 7.1v41.7M256.4 7.1v41.7M268.2 7.1v41.7M280 7.1v41.7"/><path fill="none" stroke="#1E1E1E" stroke-width=".709" stroke-linecap="round" stroke-miterlimit="10" d="M.4 83.6l325-.3"/><path fill-rule="evenodd" clip-rule="evenodd" fill="#9D938F" stroke="#1E1E1E" stroke-width=".709" stroke-miterlimit="10" d="M273.5 82.8c5.1 0 9.3-4.2 9.3-9.3 0-5.1-4.2-9.2-9.3-9.2s-9.2 4.2-9.2 9.2c0 5.1 4.1 9.3 9.2 9.3z"/><path fill-rule="evenodd" clip-rule="evenodd" fill="#D1D1D3" stroke="#1E1E1E" stroke-width=".709" stroke-miterlimit="10" d="M273.5 80.4c3.8 0 6.8-3.1 6.8-6.9 0-3.7-3.1-6.8-6.8-6.8s-6.8 3.1-6.8 6.8c0 3.8 3.1 6.9 6.8 6.9z"/><path fill-rule="evenodd" clip-rule="evenodd" fill="#9D938F" stroke="#1E1E1E" stroke-width=".709" stroke-miterlimit="10" d="M237.4 82.8c5.1 0 9.3-4.2 9.3-9.3 0-5.1-4.2-9.2-9.3-9.2-5.1 0-9.3 4.2-9.3 9.2 0 5.1 4.2 9.3 9.3 9.3z"/><path fill-rule="evenodd" clip-rule="evenodd" fill="#D1D1D3" stroke="#1E1E1E" stroke-width=".709" stroke-miterlimit="10" d="M237.4 80.4c3.8 0 6.8-3.1 6.8-6.9 0-3.7-3.1-6.8-6.8-6.8s-6.8 3.1-6.8 6.8c-.1 3.8 3 6.9 6.8 6.9z"/><path fill-rule="evenodd" clip-rule="evenodd" fill="#C8C7C9" stroke="#1E1E1E" stroke-width=".709" stroke-miterlimit="10" d="M258.4 68.5H228.3v3.8h12.3c4 0 7 2.2 8.3 6.1H263c1.3-3.9 4.3-6.1 8.3-6.1h11.5v-3.8h-24.4z"/><path fill-rule="evenodd" clip-rule="evenodd" fill="#FFF" stroke="#1E1E1E" stroke-width=".709" stroke-miterlimit="10" d="M273.5 76.4c1.6 0 2.9-1.3 2.9-2.9 0-1.6-1.3-2.9-2.9-2.9s-2.9 1.3-2.9 2.9c0 1.7 1.3 2.9 2.9 2.9zM237.4 76.4c1.6 0 2.9-1.3 2.9-2.9 0-1.6-1.3-2.9-2.9-2.9s-2.9 1.3-2.9 2.9c0 1.7 1.3 2.9 2.9 2.9z"/><path fill-rule="evenodd" clip-rule="evenodd" fill="#9D938F" stroke="#1E1E1E" stroke-width=".709" stroke-miterlimit="10" d="M257.2 66.9h4.8v8.3h-4.8z"/><path fill="none" stroke="#1E1E1E" stroke-width=".709" stroke-miterlimit="10" d="M262 73.7h-4.8M262 72h-4.8M262 70.3h-4.8M262 68.5h-4.8"/><path fill-rule="evenodd" clip-rule="evenodd" fill="#9D938F" stroke="#1E1E1E" stroke-width=".709" stroke-miterlimit="10" d="M249.9 66.9h4.8v8.3h-4.8z"/><path fill="none" stroke="#1E1E1E" stroke-width=".709" stroke-miterlimit="10" d="M254.7 73.7h-4.8M254.7 72h-4.8M254.7 70.3h-4.8M254.7 68.5h-4.8"/><path fill-rule="evenodd" clip-rule="evenodd" fill="#9D938F" stroke="#1E1E1E" stroke-width=".709" stroke-miterlimit="10" d="M246.2 64.9h18.9v3.6h-18.9zM292.5 55.5h10.1v3.9h-10.1zM302.6 53.5h4.7v8.2h-4.7z"/><path fill="none" stroke="#1E1E1E" stroke-width=".709" stroke-miterlimit="10" d="M279.5 66.4l4.5-5.3M231.2 66.4l-4.6-5.3"/></svg>