<svg xmlns="http://www.w3.org/2000/svg" viewBox="0 0 419.9 141.3"><path fill-rule="evenodd" clip-rule="evenodd" fill="#FFF" stroke="#1E1E1E" stroke-width=".709" stroke-linecap="round" stroke-miterlimit="10" d="M328.5 105.8V82.3l-14.9-17.5h-19.9l-.1 40.9 33.4.1h1.5zm22.7-14l-10.4-38.1-12.6-.2.4 23.4v14.9zm-62.9-37.1h25.5v10.1h-25.5zm15.3-19.3h-2.3v19.1h3.7zm-9.9-3.5H305v3.5h-11.3z"/><path fill-rule="evenodd" clip-rule="evenodd" fill="#FFF" stroke="#1E1E1E" stroke-width=".709" stroke-linecap="round" stroke-miterlimit="10" d="M293.6 89.1h63.8v16.6h-63.8z"/><path fill="none" stroke="#1E1E1E" stroke-width=".709" stroke-linecap="round" stroke-miterlimit="10" d="M309.8 58.5v1.3m-4-1.3v1.3m-3.9-1.3v1.3m-13.1-.5h7.3m33 5.1h14.7m-14.7 15.9H348m-53.7-7.7h25.8m-25.8 8h32.3m-24.3-48.7V.9m-.5 11.4h-2.7m2.7 4.8h-2.7m2.7 0h-2.7m2.7 4.8h-2.7m2.7 5h-2.7"/><path fill-rule="evenodd" clip-rule="evenodd" fill="#FFF" stroke="#1E1E1E" stroke-width=".709" stroke-linecap="round" stroke-miterlimit="10" d="M302.1 4.9c-1.2 0-2.3-1-2.3-2.3 0-1.2 1-2.3 2.3-2.3 1.3 0 2.3 1 2.3 2.3-.1 1.3-1.1 2.3-2.3 2.3z"/><path fill="none" stroke="#1E1E1E" stroke-width=".709" stroke-linecap="round" stroke-miterlimit="10" d="M309.1 68.3v1.3m-4-1.3v1.3m-3.9-1.3v1.3m-3.9-1.3v1.3m19.3 3.5l-5 7.1m5 1.1l-5 7.1m-2.5-12.5v1.3m-4-1.3v1.3m-3.9-1.3v1.3m-3.9-1.3v1.3m11.8 6.7v1.3m-4-1.3v1.3m-3.9-1.3v1.3m-3.9-1.3v1.3m29.1 12.3v.1c0 2 1.7 3.7 3.8 3.7h13c2.1 0 3.7-1.7 3.7-3.7v-.1h-20.5zm16.7-.8v-2.4m-6.7 2.4v-2.4m-6.7 2.4v-2.4m-4.1-.9h21.7M316.6 90l-5 7.1m-17.3.4h32.3m-10 .6l-5 7.1"/><path fill-rule="evenodd" clip-rule="evenodd" fill="#FFF" stroke="#1E1E1E" stroke-width=".709" stroke-linecap="round" stroke-miterlimit="10" d="M59.2 101.6h16.5v3H59.2zm-19.9 0h16.5v3H39.3zM25.8 85.5h-2.4v19h3.8zM22 82h7v3.4h-7z"/><path fill="none" stroke="#1E1E1E" stroke-width=".709" stroke-linecap="round" stroke-miterlimit="10" d="M24.4 82V61.8m1.4 10.1H23m2.8 3.9H23"/><path fill-rule="evenodd" clip-rule="evenodd" fill="#FFF" stroke="#1E1E1E" stroke-width=".709" stroke-linecap="round" stroke-miterlimit="10" d="M357.4 101.1h34.8v4.6h-34.8zM379 87l36.6-22.1 2.6.5-33.6 24.1zm.5 3.4h4.3V101h-4.3z"/><path fill-rule="evenodd" clip-rule="evenodd" fill="#FFF" stroke="#1E1E1E" stroke-width=".709" stroke-linecap="round" stroke-miterlimit="10" d="M377.6 82h9.3v10.6h-9.3z"/><path fill="#FFF" stroke="#1E1E1E" stroke-width=".709" stroke-linecap="round" stroke-miterlimit="10" d="M22.6 135.9c-.4.8-2.1 3.3-2.1 3.3 1.9.3 3.9 1.7 5.8 1.7 2.2 0 4.4-1.8 6.6-1.8 2.2 0 4.4 1.8 6.6 1.8 2.2 0 4.4-1.8 6.6-1.8 2.2 0 4.4 1.8 6.6 1.8 2.2 0 4.4-1.8 6.6-1.8 2.2 0 4.4 1.8 6.6 1.8 2.2 0 4.4-1.8 6.6-1.8 2.2 0 4.4 1.8 6.6 1.8 2.2 0 4.4-1.8 6.6-1.8 2.2 0 4.4 1.8 6.5 1.8 2.2 0 4.4-1.8 6.6-1.8 2.2 0 4.4 1.8 6.6 1.8 2.2 0 4.4-1.8 6.6-1.8 2.2 0 4.4 1.8 6.6 1.8 2.2 0 4.4-1.8 6.6-1.8 2.2 0 4.4 1.8 6.6 1.8 2.2 0 4.4-1.8 6.6-1.8 2.2 0 4.4 1.8 6.6 1.8 2.2 0 4.4-1.8 6.6-1.8 2.2 0 4.4 1.8 6.6 1.8 2.2 0 4.4-1.8 6.6-1.8 2.2 0 4.4 1.8 6.6 1.8 2.2 0 4.4-1.8 6.6-1.8 2.2 0 4.4 1.8 6.6 1.8 2.2 0 4.4-1.8 6.6-1.8 2.2 0 4.4 1.8 6.6 1.8 2.2 0 4.4-1.8 6.6-1.8 2.2 0 4.4 1.8 6.6 1.8 2.2 0 4.4-1.8 6.6-1.8 2.2 0 4.4 1.8 6.6 1.8s4.4-1.8 6.6-1.8c2.2 0 4.4 1.8 6.6 1.8 2.2 0 4.4-1.8 6.6-1.8 2.2 0 4.4 1.8 6.6 1.8 2.2 0 4.4-1.8 6.6-1.8 2.2 0 4.4 1.8 6.6 1.8h-.2c2.2 0 4.4-1.8 6.6-1.8 2.2 0 4.4 1.8 6.6 1.8 2.2 0 4.4-1.8 6.6-1.8s4.4 1.8 6.6 1.8 4.4-1.8 6.6-1.8c2.2 0 4.4 1.8 6.6 1.8 2.2 0 4.4-1.8 6.6-1.8 2.2 0 4.4 1.8 6.6 1.8h.1c2.2 0 4.4-1.8 6.6-1.8 2.2 0 4.4 1.8 6.6 1.8 2.2 0 4.4-1.8 6.6-1.8 2.2 0 4.4 1.8 6.6 1.8 2.2 0 4.4-1.8 6.6-1.8 2.2 0 4.4 1.8 6.6 1.8 2.2 0 4.4-1.8 6.6-1.8 2.2 0 4.4 1.8 6.6 1.8s4.4-1.8 6.6-1.8c2.2 0 4.4 1.8 6.6 1.8 2.2 0 6.6-1.8 6.6-1.8 9.6-17 7.6-33.3 7.6-33.3l-116.3-.1c-3.3 4.3-5.1 5.8-10.6 6.1l-166.6.1c-4.5 0-7.6.2-12-.9-4.8-1.2-9-3.2-12.2-6.4H.4l18 20.4c2.7 3.1 5.8 7.5 4.2 10.9"/><path fill="none" stroke="#1E1E1E" stroke-width=".709" stroke-linecap="round" stroke-miterlimit="10" d="M389 139.1c2.2 0 4.4 1.8 6.6 1.8 2.2 0 4.4-1.8 6.6-1.8 2.2 0 4.4 1.8 6.6 1.8m-408.2 0c2.2 0 4.4-1.8 6.6-1.8s4.4 1.8 6.6 1.8c2.2 0 4.4-1.8 6.6-1.8m362.5-53.5h4m29.9-3.9V67.8"/><path fill-rule="evenodd" clip-rule="evenodd" fill="#FFF" stroke="#1E1E1E" stroke-width=".709" stroke-linecap="round" stroke-miterlimit="10" d="M416.8 63.3h-.2c-1.3 0-2.4 1.1-2.4 2.4 0 1.3 1.1 2.4 2.4 2.4h.2c1.3 0 2.4-1 2.4-2.4-.1-1.3-1.1-2.4-2.4-2.4zm-1.7 18.4h3.3v1.8h-3.3zm-52.4 12.6h7.1v2.6h-7.1z"/><path fill-rule="evenodd" clip-rule="evenodd" fill="#FFF" stroke="#1E1E1E" stroke-width=".709" stroke-linecap="round" stroke-miterlimit="10" d="M364.2 96.8h4.3v4.1h-4.3z"/><path fill="none" stroke="#1E1E1E" stroke-width=".709" stroke-linecap="round" stroke-miterlimit="10" d="M378.3 110.3h5.9m-20.6 0h5.8"/><path fill-rule="evenodd" clip-rule="evenodd" fill="#BCBCD1" stroke="#1E1E1E" stroke-width=".709" stroke-miterlimit="10" d="M244.6 100.7h25.5v11.1h-25.5z"/><path fill-rule="evenodd" clip-rule="evenodd" fill="#9BA6D5" stroke="#1E1E1E" stroke-width=".709" stroke-miterlimit="10" d="M219.1 100.7h25.5v11.1h-25.5z"/><path fill-rule="evenodd" clip-rule="evenodd" fill="#E3AA8D" stroke="#1E1E1E" stroke-width=".709" stroke-miterlimit="10" d="M193.7 100.7h25.5v11.1h-25.5z"/><path fill-rule="evenodd" clip-rule="evenodd" fill="#DEDEE5" stroke="#1E1E1E" stroke-width=".709" stroke-miterlimit="10" d="M168.2 89.6h25.5v11h-25.5z"/><path fill-rule="evenodd" clip-rule="evenodd" fill="#E3AA8D" stroke="#1E1E1E" stroke-width=".709" stroke-miterlimit="10" d="M142.6 89.6h25.5v22.2h-25.5z"/><path fill-rule="evenodd" clip-rule="evenodd" fill="#DEDEE5" stroke="#1E1E1E" stroke-width=".709" stroke-miterlimit="10" d="M117.1 100.7h25.5v11.1h-25.5z"/><path fill-rule="evenodd" clip-rule="evenodd" fill="#9BA6D5" stroke="#1E1E1E" stroke-width=".709" stroke-miterlimit="10" d="M117.1 100.7H91.6v10.4l3.5.7h22z"/><path fill-rule="evenodd" clip-rule="evenodd" fill="#DEDEE5" stroke="#1E1E1E" stroke-width=".709" stroke-miterlimit="10" d="M244.6 89.6h25.5v11h-25.5z"/><path fill-rule="evenodd" clip-rule="evenodd" fill="#BCBCD1" stroke="#1E1E1E" stroke-width=".709" stroke-miterlimit="10" d="M219.1 89.6h25.5v11h-25.5z"/><path fill-rule="evenodd" clip-rule="evenodd" fill="#DEDEE5" stroke="#1E1E1E" stroke-width=".709" stroke-miterlimit="10" d="M193.7 78.5h25.5v22.1h-25.5z"/><path fill-rule="evenodd" clip-rule="evenodd" fill="#BCBCD1" stroke="#1E1E1E" stroke-width=".709" stroke-miterlimit="10" d="M168.2 100.7h25.5v11.1h-25.5zm-51.1-11.1h25.5v11h-25.5z"/><path fill-rule="evenodd" clip-rule="evenodd" fill="#E3AA8D" stroke="#1E1E1E" stroke-width=".709" stroke-miterlimit="10" d="M244.6 78.5h25.5v11.1h-25.5z"/><path fill-rule="evenodd" clip-rule="evenodd" fill="#9BA6D5" stroke="#1E1E1E" stroke-width=".709" stroke-miterlimit="10" d="M142.6 78.5h25.5v11.1h-25.5z"/><path fill-rule="evenodd" clip-rule="evenodd" fill="#E3AA8D" stroke="#1E1E1E" stroke-width=".709" stroke-miterlimit="10" d="M117.1 78.5h25.5v11.1h-25.5z"/><path fill="none" stroke="#1E1E1E" stroke-width=".709" stroke-miterlimit="10" d="M196.4 80.9h20.2v17.5h-20.2z"/><path fill="none" stroke="#1E1E1E" stroke-width=".567" stroke-miterlimit="10" d="M216.5 98.3l-20.1-17.4"/><path fill-rule="evenodd" clip-rule="evenodd" fill="#DEDEE5" stroke="#1E1E1E" stroke-width=".709" stroke-miterlimit="10" d="M231.9 78.5h12.8v11.1h-12.8zm-51 11.1h12.8v11h-12.8zm-76.6 0h12.8v11.1h-12.8z"/><path fill="none" stroke="#1E1E1E" stroke-width=".709" stroke-miterlimit="10" d="M183.4 91.7h7.9v6.8h-7.9zm-12.8 0h7.9v6.8h-7.9zm63.7-11h7.9v6.8h-7.9z"/><path fill="none" stroke="#1E1E1E" stroke-width=".567" stroke-linecap="round" stroke-miterlimit="10" d="M265.9 103.5v5.5m-3.4-5.5v5.5m-3.3-5.5v5.5m-3.4-5.5v5.5m-3.4-5.5v5.5m-3.4-5.5v5.5m16.9-27.7v5.5m-3.4-5.5v5.5m-3.3-5.5v5.5m-3.4-5.5v5.5m-3.4-5.5v5.5m-3.4-5.5v5.5m-59.8 16.7v5.5m-3.3-5.5v5.5m-3.4-5.5v5.5m-3.4-5.5v5.5m-3.4-5.5v5.5m-3.4-5.5v5.5m67.9-16.7v5.5m-3.4-5.5v5.5m-3.3-5.5v5.5m-3.4-5.5v5.5m-3.4-5.5v5.5m-3.4-5.5v5.5m-8.3 5.7v5.5m-3.4-5.5v5.5m-3.4-5.5v5.5m-3.4-5.5v5.5m-3.4-5.5v5.5m-3.3-5.5v5.5m-34.4-16.4v15.8m-3.3-15.8v15.8M157 92.6v15.8m-3.4-15.8v15.8m-3.3-15.8v15.8m-3.5-15.8v15.8m-8.6-16v5.5m-3.4-5.5v5.5m-3.3-5.5v5.5m-3.4-5.5v5.5m-3.4-5.5v5.5m-3.4-5.5v5.5m-8.5 5.6v5.5m-3.4-5.5v5.5m-3.3-5.5v5.5m-3.4-5.5v5.5m-3.4-5.5v5.5m-3.4-5.5v5.5"/><path fill="none" stroke="#1E1E1E" stroke-width=".709" stroke-linecap="round" stroke-miterlimit="10" d="M65.2 110.3h5.9m-26.8 0h5.8"/></svg>