<svg xmlns="http://www.w3.org/2000/svg" viewBox="0 0 16.5 10.3"><path fill="none" stroke="#1B1B1B" stroke-width=".75" stroke-linecap="round" stroke-miterlimit="10" d="M16.1 1.1c-.7 0-1.3-.7-2-.7s-1.3.7-2 .7c-.6 0-1.3-.7-2-.7-.6 0-1.3.7-2 .7-.6 0-1.3-.7-2-.7-.6 0-1.3.7-2 .7-.5 0-1.1-.7-1.8-.7s-1.3.7-2 .7M16.1 5.4c-.7 0-1.3-.7-2-.7s-1.3.7-2 .7c-.6 0-1.3-.7-2-.7-.6 0-1.3.7-2 .7-.6 0-1.3-.7-2-.7-.6 0-1.3.7-2 .7-.5 0-1.1-.7-1.8-.7s-1.3.7-2 .7M16.1 9.9c-.7 0-1.3-.7-2-.7s-1.3.7-2 .7c-.6 0-1.3-.7-2-.7-.6 0-1.3.7-2 .7-.6 0-1.3-.7-2-.7-.6 0-1.3.7-2 .7-.5 0-1.1-.7-1.8-.7s-1.3.7-2 .7"/></svg>