<svg xmlns="http://www.w3.org/2000/svg" viewBox="0 0 396.4 2.5"><path fill="none" stroke="#1E1E1E" stroke-width=".709" stroke-linecap="round" stroke-miterlimit="10" d="M20.1.4c-2.2 0-4.4 1.8-6.6 1.8C11.3 2.2 9.1.4 6.9.4 4.7.4 2.5 2.2.3 2.2m39.6-.1c-2.2 0-4.4-1.8-6.6-1.8S29 2.1 26.7 2.1c-2.2 0-4.4-1.8-6.6-1.8m39.6.1c-2.2 0-4.4 1.8-6.6 1.8-2.2 0-4.4-1.8-6.6-1.8-2.2 0-4.4 1.8-6.6 1.8m39.6-.1c-2.2 0-4.4-1.8-6.6-1.8s-4.4 1.8-6.6 1.8c-2.2 0-4.4-1.8-6.6-1.8m39.6.1c-2.2 0-4.4 1.8-6.6 1.8-2.2 0-4.4-1.8-6.6-1.8-2.2 0-4.4 1.8-6.6 1.8m39.6-.1c-2.2 0-4.4-1.8-6.6-1.8s-4.4 1.8-6.6 1.8c-2.2 0-4.4-1.8-6.6-1.8m39.6.1c-2.2 0-4.4 1.8-6.6 1.8-2.2 0-4.4-1.8-6.6-1.8-2.2 0-4.4 1.8-6.6 1.8m39.5-.1c-2.2 0-4.4-1.8-6.6-1.8s-4.4 1.8-6.6 1.8c-2.2 0-4.4-1.8-6.6-1.8m39.6.1c-2.2 0-4.4 1.8-6.6 1.8-2.2 0-4.4-1.8-6.6-1.8-2.2 0-4.4 1.8-6.6 1.8m39.6-.1c-2.2 0-4.4-1.8-6.6-1.8s-4.4 1.8-6.6 1.8c-2.2 0-4.4-1.8-6.6-1.8m39.6.1c-2.2 0-4.4 1.8-6.6 1.8-2.2 0-4.4-1.8-6.6-1.8-2.2 0-4.4 1.8-6.6 1.8m39.6-.1c-2.2 0-4.4-1.8-6.6-1.8s-4.4 1.8-6.6 1.8c-2.2 0-4.4-1.8-6.6-1.8m39.6.1c-2.2 0-4.4 1.8-6.6 1.8-2.2 0-4.4-1.8-6.6-1.8-2.2 0-4.4 1.8-6.6 1.8m39.6-.1c-2.2 0-4.4-1.8-6.6-1.8s-4.4 1.8-6.6 1.8c-2.2 0-4.4-1.8-6.6-1.8m39.5.1c-2.2 0-4.4 1.8-6.6 1.8-2.2 0-4.4-1.8-6.6-1.8-2.2 0-4.4 1.8-6.6 1.8m39.6-.1c-2.2 0-4.4-1.8-6.6-1.8s-4.4 1.8-6.6 1.8c-2.2 0-4.4-1.8-6.6-1.8m39.6.1c-2.2 0-4.4 1.8-6.6 1.8-2.2 0-4.4-1.8-6.6-1.8-2.2 0-4.4 1.8-6.6 1.8m39.6-.1c-2.2 0-4.4-1.8-6.6-1.8s-4.4 1.8-6.6 1.8c-2.2 0-4.4-1.8-6.6-1.8m39.6.1c-2.2 0-4.4 1.8-6.6 1.8-2.2 0-4.4-1.8-6.6-1.8-2.2 0-4.4 1.8-6.6 1.8m39.6-.1c-2.2 0-4.4-1.8-6.6-1.8s-4.4 1.8-6.6 1.8c-2.2 0-4.4-1.8-6.6-1.8"/></svg>