<svg xmlns="http://www.w3.org/2000/svg" viewBox="0 0 11.9 17.9"><path fill-rule="evenodd" clip-rule="evenodd" fill="#52AC62" d="M6 0c3.3 0 6 2.7 6 6 0 3.5-4.4 9.2-5.9 11.9H6C4.4 15.2 0 9.4 0 6c0-3.3 2.7-6 6-6z"/><path fill-rule="evenodd" clip-rule="evenodd" fill="#FFF" d="M8.3 4.5c-.3-.5-.6-.7-1-.9-.4-.3-.9-.4-1.3-.4-.8 0-1.5.3-2 .8s-.8 1.2-.8 1.9c0 .8.3 1.4.8 1.9s1.2.8 2 .8c.5 0 1-.2 1.5-.4.4-.3.8-.7 1-1.1l.7.4c-.3.6-.8 1.1-1.4 1.4-.5.4-1.2.6-1.8.6-1 0-1.9-.4-2.5-1-.6-.6-1-1.5-1-2.5s.4-1.9 1-2.5c.6-.6 1.5-1 2.5-1 .6 0 1.2.2 1.8.5.5.3 1 .8 1.3 1.3l-.8.2z"/><path fill-rule="evenodd" clip-rule="evenodd" fill="#FFF" d="M4.7 4.3l3.7 1.6-3.7 1.6.7-1.6"/></svg>