<svg xmlns="http://www.w3.org/2000/svg" viewBox="0 0 16.6 10.9"><path fill="none" stroke="#0D1413" stroke-width=".734" stroke-miterlimit="10" d="M.4.4h15.9v10.2H.4z"/><path fill="none" stroke="#0D1413" stroke-width=".734" stroke-miterlimit="10" d="M3.2 5.5h3.9c.1 0 .1.1.1.1v4.8c0 .1-.1.1-.1.1H3.2c-.1 0-.1-.1-.1-.1V5.6c-.1-.1 0-.1.1-.1zM9.6 5.5h3.9c.1 0 .1.1.1.1v4.8c0 .1-.1.1-.1.1H9.6c-.1 0-.1-.1-.1-.1V5.6c0-.1 0-.1.1-.1z"/><path fill="none" stroke="#0D1413" stroke-width=".564" stroke-miterlimit="10" d="M3 7.2h4.2M3 8.9h4.2M9.4 7.2h4.2M9.4 8.9h4.2"/></svg>