<svg xmlns="http://www.w3.org/2000/svg" viewBox="0 0 80.5 36.4"><path fill="#242626" d="M39.3 36.4c-10 0-18.2-8.2-18.2-18.2S29.2 0 39.3 0s18.2 8.2 18.2 18.2-8.2 18.2-18.2 18.2zm0-35.4c-9.5 0-17.2 7.7-17.2 17.2s7.7 17.2 17.2 17.2 17.2-7.7 17.2-17.2S48.7 1 39.3 1z"/><path fill="#242626" d="M18.2 36.4C8.2 36.4 0 28.2 0 18.2S8.2 0 18.2 0c1.8 0 3.5.3 5.2.8l-.3 1c-1.6-.6-3.2-.8-4.9-.8C8.7 1 1 8.7 1 18.2s7.7 17.2 17.2 17.2c2 0 3.9-.3 5.7-1l.3.9c-1.9.7-3.9 1.1-6 1.1zM62.3 36.4c-2.1 0-4.1-.3-6-1l.3-.9c1.8.6 3.7 1 5.7 1 9.5 0 17.2-7.7 17.2-17.2S71.8 1 62.3 1c-1.7 0-3.3.2-4.9.7l-.3-1c1.7-.4 3.5-.7 5.2-.7 10 0 18.2 8.2 18.2 18.2s-8.1 18.2-18.2 18.2zM36.1 11.9h1v14.6h-1z"/><path fill="#242626" d="M34.4 18.6h9.7v1h-9.7zM36.6 11.9h7.5v1h-7.5zM44.1 19.6v-1c1.5 0 2.7-1.3 2.7-2.9s-1.2-2.9-2.7-2.9v-1c2.1 0 3.7 1.7 3.7 3.9s-1.6 3.9-3.7 3.9zM34.4 21.9h6.8v1h-6.8z"/></svg>