<svg xmlns="http://www.w3.org/2000/svg" viewBox="0 0 50.8 18.3"><path fill-rule="evenodd" clip-rule="evenodd" fill="#FFF" stroke="#272929" stroke-width=".6" stroke-miterlimit="10" d="M2.9.3h45.7v13.6H2.9z"/><path fill-rule="evenodd" clip-rule="evenodd" fill="#FFF" stroke="#272929" stroke-width=".6" stroke-miterlimit="10" d="M2.9.3h45.7v12H2.9z"/><path fill="none" stroke="#272929" stroke-width=".6" stroke-linecap="round" stroke-miterlimit="10" d="M5.5 3.1v6.4M8.6 3.1v6.4M11.7 3.1v6.4M14.8 3.1v6.4M17.9 3.1v6.4M21.1 3.1v6.4M24.2 3.1v6.4M27.3 3.1v6.4M30.4 3.1v6.4M33.5 3.1v6.4M36.6 3.1v6.4M39.7 3.1v6.4M42.9 3.1v6.4M46 3.1v6.4"/><path fill-rule="evenodd" clip-rule="evenodd" fill="#FFF" stroke="#272929" stroke-width=".6" stroke-miterlimit="10" d="M6.6 15.2c.8 0 1.4.6 1.4 1.4 0 .7-.6 1.4-1.4 1.4-.8 0-1.4-.6-1.4-1.4 0-.8.6-1.4 1.4-1.4z"/><path fill="none" stroke="#272929" stroke-width=".6" stroke-miterlimit="10" d="M2.9 12.3H.5"/><path fill="none" stroke="#272929" stroke-width=".6" stroke-linecap="round" stroke-miterlimit="10" d="M.3 11.2v2.1"/><path fill-rule="evenodd" clip-rule="evenodd" fill="#FFF" stroke="#272929" stroke-width=".6" stroke-miterlimit="10" d="M11.6 15.2c.8 0 1.4.6 1.4 1.4 0 .8-.6 1.4-1.4 1.4-.8 0-1.4-.6-1.4-1.4-.1-.8.6-1.4 1.4-1.4z"/><path fill="none" stroke="#272929" stroke-width=".6" stroke-miterlimit="10" d="M48 12.3h2.3"/><path fill="none" stroke="#272929" stroke-width=".6" stroke-linecap="round" stroke-miterlimit="10" d="M50.5 11.2v2.1M11.6 16.5l-5 .1"/><path fill-rule="evenodd" clip-rule="evenodd" fill="#FFF" stroke="#272929" stroke-width=".6" stroke-miterlimit="10" d="M39.9 15.2c.8 0 1.4.6 1.4 1.4 0 .8-.6 1.4-1.4 1.4-.8 0-1.4-.6-1.4-1.4 0-.8.7-1.4 1.4-1.4zM44.9 15.2c.8 0 1.4.6 1.4 1.4 0 .8-.6 1.4-1.4 1.4-.8 0-1.4-.6-1.4-1.4 0-.8.6-1.4 1.4-1.4z"/><path fill="none" stroke="#272929" stroke-width=".6" stroke-linecap="round" stroke-miterlimit="10" d="M44.9 16.5l-5 .1"/></svg>