<svg xmlns="http://www.w3.org/2000/svg" viewBox="0 0 45.4 18"><path fill-rule="evenodd" clip-rule="evenodd" fill="#FFF" stroke="#272929" stroke-width=".6" stroke-miterlimit="10" d="M.3.3h33.9v11.8H.3zM36.1 12.1h9V9.4l-2-6.4h-7z"/><path fill="none" stroke="#272929" stroke-width=".6" stroke-miterlimit="10" d="M5.3 17.7c1.1 0 2-.9 2-2s-.9-2-2-2-2 .9-2 2 .9 2 2 2zM10.3 17.7c1.1 0 2-.9 2-2s-.9-2-2-2-2 .9-2 2 .9 2 2 2zM40.1 17.3c1 0 1.8-.8 1.8-1.8s-.8-1.8-1.8-1.8-1.8.8-1.8 1.8.9 1.8 1.8 1.8z"/><path fill="none" stroke="#272929" stroke-width=".6" stroke-miterlimit="10" d="M.3 11.8v3.4h3.1M12.3 15.3h14.4M28.5 17.3c1 0 1.8-.8 1.8-1.8s-.8-1.8-1.8-1.8-1.8.8-1.8 1.8.8 1.8 1.8 1.8zM45.1 11.8v3.4H42M30.3 15.3h7.9"/><path fill-rule="evenodd" clip-rule="evenodd" fill="#272929" d="M5.3 16.5c.4 0 .8-.3.8-.8 0-.4-.3-.8-.8-.8-.4 0-.8.3-.8.8.1.5.4.8.8.8zM10.3 16.5c.4 0 .8-.3.8-.8 0-.4-.3-.8-.8-.8-.4 0-.7.3-.7.8-.1.5.3.8.7.8zM28.5 16.3c.4 0 .8-.3.8-.8 0-.4-.3-.7-.8-.7s-.8.3-.8.7c0 .5.4.8.8.8zM40.1 16.3c.4 0 .7-.3.7-.8 0-.4-.3-.7-.7-.7s-.8.3-.8.7c.1.5.4.8.8.8z"/><path fill="none" stroke="#272929" stroke-width=".6" stroke-linecap="round" stroke-miterlimit="10" d="M38.1 9.2h6.8M38.2 4.9h5.4M38.1 4.9v4.3M39.7 4.9v4.3"/><path fill="none" stroke="#272929" stroke-width=".6" stroke-miterlimit="10" d="M6.7 12.1h29.4"/></svg>