<svg xmlns="http://www.w3.org/2000/svg" viewBox="0 0 46.2 19.6"><path fill="none" stroke="#272929" stroke-width=".6" stroke-miterlimit="10" d="M4.2 17.6h17.5M2.7 19.3c.8 0 1.5-.7 1.5-1.5s-.7-1.5-1.5-1.5-1.5.7-1.5 1.5.7 1.5 1.5 1.5zM23.1 13.8c0-.1 0 0 0 0 .1 0 .2-.2.2-.2 1.5-2.4 4.2-6.3 4-9.5-.1-2.3-2-3.8-4.2-3.8S19 1.8 18.9 4.1c-.2 3.2 2.6 7.1 4 9.5.1 0 .2.2.2.2zm0-7.6c-.8 0-1.5-.6-1.5-1.4 0-.3.1-.6.2-.9.1-.1.2-.3.3-.4l.2-.2c.2-.1.4-.1.6-.1h.2c.2 0 .4.1.6.1.2.1.3.2.3.2.1.1.3.2.3.4.2.3.3.6.3.9 0 .8-.7 1.5-1.5 1.4zM23.2 19.3c.8 0 1.5-.7 1.5-1.5s-.7-1.5-1.5-1.5-1.5.7-1.5 1.5.7 1.5 1.5 1.5zM42.2 17.6H24.7M43.7 19.3c.8 0 1.5-.7 1.5-1.5s-.7-1.5-1.5-1.5-1.5.7-1.5 1.5.7 1.5 1.5 1.5zM2.7 14.4l.1-.1c.8-1.4 2.4-3.6 2.3-5.4C5 7.6 3.9 6.7 2.7 6.7S.4 7.6.3 8.9c-.1 1.8 1.4 4 2.3 5.4 0-.1 0 .1.1.1zm0-4.3c-.5 0-.8-.3-.8-.8 0-.2 0-.4.1-.5 0-.1.1-.2.2-.3l.1-.1c.1-.1.2-.1.3-.1h.2c.1 0 .2 0 .3.1.1 0 .1.1.1.1l.2.2c.1.1.1.3.1.5 0 .5-.3.9-.8.9zM43.5 14.4l.1-.1c.8-1.4 2.4-3.6 2.3-5.4-.1-1.3-1.1-2.2-2.4-2.2-1.3 0-2.3.9-2.4 2.2-.1 1.8 1.5 4 2.3 5.4 0-.1.1.1.1.1zm0-4.3c-.5 0-.8-.3-.8-.8 0-.2 0-.4.1-.5.1-.1.1-.2.2-.2s.1-.1.1-.1c.1-.1.2-.1.3-.1h.2c.1 0 .3 0 .3.1.1 0 .1.1.1.1l.2.2c.1.1.1.3.1.5 0 .4-.3.8-.8.8z"/></svg>