<svg xmlns="http://www.w3.org/2000/svg" viewBox="0 0 101.1 41.2"><path fill="#1E1E1E" d="M100.6 13.9H59.7c-.2 0-.4-.1-.5-.4-.1-.2 0-.4.2-.6L79.9.1c.2-.1.4-.1.5 0L100.8 13c.2.1.3.3.3.5s-.2.4-.5.4zm-39.2-1h37.4L80.2 1.1 61.4 12.9z"/><path fill="#1E1E1E" d="M79.8 9.8c-1.2 0-2.1-1-2.1-2.1s1-2.1 2.1-2.1 2.1 1 2.1 2.1-.9 2.1-2.1 2.1zm0-3.2c-.6 0-1.1.5-1.1 1.1s.5 1.1 1.1 1.1 1.1-.5 1.1-1.1-.5-1.1-1.1-1.1zM66.7 37.8h-4v-22h4v22zm-3-1h2v-20h-2v20zM96.8 37.8h-4v-22h4v22zm-3-1h2v-20h-2v20zM76.8 37.8h-4v-22h4v22zm-3-1h2v-20h-2v20zM86.8 37.8h-4v-22h4v22zm-3-1h2v-20h-2v20zM44.712 16.567l4.596 4.596-.707.707-4.595-4.596z"/><path fill="#1E1E1E" d="M48.416 20.565l.707.707-4.596 4.596-.707-.707z"/><path fill="#0D0F0F" d="M5.1 20.5c-2.8 0-5.1-2.3-5.1-5.1s2.3-5.1 5.1-5.1 5.1 2.3 5.1 5.1-2.2 5.1-5.1 5.1zm0-9.3c-2.3 0-4.1 1.9-4.1 4.1s1.9 4.1 4.1 4.1c2.3 0 4.1-1.9 4.1-4.1s-1.8-4.1-4.1-4.1zM17.5 32.6c-2.8 0-5.1-2.3-5.1-5.1s2.3-5.1 5.1-5.1 5.1 2.3 5.1 5.1-2.3 5.1-5.1 5.1zm0-9.2c-2.3 0-4.1 1.9-4.1 4.1s1.9 4.1 4.1 4.1c2.3 0 4.1-1.9 4.1-4.1s-1.9-4.1-4.1-4.1zM18.773 12.548l.737.676L2.875 31.347l-.736-.677z"/><path fill="#1E1E1E" d="M30.1 20.6h18.3v1H30.1zM59.7 40.2h40.9v1H59.7z"/></svg>