<svg xmlns="http://www.w3.org/2000/svg" viewBox="0 0 16.6 10.9"><path fill="none" stroke="#0D1413" stroke-width=".734" stroke-miterlimit="10" d="M8.3 7.8c1.3 0 2.3-1 2.3-2.3s-1-2.4-2.3-2.4C7 3.1 6 4.1 6 5.4s1 2.4 2.3 2.4z"/><path fill="none" stroke="#0D1413" stroke-width=".734" stroke-linecap="round" stroke-miterlimit="10" d="M8.3 1.9v1.2M8.3 7.8v1.1M4.8 5.4H6M10.7 5.4h1.1"/><path fill="none" stroke="#0D1413" stroke-width=".734" stroke-miterlimit="10" d="M.4.4h15.9v10.2H.4z"/><path fill="none" stroke="#0D1413" stroke-width=".734" stroke-miterlimit="10" d="M8.3 6.2c.4 0 .7-.3.7-.7 0-.4-.3-.7-.7-.7-.4 0-.7.3-.7.7 0 .3.3.7.7.7z"/></svg>