<svg xmlns="http://www.w3.org/2000/svg" viewBox="0 0 250.7 59.8"><path fill-rule="evenodd" clip-rule="evenodd" fill="#9D938F" d="M23.1 19.2h1.5v12.2h-1.5z"/><path fill-rule="evenodd" clip-rule="evenodd" fill="#9D938F" stroke="#1E1E1E" stroke-width=".567" stroke-miterlimit="10" d="M36.6 19.2v8.6l5.6-1.1v-7.5z"/><path fill-rule="evenodd" clip-rule="evenodd" fill="#C5C4C6" d="M17.9 43.5v9.4h9.4v-1.6h2.6l.7-3.2 2.2-2.5 2.6-1.1 2.3-.2 2.2.6 2.2 1.6 1.1 1.6.6 1.6.2 1.6h2.7v1.6l24.8.2v-3h5.6l1.6-2.2 2.4-.5 2.2.4 1.1.9.7 1.5h10.2l.7-2.1 1.9-2.3 2.5-1.3 1.9-.2 2.5.4 1.8 1 1.7 1.9 1 2.8h5.6v-4.7h34.5l-1.5 3.2-.1.7h51.9l-1-2.8-.8-1.2H220v4.8l-.1-.3h2.9l.1-10.2h-146v2.6l-3.1 2.6-25.4-.5v-4.8H34.9l-2.8.5-2.2 1.2-2.3 2.1z"/><path fill-rule="evenodd" clip-rule="evenodd" fill="#FFF" stroke="#1E1E1E" stroke-width=".709" stroke-miterlimit="10" d="M17.5 43.5v-9.6c0-2.4.5-2.4 2.8-2.9l21.9-4.3v-7.5H18.5v-1.3c4.8-1.9 8-2.9 12.2-3.5 2.2-.3 4.1-.6 6.3-.6l14.9-.1v26H35.7c-3.7 0-5 .7-8.1 3.8H17.5z"/><path fill="none" stroke="#1E1E1E" stroke-width=".709" stroke-miterlimit="10" d="M17.9 43.5v9.4h9.4m19.4 0h5.5v-8.1l-3.8-.1v-4.8"/><path fill-rule="evenodd" clip-rule="evenodd" fill="#8F8785" stroke="#1E1E1E" stroke-width=".709" stroke-miterlimit="10" d="M36.9 58.4c3.9 0 7.1-3.2 7.1-7.1 0-3.9-3.2-7.1-7.1-7.1-3.9 0-7.1 3.2-7.1 7.1.1 4 3.2 7.1 7.1 7.1z"/><path fill-rule="evenodd" clip-rule="evenodd" fill="#FFF" stroke="#1E1E1E" stroke-width=".709" stroke-miterlimit="10" d="M36.9 55.5c2.3 0 4.2-1.9 4.2-4.2s-1.9-4.2-4.2-4.2c-2.3 0-4.2 1.9-4.2 4.2s1.9 4.2 4.2 4.2z"/><path fill="none" stroke="#1E1E1E" stroke-width=".709" stroke-miterlimit="10" d="M20.9 19.2l-1.1 11.9v.2M23.1 19.2v24.3M36.6 19.2v20.6"/><path fill-rule="evenodd" clip-rule="evenodd" fill="#C8C7C9" stroke="#1E1E1E" stroke-width=".709" stroke-miterlimit="10" d="M38.3 10.6l8.8-1.8c2.2-.5 4.4 1 4.8 3.2.1.6.1 1.2-.1 1.8H35.1c.3-1.5 1.5-2.8 3.2-3.2z"/><path fill="none" stroke="#1E1E1E" stroke-width=".709" stroke-miterlimit="10" d="M52.2 44.7h13.7v8.2H52.2zM27.3 53.1v-1.8m0 0c0-2.7 1.1-5.1 2.8-6.8m0 0c1.8-1.8 4.2-2.8 6.8-2.8m.1 0c2.7 0 5.1 1.1 6.8 2.8m0 0c1.8 1.8 2.9 4.2 2.9 6.8m0 0v1.8M24.8 19.2v10.9"/><path fill-rule="evenodd" clip-rule="evenodd" fill="#E3AA8D" stroke="#1E1E1E" stroke-width=".709" stroke-miterlimit="10" d="M59.8.4h163.1v39.5H59.8z"/><path fill="none" stroke="#1E1E1E" stroke-width=".709" stroke-miterlimit="10" d="M76.9 39.9v2.6M85.2 39.9v2.4M220 39.9h2.8v10.5H220zM110.2 45.7h39.2M197.9 45.6H220M65.9 44.7H74M65.9 52.8h5.6M36.9 53.3c1 0 1.9-.9 1.9-1.9 0-1-.9-1.9-1.9-1.9-1.1 0-1.9.9-1.9 1.9 0 1 .9 1.9 1.9 1.9z"/><path fill-rule="evenodd" clip-rule="evenodd" fill="#8F8785" stroke="#1E1E1E" stroke-width=".709" stroke-miterlimit="10" d="M81.1 58.4c3.9 0 7.1-3.2 7.1-7.1 0-3.9-3.2-7.1-7.1-7.1-3.9 0-7.1 3.2-7.1 7.1 0 4 3.2 7.1 7.1 7.1z"/><path fill-rule="evenodd" clip-rule="evenodd" fill="#FFF" stroke="#1E1E1E" stroke-width=".709" stroke-miterlimit="10" d="M81.1 55.5c2.3 0 4.2-1.9 4.2-4.2s-1.9-4.2-4.2-4.2c-2.3 0-4.2 1.9-4.2 4.2s1.9 4.2 4.2 4.2z"/><path fill="none" stroke="#1E1E1E" stroke-width=".709" stroke-miterlimit="10" d="M71.5 53.1v-1.8m0 0c0-2.7 1.1-5.1 2.8-6.8m0 0c1.8-1.8 4.2-2.8 6.8-2.8m0 0c2.7 0 5.1 1.1 6.8 2.8m.1 0c1.8 1.8 2.8 4.2 2.8 6.8m0 0v1.8M81.1 53.3c1 0 1.9-.9 1.9-1.9 0-1-.9-1.9-1.9-1.9-1.1 0-1.9.9-1.9 1.9 0 1 .8 1.9 1.9 1.9z"/><path fill-rule="evenodd" clip-rule="evenodd" fill="#8F8785" stroke="#1E1E1E" stroke-width=".709" stroke-miterlimit="10" d="M102.3 58.4c3.9 0 7.1-3.2 7.1-7.1 0-3.9-3.2-7.1-7.1-7.1-3.9 0-7.1 3.2-7.1 7.1.1 4 3.2 7.1 7.1 7.1z"/><path fill-rule="evenodd" clip-rule="evenodd" fill="#FFF" stroke="#1E1E1E" stroke-width=".709" stroke-miterlimit="10" d="M102.3 55.5c2.3 0 4.2-1.9 4.2-4.2s-1.9-4.2-4.2-4.2c-2.3 0-4.2 1.9-4.2 4.2s1.9 4.2 4.2 4.2z"/><path fill="none" stroke="#1E1E1E" stroke-width=".709" stroke-miterlimit="10" d="M92.7 53.1v-1.8m0 0c0-2.7 1.1-5.1 2.9-6.8m-.1 0c1.8-1.8 4.2-2.8 6.8-2.8m.1 0c2.7 0 5.1 1.1 6.8 2.8m0 0c1.8 1.8 2.8 4.2 2.8 6.8m0 0v1.8M102.3 53.3c1.1 0 1.9-.9 1.9-1.9 0-1-.9-1.9-1.9-1.9-1 0-1.9.9-1.9 1.9 0 1 .9 1.9 1.9 1.9zM144.9 39.9v5.8"/><path fill-rule="evenodd" clip-rule="evenodd" fill="#8F8785" stroke="#1E1E1E" stroke-width=".709" stroke-miterlimit="10" d="M157.2 58.4c3.9 0 7.1-3.2 7.1-7.1 0-3.9-3.2-7.1-7.1-7.1-3.9 0-7.1 3.2-7.1 7.1.1 4 3.3 7.1 7.1 7.1z"/><path fill-rule="evenodd" clip-rule="evenodd" fill="#FFF" stroke="#1E1E1E" stroke-width=".709" stroke-miterlimit="10" d="M157.2 55.5c2.3 0 4.2-1.9 4.2-4.2s-1.9-4.2-4.2-4.2c-2.3 0-4.2 1.9-4.2 4.2s1.9 4.2 4.2 4.2z"/><path fill="none" stroke="#1E1E1E" stroke-width=".709" stroke-miterlimit="10" d="M147.6 53.1v-1.8m0 0c0-2.7 1.1-5.1 2.8-6.8m.1 0c1.8-1.8 4.2-2.8 6.8-2.8M157.2 53.3c1.1 0 1.9-.9 1.9-1.9 0-1-.9-1.9-1.9-1.9-1 0-1.9.9-1.9 1.9 0 1 .9 1.9 1.9 1.9z"/><path fill-rule="evenodd" clip-rule="evenodd" fill="#8F8785" stroke="#1E1E1E" stroke-width=".709" stroke-miterlimit="10" d="M190.2 58.4c3.9 0 7.1-3.2 7.1-7.1 0-3.9-3.2-7.1-7.1-7.1-3.9 0-7.1 3.2-7.1 7.1 0 4 3.2 7.1 7.1 7.1z"/><path fill-rule="evenodd" clip-rule="evenodd" fill="#FFF" stroke="#1E1E1E" stroke-width=".709" stroke-miterlimit="10" d="M190.2 55.5c2.3 0 4.2-1.9 4.2-4.2s-1.9-4.2-4.2-4.2c-2.3 0-4.2 1.9-4.2 4.2s1.9 4.2 4.2 4.2z"/><path fill="none" stroke="#1E1E1E" stroke-width=".709" stroke-miterlimit="10" d="M199.8 53.1v-1.8m0 0c0-2.7-1.1-5.1-2.8-6.8m0 0c-1.8-1.8-4.2-2.8-6.8-2.8M190.2 53.3c1 0 1.9-.9 1.9-1.9 0-1-.9-1.9-1.9-1.9-1.1 0-1.9.9-1.9 1.9 0 1 .8 1.9 1.9 1.9z"/><path fill-rule="evenodd" clip-rule="evenodd" fill="#8F8785" stroke="#1E1E1E" stroke-width=".709" stroke-miterlimit="10" d="M173.8 58.4c3.9 0 7.1-3.2 7.1-7.1 0-3.9-3.2-7.1-7.1-7.1-3.9 0-7.1 3.2-7.1 7.1 0 4 3.2 7.1 7.1 7.1z"/><path fill-rule="evenodd" clip-rule="evenodd" fill="#FFF" stroke="#1E1E1E" stroke-width=".709" stroke-miterlimit="10" d="M173.8 55.5c2.3 0 4.2-1.9 4.2-4.2s-1.9-4.2-4.2-4.2c-2.3 0-4.2 1.9-4.2 4.2s1.9 4.2 4.2 4.2z"/><path fill-rule="evenodd" clip-rule="evenodd" fill="#FFF" stroke="#1E1E1E" stroke-width=".709" stroke-miterlimit="10" d="M173.8 53.3c1 0 1.9-.9 1.9-1.9 0-1-.9-1.9-1.9-1.9-1.1 0-1.9.9-1.9 1.9 0 1 .9 1.9 1.9 1.9z"/><path fill="none" stroke="#1E1E1E" stroke-width=".709" stroke-miterlimit="10" d="M157.3 41.7h32.9M203.6 39.9v5.7M114.3 39.9v5.8M38.4 19.2v8.2"/><path fill="none" stroke="#1E1E1E" stroke-width=".709" stroke-linecap="round" stroke-miterlimit="10" d="M32.5 31.8h1.8"/><path fill-rule="evenodd" clip-rule="evenodd" fill="#C8C7C9" stroke="#1E1E1E" stroke-width=".709" stroke-miterlimit="10" d="M51.9 13.8h2.2v22.5h-2.2z"/><path fill="none" stroke="#1E1E1E" stroke-width=".709" stroke-linecap="round" stroke-miterlimit="10" d="M.4 59.5l249.9-.3"/><path fill-rule="evenodd" clip-rule="evenodd" fill="#E3AA8D" stroke="#1E1E1E" stroke-width=".709" stroke-miterlimit="10" d="M63.2 3.4h156.2v33.5H63.2z"/><path fill-rule="evenodd" clip-rule="evenodd" fill="#E3AA8D" stroke="#1E1E1E" stroke-width=".709" stroke-miterlimit="10" d="M63.2 26.9h156.2v10H63.2z"/></svg>