<svg xmlns="http://www.w3.org/2000/svg" viewBox="0 0 206.1 58.8"><path fill-rule="evenodd" clip-rule="evenodd" fill="#9D938F" d="M5.9 19.2h1.5v12.2H5.9z"/><path fill-rule="evenodd" clip-rule="evenodd" fill="#9D938F" stroke="#1E1E1E" stroke-width=".567" stroke-miterlimit="10" d="M19.5 19.2v8.6l5.6-1.1v-7.5z"/><path fill-rule="evenodd" clip-rule="evenodd" fill="#C5C4C6" d="M.8 43.5v9.4h9.3v-1.6h2.6l.8-3.2 2.1-2.5 2.6-1.1 2.3-.2 2.2.6 2.2 1.6 1.1 1.6.7 1.6.2 1.6h2.6v1.6l24.8.2v-2.4l.1-.6h5.5l1.7-2.2 2.4-.5 2.1.4 1.1.9.8 1.5h10.2l.6-2.1 1.9-2.3 2.5-1.3 1.9-.2 2.6.4 1.7 1 1.8 1.9 1 2.8h5.5v-4.7h34.5l-1.4 3.2-.2.7h51.9l-1-2.8-.7-1.2h22.1v4.8l-.2-.3h3V39.9h-146v2.6l-3.1 2.6-25.4-.5v-4.8H17.8l-2.9.5-2.1 1.2-2.4 2.1z"/><path fill-rule="evenodd" clip-rule="evenodd" fill="#FFF" stroke="#1E1E1E" stroke-width=".709" stroke-miterlimit="10" d="M.4 43.5v-9.6c0-2.4.5-2.4 2.8-2.9l21.9-4.3v-7.5H1.3v-1.3c4.8-1.9 8-2.9 12.2-3.5 2.2-.3 4.1-.6 6.3-.6l14.9-.1v26H18.6c-3.7 0-5 .7-8.1 3.8H.4z"/><path fill="none" stroke="#1E1E1E" stroke-width=".709" stroke-miterlimit="10" d="M.8 43.5v9.4h9.4m19.3 0H35v-8.1l-3.8-.1v-4.8"/><path fill-rule="evenodd" clip-rule="evenodd" fill="#8F8785" stroke="#1E1E1E" stroke-width=".709" stroke-miterlimit="10" d="M19.8 58.4c3.9 0 7.1-3.2 7.1-7.1 0-3.9-3.2-7.1-7.1-7.1-3.9 0-7.1 3.2-7.1 7.1 0 4 3.2 7.1 7.1 7.1z"/><path fill-rule="evenodd" clip-rule="evenodd" fill="#FFF" stroke="#1E1E1E" stroke-width=".709" stroke-miterlimit="10" d="M19.8 55.5c2.3 0 4.2-1.9 4.2-4.2s-1.9-4.2-4.2-4.2c-2.3 0-4.2 1.9-4.2 4.2s1.8 4.2 4.2 4.2z"/><path fill="none" stroke="#1E1E1E" stroke-width=".709" stroke-miterlimit="10" d="M3.8 19.2L2.7 31.1l-.1.2M5.9 19.2v24.3M19.5 19.2v20.6"/><path fill-rule="evenodd" clip-rule="evenodd" fill="#C8C7C9" stroke="#1E1E1E" stroke-width=".709" stroke-miterlimit="10" d="M21.1 10.6l8.8-1.8c2.2-.5 4.4 1 4.8 3.2.1.6.1 1.2-.1 1.8H17.9c.3-1.5 1.6-2.8 3.2-3.2z"/><path fill="none" stroke="#1E1E1E" stroke-width=".709" stroke-miterlimit="10" d="M35 44.7h13.7v8.2H35zM10.1 53.1v-1.8m0 0c0-2.7 1.1-5.1 2.8-6.8m.1 0c1.8-1.8 4.2-2.8 6.8-2.8m0 0c2.7 0 5.1 1.1 6.8 2.8m0 0c1.8 1.8 2.9 4.2 2.9 6.8m0 0v1.8M7.6 19.2v10.9"/><path fill-rule="evenodd" clip-rule="evenodd" fill="#E3AA8D" stroke="#1E1E1E" stroke-width=".709" stroke-miterlimit="10" d="M42.6.4h163.1v39.5H42.6z"/><path fill="none" stroke="#1E1E1E" stroke-width=".709" stroke-miterlimit="10" d="M59.7 39.9v2.6M68 39.9v2.4M202.9 39.9h2.8v10.5h-2.8zM93 45.7h39.2M180.8 45.6h22.1M48.7 44.7h8.2M48.7 52.8h5.6M19.8 53.3c1 0 1.9-.9 1.9-1.9 0-1-.9-1.9-1.9-1.9-1.1 0-1.9.9-1.9 1.9-.1 1 .8 1.9 1.9 1.9z"/><path fill-rule="evenodd" clip-rule="evenodd" fill="#8F8785" stroke="#1E1E1E" stroke-width=".709" stroke-miterlimit="10" d="M63.9 58.4c3.9 0 7.1-3.2 7.1-7.1 0-3.9-3.2-7.1-7.1-7.1-3.9 0-7.1 3.2-7.1 7.1 0 4 3.2 7.1 7.1 7.1z"/><path fill-rule="evenodd" clip-rule="evenodd" fill="#FFF" stroke="#1E1E1E" stroke-width=".709" stroke-miterlimit="10" d="M63.9 55.5c2.3 0 4.2-1.9 4.2-4.2s-1.9-4.2-4.2-4.2c-2.3 0-4.2 1.9-4.2 4.2s1.9 4.2 4.2 4.2z"/><path fill="none" stroke="#1E1E1E" stroke-width=".709" stroke-miterlimit="10" d="M54.3 53.1v-1.8m0 0c0-2.7 1.1-5.1 2.8-6.8m0 0c1.8-1.8 4.2-2.8 6.8-2.8m.1 0c2.7 0 5.1 1.1 6.8 2.8m0 0c1.8 1.8 2.8 4.2 2.8 6.8m0 0v1.8M63.9 53.3c1 0 1.9-.9 1.9-1.9 0-1-.9-1.9-1.9-1.9-1.1 0-1.9.9-1.9 1.9 0 1 .9 1.9 1.9 1.9z"/><path fill-rule="evenodd" clip-rule="evenodd" fill="#8F8785" stroke="#1E1E1E" stroke-width=".709" stroke-miterlimit="10" d="M85.1 58.4c3.9 0 7.1-3.2 7.1-7.1 0-3.9-3.2-7.1-7.1-7.1-3.9 0-7.1 3.2-7.1 7.1.1 4 3.3 7.1 7.1 7.1z"/><path fill-rule="evenodd" clip-rule="evenodd" fill="#FFF" stroke="#1E1E1E" stroke-width=".709" stroke-miterlimit="10" d="M85.1 55.5c2.3 0 4.2-1.9 4.2-4.2s-1.9-4.2-4.2-4.2c-2.3 0-4.2 1.9-4.2 4.2s1.9 4.2 4.2 4.2z"/><path fill="none" stroke="#1E1E1E" stroke-width=".709" stroke-miterlimit="10" d="M75.5 53.1v-1.8m0 0c0-2.7 1.1-5.1 2.9-6.8m0 0c1.8-1.8 4.2-2.8 6.8-2.8m0 0c2.7 0 5.1 1.1 6.8 2.8m0 0c1.8 1.8 2.8 4.2 2.8 6.8m.1 0v1.8M85.1 53.3c1.1 0 1.9-.9 1.9-1.9 0-1-.9-1.9-1.9-1.9-1 0-1.9.9-1.9 1.9 0 1 .9 1.9 1.9 1.9zM127.8 39.9v5.8"/><path fill-rule="evenodd" clip-rule="evenodd" fill="#8F8785" stroke="#1E1E1E" stroke-width=".709" stroke-miterlimit="10" d="M140.1 58.4c3.9 0 7.1-3.2 7.1-7.1 0-3.9-3.2-7.1-7.1-7.1-3.9 0-7.1 3.2-7.1 7.1 0 4 3.2 7.1 7.1 7.1z"/><path fill-rule="evenodd" clip-rule="evenodd" fill="#FFF" stroke="#1E1E1E" stroke-width=".709" stroke-miterlimit="10" d="M140.1 55.5c2.3 0 4.2-1.9 4.2-4.2s-1.9-4.2-4.2-4.2c-2.3 0-4.2 1.9-4.2 4.2s1.9 4.2 4.2 4.2z"/><path fill="none" stroke="#1E1E1E" stroke-width=".709" stroke-miterlimit="10" d="M130.5 53.1v-1.8m0 0c0-2.7 1.1-5.1 2.8-6.8m0 0c1.8-1.8 4.2-2.8 6.8-2.8M140.1 53.3c1.1 0 1.9-.9 1.9-1.9 0-1-.9-1.9-1.9-1.9-1 0-1.9.9-1.9 1.9-.1 1 .8 1.9 1.9 1.9z"/><path fill-rule="evenodd" clip-rule="evenodd" fill="#8F8785" stroke="#1E1E1E" stroke-width=".709" stroke-miterlimit="10" d="M173 58.4c3.9 0 7.1-3.2 7.1-7.1 0-3.9-3.2-7.1-7.1-7.1-3.9 0-7.1 3.2-7.1 7.1.1 4 3.2 7.1 7.1 7.1z"/><path fill-rule="evenodd" clip-rule="evenodd" fill="#FFF" stroke="#1E1E1E" stroke-width=".709" stroke-miterlimit="10" d="M173 55.5c2.3 0 4.2-1.9 4.2-4.2s-1.9-4.2-4.2-4.2c-2.3 0-4.2 1.9-4.2 4.2s1.9 4.2 4.2 4.2z"/><path fill="none" stroke="#1E1E1E" stroke-width=".709" stroke-miterlimit="10" d="M182.7 53.1v-1.8m0 0c0-2.7-1.1-5.1-2.8-6.8m-.1 0c-1.8-1.8-4.2-2.8-6.8-2.8M173 53.3c1 0 1.9-.9 1.9-1.9 0-1-.9-1.9-1.9-1.9-1.1 0-1.9.9-1.9 1.9 0 1 .9 1.9 1.9 1.9z"/><path fill-rule="evenodd" clip-rule="evenodd" fill="#8F8785" stroke="#1E1E1E" stroke-width=".709" stroke-miterlimit="10" d="M156.7 58.4c3.9 0 7.1-3.2 7.1-7.1 0-3.9-3.2-7.1-7.1-7.1-3.9 0-7.1 3.2-7.1 7.1 0 4 3.1 7.1 7.1 7.1z"/><path fill-rule="evenodd" clip-rule="evenodd" fill="#FFF" stroke="#1E1E1E" stroke-width=".709" stroke-miterlimit="10" d="M156.7 55.5c2.3 0 4.2-1.9 4.2-4.2s-1.9-4.2-4.2-4.2c-2.3 0-4.2 1.9-4.2 4.2s1.8 4.2 4.2 4.2z"/><path fill-rule="evenodd" clip-rule="evenodd" fill="#FFF" stroke="#1E1E1E" stroke-width=".709" stroke-miterlimit="10" d="M156.7 53.3c1 0 1.9-.9 1.9-1.9 0-1-.9-1.9-1.9-1.9-1.1 0-1.9.9-1.9 1.9-.1 1 .8 1.9 1.9 1.9z"/><path fill="none" stroke="#1E1E1E" stroke-width=".709" stroke-miterlimit="10" d="M140.1 41.7H173M186.4 39.9v5.7M97.2 39.9v5.8M21.2 19.2v8.2"/><path fill="none" stroke="#1E1E1E" stroke-width=".709" stroke-linecap="round" stroke-miterlimit="10" d="M15.4 31.8h1.8"/><path fill-rule="evenodd" clip-rule="evenodd" fill="#C8C7C9" stroke="#1E1E1E" stroke-width=".709" stroke-miterlimit="10" d="M34.7 13.8h2.2v22.5h-2.2z"/><path fill-rule="evenodd" clip-rule="evenodd" fill="#E3AA8D" stroke="#1E1E1E" stroke-width=".709" stroke-miterlimit="10" d="M46.1 3.4h156.2v33.5H46.1z"/><path fill-rule="evenodd" clip-rule="evenodd" fill="#E3AA8D" stroke="#1E1E1E" stroke-width=".709" stroke-miterlimit="10" d="M46.1 26.9h156.2v10H46.1z"/></svg>