<svg xmlns="http://www.w3.org/2000/svg" viewBox="0 0 303.4 83.2"><path fill-rule="evenodd" clip-rule="evenodd" fill="#DEDEE5" stroke="#1E1E1E" stroke-width=".709" stroke-miterlimit="10" d="M288.3 55.5H15.1v5.6h74.7v.1l6.5 6.9H207.1l6.5-6.9v-.1h74.7z"/><path fill-rule="evenodd" clip-rule="evenodd" fill="#9BA6D5" stroke="#1E1E1E" stroke-width=".709" stroke-miterlimit="10" d="M15.2.4h272.9v55.2H15.2z"/><path fill-rule="evenodd" clip-rule="evenodd" fill="#9D938F" stroke="#1E1E1E" stroke-width=".709" stroke-miterlimit="10" d="M34.1 82.8c5.1 0 9.2-4.2 9.2-9.3 0-5.1-4.1-9.2-9.2-9.2s-9.3 4.2-9.3 9.2c.1 5.1 4.2 9.3 9.3 9.3z"/><path fill-rule="evenodd" clip-rule="evenodd" fill="#D1D1D3" stroke="#1E1E1E" stroke-width=".709" stroke-miterlimit="10" d="M34.1 80.4c3.8 0 6.8-3.1 6.8-6.9 0-3.7-3.1-6.8-6.8-6.8s-6.8 3.1-6.8 6.8c0 3.8 3.1 6.9 6.8 6.9z"/><path fill-rule="evenodd" clip-rule="evenodd" fill="#9D938F" stroke="#1E1E1E" stroke-width=".709" stroke-miterlimit="10" d="M70.3 82.8c5.1 0 9.2-4.2 9.2-9.3 0-5.1-4.1-9.2-9.2-9.2S61 68.5 61 73.5c0 5.1 4.2 9.3 9.3 9.3z"/><path fill-rule="evenodd" clip-rule="evenodd" fill="#D1D1D3" stroke="#1E1E1E" stroke-width=".709" stroke-miterlimit="10" d="M70.3 80.4c3.8 0 6.8-3.1 6.8-6.9 0-3.7-3.1-6.8-6.8-6.8s-6.8 3.1-6.8 6.8c0 3.8 3 6.9 6.8 6.9z"/><path fill-rule="evenodd" clip-rule="evenodd" fill="#C8C7C9" stroke="#1E1E1E" stroke-width=".709" stroke-miterlimit="10" d="M49.3 68.5H79.4v3.8H67.2c-4 0-7 2.2-8.3 6.1H44.8c-1.3-3.9-4.3-6.1-8.3-6.1H25v-3.8h24.3z"/><path fill-rule="evenodd" clip-rule="evenodd" fill="#FFF" stroke="#1E1E1E" stroke-width=".709" stroke-miterlimit="10" d="M34.1 76.4c1.6 0 2.9-1.3 2.9-2.9 0-1.6-1.3-2.9-2.9-2.9s-2.9 1.3-2.9 2.9c.1 1.7 1.4 2.9 2.9 2.9zM70.3 76.4c1.6 0 2.9-1.3 2.9-2.9 0-1.6-1.3-2.9-2.9-2.9s-2.9 1.3-2.9 2.9c0 1.7 1.3 2.9 2.9 2.9z"/><path fill-rule="evenodd" clip-rule="evenodd" fill="#9D938F" stroke="#1E1E1E" stroke-width=".709" stroke-miterlimit="10" d="M45.6 66.9h4.8v8.3h-4.8z"/><path fill="none" stroke="#1E1E1E" stroke-width=".709" stroke-miterlimit="10" d="M45.6 73.7h4.8M45.6 72h4.8M45.6 70.3h4.8M45.6 68.5h4.8"/><path fill-rule="evenodd" clip-rule="evenodd" fill="#9D938F" stroke="#1E1E1E" stroke-width=".709" stroke-miterlimit="10" d="M53 66.9h4.8v8.3H53z"/><path fill="none" stroke="#1E1E1E" stroke-width=".709" stroke-miterlimit="10" d="M53 73.7h4.8M53 72h4.8M53 70.3h4.8M53 68.5h4.8"/><path fill-rule="evenodd" clip-rule="evenodd" fill="#9D938F" stroke="#1E1E1E" stroke-width=".709" stroke-miterlimit="10" d="M42.5 64.9h18.9v3.6H42.5z"/><path fill="none" stroke="#1E1E1E" stroke-width=".709" stroke-miterlimit="10" d="M99 61.2h27.6M177.3 61.2h27.6"/><path fill-rule="evenodd" clip-rule="evenodd" fill="#9D938F" stroke="#1E1E1E" stroke-width=".709" stroke-miterlimit="10" d="M5 55.5h10.1v3.9H5z"/><path fill-rule="evenodd" clip-rule="evenodd" fill="#9D938F" stroke="#1E1E1E" stroke-width=".709" stroke-miterlimit="10" d="M.4 53.5h4.7v8.2H.4z"/><path fill="none" stroke="#1E1E1E" stroke-width=".709" stroke-miterlimit="10" d="M28.2 66.4l-4.5-5.3M76.5 66.4l4.6-5.3M27.5 7.1v41.7M39.3 7.1v41.7M51.2 7.1v41.7M63 7.1v41.7M74.8 7.1v41.7M86.6 7.1v41.7M98.4 7.1v41.7M110.3 7.1v41.7M122.1 7.1v41.7M133.9 7.1v41.7M145.7 7.1v41.7M157.5 7.1v41.7M169.4 7.1v41.7M181.2 7.1v41.7M193 7.1v41.7M204.8 7.1v41.7M216.7 7.1v41.7M228.5 7.1v41.7M240.3 7.1v41.7M252.1 7.1v41.7M263.9 7.1v41.7M275.8 7.1v41.7"/><path fill-rule="evenodd" clip-rule="evenodd" fill="#9D938F" stroke="#1E1E1E" stroke-width=".709" stroke-miterlimit="10" d="M269.3 82.8c5.1 0 9.3-4.2 9.3-9.3 0-5.1-4.2-9.2-9.3-9.2s-9.2 4.2-9.2 9.2c-.1 5.1 4.1 9.3 9.2 9.3z"/><path fill-rule="evenodd" clip-rule="evenodd" fill="#D1D1D3" stroke="#1E1E1E" stroke-width=".709" stroke-miterlimit="10" d="M269.3 80.4c3.8 0 6.8-3.1 6.8-6.9 0-3.7-3.1-6.8-6.8-6.8s-6.8 3.1-6.8 6.8c-.1 3.8 3 6.9 6.8 6.9z"/><path fill-rule="evenodd" clip-rule="evenodd" fill="#9D938F" stroke="#1E1E1E" stroke-width=".709" stroke-miterlimit="10" d="M233.1 82.8c5.1 0 9.3-4.2 9.3-9.3 0-5.1-4.2-9.2-9.3-9.2-5.1 0-9.3 4.2-9.3 9.2 0 5.1 4.2 9.3 9.3 9.3z"/><path fill-rule="evenodd" clip-rule="evenodd" fill="#D1D1D3" stroke="#1E1E1E" stroke-width=".709" stroke-miterlimit="10" d="M233.1 80.4c3.8 0 6.8-3.1 6.8-6.9 0-3.7-3.1-6.8-6.8-6.8s-6.8 3.1-6.8 6.8c0 3.8 3 6.9 6.8 6.9z"/><path fill-rule="evenodd" clip-rule="evenodd" fill="#C8C7C9" stroke="#1E1E1E" stroke-width=".709" stroke-miterlimit="10" d="M254.1 68.5H224v3.8h12.3c4 0 7 2.2 8.3 6.1h14.1c1.3-3.9 4.3-6.1 8.3-6.1h11.5v-3.8h-24.4z"/><path fill-rule="evenodd" clip-rule="evenodd" fill="#FFF" stroke="#1E1E1E" stroke-width=".709" stroke-miterlimit="10" d="M269.3 76.4c1.6 0 2.9-1.3 2.9-2.9 0-1.6-1.3-2.9-2.9-2.9s-2.9 1.3-2.9 2.9c0 1.7 1.3 2.9 2.9 2.9zM233.1 76.4c1.6 0 2.9-1.3 2.9-2.9 0-1.6-1.3-2.9-2.9-2.9s-2.9 1.3-2.9 2.9c0 1.7 1.3 2.9 2.9 2.9z"/><path fill-rule="evenodd" clip-rule="evenodd" fill="#9D938F" stroke="#1E1E1E" stroke-width=".709" stroke-miterlimit="10" d="M253 66.9h4.8v8.3H253z"/><path fill="none" stroke="#1E1E1E" stroke-width=".709" stroke-miterlimit="10" d="M257.8 73.7H253M257.8 72H253M257.8 70.3H253M257.8 68.5H253"/><path fill-rule="evenodd" clip-rule="evenodd" fill="#9D938F" stroke="#1E1E1E" stroke-width=".709" stroke-miterlimit="10" d="M245.6 66.9h4.8v8.3h-4.8z"/><path fill="none" stroke="#1E1E1E" stroke-width=".709" stroke-miterlimit="10" d="M250.4 73.7h-4.8M250.4 72h-4.8M250.4 70.3h-4.8M250.4 68.5h-4.8"/><path fill-rule="evenodd" clip-rule="evenodd" fill="#9D938F" stroke="#1E1E1E" stroke-width=".709" stroke-miterlimit="10" d="M242 64.9h18.9v3.6H242zM288.3 55.5h10.1v3.9h-10.1z"/><path fill-rule="evenodd" clip-rule="evenodd" fill="#9D938F" stroke="#1E1E1E" stroke-width=".709" stroke-miterlimit="10" d="M298.4 53.5h4.7v8.2h-4.7z"/><path fill="none" stroke="#1E1E1E" stroke-width=".709" stroke-miterlimit="10" d="M275.2 66.4l4.5-5.3M226.9 66.4l-4.5-5.3"/></svg>