<svg xmlns="http://www.w3.org/2000/svg" viewBox="0 0 419.9 141.3"><path fill-rule="evenodd" clip-rule="evenodd" fill="#FFF" stroke="#1E1E1E" stroke-width=".709" stroke-linecap="round" stroke-miterlimit="10" d="M90.9 105.8V82.3l14.9-17.5h19.9l.1 40.9-33.4.1h-1.5z"/><path fill-rule="evenodd" clip-rule="evenodd" fill="#FFF" stroke="#1E1E1E" stroke-width=".709" stroke-linecap="round" stroke-miterlimit="10" d="M68.3 91.8l10.4-38.1 12.6-.2-.4 23.4v14.9zm37.4-37.1h25.5v10.1h-25.5zm10.2-19.3h2.3v19.1h-3.7zm-1.4-3.5h11.3v3.5h-11.3z"/><path fill-rule="evenodd" clip-rule="evenodd" fill="#FFF" stroke="#1E1E1E" stroke-width=".709" stroke-linecap="round" stroke-miterlimit="10" d="M62.1 89.1h63.8v16.6H62.1z"/><path fill="none" stroke="#1E1E1E" stroke-width=".709" stroke-linecap="round" stroke-miterlimit="10" d="M109.7 58.5v1.3m4-1.3v1.3m3.9-1.3v1.3m13.1-.5h-7.3m-33 5.1H75.7m14.7 15.9H71.5m53.7-7.7H99.4m25.8 8H92.9m24.3-48.7V.9m.5 11.4h2.7m-2.7 4.8h2.7m-2.7 0h2.7m-2.7 4.8h2.7m-2.7 5h2.7"/><path fill-rule="evenodd" clip-rule="evenodd" fill="#FFF" stroke="#1E1E1E" stroke-width=".709" stroke-linecap="round" stroke-miterlimit="10" d="M117.4 4.9c1.2 0 2.3-1 2.3-2.3 0-1.2-1-2.3-2.3-2.3-1.3 0-2.3 1-2.3 2.3.1 1.3 1 2.3 2.3 2.3z"/><path fill="none" stroke="#1E1E1E" stroke-width=".709" stroke-linecap="round" stroke-miterlimit="10" d="M110.4 68.3v1.3m4-1.3v1.3m3.9-1.3v1.3m3.9-1.3v1.3m-19.3 3.5l5 7.1m-5 1.1l5 7.1m2.5-12.5v1.3m4-1.3v1.3m3.9-1.3v1.3m3.9-1.3v1.3m-11.8 6.7v1.3m4-1.3v1.3m3.9-1.3v1.3m3.9-1.3v1.3M93.1 97.5v.1c0 2-1.7 3.7-3.8 3.7h-13c-2.1 0-3.7-1.7-3.7-3.7v-.1h20.5zm-16.7-.8v-2.4m6.7 2.4v-2.4m6.7 2.4v-2.4m4.1-.9H72.2m30.7-3.4l5 7.1m17.3.4H92.9m10 .6l5 7.1"/><path fill-rule="evenodd" clip-rule="evenodd" fill="#FFF" stroke="#1E1E1E" stroke-width=".709" stroke-linecap="round" stroke-miterlimit="10" d="M343.8 101.6h16.5v3h-16.5zm20 0h16.5v3h-16.5zm29.9-16.1h2.4v19h-3.8zm-3.2-3.5h7v3.4h-7z"/><path fill="none" stroke="#1E1E1E" stroke-width=".709" stroke-linecap="round" stroke-miterlimit="10" d="M395.1 82V61.8m-1.4 10.1h2.8m-2.8 3.9h2.8"/><path fill-rule="evenodd" clip-rule="evenodd" fill="#FFF" stroke="#1E1E1E" stroke-width=".709" stroke-linecap="round" stroke-miterlimit="10" d="M27.3 101.1h34.8v4.6H27.3zM40.5 87L3.9 64.9l-2.6.5 33.6 24.1zm-4.8 3.4H40V101h-4.3z"/><path fill-rule="evenodd" clip-rule="evenodd" fill="#FFF" stroke="#1E1E1E" stroke-width=".709" stroke-linecap="round" stroke-miterlimit="10" d="M32.6 82h9.3v10.6h-9.3z"/><path fill="#FFF" stroke="#1E1E1E" stroke-width=".709" stroke-linecap="round" stroke-miterlimit="10" d="M396.9 135.9c.4.8 2.1 3.3 2.1 3.3-1.9.3-3.9 1.7-5.8 1.7-2.2 0-4.4-1.8-6.6-1.8-2.2 0-4.4 1.8-6.6 1.8-2.2 0-4.4-1.8-6.6-1.8-2.2 0-4.4 1.8-6.6 1.8-2.2 0-4.4-1.8-6.6-1.8-2.2 0-4.4 1.8-6.6 1.8-2.2 0-4.4-1.8-6.6-1.8-2.2 0-4.4 1.8-6.6 1.8-2.2 0-4.4-1.8-6.6-1.8-2.2 0-4.4 1.8-6.5 1.8-2.2 0-4.4-1.8-6.6-1.8-2.2 0-4.4 1.8-6.6 1.8-2.2 0-4.4-1.8-6.6-1.8-2.2 0-4.4 1.8-6.6 1.8-2.2 0-4.4-1.8-6.6-1.8-2.2 0-4.4 1.8-6.6 1.8-2.2 0-4.4-1.8-6.6-1.8-2.2 0-4.4 1.8-6.6 1.8-2.2 0-4.4-1.8-6.6-1.8-2.2 0-4.4 1.8-6.6 1.8-2.2 0-4.4-1.8-6.6-1.8-2.2 0-4.4 1.8-6.6 1.8-2.2 0-4.4-1.8-6.6-1.8-2.2 0-4.4 1.8-6.6 1.8-2.2 0-4.4-1.8-6.6-1.8-2.2 0-4.4 1.8-6.6 1.8-2.2 0-4.4-1.8-6.6-1.8-2.2 0-4.4 1.8-6.6 1.8-2.2 0-4.4-1.8-6.6-1.8-2.2 0-4.4 1.8-6.6 1.8s-4.4-1.8-6.6-1.8c-2.2 0-4.4 1.8-6.6 1.8-2.2 0-4.4-1.8-6.6-1.8-2.2 0-4.4 1.8-6.6 1.8-2.2 0-4.4-1.8-6.6-1.8-2.2 0-4.4 1.8-6.6 1.8h.2c-2.2 0-4.4-1.8-6.6-1.8-2.2 0-4.4 1.8-6.6 1.8-2.2 0-4.4-1.8-6.6-1.8s-4.4 1.8-6.6 1.8c-2.2 0-4.4-1.8-6.6-1.8-2.2 0-4.4 1.8-6.6 1.8-2.2 0-4.4-1.8-6.6-1.8-2.2 0-4.4 1.8-6.6 1.8h-.1c-2.2 0-4.4-1.8-6.6-1.8-2.2 0-4.4 1.8-6.6 1.8-2.2 0-4.4-1.8-6.6-1.8-2.2 0-4.4 1.8-6.6 1.8-2.2 0-4.4-1.8-6.6-1.8-2.2 0-4.4 1.8-6.6 1.8-2.2 0-4.4-1.8-6.6-1.8-2.2 0-4.4 1.8-6.6 1.8s-4.4-1.8-6.6-1.8c-2.2 0-4.4 1.8-6.6 1.8-2.2 0-6.6-1.8-6.6-1.8-9.6-17-7.6-33.3-7.6-33.3l116.3-.1c3.3 4.3 5.1 5.8 10.6 6.1l166.6.1c4.5 0 7.6.2 12-.9 4.8-1.2 9-3.2 12.2-6.4H419L401.1 125c-2.7 3.1-5.8 7.5-4.2 10.9"/><path fill="none" stroke="#1E1E1E" stroke-width=".709" stroke-linecap="round" stroke-miterlimit="10" d="M30.5 139.1c-2.2 0-4.4 1.8-6.6 1.8-2.2 0-4.4-1.8-6.6-1.8-2.2 0-4.4 1.8-6.6 1.8m408.2 0c-2.2 0-4.4-1.8-6.6-1.8s-4.4 1.8-6.6 1.8c-2.2 0-4.4-1.8-6.6-1.8M36.6 85.6h-4M2.7 81.7V67.8"/><path fill-rule="evenodd" clip-rule="evenodd" fill="#FFF" stroke="#1E1E1E" stroke-width=".709" stroke-linecap="round" stroke-miterlimit="10" d="M2.7 63.3h.2c1.3 0 2.4 1.1 2.4 2.4C5.3 67 4.2 68 2.9 68h-.2c-1.3 0-2.4-1-2.4-2.4.1-1.2 1.1-2.3 2.4-2.3zM1.1 81.7h3.3v1.8H1.1zm48.5 12.6h7.1v2.6h-7.1z"/><path fill-rule="evenodd" clip-rule="evenodd" fill="#FFF" stroke="#1E1E1E" stroke-width=".709" stroke-linecap="round" stroke-miterlimit="10" d="M51.1 96.8h4.3v4.1h-4.3z"/><path fill="none" stroke="#1E1E1E" stroke-width=".709" stroke-linecap="round" stroke-miterlimit="10" d="M41.2 110.3h-5.9m20.6 0h-5.8"/><path fill-rule="evenodd" clip-rule="evenodd" fill="#BCBCD1" stroke="#1E1E1E" stroke-width=".709" stroke-miterlimit="10" d="M149.4 100.7h25.5v11.1h-25.5z"/><path fill-rule="evenodd" clip-rule="evenodd" fill="#9BA6D5" stroke="#1E1E1E" stroke-width=".709" stroke-miterlimit="10" d="M174.9 100.7h25.5v11.1h-25.5z"/><path fill-rule="evenodd" clip-rule="evenodd" fill="#E3AA8D" stroke="#1E1E1E" stroke-width=".709" stroke-miterlimit="10" d="M200.3 100.7h25.5v11.1h-25.5z"/><path fill-rule="evenodd" clip-rule="evenodd" fill="#DEDEE5" stroke="#1E1E1E" stroke-width=".709" stroke-miterlimit="10" d="M225.8 89.6h25.5v11h-25.5z"/><path fill-rule="evenodd" clip-rule="evenodd" fill="#E3AA8D" stroke="#1E1E1E" stroke-width=".709" stroke-miterlimit="10" d="M251.4 89.6h25.5v22.2h-25.5z"/><path fill-rule="evenodd" clip-rule="evenodd" fill="#DEDEE5" stroke="#1E1E1E" stroke-width=".709" stroke-miterlimit="10" d="M276.9 100.7h25.5v11.1h-25.5z"/><path fill-rule="evenodd" clip-rule="evenodd" fill="#9BA6D5" stroke="#1E1E1E" stroke-width=".709" stroke-miterlimit="10" d="M302.4 100.7h25.5v10.4l-3.5.7h-22z"/><path fill-rule="evenodd" clip-rule="evenodd" fill="#DEDEE5" stroke="#1E1E1E" stroke-width=".709" stroke-miterlimit="10" d="M149.4 89.6h25.5v11h-25.5z"/><path fill-rule="evenodd" clip-rule="evenodd" fill="#BCBCD1" stroke="#1E1E1E" stroke-width=".709" stroke-miterlimit="10" d="M174.9 89.6h25.5v11h-25.5z"/><path fill-rule="evenodd" clip-rule="evenodd" fill="#DEDEE5" stroke="#1E1E1E" stroke-width=".709" stroke-miterlimit="10" d="M200.3 78.5h25.5v22.1h-25.5z"/><path fill-rule="evenodd" clip-rule="evenodd" fill="#BCBCD1" stroke="#1E1E1E" stroke-width=".709" stroke-miterlimit="10" d="M225.8 100.7h25.5v11.1h-25.5zm51.1-11.1h25.5v11h-25.5z"/><path fill-rule="evenodd" clip-rule="evenodd" fill="#E3AA8D" stroke="#1E1E1E" stroke-width=".709" stroke-miterlimit="10" d="M149.4 78.5h25.5v11.1h-25.5z"/><path fill-rule="evenodd" clip-rule="evenodd" fill="#9BA6D5" stroke="#1E1E1E" stroke-width=".709" stroke-miterlimit="10" d="M251.4 78.5h25.5v11.1h-25.5z"/><path fill-rule="evenodd" clip-rule="evenodd" fill="#E3AA8D" stroke="#1E1E1E" stroke-width=".709" stroke-miterlimit="10" d="M276.9 78.5h25.5v11.1h-25.5z"/><path fill="none" stroke="#1E1E1E" stroke-width=".709" stroke-miterlimit="10" d="M203 80.9h20.2v17.5H203z"/><path fill="none" stroke="#1E1E1E" stroke-width=".567" stroke-miterlimit="10" d="M203 98.3l20.1-17.4"/><path fill-rule="evenodd" clip-rule="evenodd" fill="#DEDEE5" stroke="#1E1E1E" stroke-width=".709" stroke-miterlimit="10" d="M174.9 78.5h12.8v11.1h-12.8zm50.9 11.1h12.8v11h-12.8zm76.7 0h12.8v11.1h-12.8z"/><path fill="none" stroke="#1E1E1E" stroke-width=".709" stroke-miterlimit="10" d="M228.2 91.7h7.9v6.8h-7.9zm12.8 0h7.9v6.8H241zm-63.7-11h7.9v6.8h-7.9z"/><path fill="none" stroke="#1E1E1E" stroke-width=".567" stroke-linecap="round" stroke-miterlimit="10" d="M153.6 103.5v5.5m3.4-5.5v5.5m3.3-5.5v5.5m3.4-5.5v5.5m3.4-5.5v5.5m3.4-5.5v5.5m-16.9-27.7v5.5m3.4-5.5v5.5m3.3-5.5v5.5m3.4-5.5v5.5m3.4-5.5v5.5m3.4-5.5v5.5m59.8 16.7v5.5m3.3-5.5v5.5m3.4-5.5v5.5m3.4-5.5v5.5m3.4-5.5v5.5m3.4-5.5v5.5m-67.9-16.7v5.5m3.4-5.5v5.5m3.3-5.5v5.5m3.4-5.5v5.5m3.4-5.5v5.5m3.4-5.5v5.5m8.3 5.7v5.5m3.4-5.5v5.5m3.4-5.5v5.5m3.4-5.5v5.5m3.4-5.5v5.5m3.3-5.5v5.5m34.4-16.4v15.8m3.3-15.8v15.8m3.4-15.8v15.8m3.4-15.8v15.8m3.3-15.8v15.8m3.5-15.8v15.8m8.6-16v5.5m3.4-5.5v5.5m3.3-5.5v5.5m3.4-5.5v5.5m3.4-5.5v5.5m3.4-5.5v5.5m8.5 5.6v5.5m3.4-5.5v5.5m3.3-5.5v5.5m3.4-5.5v5.5m3.4-5.5v5.5m3.4-5.5v5.5"/><path fill="none" stroke="#1E1E1E" stroke-width=".709" stroke-linecap="round" stroke-miterlimit="10" d="M354.3 110.3h-5.9m26.8 0h-5.8"/></svg>