<svg xmlns="http://www.w3.org/2000/svg" viewBox="0 0 44.3 19.6"><path fill-rule="evenodd" clip-rule="evenodd" fill="#FFF" stroke="#272929" stroke-width=".6" stroke-linecap="round" stroke-miterlimit="10" d="M14.9 13h14.6v6.3H14.9zM.3 6.6h14.6v6.3H.3z"/><path fill-rule="evenodd" clip-rule="evenodd" fill="#FFF" stroke="#272929" stroke-width=".6" stroke-miterlimit="10" d="M14.9.3h14.6v12.6H14.9zM.3 13h14.6v6.3H.3zM7.6 6.6h7.3v6.3H7.6z"/><path fill="none" stroke="#272929" stroke-width=".6" stroke-linecap="round" stroke-miterlimit="10" d="M12.3 14.5v3.2M10.4 14.5v3.2M8.4 14.5v3.2M6.5 14.5v3.2M4.6 14.5v3.2M2.7 14.5v3.2"/><path fill-rule="evenodd" clip-rule="evenodd" fill="#FFF" stroke="#272929" stroke-width=".6" stroke-linecap="round" stroke-miterlimit="10" d="M29.4 13H44v6.3H29.4z"/><path fill="none" stroke="#272929" stroke-width=".6" stroke-linecap="round" stroke-miterlimit="10" d="M41.6 14.5v3.2M39.6 14.5v3.2M37.7 14.5v3.2M35.8 14.5v3.2M33.9 14.5v3.2M31.9 14.5v3.2"/><path fill-rule="evenodd" clip-rule="evenodd" fill="#FFF" stroke="#272929" stroke-width=".6" stroke-miterlimit="10" d="M29.4 6.6h7.3v6.3h-7.3zM22.2 13h7.3v6.3h-7.3z"/></svg>