<svg id="Layer_1" xmlns="http://www.w3.org/2000/svg" viewBox="0 0 781.1 415.9"><style>.st0{fill-rule:evenodd;clip-rule:evenodd;fill:#8b8d8e}</style><path class="st0" d="M22.3 249.9l-6.4-8.4 3.8-10.7-3.3-2.7-2.4 1.7-9.4-6.4-1.5 2.4.3 7.4L0 237l1.1 5.8 6.3-.4 6.7 8.4 5 2.9.3-.3 2.9-3.5zM631.5 82.6l-.7 1.9 1.6 1.1 1.9-1.1-.7-2.3-2.1.4zM18.9 253.2l-4.6-2.7-6.7-8.5-6.1.4-.9-5.1 3.5-3.7-.4-7.5 1.2-1.9 9.2 6.3 2.3-1.6 2.7 2.2-3.7 10.6 6.3 8.3-2.8 3.2zm219.5-33.1l-.1-.1-7.4-6.1-2.7 1.5h-.2l-7.3-.8v-.1l-4.9-2.5-4.5-5.1-5.8-.6-1.7 4.3 4.1 5.4v.2l.2 3.9v.2l-.2.1-6.8 2.9v2.3l1.9 1.6.2.1-2.1 2.8-1.9 2.1-2.5 6.4-2.1 2.2-1.4 3.5-2.3 2.5-.1.1h-.1l-2-.1-.1 4.8 2.2-.1h.3v3.8l4.8.2h.2v.2l.2 2.7 2 .5h.1v.1l.3 1.4.3 1.9.7 1 1.8-.5 4-4.8.1-.1h.1l4.6-.5 2.9-4.6.2-.3.2.2 2.1 2.3 1.8-1.2.7-3.2v-.2h.2l5.1-.2 1.4-1.7.4-3.5v-.2l2.2-2.6-1.6-3.2v-.2l.1-2.6v-.1l.1-.1 5.4-2.4 6.2-6.1 4.2-5.5.8-1.8-4.3-.1zM780.6 239l-1-13.1-1.4-6-4.3-4.3.4-6.4 2.2-1.8-7.4-8.6.1-6 3.1-3.4-.8-3.4-6.3-1.8-6.4-11.4 1.6-1 2 2.7 3.1-2-4.8-4.6-2.6 1.4-4.2-2.7-.1.1-2.2-5.1h-4.3l-.5 3-2.7-.3-8.9-17.8.5-5.6 3.5-.8-2.6-10.4 5.6 4.4.1-12.5 4.4-4.6 6.7-.1-3.8-9.3-1.8-20-4.3 1.3h-.2l-3.2-1.7-5.5 15.9-.1.2h-.2l-7.1-.2-6.5 2-.2.1-.1-.2-2.1-5.8-8.8.5-1.6 2.8-.1.1h-.1l-6.1 1.4-1 3.1v.1h-.2l-3.3.3-1 3.7v.1h-.1l-3.8 1.2.7 3.7 5.5 7.9 3.4.7h.1v.1l2.3 6.1 3.8-.4h.1l.1.1 2.6 2.4.1.1v.1l.7 3.7 3.5 2 2.5-2.3-6.7-8 1.6-5.2 6.4-2.2-3.4 5.1.8 3.9 5.1 3.5 2.3.1-.1 3.7 2.2.5-2.1 10.4 2.4 3.9.8 12.1 1.8 7.8 2.5 7.8-2.9 3.1.9 3-1.6 2.1 4 4.7.7 7.4 5.6 6.3 6.6 7.4 36.1 24.9zm-305.9 6l-.1.1-.1-.1-2.7-2.1h-6.5v-.3l.4-3.6v-.2l3.8-4.5 1.1-3-2.4-1.7-.1-.1v-3.4l-2.1-2.3-.1-.1v-.1l1-4.6-2.5-1.9-.2-.2.2-.2 3.7-4.1-1.4-17.3-4.3-6.7 2.2-1.1 5.2-4.3.1-.1h.1l3.1.4 1.1-5.4 1.5-2.3.4-3v-.1l.1-.1 6.4-5.1-2.8-3.3-.1-.1V159l-5.6-7.9v-.1l-.8-4-1.7-2.3-.1-.1v-.1l.2-2.3-3.4 1.7-3.9 3-5.4 1.6-2.1 3.7.1-5.2 10.8-11.2 6-10.8 2.7-9.7-8.4-9.5-7.8-.3-2.7 3.9-3.1.5 2.3-6.7-6.4-.8 2.1-3-3.9-3.3-3.5 1.3-5.6 8.4 1.3 5-6 .4.1 1.6 2.2 3.3-4.3-.9-2.2 2.1-5-.9-.7-2.2-7.1.1.1 4-8.5 1.2-5.7 4.6-4.4.1-3.3 2.9-1.4 5.9 2.7 5-4.2 1-11.1-1.8-6.4-.1-2 3.5-.3 9.1 4 3.9 2 4.6H374l-4.8-9-3.5.2v.5l3.1 6.6.1.3-.3.1-3.3.6-.7 4 3.1 6.5v.2l-.8 3.1v.1h-.1l-7.3 3.2-.9 3.7 4.7 6.2 5.3 1.3h.2v.2l1.2 6.7-.3.9-1.9 4.8v.1h-.1l-4.9 1.3 1.5 3.5v.2l-1.6 4.6 3.9 5.1.1.1v.1l-1 9.2 3.1 4.3.1.1v.1l-1.2 6.6 4.7 3.5.1.1v.1l.8 4.8v.1l-.1.1-4.1 5.7-.4 5.1v.2l-6.4 8.1v6.3l5.2 3 .2.1-.1.2-.9 2.4v.1h-.1l-4.7 2-4 .5 1.7 6.1v.1l-.1.1-1.7 2.1v3.2l12.5 1.9h.1l.1.1 3.7 7.5 3.4.4h.2v.2l-.2 2.8v.1l-.1.1-4.9 4.3.4 3.5 2.7 2.7 4.1 1.3.2.1-.1.2-.7 2.4v.1h-.1l-4.5 3.4-.2 4.5v.2l-.6 2.9 3.9 7.6.1.2-.1.1-2 2-1.7.8 2 5.8h3.8l3.7-.4h.2l2.4 1.5.2.1-.1.2-1.3 2.7 2.8 4.3.7 3.7 1.3 3.9.2 2.8v.2l-.1.1-3.2 1.7v2.5l-1.1 2.4v.1h-.1L382 370l-1.8 3.9 5.5 3.9 9 1.2 3.9-3.3h.1l2.1-.5.1-2.1v-.1l.1-.1 3.2-2.1-.2-2.2v-.2l.2-.1 2.4-.6.8-3.2v-.2h.2l12-1 .6-2.8-6.7-6-.1-.1v-2.8l.1-.1 3-1.4h.2l3.7.4.8-11.7 2.4-4.6.1-.1h.1l4-.6.7-3.3-4.1-6.5-.1-.1.1-.1 3.8-7 .1-.1h.1l9.2-.4 2.5-3.3.2-.3.2.4 3.5 7.5 2-.8-.4-4.4v-.1l.1-.1 8.9-9.7.6-3.9v-.1l4.8-2.2.1.2 2.2 4.7 4 2.4.9-3.3v-.1l2.3-2.3-.9-2.7-2.1-.6-.2-.1v-.2l.2-2.6v-.1l.1-.1 3.1-3.3-.5-2.5-4.2-1.3h-.1v-.1l-1.2-4v-.1l.1-.1 2.1-2.9-1.9-3.2-.1-.2.2-.1 5.1-3.1 2.9-5.6-.4-4.4-2-3.1-.1-.1.1-.1 1.9-4.3-1-2.5-.2-4v-.2l.2-.1 3.6-1.6 3.7-.8 1.6-1.8-1.3-1.7-3.5 2zm50.8 133.7l-1.2 3.1 8.2 5.1 14.2-6.8-3.8-3.5-.3-.3.4-.1 2.5-.6.5-2.7-4.1-2.6-3.4.7-1.8 4.1-.1.3-.3-.2-1.8-1.6-2 4.2-.1.1h-.1l-6.8.8zm-1.6 2.9l1.2-3.1.1-.1.1-.1h.2l6.8-.8 1.9-4 .1-.3.1-.3.2.2.2.2 1.5 1.4 1.6-3.8v-.1l.1-.1h.2l3.4-.7h.2l.1.1.1.1 4.1 2.6.1.1.1.1v.4l-.5 2.7v.4h-.4l-2 .5 3.4 3.1.3.2.3.2-.3.2-.3.2-14.2 6.8-.1.1-.1.1-.1-.1-.1-.1-8.2-5.1-.2-.1-.2-.1.1-.2.2-.6zm-29.5 15.3l1.1-4 3.5-1.8.3-.2-.2-.2-3.6-3.9 3.4-2.7.1-.1-.1-.2-1.3-3.8H504l.1-.1 4-3.4 3.7.5h.1l.1-.1 6.8-9 4.3-.3h.1l.1-.1 1.3-2.2 3.7-1.5h.1l2.9-3.6v-.2l.3-3.9v-.1l-.1-.1-3-2v-3.3l6.4-4.9v-.1l2.2-5 5.7-2 .2-.1v-.2l-.3-4.8v-.1l-.1-.1-3.6-3.2h-.2l-3.8-.7-3.2-9.6v-.1l-1.9-1.7 1.8-2.6 6.5 1h.1l.1-.1 3.9-2.7.1-.1v-.1l.2-5.1v-.1l-.1-.1-4-2.8-.3-5.9 2.1-1.6 5.6-.2 6.9 12.9v.1h.1l5.4 3.6-1.6 2.2-.1.2.1.1 2.7 2.7.1.1.2-.1 4.4-2.5 2.1 3.7.1.2h.2l3.3-.8.5 6.6v.1l.1.1 3.4 1.9-1.9 2.7-.1.1.1.1 5.6 8.4-6.2 4.3-3.5 6.5 5 .5 2.4 6.3-3.5 3.5-2.1 13.1 2 4.8-4.7 3.3-2 5.4-13.8-2.2-3.3 3-2.3-2.2-7.8.4-5.6 5.2-1.2 3.8-3.7.1-11.5 6.9-17.1-1.6-2.2-4.2h-2zm-38.8-33.7l2.1-.7.2-.1.2-.1-.1-.2-.1-.2-.9-3.3 2.4-.9 2.1 4.1.1.2.1.2.2-.1.2-.1 5.2-3.1 1.7 2.4 1.6 1.5.1.1.1.1.1-.1.1-.1 2-.8h2.7l1.3 2-5.4 6.8-3.2-2.3h-.1l-.1-.1h-.2l-4.1.4-2.4-1.5-2.9-2.1h-.4l-2.8-.2.2-1.8zm-.1 2.2l-.5-2.4v-.2l.2-.1 2.3-.7-1-3.5-.1-.2.2-.1 2.8-1 .2-.1.1.2 2.2 4.3 5.4-3.2.2-.1.1.2 1.9 2.6 1.6 1.5 2.1-.8h3l.1.1 1.4 2.3.1.1-.1.1-5.6 7.1-.1.2-.2-.1-3.4-2.4-4.2.4h-.2l-2.5-1.5-2.9-2.1-3-.3h-.2l.1-.3zm23.6-120.2l1.9 2.8-2.3 1.4-.1.1V252.9h.2l2.9.2h.1l.1-.1 2-1.4 2.5 4.9-.2 6.2v.1l.1.1 3.4 1.9-1.5 6.3v.2l2 4.5v.1h.1l4.2 1.3-3.3 7.6-.7 9.9v.1l.1.1 3.6 3.8.1.2.2-.1 3.8-2.9 5.5-.2h.1l.1-.1 1.9-3.3 2.9 2.9.2.2.2-.2 4-4.7 6-12.9 3.9-.6 7.7 3.1 1.8 5.3.1.3.2-.1 4.8-2.2 2.8 1.9 5.1 11.6-5.5.2h-.2l-2.2 1.7-.1.1v.1l.3 6.2v.1l.1.1 4 2.8-.2 4.9-3.8 2.6-6.4-1-.3-3.2-.1-.6-.4.4-2.6 3-2.1-.3h-.2l-.1.2-1.2 4.5-10.5 2.8-1.8-2.4-.1-.1h-2.6l-2.5-1.3-.2-.1-.1.2-.8 3.2-4.9 1.6-2.8-1-.3-.1-.1.3-.6 3.1-5.3.7h-.3v.3l.5 2.9v.1l.1.1 3.1 2.6-2.6 3.1v.2l-.5 5v.2l2 4.6-1.9 5.5-2.5 6.9-2.9 4.5-2.4 4.1-.9 2.7-4.1 3.7-2 3-5.5 3.8-2.7.4-2 1.2-.2.1.1.2.9 2 .1.1h4.4l-.8 2.8-4 1.3-.6-2.4v-.1h-.2l-4.6-.9-.4-3.3v-.2l-3.3-4.3-.1-.1H454.3l-8.8-7-2.9-4-.1-.2-.2.1-4.6 3.3-2.6-.1-.2-.7v-.2h-.2l-4 .3-10-7-6.7-6v-2.3l2.8-1.3 3.9.4h.3v-.3l.8-11.9 2.3-4.4 4-.6h.2v-.2l.8-3.6v-.1l-.1-.1-4.1-6.4 3.6-6.7 9.2-.4h.1l.1-.1 2.3-3.1 3.4 7.4.1.2.2-.1 2.4-1 .2-.1v-.2l-.4-4.5 8.9-9.7.1-.1v-.1l.6-3.8 4-1.8 2.1 4.5v.1h.1l4.4 2.6.3.2.1-.3 1-3.5 2.3-2.3.1-.1v-.1l-1-3v-.1h-.1l-2-.5.2-2.3 3.1-3.3.1-.1v-.1l-.6-2.8v-.1h-.1l-4.2-1.4-1.1-3.7 2.1-2.9.1-.1-.1-.1-1.9-3.2 5-3.1h.1v-.1l3-5.8v-.2l-.4-4.6v-.2l-1.9-3.1 1.9-4.3v-.2l-1-2.5-.2-3.8 3.4-1.5 3.8-.8h.1l.1-.1.6-1.2zM367.3 143.6l1.8-2.6 1.5.8.5 4-1.5.7-2.3-2.9zm6 193.7l2 5.9.1.2h4.1l3.6-.4 2.2 1.4-1.2 2.7-.1-.1.1.1 2.8 4.3.6 3.7 1.3 3.9.2 2.7-3.1 1.7-.1.1v2.7l-1 2.3-3.4 1.3h-.1v.1l-1.9 4-2.7-.2h-.2l-.1.2-1.7 4.5-6.4.4v-.2l-.4.3-3.5 2.7-2.8-3.7 1-4.6 2.9-1.1 2.2-1.1 3.7-3.7.1-.1-.1-.1-.8-2.3.6-2.6v-.2l-.8-3.4 2.3-3 1.3-3.9.1-.2-.2-.1-3.6-1.3-.6-2 2.8-3.6.1-.1-.1-.1-1.5-3.6.6-2.7 1.7-.8zm-16.2-61.5l1.7 6.2-1.7 2.1-.1.1V288h.2l12.6 1.9 3.7 7.5.1.1h.1l3.3.4-.2 2.5-5 4.3-.1.1v.1l.4 3.7v.1l.1.1 2.8 2.8h.1l3.9 1.2-.6 2.1-4.5 3.5-.1.1v.1l-.2 4.4-4.4 1.9-5.4-2.4h-.2l-6.3.9h-.1l-.1.1-2.3 2.8h-8.9l-.1.1-3.1 2.6-1.1-1.5.4-6.7v-.3h-.3l-9.5-.3-1.7-3.1-.1-.1h-.1l-4.8.1-.9-3.3-3.1-4.1h-.1l-16.7-7.9V293.9l-.1-.1-2.2-2.3 2.3-2.8.1-.1v-.1l-.3-2.1 4.5-2.6.1-.1v-.1l.5-2.7 2.5-1.6 3.2.4h.2l.1-.2 2.8-8.9 3.7-2.8 4 1.2 5.6 3.7h.2l8.5.1 5.9 4.4.1.1.1-.1 7.1-4.1 3.5 2.7zM266 310.3l1.9.5.1 3.4-1.2 1.3.8 2.4-2.6 3 .5 2.2 5.6 1.3.3 3 2.7.1 2.1.5 2.1 2.3-3 2.5v2.1l3-.9 2.6 1.4 2.3-.5 2-1.7 5.6-1 2.2-5.3-.4-9.5v-.2l1.9-3.4v-.1h.1l3.3-1.4h.2l3.7.2-.9-3.3v-.2l.2-.1 3.1-1.8v-13.2l-2.2-2.4-.1-.2.1-.2 2.4-2.9-.2-1.8-4.4 3h-.2l-3.4-.1h-.2l-3.3-1.9-3.6.5h-.1l-.1-.1-4.7-3.4-2.1-.4-.4-.1.2-.3 1.5-2.1-2.3-2.3-4.4 4.3-.4 4v.2l-1.3 1.5.3 1.3 2.7 1h.1v.1l1 2.6v.2l-.5 2.4-1 1.5-.1.1h-.2l-3.3-.7-2.4 2.7-.7 3.1v.1l-.1.1-4.3 4-.5 2.6zm25.4 21.9l6.8.2-2.7 2.9 5.7 9.3 2.7-1.6.1-.1.1.1 2 1.3 1.2-.9.1-.1.1.1 2.8 1.2 12.9-4.4.2-.1.1.1 3.3 4.3.7 2.8 3.6 3.5 4.9-4.7.2-.1.2.1 1.8 1.4 1.6-1.2.1-.1h.1l5.6.5 2.8-2.6.1-17.3h-2.2l-3.2 2.7-.2.2-.2-.2-1.4-1.8-.1-.1v-.1l.4-6.5-9.4-.3h-.1l-.1-.1-1.7-3.1-4.9.1h-.2v-.2l-.9-3.5-3.1-4-16.4-7.8V307.5l-.1.1-3.1 1.8.9 3.5.1.3h-.3l-4-.3-3.1 1.3-1.8 3.3.4 9.4v.1l-2.4 5.2zm9.8 12.8l2.6-1.6 2 1.3.1.1.1-.1 1.2-.9 2.7 1.2h.2l12.9-4.4 3.1 4.2.7 2.8v.1l.1.1 3.8 3.7.2.2.2-.2 4.9-4.7 1.7 1.4.1.1.2-.1 1.7-1.3 5.6.5h.1l.1-.1 2.9-2.7 2.3-.3.4 3.3v.1l.1.1 3.2 3.5 1.1 3v.1h.1l2.8 2-2.2 2.6-.1.2.1.2 1.9 2.1-.8 3.3-2.3 1.5-.1.1v.1l-.2 4.4-3 .6-3-2.3-.4-.3v.5l-.2 2.6-2.5 3.8-4.6-.8h-.1l-3.9 1.3h-.1v.1l-1.8 2.4-.2.2.3.1 2.5 1.3.6 2.5-4.1.5-2.1-4.4-3-1.3-5.6 2.1-7.2-3.9-.7-3.5-2.2-.9-2.3 3.4-3.4.5-6.5-30.4zm61.3 27.8l-1.8-2-.1-.1h-.1l-5.3-.2.2-4.1 2.3-1.5.1-.1v-.1l.9-3.5v-.1l-.1-.1-1.8-2 2.3-2.7.2-.2-.3-.1-3-2.1-1.1-3-3.2-3.4-.4-3.4v-.2h-.2l-2.3.3.1-17.1h6.5l.1-.1 2.3-2.8 6.2-.9 5.4 2.4h.2l4.2-1.8-.6 2.6v.2l3.9 7.5-1.8 1.8-3.7 1.7-.1.1v.1l-.7 2.8v.2l1.5 3.6-2.8 3.6-.1.1v.1l.7 2.2v.1h.1l3.5 1.2-1.2 3.7-2.4 3-.1.1v.1l.9 3.4-.6 2.6v.2l.8 2.3-3.6 3.6-2.1 1.1-2.9.9zm-28.3 11l4.3-.5h.3l-.1-.3-.7-2.8v-.1h-.1l-2.4-1.2 1.5-2.1 3.8-1.3 4.8.4h.1l.1-.1 2.6-3.9v-.2l.2-2.2 2.7 2.1.1.1h.1l3.3-.7h.2v-.1l5.2.2 1.7 2-1.1 4.7v.1l.1.1 3.1 3.9.1.2.2-.1 3.4-2.6.4 4.4v.1l3.8 6.8-2.7 1.8-.1.1v.1l.7 4.6-4.2 3.1-6.3.3-1.4 3.1-4.7-.5-3-4.4-.9-3.3-4.7 2.5-1.7-2.1-4.2-.9-.1-4.4-4.2-2.4-.2-4.5zm36.3 13.3l-.6-4.3 2.7-1.9.2-.1-.1-.2-3.9-7-.4-4.5 6.5-.4h.2l.1-.1 1.7-4.4 2.6.2 5.6 4h.1l9.2 1.2h.1l.1-.1 4-3.3 2.2-.5h.2v-.2l.1-2.1 3.2-2.1.1-.1v-.1l-.2-2.2 2.3-.6h.1v-.1l.8-3.2 12-1.1h.2v-.2l.6-2.7 9.8 6.9.1.1h.1l3.9-.3.3 1.4-1.4 1.4-.1.1v.1l.5 2-1.9 2.2-.1.1.1.1 1.8 3.4-.8 2.9-2.7.1-.1 2.7-2.1.7-.4 6 3.3 3.9-2 4.8-2.7 2.4-3 1-2-1.8-3.8-.5-9.5-1-3.5-1.7-.7-4-9-2-1-1.6-6 .4-16.8 6.3zm63.2-18.8L432 375l1.9-2.1.1-.1v-.1l-.5-2 1.4-1.4.1-.1v-.1l-.1-.6 2.6.1h.2l4.5-3.2 2.8 3.8 8.9 7.1.1.1H458.4l3.2 4.1.4 3.4v.2h.2l4.6.9.6 2.5.1.3.2-.1 4.4-1.5h.1v-.1l.9-3.1 6.8-3 2.1-2.4v-.2l.8-4.3 2.8.3h.1l.1-.1 2.5-3.4 3.8-1.2h.1v-.1l2.5-4.1v-.2l.1-2.2 2-.5h.1v-.1l.8-2v-.2l-.6-2 .6-1.1 1.8-1.7v-.1l1.2-3.1v-.2l-.9-3.2-.4-5.8 1.1-6-.4-2.5v-.2h-.2l-2.3-.3h-.2l-.1.1-1.7 3.1-1.1 6.6-.3.8-1.7-4.1.5-4.8 2.7-3.2.2-.2-.2-.2-3.2-2.7-.5-2.6 5.2-.7h.2v-.2l.6-3 2.6.9h.2l5.1-1.7h.1v-.1l1.3-3 2.3 1.2h2.6l1.8 2.5.1.1h.2l10.8-2.9h.1v-.1l1.1-4.4 2 .3h.1l.1-.1 2.4-2.7.3 2.8-2 2.8-.1.2.2.1 2 1.8 3.2 9.7v.1h.1l3.9.7 3.5 3.1.3 4.5-5.6 2h-.1v.1l-2.2 5.1-6.5 4.9-.1.1V353.8l.1.1 3 2-.3 3.7-2.8 3.5-3.7 1.5h-.1v.1l-1.3 2.1-4.3.3h-.1l-.1.1-6.8 9-3.6-.5h-.1l-.1.1-4 3.4H497l.1.3 1.3 3.9-3.5 2.8-.2.2.2.2 3.6 3.9-3.3 1.7h-.1v.1l-1.1 4.2-3.5-.1-1.6-2.7-6 .4-5.7-1.8-7.4 4.4-5.2.1-7.4-3.9-2.1-8.1-10.2-2.4-11.2-4.1zM26.1 282.8l.2 3.1 3.4 1.6 4.9-5.4.4-.4.1.5.5 3.8 2.9-3.8.2-4-2.1-1.7-.1-.1v-.1l-.2-3h-3l-.1-.1-2.1-3.3-2.5-.9-.4 2.7 2.9 3.4 2.6 1.6.3.2-.3.2-3.9 2.9V282.3h-.2l-3.5.5zm23.5-5.3l-1.8 1.5-.2.2-.1-.2-1.3-2.3-1.7.8-.2 1.5v.1l-.1.1-1.6 1.6 1.4 1.3.1.1-.1.2-1.4 2.6 1 1.5.2.3-.3.1-2.6 1.1-1.1 2.2 3.1 5.9.1.2-.2.1-2.1 1.4.2 3.9 5.3 4.8h3l.1.2.9 2.9v.1l-.1.1-.9 1.5 2.6 2.1 3 .2h.1l.1.1.9 1.2 1.9-1.2-.8-1.6-.1-.2.2-.1 2.5-2 .1-.1h.1l4.3.2 1.5-1.1.2-3.8-.9-3.7-2.7-4.9v-.2l.7-4.3-2.5-4.3-1-2.8-2.4-.7h-.1l-.1-.1-1.2-1.7-1.8.3h-.1l-.1-.1-4-5zm-23.8 8.4l-.2-3.1v-.4h.4l3.2-.3V280l.1-.1.1-.1L33 277l-2.3-1.4-2.9-3.4-.1-.1-.1-.1v-.2l.4-2.7v-.6l.3.1.3.1 2.5.9h.2v.2l2 3.2h3.2v.4l.2 2.9 2 1.7.1.1.1.1v.2l-.2 4v.4l-2.9 3.8-.4.5-.4.5-.1-.6-.1-.6-.4-3.3-4.5 5-.1.1-.1.1-.2-.1-.2-.1-3.4-1.6-.1-.1-.1-.1v-.1l.1-.3zm-4.9-28.7l2.9-2.6 3.7 6.1 1.8-2.4 5-.3 2.6 1.3.7-6.3 4.8 4.3 1.6 3.1.1.1H46.9l2.9 3.6-2.3 4.4-.1.1.1.1 3 3.7-.7 1.3-.2 3-1.7 1.4-1.3-2.3-.1-.2-.2.1-2 .9-.3.4v.1l-.2 1.5-1.8 1.8-.2.2.2.2 1.5 1.3-1.4 2.5-.1.1.1.1.9 1.4-2.4 1h-.1v.1l-2.3 4.6-3.2-.3-1.9-2.6-.1-.1-.2.1-6.2 2.2-1.4-2.3-2.1.9-1-1.4.9-8 .4-4.8-1.2-5.2.1-3.3-2.1-1.6-.7-2 1.4-1.7v-4.6zm6.1 34.3l5.9-2.1 1.9 2.6.1.1h.1l3.4.4h.2l.1-.2 1-1.9 2.8 5.4-2 1.3-.1.1v.1l.2 3.9-3.7-.2h-.1l-.1.1-3.3 2.5-3.2-3.5v-3.3l-3.2-5.3zm6.7 12.5l3.2-2.5 3.8.2 5.4 4.8.1.1H49l.8 2.6-1.8 3.2-5.8-1.4H42l-4.5 1.4-.8-1.3-.1-4.2-2.9-2.9zm3.8 9l4.5-1.5 5.9 1.4h.2l.1-.2.9-1.5 2.3 1.8-2.9 1.3h-.1v.1l-1.2 3.9-1.7 1.4-2.4.8v-.8l-5.2-2.5-.4-4.2zm5.5 8.2l2.6-.9 1.8-1.5h.1v-.1l1.2-3.9 1.3-.6 1.5 5.7-7.1 3.3-1.4-1v-1zm1.8 2.5l7.2-3.4.2-.1-.1-.2-1.6-6 1.4-.6 2.9.2 3.7 5.3.1.1h.1l2.7.5.8 3.1-1.9.8-2.3-.2h-.2l-.1.1-2.8 5.4-2.1-1.8-.2-.2-.2.2-1.4 1.5-5.1-.4-.4-1.9-.7-2.4zm1.1 4.9l5.4.5h.1l.1-.1 1.3-1.5 2.2 1.8.2.2.1-.3 2.8-5.5 2.2.2h.2l2.2-.9.2-.1-.1-.2-.9-3.4v-.1h-.2l-2.8-.5-2.6-3.7 2.1-1.3.2-.1-.1-.2-.8-1.6L60 310l4.3.2h.1l.1-.1L66 309l4 4 .9 2.3-3 2.3.7 2.7-.5 6.3-6.3 6-1.7 9.8v6.9l-2.5 1.6-2.1-.7-2-1-.9 1.6-1.6.7-3.3-4 .7-2.6.3-5.5-3.7-5.2-.3-3.9 1.2-1.7zM71.1 315l-.9-2.4v-.1l-4.1-4.1.2-3.9-.9-3.8-2.7-4.8.7-4.3v-.2l-2.5-4.3-1.1-2.9v-.1h-.1l-2.5-.7-1.2-1.7-.1-.1h-.2l-1.9.3-1.8-2.2 1.6-1.8 2.7 1 .2.1.1-.2 1-1.6 1.8.8v3.5l.1.1 2.6 1.2V286.1l1.5 2.4.1.1h.2l3.4-.4h.1l.1-.1 1-1.9H73.7l.1-.1 3.3-3.6.1-.1v-.1l-.2-2v-.2h-.2l-2.9-.3-.1-2 6.4.7h.2l.1-.2.7-1.8 1.8.1.7 3.3v.2h.2l2.6.3 1.4 3.6-1.4 6.8v.2l1.8 3.2-1.8 5.2v.2l.7 2.9-2.9-.3h-.2l-1.6.7-1.2-1.8-.2-.3-.2.3-1.3 1.6-.1.1.1.1 1.7 4-2.1 1.7-2.2 1.2-.2.1.2.2 2.6 3.6-3.9 1.8-4.6-.5zm8.6-1.6l4.1 1.5 11-.3-.9-4.3 2.7-.5 2.1-11.7-1.8-2.5-2.7-.7.4-2.2 3.4-3.1-3-4.2 1.5-.8 1.9-.8-1.9-3.5-7.5-1.6-2 1.3 1.4 3.6v.2l-1.4 6.8 1.8 3.2.1.1v.1l-1.8 5.2.7 3.2.1.3h-.3l-3.2-.4-1.7.7-.2.1-.1-.2-1.2-1.7-1 1.2 1.7 4 .1.2-.1.1-2.3 1.9-2 1.1 2.1 3.7zm19-29.9l4.4-1.5.7-3.4 3.8-2.1 4-1 1.5-.4-.1-5.6-2.5-.5h-.1l-.1-.1-1.2-1.7v-.2l-.1-3.3-1.5.7h-.2l-1.9-.1h-.2v-.2l.1-2.4v-.1l.1-.1 1.9-2.2v-3l-4.3-4.2-2.5-.5h-.1l-.1-.1-1.7-2.3v-.2l-.3-3.2-3.6-1.3h-.1v-.1l-1.5-3-1.9.6H91l-3.8-.5-.4 2.6v.1l-.1.1-3.6 2.2.7 6.6v.1l-.1.1-4 2.6.5 5.1v.2l-1.6 3.3-.1.1h-.1l-2.9.2h-.1l-.1-.1-1.3-1.3-3.4 2 1.7 2.5.1.1v.1l-1.4 5.1 2.6 3.6 6.4.7.7-1.8.1-.2h.2l2.2.2h.2v.2l.7 3.3 2.5.3 2.2-1.4.1-.1h.1l7.7 1.6h.1l.1.1 1.8 3.8zm-27.2-38.6l3.1 1.7 2.5 1.6.1.1.1-.1 2.3-1.6 3.2.2.7 6.4-4 2.6-.1.1v.1l.5 5.2-1.5 3.1-2.7.2-1.4-1.4-.1-.1H74l-3.8 2.2-.2.1.1.2 1.8 2.6-1.4 5.2v.1l.1.1 2.7 3.8.2 2.5v.2h.2l2.9.3.2 1.7-3.1 3.5H68.5l-.1.1-1 1.9-3.2.3-1.3-2.2V282.2l-.1-.1-2.6-1.2v-3.5l-.2-.1-2.2-.9-.2-.1-.1.2-1 1.6-2.7-1-.2-.1-.1.1-1.6 1.9-1.8-2.2.2-2.9.7-1.4.1-.1-.1-.1-3-3.7 2.3-4.4.1-.1-.1-.1-3.1-3.8-.1-.1h-2.7l-1.3-2.5 2.1-1.6 3.7 2.2 2.1-1.4-7-4.2 3.3-3.4 7 .9 3 4.4 4.2-1.6 2.5-4.4 2.1-.3 1.6-2.3 4 .1-.2-1.1zM40.4 104.6l8.8 19.1 5.5-2.9.5-10.5-2.6-4.1-1.2 4.8-2.6-1.7-2.1-6.2-2.6 1.7-3.7-.2zm179.1 31.3l-3.9 3.5-1.8-3.4 2.6-.5-3.3-6.1-5 .8-5-1.7-6.1.9-3.4 8.5-2.5-1.4-3.5-8.2.5-6.4-5.7.7-1.6 5.5 2.5 3-2.4 3.1-3.8-2.1-.7-4.4-.1.1-1.9 2.1-.1.1h-.1l-1.6-.3-2.2-.6-.3 1.7v.1l-.1.1-3.5 3.5-.8 2.7 1.1 1.9 1 1.6.1.2-.1.1-3.7 3.8-.8 3.6v.2h-2.2l-1.5 1.7-3.3 3.8-.6 4.7 8.5 9.6 2.9 2.7 3 1.9 3.2 3.6 5.1.2h.2l.1.1 2 5.1 1.5-.7h.2l2.9 1 .2.1-.1.2-.9 2.4 2.7 1.4.1.1v3l2.8-.4h.1l.1.1 2.3 2.7v.2l.3 3.3 2.2-1.8.1-.1.1.1 3.4 1.4 2.5-1.9.2-3.4v-.1l.1-.1 7.8-6.2-1.9-3.8-3.1 1-1.6 1.9-.1.1-.2-.1-3.9-1.6-.2-.1v-.2l.2-2.6v-.2l3.1-4 .1-.1h.1l3.6-.1-.1-1.6-1.1-1.9-.1-.2.1-.1 2.4-2.4.8-3.5-2.7-4.4-.1-.1.1-.1 1.3-1.9.1-.2.2.2 9.8 7.6.1.1v.1l.6 2.7 3.7-.2h.2l3.9 2.5 2.8-1.6-.8-3.2v-.2l1.1-2-1.7-2.6-.1-.1.1-.1 4.9-6.3-1.9-2.8-3.8-.5h-.1l-.1-.1-4.2-6.3v-.1l-1.3-8.3zm69.5-2.6l1.2-11.6.9-4.4 3.8-4.1 4.6-1.5 1.8-2.6-1.1-3.2 3.4 2.1 3.1-.3.8-2.3 2 .2.2-2.3 2.4.9.5-2.3 1.8 2 1.4-1.8.5-2.7 2.6 1.8 1.7-1.5 3.5.8 2.9-3.4 22.3-.5 5.3-2.9.6-4-2.3-2.7-5.3 1.4-.9 2-9.2-.8-4-3.4-3.5 2-3.5-1.5-4.4 2.9h-3.7l-1.8 1.5-2.4-2.6-1.2 5.3-2.7.2-.3 2.1-6.9 2.1-2.4-1.1-1.5 1.8 2 2-2.7 2.6-4.4-1.8-.6 3.4-3.2-.2-.2 2.6-4.4 2.3-2.7-.9-3.1 2.3-.2 3.4 2.9 2.9.2 4.4-2.7 2.7 2.1 4.7 2.4.3.2 2.1 2.7.6 1.5 1zm-39.3-4l2.2 3 5.3.1.6-2-.3-3-2.8-3-4 1.4-1 3.5zm44.8 18l-2.9.3-2.3-3.8.6-3.5 3.7-.9 1.1 4-.2 3.9zm11.5 13.5l-3.1 2.6-.2.1.1.2 1.7 3.1-1.7 3-2-.4h-.2l-.1.1-1.1 1.7h-2.2l-.1.1-2.7 2.5-3.3-.8h-.1l-.1.1-2.6 2.9-7.3.6-32.4-23.1-.1-.1h-.1l-3.2 1-13.9-1.5-2-3-.1-.1h-.1l-3.8-.5-4.1-6.2-1.5-7.8 3.7-3.4.7-3.9 7.8-5.1 1.7-6.1 5.7 6.3.1 6.1-2.1 3.4-4.3-3-4.7 1.6 1.2 3.4-1.2 3.4 3.9 3.8 7.6-4.4 2.1 2 1.8-1.8 14.4 3.5 1.3 2.4 2.6-3.1 5.6 1.3-2.2 4.3-4.2.4 2.5 3.4 7-.7 4.6 3.4 9.3.1v2.9l-2.9 2.6 2.5 2 1.3-2 2 .4 3.5-2.1.1-4.3.7-2.9h5l6.5 7 2.7 4.6zm-26.9-39.1l-.3-4.4 2 .5v2.7l-1.7 1.2zM182 118l1 1.1 1.4-.9-.4-1.6-1-.8-.8 1.1-.2 1.1zm49.4 35.5l14 1.5 3.1-1 32.3 23.1.1.1h.1l7.5-.6h.1l.1-.1 2.5-2.9 3.3.8h.1l.1-.1 2.8-2.6h2.2l.1-.1 1.1-1.7 1.7.3-1.6 2.9-.1.1v.1l1.4 4.5-2.1 3.3-3.5 1.2h-.1v.1l-2.4 2.7-9 .4h-.2l-4.6 3.8-6.3.1h-.1l-.1.1-4.1 3.6-3.5.2-1.3-2-.2-.2-.2.2-6.2 5.5h-.1v.1l-.9 3.4-6.2 5.6-8.3 14.3-4.6-.6-7.5-6.2-.1-.1-.1.1-2.7 1.5-6.9-.8-5-2.6-4.5-5.1-.1-.1h-.1l-6.1-.6h-.2v.3l-1.8 4.5-3.2 1.5-9.2-3.5-.2-.1-.1.1-3 3.4-1.2-.9v-5.4l-.7-1.7 7.3-8.1 2.5-2 3.4 1.4.1.1.1-.1 2.7-2.1.1-.1v-.1l.2-3.4 7.8-6.2.2-.1-.1-.2-2.1-4.2-.1-.2-.2.1-3.4 1.1h-.1v.1l-1.5 1.8-3.6-1.5.1-2.3 3-3.9 3.8-.2h.3v-.3l-.2-1.9v-.1l-1-1.8 2.3-2.3v-.2l.8-3.7v-.1l-.1-.1-2.7-4.4 1.1-1.6 9.6 7.4.6 2.8v.2h.2l3.8-.2 4 2.5.1.1.1-.1 3.1-1.8.2-.1v-.2l-.8-3.3 1.1-2 .1-.1-.1-.1-1.7-2.6 4.8-6.3zm-55-26.4l-.3.1-1.8 2-1.5-.3-2.4-.6-.3-.1v.3l-.3 1.9-3.5 3.5v.1l-.8 2.9v.2l1.1 1.9.9 1.5-3.6 3.7v.2l-.8 3.5H161l-.1.1-1.5 1.7-2.1-.7v-3.6H154.5l1-3.7 3.9-4.4 2.3-2.2.1-.1v-.1l.5-3.1v-.2l-1-1.8-.1-.1h-.1l-3.1-.7h-.1l-.1.1-5.3 5.8-1.5 2.9v.2l.3 4.1-.5 1.3-3.3-4.3-.1-.1h-.1l-2.1-.4-1-3.4-.1-.2h-.2l-1.7.2h-.2v.2l-.2 1.9-.7-.2-.8-1.5-.1-.2-.2.1-1.4.4h-.2v.2l-.1 2.3-1.1-.2-.8-1.7.6-1.6 2.1-1.6.1-.1v-.1l.4-2.8-.2-3.2 1.4-1.7.1-.1v-.1l.1-2.9v-.2l-1.6-2.3-.1-.1h-.1l-4.1-.6-3.1.6-.2-3.7 5.8-.2 12.8 1.7 2.9-1.2.9-6.9 1.3-4.6 4.8.8 1.4-1.4-1.2-2.2 2.1-1.6 1.2-2.2 1-2.6 2.6.1 3.7-2.5 2.9.1 5.6-7 4.7 6.3-.8 3.9v.2l.2.1 4.1 2.1.9 1.6-.9 5.9-2.3 4-4 1.3-4.8 6-1.6 2.9 1.7 2.4-.4 1.8v2.3zm12.2-27.2l-.7-1.2v-.1h-.1l-4-2 .8-3.9v-.1l-.1-.1-4.9-6.5 2.2-2.8 6.7-.1 3.4-5.5-.1-3.9 5-2.9 2-1.4 9.9.9 6.9 4.7 1.8 3.5-2 1.3-2-2.7-1.4.9.5 4 3.3 5.2 1.3 4.3-.3 11.7 2.1 8.1-1.3 6.8-4.7 6.4-6.3 1.2-10.2-6.1-.7-4.3-2.7-4.2-.5-6.9-2-4.2.7-4.7-1.6-2.2-1 6.8zm-57.5 16.3l-4.3.2-5.4 2-.3 4.3.5 2-1.6 1.3-1.2-3-2.1-.1-3.3-3.1-4 2.6-2.7.3.2 3.7 1.9 3.1.1.1v.1l-1.5 4.6.7 2.3 2.5-1.3.1-.1.1.1 1.7.8h.1v.1l1.3 2.3 2.3-.3h.1l.1.1 1.5 1.3 1.3.1.7-.9.1-.1.2.1 2.5.8h.2v.2l.2 2v.2l-.7 1.3.7 1.2 2.8.1h.2v.2l.4 1.5 1.6.2h.3l-.1.3-.5 2.4 1.6 3.1.3 2.8 2.1-1.1h.2l4.1.3 2.5-5.2v-.1l3.9-3 2.5-.8 3.4.1 1.8-1.4-3.3-4.3-2.1-.4h-.1v-.1l-1-3.3-1.3.1-.2 2v.3l-.3-.1-1.1-.2h-.1l-.1-.1-.8-1.4-1 .3-.2 2.4v.3l-.3-.1-1.5-.3h-.1l-.1-.1-.8-1.8-4.1.1h-.1l-.1-.1-1.6-2.4h-4l-.1-.1-1.1-1.3-.1-.2.1-.2 6.7-8.1-.3-8.6zm-24.8 6.4l.2 3.8v.2l1.9 3.1-1.4 4.3-1.4 1.2h-.1v.1l-.8 2 .1 6-4.5 1.5h-.1v.2l-.3 2.1-1.5.1h-.2v.2l-.4 1.6-2.5 2.5v.1l-.9 3.7-1.6 2.4-4 .8-1.1-.6h-.2l-2.1.5h-.2l1-1.8-.7-3.3-3.1-.8-.5-2.2 2.2-2.7-2-2.5-.3-4.6 4.8-3.1.1-3.5 3.3-.4 2.7-4.6 4.6.3 2.3-3.3 4-3.1 2.7-.2zm29 47.2l-.6-4.9v-.2h-4.3l.2-2.1-.7-2.4v-.1l-1.8-1.9 1.7-2.6 2.3-1.3 4.2.3h.2l.1-.2 2.5-5.3 3.9-2.9 2.4-.8h1.6l1.7 1.8.1.1h.1l3.6.2h.1l.1-.1 1.7-1.7h2.6v3.5l.2.1 2.1.7-3.1 3.6v.2l-.6 4.8v.1l.1.1 8.6 9.7 2.9 2.7 3 1.9 3.2 3.7.1.1h.1l5 .2 2 5.2.1.2.2-.1 1.7-.8 2.6.9-.9 2.3-.1.2.2.1 2.8 1.4v2.8l-4 2.6-3.8-.2h-.2l-.1.2-.6 1.6-.1.2.1.1 2.6 2.4-2.9 3-1.8-1.8-.1-.1h-.1l-4.1 1-6-3.5-3.7-6.9v-.1h-.1l-5.7-3.5h-.2l-8.7-.4-3.2-3.1 1.2-4.4v-.1l-.1-.1-2.5-3.1-.1-.1h-.1l-2.1.1-5.5-3.3zm-28.2-35.2l.7 2.3.1.3.3-.1 2.7-1.3 1.5.7 1.4 2.4.1.1h.2l2.3-.3 1.5 1.3.1.1h.1l1.5.2h.1l.1-.1.6-.8 2.1.7.1 1.7-.7 1.3-.1.1.1.1.8 1.5.1.1h.1l2.8.1.4 1.5v.2h.2l1.5.2-.4 2.2v.2l1.6 3.2.3 3-1.8 2.7-.1.2.1.1 1.9 2 .7 2.3-.2 1.9-4.1-3.6-.1-.1h-.1l-2.6.2-3-2.4-.6-2.3v-.1l-.1-.1-2.5-1.8-.1-.1-.1.1-1.1.8-.1.1v.1l-.4 2-5.4-.5-1.9-1.7h-.1l-5.6-1.5-2.9-2.1-1.5-1.6.7-.7v-.1l.4-1.5 1.5-.1h.2v-.2l.3-2.1 4.5-1.5.2-.1v-.2l-.1-6.1.7-1.9 1.1-1zm170.1 55.3l-.3 7.5-3.6 5-.1.1.1.1 2.4 5.1.1.1h.1l8.7.7 4 3.1.1 4.2v.1l.1.1 1.6 1.5.1.1h.1l9.9.5 2.9 3.7.3 6.3v.2l1.7 2.2-.1 4.3v.3h6.9l5.9 5.4 8.2 3.6 3 5v.1h.1l5.5 3.3h.1l5.6.5h.1l.1-.1 4.4-3.2 4 3.7.1.1h.1l4.1-.1 3.1 4.6.1.1h.1l1.6.1 3.1 3.1v6.5l.1.1 5.2 3-.8 2.1-4.5 1.9-4.1.5-3.7-2.6-.1-.1-.1.1-7.1 4.1-5.9-4.3h-.2l-8.5-.1-5.5-3.7-4.1-1.2h-.1l-.1.1-3.9 2.9h-.1v.1l-2.7 8.7-3.1-.4h-.2l-2.7 1.7-.1.1v.1l-.5 2.7-4.4 2.5-8-6-3.8-7.4-2.8-6.4v-.1h-.1l-2.3-.5-4.6-1.9-2.5-2.4-.3-.3-.1.3-.8 2-3.6-.1h-.1l-.1.1-.9 1.1-2.2 1.2-1.8-.4h-.1l-.1.1-1.2.9h-2.2l-3.1-1.3-.2-.1-.1.2-1.3 2.5-4 .8-1.8-2.8.2-2.6.7-5.1v-.2l-.1-.1-5.1-3.3-.8-2 2.9-3.5.1-.1v-.1l-.6-3.1-1-5.2 2.4-3.4v-.2l-.1-4.1-2.8-6.8v-.1h-.1l-4.7-2.8-.7-3.2v-.1L245 218l6.9-11.8 6.3-5.6h.1v-.1l.9-3.4 5.9-5.3 1.2 1.9.1.1h.1l3.7-.2h.1l.1-.1 4.1-3.6h2.7zm-32.5 28.5l1.3 1.3.7 3.3v.1l.1.1 4.7 2.8 2.8 6.7.1 3.9-2.4 3.4-.1.1v.1l1 5.3.6 3-2.9 3.5-.1.1.1.1.9 2.2v.1h.1l5 3.2-.7 4.9-.2 2.7v.2l1.9 2.8-2.6 4.4-7.4-.2h-.2l-.1.1-2.1 4.4v.2l.1 4-1.8.5-3.5-1.7h-.1l-.1.1-2.5 1.3-2-2.6v-.1h-.1l-4.7-1.6h-.2l-5.2 1.6-.3-1.4v-.1l-.1-.1-2.1-2-.1-.1-.2.1-1.1.7-1.6-.4-7.5-6.4-.1-.1h-.1l-1.5.4-1.4-.2-4.4-2-1.8-1.5-.7-2.2 3.9-4.7 4.6-.5h.1l.1-.1 2.8-4.4 2 2.2.1.2.2-.1 2.1-1.4.1-.1v-.1l.7-3.1 5-.2h.1l.1-.1 1.5-1.8v-.2l.4-3.5 2.3-2.7.1-.1-.1-.1-1.7-3.3.1-2.4 5.3-2.4 6.3-6.2 4.2-5.5.9-2.1 1.4-2.3zM192.6 313l1.5-2 5-.4.4-3.5 2.3-1.3 2.5.1 3 2.3 1.8-1.7-2.2-3.7-1-3.7 2.5-2.6 2.2-.7 3.4 3.7 7 .4 1.9-3.5-5.2-3.1-.1-.1v-.1l.2-2.8v-.1l.1-.1 7-5.2.1-4.5-.6-3.2-1.9-1.8-1 .6-.1.1h-.1l-1.8-.4h-.1l-7.4-6.4-1.3.3-.4 2.5-1.6 2.9.2 1.5 1.6 2.1.1.1-.1.1-.9 1.8v.1h-.1l-1.4.8-.2.1-.1-.1-2.6-2.5-1-.7-1.5-.1-1.8.8-.1.1-.1-.1-1.5-1.2-.1-.1v-.1l-.1-3.2-1.3-1.8-1.6-.1-3.1 1.9-.8 2.3 1.8 4 1.5 1.2 6.8 2.2 1.5-.8 1.1-.5.2-.1.1.1 2 2.1.2.2-.2.2-1.4 1.1-2.1.6-.8 2.8-.1.2H201.1l-2.1-1.1-4.2 2.3-2.5 4.3-.4 2.6v.2h-.2l-3.1.7-.3 2.1-.3 2.2 5.1 1.6h.1v.1l1.1 2.3v.2l-.5 1.6v.1h-.1l-1.9 1.5.8 2.3zm28.9-12.8l7.4 1.7 4.2 2.6 2.5-2 3.7 2 12.3 2.4 4.5-2v-.1l-.3-2.3-4.2-3.7-.1-.1v-.1l-.1-2.7-2.8-2.5-3.2-1h-.1v-.1l-.7-2.7-1.7-3.9v-.2l.7-3.3-3.5-1.7-2.6 1.3-.2.1-.1-.2-2.1-2.7-4.5-1.6-5.1 1.6.3 1.4-.1 4.7v.1l-.1.1-7 5.2-.2 2.5 5.3 3.2.2.1-.1.2-2.3 3.7zm34.9 4.5l3.7-.1 3 5.1 2.4.4.1-.1.8-2.1v-.1l4.3-4 .7-3v-.1l2.6-2.8.1-.1h.1l3.2.6.8-1.3.5-2.3-.9-2.4-2.7-1h-.1v-.1l-.4-1.5v-.1l.1-.1 1.3-1.6.4-4v-.1l.1-.1 4.6-4.5.2-.2.2.2 2.6 2.6.1.1-.1.2-1.4 2 1.8.3h.1l4.7 3.3 3.6-.5h.2l3.3 1.9 3.3.1 4.4-3-7.9-5.9-3.8-7.5-2.8-6.3-2.2-.5-4.6-1.9-2.3-2.2-.7 1.8-.1.2h-.2l-3.7-.1-.9 1-2.3 1.2h-.2l-1.8-.4-1.1.9-.1.1H266.7l-2.9-1.3-1.3 2.4-.1.1h-.1l-4.1.8-2.7 4.6-.1.1h-.1l-7.4-.2-2 4.2.1 4.1v.2l-.2.1-2 .5-.7 3.3 1.7 3.9.7 2.6 3.1.9h.1l2.9 2.6.1.1v.1l.1 2.7 4.2 3.7.1.1v.1l.3 2.3zm108.7-155.4v.5l3 6.3-3.2.5h-.2v.2l-.8 4.3v.2l3.1 6.5-.7 2.9-7.3 3.3h-.1v.1l-1 3.9v.1l.1.1 4.9 6.4.1.1h.1l5.3 1.3 1.1 6.4-2.1 5.4-5 1.4-.3.1.1.3 1.6 3.7-1.6 4.7v.1l.1.1 3.9 5.1-1 9.2v.1l.1.1 3.1 4.3-1.2 6.7v.1l.1.1 4.7 3.5.8 4.6-4.1 5.7v.2l-.4 5.1-6.2 7.9-3-3-.1-.1h-.1l-1.6-.1-3.1-4.6-.1-.1h-.1l-4.2.1-4.1-3.8-.1-.1-.2.1-4.5 3.3-5.5-.5-5.4-3.3-3-5v-.1h-.1l-8.2-3.6-6-5.4-.1-.1H306l.1-4.1v-.1l-.1-.1-1.7-2.2-.3-6.3v-.1l-.1-.1-3.1-3.9-.1-.1h-.1l-9.9-.5-1.5-1.3-.1-4.2v-.1l-.1-.1-4.1-3.2h-.2l-8.7-.7-2.3-4.8 3.5-4.9v-.2l.3-7.6h3l.1-.1 4.6-3.8 9-.4h.1l.1-.1 2.4-2.8 3.6-1.2h.1v-.1l2.2-3.4.1-.1v-.1l-1.4-4.5 3.6-6.4.1-.1-.1-.1-1.7-3 2.9-2.4 5.1 8.2 1.3 5.6 1.6 2.5 4.8-4.4-1.4-2.1-.7-2.3 1.3-3.7-3.8-3.9.1-2 4.3-1.3 3.1-5.6-2.9-3.8 2.9-2.7 5.5-1.3 3.7-3.5 4.7-6 3.9-3 2.6 1-.9-2.2.3-3.7 4.1.3.6 5-4.2.5 4 5.4-1 6.9-5.2 5 .9 4.3-.9 3.3-8 18.9.8 5.1-4.7 9.4-6.9 4.4-4.3 1.7-8.2-3.8v3.7l12.3 7.6 3.7-3.9 5.4-2 5.9-6 .4-7.7 3.5-3.4 6.4.9 1.8 5.5-4.2 7.3 1.6 5.9 5.6-1.3-3-1.7-1-2.1 3.8-4.6v-6.1l-5.4-6.4H339l-.4-6.1 6.4-10.1-.1-10.3 2.6-3.9 2.7-.8 2.6-2.3 1.7-4.7 1.4-.7-.5 6.9-3.5 4.3.3 4.7 8.4 7.4-.3-4.3-4.6-5 1.2-4 4.3 3.9 1.3-4.7 2.6-.3zm-5-1.6l.7-1.4 2.7-1.5.9 3.3-2.2.4-2.1-.8zm-5.8-9.4l1.8.2.3-1.2-1.2-1.3-1.5.5.6 1.8zm-151 72.6l4 5.3.2 3.6-6.8 2.8-.1.1V225.6l.1.1 1.8 1.6-1.6 2.1-2 2.3-1.2-.9-1.5-1.7-.1-.1h-.1l-1.9.4-2.5-2.4-.1-.1h-.1l-4.3-.2h-.2v.2l-.1 1.6-.2 1.8-2.6 2.2-2.1-1-2-.2h-.2l-.1.2-1.8 6.5-3.8.6h-.1l-.1.1-1.6 4.1-.3-.9-.1-7.5v-.1l-.2-4.5-.9-2.2-2.7-3-.1-.1h-.1l-6.9-1.2-1.5-1.2-.6-2.9 2.8-4 3.4 2.4.1.1.1-.1 2.6-1.1 1.2-1.4.1-.1-.1-.2-2.2-2.8-2-2 3.1-3.2 7.9.1h.2v-.2l.1-5 1.6-1.7 3.2-3.3.2-.2-.2-.2-2.6-2.5.5-1.3 3.7.2h.2l4.2-2.7 2.9-.5 2.1 2.6.3 3.5-7.3 8.2-.1.1.1.1.8 1.8v5.6l.1.1 1.5 1.2.2.1.2-.2 3.1-3.5 9.1 3.5h.2l3.2-1.7zm-14.8 41.3l2.1-.1V255.9h.2l4.8.2.2 2.7v.2h.2l2.1.5.3 1.2.3 2v.1l.8 1.1.1.1h.2l1.8-.5.7 2.1v.1h.1l1.9 1.5 4.5 2 1.3.2-.3 2.4-1.6 2.9v.2l.2 1.6v.1l1.5 2-.8 1.6-1.1.6-2.5-2.4-1.1-.8h-.2l-1.6-.2h-.2l-1.7.8-1.3-1.1-.1-3.2v-.2l-1.4-1.9-.1-.1h-.1l-1.8-.2h-.2l-3.3 2h-.1v.1l-.8 2.4v.2l1.8 4.1v.1l1.6 1.3 6.9 2.3h.2l1.6-.8 1-.5 1.7 1.7-1.2.9-2.2.7h-.1v.1l-.8 2.8h-1.1l-2.2-1.1-.1-.1-.1.1-4.3 2.4h-.1v.1l-2.6 4.4-.4 2.5-3.1.7h-.2v.2l-.3 2.3-.4 2.2-2.4.6h-.1v.1l-1.2 2.9-2.9-.3-2.8-2.8v-.1h-.1l-5.2-1.2-1-2 2.1-2.2.2-.2-.2-.2-1.4-1.4.1-1.1 1.9-.6.2-.1v-.2l.2-3.7v-.3h-.3l-3 .2h-.2l-1 .7-.4-3.2 1.2-.5.1-.1v-.2l.2-2.5v-.1l-.1-.1-1.2-1.4.2-5.3v-.2l-1.5-2.1v-6.8H169.4l.1-.1.9-2.1 1-2.2 1.6.1 2.5 1.6.2.1.1-.2.8-1.1.1-.1v-.1l-.5-2.8v-.1l-.1-.1-1.7-1.7.3-2.3 4.3.5h.2l3.8-1.2h.1v-.1l.5-3.1H185.9l.1-.1 2.5-.9zm-16.1-8.6l1.8-4.5 3.8-.6h.2v-.2l1.8-6.4 1.7.1 2.2 1 .1.1.1-.1 2.8-2.4.1-.1v-.1l.2-1.9.1-1.4 3.9.1 2.5 2.4.1.1h.1l1.9-.4 1.4 1.6 1.2 1-2.4 6.3-2.1 2.3-1.4 3.5-2.2 2.4-2.1-.1h-.3v.3l-.1 5.2-2.3 2.1h-2.3l-1.4-.2-.6-.7 1.8-1.3.1-.1v-.1l.2-1v-.2h-.3l-1.7-.2-.2-.8 1-1.8.1-.2-.2-.1-.9-.7-.1-.1-.1.1-3.3 1.8-3.6-.7-1.5-2.5-.1-1.5zm-1-8.7l-1.9 1.8-.2.2-.2-.3-1.3-2.2-3.7-1.2-5.4.7-2 .8h-.2l-3.6.9-1.6.9-.4 2.6v.2h-.2l-3.5.4-2.5.7.4 1 3 .1h.1l.1.1 2.4 3.4 4.3.3h.2v.2l.2 2.5v.1l-.1.1-.8 1 2 2.4.1.2 2.3 3.3.9-.2 1.4-.9.2-.1.1.1 1.3 1.2 2.8 4.1.1.1v.1l-.2.7 2.2 2.5.1.1v.1l-.7 2.9 1.3 3h.6l.9-1.9 1.1-2.4.1-.1h.2l1.8.1h.2l2.4 1.5.6-.8-.4-2.6-1.7-1.7-.1-.1v-.1l.4-2.7v-.2h.2l4.4.5 3.6-1.2.5-3-1.3-.2h-.1l-.1-.1-.8-1-.2-.2.2-.2 1.9-1.4.1-.6-1.7-.2h-.2v-.2l-.2-1.1v-.2l1-1.7-.6-.5-3.2 1.8h-.2l-3.8-.8h-.1l-.1-.1-1.6-2.6-1-3.1.2-6.8zm-13-15.7l-3.7-2.3-1.8 1.4h-.2l-3.3.1-.2 5.4 6.6 2.1h.1v.1l1 5.2-.3 2.7 1.8-.7 5.5-.8h.2l3.9 1.2h.1v.1l1.2 2 2-1.9-.1-4.3-.9-2.1-2.7-3-6.8-1.2h-.1l-1.6-1.3-.1-.1v-.1l-.6-2.5zm-34.3-6.5l1 2.6.7 1.8 4.2 4.2.1.1v.1l.5 5.2 1.8 3.4 1.5.2.4-.9.1-.1h.2l3.5-.1.5-.9.1-.2.2.1 1.2.7.1.1v.1l.2 1.5 1.3.8 2.9-2.1.4-3.9v-.2h.2l3.8-1.1.2-5.7v-.2h.2l3.4-.1 1.8-1.5.1-.1.1.1 3.7 2.3 2.9-4.1.1-.2.2.1 3.5 2.5 2.4-1.1 1.1-1.3-2.1-2.7-4.2-4.3-2.3-1h-.1v-.1l-.8-2.2-2.6-.1-1.1.7h-.2l-8.9-.1-2 1.2-.2.1-.1-.1-1.2-1.1-2.7.2-1.1 1.6-.1.1h-.1l-1.8.4-5 3h-.2l-4.4.1-3.4 2.2zm17.8 18.9l3-2.2.1-.1v-.1l.4-3.9 3.7-1.1 6.5 2.1.9 5.1-.4 2.9-3.4.9-1.7 1-.1.1v.1l-.3 2.6-3.3.4-2.5.7-.5-1.2-3.4-4.1 1-1.7v-1.5zm-16.4-14.1l4 4.1.5 5.1v.1l1.9 3.5.1.1h.1l1.8.3h.2l.1-.2.4-1 3.5-.1h.1l.1-.1.5-.8.9.5.2 1.5v.1l.1.1 1.4.8-.1 1.3-1.1 1.8-.7.8v.1l-.6 2.9-.6.9-5.2-1.8-.3-.1v.1l-1.8-.1-1.4-2.9-.1-.1h-.1l-3.4-.6h-.1l-.1.1-.9.8-1.8-2.9-.3-3.8v-.2h-3.5l-1.4-4 4.9-4.4 2.7-1.9zm-8 6.5l1.5 4.2.1.2h3.5l.3 3.6v.1l1.9 3.2.1.2.2-.2 1-.9 3.1.6 1.4 3 .1.1h.1l1.9.1v5.3l-1.1 1.3-.1.1.1.1 1 1.9-.4 1.1-4.1 3.8-5.4-.9-5.6-3.3v-2l-.9-1.6-.1-.1h-.1l-2.8-.3-4-6.3.6-.3h.1l.9-1.2v-.2l.1-5.4.6-3.5 2.8-3.3 1.6.6h1.6zm11 28.2l4.1-3.9v-.1l.4-1.3v-.2l-1-1.9 1.1-1.2.1-.1V238.1l5.1 1.8.2.1.1-.2.7-1.1.6-2.9.4-.6 3.3 3.9 1.1 2.7.1.1h.2l3 .1 2.4 3.4.1.1h.1l4.2.3.2 2.2-.9 1-.1.2.1.2 2.1 2.6-.7.5-2.8 3-1.5.9-1.9-.5-3.2-2.8-2.2-1.6-.1-.1h-.1l-2.1.2-3.4.4h-.1l-.1.1-1.4 2v.2l-.1 1v.2l.1.1 1 .5-.3 1.9-1.4.6-1.9-.6-5.4-2.9-.1-2.9zm7.6 7l1.4-.6.1-.1v-.1l.4-2.2v-.2l-.2-.1-1.1-.5.1-.8 1.3-1.9 3.3-.4 2-.2 2.2 1.6 3.2 2.8h.1l2.1.5h.1l.1-.1 1.6-1 2.8-3 .7-.5 2.2 3.2.1.1h.2l1.1-.2 1.3-.9 1.2 1.1 2.8 4-.3 1.5-1 3.2-.7 1.3-5.5 3.1h-.1v.1l-1.4 2.5-3.7 1.2-2 .3h-.2l-3.9 3.4-5.4.4.1-1.6-.2-1.6v-.1l-2-2.8.3-3.5v-.1l-.1-.1-2.3-2.9-.8-3.1.1-1.7zm-22.5 16.1l-.1-5.9v-.2h-.2l-2.6-.5-1.1-1.6-.1-3.5v-.4l-.3.1-1.8.8-1.6-.1.1-2.1 1.9-2.2.1-.1V256.2l-.1-.1-4.4-4.3v-.1h-.1l-2.4-.5-1.6-2.1-.3-3.1.9-.8.1-.1v-.1l.2-4 3.2-.5 5.4-2.8 4.1 6.5.1.1h.1l2.8.3.8 1.4v2l.1.1 5.8 3.4 5.4.9.1 3v.1l.1.1 5.5 3 1.9.6.1 1.9.8 3.2v.1l2.3 2.8-.3 3.5v.2l2 2.9.2 1.5-.1 1.8-.1.2-2 .4-3 .8-4 .3-1.2-.9-1.6.1-2.2 1.8-4-.8-1.7 1.8-1.4 2.9-2.9 1.3-1.4-2.6.7-2.1.3-2.6-2.5-2.4zm27.4 2.3l.1-.2 5.6-.4h.1l.1-.1 3.9-3.4 2-.3 3.8-1.2h.1v-.1l1.4-2.6 5.5-3.1h.1v-.1l.7-1.4 1-3.2.1-.3 1.9 2.1-.7 2.8v.2l1.4 3.2V276.8l1.5 2.1-.2 5.3v.1l.1.1 1.2 1.4-.1 2.3-1.2.5-.2.1v.2l.5 3.8v.4l.3-.2 1.3-.9 2.7-.1-.2 3.2-1.9.6h-.2v.2l-.1 1.4v.1l.1.1 1.3 1.4-2.1 2.2-.1.1.1.2 1.1 2.2.1.1h.1l5.3 1.2 2.8 2.8.1.1h.1l3.1.3h.2l.1-.2 1.2-2.9 2.4-.6 5.2 1.6 1 2.1-.5 1.5-2 1.6-.1.1.1.2.8 2.4v.1h.1l.3.2 3.7 8.1-2.1 3-2.1 1.6-4.8-1.6-1.2-2.4-1.6-.5-2 1.2-2-.7-2.3-2.6-.5-2.1.5-3.7-2.4-1.4-1.8-1.8-1.7 1.8-2.1-.4-.9-1.6.1-2-4.2-1.8-2.2-.1-2.4 1.6-2-1.4-.7-3.4-.9-2-1.3-.4-3 1.8-1.2-2.3 1.2-2.9-1-4.6-1-3.7-2.6-.9-.9-1 .8-1.7.1-1.8-2.7-1.3-1.3 1.2-1.8.4-1.6-3.8.5-3.4zm5.9-93.5l-3.2-3-.1-.1v-.1l1.2-4.4-2.3-2.9-2 .1h-.2l-5.3-3.4-4.1 4-.1.1h-.1l-3.1-.2-1.1 6 .6 1.9.1.2-.2.1-3.9 1.8-.4 1.9.2 3 2 2.2 2.4-2 .2-.1.2.2.6.6 4.6-.5h.2l2.3 1.2 4.2-2.5 1-1.6.1-.1h.1l3.4-.1 2.7-2.3zm-23.9-.6l-2.1-2.5-.1-.1h-.1l-5.1.1-5.4-3.4.1-2.1v-.2l-.1-.1-1-.5-.2-.1-.1.1-.6.6-4.5.6v-.4l-.1-.1-2.1-2.6-.3-2.5v-.2h-.2l-5.4-.9-2.4-1.8-3.3-6.2-1-2.3 3.9-.8h.1l.1-.1 1.7-2.6.9-3.7 1.5-1.5 1.6 1.6 3 2.1 5.6 1.5 1.9 1.7.1.1h.1l5.7.5h.2v-.2l.4-2.1.9-.7 2.3 1.7.6 2.3v.1l.1.1 3.1 2.5.1.1h.1l2.6-.2 4.4 3.9.4.3v-.3h4l.5 4.7-4 3.9-3.2-.2h-.2v.2l-1.1 6.3v.2l.5 1.7-3.9 1.5zm12.9 7.2l4-2.4 1-1.6 3.3-.1h.2l2.9-2.1 8.6.4 5.6 3.4 3.7 6.9v.1h.1l6.2 3.6.1.1h.1l4.1-1 1.7 1.7-1.5 1.6-.1.1v.1l-.1 4.9-7.7-.1h-.1l-.1.1-3.2 3.2-2-2-2.3-1-.8-2.2-.1-.2h-.2l-2.8-.1h-.2l-1.1.7-8.6-.1.5-6.4v-.2l-.1-.1-2.9-1.6-.1-2.6v-.1l-.1-.1-1.5-1.4-.1-.1h-.1l-2.2.7-4.1-2.1zm-7.2-.5l.3.3.1.1v.1l-.6 2.4-1.2 1.6 1.6 1.8 2.4 1h.1v.1l4.8 6.2 1 2.9 1.6-.3 1.1-1.6.1-.1h.1l2.9-.2h.1l.1.1 1.1 1.1 1.8-1 .5-6.3-2.9-1.6-.1-.1v-.1l-.1-2.6-1.3-1.2-2.1.7h-.2l-7-3.7-4.2.4zm-6.4-3.8l-1.3 1.2-2.6 3-.8 2.4 1.1 3.4 1.4 1.8.9.8.1.1-.1.2-.9 2.5-1.2 1.9 5 8.4 3.5-2.1h.2l4.4-.1 4.9-2.9-1-2.8-4.8-6.1-2.4-1-1.8-2-.1-.1.1-.2 1.3-1.8.6-2.2-1.1-1.1-2.4 2-.2.1-.2-.2-2.3-2.4-.1-.1v-.1l-.2-2.6zm-21.7-4.9l.4 2.5 1.4 2.2 1.9 1.1.1.1V191.9l-1.2 1.8-.7.9.8 1.6 1.9 1.2.1.1v.1l.3 3.4v.1l-.1.1-1.6 1.6v1.5l2.2-.1.9-.8.1-.1.1.1 1.3.6 2.1-.5.7-.6.1-.1.2.1 1.4 1 1.1.7 1-.9.1-.1h.1l3.2.1 1.2-1.8.8-2.4-.8-.7-1.4-1.8-1.2-3.6v-.2l.8-2.5 2.7-3.1 1.7-1.5.4-1.9-2.1-2.5-5 .1h-.2l-5.5-3.6-.1-.1v-.1l.1-2.1-.7-.3-.6.6-.1.1h-.1l-4.7.7v.6l-3.1 3.9zm1.4 12.7l.7-.9 1.2-1.7v-4l-1.9-1h-.1v-.1l-1.4-2.3-.4-2.3-2.6 1.6h-.1l-4.9.5h-.1l-.1-.1-.9-1.3-1.6-.2-1.1.6-.3.2-.1-.3-1-3.6-2.1-.1-1.8 1.6-.1.1h-.1l-3.3-.1-1.6.7-1 1.6.1 1.5.8 1.6 1.2.7.8-.7.1-.1h.1l1.9.1h.2v.2l.2 1.4v.2l-.1.1-1.5.9-.9.9v1.1l.7 1.1 6.7 3.5 4.3-2.5.1-.1h.1l1.1.3 3.3 2 .9-1.1.1-.1h.1l4.4.1zm1.8 10.5l2.4-.1h.1l.1-.1.8-.8 1.2.5h.2l2.2-.5h.1l.6-.5 1.2.9 1.2.8.2.1.1-.1 1.1-1 3.1.1 5.1 8.6 1 2.8.6 1.7-2.7 1.9-5 4.5-1.5.1-1.7-.6-2.5-2.8-.1-.2-.2.1-1.5.9-1 .3-1.6-.9-1.6-3-.1-.1h-.1l-2.7-.1v-1.7l-.5-1.7v-.1h-.1l-1.9-1.5-.6-1.7.2-1.2 1.3-1.7 2.6-2.9zm-15.7-8.6l4.2-2.4 1 .3 3.5 2.1.2.1.1-.2 1-1.1 4-.2.8 1.7v.1h.1l1.9 1.2.3 3.2-1.6 1.6-.1.1V204.5l-2.6 2.8-1.3 1.8v.1l-.2 1.1-1.8-.2h-.2l-2.9 1.3-1.9-.2-1.8-2.2.5-4.2v-.1l-.1-.1-2.2-2-1-2.3.1-4.2zm14.8 21.6v.5l-.1.1-2.3 2.1-3.6 1.7-.8 1.4.6 1.2.3 2.2v.2l-.6 1.4v.1h-.1l-2.2 1-.2 3.7 2.1 1.5 1.5 1.4.1.1v.1l.2 2.5 2.2 1.6 3.2-.6 6.4-3.3.8-1.1.1-5.3.6-3.6v-.1l2.8-3.3-2.3-2.5-1.3.8-1.2.3h-.1l-.1-.1-1.8-1h-.1v-.1l-1.6-2.9h-2.5zm-12.4-8.3l-4.8 3.9-.9 1.5-.1.1h-.1l-2.5-.1.1 1.9 1.6 2.1 2.7.2h.1l.1.1.8 1.4v1.7l1.6.8.1.1v.1l.4 2.6 4.3 3.3 2.1-1 .6-1.3-.3-2.1-.6-1.3-.1-.1.1-.1.9-1.6v-.1h.1l3.7-1.7 2.2-2 .1-2.4-.7-1.4-1.9-1.5h-.1v-.1l-.6-1.7-1.8-.2-2.9 1.3h-.2l-2.1-.2h-.1l-.1-.1-1.7-2.1zm-17.4-10.9l8-5.8 6.6 3.5-.1 4.2v.2l1.1 2.4 2.2 2-.5 4.1-5 4-.8 1.4-2.6-.1-1.7-.5-.4-1V211l-.1-.1-.8-1V206l-.1-.1-5.8-7.4zm11.8-39.6l-.6 1-4.3 2.5-2.2 3.5-2.3 4.8-.3 3.9.7 2.4-1.7 2.1-.1 1.6h.1l4.1.3 1.7-.7 3.3.1 1.8-1.6.1-.1h.1l2.4.1h.2v.2l1 3.5.9-.5h.2l1.8.3h.1l.1.1.9 1.3 4.7-.5 2.8-1.8 3.1-4.4.1-1.1-2.1-2.6v-.2l-.3-2.4-5.2-.9h-.1l-2.5-1.8-3.4-6.3-1.1-2.5-1-.5-2 .5h-.1l-.9-.3zM73.6 181l.3.2h.2l3.9.2-.8 1.4v.2l.1 1.6v.1l.9 1.7v.1h.1l1.4.8.1.1.1-.1.9-.7 1.6.1.2 1.1-1.4.8-1 1-.1.1V191.3l.6 1-8 5.9-6.5-.2 3.4-4.5v-1.8l-2.7-.5-2.3.3-.8-3.7-2.1-1.7-2.7.1-.4-2.9 5.2-4.4 1.4-3.5 2.5.5-.3 2.4 2.6 2.5 3.6.2zm-8.1 17.4l7.1.3 5.7 7.5v4l.8 1v2l.5 1.1v.1h.1l1.7.5.2 2.1v.2l1.6 2.2-.4.9-.7.1-.7-.8-.1-.1H79.9h.1l-.1.1-1.6 1.5-3.6-3.6-.1-.1h-.1l-3.6-.8-2.4-1.6-.7-2.2v-.1h-.2l-1.5-.3h-.2l-1.2.7-2.6-2.3.5-4.9-2.2-1.3.1-2.6 1.6-.4 1-2.1 2.4-1.1zm-3.4 12.7l-1.9 2.3-.9 1.4.4 2 2 .9-.3 3 5 3.1.1 5.7 3.9 7.4 5.4-5.5-.5-2.4v-.2l.8-1.4.1-.1h.1l1.7.1-.1-1-.9-.7-.2-.1.1-.2 1.1-1.5v-2.7l-3.6-3.7-3.6-.7-2.5-1.7h-.1v-.1l-.6-2.1-1.3-.2-1.3.7-.1.1-.1-.1-2.7-2.3zm8.5 26.4l5.6-5.7.1-.1v-.1l-.5-2.4.7-1.2 1.8.1h.3v-.3l-.1-1.4v-.1l-.1-.1-.8-.6 1-1.3v-3l1.6-1.5h1.1l.7.8.1.1h.1l1-.2h.1l.1-.1.4-1 2.5.1.7 1.2v1.8l.1.1 1.7.8.4 2.6v.1l.1.1 4.4 3.4-.2 3.9v.1l.1.1 2.2 1.6 1.4 1.4.2 2.5v.1l.1.1 2.3 1.7-.2 3.9-.8.7-3.5-1.3-1.6-3.1-.1-.2-.2.1-2.1.7-4-.5h-.2v.2l-.4 2.7-3.5 2.2-3.4-.2h-.2l-2.2 1.5-2.4-1.5-3.3-1.8.2-4.8-1.3-2.2zM695 295.2l1.5 3.6 2.2 10.8 2.5 3 7.6 15.4 1.7 4.8-1.2 15.4-2.4-.7-.6-3.2v-.1l-.1-.1-4.7-3.3-.1-.1-.1.1-5.4 4-.2.2.2.2 3.2 3.5.1.1h.1l4.6.4-1 6.9-3.4.1h-.3v.3l.5 4.8-4.6 3.1-8 .5h-.1l-.1.1-2.1 2.8-.1.1.1.1 1.5 2.9-3.7.8-2.1-6.1 1.3-4.2-3.5-5.7 1.1-4.3.1-.4-.4.1-10.2 3.4-3.4-2.7h-.2l-7.6-.1h-.1l-.1.1-3.6 3.4-5.7-7.9h-.1l-7.1-3.5v-4.3l2.6-3.5.1-.1-.1-.1-1.7-2.1 3.9-4.6v-.2l.7-3.8 2.7-2.9.1-.1-.1-.1-1.7-3.5 6.7-1.1h.1l.1-.1 1.8-1.8.1-.1v-.1l-2.7-8.3v-.1h-.1l-2.9-.4h-.2l-.1.2-1.3 2.3h-4.3v.2l-.9 3.8-5.5 5.1-3.4.2-3.1-4.6-.1-.1h-6.8l-.2-3.4 3-1.7.1-.1v-.2l-.4-4.2 4-8.7.1-.1-.1-.1-2.7-2.9-.1-.1-.2.1-8.2 4.3-2-5.6 2.8-3 .1-.1-.1-.1-1.2-3.1v-.1h-.1l-5.2-3.4 2.8-5.4.1-.2-.2-.1-5.1-3.5 2.3-2.7.1-.1V257.3l10.1-3.8.1-.1v-.2l.4-4.5 6-.4h.2l.1-.1 1.4-3.9v-.1l-.2-3.7 2.9-1.4.2-.1-.1-.2-2.3-8v-.1l-.1-.1-4-2.8 2.6-9.3v-.2l-3.6-9.7 1.9-2.4 7 2.4h.2l4.7-1h.1l.1-.1 1.6-2.8 5.4-.8h.2v-.2l1-3.6 4.1-2.8 9 3 1 4.9-2.2 4-.1.1.1.1 1.8 3.7.1.3.2-.2 3.8-2.8h4.5l2.3 4-1.8 1.2 1.2 1.8-.4 1.6-4.2-.8-13.2 12.8.9 6-2.1 5.6 1.6 6.3-1.8 7.6-1.6 15.7-6.3 15.7-.3 4.6 4.8.8 5.7-3.5 2.7 8 3.3-4.2 2.9 3.7 2.4-10.3 6.8-3.5 8.7 1.6 4.2 1.7-1.7 3.4 2 2.3 5.7 2.3.3.1-4.2-9.5-4.2-3.1.7-3 2.1.5 1.3-1.7-2.4-3.5-4.3-3 .5-2.5 2.3-1 3.4 4.3 7.3 5.1 5.4 10.1 11.6 10.4 16.4 11.1-7.3.4-3.9 2.2 1.8 5.4 3.3 8.4 5.1 3.7 4.4 2h4.2l2.9 6-3.5-1.8-1.4.7-3.8.3.7 4-.4 5.4-4.8-6.1-.7-4.7-4.7-2.2-1-3-1.2-3.4-3.8-2.9-3.3-5.4-4.6-7.3-3.8-4.8-2.5-6.5-7.7-4.2.3-.1zm-116.7 44.6l8.9-4.6 6.8 2.3 8.2-1.3 12 11.9 14.9 15.4 5.9-2.3 3.7 1.7 2.6-1.3 5 1.6 2.7-.4 4.7-7.2-5.7-7.9-7.1-3.6-.1-.1V339.2l2.6-3.4-1.7-2.1-.1-.2.1-.2 4-4.7.7-3.8v-.2l2.6-2.8-1.7-3.7-.1-.3.3-.1 6.9-1.1 1.6-1.6-2.6-8-2.6-.4-1.3 2.5-.1.1H645l-.9 3.6v.1l-.1.1-5.6 5.2-.1.1h-.1l-3.6.2h-.1l-.1-.1-3.1-4.6h-7v-.2l-.2-3.8v-.2l.1-.1 3-1.7-.4-4.1v-.2l4-8.6-2.5-2.7-16.5 8.6.4 2.5v.2l-.2.1-3.6 1.3h-.2l-3.1-.7-10.7 4.9-.1.1-.1-.1-2.6-2.2-7.7 2.9h-.1l-.1-.1-4-3.1-6.1-.2-2.6 2.6-.2.2-.2-.2-2.8-2.5-1.9 1.7-.2.1-.2-.1-3.5-2.8-4.3 1.7-4.2 2.8 5.3 3.6.2.1-.1.2-1.6 2.2 2.5 2.5 4.5-2.5.2-.1.1.2 2.1 3.8 3.4-.8.3-.1v.3l.5 6.7 3.5 2 .2.1-.2.2-2 2.8 5.9 8.7zm71 23.2l3.9 6.2 4.2 3.7 8.9-4.3 1.2-3.7 6.7-7.4 3.6-1.7 1-3.8-9.9 3.3h-.1l-.1-.1-3.4-2.8-7.4-.1-3.7 3.5-4.9 7.2zm33.2 9.3l-.5 15.2 2.7 4.7-10.7.9-3.5 7.7 9.9 10.2.3 3.8 5.5-5.2 9.4.1 6.8-5.5 4-8.1 2-22.2 2.7-11.6-1.8-13.6-2.7-.8h-.1v-.1l-.7-3.3-4.5-3.2-5 3.7 3 3.2 4.7.4h.3v.3l-1.1 7.4v.2h-.2l-3.4.1.5 4.7v.1l-.1.1-4.8 3.2h-.2l-7.9.5-2 2.6 1.5 3.1.1.3-.3.1-3.9 1zM675.4 214l-2.3-4.1-.1-.1H668l-3.7 2.7-1.7-3.3 2.2-4v-.2l-1-5.1v-.1h-.1l-9.2-3.1h-.1l-.1.1-4.1 2.7-8.8-18.4.9-4.4 6.1-4.3.2-.1-.1-.2-2.3-4.4 5.6-5.3 5.2-.5h.1l.1-.1 3.1-3.5.1-.1v-.1l.5-6v-.1l-.1-.1-3.4-3-.2-3.7v-.2l-2.1-3.1 2.6-2.4.2-.2-.1-.2-2.8-3.3 6.5-6 3.1-1.3h.1v-.1l2.4-3.5.1-.1-.1-.1-2-4.1 3.1.5 2.3 4.1.1.2.2-.1 4.8-2.3 4.5 1.4h.1l.1-.1 3.4-3 5.2-.4h.1l.1-.1 3.8-4 5.4 7.8.1.1h.1l3.4.7 2.3 6.1.1.2h.2l3.9-.4 2.4 2.3.7 3.8v.1l.1.1 3.8 2.1 1 4.1.9 5.9-.3 2.9-3.9.7-5.6-7.7-1.3 3.9-2.7.1-4.8 6.9-.8 5.9 2.5 8 .8 13.4 2.9 2.7 2.7-3.4 3.1 2.3-3 3.9-3.8 1.4-1 7.4-4.2 4.7-2.9-2.5 3-4.3-4 .1-4.4 3.9-5.7 1.8 1 6.7-3.3.8-2.4 2-3.8 2.7zm67-68.5l1.9.3 3.1 1.4-.8 9.3-5.8-6.5 1.6-4.5zm5.4-58.1l-4.3 1.3-3.4-1.8-.3-.1-.1.3-5.6 16-6.9-.2-6.3 1.9-2.1-5.8-.1-.2h-.2l-9.1.5h-.1l-.1.1-1.6 2.8-6.1 1.4h-.1v.1l-1 3.1-3.3.3h-.2v.2l-1.1 3.7-3.9 1.2-.2.1v.2l.7 3.9-3.8 4-5.2.4h-.1l-.1.1-3.4 3-4.4-1.4h-.2l-4.7 2.3-2.3-4-.1-.1h-.1l-3.5-.5-2.1-4.4-.1-.1H657l-4-1.8-2.1-5.4 8.5-9.9.1-.1V93.2l-.1-.1-11.4-8.3 2.6-5.1 6.8-5.1v-8.5l6.7 4.2 3.1-1.8 4.7-.5.5-5.1-5.1-2.9-3.4 1-3.8-4.7 5.4-4.8 3.8-1-.5-2.7 5.6-9.1 20.9-11.4 14-9.3 12 3.3 4-1.8-7.4-3 3-3.9.7-5.4L732.7.7l3.9 5.1-3.3 2.2 3.4 2.5-2.6 3.3 6.7 1.3 1.4 3.1 5-.9.1 4.4-4.6-.7 2.2 2.6-9.1 6.9-5.5-.5-3.1 2.6.4 4.7-1.7 3.9-2.9-3.1-2 1.6-3.4-3-1 5.1 2.7 3.1 4-1.6.1 3.4 2.1-1.3 1.7.7.9 9.3-1.7 3.5-4.3 1.4v5.1l3.8.3.5-3.7 4.7-.4 2.1-2.7 17.2 1.4 1.3 4.3-9.3 6.4 3.9 2.2 1.5 14.2zm-100.1-2.1l11.1 8.3v4.9l-8.5 9.9-.1.1.1.1 2.2 5.6v.1h.1l4.2 1.8H662.2l4.2 8.8-2.2 3.3-3 1.2-6.7 6.2-.2.2.2.2 2.8 3.3-2.6 2.4-.2.1.1.2 2.1 3.2.2 3.7v.1l.1.1 3.4 3-.5 5.8-3 3.3-5.2.5h-.1l-.1.1-5.8 5.5-.1.1.1.2 2.3 4.4-6 4.2-.1.1v.1l-.9 4.5v.2l9 18.6-1 3.5-5.4.8h-.1l-.1.1-1.6 2.8-4.5 1-7.1-2.4-.2-.1-.1.1-2.1 2.7-.1.1v.1l3.7 9.8-2.6 9.4v.2l.1.1 4 2.8 2.2 7.7-2.9 1.3-.2.1v.2l.2 3.8-1.4 3.7-6 .4h-.2v.2l-.4 4.6-10.1 3.8-.2.1v12l-2.4 2.8-.2.2.2.2 5.2 3.6-2.8 5.4-.1.2.2.1 5.3 3.4 1.1 2.9-2.8 3-.1.1v.1l2.1 5.8-8.2 4.3-.2.1v.2l.4 2.5-3.3 1.3-3.1-.7h-.2l-10.7 4.9-2.6-2.2-.1-.1h-.1l-7.7 2.9-3.9-3.1h-.2l-6.3-.2h-.1l-.1.1-2.5 2.5-2.8-2.5-.2-.1-.2.1-1.9 1.7-3.4-2.8-.1-.1-.1.1-4.5 1.8-4.3 2.8-6.9-12.8-5.3-12v-.1h-.1l-2.9-2-.1-.1-.1.1-4.7 2.1-1.7-5.1v-.1h-.1l-7.9-3.1h-.2l-4.1.7h-.1l-.1.1-6.1 13-3.9 4.5-3-3-.2-.2-.2.3-2 3.5-5.5.2h-.2l-3.7 2.8-3.4-3.6.7-9.7 3.4-7.8.1-.3-.3-.1-4.4-1.3-1.9-4.3 1.6-6.4v-.2l-.2-.1-3.5-2 .2-6.1v-.2l-2.7-5.2-.1-.2-.2.2-2.2 1.5-2.6-.2v-2.8l2.4-1.5.2-.1-.1-.2-2.1-3.2-.1-.2-1.6-2-.1-.2-.2.1-2.8 1.9-2.6-2.1-.1-.1H465.3l.4-3.2 3.7-4.5 1.2-3.2.1-.2-.2-.1-2.5-1.7V226l-.1-.1-2.1-2.3 1-4.6v-.1l-.1-.1-2.4-1.8 3.6-4 .1-.1v-.1l-1.4-17.5v-.2l-4.1-6.3 1.7-.9 5.2-4.2 3.2.4h.2v-.2l1.2-5.6 1.5-2.3v-.1l.4-3 6.5-5.2.2-.2-.2-.2-2.9-3.4V158.5l-5.6-7.9-.8-4v-.1l-1.7-2.3.2-2.5 3.6-1.8 2.6-2.7 2.2 2 .8 4 .8-2.7 3.1-4.2 11.9.1-.7 2.3 4.4 3 11.6-5 .9-9.9 6.4 2.5 5.7-2 3.8 1.8 5.9 8.7-3.5 2.5 9.7 8.7 6.3 1v-13.1l8.9 1.6 1.6-5.9 5.2 1.6 3.9-.7-1.3-3.1 1.4-2 4.8-1.2-3.1-3.7-.3-3.8-2.6 1.3-1.4-2.6 3.7-3.5-2.5-3 12.8-6.5 4.3-.3-4 3.7.7 3 2.7-2.5h2.7v5.9l4-3.9-2.2-7.6 4-3.5 7 .5-3 3 2.1 2 1.7-1.8 1.8 1.6 2.1-2.7 4-.4 4.2 2.1 3.4-1 1.8-6.4 5.1-6.3L628 86l5.2.5 5.2 5 7.2-4 2.1-2.2zm-179.2 54.2l.3-1.1 1.2-1.8 2.1.1.8 2-3.3 2.1-1.1-1.3zm5.9-7l1.2-2.9 2 .3 1.7 1-.5 1.8-1.4 2.2-3-2.4zM294 138.8l-.5.1-3.7.9-.3.1-.1.3-.6 3.5v.2l.1.2 2.3 3.8.2.3h.3l2.9-.3h.4v-.4l.2-4v-.2l-1.1-4-.1-.5zm-12.1-21.2l-2.8-2.8-.2-.2v-.2l.2-3.4v-.2l.2-.1 3.1-2.3.2-.2.2.1 2.6.9 4-2.1.1-2.3v-.5h.5l2.8.1.5-2.9.1-.6.6.2 4.1 1.7 2.2-2-1.9-1.9.3-.3 1.5-1.8.2-.3.3.1 2.3 1 6.4-2 .3-1.8.1-.4h.4l2.4-.1 1.1-5 .2-.9.6.7 2.1 2.3 1.5-1.2.1-.1h3.7l4.3-2.8.2-.1.2.1 3.3 1.4 3.3-1.9.3-.2.3.2 3.8 3.3 8.7.7.8-1.7.1-.2.2-.1 5.3-1.4.3-.1.2.2 2.3 2.7.1.2v.2l-.6 4v.2l-.2.1-5.3 2.9-.1.1h-.1l-22.1.5-2.8 3.2-.2.2-.3-.1-3.3-.7-1.5 1.4-.3.3-.3-.2-2-1.4-.3 2v.1l-.1.1-1.4 1.8-.4.5-.4-.4-1.2-1.3-.3 1.4-.1.6-.5-.2-1.8-.7-.1 1.6v.5h-.5l-1.6-.1-.7 2.2h-.3l-3.1.3h-.2l-.1-.1-2.2-1.4.6 1.9.1.2-.1.2-1.8 2.6-.1.1h-.2l-4.5 1.5-3.6 3.9-.9 4.3-1.2 11.6-.1.7-.6-.3-1.8-.9-2.7-.6-.4-.1v-.4l-.1-1.7-2-.3h-.3l-.1-.2-2.1-4.7-.1-.3.2-.2 2.6-2.6-.1-4.1zm-30.3 14.9l-2.2-3-.1-.2.1-.2 1-3.5.1-.2.2-.1 4-1.4.3-.1.2.2 2.8 3 .1.1v.2l.3 3v.2l-.6 2-.1.4h-.4l-5.3-.1h-.2l-.2-.3zm-202.7-8.7L40 104.7l-.3-.7.8.1 3.4.2 2.5-1.6.5-.3.2.6 2.1 6 1.9 1.2 1-4.1.3-1.1.6.9 2.6 4.1.1.1v.2l-.5 10.5v.3l-.2.1-5.5 2.9-.5.2-.1-.5zm229.7-2.1l-.3-4.4v-.7l.6.1 2 .5.4.1v3.4l-.2.1-1.7 1.2-.7.5-.1-.8zm76.8 13.7l-.3.1-1.5.5-.4.1.1.5.5 1.9.1.3h.3l1.8.2h.4l.1-.4.3-1.2.1-.3-.2-.2-1.2-1.3-.1-.2zM499.3 354l-1.8 1.7-.1.1v.1l-.6 1.1-.1.2.1.2.6 2-.7 1.8-1.8.5-.3.1v.4l-.1 2.2-2.5 4-3.7 1.1h-.2l-.1.1-2.4 3.3-2.7-.2h-.4l-.1.4-.8 4.2-2.1 2.3-6.8 3H468.3l-.8-1.7 1.8-1.1 2.7-.4h.1l.1-.1 5.5-3.8.1-.1.1-.1 2-3 4.1-3.7.1-.1v-.1l.9-2.7 2.4-4.1 2.9-4.5v-.1l2.5-6.9.2-.6 1.5-4.4.4-1.2.3-.8 1.1-6.6 1.6-2.9 1.9.2.4 2.3-1.1 5.9v.2l.4 5.8v.1l.9 3.1-1.1 2.8zm-338-219.4l-2.2 2.2-3.9 4.4-.1.1v.1l-1 3.7-.1.2-1.7 1.6-3.4-.2-1.3-1.4h1.3l.1-.1 1.8-1.4.1.2.1-.4.1-.1-.1-.1.1-.3.5-1.3v-.2l-.3-4 1.4-2.8 5.2-5.6 2.9.7.9 1.6-.4 3.1zm-20.9-9.5l.1-2.7-1.5-2.2-4-.6-3.1.6h-.1l.2 4v.2l-.1.1-6.5 7.9.9 1.1h4l.1.2 1.6 2.3 4-.1.6-1.5v-.1l.1-.1 2-1.5.4-2.7-.2-3.2v-.2l.1-.1 1.4-1.4zm640.7 113.8l-.8.4-36-24.1h-.1l-6.3-7.1-.3-.3-5.6-6.3-.1-.1v-.2l-.6-7.3-3.9-4.6-.3-.3.2-.3 1.4-1.9-.8-2.8-.1-.3.2-.2 2.7-2.9-2.4-7.6-1.8-7.8-.8-12-2.3-3.8-.1-.2v-.2l2-10-1.8-.4-.4-.1v-.4l.1-3.2-1.9-.1h-.1l-.1-.1-5.1-3.5-.2-.1v-.2l-.8-3.9v-.2l.1-.2 2.6-3.9-4.8 1.7-1.4 4.7 6.5 7.8.3.4-.3.3-2.4 2.3 1 4.1.9 5.9v.2l-.3 2.9v.4l-.4.1-3.8.5h-.3l-.2-.2-5.1-6.9-1 3-.1.3h-.3l-2.5.1-4.6 6.6-.8 5.6 2.4 7.9v.2l.8 13.3 2.4 2.2 2.4-3 .3-.4.4.3 3.1 2.4.4.3-.3.3-3 3.9-.1.1-.1.1-3.5 1.3-1 7.2v.1l-.1.1-4.2 4.7-.3.4-.4-.3-2.9-2.5-.3-.3.2-.4 2.4-3.5-2.9.1-4.3 3.8-.1.1h-.1l-5.3 1.7 1 6.2.1.4-.4.1-3.2.8-2.3 1.9-3.5 2.3-.3.2-.1.1-1.4.9.9 1.4.1.2-.1.2-.4 1.6-.1.4-.4-.1-3.9-.7-12.8 12.6.9 5.8v.2l-2 5.5 1.5 6.1v.2l-1.8 7.5-1.6 15.6v.2l-6.2 15.6-.2 4.1 4.2.7 5.6-3.4.5-.3.2.6 2.4 7.1 2.7-3.5.4-.5.4.5 2.2 2.9 2.1-9.3.1-.2.2-.1 6.8-3.5.1-.1h.2l8.7 1.6h.1l4.2 1.7.5.2-.2.5-1.6 3.1 1.7 2 4.8 2-3.6-8.3-4.1-3.1-.3-.2.1-.3.7-3 .1-.5.5.1 1.8.4.9-1.2-2.1-3.2-4.2-2.9-.3-.2.1-.3.5-2.5.1-.2.2-.1 2.3-1 .3-.2.2.3 3.3 4.2 7.3 5 .1.1.1.1 5.3 10 11.5 10.4 16.4 11.1 1.2.8-1.4.1-7.2.4-3.5 2 1.7 5 3.2 8.2 4.9 3.5 4.3 1.9h4.4l.1.3 2.9 6 .6 1.3-1.3-.7-3.3-1.7-1.2.6h-.2l-3.3.2.6 3.5v.2l-.4 5.4-.1 1.3-.8-1-4.8-6.1-.1-.1v-.1l-.6-4.4-4.5-2.1-.2-.1-.1-.2-1-3-1.1-3.3-3.7-2.8-.1-.1v-.1L713 318l-4.6-7.3-3.8-4.8v-.2l-2.4-6.4-6.3-3.4 1.2 2.8v.1l2.2 10.7 2.4 2.9v.1l7.6 15.4 1.7 4.8v.2l-1.2 15.4v.4l1.8 13.6v.2l-2.7 11.6-2 22.2v.2l-4 8.1v.1l-.1.1-6.8 5.5-.1.1h-.2l-9.2-.1-5.3 5.1-.7.7-.1-1-.2-3.6-9.8-10.1-.2-.2.1-.3 3.5-7.7.1-.3h.3l9.9-.8-2.4-4-.1-.1v-.1l.5-15.2V372.4l-2.1-6.1-.1-.2v-.2l1.2-4-3.3-5.4-3.4 1.6-6.5 7.3-1.1 3.6-.1.2-.2.1-8.9 4.3-.3.1-.2-.2-4.2-3.7h-.1v-.1l-3.9-6.1-2.7.3h-.2l-4.8-1.5-2.4 1.2-.2.1-.2-.1-3.5-1.6-5.7 2.3-.3.1-.2-.2-14.9-15.4-11.8-12.1-8 1.3h-.2l-6.6-2.3-8.7 4.5-.2.1-.2.1-6.1 4.2-3.1 5.8 4.2.4h.3l.1.3 2.3 6.3.1.3-.2.2-3.4 3.4-2 12.8 1.9 4.7.1.4-.3.2-4.6 3.2-1.9 5.2-.1.4-.4-.1-13.6-2.2-3.1 2.8-.3.3-.3-.3-2.2-2.1-7.4.4-5.4 5-1.1 3.7-.1.3h-.3l-3.5.1-11.4 6.9-.1.1h-.2l-17.1-1.6h-.3l-.1-.2-2.1-3.9-1.9-.1h-.5l-3.5-.1h-.3l-.1-.2-1.4-2.5-5.7.4h-.2l-5.5-1.8-7.3 4.3-.1.1h-.1l-5.2.1h-.1l-.1-.1-7.4-3.9-.2-.1-.1-.2-2-7.8-9.9-2.3-10.9-4.4-.8 3.1h-.4l-2.3.1-.1 2.3v.3l-.3.1-1.8.6-.4 5.5 3.1 3.8.2.2-.1.3-2 4.8v.1l-.1.1-2.7 2.3-.1.1h-.1l-3 1-.3.1-.2-.2-1.8-1.7-3.6-.5-9.5-1h-.2l-3.4-1.7-.2-.1v-.2l-.6-3.7-8.7-1.9h-.2l-.1-.2-.9-1.3-5.7.4-16.7 6.3-.2.1-.2.1-4.2 3.1-.1.1h-.2l-6 .2-1.3 2.9-.1.3h-.3l-4.7-.5h-.2l-.1-.2-3-4.4v-.2l-.8-2.7-4.2 2.2-.4.2-.3-.3-1.6-2-4-.9-.4-.1v-.4l-.1-4.2-3.9-2.2-.2-.1v-.3l-.5-4.5v-.2l-.1-.2-2.1-4.3-2.7-1.2-5.4 2-.2.1-.2-.1-7.2-3.9-.2-.1v-.2l-.6-3.3-1.6-.7-2.1 3.1-.1.2h-.2l-3.4.5-.5.1-.1-.5-6.3-30.3v-.2l-.1-.1-5.7-9.3-.2-.3.3-.3 2-2.1-5.7-.1h-.4l-5.5 1-1.9 1.6-.1.1h-.1l-2.3.5h-.2l-.2-.1-2.4-1.3-2.8.9-.6.2v-3l.2-.1 2.6-2.2-1.7-1.9-1.9-.5-2.7-.1h-.4v-.4l-.2-2.7-5.3-1.2-.3-.1-.1-.3-.5-2.2-.1-.2.2-.2 2.4-2.8-.7-2.1-.1-.3.2-.2 1-1.2-.1-2.8-1.6-.5-.2-.1h-.3l-2.4-.4h-.2l-.1-.2-2.9-4.8-3.4.1h-.1l-.2.1-4.5 2-.1.1h-.2l-12.3-2.4h-.2l-3.4-1.8-2.2 1.8-.3.2-.3-.2-4.1-2.6-7.3-1.7h-.4l-7-.4h-.2l-.1-.1-3.2-3.4-1.8.5-2.2 2.3 1 3.3 2.2 3.6.2.3-.3.3-1.8 1.7-.3.3-.3-.3-2.9-2.3-2.2-.1-2 1.1-.4 3.3v.4h-.4l-4.7.4-1.4 1.8.1.1 3.7 8.1.1.3-.2.2-2.1 3v.1h-.1l-2.1 1.6-.2.1-.2-.1-4.8-1.6-.2-.1-.1-.2-1.1-2.2-1.2-.4-1.8 1.1-.2.1-.2-.1-2-.7h-.1l-.1-.1-2.3-2.6-.1-.1v-.1l-.5-2.1v-.2l.5-3.3-2.1-1.3h-.1l-1.5-1.5-1.4 1.5-.2.2h-.3l-2.1-.4h-.2l-.1-.2-.9-1.6-.1-.1v-.1l.1-1.6-3.8-1.7-2-.1-2.2 1.5-.3.2-.3-.2-2-1.4-.2-.1v-.2l-.6-3.3-.8-1.7-.9-.3-2.8 1.7-.5.3-.2-.5-1.3-2.5.1-.2 1.1-2.7-1-4.4-1-3.4-2.4-.8h-.1l-.1-.1-.9-1-.2-.2.1-.3.7-1.6.1-1.4-2.2-1-1.1 1-.1.1h-.1l-1.8.4-.4.1-.2-.4-1.6-3.8v-.2l.1-2.8-1.7.4-3 .8-4 .3h-.2l-.1-.1-1-.8-1.2.1-2.1 1.7-.2.1h-.2l-3.8-.7-1.5 1.6-1.4 2.8-.1.2-.2.1-2.9 1.3-.4.2-.2-.4-1.4-2.6-.1-.2.1-.2.6-2 .2-2.3-2.3-2.2-1.4.4-4 1-3.5 2-.6 3.2-.1.3-.3.1-4.4 1.5-.2.1-.2.1-1.9.8-1 .5 2.7 3.7.3.4-.3.3-3.3 3-.3 1.6 2.6-.1h.2l.1.1 1.8 2.5.1.2v.2l-2.1 11.7-.1.3-.3.1-2.3.4.8 3.8.1.6h-.6l-11 .3h-.2l-4.1-1.5-.1-.1h-.1l-3.9 1.8h-.2l-4.1-.1h-.1l-.1.1-2.8 2.1.6 2.4v.2l-.5 6.3v.2l-.1.1-6.2 5.9-1.7 9.6v7.1l-.2.1-2.5 1.6-.2.1-.2-.1-2.1-.7-1.5-.8-.7 1.2-.1.1-.2.1-1.6.7-.3.1-.2-.3-3.3-4-.2-.2.1-.2.6-2.6.3-5.3-3.6-5.1-.1-.1v-.1l-.3-3.9v-.2l.2-.2 1.4-1.4-.4-1.9-.9-2.5v-.1l-.1-.1-1.4-1-.2-.1v-.2l-.1-1v-1.1l-5-2.4-.3-.1v-.3l-.2-4.5v-.2l-.1-.1-.8-1.3-.1-.1v-.1l-.1-4-2.6-2.9-.4-.4-3.2-3.5-.1-.1v-3.3l-3.1-5.3-.1-.1-.2-.3-1.2-1.9-1.7.7-.4.2-.2-.3-1-1.4-.1-.2v-.2l.9-7.9.4-4.8-1.2-5.1v-.2l.1-3-1.9-1.4-.1-.1-.7-2.1-.1-.3.2-.2 1.3-1.6-.3-4.4v-.2l.2-.2 2.9-2.6.4-.4.3.5 3.3 5.5 1.4-1.8.1-.2h.2l5-.3h.1l.1.1 2 1 1-5.3.1-1 .7.6 4.8 4.3.1.1v.2l2-1.6.3-.2.3.2 3.4 2.1 1.2-.8-6.4-3.8-.5-.3.4-.4 3.3-3.4.2-.2h.2l7 .9h.2l.1.2 2.8 4.1 3.7-1.4 2.4-4.3.1-.2h.2l1.9-.2 1.4-2.2.1-.2h.3l3.6.1v-1.5l.2-4.4-1-2-.2-.3-.1-.1-3.9-7.4-.1-.1v-.1l-.1-5.5-4.7-3-.3-.2v-.3l.2-2.7-1.6-.8-.2-.1v-.2l-.4-2v-.2l.1-.2.9-1.4 1.9-2.3.1-.1v-.2l.5-4.6-1.9-1.1-.3-.1v-.3l.1-2.6v-.4l.3-.1 1.6-.3.9-1.9.1-.2.2-.1 2.2-.9H65.7l.2-.3 3.3-4.4V192l-2.3-.4-2.3.3h-.4l-.1-.4-.7-3.5-1.8-1.5-2.6.1h-.4l-.1-.4-.4-2.9v-.3l.2-.2 5.1-4.4 1.4-3.4.2-.4.4.1 2.5.5.4.1v.4l-.2 2.1 2.3 2.2 3.4.3.1-1.4v-.2l.1-.1 1.5-1.9-.6-2.1v-.2l.3-3.9v-.2l2.3-4.8 2.2-3.5.1-.1.1-.1 4.2-2.4.4-.8.1-.2.2-.3.1-.2.9-1.6-.6-2.8-2.8-.7-.4.2-.1-.3-.5-2.2-.1-.2.2-.2 2-2.4-1.7-2.2-.1-.1v-.2l-.3-4.6v-.3l.2-.2 4.6-3 .1-3.3v-.4h.4l3-.4 2.6-4.4.2-.3h.3l4.3.2 2.2-3v-.1h.1l4-3.1.1-.1h.1l2.5-.3.5-.1 2.6-.3 3.9-2.5.3-.2.3.3 3.1 3 1.9.1h.3l.1.3.9 2.4.8-.7-.4-1.7v-.2l.3-4.3v-.3l.3-.1 5.4-2h.2l4.3-.2h.4l5.8-.2 12.7 1.7 2.5-1 .9-6.6 1.3-4.6.1-.4.4.1 4.6.7 1-1-1-1.9-.2-.4 2.3-1.7 1.1-2.1 1-2.6.1-.3h.3l2.5.1 3.5-2.4.1-.1h.2l2.6.1 5.4-6.8h.5l.2-.2.2-.2 2.1-2.7.1-.2h.2l6.4-.1 3.2-5.1-.1-4.1.3-.1 4.9-2.9 1.9-1.4.1-.1h.2l9.9.9h.1l.1.1 6.9 4.7.1.1.1.1 1.8 3.5.2.4-.4.2-2 1.3-.4.3-.3-.4-1.7-2.4-.8.5.5 3.6 3.2 5.1v.2l1.3 4.3v.2l-.3 11.7 2.1 8v.2l-1.3 6.8v.1l-.1.1-4.7 6.4-.1.2h-.2l-6.3 1.2h-.2l-.2-.1-10.2-6.1.2-.1v-.2l-.6-4.2-2.7-4.1-.1-.1v-.1l-.5-6.8-1.9-4.1-.1-.1v-.1l.6-4.5-.8-1.1-.9 5.5-.1.6v.2l-.9 5.9v.2l-2.4 4-.1.2-.2.1-3.9 1.3-4.7 5.9-1.4 2.6 1.5 2.1.1.2v.2l-.4 1.7.3 2.1v.5l.6 4.2 3.2 1.8 1.9-2.5-2.2-2.7-.2-.2.1-.2 1.6-5.5.1-.3h.3l5.7-.7.6-.1v.6l-.5 6.3 3.4 8 1.9 1.1 3.2-8 .1-.3h.3l6.1-.9h.2l4.9 1.7 4.8-.8.3-.1.2.3 3.3 6.1.3.6-.6.1-2 .4 1.2 2.3 3.5-3.1.2-.2.2-.2.2-.2 3.4-3.1.6-3.8v-.2l.2-.1 7.7-5 1.6-6 .2-.8.6.6 5.7 6.3.1.1v.2l.1 6.1v.1l-.1.1-1.8 3.1-.3.4-.4-.3-4.1-2.9-4 1.3 1 2.9.1.2-.1.2-1.1 3.1 3.4 3.3 7.3-4.3.3-.2.3.2 1.7 1.6 1.7-1.7.3.1 14.4 3.5.2.1.1.2 1 1.7 2.2-2.6.2-.2.3.1 5.6 1.3.6.1-.3.6-2.2 4.3-.1.2h-.3l-3.3.3 1.8 2.5 6.8-.6h.2l.1.1 4.4 3.3 9.1.1h.5v3.6l-.2.1-2.4 2.2 1.6 1.3 1-1.5.2-.3.3.1 1.8.4 3.1-1.9.1-4 .7-2.9.1-.4h5.6l.1.2 6.5 7 2.5 4.6.1.2.1.2 5.1 8.2v.2l1.3 5.5 1.2 1.9 4.1-3.8-1.2-1.7v-.2l-.7-2.3v-.2l.1-.1 1.2-3.4-3.6-3.7-.1-.2v-.2l.1-2v-.3l.3-.1 4.1-1.2 2.9-5.2-2.7-3.5-.3-.3.3-.3 2.9-2.7.1-.1h.1l5.4-1.3 3.5-3.4 4.7-6v-.1l3.9-3 .2-.2.3.1 1.6.6-.5-1.2v-.2l.3-3.7v-.5h.5l4.1.3h.4v.4l.6 5 .1.5-.5.1-3.3.4 3.5 4.7.1.2v.2l-1 6.9v.2l-.1.1-5 4.8.9 4v.2l-.9 3.3-7.9 18.8.8 5v.1l-.1.1-4.7 9.4-.1.1-.1.1-6.9 4.4-4.3 1.7-.2.1-.2-.1-7.5-3.5v2.6l11.7 7.2 3.4-3.6.1-.1h.1l5.2-1.9 5.7-5.8.4-7.5v-.2l.1-.1 3.5-3.4.2-.2h.2l6.4.9h.3l.1.3 1.8 5.5.1.2-.1.2-4.1 7.1 1.4 5.2 3.9-.9-1.9-1.1-.1-.1-.1-.1-1-2.1-.1-.3.2-.2 3.7-4.4v-5.8l-5.1-6.1h-6.8v-.5l-.4-6.1v-.2l.1-.1 6.3-9.9-.1-10.2v-.2l.1-.1 2.6-3.9.1-.1h.2l2.6-.8 2.4-2.2 1.7-4.6.1-.2.2-.1 1.4-.7.7-.3-.1.8-.5 6.9v.2l-.1.1-3.4 4.2.2 4.3 7.3 6.5-.2-3-4.5-4.8-.2-.2.1-.3 1.2-4 .2-.7.6.5 3.7 3.4 1.1-3.9.1-.3h.3l2.6-.2h.5l3.5-.2h.3l.1.3 4.7 8.7h4.6l-1.6-3.8-4-3.8-.2-.1v-.2l.3-9.1v-.1l.1-.1 2-3.5.1-.3h.3l6.4.1 11 1.8 3.5-.9-2.4-4.4-.1-.2v-.2l1.4-5.9v-.2l.1-.1 3.3-2.9.1-.1h.2l4.3-.1 5.6-4.5.1-.1h.1l8.1-1.1-.1-3.6v-.5h.5l7-.1h.4l.1.4.6 1.9 4.4.8 2-1.9.2-.2.2.1 3.1.7-1.5-2.3-.1-.1v-.1l-.1-1.6v-.5h.5l5.4-.4-1.2-4.4-.1-.2.1-.2 5.6-8.4.1-.1.5.4 3.5-1.3.3-.1.2.2 3.9 3.3.3.3-.3.4-1.6 2.3 5.6.7.6.1-.2.6-2.1 5.9 2.1-.4 2.6-3.7.2-.2h.3l7.8.3h.2l.1.2 8.4 9.5.2.2-.1.3-2.7 9.7v.2l-6 10.8v.1l-10.7 11.1-.1 3.1 1.1-2 .1-.2.2-.1 5.3-1.5 3.8-2.9 3.4-1.7.3-.1.2-.1.2-.1 3.3-1.6 2.6-2.7.3-.3.3.3 2.2 2 .1.1v.2l.4 2 .2-.8v-.1l.1-.1 3.1-4.2.1-.2h.2l11.9.1h.6l-.2.6-.6 2 3.9 2.7 11.1-4.7.9-9.6.1-.6.6.2 6.2 2.4 5.6-1.9.2-.1.2.1 3.8 1.8.1.1.1.1 5.9 8.7.3.4-.4.3-3 2.1 9.1 8.2 5.6.9v-13.1l.6.1 8.4 1.5 1.4-5.4.1-.5.5.1 5.1 1.5 3.2-.5-1.1-2.6-.1-.3.2-.2 1.4-2 .1-.1h.2l4.1-1-2.6-3.1-.1-.1v-.2l-.2-3.1-2 1-.4.2-.2-.4-1.4-2.6-.2-.3.3-.3 3.3-3.2-2.2-2.7-.4-.5.5-.3 12.8-6.5h.2l4.3-.3 1.4-.1-1 .9-3.8 3.5.4 1.9 2.1-1.9.1-.1h3.4v5.2l3-2.9-2.1-7.3-.1-.3.2-.2 4-3.5.2-.1h.2l7 .5 1.1.1-3.4 3.4 1.4 1.3 1.4-1.5.3-.3.4.3 1.4 1.2 1.8-2.3.1-.2h.2l4-.4h.1l.1.1 4 2 3-.9 1.8-6.1v-.1l.1-.1 5.1-6.3.1-.1h.1l7.4-4.8.1-.1h.2l5.2.5h.2l.1.1 5 4.7 6.7-3.8 1.3-2.5V85l.2-.4 2.6-5 .1-.1.1-.1 6.6-4.9v-9.1l.7.5 6.4 4 2.9-1.7.3-.2h.1l4.3-.5.4-4.4-4.6-2.6-3.2 1-.3.1-.2-.3-3.8-4.7-.3-.4.3-.3 5.4-4.8.1-.1h.1l3.4-.9-.4-2.3v-.2l.1-.2 5.6-9.1.1-.1.1-.1L695 26.9l14-9.3.2-.1.2.1 11.8 3.2 2.9-1.3-6.4-2.6-.6-.2.4-.5 2.9-3.8.6-5.2V7l.2-.1L732.3.4l.4-.2.3.3 3.9 5.1.3.4-.4.3-2.6 1.7 2.8 2 .4.3-.3.4-2.1 2.6 5.9 1.2h.2l.1.2 1.3 2.8 4.6-.8.6-.1v.6l.1 4.4v.6l-.6-.1-3.3-.5 1.4 1.6.3.4-.4.3-9.1 6.9-.1.2h-.2l-5.3-.5-2.8 2.3.4 4.4v.2l-1.7 3.9-.3.7-.5-.6-2.6-2.8-1.6 1.3-.3.3-.3-.3-2.8-2.4-.8 4 2.4 2.7 3.7-1.4.6-.2v.7l.1 2.6 1.4-.9.2-.1.2.1 1.7.7.3.1v.3l.9 9.3v.1l-.1.1-1.7 3.5-.1.2-.2.1-4 1.3V65l2.9.2.5-3.2.1-.4h.4l4.5-.4 2-2.6.2-.2h.3l17.2 1.4h.3l.1.3 1.3 4.3.1.3-.3.2-8.6 6 3.2 1.8.2.1v.3l1.3 14.1v.5l1.8 19.9 3.8 9.2.3.7h-.7l-6.5.1-4.2 4.3-.1 12.3v1l-.8-.6-4.5-3.6 2.3 9.1.1.5-.5.1-3.2.7-.5 5.1 8.7 17.4 2 .2.4-2.6.1-.4h5l.1.3 1.9 4.6v.1l.1.1 3.9 2.5 2.4-1.3.3-.2.3.2 4.8 4.6.5.4-.5.3-3.1 2-.4.2-.3-.4-1.7-2.4-.8.5 6.1 10.8 6.1 1.8.3.1.1.3.8 3.4.1.2-.2.2-3 3.3-.1 5.6 7.3 8.5.3.4-.4.3-2.1 1.7-.4 6 4.2 4.2.1.1v.1l1.4 6 1.2 13.3zm-36.6-93.5l3.2 1.4.3.1v.3l-.8 9.3-.1 1.1-.7-.8-5.8-6.5-.2-.2.1-.3 1.5-4.6.1-.4.4.1 2 .5zm-272-9.2l.1.3.8 2 .1.4-.3.2-3.3 2.1-.4.2-.3-.3-1-1.2-.1-.2.1-.2.3-1.1v-.2l1.2-1.8.2-.2h.3l2.1.1.2-.1zm-288-19.9v.2l.4 1.6.1.3-.3.2-1.4.9-.4.2-.3-.3-1-1.1-.2-.2v-.2l.1-1.1v-.1l.1-.1.8-1.1.3-.4.4.3 1 .8.4.1zM475.3 129l.4.1 2 .3h.1l.1.1 1.7 1 .3.2-.1.3-.5 1.8v.2l-1.4 2.2-.3.5-.4-.3-3-2.4-.3-.2.1-.3 1.2-2.9.1-.6zm157-43.1l-1.6-1.1-.3-.2.1-.4.7-1.9.1-.3.3-.1 2.2-.4.4-.1.1.4.7 2.3.1.4-.3.2-1.9 1.1-.3.2-.3-.1zM363.8 144l.2.6.9 3.3.1.5-.5.1-2.2.4h-.2l-2.2-.8-.5-.2.3-.5.7-1.4.1-.1.1-.1 2.7-1.5.5-.3zm7.3-2.6v.3l.5 4v.4l-.3.1-1.5.7-.3.2-.2-.3-2.2-2.9-.2-.3.2-.3 1.8-2.6.2-.4.4.2 1.5.8.1.1z"/></svg>