<?xml version="1.0" encoding="utf-8"?>
<!-- Generator: Adobe Illustrator 19.1.0, SVG Export Plug-In . SVG Version: 6.00 Build 0)  -->
<svg version="1.1" id="Слой_1" xmlns="http://www.w3.org/2000/svg" xmlns:xlink="http://www.w3.org/1999/xlink" x="0px" y="0px"
	 viewBox="0 0 19.7 12.3" enable-background="new 0 0 19.7 12.3" xml:space="preserve">
<path fill="none" stroke="#0D1413" stroke-width="0.7336" stroke-miterlimit="10" d="M9,11.9C9,10.5,7,7.4,4.7,7.4l0,0
	c-2.4,0-4.3,3.1-4.3,4.6H9z"/>
<path fill="none" stroke="#0D1413" stroke-width="0.7336" stroke-miterlimit="10" d="M4.6,2.3L4.6,2.3c1.1,0,2,0.9,2,2v0.9
	c0,1.1-0.9,2-2,2l0,0c-1.1,0-2-0.9-2-2V4.2C2.7,3.1,3.6,2.3,4.6,2.3L4.6,2.3z"/>
<path fill="none" stroke="#0D1413" stroke-width="0.7336" stroke-miterlimit="10" d="M11.8,3.9h6.5c0.5,0,1,0.5,1,1v3.4
	c0,0.5-0.4,1-1,1h-6.5c-0.5,0-1-0.4-1-1V4.9C10.9,4.3,11.3,3.9,11.8,3.9L11.8,3.9z"/>
<line fill="none" stroke="#0D1413" stroke-width="0.7336" stroke-linecap="round" stroke-miterlimit="10" x1="12.7" y1="5.6" x2="17.2" y2="5.6"/>
<line fill="none" stroke="#0D1413" stroke-width="0.7336" stroke-linecap="round" stroke-miterlimit="10" x1="12.7" y1="7.2" x2="15.5" y2="7.2"/>
<path fill="none" stroke="#0D1413" stroke-width="0.7336" stroke-miterlimit="10" d="M1.2,3.2C1.6,1.6,3,0.4,4.6,0.4l0,0
	c1.7,0,3.1,1.2,3.5,2.8"/>
</svg>
