<?xml version="1.0" encoding="utf-8"?>
<!-- Generator: Adobe Illustrator 19.1.0, SVG Export Plug-In . SVG Version: 6.00 Build 0)  -->
<svg version="1.1" id="Слой_1" xmlns="http://www.w3.org/2000/svg" xmlns:xlink="http://www.w3.org/1999/xlink" x="0px" y="0px"
	 viewBox="0 0 206.1 58.8" enable-background="new 0 0 206.1 58.8" xml:space="preserve">
<rect x="5.9" y="19.2" fill-rule="evenodd" clip-rule="evenodd" fill="#9D938F" width="1.5" height="12.2"/>
<polygon fill-rule="evenodd" clip-rule="evenodd" fill="#9D938F" stroke="#1E1E1E" stroke-width="0.5669" stroke-miterlimit="10" points="
	19.5,19.2 19.5,27.8 25.1,26.7 25.1,19.2 "/>
<polygon fill-rule="evenodd" clip-rule="evenodd" fill="#C5C4C6" points="0.8,43.5 0.8,52.9 10.1,52.9 10.1,51.3 12.7,51.3 
	13.5,48.1 15.6,45.6 18.2,44.5 20.5,44.3 22.7,44.9 24.9,46.5 26,48.1 26.7,49.7 26.9,51.3 29.5,51.3 29.5,52.9 54.3,53.1 
	54.3,50.7 54.4,50.1 59.9,50.1 61.6,47.9 64,47.4 66.1,47.8 67.2,48.7 68,50.2 78.2,50.2 78.8,48.1 80.7,45.8 83.2,44.5 85.1,44.3 
	87.7,44.7 89.4,45.7 91.2,47.6 92.2,50.4 97.7,50.4 97.7,45.7 132.2,45.7 130.8,48.9 130.6,49.6 182.5,49.6 181.5,46.8 180.8,45.6 
	202.9,45.6 202.9,50.4 202.7,50.1 205.7,50.1 205.7,39.9 59.7,39.9 59.7,42.5 56.6,45.1 31.2,44.6 31.2,39.8 17.8,39.8 14.9,40.3 
	12.8,41.5 10.4,43.6 "/>
<path fill-rule="evenodd" clip-rule="evenodd" fill="#FFFFFF" stroke="#1E1E1E" stroke-width="0.7087" stroke-miterlimit="10" d="
	M0.4,43.5l0-9.6c0-2.4,0.5-2.4,2.8-2.9l21.9-4.3v-7.5H1.3v-1.3c4.8-1.9,8-2.9,12.2-3.5c2.2-0.3,4.1-0.6,6.3-0.6l14.9-0.1v26H18.6
	c-3.7,0-5,0.7-8.1,3.8h-3L0.4,43.5z"/>
<path fill="none" stroke="#1E1E1E" stroke-width="0.7087" stroke-miterlimit="10" d="M0.8,43.5l0,9.4l9.4,0 M29.5,52.9l5.5,0v-8.1
	l-3.8-0.1v-4.8"/>
<path fill-rule="evenodd" clip-rule="evenodd" fill="#8F8785" stroke="#1E1E1E" stroke-width="0.7087" stroke-miterlimit="10" d="
	M19.8,58.4c3.9,0,7.1-3.2,7.1-7.1c0-3.9-3.2-7.1-7.1-7.1c-3.9,0-7.1,3.2-7.1,7.1C12.7,55.3,15.9,58.4,19.8,58.4L19.8,58.4z"/>
<path fill-rule="evenodd" clip-rule="evenodd" fill="#FFFFFF" stroke="#1E1E1E" stroke-width="0.7087" stroke-miterlimit="10" d="
	M19.8,55.5c2.3,0,4.2-1.9,4.2-4.2s-1.9-4.2-4.2-4.2c-2.3,0-4.2,1.9-4.2,4.2S17.4,55.5,19.8,55.5L19.8,55.5z"/>
<polyline fill="none" stroke="#1E1E1E" stroke-width="0.7087" stroke-miterlimit="10" points="3.8,19.2 2.7,31.1 2.6,31.3 "/>
<line fill="none" stroke="#1E1E1E" stroke-width="0.7087" stroke-miterlimit="10" x1="5.9" y1="19.2" x2="5.9" y2="43.5"/>
<line fill="none" stroke="#1E1E1E" stroke-width="0.7087" stroke-miterlimit="10" x1="19.5" y1="19.2" x2="19.5" y2="39.8"/>
<path fill-rule="evenodd" clip-rule="evenodd" fill="#C8C7C9" stroke="#1E1E1E" stroke-width="0.7087" stroke-miterlimit="10" d="
	M21.1,10.6l8.8-1.8c2.2-0.5,4.4,1,4.8,3.2l0,0c0.1,0.6,0.1,1.2-0.1,1.8H17.9C18.2,12.3,19.5,11,21.1,10.6L21.1,10.6z"/>
<rect x="35" y="44.7" fill="none" stroke="#1E1E1E" stroke-width="0.7087" stroke-miterlimit="10" width="13.7" height="8.2"/>
<path fill="none" stroke="#1E1E1E" stroke-width="0.7087" stroke-miterlimit="10" d="M10.1,53.1v-1.8 M10.1,51.3
	c0-2.7,1.1-5.1,2.8-6.8 M13,44.5c1.8-1.8,4.2-2.8,6.8-2.8 M19.8,41.7c2.7,0,5.1,1.1,6.8,2.8 M26.6,44.5c1.8,1.8,2.9,4.2,2.9,6.8
	 M29.5,51.3v1.8"/>
<line fill="none" stroke="#1E1E1E" stroke-width="0.7087" stroke-miterlimit="10" x1="7.6" y1="19.2" x2="7.6" y2="30.1"/>
<rect x="42.6" y="0.4" fill-rule="evenodd" clip-rule="evenodd" fill="#E3AA8D" stroke="#1E1E1E" stroke-width="0.7087" stroke-miterlimit="10" width="163.1" height="39.5"/>
<line fill="none" stroke="#1E1E1E" stroke-width="0.7087" stroke-miterlimit="10" x1="59.7" y1="39.9" x2="59.7" y2="42.5"/>
<line fill="none" stroke="#1E1E1E" stroke-width="0.7087" stroke-miterlimit="10" x1="68" y1="39.9" x2="68" y2="42.3"/>
<rect x="202.9" y="39.9" fill="none" stroke="#1E1E1E" stroke-width="0.7087" stroke-miterlimit="10" width="2.8" height="10.5"/>
<line fill="none" stroke="#1E1E1E" stroke-width="0.7087" stroke-miterlimit="10" x1="93" y1="45.7" x2="132.2" y2="45.7"/>
<line fill="none" stroke="#1E1E1E" stroke-width="0.7087" stroke-miterlimit="10" x1="180.8" y1="45.6" x2="202.9" y2="45.6"/>
<line fill="none" stroke="#1E1E1E" stroke-width="0.7087" stroke-miterlimit="10" x1="48.7" y1="44.7" x2="56.9" y2="44.7"/>
<line fill="none" stroke="#1E1E1E" stroke-width="0.7087" stroke-miterlimit="10" x1="48.7" y1="52.8" x2="54.3" y2="52.8"/>
<path fill="none" stroke="#1E1E1E" stroke-width="0.7087" stroke-miterlimit="10" d="M19.8,53.3c1,0,1.9-0.9,1.9-1.9
	c0-1-0.9-1.9-1.9-1.9c-1.1,0-1.9,0.9-1.9,1.9C17.8,52.4,18.7,53.3,19.8,53.3L19.8,53.3z"/>
<path fill-rule="evenodd" clip-rule="evenodd" fill="#8F8785" stroke="#1E1E1E" stroke-width="0.7087" stroke-miterlimit="10" d="
	M63.9,58.4c3.9,0,7.1-3.2,7.1-7.1c0-3.9-3.2-7.1-7.1-7.1c-3.9,0-7.1,3.2-7.1,7.1C56.8,55.3,60,58.4,63.9,58.4L63.9,58.4z"/>
<path fill-rule="evenodd" clip-rule="evenodd" fill="#FFFFFF" stroke="#1E1E1E" stroke-width="0.7087" stroke-miterlimit="10" d="
	M63.9,55.5c2.3,0,4.2-1.9,4.2-4.2s-1.9-4.2-4.2-4.2c-2.3,0-4.2,1.9-4.2,4.2S61.6,55.5,63.9,55.5L63.9,55.5z"/>
<path fill="none" stroke="#1E1E1E" stroke-width="0.7087" stroke-miterlimit="10" d="M54.3,53.1v-1.8 M54.3,51.3
	c0-2.7,1.1-5.1,2.8-6.8 M57.1,44.5c1.8-1.8,4.2-2.8,6.8-2.8 M64,41.7c2.7,0,5.1,1.1,6.8,2.8 M70.8,44.5c1.8,1.8,2.8,4.2,2.8,6.8
	 M73.6,51.3v1.8"/>
<path fill="none" stroke="#1E1E1E" stroke-width="0.7087" stroke-miterlimit="10" d="M63.9,53.3c1,0,1.9-0.9,1.9-1.9
	c0-1-0.9-1.9-1.9-1.9c-1.1,0-1.9,0.9-1.9,1.9C62,52.4,62.9,53.3,63.9,53.3L63.9,53.3z"/>
<path fill-rule="evenodd" clip-rule="evenodd" fill="#8F8785" stroke="#1E1E1E" stroke-width="0.7087" stroke-miterlimit="10" d="
	M85.1,58.4c3.9,0,7.1-3.2,7.1-7.1c0-3.9-3.2-7.1-7.1-7.1c-3.9,0-7.1,3.2-7.1,7.1C78.1,55.3,81.3,58.4,85.1,58.4L85.1,58.4z"/>
<path fill-rule="evenodd" clip-rule="evenodd" fill="#FFFFFF" stroke="#1E1E1E" stroke-width="0.7087" stroke-miterlimit="10" d="
	M85.1,55.5c2.3,0,4.2-1.9,4.2-4.2s-1.9-4.2-4.2-4.2c-2.3,0-4.2,1.9-4.2,4.2S82.8,55.5,85.1,55.5L85.1,55.5z"/>
<path fill="none" stroke="#1E1E1E" stroke-width="0.7087" stroke-miterlimit="10" d="M75.5,53.1v-1.8 M75.5,51.3
	c0-2.7,1.1-5.1,2.9-6.8 M78.4,44.5c1.8-1.8,4.2-2.8,6.8-2.8 M85.2,41.7c2.7,0,5.1,1.1,6.8,2.8 M92,44.5c1.8,1.8,2.8,4.2,2.8,6.8
	 M94.9,51.3v1.8"/>
<path fill="none" stroke="#1E1E1E" stroke-width="0.7087" stroke-miterlimit="10" d="M85.1,53.3c1.1,0,1.9-0.9,1.9-1.9
	c0-1-0.9-1.9-1.9-1.9c-1,0-1.9,0.9-1.9,1.9C83.2,52.4,84.1,53.3,85.1,53.3L85.1,53.3z"/>
<line fill="none" stroke="#1E1E1E" stroke-width="0.7087" stroke-miterlimit="10" x1="127.8" y1="39.9" x2="127.8" y2="45.7"/>
<path fill-rule="evenodd" clip-rule="evenodd" fill="#8F8785" stroke="#1E1E1E" stroke-width="0.7087" stroke-miterlimit="10" d="
	M140.1,58.4c3.9,0,7.1-3.2,7.1-7.1c0-3.9-3.2-7.1-7.1-7.1c-3.9,0-7.1,3.2-7.1,7.1C133,55.3,136.2,58.4,140.1,58.4L140.1,58.4z"/>
<path fill-rule="evenodd" clip-rule="evenodd" fill="#FFFFFF" stroke="#1E1E1E" stroke-width="0.7087" stroke-miterlimit="10" d="
	M140.1,55.5c2.3,0,4.2-1.9,4.2-4.2s-1.9-4.2-4.2-4.2c-2.3,0-4.2,1.9-4.2,4.2S137.8,55.5,140.1,55.5L140.1,55.5z"/>
<path fill="none" stroke="#1E1E1E" stroke-width="0.7087" stroke-miterlimit="10" d="M130.5,53.1v-1.8 M130.5,51.3
	c0-2.7,1.1-5.1,2.8-6.8 M133.3,44.5c1.8-1.8,4.2-2.8,6.8-2.8"/>
<path fill="none" stroke="#1E1E1E" stroke-width="0.7087" stroke-miterlimit="10" d="M140.1,53.3c1.1,0,1.9-0.9,1.9-1.9
	c0-1-0.9-1.9-1.9-1.9c-1,0-1.9,0.9-1.9,1.9C138.1,52.4,139,53.3,140.1,53.3L140.1,53.3z"/>
<path fill-rule="evenodd" clip-rule="evenodd" fill="#8F8785" stroke="#1E1E1E" stroke-width="0.7087" stroke-miterlimit="10" d="
	M173,58.4c3.9,0,7.1-3.2,7.1-7.1c0-3.9-3.2-7.1-7.1-7.1c-3.9,0-7.1,3.2-7.1,7.1C166,55.3,169.1,58.4,173,58.4L173,58.4z"/>
<path fill-rule="evenodd" clip-rule="evenodd" fill="#FFFFFF" stroke="#1E1E1E" stroke-width="0.7087" stroke-miterlimit="10" d="
	M173,55.5c2.3,0,4.2-1.9,4.2-4.2s-1.9-4.2-4.2-4.2c-2.3,0-4.2,1.9-4.2,4.2S170.7,55.5,173,55.5L173,55.5z"/>
<path fill="none" stroke="#1E1E1E" stroke-width="0.7087" stroke-miterlimit="10" d="M182.7,53.1v-1.8 M182.7,51.3
	c0-2.7-1.1-5.1-2.8-6.8 M179.8,44.5c-1.8-1.8-4.2-2.8-6.8-2.8"/>
<path fill="none" stroke="#1E1E1E" stroke-width="0.7087" stroke-miterlimit="10" d="M173,53.3c1,0,1.9-0.9,1.9-1.9
	c0-1-0.9-1.9-1.9-1.9c-1.1,0-1.9,0.9-1.9,1.9C171.1,52.4,172,53.3,173,53.3L173,53.3z"/>
<path fill-rule="evenodd" clip-rule="evenodd" fill="#8F8785" stroke="#1E1E1E" stroke-width="0.7087" stroke-miterlimit="10" d="
	M156.7,58.4c3.9,0,7.1-3.2,7.1-7.1c0-3.9-3.2-7.1-7.1-7.1c-3.9,0-7.1,3.2-7.1,7.1C149.6,55.3,152.7,58.4,156.7,58.4L156.7,58.4z"/>
<path fill-rule="evenodd" clip-rule="evenodd" fill="#FFFFFF" stroke="#1E1E1E" stroke-width="0.7087" stroke-miterlimit="10" d="
	M156.7,55.5c2.3,0,4.2-1.9,4.2-4.2s-1.9-4.2-4.2-4.2c-2.3,0-4.2,1.9-4.2,4.2S154.3,55.5,156.7,55.5L156.7,55.5z"/>
<path fill-rule="evenodd" clip-rule="evenodd" fill="#FFFFFF" stroke="#1E1E1E" stroke-width="0.7087" stroke-miterlimit="10" d="
	M156.7,53.3c1,0,1.9-0.9,1.9-1.9c0-1-0.9-1.9-1.9-1.9c-1.1,0-1.9,0.9-1.9,1.9C154.7,52.4,155.6,53.3,156.7,53.3L156.7,53.3z"/>
<line fill="none" stroke="#1E1E1E" stroke-width="0.7087" stroke-miterlimit="10" x1="140.1" y1="41.7" x2="173" y2="41.7"/>
<line fill="none" stroke="#1E1E1E" stroke-width="0.7087" stroke-miterlimit="10" x1="186.4" y1="39.9" x2="186.4" y2="45.6"/>
<line fill="none" stroke="#1E1E1E" stroke-width="0.7087" stroke-miterlimit="10" x1="97.2" y1="39.9" x2="97.2" y2="45.7"/>
<line fill="none" stroke="#1E1E1E" stroke-width="0.7087" stroke-miterlimit="10" x1="21.2" y1="19.2" x2="21.2" y2="27.4"/>
<line fill="none" stroke="#1E1E1E" stroke-width="0.7087" stroke-linecap="round" stroke-miterlimit="10" x1="15.4" y1="31.8" x2="17.2" y2="31.8"/>
<rect x="34.7" y="13.8" fill-rule="evenodd" clip-rule="evenodd" fill="#C8C7C9" stroke="#1E1E1E" stroke-width="0.7087" stroke-miterlimit="10" width="2.2" height="22.5"/>
<rect x="46.1" y="3.4" fill-rule="evenodd" clip-rule="evenodd" fill="#E3AA8D" stroke="#1E1E1E" stroke-width="0.7087" stroke-miterlimit="10" width="156.2" height="33.5"/>
<rect x="46.1" y="26.9" fill-rule="evenodd" clip-rule="evenodd" fill="#E3AA8D" stroke="#1E1E1E" stroke-width="0.7087" stroke-miterlimit="10" width="156.2" height="10"/>
</svg>
