<?xml version="1.0" encoding="utf-8"?>
<!-- Generator: Adobe Illustrator 19.1.0, SVG Export Plug-In . SVG Version: 6.00 Build 0)  -->
<svg version="1.1" id="Слой_1" xmlns="http://www.w3.org/2000/svg" xmlns:xlink="http://www.w3.org/1999/xlink" x="0px" y="0px"
	 viewBox="0 0 16.6 10.9" enable-background="new 0 0 16.6 10.9" xml:space="preserve">
<rect x="0.4" y="0.4" fill="none" stroke="#0D1413" stroke-width="0.7336" stroke-miterlimit="10" width="15.9" height="10.2"/>
<path fill="none" stroke="#0D1413" stroke-width="0.7336" stroke-miterlimit="10" d="M3.2,5.5h3.9c0.1,0,0.1,0.1,0.1,0.1v4.8
	c0,0.1-0.1,0.1-0.1,0.1H3.2c-0.1,0-0.1-0.1-0.1-0.1V5.6C3,5.5,3.1,5.5,3.2,5.5L3.2,5.5z"/>
<path fill="none" stroke="#0D1413" stroke-width="0.7336" stroke-miterlimit="10" d="M9.6,5.5h3.9c0.1,0,0.1,0.1,0.1,0.1v4.8
	c0,0.1-0.1,0.1-0.1,0.1H9.6c-0.1,0-0.1-0.1-0.1-0.1V5.6C9.5,5.5,9.5,5.5,9.6,5.5L9.6,5.5z"/>
<line fill="none" stroke="#0D1413" stroke-width="0.5643" stroke-miterlimit="10" x1="3" y1="7.2" x2="7.2" y2="7.2"/>
<line fill="none" stroke="#0D1413" stroke-width="0.5643" stroke-miterlimit="10" x1="3" y1="8.9" x2="7.2" y2="8.9"/>
<line fill="none" stroke="#0D1413" stroke-width="0.5643" stroke-miterlimit="10" x1="9.4" y1="7.2" x2="13.6" y2="7.2"/>
<line fill="none" stroke="#0D1413" stroke-width="0.5643" stroke-miterlimit="10" x1="9.4" y1="8.9" x2="13.6" y2="8.9"/>
</svg>
