<?xml version="1.0" encoding="utf-8"?>
<!-- Generator: Adobe Illustrator 19.1.0, SVG Export Plug-In . SVG Version: 6.00 Build 0)  -->
<svg version="1.1" id="Слой_1" xmlns="http://www.w3.org/2000/svg" xmlns:xlink="http://www.w3.org/1999/xlink" x="0px" y="0px"
	 viewBox="0 0 47.2 20.5" enable-background="new 0 0 47.2 20.5" xml:space="preserve">
<path fill="none" stroke="#272929" stroke-width="0.6" stroke-miterlimit="10" d="M36.4,5.8L36.4,5.8c1.5,0,2.7,1.2,2.7,2.7v1.1
	c0,1.5-1.2,2.7-2.7,2.7l0,0c-1.5,0-2.7-1.2-2.7-2.7V8.5C33.7,7,35,5.8,36.4,5.8L36.4,5.8z"/>
<path fill="none" stroke="#272929" stroke-width="0.6" stroke-miterlimit="10" d="M39.6,13.3c1.7,1.1,2.9,3,2.9,5.1 M42.4,18.4v1.8
	 M42.4,20.2h-5.3 M37.2,20.2h-6.7v-1.8c0-3.3,2.7-6,6-6l0,0c1.2,0,2.2,0.3,3.1,0.9"/>
<path fill="none" stroke="#272929" stroke-width="0.6" stroke-miterlimit="10" d="M10.7,5.8L10.7,5.8c1.5,0,2.7,1.2,2.7,2.7v1.1
	c0,1.5-1.2,2.7-2.7,2.7l0,0c-1.5,0-2.7-1.2-2.7-2.7V8.5C8.1,7,9.3,5.8,10.7,5.8L10.7,5.8z"/>
<path fill="none" stroke="#272929" stroke-width="0.6" stroke-miterlimit="10" d="M13.9,13.3c1.7,1.1,2.9,3,2.9,5.1 M16.7,18.4v1.8
	 M16.7,20.2h-5.3 M11.5,20.2H4.8v-1.8c0-3.3,2.7-6,6-6l0,0c1.2,0,2.2,0.3,3.1,0.9"/>
<path fill="none" stroke="#272929" stroke-width="0.6" stroke-miterlimit="10" d="M23.5,0.3L23.5,0.3c2,0,3.7,1.7,3.7,3.7v1.6
	c0,2-1.7,3.7-3.7,3.7l0,0c-2.1,0-3.7-1.7-3.7-3.7V4C19.7,2,21.4,0.3,23.5,0.3L23.5,0.3z"/>
<path fill-rule="evenodd" clip-rule="evenodd" fill="#FFFFFF" stroke="#272929" stroke-width="0.6" stroke-miterlimit="10" d="
	M23.5,9.5L23.5,9.5c4.5,0,8.3,3.7,8.3,8.3v2.5H15.2v-2.5C15.2,13.2,18.9,9.5,23.5,9.5L23.5,9.5z"/>
<path fill="none" stroke="#272929" stroke-width="0.6" stroke-linecap="round" stroke-miterlimit="10" d="M17.2,4"/>
<path fill="none" stroke="#272929" stroke-width="0.6" stroke-linecap="round" stroke-miterlimit="10" d="M27.1,4"/>
<line fill="none" stroke="#272929" stroke-width="0.6" stroke-miterlimit="10" x1="20.3" y1="10" x2="23.3" y2="13.6"/>
<path fill="none" stroke="#272929" stroke-width="0.6" stroke-linecap="round" stroke-miterlimit="10" d="M22.6,6.8"/>
<path fill="none" stroke="#272929" stroke-width="0.6" stroke-linecap="round" stroke-miterlimit="10" d="M24.4,6.7"/>
<line fill="none" stroke="#272929" stroke-width="0.6" stroke-miterlimit="10" x1="26.8" y1="10" x2="23.7" y2="13.6"/>
<line fill="none" stroke="#272929" stroke-width="0.6" stroke-miterlimit="10" x1="23.5" y1="13.4" x2="23.5" y2="20"/>
<line fill="none" stroke="#272929" stroke-width="0.6" stroke-linecap="round" stroke-miterlimit="10" x1="4.8" y1="20.2" x2="0.3" y2="20.2"/>
<line fill="none" stroke="#272929" stroke-width="0.6" stroke-linecap="round" stroke-miterlimit="10" x1="46.9" y1="20.2" x2="42.4" y2="20.2"/>
</svg>
