<?xml version="1.0" encoding="utf-8"?>
<!-- Generator: Adobe Illustrator 19.1.0, SVG Export Plug-In . SVG Version: 6.00 Build 0)  -->
<svg version="1.1" id="Слой_1" xmlns="http://www.w3.org/2000/svg" xmlns:xlink="http://www.w3.org/1999/xlink" x="0px" y="0px"
	 viewBox="0 0 50.8 18.3" enable-background="new 0 0 50.8 18.3" xml:space="preserve">
<rect x="2.9" y="0.3" fill-rule="evenodd" clip-rule="evenodd" fill="#FFFFFF" stroke="#272929" stroke-width="0.6" stroke-miterlimit="10" width="45.7" height="13.6"/>
<rect x="2.9" y="0.3" fill-rule="evenodd" clip-rule="evenodd" fill="#FFFFFF" stroke="#272929" stroke-width="0.6" stroke-miterlimit="10" width="45.7" height="12"/>
<line fill="none" stroke="#272929" stroke-width="0.6" stroke-linecap="round" stroke-miterlimit="10" x1="5.5" y1="3.1" x2="5.5" y2="9.5"/>
<path fill="none" stroke="#272929" stroke-width="0.6" stroke-linecap="round" stroke-miterlimit="10" d="M8.6,3.1
	c0,2.1,0,4.3,0,6.4"/>
<path fill="none" stroke="#272929" stroke-width="0.6" stroke-linecap="round" stroke-miterlimit="10" d="M11.7,3.1
	c0,2.1,0,4.3,0,6.4"/>
<path fill="none" stroke="#272929" stroke-width="0.6" stroke-linecap="round" stroke-miterlimit="10" d="M14.8,3.1
	c0,2.1,0,4.3,0,6.4"/>
<path fill="none" stroke="#272929" stroke-width="0.6" stroke-linecap="round" stroke-miterlimit="10" d="M17.9,3.1
	c0,2.1,0,4.3,0,6.4"/>
<path fill="none" stroke="#272929" stroke-width="0.6" stroke-linecap="round" stroke-miterlimit="10" d="M21.1,3.1
	c0,2.1,0,4.3,0,6.4"/>
<path fill="none" stroke="#272929" stroke-width="0.6" stroke-linecap="round" stroke-miterlimit="10" d="M24.2,3.1
	c0,2.1,0,4.3,0,6.4"/>
<path fill="none" stroke="#272929" stroke-width="0.6" stroke-linecap="round" stroke-miterlimit="10" d="M27.3,3.1
	c0,2.1,0,4.3,0,6.4"/>
<path fill="none" stroke="#272929" stroke-width="0.6" stroke-linecap="round" stroke-miterlimit="10" d="M30.4,3.1
	c0,2.1,0,4.3,0,6.4"/>
<path fill="none" stroke="#272929" stroke-width="0.6" stroke-linecap="round" stroke-miterlimit="10" d="M33.5,3.1
	c0,2.1,0,4.3,0,6.4"/>
<path fill="none" stroke="#272929" stroke-width="0.6" stroke-linecap="round" stroke-miterlimit="10" d="M36.6,3.1
	c0,2.1,0,4.3,0,6.4"/>
<path fill="none" stroke="#272929" stroke-width="0.6" stroke-linecap="round" stroke-miterlimit="10" d="M39.7,3.1
	c0,2.1,0,4.3,0,6.4"/>
<path fill="none" stroke="#272929" stroke-width="0.6" stroke-linecap="round" stroke-miterlimit="10" d="M42.9,3.1
	c0,2.1,0,4.3,0,6.4"/>
<line fill="none" stroke="#272929" stroke-width="0.6" stroke-linecap="round" stroke-miterlimit="10" x1="46" y1="3.1" x2="46" y2="9.5"/>
<path fill-rule="evenodd" clip-rule="evenodd" fill="#FFFFFF" stroke="#272929" stroke-width="0.6" stroke-miterlimit="10" d="
	M6.6,15.2c0.8,0,1.4,0.6,1.4,1.4C8,17.3,7.4,18,6.6,18c-0.8,0-1.4-0.6-1.4-1.4C5.2,15.8,5.8,15.2,6.6,15.2L6.6,15.2z"/>
<line fill="none" stroke="#272929" stroke-width="0.6" stroke-miterlimit="10" x1="2.9" y1="12.3" x2="0.5" y2="12.3"/>
<line fill="none" stroke="#272929" stroke-width="0.6" stroke-linecap="round" stroke-miterlimit="10" x1="0.3" y1="11.2" x2="0.3" y2="13.3"/>
<path fill-rule="evenodd" clip-rule="evenodd" fill="#FFFFFF" stroke="#272929" stroke-width="0.6" stroke-miterlimit="10" d="
	M11.6,15.2c0.8,0,1.4,0.6,1.4,1.4c0,0.8-0.6,1.4-1.4,1.4c-0.8,0-1.4-0.6-1.4-1.4C10.1,15.8,10.8,15.2,11.6,15.2L11.6,15.2z"/>
<line fill="none" stroke="#272929" stroke-width="0.6" stroke-miterlimit="10" x1="48" y1="12.3" x2="50.3" y2="12.3"/>
<line fill="none" stroke="#272929" stroke-width="0.6" stroke-linecap="round" stroke-miterlimit="10" x1="50.5" y1="11.2" x2="50.5" y2="13.3"/>
<line fill="none" stroke="#272929" stroke-width="0.6" stroke-linecap="round" stroke-miterlimit="10" x1="11.6" y1="16.5" x2="6.6" y2="16.6"/>
<path fill-rule="evenodd" clip-rule="evenodd" fill="#FFFFFF" stroke="#272929" stroke-width="0.6" stroke-miterlimit="10" d="
	M39.9,15.2c0.8,0,1.4,0.6,1.4,1.4c0,0.8-0.6,1.4-1.4,1.4c-0.8,0-1.4-0.6-1.4-1.4C38.5,15.8,39.2,15.2,39.9,15.2L39.9,15.2z"/>
<path fill-rule="evenodd" clip-rule="evenodd" fill="#FFFFFF" stroke="#272929" stroke-width="0.6" stroke-miterlimit="10" d="
	M44.9,15.2c0.8,0,1.4,0.6,1.4,1.4c0,0.8-0.6,1.4-1.4,1.4c-0.8,0-1.4-0.6-1.4-1.4C43.5,15.8,44.1,15.2,44.9,15.2L44.9,15.2z"/>
<line fill="none" stroke="#272929" stroke-width="0.6" stroke-linecap="round" stroke-miterlimit="10" x1="44.9" y1="16.5" x2="39.9" y2="16.6"/>
</svg>
