<?xml version="1.0" encoding="utf-8"?>
<!-- Generator: Adobe Illustrator 19.1.0, SVG Export Plug-In . SVG Version: 6.00 Build 0)  -->
<svg version="1.1" id="Слой_1" xmlns="http://www.w3.org/2000/svg" xmlns:xlink="http://www.w3.org/1999/xlink" x="0px" y="0px"
	 viewBox="0 0 44.3 19.6" enable-background="new 0 0 44.3 19.6" xml:space="preserve">
<rect x="14.9" y="13" fill-rule="evenodd" clip-rule="evenodd" fill="#FFFFFF" stroke="#272929" stroke-width="0.6" stroke-linecap="round" stroke-miterlimit="10" width="14.6" height="6.3"/>
<rect x="0.3" y="6.6" fill-rule="evenodd" clip-rule="evenodd" fill="#FFFFFF" stroke="#272929" stroke-width="0.6" stroke-linecap="round" stroke-miterlimit="10" width="14.6" height="6.3"/>
<rect x="14.9" y="0.3" fill-rule="evenodd" clip-rule="evenodd" fill="#FFFFFF" stroke="#272929" stroke-width="0.6" stroke-miterlimit="10" width="14.6" height="12.6"/>
<rect x="0.3" y="13" fill-rule="evenodd" clip-rule="evenodd" fill="#FFFFFF" stroke="#272929" stroke-width="0.6" stroke-miterlimit="10" width="14.6" height="6.3"/>
<rect x="7.6" y="6.6" fill-rule="evenodd" clip-rule="evenodd" fill="#FFFFFF" stroke="#272929" stroke-width="0.6" stroke-miterlimit="10" width="7.3" height="6.3"/>
<line fill="none" stroke="#272929" stroke-width="0.6" stroke-linecap="round" stroke-miterlimit="10" x1="12.3" y1="14.5" x2="12.3" y2="17.7"/>
<path fill="none" stroke="#272929" stroke-width="0.6" stroke-linecap="round" stroke-miterlimit="10" d="M10.4,14.5
	c0,1,0,2.1,0,3.2"/>
<path fill="none" stroke="#272929" stroke-width="0.6" stroke-linecap="round" stroke-miterlimit="10" d="M8.4,14.5c0,1,0,2.1,0,3.2
	"/>
<path fill="none" stroke="#272929" stroke-width="0.6" stroke-linecap="round" stroke-miterlimit="10" d="M6.5,14.5c0,1,0,2.1,0,3.2
	"/>
<path fill="none" stroke="#272929" stroke-width="0.6" stroke-linecap="round" stroke-miterlimit="10" d="M4.6,14.5c0,1,0,2.1,0,3.2
	"/>
<line fill="none" stroke="#272929" stroke-width="0.6" stroke-linecap="round" stroke-miterlimit="10" x1="2.7" y1="14.5" x2="2.7" y2="17.7"/>
<rect x="29.4" y="13" fill-rule="evenodd" clip-rule="evenodd" fill="#FFFFFF" stroke="#272929" stroke-width="0.6" stroke-linecap="round" stroke-miterlimit="10" width="14.6" height="6.3"/>
<line fill="none" stroke="#272929" stroke-width="0.6" stroke-linecap="round" stroke-miterlimit="10" x1="41.6" y1="14.5" x2="41.6" y2="17.7"/>
<path fill="none" stroke="#272929" stroke-width="0.6" stroke-linecap="round" stroke-miterlimit="10" d="M39.6,14.5
	c0,1,0,2.1,0,3.2"/>
<path fill="none" stroke="#272929" stroke-width="0.6" stroke-linecap="round" stroke-miterlimit="10" d="M37.7,14.5
	c0,1,0,2.1,0,3.2"/>
<path fill="none" stroke="#272929" stroke-width="0.6" stroke-linecap="round" stroke-miterlimit="10" d="M35.8,14.5
	c0,1,0,2.1,0,3.2"/>
<path fill="none" stroke="#272929" stroke-width="0.6" stroke-linecap="round" stroke-miterlimit="10" d="M33.9,14.5
	c0,1,0,2.1,0,3.2"/>
<line fill="none" stroke="#272929" stroke-width="0.6" stroke-linecap="round" stroke-miterlimit="10" x1="31.9" y1="14.5" x2="31.9" y2="17.7"/>
<rect x="29.4" y="6.6" fill-rule="evenodd" clip-rule="evenodd" fill="#FFFFFF" stroke="#272929" stroke-width="0.6" stroke-miterlimit="10" width="7.3" height="6.3"/>
<rect x="22.2" y="13" fill-rule="evenodd" clip-rule="evenodd" fill="#FFFFFF" stroke="#272929" stroke-width="0.6" stroke-miterlimit="10" width="7.3" height="6.3"/>
</svg>
