<svg xmlns="http://www.w3.org/2000/svg" xmlns:xlink="http://www.w3.org/1999/xlink" viewBox="0 0 305 138.6"><path fill-rule="evenodd" clip-rule="evenodd" fill="#BDBEC2" stroke="#000" stroke-width=".709" stroke-miterlimit="22.926" d="M227.7 116.1H106.9v7.6l4.8-.1-.8 10h116.8z"/><path fill-rule="evenodd" clip-rule="evenodd" fill="#FFF" stroke="#000" stroke-width=".709" stroke-miterlimit="22.926" d="M160.3 115.4l-42.1-.1.9 3.5 4.4 13.2 59.8-4.1-4.1-12.4z"/><path clip-rule="evenodd" fill="none" stroke="#000" stroke-width=".709" stroke-miterlimit="22.926" d="M305 138.2H0"/><path fill-rule="evenodd" clip-rule="evenodd" fill="#938885" stroke="#000" stroke-width=".709" stroke-miterlimit="22.926" d="M221.8 138c-5.4 0-9.8-4.4-9.8-9.8s4.4-9.8 9.8-9.8 9.8 4.4 9.8 9.8-4.4 9.8-9.8 9.8z"/><path fill-rule="evenodd" clip-rule="evenodd" fill="#FFF" stroke="#000" stroke-width=".709" stroke-miterlimit="22.926" d="M221.8 133.6c-3 0-5.4-2.4-5.4-5.4 0-3 2.4-5.4 5.4-5.4s5.4 2.4 5.4 5.4c0 3-2.4 5.4-5.4 5.4z"/><path fill-rule="evenodd" clip-rule="evenodd" fill="#FFF" stroke="#000" stroke-width=".709" stroke-miterlimit="22.926" d="M221.8 130.8c-1.4 0-2.6-1.2-2.6-2.6s1.2-2.6 2.6-2.6 2.6 1.2 2.6 2.6-1.1 2.6-2.6 2.6z"/><path fill-rule="evenodd" clip-rule="evenodd" fill="#938885" stroke="#000" stroke-width=".709" stroke-miterlimit="22.926" d="M107 138c-5.4 0-9.8-4.4-9.8-9.8s4.4-9.8 9.8-9.8 9.8 4.4 9.8 9.8-4.4 9.8-9.8 9.8z"/><path fill-rule="evenodd" clip-rule="evenodd" fill="#FFF" stroke="#000" stroke-width=".709" stroke-miterlimit="22.926" d="M107 133.6c-3 0-5.4-2.4-5.4-5.4 0-3 2.4-5.4 5.4-5.4 3 0 5.4 2.4 5.4 5.4 0 3-2.4 5.4-5.4 5.4z"/><path fill-rule="evenodd" clip-rule="evenodd" fill="#FFF" stroke="#000" stroke-width=".709" stroke-miterlimit="22.926" d="M107 130.8c-1.4 0-2.6-1.2-2.6-2.6s1.2-2.6 2.6-2.6c1.4 0 2.6 1.2 2.6 2.6s-1.1 2.6-2.6 2.6zM95 116.5h1.6v8.4H95z"/><path fill-rule="evenodd" clip-rule="evenodd" fill="#BDBEC2" stroke="#000" stroke-width=".709" stroke-miterlimit="22.926" d="M203 133.6h-79.1l-3-8.2 85.2.1z"/><path fill-rule="evenodd" clip-rule="evenodd" fill="#FFF" stroke="#000" stroke-width=".709" stroke-miterlimit="22.926" d="M221.7 114.8l-.1-2.6h-61.3v3.2h14.6l2 10.1h29.2l4-10.7z"/><path fill-rule="evenodd" clip-rule="evenodd" fill="#938885" stroke="#000" stroke-width=".7090070900000001" stroke-miterlimit="22.926" d="M180.344 79.372l3.438-1.84 24.98 46.63-3.44 1.842z"/><path fill-rule="evenodd" clip-rule="evenodd" fill="#938885" d="M186.2 108.6l-6.6-20.8h-19.3v24.4h26.8"/><defs><path id="a" d="M186.2 108.6l-6.6-20.8h-19.3v24.4h26.8z"/></defs><clipPath id="b"><use xlink:href="#a" overflow="visible"/></clipPath><g clip-path="url(#b)"><path fill-rule="evenodd" clip-rule="evenodd" fill="#FFF" d="M175.3 89.4v22.8h11.8l-6.8-22.3"/></g><path clip-rule="evenodd" fill="none" stroke="#000" stroke-width=".709" stroke-miterlimit="22.926" d="M186.2 108.6l-6.6-20.8h-19.3v24.4h26.8z"/><path fill-rule="evenodd" clip-rule="evenodd" fill="#FFF" stroke="#000" stroke-width=".709" stroke-miterlimit="22.926" d="M162.1 89.4h11.3v8.9h-11.3zM162.1 99.8h11.3v8.8h-11.3z"/><path clip-rule="evenodd" fill="none" stroke="#000" stroke-width=".709" stroke-miterlimit="22.926" d="M175.3 87.8v24.4"/><path fill-rule="evenodd" clip-rule="evenodd" fill="#BDBEC2" stroke="#000" stroke-width=".709" stroke-miterlimit="22.926" d="M180.2 89.4h-19.9v-3.7l19.3 2.1zM175.3 108.9h10.9l.9 3.3h-11.8z"/><path fill-rule="evenodd" clip-rule="evenodd" fill="#938885" stroke="#000" stroke-width=".709" stroke-miterlimit="22.926" d="M175.3 99.8h8.1l-.5-1.5h-7.6z"/><path fill-rule="evenodd" clip-rule="evenodd" fill="#FFF" stroke="#000" stroke-width=".709" stroke-miterlimit="22.926" d="M233.5 115.7l-20.9.8-6.2 17.1H203l7.1-18.8h23.1z"/><path fill-rule="evenodd" clip-rule="evenodd" fill="#BDBEC2" stroke="#000" stroke-width=".709" stroke-miterlimit="22.926" d="M155.5 100h4.7v15.4h-4.7z"/><path fill-rule="evenodd" clip-rule="evenodd" fill="#E0AF94" stroke="#000" stroke-width=".709" stroke-miterlimit="22.926" d="M150.6 115.3l-16.2-31.4-4 1.3 5.2 23.9-7.3 6.2z"/><path fill-rule="evenodd" clip-rule="evenodd" fill="#E0AF94" stroke="#000" stroke-width=".70902836" stroke-miterlimit="22.926" d="M205.58.836l7.035 6.823-96.02 98.984-7.034-6.824z"/><path fill-rule="evenodd" clip-rule="evenodd" fill="#BDBEC2" stroke="#000" stroke-width=".70897873" stroke-miterlimit="22.926" d="M185.005 22.088l3.517 3.41-75.4 77.74-3.516-3.412z"/><path fill-rule="evenodd" clip-rule="evenodd" fill="#938885" stroke="#000" stroke-width=".70902836" stroke-miterlimit="22.926" d="M186.725 23.84l1.723 1.67-75.41 77.74-1.722-1.672z"/><path clip-rule="evenodd" fill="none" stroke="#000" stroke-width=".709" stroke-miterlimit="22.926" d="M193.6 27.3l-7-6.8"/><path fill-rule="evenodd" clip-rule="evenodd" fill="#E0AF94" stroke="#000" stroke-width=".70902836" stroke-miterlimit="22.926" d="M131.58 77.16l7.035 6.824-7.242 7.465-7.034-6.825z"/><path fill-rule="evenodd" clip-rule="evenodd" fill="#BDBEC2" stroke="#000" stroke-width=".70897873" stroke-miterlimit="22.926" d="M164.203 47.894l2.292-1.228 16.72 31.202-2.292 1.228z"/><path fill-rule="evenodd" clip-rule="evenodd" fill="#FFF" stroke="#000" stroke-width=".709" stroke-miterlimit="22.926" d="M95 116.5h20.7l6.1 17.1h2.1l-6.9-21.3H95.2z"/><path fill-rule="evenodd" clip-rule="evenodd" fill="#98A3D3" stroke="#000" stroke-width=".709" stroke-miterlimit="22.926" d="M229.1 60.8h34.2V92h-34.2z"/><path fill-rule="evenodd" clip-rule="evenodd" fill="#E0AF94" stroke="#000" stroke-width=".709" stroke-miterlimit="22.926" d="M206 14.5l37.2 24.2 2.3-4.3L205.7.8z"/><path fill-rule="evenodd" clip-rule="evenodd" fill="#938885" stroke="#000" stroke-width=".709" stroke-miterlimit="22.926" d="M263.3 34.8h3.8v33.6h-3.8zM225.1 34.8h3.8v33.6h-3.8z"/><path fill-rule="evenodd" clip-rule="evenodd" fill="#E0AF94" stroke="#000" stroke-width=".709" stroke-miterlimit="22.926" d="M229.1 34.8h34.2v7h-34.2z"/><path fill-rule="evenodd" clip-rule="evenodd" fill="#938885" stroke="#000" stroke-width=".709" stroke-miterlimit="22.926" d="M235.2 29.1h20.9v5.4h-20.9z"/><path fill-rule="evenodd" clip-rule="evenodd" fill="#98A3D3" stroke="#000" stroke-width=".709" stroke-miterlimit="22.926" d="M255.7 63.7v22.2M232.1 63.6h28.1v25.7h-28.1z"/><path fill-rule="evenodd" clip-rule="evenodd" fill="#98A3D3" stroke="#000" stroke-width=".709" stroke-miterlimit="22.926" d="M246.2 63.6h14.1v25.7h-14.1z"/><path fill-rule="evenodd" clip-rule="evenodd" fill="#938885" stroke="#000" stroke-width=".709" stroke-miterlimit="22.926" d="M176.9 125.5h10.9v8.1h-10.9z"/><path fill-rule="evenodd" clip-rule="evenodd" fill="#938885" stroke="#000" stroke-width=".709" stroke-miterlimit="22.926" d="M176.9 129.5h10.9v4.1h-10.9z"/><path clip-rule="evenodd" fill="none" stroke="#000" stroke-width=".709" stroke-miterlimit="22.926" d="M258.5 38h-25.4M235.2 30.6l-29.3-19.5"/><path fill-rule="evenodd" clip-rule="evenodd" fill="#98A3D3" stroke="#000" stroke-width=".709" stroke-miterlimit="22.926" d="M244.1 63.6h16.1v25.7h-16.1z"/><path fill-rule="evenodd" clip-rule="evenodd" fill="#98A3D3" stroke="#000" stroke-width=".709" stroke-miterlimit="22.926" d="M248 63.6h12.3v25.7H248z"/></svg>