<svg xmlns="http://www.w3.org/2000/svg" viewBox="0 0 670 92.6"><path fill-rule="evenodd" clip-rule="evenodd" fill="#F3F5FA" d="M605.5 81.1c-1.5-5.6-7.2-9.8-14-9.8-1.7 0-3.3.3-4.8.7-1.6-7.7-8.2-13.5-16-13.5-2 0-3.9.4-5.6 1-2-9.4-12-16.6-24-16.6-4.1 0-8 .9-11.4 2.3-2.6-5.9-8.4-10.1-15.3-10.1h-.7v-.5c0-8.9-7.2-16.1-16.1-16.1-2.5 0-4.8.6-6.9 1.6-1.7-8.2-9.1-14.5-18-14.5-2 0-3.9.3-5.7.9-4-2.8-8.8-4.5-14.1-4.5-10.8 0-20 7.1-23.2 16.8-2-.8-4.3-1.2-6.6-1.2-3.7 0-7.1 1.1-9.9 3-.9-.1-1.8-.3-2.7-.3-1.4-5.2-6.2-9-11.8-9-2.9 0-5.5 1-7.6 2.6-5.5-8.4-15-14-25.8-14-12.7 0-23.6 7.7-28.3 18.7-3-1.9-6.5-2.9-10.3-2.9-10.8 0-19.5 8.7-19.5 19.5 0 .6 0 1.1.1 1.7-3.7 1.6-6.8 4.3-8.9 7.7-2.7-1.9-6.1-3-9.6-3-9.4 0-17 7.6-17 17 0 4.3 1.6 8.3 4.3 11.3-6.3.5-11.7 4.2-14.2 9.4-1.9-1.4-4.2-2.2-6.9-2.2-1.3 0-2.5.2-3.6.5-1.2-5.7-6-10-11.8-10-1.5 0-2.9.3-4.2.8-1.5-7-8.9-12.3-17.8-12.3-5.1 0-9.8 1.8-13 4.6-1.8-3.2-4.3-6.1-7.5-8.5.1-.7.2-1.4.2-2.1 0-6.6-5.3-11.9-11.9-11.9-1.8 0-3.5.4-5.1 1.1-1.3-6.1-6.7-10.7-13.3-10.7-6.3 0-11.7 4.3-13.2 10-1.7-.4-3.5-.6-5.4-.6-5.8 0-11.2 2-15.3 5.4-4-2.6-9.2-4.2-14.9-4.2-5.8 0-11.1 1.7-15.2 4.5-1.4-9-9.2-15.9-18.7-15.9-7.9 0-14.6 4.7-17.4 11.4-1.2-.5-2.4-.8-3.7-.8-5.3 0-9.7 4.3-9.7 9.7 0 .9.1 1.8.4 2.6-1-.2-2.1-.3-3.2-.3-8.2 0-14.8 6.6-14.8 14.8 0 1 .1 2 .3 3-1-.3-2.1-.5-3.2-.5-4.9 0-9 3.6-9.8 8.3h-.6c-7 0-12.7 5.4-12.7 12.1L0 92.6l504-.2-.1-.3h66.6l99.4.1-64.4-11.1z"/></svg>