<svg xmlns="http://www.w3.org/2000/svg" viewBox="0 0 41.7 23.7"><path fill="none" stroke="#d5d5d5" stroke-width=".734" stroke-miterlimit="10" d="M19 23.4c0-3.5-4.2-10.8-9.3-10.8-5.2 0-9.3 7.3-9.3 10.8H19zM9.6.4C12 .4 14 2.5 14 5v2.1c0 2.6-2 4.7-4.3 4.7-2.4 0-4.3-2.1-4.3-4.7V5C5.4 2.5 7.3.4 9.6.4zM25.2 4.2h14.1c1.2 0 2.1 1.1 2.1 2.3v8.2c0 1.3-.9 2.3-2.1 2.3H25.2c-1.2 0-2.1-1-2.1-2.3V6.6c0-1.3.9-2.4 2.1-2.4z"/><path fill="none" stroke="#d5d5d5" stroke-width=".734" stroke-linecap="round" stroke-miterlimit="10" d="M27.1 8.2h9.7M27.1 12.2h6.1"/></svg>