<?xml version="1.0" encoding="utf-8"?>
<!-- Generator: Adobe Illustrator 19.1.0, SVG Export Plug-In . SVG Version: 6.00 Build 0)  -->
<svg version="1.1" id="Слой_1" xmlns="http://www.w3.org/2000/svg" xmlns:xlink="http://www.w3.org/1999/xlink" x="0px" y="0px"
	 viewBox="0 0 17.1 13.5" enable-background="new 0 0 17.1 13.5" xml:space="preserve">
<path fill="none" stroke="#0D1413" stroke-width="0.7054" stroke-miterlimit="10" d="M2.8,6C6.9,4,2.8,6,6.9,4"/>
<path fill="none" stroke="#0D1413" stroke-width="0.7054" stroke-miterlimit="10" d="M2.1,6c1,0,1.7,1.3,1.7,1.9
	c0,0.6-0.8,1.1-1.7,1.1c-1,0-1.7-0.5-1.7-1.1C0.4,7.3,1.1,6,2.1,6L2.1,6z"/>
<path fill="none" stroke="#0D1413" stroke-width="0.7054" stroke-miterlimit="10" d="M7,11.8c-4.7-2.9,0,0-4.7-2.9"/>
<path fill="none" stroke="#0D1413" stroke-width="0.7054" stroke-miterlimit="10" d="M14.9,8.9c-4.5,2.8,0,0-4.7,2.9"/>
<path fill="none" stroke="#0D1413" stroke-width="0.7054" stroke-miterlimit="10" d="M10.3,4c4.2,2.1,0,0,4.2,2.1"/>
<path fill="none" stroke="#0D1413" stroke-width="0.7054" stroke-miterlimit="10" d="M2,4L2,4c0.4,0,0.8,0.4,0.8,0.8v0.4
	C2.8,5.6,2.4,6,2,6l0,0C1.6,6,1.2,5.6,1.2,5.2V4.8C1.2,4.4,1.6,4,2,4L2,4z"/>
<path fill="none" stroke="#0D1413" stroke-width="0.7054" stroke-miterlimit="10" d="M8.7,2.3c1,0,1.7,1.2,1.7,1.8S9.6,5.2,8.7,5.2
	c-1,0-1.7-0.5-1.7-1.1S7.7,2.3,8.7,2.3L8.7,2.3z"/>
<path fill="none" stroke="#0D1413" stroke-width="0.7054" stroke-miterlimit="10" d="M8.6,0.4L8.6,0.4c0.5,0,0.8,0.3,0.8,0.8v0.3
	c0,0.5-0.4,0.8-0.8,0.8l0,0c-0.5,0-0.8-0.4-0.8-0.8V1.1C7.8,0.7,8.1,0.4,8.6,0.4L8.6,0.4z"/>
<path fill="none" stroke="#0D1413" stroke-width="0.7054" stroke-miterlimit="10" d="M8.7,10.2c1,0,1.7,1.3,1.7,1.9
	s-0.8,1.1-1.7,1.1c-1,0-1.7-0.5-1.7-1.1S7.7,10.2,8.7,10.2L8.7,10.2z"/>
<path fill="none" stroke="#0D1413" stroke-width="0.7054" stroke-miterlimit="10" d="M8.6,8.2L8.6,8.2C9,8.2,9.4,8.6,9.4,9v0.3
	c0,0.4-0.4,0.8-0.8,0.8l0,0c-0.5,0-0.8-0.4-0.8-0.8V9C7.8,8.6,8.1,8.2,8.6,8.2L8.6,8.2z"/>
<path fill="none" stroke="#0D1413" stroke-width="0.7054" stroke-miterlimit="10" d="M15,6c1,0,1.7,1.3,1.7,1.9
	c0,0.6-0.8,1.1-1.7,1.1c-1,0-1.7-0.5-1.7-1.1C13.3,7.3,14.1,6,15,6L15,6z"/>
<path fill="none" stroke="#0D1413" stroke-width="0.7054" stroke-miterlimit="10" d="M15,4L15,4c0.5,0,0.8,0.4,0.8,0.8v0.4
	C15.7,5.6,15.4,6,15,6l0,0c-0.5,0-0.8-0.4-0.8-0.8V4.8C14.1,4.4,14.5,4,15,4L15,4z"/>
</svg>
