<?xml version="1.0" encoding="utf-8"?>
<!-- Generator: Adobe Illustrator 19.1.0, SVG Export Plug-In . SVG Version: 6.00 Build 0)  -->
<svg version="1.1" id="Слой_1" xmlns="http://www.w3.org/2000/svg" xmlns:xlink="http://www.w3.org/1999/xlink" x="0px" y="0px"
	 viewBox="0 0 46.2 19.6" enable-background="new 0 0 46.2 19.6" xml:space="preserve">
<line fill="none" stroke="#272929" stroke-width="0.6" stroke-miterlimit="10" x1="4.2" y1="17.6" x2="21.7" y2="17.6"/>
<path fill="none" stroke="#272929" stroke-width="0.6" stroke-miterlimit="10" d="M2.7,19.3c0.8,0,1.5-0.7,1.5-1.5
	c0-0.8-0.7-1.5-1.5-1.5c-0.8,0-1.5,0.7-1.5,1.5C1.2,18.6,1.9,19.3,2.7,19.3L2.7,19.3z"/>
<path fill="none" stroke="#272929" stroke-width="0.6" stroke-miterlimit="10" d="M23.1,13.8L23.1,13.8
	C23.1,13.7,23.1,13.8,23.1,13.8c0.1,0,0.2-0.2,0.2-0.2c1.5-2.4,4.2-6.3,4-9.5c-0.1-2.3-2-3.8-4.2-3.8c-2.2,0-4.1,1.5-4.2,3.8
	c-0.2,3.2,2.6,7.1,4,9.5C23,13.6,23.1,13.8,23.1,13.8L23.1,13.8z M23.1,6.2c-0.8,0-1.5-0.6-1.5-1.4c0-0.3,0.1-0.6,0.2-0.9
	c0.1-0.1,0.2-0.3,0.3-0.4c0.1-0.1,0.1-0.1,0.2-0.2c0.2-0.1,0.4-0.1,0.6-0.1c0,0,0.1,0,0.1,0s0.1,0,0.1,0c0.2,0,0.4,0.1,0.6,0.1
	C23.9,3.4,24,3.5,24,3.5c0.1,0.1,0.3,0.2,0.3,0.4c0.2,0.3,0.3,0.6,0.3,0.9C24.6,5.6,23.9,6.3,23.1,6.2L23.1,6.2z"/>
<path fill="none" stroke="#272929" stroke-width="0.6" stroke-miterlimit="10" d="M23.2,19.3c0.8,0,1.5-0.7,1.5-1.5
	c0-0.8-0.7-1.5-1.5-1.5c-0.8,0-1.5,0.7-1.5,1.5C21.7,18.6,22.4,19.3,23.2,19.3L23.2,19.3z"/>
<line fill="none" stroke="#272929" stroke-width="0.6" stroke-miterlimit="10" x1="42.2" y1="17.6" x2="24.7" y2="17.6"/>
<path fill="none" stroke="#272929" stroke-width="0.6" stroke-miterlimit="10" d="M43.7,19.3c0.8,0,1.5-0.7,1.5-1.5
	c0-0.8-0.7-1.5-1.5-1.5c-0.8,0-1.5,0.7-1.5,1.5C42.2,18.6,42.9,19.3,43.7,19.3L43.7,19.3z"/>
<path fill="none" stroke="#272929" stroke-width="0.6" stroke-miterlimit="10" d="M2.7,14.4C2.7,14.4,2.7,14.4,2.7,14.4
	C2.7,14.4,2.7,14.4,2.7,14.4c0,0,0.1-0.1,0.1-0.1c0.8-1.4,2.4-3.6,2.3-5.4C5,7.6,3.9,6.7,2.7,6.7S0.4,7.6,0.3,8.9
	c-0.1,1.8,1.4,4,2.3,5.4C2.6,14.2,2.6,14.4,2.7,14.4L2.7,14.4z M2.7,10.1c-0.5,0-0.8-0.3-0.8-0.8c0-0.2,0-0.4,0.1-0.5
	C2,8.7,2.1,8.6,2.2,8.5c0,0,0.1-0.1,0.1-0.1c0.1-0.1,0.2-0.1,0.3-0.1c0,0,0.1,0,0.1,0c0,0,0.1,0,0.1,0c0.1,0,0.2,0,0.3,0.1
	c0.1,0,0.1,0.1,0.1,0.1c0.1,0.1,0.1,0.1,0.2,0.2c0.1,0.1,0.1,0.3,0.1,0.5C3.5,9.7,3.2,10.1,2.7,10.1L2.7,10.1z"/>
<path fill="none" stroke="#272929" stroke-width="0.6" stroke-miterlimit="10" d="M43.5,14.4C43.5,14.4,43.5,14.4,43.5,14.4
	S43.5,14.4,43.5,14.4c0,0,0.1-0.1,0.1-0.1c0.8-1.4,2.4-3.6,2.3-5.4c-0.1-1.3-1.1-2.2-2.4-2.2c-1.3,0-2.3,0.9-2.4,2.2
	c-0.1,1.8,1.5,4,2.3,5.4C43.4,14.2,43.5,14.4,43.5,14.4L43.5,14.4z M43.5,10.1c-0.5,0-0.8-0.3-0.8-0.8c0-0.2,0-0.4,0.1-0.5
	c0.1-0.1,0.1-0.2,0.2-0.2c0.1,0,0.1-0.1,0.1-0.1c0.1-0.1,0.2-0.1,0.3-0.1c0,0,0,0,0.1,0s0.1,0,0.1,0c0.1,0,0.3,0,0.3,0.1
	c0.1,0,0.1,0.1,0.1,0.1c0.1,0.1,0.1,0.1,0.2,0.2c0.1,0.1,0.1,0.3,0.1,0.5C44.3,9.7,44,10.1,43.5,10.1L43.5,10.1z"/>
</svg>
