<svg xmlns="http://www.w3.org/2000/svg" xmlns:xlink="http://www.w3.org/1999/xlink" viewBox="0 0 679.2 200.8"><path fill-rule="evenodd" clip-rule="evenodd" fill="#938885" stroke="#000" stroke-width=".709" stroke-miterlimit="22.926" d="M204.1 199.6c3.5 0 6.3-2.8 6.3-6.3s-2.8-6.3-6.3-6.3-6.3 2.8-6.3 6.3 2.9 6.3 6.3 6.3z"/><path fill-rule="evenodd" clip-rule="evenodd" fill="#FFF" stroke="#000" stroke-width=".709" stroke-miterlimit="22.926" d="M311.6 45.9h66.1v34h-66.1z"/><path fill-rule="evenodd" clip-rule="evenodd" fill="#FFF" stroke="#000" stroke-width=".709" stroke-miterlimit="22.926" d="M303.4 62.1h82.7V80h-82.7zM259.2 129.1h171.5v9.2H259.2z"/><path fill-rule="evenodd" clip-rule="evenodd" fill="#FFF" stroke="#000" stroke-width=".709" stroke-miterlimit="22.926" d="M437 132.6v20.9c0 20.8-14.4 38.8-34.9 46.9H287.9c-20.5-8.1-34.9-26.1-34.9-46.9v-20.9h184z"/><path fill-rule="evenodd" clip-rule="evenodd" fill="#98A3D3" stroke="#000" stroke-width=".709" stroke-miterlimit="22.926" d="M253.3 110.3h16.6v15.2h-16.6z"/><path fill-rule="evenodd" clip-rule="evenodd" fill="#FFF" stroke="#000" stroke-width=".709" stroke-miterlimit="22.926" d="M253.2 125.4h183.5v7.1H253.2z"/><path fill-rule="evenodd" clip-rule="evenodd" fill="#E0AF94" stroke="#000" stroke-width=".709" stroke-miterlimit="22.926" d="M269.9 110.3h16.6v15.2h-16.6z"/><path fill-rule="evenodd" clip-rule="evenodd" fill="#FFF" stroke="#000" stroke-width=".709" stroke-miterlimit="22.926" d="M286.5 110.3h16.6v15.2h-16.6z"/><path fill-rule="evenodd" clip-rule="evenodd" fill="#D0DCEF" stroke="#000" stroke-width=".709" stroke-miterlimit="22.926" d="M303.2 110.3h16.6v15.2h-16.6z"/><path fill-rule="evenodd" clip-rule="evenodd" fill="#E0AF94" stroke="#000" stroke-width=".709" stroke-miterlimit="22.926" d="M319.8 110.3h16.6v15.2h-16.6z"/><path fill-rule="evenodd" clip-rule="evenodd" fill="#E0AF94" stroke="#000" stroke-width=".709" stroke-miterlimit="22.926" d="M336.4 110.3H353v15.2h-16.6z"/><path fill-rule="evenodd" clip-rule="evenodd" fill="#FFF" stroke="#000" stroke-width=".709" stroke-miterlimit="22.926" d="M353 110.3h16.6v15.2H353z"/><path fill-rule="evenodd" clip-rule="evenodd" fill="#E0AF94" stroke="#000" stroke-width=".709" stroke-miterlimit="22.926" d="M369.7 110.3h16.6v15.2h-16.6zM386.3 110.3h16.6v15.2h-16.6z"/><path fill-rule="evenodd" clip-rule="evenodd" fill="#FFF" stroke="#000" stroke-width=".709" stroke-miterlimit="22.926" d="M402.9 110.3h16.6v15.2h-16.6z"/><path fill-rule="evenodd" clip-rule="evenodd" fill="#98A3D3" stroke="#000" stroke-width=".709" stroke-miterlimit="22.926" d="M419.6 110.3h16.6v15.2h-16.6z"/><path fill-rule="evenodd" clip-rule="evenodd" fill="#D0DCEF" stroke="#000" stroke-width=".709" stroke-miterlimit="22.926" d="M253.3 95.1h16.6v15.2h-16.6z"/><path fill-rule="evenodd" clip-rule="evenodd" fill="#E0AF94" stroke="#000" stroke-width=".709" stroke-miterlimit="22.926" d="M269.9 95.1h16.6v15.2h-16.6z"/><path fill-rule="evenodd" clip-rule="evenodd" fill="#FFF" stroke="#000" stroke-width=".709" stroke-miterlimit="22.926" d="M286.5 95.1h16.6v15.2h-16.6z"/><path fill-rule="evenodd" clip-rule="evenodd" fill="#98A3D3" stroke="#000" stroke-width=".709" stroke-miterlimit="22.926" d="M303.2 95.1h16.6v15.2h-16.6z"/><path fill-rule="evenodd" clip-rule="evenodd" fill="#D0DCEF" stroke="#000" stroke-width=".709" stroke-miterlimit="22.926" d="M319.8 95.1h16.6v15.2h-16.6z"/><path fill-rule="evenodd" clip-rule="evenodd" fill="#E0AF94" stroke="#000" stroke-width=".709" stroke-miterlimit="22.926" d="M336.4 95.1H353v15.2h-16.6z"/><path fill-rule="evenodd" clip-rule="evenodd" fill="#FFF" stroke="#000" stroke-width=".709" stroke-miterlimit="22.926" d="M353 95.1h16.6v15.2H353z"/><path fill-rule="evenodd" clip-rule="evenodd" fill="#D0DCEF" stroke="#000" stroke-width=".709" stroke-miterlimit="22.926" d="M369.7 95.1h16.6v15.2h-16.6z"/><path fill-rule="evenodd" clip-rule="evenodd" fill="#E0AF94" stroke="#000" stroke-width=".709" stroke-miterlimit="22.926" d="M386.3 95.1h16.6v15.2h-16.6z"/><path fill-rule="evenodd" clip-rule="evenodd" fill="#98A3D3" stroke="#000" stroke-width=".709" stroke-miterlimit="22.926" d="M402.9 95.1h16.6v15.2h-16.6z"/><path fill-rule="evenodd" clip-rule="evenodd" fill="#FFF" stroke="#000" stroke-width=".709" stroke-miterlimit="22.926" d="M419.6 95.1h16.6v15.2h-16.6z"/><path fill-rule="evenodd" clip-rule="evenodd" fill="#98A3D3" stroke="#000" stroke-width=".709" stroke-miterlimit="22.926" d="M253.3 79.9h16.6v15.2h-16.6z"/><path fill-rule="evenodd" clip-rule="evenodd" fill="#FFF" stroke="#000" stroke-width=".709" stroke-miterlimit="22.926" d="M269.9 79.9h16.6v15.2h-16.6z"/><path fill-rule="evenodd" clip-rule="evenodd" fill="#E0AF94" stroke="#000" stroke-width=".709" stroke-miterlimit="22.926" d="M286.5 79.9h16.6v15.2h-16.6zM303.2 79.9h16.6v15.2h-16.6z"/><path fill-rule="evenodd" clip-rule="evenodd" fill="#98A3D3" stroke="#000" stroke-width=".709" stroke-miterlimit="22.926" d="M319.8 79.9h16.6v15.2h-16.6z"/><path fill-rule="evenodd" clip-rule="evenodd" fill="#FFF" stroke="#000" stroke-width=".709" stroke-miterlimit="22.926" d="M336.4 79.9H353v15.2h-16.6z"/><path fill-rule="evenodd" clip-rule="evenodd" fill="#E0AF94" stroke="#000" stroke-width=".709" stroke-miterlimit="22.926" d="M353 79.9h16.6v15.2H353z"/><path fill-rule="evenodd" clip-rule="evenodd" fill="#98A3D3" stroke="#000" stroke-width=".709" stroke-miterlimit="22.926" d="M369.7 79.9h16.6v15.2h-16.6z"/><path fill-rule="evenodd" clip-rule="evenodd" fill="#E0AF94" stroke="#000" stroke-width=".709" stroke-miterlimit="22.926" d="M386.3 79.9h16.6v15.2h-16.6z"/><path fill-rule="evenodd" clip-rule="evenodd" fill="#FFF" stroke="#000" stroke-width=".709" stroke-miterlimit="22.926" d="M402.9 79.9h16.6v15.2h-16.6z"/><path fill-rule="evenodd" clip-rule="evenodd" fill="#D0DCEF" stroke="#000" stroke-width=".709" stroke-miterlimit="22.926" d="M419.6 79.9h16.6v15.2h-16.6z"/><path fill-rule="evenodd" clip-rule="evenodd" fill="#FFF" stroke="#000" stroke-width=".709" stroke-miterlimit="22.926" d="M286.6 71.2h116.3v8.7H286.6z"/><path fill-rule="evenodd" clip-rule="evenodd" fill="#FFF" d="M330.3.4h28.5l6 79.5h-40.2"/><defs><path id="a" d="M330.3.4h28.5l6 79.5h-40.2z"/></defs><clipPath id="b"><use xlink:href="#a" overflow="visible"/></clipPath><g clip-path="url(#b)" fill-rule="evenodd" clip-rule="evenodd" fill="#E0AF94" stroke="#000" stroke-width=".567" stroke-miterlimit="22.926"><path d="M321 13.2h53.1V25H321zM321 39.9h53.1v14.7H321z"/></g><path clip-rule="evenodd" fill="none" stroke="#000" stroke-width=".709" stroke-miterlimit="22.926" d="M330.3.4h28.5l6 79.5h-40.2z"/><path fill-rule="evenodd" clip-rule="evenodd" fill="#D6D7DE" stroke="#000" stroke-width=".709" stroke-miterlimit="22.926" d="M362.4 71.6h7.4v8.3h-7.4z"/><path fill-rule="evenodd" clip-rule="evenodd" fill="#FFF" stroke="#000" stroke-width=".709" stroke-miterlimit="22.926" d="M361 68.4h10.2v4.8H361z"/><path fill-rule="evenodd" clip-rule="evenodd" fill="#D6D7DE" stroke="#000" stroke-width=".709" stroke-miterlimit="22.926" d="M319.6 71.6h7.4v8.3h-7.4z"/><path fill-rule="evenodd" clip-rule="evenodd" fill="#FFF" stroke="#000" stroke-width=".709" stroke-miterlimit="22.926" d="M318.1 68.4h10.4v4.8h-10.4zM327 75.6h35.4v4.3H327z"/><path clip-rule="evenodd" fill="none" stroke="#000" stroke-width=".709" stroke-miterlimit="22.926" d="M326.1 59.5h-22.9M324 59.5v2.4"/><g clip-rule="evenodd" fill="none" stroke="#000" stroke-width=".709" stroke-miterlimit="22.926"><path d="M319.8 59.5v2.4M315.7 59.5v2.4M311.6 59.5v2.4M307.5 59.5v2.4"/></g><path clip-rule="evenodd" fill="none" stroke="#000" stroke-width=".709" stroke-miterlimit="22.926" d="M303.4 59.5v2.4M363.2 59.5h22.9M365.4 59.5v2.4"/><g clip-rule="evenodd" fill="none" stroke="#000" stroke-width=".709" stroke-miterlimit="22.926"><path d="M369.5 59.5v2.4M373.6 59.5v2.4M377.7 59.5v2.4M381.8 59.5v2.4"/></g><path clip-rule="evenodd" fill="none" stroke="#000" stroke-width=".709" stroke-miterlimit="22.926" d="M386 59.5v2.4M327.1 43.6h-14.5M324.5 43.6V46"/><g clip-rule="evenodd" fill="none" stroke="#000" stroke-width=".709" stroke-miterlimit="22.926"><path d="M320.7 43.6V46M316.8 43.6V46"/></g><path clip-rule="evenodd" fill="none" stroke="#000" stroke-width=".709" stroke-miterlimit="22.926" d="M312.9 43.6V46M362.2 43.6h14.6M364.8 43.6V46"/><g clip-rule="evenodd" fill="none" stroke="#000" stroke-width=".709" stroke-miterlimit="22.926"><path d="M368.7 43.6V46M372.6 43.6V46"/></g><path clip-rule="evenodd" fill="none" stroke="#000" stroke-width=".709" stroke-miterlimit="22.926" d="M376.5 43.6V46M0 200.4h679.2"/><path fill-rule="evenodd" clip-rule="evenodd" fill="#D6D7DE" stroke="#000" stroke-width=".709" stroke-miterlimit="22.926" d="M217.1 181H30.8v3.8h50.9v.1l4.5 4.7h75.5l4.5-4.7v-.1h50.9z"/><path fill-rule="evenodd" clip-rule="evenodd" fill="#98A3D3" stroke="#000" stroke-width=".709" stroke-miterlimit="22.926" d="M30.9 143.4H217V181H30.9z"/><path fill-rule="evenodd" clip-rule="evenodd" fill="#938885" stroke="#000" stroke-width=".709" stroke-miterlimit="22.926" d="M43.8 199.6c3.5 0 6.3-2.8 6.3-6.3s-2.8-6.3-6.3-6.3-6.3 2.8-6.3 6.3 2.8 6.3 6.3 6.3zM68.5 199.6c3.5 0 6.3-2.8 6.3-6.3S72 187 68.5 187s-6.3 2.8-6.3 6.3 2.8 6.3 6.3 6.3z"/><path fill-rule="evenodd" clip-rule="evenodd" fill="#BDBEC2" stroke="#000" stroke-width=".709" stroke-miterlimit="22.926" d="M54.2 189.9h20.5v2.6h-8.4c-2.8 0-4.8 1.5-5.7 4.1H51c-.9-2.6-2.9-4.1-5.7-4.1h-7.8v-2.6H54.2z"/><path fill-rule="evenodd" clip-rule="evenodd" fill="#FFF" stroke="#000" stroke-width=".709" stroke-miterlimit="22.926" d="M43.8 195.3c1.1 0 2-.9 2-2s-.9-2-2-2-2 .9-2 2 .9 2 2 2zM68.5 195.3c1.1 0 2-.9 2-2s-.9-2-2-2-2 .9-2 2 .9 2 2 2z"/><path fill-rule="evenodd" clip-rule="evenodd" fill="#938885" stroke="#000" stroke-width=".709" stroke-miterlimit="22.926" d="M49.5 187.4h12.9v2.5H49.5zM24 181h6.9v2.7H24zM20.8 179.7H24v5.6h-3.2zM179.5 199.6c3.5 0 6.3-2.8 6.3-6.3s-2.8-6.3-6.3-6.3-6.3 2.8-6.3 6.3 2.8 6.3 6.3 6.3z"/><path fill-rule="evenodd" clip-rule="evenodd" fill="#BDBEC2" stroke="#000" stroke-width=".709" stroke-miterlimit="22.926" d="M193.8 189.9h-20.5v2.6h8.4c2.8 0 4.8 1.5 5.7 4.1h9.6c.9-2.6 2.9-4.1 5.7-4.1h7.8v-2.6H193.8z"/><path fill-rule="evenodd" clip-rule="evenodd" fill="#FFF" stroke="#000" stroke-width=".709" stroke-miterlimit="22.926" d="M204.1 195.3c1.1 0 2-.9 2-2s-.9-2-2-2-2 .9-2 2 .9 2 2 2zM179.5 195.3c1.1 0 2-.9 2-2s-.9-2-2-2-2 .9-2 2 .9 2 2 2z"/><path fill-rule="evenodd" clip-rule="evenodd" fill="#938885" stroke="#000" stroke-width=".709" stroke-miterlimit="22.926" d="M185.5 187.4h12.9v2.5h-12.9zM217.1 181h6.9v2.7h-6.9zM224 179.7h3.2v5.6H224z"/><path fill-rule="evenodd" clip-rule="evenodd" fill="#938885" stroke="#000" stroke-width=".567" stroke-miterlimit="22.926" d="M634.1 164.2v7.8l-5.1-1v-6.8z"/><path fill-rule="evenodd" clip-rule="evenodd" fill="#BDBEC2" d="M651.1 186.3v8.5h-10.7l.2-.9-1-3.4-2-2.3-2.3-1.1-2.1-.1-2.1.6-2 1.4-1 1.4-.6 1.5-.2 1.5-.1 1.3h-2.3l-22.5.3-2.5-.3v-.2l-2.5-2.3-1.5-2-2.2-.4-2 .3-1 .9-.7 1.3h-9.3l-.6-1.9-1.7-2.1c-.7-.4-5.1-.5-10.8-.5-13.3 0-34.2.7-35.8.7l-44.3-.5h-20.1v4.4l.1-.2h-2.7v-9.3h132.7v4.4h25.9v-4.4h12.3l2.6.4 1.9 1.1 2.1 1.9h8.8z"/><path fill-rule="evenodd" clip-rule="evenodd" fill="#FFF" stroke="#000" stroke-width=".709" stroke-miterlimit="22.926" d="M651.4 186.3v-8.7c0-2.2-.4-2.2-2.6-2.6l-19.8-4v-6.8h21.6V163c-4.4-1.7-7.3-2.6-11.1-3.2-2-.3-3.7-.5-5.7-.5l-13.5-.1v23.7H635c3.3 0 4.5.6 7.4 3.4h9z"/><path clip-rule="evenodd" fill="none" stroke="#000" stroke-width=".709" stroke-miterlimit="22.926" d="M651.1 186.3v8.5h-11m-12.8 0h-7.4v-7.4h3.5V183"/><path fill-rule="evenodd" clip-rule="evenodd" fill="#938885" stroke="#000" stroke-width=".709" stroke-miterlimit="22.926" d="M633.8 199.9c3.5 0 6.4-2.9 6.4-6.4 0-3.5-2.9-6.4-6.4-6.4s-6.4 2.9-6.4 6.4c-.1 3.5 2.8 6.4 6.4 6.4z"/><path clip-rule="evenodd" fill="none" stroke="#000" stroke-width=".709" stroke-miterlimit="22.926" d="M648.3 164.2l1 10.8.1.2M646.4 164.2v22.1M634.1 164.2v18.7"/><path fill-rule="evenodd" clip-rule="evenodd" fill="#BDBEC2" stroke="#000" stroke-width=".709" stroke-miterlimit="22.926" d="M632.6 156.4l-8-1.6c-2-.4-4 .9-4.4 2.9-.1.6-.1 1.1 0 1.7h15.2c-.2-1.5-1.3-2.7-2.8-3z"/><path clip-rule="evenodd" fill="none" stroke="#000" stroke-width=".709" stroke-miterlimit="22.926" d="M607.4 187.4h12.5v7.4h-12.5z"/><path fill-rule="evenodd" clip-rule="evenodd" fill="#E0AF94" stroke="#000" stroke-width=".709" stroke-miterlimit="22.926" d="M464.7 147.1H613V183H464.7z"/><path clip-rule="evenodd" fill="none" stroke="#000" stroke-width=".709" stroke-miterlimit="22.926" d="M597.5 183v4.4M464.8 183h2.5v9.6h-2.5zM573.8 188.3h-45.1M491 188.2h-23.7M607.4 187.4h-11.7M607.4 194.8h-7.9"/><path fill-rule="evenodd" clip-rule="evenodd" fill="#938885" stroke="#000" stroke-width=".709" stroke-miterlimit="22.926" d="M524.4 199.9c3.5 0 6.4-2.9 6.4-6.4 0-3.5-2.9-6.4-6.4-6.4s-6.4 2.9-6.4 6.4c0 3.5 2.9 6.4 6.4 6.4z"/><path fill-rule="evenodd" clip-rule="evenodd" fill="#E2E2E2" stroke="#000" stroke-width=".709" stroke-miterlimit="22.926" d="M524.4 196.1c1.5 0 2.7-1.2 2.7-2.7 0-1.5-1.2-2.7-2.7-2.7s-2.7 1.2-2.7 2.7c0 1.5 1.2 2.7 2.7 2.7z"/><path fill-rule="evenodd" clip-rule="evenodd" fill="#938885" stroke="#000" stroke-width=".709" stroke-miterlimit="22.926" d="M494.5 199.9c3.5 0 6.4-2.9 6.4-6.4 0-3.5-2.9-6.4-6.4-6.4-3.5 0-6.4 2.9-6.4 6.4-.1 3.5 2.8 6.4 6.4 6.4zM509.3 199.9c3.5 0 6.4-2.9 6.4-6.4 0-3.5-2.9-6.4-6.4-6.4-3.5 0-6.4 2.9-6.4 6.4 0 3.5 2.9 6.4 6.4 6.4z"/><path fill-rule="evenodd" clip-rule="evenodd" fill="#BDBEC2" stroke="#000" stroke-width=".709" stroke-miterlimit="22.926" d="M618.2 159.3h2v20.4h-2z"/><path clip-rule="evenodd" fill="none" stroke="#000" stroke-width=".709" stroke-linecap="round" stroke-miterlimit="22.926" d="M41.1 152.7v20.4"/><path fill-rule="evenodd" clip-rule="evenodd" fill="#E2E2E2" stroke="#000" stroke-width=".709" stroke-miterlimit="22.926" d="M509.3 196.1c1.5 0 2.7-1.2 2.7-2.7 0-1.5-1.2-2.7-2.7-2.7s-2.7 1.2-2.7 2.7c.1 1.5 1.3 2.7 2.7 2.7zM494.5 196.1c1.5 0 2.7-1.2 2.7-2.7 0-1.5-1.2-2.7-2.7-2.7-1.5 0-2.7 1.2-2.7 2.7 0 1.5 1.2 2.7 2.7 2.7z"/><path fill-rule="evenodd" clip-rule="evenodd" fill="#938885" stroke="#000" stroke-width=".709" stroke-miterlimit="22.926" d="M578.4 199.9c3.5 0 6.4-2.9 6.4-6.4 0-3.5-2.9-6.4-6.4-6.4-3.5 0-6.4 2.9-6.4 6.4-.1 3.5 2.8 6.4 6.4 6.4zM593.3 199.9c3.5 0 6.4-2.9 6.4-6.4 0-3.5-2.9-6.4-6.4-6.4-3.5 0-6.4 2.9-6.4 6.4-.1 3.5 2.8 6.4 6.4 6.4z"/><path fill-rule="evenodd" clip-rule="evenodd" fill="#E2E2E2" stroke="#000" stroke-width=".709" stroke-miterlimit="22.926" d="M593.3 196.1c1.5 0 2.7-1.2 2.7-2.7 0-1.5-1.2-2.7-2.7-2.7-1.5 0-2.7 1.2-2.7 2.7 0 1.5 1.2 2.7 2.7 2.7zM578.4 196.1c1.5 0 2.7-1.2 2.7-2.7 0-1.5-1.2-2.7-2.7-2.7-1.5 0-2.7 1.2-2.7 2.7 0 1.5 1.2 2.7 2.7 2.7zM633.8 196.1c1.5 0 2.7-1.2 2.7-2.7 0-1.5-1.2-2.7-2.7-2.7-1.5 0-2.7 1.2-2.7 2.7 0 1.5 1.2 2.7 2.7 2.7z"/><path clip-rule="evenodd" fill="none" stroke="#000" stroke-width=".709" stroke-miterlimit="22.926" d="M574.1 183v5.7"/><path clip-rule="evenodd" fill="none" stroke="#000" stroke-width=".567" stroke-miterlimit="22.926" d="M613 169.9H464.7"/><g clip-rule="evenodd" fill="none" stroke="#000" stroke-width=".709" stroke-linecap="round" stroke-miterlimit="22.926"><path d="M49 152.7v20.5M56.9 152.7v20.5M64.7 152.7v20.5M72.6 152.7v20.5M80.5 152.7v20.5M88.4 152.7v20.5M96.3 152.7v20.5M104.1 152.7v20.5M112 152.7v20.5M119.9 152.7v20.5M127.8 152.7v20.5M135.7 152.7v20.5M143.5 152.7v20.5M151.4 152.7v20.5M159.3 152.7v20.5M167.2 152.7v20.5M175.1 152.7v20.5M182.9 152.7v20.5M190.8 152.7v20.5M198.7 152.7v20.5"/></g><path clip-rule="evenodd" fill="none" stroke="#000" stroke-width=".709" stroke-linecap="round" stroke-miterlimit="22.926" d="M206.6 152.7v20.4"/></svg>