<?xml version="1.0" encoding="utf-8"?>
<!-- Generator: Adobe Illustrator 19.1.0, SVG Export Plug-In . SVG Version: 6.00 Build 0)  -->
<svg version="1.1" id="Слой_1" xmlns="http://www.w3.org/2000/svg" xmlns:xlink="http://www.w3.org/1999/xlink" x="0px" y="0px"
	 viewBox="0 0 16.5 10.3" enable-background="new 0 0 16.5 10.3" xml:space="preserve">
<path fill="none" stroke="#1B1B1B" stroke-width="0.75" stroke-linecap="round" stroke-miterlimit="10" d="M16.1,1.1
	c-0.7,0-1.3-0.7-2-0.7c-0.7,0-1.3,0.7-2,0.7c-0.6,0-1.3-0.7-2-0.7c-0.6,0-1.3,0.7-2,0.7c-0.6,0-1.3-0.7-2-0.7c-0.6,0-1.3,0.7-2,0.7
	C3.6,1.1,3,0.4,2.3,0.4c-0.7,0-1.3,0.7-2,0.7"/>
<path fill="none" stroke="#1B1B1B" stroke-width="0.75" stroke-linecap="round" stroke-miterlimit="10" d="M16.1,5.4
	c-0.7,0-1.3-0.7-2-0.7c-0.7,0-1.3,0.7-2,0.7c-0.6,0-1.3-0.7-2-0.7c-0.6,0-1.3,0.7-2,0.7c-0.6,0-1.3-0.7-2-0.7c-0.6,0-1.3,0.7-2,0.7
	C3.6,5.4,3,4.7,2.3,4.7c-0.7,0-1.3,0.7-2,0.7"/>
<path fill="none" stroke="#1B1B1B" stroke-width="0.75" stroke-linecap="round" stroke-miterlimit="10" d="M16.1,9.9
	c-0.7,0-1.3-0.7-2-0.7c-0.7,0-1.3,0.7-2,0.7c-0.6,0-1.3-0.7-2-0.7c-0.6,0-1.3,0.7-2,0.7c-0.6,0-1.3-0.7-2-0.7c-0.6,0-1.3,0.7-2,0.7
	C3.6,9.9,3,9.2,2.3,9.2c-0.7,0-1.3,0.7-2,0.7"/>
</svg>
