<?xml version="1.0" encoding="utf-8"?>
<!-- Generator: Adobe Illustrator 19.1.0, SVG Export Plug-In . SVG Version: 6.00 Build 0)  -->
<svg version="1.1" id="Слой_1" xmlns="http://www.w3.org/2000/svg" xmlns:xlink="http://www.w3.org/1999/xlink" x="0px" y="0px"
	 viewBox="0 0 45.4 18" enable-background="new 0 0 45.4 18" xml:space="preserve">
<rect x="0.3" y="0.3" fill-rule="evenodd" clip-rule="evenodd" fill="#FFFFFF" stroke="#272929" stroke-width="0.6" stroke-miterlimit="10" width="33.9" height="11.8"/>
<polygon fill-rule="evenodd" clip-rule="evenodd" fill="#FFFFFF" stroke="#272929" stroke-width="0.6" stroke-miterlimit="10" points="
	36.1,12.1 45.1,12.1 45.1,9.4 43.1,3 36.1,3 "/>
<path fill="none" stroke="#272929" stroke-width="0.6" stroke-miterlimit="10" d="M5.3,17.7c1.1,0,2-0.9,2-2s-0.9-2-2-2s-2,0.9-2,2
	S4.2,17.7,5.3,17.7L5.3,17.7z"/>
<path fill="none" stroke="#272929" stroke-width="0.6" stroke-miterlimit="10" d="M10.3,17.7c1.1,0,2-0.9,2-2s-0.9-2-2-2s-2,0.9-2,2
	S9.2,17.7,10.3,17.7L10.3,17.7z"/>
<path fill="none" stroke="#272929" stroke-width="0.6" stroke-miterlimit="10" d="M40.1,17.3c1,0,1.8-0.8,1.8-1.8s-0.8-1.8-1.8-1.8
	c-1,0-1.8,0.8-1.8,1.8S39.2,17.3,40.1,17.3L40.1,17.3z"/>
<polyline fill="none" stroke="#272929" stroke-width="0.6" stroke-miterlimit="10" points="0.3,11.8 0.3,15.2 3.4,15.2 "/>
<line fill="none" stroke="#272929" stroke-width="0.6" stroke-miterlimit="10" x1="12.3" y1="15.3" x2="26.7" y2="15.3"/>
<path fill="none" stroke="#272929" stroke-width="0.6" stroke-miterlimit="10" d="M28.5,17.3c1,0,1.8-0.8,1.8-1.8s-0.8-1.8-1.8-1.8
	s-1.8,0.8-1.8,1.8S27.5,17.3,28.5,17.3L28.5,17.3z"/>
<polyline fill="none" stroke="#272929" stroke-width="0.6" stroke-miterlimit="10" points="45.1,11.8 45.1,15.2 42,15.2 "/>
<line fill="none" stroke="#272929" stroke-width="0.6" stroke-miterlimit="10" x1="30.3" y1="15.3" x2="38.2" y2="15.3"/>
<path fill-rule="evenodd" clip-rule="evenodd" fill="#272929" d="M5.3,16.5c0.4,0,0.8-0.3,0.8-0.8c0-0.4-0.3-0.8-0.8-0.8
	c-0.4,0-0.8,0.3-0.8,0.8C4.6,16.2,4.9,16.5,5.3,16.5L5.3,16.5z"/>
<path fill-rule="evenodd" clip-rule="evenodd" fill="#272929" d="M10.3,16.5c0.4,0,0.8-0.3,0.8-0.8c0-0.4-0.3-0.8-0.8-0.8
	c-0.4,0-0.7,0.3-0.7,0.8C9.5,16.2,9.9,16.5,10.3,16.5L10.3,16.5z"/>
<path fill-rule="evenodd" clip-rule="evenodd" fill="#272929" d="M28.5,16.3c0.4,0,0.8-0.3,0.8-0.8c0-0.4-0.3-0.7-0.8-0.7
	s-0.8,0.3-0.8,0.7C27.7,16,28.1,16.3,28.5,16.3L28.5,16.3z"/>
<path fill-rule="evenodd" clip-rule="evenodd" fill="#272929" d="M40.1,16.3c0.4,0,0.7-0.3,0.7-0.8c0-0.4-0.3-0.7-0.7-0.7
	s-0.8,0.3-0.8,0.7C39.4,16,39.7,16.3,40.1,16.3L40.1,16.3z"/>
<line fill="none" stroke="#272929" stroke-width="0.6" stroke-linecap="round" stroke-miterlimit="10" x1="38.1" y1="9.2" x2="44.9" y2="9.2"/>
<line fill="none" stroke="#272929" stroke-width="0.6" stroke-linecap="round" stroke-miterlimit="10" x1="38.2" y1="4.9" x2="43.6" y2="4.9"/>
<line fill="none" stroke="#272929" stroke-width="0.6" stroke-linecap="round" stroke-miterlimit="10" x1="38.1" y1="4.9" x2="38.1" y2="9.2"/>
<line fill="none" stroke="#272929" stroke-width="0.6" stroke-linecap="round" stroke-miterlimit="10" x1="39.7" y1="4.9" x2="39.7" y2="9.2"/>
<line fill="none" stroke="#272929" stroke-width="0.6" stroke-miterlimit="10" x1="6.7" y1="12.1" x2="36.1" y2="12.1"/>
</svg>
