<svg xmlns="http://www.w3.org/2000/svg" viewBox="0 0 396.4 2.5"><path fill="none" stroke="#1E1E1E" stroke-width=".709" stroke-linecap="round" stroke-miterlimit="10" d="M20.1.4c-2.2 0-4.4 1.8-6.6 1.8C11.3 2.2 9.1.4 6.9.4 4.7.4 2.5 2.2.3 2.2M39.9 2.1c-2.2 0-4.4-1.8-6.6-1.8S29 2.1 26.7 2.1c-2.2 0-4.4-1.8-6.6-1.8M59.7.4c-2.2 0-4.4 1.8-6.6 1.8-2.2 0-4.4-1.8-6.6-1.8-2.2 0-4.4 1.8-6.6 1.8M79.5 2.1c-2.2 0-4.4-1.8-6.6-1.8s-4.4 1.8-6.6 1.8c-2.2 0-4.4-1.8-6.6-1.8M99.3.4c-2.2 0-4.4 1.8-6.6 1.8-2.2 0-4.4-1.8-6.6-1.8-2.2 0-4.4 1.8-6.6 1.8M119.1 2.1c-2.2 0-4.4-1.8-6.6-1.8s-4.4 1.8-6.6 1.8c-2.2 0-4.4-1.8-6.6-1.8M138.9.4c-2.2 0-4.4 1.8-6.6 1.8-2.2 0-4.4-1.8-6.6-1.8-2.2 0-4.4 1.8-6.6 1.8M158.6 2.1c-2.2 0-4.4-1.8-6.6-1.8s-4.4 1.8-6.6 1.8c-2.2 0-4.4-1.8-6.6-1.8M178.4.4c-2.2 0-4.4 1.8-6.6 1.8-2.2 0-4.4-1.8-6.6-1.8-2.2 0-4.4 1.8-6.6 1.8M198.2 2.1c-2.2 0-4.4-1.8-6.6-1.8s-4.4 1.8-6.6 1.8c-2.2 0-4.4-1.8-6.6-1.8M218 .4c-2.2 0-4.4 1.8-6.6 1.8-2.2 0-4.4-1.8-6.6-1.8-2.2 0-4.4 1.8-6.6 1.8M237.8 2.1c-2.2 0-4.4-1.8-6.6-1.8s-4.4 1.8-6.6 1.8c-2.2 0-4.4-1.8-6.6-1.8M257.6.4c-2.2 0-4.4 1.8-6.6 1.8-2.2 0-4.4-1.8-6.6-1.8-2.2 0-4.4 1.8-6.6 1.8M277.4 2.1c-2.2 0-4.4-1.8-6.6-1.8s-4.4 1.8-6.6 1.8c-2.2 0-4.4-1.8-6.6-1.8M297.1.4c-2.2 0-4.4 1.8-6.6 1.8-2.2 0-4.4-1.8-6.6-1.8-2.2 0-4.4 1.8-6.6 1.8M316.9 2.1c-2.2 0-4.4-1.8-6.6-1.8s-4.4 1.8-6.6 1.8c-2.2 0-4.4-1.8-6.6-1.8M336.7.4c-2.2 0-4.4 1.8-6.6 1.8-2.2 0-4.4-1.8-6.6-1.8-2.2 0-4.4 1.8-6.6 1.8M356.5 2.1c-2.2 0-4.4-1.8-6.6-1.8s-4.4 1.8-6.6 1.8c-2.2 0-4.4-1.8-6.6-1.8M376.3.4c-2.2 0-4.4 1.8-6.6 1.8-2.2 0-4.4-1.8-6.6-1.8-2.2 0-4.4 1.8-6.6 1.8M396.1 2.1c-2.2 0-4.4-1.8-6.6-1.8s-4.4 1.8-6.6 1.8c-2.2 0-4.4-1.8-6.6-1.8"/></svg>