<?xml version="1.0" encoding="utf-8"?>
<!-- Generator: Adobe Illustrator 19.1.0, SVG Export Plug-In . SVG Version: 6.00 Build 0)  -->
<svg version="1.1" id="Слой_1" xmlns="http://www.w3.org/2000/svg" xmlns:xlink="http://www.w3.org/1999/xlink" x="0px" y="0px"
	 viewBox="0 0 250.7 59.8" enable-background="new 0 0 250.7 59.8" xml:space="preserve">
<rect x="23.1" y="19.2" fill-rule="evenodd" clip-rule="evenodd" fill="#9D938F" width="1.5" height="12.2"/>
<polygon fill-rule="evenodd" clip-rule="evenodd" fill="#9D938F" stroke="#1E1E1E" stroke-width="0.5669" stroke-miterlimit="10" points="
	36.6,19.2 36.6,27.8 42.2,26.7 42.2,19.2 "/>
<polygon fill-rule="evenodd" clip-rule="evenodd" fill="#C5C4C6" points="17.9,43.5 17.9,52.9 27.3,52.9 27.3,51.3 29.9,51.3 
	30.6,48.1 32.8,45.6 35.4,44.5 37.7,44.3 39.9,44.9 42.1,46.5 43.2,48.1 43.8,49.7 44,51.3 46.7,51.3 46.7,52.9 71.5,53.1 
	71.5,50.7 71.5,50.1 77.1,50.1 78.7,47.9 81.1,47.4 83.3,47.8 84.4,48.7 85.1,50.2 95.3,50.2 96,48.1 97.9,45.8 100.4,44.5 
	102.3,44.3 104.8,44.7 106.6,45.7 108.3,47.6 109.3,50.4 114.9,50.4 114.9,45.7 149.4,45.7 147.9,48.9 147.8,49.6 199.7,49.6 
	198.7,46.8 197.9,45.6 220,45.6 220,50.4 219.9,50.1 222.8,50.1 222.9,39.9 76.9,39.9 76.9,42.5 73.8,45.1 48.4,44.6 48.4,39.8 
	34.9,39.8 32.1,40.3 29.9,41.5 27.6,43.6 "/>
<path fill-rule="evenodd" clip-rule="evenodd" fill="#FFFFFF" stroke="#1E1E1E" stroke-width="0.7087" stroke-miterlimit="10" d="
	M17.5,43.5l0-9.6c0-2.4,0.5-2.4,2.8-2.9l21.9-4.3v-7.5H18.5v-1.3c4.8-1.9,8-2.9,12.2-3.5c2.2-0.3,4.1-0.6,6.3-0.6l14.9-0.1v26H35.7
	c-3.7,0-5,0.7-8.1,3.8h-3L17.5,43.5z"/>
<path fill="none" stroke="#1E1E1E" stroke-width="0.7087" stroke-miterlimit="10" d="M17.9,43.5l0,9.4l9.4,0 M46.7,52.9l5.5,0v-8.1
	l-3.8-0.1v-4.8"/>
<path fill-rule="evenodd" clip-rule="evenodd" fill="#8F8785" stroke="#1E1E1E" stroke-width="0.7087" stroke-miterlimit="10" d="
	M36.9,58.4c3.9,0,7.1-3.2,7.1-7.1c0-3.9-3.2-7.1-7.1-7.1c-3.9,0-7.1,3.2-7.1,7.1C29.9,55.3,33,58.4,36.9,58.4L36.9,58.4z"/>
<path fill-rule="evenodd" clip-rule="evenodd" fill="#FFFFFF" stroke="#1E1E1E" stroke-width="0.7087" stroke-miterlimit="10" d="
	M36.9,55.5c2.3,0,4.2-1.9,4.2-4.2s-1.9-4.2-4.2-4.2c-2.3,0-4.2,1.9-4.2,4.2S34.6,55.5,36.9,55.5L36.9,55.5z"/>
<polyline fill="none" stroke="#1E1E1E" stroke-width="0.7087" stroke-miterlimit="10" points="20.9,19.2 19.8,31.1 19.8,31.3 "/>
<line fill="none" stroke="#1E1E1E" stroke-width="0.7087" stroke-miterlimit="10" x1="23.1" y1="19.2" x2="23.1" y2="43.5"/>
<line fill="none" stroke="#1E1E1E" stroke-width="0.7087" stroke-miterlimit="10" x1="36.6" y1="19.2" x2="36.6" y2="39.8"/>
<path fill-rule="evenodd" clip-rule="evenodd" fill="#C8C7C9" stroke="#1E1E1E" stroke-width="0.7087" stroke-miterlimit="10" d="
	M38.3,10.6l8.8-1.8c2.2-0.5,4.4,1,4.8,3.2l0,0c0.1,0.6,0.1,1.2-0.1,1.8H35.1C35.4,12.3,36.6,11,38.3,10.6L38.3,10.6z"/>
<rect x="52.2" y="44.7" fill="none" stroke="#1E1E1E" stroke-width="0.7087" stroke-miterlimit="10" width="13.7" height="8.2"/>
<path fill="none" stroke="#1E1E1E" stroke-width="0.7087" stroke-miterlimit="10" d="M27.3,53.1v-1.8 M27.3,51.3
	c0-2.7,1.1-5.1,2.8-6.8 M30.1,44.5c1.8-1.8,4.2-2.8,6.8-2.8 M37,41.7c2.7,0,5.1,1.1,6.8,2.8 M43.8,44.5c1.8,1.8,2.9,4.2,2.9,6.8
	 M46.7,51.3v1.8"/>
<line fill="none" stroke="#1E1E1E" stroke-width="0.7087" stroke-miterlimit="10" x1="24.8" y1="19.2" x2="24.8" y2="30.1"/>
<rect x="59.8" y="0.4" fill-rule="evenodd" clip-rule="evenodd" fill="#E3AA8D" stroke="#1E1E1E" stroke-width="0.7087" stroke-miterlimit="10" width="163.1" height="39.5"/>
<line fill="none" stroke="#1E1E1E" stroke-width="0.7087" stroke-miterlimit="10" x1="76.9" y1="39.9" x2="76.9" y2="42.5"/>
<line fill="none" stroke="#1E1E1E" stroke-width="0.7087" stroke-miterlimit="10" x1="85.2" y1="39.9" x2="85.2" y2="42.3"/>
<rect x="220" y="39.9" fill="none" stroke="#1E1E1E" stroke-width="0.7087" stroke-miterlimit="10" width="2.8" height="10.5"/>
<line fill="none" stroke="#1E1E1E" stroke-width="0.7087" stroke-miterlimit="10" x1="110.2" y1="45.7" x2="149.4" y2="45.7"/>
<line fill="none" stroke="#1E1E1E" stroke-width="0.7087" stroke-miterlimit="10" x1="197.9" y1="45.6" x2="220" y2="45.6"/>
<line fill="none" stroke="#1E1E1E" stroke-width="0.7087" stroke-miterlimit="10" x1="65.9" y1="44.7" x2="74" y2="44.7"/>
<line fill="none" stroke="#1E1E1E" stroke-width="0.7087" stroke-miterlimit="10" x1="65.9" y1="52.8" x2="71.5" y2="52.8"/>
<path fill="none" stroke="#1E1E1E" stroke-width="0.7087" stroke-miterlimit="10" d="M36.9,53.3c1,0,1.9-0.9,1.9-1.9
	c0-1-0.9-1.9-1.9-1.9c-1.1,0-1.9,0.9-1.9,1.9C35,52.4,35.9,53.3,36.9,53.3L36.9,53.3z"/>
<path fill-rule="evenodd" clip-rule="evenodd" fill="#8F8785" stroke="#1E1E1E" stroke-width="0.7087" stroke-miterlimit="10" d="
	M81.1,58.4c3.9,0,7.1-3.2,7.1-7.1c0-3.9-3.2-7.1-7.1-7.1c-3.9,0-7.1,3.2-7.1,7.1C74,55.3,77.2,58.4,81.1,58.4L81.1,58.4z"/>
<path fill-rule="evenodd" clip-rule="evenodd" fill="#FFFFFF" stroke="#1E1E1E" stroke-width="0.7087" stroke-miterlimit="10" d="
	M81.1,55.5c2.3,0,4.2-1.9,4.2-4.2s-1.9-4.2-4.2-4.2c-2.3,0-4.2,1.9-4.2,4.2S78.8,55.5,81.1,55.5L81.1,55.5z"/>
<path fill="none" stroke="#1E1E1E" stroke-width="0.7087" stroke-miterlimit="10" d="M71.5,53.1v-1.8 M71.5,51.3
	c0-2.7,1.1-5.1,2.8-6.8 M74.3,44.5c1.8-1.8,4.2-2.8,6.8-2.8 M81.1,41.7c2.7,0,5.1,1.1,6.8,2.8 M88,44.5c1.8,1.8,2.8,4.2,2.8,6.8
	 M90.8,51.3v1.8"/>
<path fill="none" stroke="#1E1E1E" stroke-width="0.7087" stroke-miterlimit="10" d="M81.1,53.3c1,0,1.9-0.9,1.9-1.9
	c0-1-0.9-1.9-1.9-1.9c-1.1,0-1.9,0.9-1.9,1.9C79.2,52.4,80,53.3,81.1,53.3L81.1,53.3z"/>
<path fill-rule="evenodd" clip-rule="evenodd" fill="#8F8785" stroke="#1E1E1E" stroke-width="0.7087" stroke-miterlimit="10" d="
	M102.3,58.4c3.9,0,7.1-3.2,7.1-7.1c0-3.9-3.2-7.1-7.1-7.1c-3.9,0-7.1,3.2-7.1,7.1C95.3,55.3,98.4,58.4,102.3,58.4L102.3,58.4z"/>
<path fill-rule="evenodd" clip-rule="evenodd" fill="#FFFFFF" stroke="#1E1E1E" stroke-width="0.7087" stroke-miterlimit="10" d="
	M102.3,55.5c2.3,0,4.2-1.9,4.2-4.2s-1.9-4.2-4.2-4.2c-2.3,0-4.2,1.9-4.2,4.2S100,55.5,102.3,55.5L102.3,55.5z"/>
<path fill="none" stroke="#1E1E1E" stroke-width="0.7087" stroke-miterlimit="10" d="M92.7,53.1v-1.8 M92.7,51.3
	c0-2.7,1.1-5.1,2.9-6.8 M95.5,44.5c1.8-1.8,4.2-2.8,6.8-2.8 M102.4,41.7c2.7,0,5.1,1.1,6.8,2.8 M109.2,44.5c1.8,1.8,2.8,4.2,2.8,6.8
	 M112,51.3v1.8"/>
<path fill="none" stroke="#1E1E1E" stroke-width="0.7087" stroke-miterlimit="10" d="M102.3,53.3c1.1,0,1.9-0.9,1.9-1.9
	c0-1-0.9-1.9-1.9-1.9c-1,0-1.9,0.9-1.9,1.9C100.4,52.4,101.3,53.3,102.3,53.3L102.3,53.3z"/>
<line fill="none" stroke="#1E1E1E" stroke-width="0.7087" stroke-miterlimit="10" x1="144.9" y1="39.9" x2="144.9" y2="45.7"/>
<path fill-rule="evenodd" clip-rule="evenodd" fill="#8F8785" stroke="#1E1E1E" stroke-width="0.7087" stroke-miterlimit="10" d="
	M157.2,58.4c3.9,0,7.1-3.2,7.1-7.1c0-3.9-3.2-7.1-7.1-7.1c-3.9,0-7.1,3.2-7.1,7.1C150.2,55.3,153.4,58.4,157.2,58.4L157.2,58.4z"/>
<path fill-rule="evenodd" clip-rule="evenodd" fill="#FFFFFF" stroke="#1E1E1E" stroke-width="0.7087" stroke-miterlimit="10" d="
	M157.2,55.5c2.3,0,4.2-1.9,4.2-4.2s-1.9-4.2-4.2-4.2c-2.3,0-4.2,1.9-4.2,4.2S154.9,55.5,157.2,55.5L157.2,55.5z"/>
<path fill="none" stroke="#1E1E1E" stroke-width="0.7087" stroke-miterlimit="10" d="M147.6,53.1v-1.8 M147.6,51.3
	c0-2.7,1.1-5.1,2.8-6.8 M150.5,44.5c1.8-1.8,4.2-2.8,6.8-2.8"/>
<path fill="none" stroke="#1E1E1E" stroke-width="0.7087" stroke-miterlimit="10" d="M157.2,53.3c1.1,0,1.9-0.9,1.9-1.9
	c0-1-0.9-1.9-1.9-1.9c-1,0-1.9,0.9-1.9,1.9C155.3,52.4,156.2,53.3,157.2,53.3L157.2,53.3z"/>
<path fill-rule="evenodd" clip-rule="evenodd" fill="#8F8785" stroke="#1E1E1E" stroke-width="0.7087" stroke-miterlimit="10" d="
	M190.2,58.4c3.9,0,7.1-3.2,7.1-7.1c0-3.9-3.2-7.1-7.1-7.1c-3.9,0-7.1,3.2-7.1,7.1C183.1,55.3,186.3,58.4,190.2,58.4L190.2,58.4z"/>
<path fill-rule="evenodd" clip-rule="evenodd" fill="#FFFFFF" stroke="#1E1E1E" stroke-width="0.7087" stroke-miterlimit="10" d="
	M190.2,55.5c2.3,0,4.2-1.9,4.2-4.2s-1.9-4.2-4.2-4.2c-2.3,0-4.2,1.9-4.2,4.2S187.9,55.5,190.2,55.5L190.2,55.5z"/>
<path fill="none" stroke="#1E1E1E" stroke-width="0.7087" stroke-miterlimit="10" d="M199.8,53.1v-1.8 M199.8,51.3
	c0-2.7-1.1-5.1-2.8-6.8 M197,44.5c-1.8-1.8-4.2-2.8-6.8-2.8"/>
<path fill="none" stroke="#1E1E1E" stroke-width="0.7087" stroke-miterlimit="10" d="M190.2,53.3c1,0,1.9-0.9,1.9-1.9
	c0-1-0.9-1.9-1.9-1.9c-1.1,0-1.9,0.9-1.9,1.9C188.3,52.4,189.1,53.3,190.2,53.3L190.2,53.3z"/>
<path fill-rule="evenodd" clip-rule="evenodd" fill="#8F8785" stroke="#1E1E1E" stroke-width="0.7087" stroke-miterlimit="10" d="
	M173.8,58.4c3.9,0,7.1-3.2,7.1-7.1c0-3.9-3.2-7.1-7.1-7.1c-3.9,0-7.1,3.2-7.1,7.1C166.7,55.3,169.9,58.4,173.8,58.4L173.8,58.4z"/>
<path fill-rule="evenodd" clip-rule="evenodd" fill="#FFFFFF" stroke="#1E1E1E" stroke-width="0.7087" stroke-miterlimit="10" d="
	M173.8,55.5c2.3,0,4.2-1.9,4.2-4.2s-1.9-4.2-4.2-4.2c-2.3,0-4.2,1.9-4.2,4.2S171.5,55.5,173.8,55.5L173.8,55.5z"/>
<path fill-rule="evenodd" clip-rule="evenodd" fill="#FFFFFF" stroke="#1E1E1E" stroke-width="0.7087" stroke-miterlimit="10" d="
	M173.8,53.3c1,0,1.9-0.9,1.9-1.9c0-1-0.9-1.9-1.9-1.9c-1.1,0-1.9,0.9-1.9,1.9C171.9,52.4,172.8,53.3,173.8,53.3L173.8,53.3z"/>
<line fill="none" stroke="#1E1E1E" stroke-width="0.7087" stroke-miterlimit="10" x1="157.3" y1="41.7" x2="190.2" y2="41.7"/>
<line fill="none" stroke="#1E1E1E" stroke-width="0.7087" stroke-miterlimit="10" x1="203.6" y1="39.9" x2="203.6" y2="45.6"/>
<line fill="none" stroke="#1E1E1E" stroke-width="0.7087" stroke-miterlimit="10" x1="114.3" y1="39.9" x2="114.3" y2="45.7"/>
<line fill="none" stroke="#1E1E1E" stroke-width="0.7087" stroke-miterlimit="10" x1="38.4" y1="19.2" x2="38.4" y2="27.4"/>
<line fill="none" stroke="#1E1E1E" stroke-width="0.7087" stroke-linecap="round" stroke-miterlimit="10" x1="32.5" y1="31.8" x2="34.3" y2="31.8"/>
<rect x="51.9" y="13.8" fill-rule="evenodd" clip-rule="evenodd" fill="#C8C7C9" stroke="#1E1E1E" stroke-width="0.7087" stroke-miterlimit="10" width="2.2" height="22.5"/>
<line fill="none" stroke="#1E1E1E" stroke-width="0.7087" stroke-linecap="round" stroke-miterlimit="10" x1="0.4" y1="59.5" x2="250.3" y2="59.2"/>
<rect x="63.2" y="3.4" fill-rule="evenodd" clip-rule="evenodd" fill="#E3AA8D" stroke="#1E1E1E" stroke-width="0.7087" stroke-miterlimit="10" width="156.2" height="33.5"/>
<rect x="63.2" y="26.9" fill-rule="evenodd" clip-rule="evenodd" fill="#E3AA8D" stroke="#1E1E1E" stroke-width="0.7087" stroke-miterlimit="10" width="156.2" height="10"/>
</svg>
