<svg xmlns="http://www.w3.org/2000/svg" viewBox="0 0 291.1 257.7"><path fill="none" stroke="#272624" stroke-width=".5" stroke-miterlimit="22.926" d="M118.6 43.4l-4.2-6.4"/><path fill-rule="evenodd" clip-rule="evenodd" fill="#FFF" stroke="#52AC62" stroke-width=".5" stroke-miterlimit="22.926" d="M64.6 134.7c4.1 0 7.4-3.3 7.4-7.4 0-4.1-3.3-7.4-7.4-7.4-4.1 0-7.4 3.3-7.4 7.4 0 4.1 3.3 7.4 7.4 7.4zM9.3 15.1c4.1 0 7.4-3.3 7.4-7.4S13.4.3 9.3.3C5.2.3 1.9 3.6 1.9 7.7s3.3 7.4 7.4 7.4zM7.7 257.5c4.1 0 7.4-3.3 7.4-7.4s-3.3-7.4-7.4-7.4S.3 246 .3 250s3.3 7.5 7.4 7.5zm275.8-122.4c4.1 0 7.4-3.3 7.4-7.4 0-4.1-3.3-7.4-7.4-7.4-4.1 0-7.4 3.3-7.4 7.4 0 4 3.3 7.4 7.4 7.4z"/><path fill-rule="evenodd" clip-rule="evenodd" fill="#FFF" stroke="#52AC62" stroke-width=".5" stroke-miterlimit="22.926" d="M9.3 9.9c1.3 0 2.3-1 2.3-2.3s-1-2.3-2.3-2.3S7 6.4 7 7.7s1 2.2 2.3 2.2zm55.3 119.7c1.3 0 2.3-1 2.3-2.3 0-1.3-1-2.3-2.3-2.3-1.3 0-2.3 1-2.3 2.3 0 1.3 1.1 2.3 2.3 2.3zm218.9.3c1.3 0 2.3-1 2.3-2.3s-1-2.3-2.3-2.3c-1.3 0-2.3 1-2.3 2.3s1 2.3 2.3 2.3zM7.7 252.3c1.3 0 2.3-1 2.3-2.3 0-1.3-1-2.3-2.3-2.3s-2.3 1-2.3 2.3c0 1.3 1 2.3 2.3 2.3z"/><path fill-rule="evenodd" clip-rule="evenodd" fill="#FFF" stroke="#272624" stroke-width=".5" stroke-linecap="round" stroke-miterlimit="10" d="M127.3 200.2c-.4.2-.9 0-1.1-.4-.2-.4 0-.9.4-1.1.4-.2.9 0 1.1.4.2.4 0 .9-.4 1.1z"/><circle fill-rule="evenodd" clip-rule="evenodd" fill="#FFF" stroke="#272624" stroke-width=".5" stroke-miterlimit="22.926" cx="109.9" cy="212.3" r="1.8"/><circle fill-rule="evenodd" clip-rule="evenodd" fill="#FFF" stroke="#272624" stroke-width=".5" stroke-miterlimit="22.926" cx="103.5" cy="215.1" r="1.8"/><path fill-rule="evenodd" clip-rule="evenodd" fill="#FFF" stroke="#272624" stroke-width=".5" stroke-miterlimit="22.926" d="M98.7 212l13.1-5.8.8-.3 20.3-9 .7-.3 13.2-5.8.6 1.4-13.1 5.9-.6 1.7-9.2 4-1.1.6-9.2 4-1.7-.7-13.1 5.8zm-4.312-9.706l48.01-21.242 4.29 9.694-48.01 21.242z"/><path clip-rule="evenodd" fill="none" stroke="#272624" stroke-width=".5" stroke-miterlimit="22.926" d="M140.6 183.6l2.9 6.7m-6.2-5.3c1 2.2 2 4.5 3 6.7m-6.3-5.2c1 2.2 2 4.5 3 6.7m-6.3-5.3c1 2.2 2 4.5 3 6.7m-6.3-5.2c1 2.2 2 4.5 3 6.7m-6.3-5.3c1 2.2 2 4.5 3 6.7m-6.2-5.2c1 2.2 2 4.5 3 6.7m-6.3-5.3c1 2.2 2 4.5 3 6.7m-6.3-5.2c1 2.2 2 4.5 3 6.7m-6.3-5.3c1 2.2 2 4.5 3 6.7m-6.3-5.2c1 2.2 2 4.5 3 6.7m-6.3-5.3c1 2.2 2 4.5 3 6.7m-6.2-5.2c1 2.2 2 4.5 3 6.7m-6.3-5.2l2.9 6.6"/><path clip-rule="evenodd" fill="none" stroke="#272624" stroke-width=".5" stroke-linecap="round" stroke-miterlimit="22.926" d="M109.9 212.3l-6.4 2.8"/><circle fill-rule="evenodd" clip-rule="evenodd" fill="#FFF" stroke="#272624" stroke-width=".5" stroke-miterlimit="22.926" cx="145.9" cy="196.4" r="1.8"/><circle fill-rule="evenodd" clip-rule="evenodd" fill="#FFF" stroke="#272624" stroke-width=".5" stroke-miterlimit="22.926" cx="139.5" cy="199.2" r="1.8"/><path clip-rule="evenodd" fill="none" stroke="#272624" stroke-width=".5" stroke-linecap="round" stroke-miterlimit="22.926" d="M145.9 196.4l-6.4 2.8"/><path clip-rule="evenodd" fill="none" stroke="#272624" stroke-width=".5" stroke-miterlimit="22.926" d="M147.1 191.5l2.2-1"/><path clip-rule="evenodd" fill="none" stroke="#272624" stroke-width=".5" stroke-linecap="round" stroke-miterlimit="22.926" d="M149.1 189.4l.9 2"/><path clip-rule="evenodd" fill="none" stroke="#272624" stroke-width=".5" stroke-miterlimit="22.926" d="M99 212.8l-2.2 1"/><path clip-rule="evenodd" fill="none" stroke="#272624" stroke-width=".5" stroke-linecap="round" stroke-miterlimit="22.926" d="M96.1 212.8l.9 2"/><circle fill-rule="evenodd" clip-rule="evenodd" fill="#FFF" stroke="#272624" stroke-width=".5" stroke-miterlimit="22.926" cx="162.9" cy="188.8" r="1.8"/><circle fill-rule="evenodd" clip-rule="evenodd" fill="#FFF" stroke="#272624" stroke-width=".5" stroke-miterlimit="22.926" cx="156.6" cy="191.6" r="1.8"/><path fill-rule="evenodd" clip-rule="evenodd" fill="#FFF" stroke="#272624" stroke-width=".5" stroke-miterlimit="22.926" d="M151.8 188.6l13.1-5.9.7-.3 20.4-9 .7-.3 13.2-5.8.6 1.5-13.1 5.8-.6 1.7-9.2 4.1-1.2.5-9.1 4-1.7-.7-13.2 5.8z"/><path clip-rule="evenodd" fill="none" stroke="#272624" stroke-width=".5" stroke-linecap="round" stroke-miterlimit="22.926" d="M162.9 188.8l-6.3 2.8"/><circle fill-rule="evenodd" clip-rule="evenodd" fill="#FFF" stroke="#272624" stroke-width=".5" stroke-miterlimit="22.926" cx="199" cy="172.9" r="1.8"/><circle fill-rule="evenodd" clip-rule="evenodd" fill="#FFF" stroke="#272624" stroke-width=".5" stroke-miterlimit="22.926" cx="192.6" cy="175.7" r="1.8"/><path clip-rule="evenodd" fill="none" stroke="#272624" stroke-width=".5" stroke-linecap="round" stroke-miterlimit="22.926" d="M199 172.9l-6.4 2.8"/><path clip-rule="evenodd" fill="none" stroke="#272624" stroke-width=".5" stroke-miterlimit="22.926" d="M200.2 168l2.2-1m-50.3 22.3l-2.2 1"/><path fill-rule="evenodd" clip-rule="evenodd" fill="#FFF" stroke="#272624" stroke-width=".5" stroke-miterlimit="22.926" d="M191.7 158.8L152 176.4c-2.8 1.2-4 4.5-2.8 7.3 1.2 2.8 4.5 4 7.3 2.8l39.7-17.6c2.8-1.2 4-4.5 2.8-7.3-1.2-2.7-4.5-4-7.3-2.8z"/><path clip-rule="evenodd" fill="none" stroke="#272624" stroke-width=".5" stroke-miterlimit="22.926" d="M189.3 159.9l4.4 10.1m-40 5.6l4.5 10.1"/><path fill-rule="evenodd" clip-rule="evenodd" fill="#FFF" stroke="#272624" stroke-width=".5" stroke-miterlimit="22.926" d="M167.527 168.387l7.5-3.318.403.914-7.498 3.317z"/><path fill-rule="evenodd" clip-rule="evenodd" fill="#FFF" stroke="#272624" stroke-width=".5" stroke-linecap="round" stroke-miterlimit="10" d="M112.3 56.2L198 94.6c-.8-3.4 5.2-4.8 8-6.1l-18-8-.9.3-1.6.1-1.9-.3-40.2-17.9-.8-.5-.7-1.1-.2-.8L115 48.4c-.9 2.6-1.8 5.1-2.7 7.8zm18.2-1l2.4-5.4 5.2-2.5 4.6 2-4.2 9.4-7.7-3.4-.3-.1z"/><path fill-rule="evenodd" clip-rule="evenodd" fill="#FFF" stroke="#272624" stroke-width=".5" stroke-linecap="round" stroke-miterlimit="10" d="M126.8 49.7l6.3-7.7 2.9 1.2-2.5 5.4L132 52zm17.15.19l-5.845-2.604 1.017-2.284 5.846 2.603zm-.55-8.29l.6.2-2 4.4-1.6-.7z"/><path fill-rule="evenodd" clip-rule="evenodd" fill="#FFF" stroke="#272624" stroke-width=".5" stroke-linecap="round" stroke-miterlimit="10" d="M138.537 58.762l-14.616-6.51 1.71-3.836 14.616 6.51z"/><path clip-rule="evenodd" fill="none" stroke="#272624" stroke-width=".5" stroke-linecap="round" stroke-miterlimit="10" d="M134.6 45.6l-3.3-1.4m1.7 5.1l-4.3-1.9m15.4-6.5l3.2-7.1"/><path fill-rule="evenodd" clip-rule="evenodd" fill="#FFF" stroke="#272624" stroke-width=".5" stroke-linecap="round" stroke-miterlimit="10" d="M146.9 34.8c.3.1.6 0 .8-.3.1-.3 0-.6-.3-.8-.3-.1-.6 0-.8.3-.1.3 0 .6.3.8zm46.334 48.027l-4.568-2.034.53-1.188 4.567 2.034zm3.806 1.655l-3.746-1.668.53-1.188 3.744 1.668z"/><path clip-rule="evenodd" fill="none" stroke="#272624" stroke-width=".5" stroke-linecap="round" stroke-miterlimit="10" d="M190.1 84.2l-1.4-.6m6.2 2.7l-1.4-.6"/><path fill-rule="evenodd" clip-rule="evenodd" fill="#FFF" stroke="#272624" stroke-width=".5" stroke-linecap="round" stroke-miterlimit="10" d="M118.835 50.042l-1.644-.733 1.587-3.563 1.644.732z"/><path fill-rule="evenodd" clip-rule="evenodd" fill="#FFF" stroke="#272624" stroke-width=".5" stroke-linecap="round" stroke-miterlimit="10" d="M120.657 47.19l-3.106-1.383 1.1-2.467 3.106 1.384z"/><path clip-rule="evenodd" fill="none" stroke="#272624" stroke-width=".5" stroke-linecap="round" stroke-miterlimit="10" d="M112.7 40.7l1.5-3.2"/><path fill-rule="evenodd" clip-rule="evenodd" fill="#FFF" stroke="#272624" stroke-width=".5" stroke-linecap="round" stroke-miterlimit="10" d="M114.6 36.4c.3.2.5.5.4.8-.1.3-.5.4-.8.3h-.1c-.3-.1-.4-.5-.3-.8.2-.3.5-.4.8-.3zm-1.308 6.137l-2.284-1.016.57-1.28 2.284 1.02z"/><path clip-rule="evenodd" fill="none" stroke="#272624" stroke-width=".5" stroke-linecap="round" stroke-miterlimit="10" d="M118.2 52.2l-1.3-.6m4.7 2.1l-1.4-.6"/><path fill-rule="evenodd" clip-rule="evenodd" fill="#FFF" stroke="#272624" stroke-width=".5" stroke-linecap="round" stroke-miterlimit="10" d="M149.22 65.178l-5.847-2.603 1.14-2.558 5.846 2.604z"/><path fill-rule="evenodd" clip-rule="evenodd" fill="#FFF" stroke="#272624" stroke-width=".5" stroke-linecap="round" stroke-miterlimit="10" d="M155.026 67.773l-5.847-2.603 1.14-2.558 5.845 2.604zm5.868 2.618l-5.847-2.6 1.14-2.56 5.846 2.604zm7.004.003l-5.847-2.602 1.14-2.557 5.847 2.603z"/><path fill-rule="evenodd" clip-rule="evenodd" fill="#FFF" stroke="#272624" stroke-width=".5" stroke-miterlimit="22.926" d="M172.645 75.55l-5.847-2.604 2.278-5.116 5.847 2.604z"/><path fill-rule="evenodd" clip-rule="evenodd" fill="#FFF" stroke="#272624" stroke-width=".5" stroke-miterlimit="22.926" d="M178.453 78.223l-5.846-2.603 1.14-2.558 5.845 2.603zM179.6 75.7l5.8 2.6-1 2.3-.9-.2-5-2.2zm-29.318-13.053l-5.846-2.603 1.14-2.557 5.845 2.603zm5.945 2.53l-5.846-2.604 1.14-2.558 5.846 2.604z"/><path fill-rule="evenodd" clip-rule="evenodd" fill="#FFF" stroke="#272624" stroke-width=".5" stroke-miterlimit="22.926" d="M162.046 67.81l-5.847-2.605 2.278-5.115 5.846 2.603zm4.656 5.175l-5.846-2.603 1.138-2.558 5.847 2.603zm12.942 2.65l-5.846-2.603 1.14-2.558 5.845 2.604zM151.46 60.073l-5.846-2.603 1.14-2.56 5.845 2.604zm23.422 10.454l-5.846-2.603 1.14-2.558 5.845 2.604z"/><path fill-rule="evenodd" clip-rule="evenodd" fill="#FFF" stroke="#272624" stroke-width=".5" stroke-miterlimit="22.926" d="M180.686 73.135l-5.846-2.603 1.138-2.558 5.847 2.603zM154.382 61.33l-2.923-1.3 1.137-2.56 2.924 1.302zm28.185 15.69l-2.923-1.303 1.14-2.557 2.922 1.3z"/><path clip-rule="evenodd" fill="none" stroke="#272624" stroke-width=".5" stroke-linecap="round" stroke-miterlimit="10" d="M142.6 40.6l3.8 1.7"/><path fill-rule="evenodd" clip-rule="evenodd" fill="#FFF" stroke="#272624" stroke-width=".5" stroke-miterlimit="22.926" d="M42.3 164.7l4.1 2.3v-.1l2.5-4.9-.2-.8h-.1l-3.7-1.3z"/><path fill-rule="evenodd" clip-rule="evenodd" fill="#FFF" stroke="#272624" stroke-width=".5" stroke-miterlimit="22.926" d="M43.3 164l2.3 1.1-1 1.3-1.9-.9zm7.7-2.4l3.4 1.6-1.1 2.5-.3.7-1.8 3.8-.3.7-3 6.6-.9 1.6.4-.9-1 .4-.8.1-.4.6-.2.6.1.5.3.3-1.3 2.7.6.5-.6-.4-1.8 3.7-8.7 18.6-.1 1.2-2.1 4.4-2 4.2-.5.5-3.3 7-.4.8-2.7-1.3 21.2-45.3 3.5-7.6z"/><path fill-rule="evenodd" clip-rule="evenodd" fill="#FFF" stroke="#272624" stroke-width=".5" stroke-miterlimit="22.926" d="M51 161.5l-1.5-.7c-.6-.3-.7-.2-1.1.4l-3.8 5.2-2-.9 2.9-6.2-.3-.2c-1.1 1-1.7 1.7-2.4 2.8-.4.5-.6 1-.9 1.6l-1.8 3.9 6.8 3.2 2-4.2 2.1-4.9z"/><circle fill-rule="evenodd" clip-rule="evenodd" fill="#FFF" stroke="#272624" stroke-width=".5" stroke-miterlimit="22.926" cx="51.7" cy="168" r="2"/><path clip-rule="evenodd" fill="none" stroke="#272624" stroke-width=".5" stroke-miterlimit="22.926" d="M45.3 159.9l3.2 1.2h.1m-5.3 2.9l2.3 1.1"/><path fill-rule="evenodd" clip-rule="evenodd" fill="#FFF" stroke="#272624" stroke-width=".5" stroke-miterlimit="22.926" d="M40.9 163.4l-1.5 2.1c-.4.5-.3 1.3.2 1.6.1.1.3.2.5.2l2-4.4c-.4 0-.9.1-1.2.5zm-28.666 54.392l23.31-49.82 10.325 4.833-23.31 49.82z"/><circle fill-rule="evenodd" clip-rule="evenodd" fill="#FFF" stroke="#272624" stroke-width=".5" stroke-miterlimit="22.926" cx="44.3" cy="183.9" r="2"/><circle fill-rule="evenodd" clip-rule="evenodd" fill="#FFF" stroke="#272624" stroke-width=".5" stroke-miterlimit="22.926" cx="46.3" cy="179.7" r="2"/><circle fill-rule="evenodd" clip-rule="evenodd" fill="#FFF" stroke="#272624" stroke-width=".5" stroke-miterlimit="22.926" cx="44.2" cy="183.9" r=".5"/><path clip-rule="evenodd" fill="none" stroke="#272624" stroke-width=".5" stroke-miterlimit="22.926" d="M42.2 170.8l-23 49.2"/><circle fill-rule="evenodd" clip-rule="evenodd" fill="#FFF" stroke="#272624" stroke-width=".5" stroke-miterlimit="22.926" cx="33.5" cy="207" r="2"/><circle fill-rule="evenodd" clip-rule="evenodd" fill="#FFF" stroke="#272624" stroke-width=".5" stroke-miterlimit="22.926" cx="29.4" cy="215.6" r="2"/><circle fill-rule="evenodd" clip-rule="evenodd" fill="#FFF" stroke="#272624" stroke-width=".5" stroke-miterlimit="22.926" cx="31.4" cy="211.4" r="2"/><path clip-rule="evenodd" fill="none" stroke="#272624" stroke-width=".5" stroke-linecap="round" stroke-miterlimit="22.926" d="M202 166l.9 2.1"/><path fill-rule="evenodd" clip-rule="evenodd" fill="#73B679" d="M205.4 127.7l-60.8-27.2-60.8-27.1 12.9 27.1 12.9 27.2-12.9 27.1-12.9 27.1 60.8-27.1z"/><path fill-rule="evenodd" clip-rule="evenodd" fill="#FFF" stroke="#272624" stroke-width=".5" stroke-miterlimit="22.926" d="M41.187 95.76L20.67 52.806l15.973-7.63 20.515 42.955z"/><path clip-rule="evenodd" fill="none" stroke="#272624" stroke-width=".5" stroke-miterlimit="22.926" d="M35.7 53.9l-7.4 3.5m9.2.2c-2.5 1.2-4.9 2.3-7.4 3.5m9.1.3c-2.5 1.2-4.9 2.3-7.4 3.5m9.2.2c-2.5 1.2-4.9 2.3-7.4 3.5m9.2.2c-2.5 1.2-4.9 2.3-7.4 3.5m9.2.2c-2.5 1.2-4.9 2.3-7.4 3.5m9.1.2c-2.5 1.2-4.9 2.3-7.4 3.5m9.2.2c-2.5 1.2-4.9 2.3-7.4 3.5m9.2.3c-2.5 1.2-4.9 2.3-7.4 3.5"/><path clip-rule="evenodd" fill="none" stroke="#272624" stroke-width=".5" stroke-miterlimit="22.926" d="M42.177 92.96l-18.75-39.255 12.184-5.818L54.36 87.14z"/><circle fill-rule="evenodd" clip-rule="evenodd" fill="#FFF" stroke="#272624" stroke-width=".5" stroke-miterlimit="22.926" cx="46.3" cy="179.7" r=".5"/><circle fill-rule="evenodd" clip-rule="evenodd" fill="#FFF" stroke="#272624" stroke-width=".5" stroke-miterlimit="22.926" cx="51.7" cy="168" r=".5"/><circle fill-rule="evenodd" clip-rule="evenodd" fill="#FFF" stroke="#272624" stroke-width=".5" stroke-miterlimit="22.926" cx="33.5" cy="207" r=".5"/><circle fill-rule="evenodd" clip-rule="evenodd" fill="#FFF" stroke="#272624" stroke-width=".5" stroke-miterlimit="22.926" cx="31.4" cy="211.4" r=".5"/><circle fill-rule="evenodd" clip-rule="evenodd" fill="#FFF" stroke="#272624" stroke-width=".5" stroke-miterlimit="22.926" cx="29.4" cy="215.6" r=".5"/><path stroke-dasharray="0,3.0258,0,0,0,0" d="M23 37.4l-6.3-13.7" fill="none" stroke="#52AC62" stroke-width="1.1" stroke-linecap="round" stroke-linejoin="round"/><path stroke-dasharray="0,3.1931,0,0,0,0" d="M56.7 110.2l-5.5-11.5" fill="none" stroke="#52AC62" stroke-width="1.1" stroke-linecap="round" stroke-linejoin="round"/><path stroke-dasharray="0,3.1909,0,0,0,0" d="M54.7 148.4l.2-.5 2.5-5.3" fill="none" stroke="#52AC62" stroke-width="1.1" stroke-linecap="round" stroke-linejoin="round"/><path stroke-dasharray="0,2.553,0,0,0,0" d="M15 233l2.1-4.6" fill="none" stroke="#52AC62" stroke-width="1.1" stroke-linecap="round" stroke-linejoin="round"/><path stroke-dasharray="0,2.9681,0,0,0,0" d="M83.2 216.3l-59.8 26.5" fill="none" stroke="#52AC62" stroke-width="1.1" stroke-linecap="round" stroke-linejoin="round"/><path stroke-dasharray="0,2.9608,0,0,0,0" d="M264.8 135.9l-54.1 24" fill="none" stroke="#52AC62" stroke-width="1.1" stroke-linecap="round" stroke-linejoin="round"/><path stroke-dasharray="0,2.9714,0,0,0,0" d="M214.7 97.6l51.8 22.6" fill="none" stroke="#52AC62" stroke-width="1.1" stroke-linecap="round" stroke-linejoin="round"/><path stroke-dasharray="0,2.9838,0,0,0,0" d="M26.2 14.9l76.4 33.6" fill="none" stroke="#52AC62" stroke-width="1.1" stroke-linecap="round" stroke-linejoin="round"/></svg>