<?xml version="1.0" encoding="utf-8"?>
<!-- Generator: Adobe Illustrator 19.1.0, SVG Export Plug-In . SVG Version: 6.00 Build 0)  -->
<svg version="1.1" id="Слой_1" xmlns="http://www.w3.org/2000/svg" xmlns:xlink="http://www.w3.org/1999/xlink" x="0px" y="0px"
	 viewBox="0 0 303.4 83.2" enable-background="new 0 0 303.4 83.2" xml:space="preserve">
<polygon fill-rule="evenodd" clip-rule="evenodd" fill="#DEDEE5" stroke="#1E1E1E" stroke-width="0.7087" stroke-miterlimit="10" points="
	288.3,55.5 213.6,55.5 209.6,55.5 94.1,55.5 89.8,55.5 15.1,55.5 15.1,61.1 89.8,61.1 89.8,61.2 96.3,68.1 148.4,68.1 155,68.1 
	207.1,68.1 213.6,61.2 213.6,61.1 288.3,61.1 "/>
<rect x="15.2" y="0.4" fill-rule="evenodd" clip-rule="evenodd" fill="#9BA6D5" stroke="#1E1E1E" stroke-width="0.7087" stroke-miterlimit="10" width="272.9" height="55.2"/>
<path fill-rule="evenodd" clip-rule="evenodd" fill="#9D938F" stroke="#1E1E1E" stroke-width="0.7087" stroke-miterlimit="10" d="
	M34.1,82.8c5.1,0,9.2-4.2,9.2-9.3c0-5.1-4.1-9.2-9.2-9.2c-5.1,0-9.3,4.2-9.3,9.2C24.9,78.6,29,82.8,34.1,82.8L34.1,82.8z"/>
<path fill-rule="evenodd" clip-rule="evenodd" fill="#D1D1D3" stroke="#1E1E1E" stroke-width="0.7087" stroke-miterlimit="10" d="
	M34.1,80.4c3.8,0,6.8-3.1,6.8-6.9c0-3.7-3.1-6.8-6.8-6.8s-6.8,3.1-6.8,6.8C27.3,77.3,30.4,80.4,34.1,80.4L34.1,80.4z"/>
<path fill-rule="evenodd" clip-rule="evenodd" fill="#9D938F" stroke="#1E1E1E" stroke-width="0.7087" stroke-miterlimit="10" d="
	M70.3,82.8c5.1,0,9.2-4.2,9.2-9.3c0-5.1-4.1-9.2-9.2-9.2S61,68.5,61,73.5C61,78.6,65.2,82.8,70.3,82.8L70.3,82.8z"/>
<path fill-rule="evenodd" clip-rule="evenodd" fill="#D1D1D3" stroke="#1E1E1E" stroke-width="0.7087" stroke-miterlimit="10" d="
	M70.3,80.4c3.8,0,6.8-3.1,6.8-6.9c0-3.7-3.1-6.8-6.8-6.8s-6.8,3.1-6.8,6.8C63.5,77.3,66.5,80.4,70.3,80.4L70.3,80.4z"/>
<path fill-rule="evenodd" clip-rule="evenodd" fill="#C8C7C9" stroke="#1E1E1E" stroke-width="0.7087" stroke-miterlimit="10" d="
	M49.3,68.5h2h0.9h2h11.5h13.7v3.8H67.2c-4,0-7,2.2-8.3,6.1h-4.6h-2h-0.9h-2h-4.6c-1.3-3.9-4.3-6.1-8.3-6.1H25v-3.8h12.9H49.3z"/>
<path fill-rule="evenodd" clip-rule="evenodd" fill="#FFFFFF" stroke="#1E1E1E" stroke-width="0.7087" stroke-miterlimit="10" d="
	M34.1,76.4c1.6,0,2.9-1.3,2.9-2.9c0-1.6-1.3-2.9-2.9-2.9s-2.9,1.3-2.9,2.9C31.3,75.2,32.6,76.4,34.1,76.4L34.1,76.4z"/>
<path fill-rule="evenodd" clip-rule="evenodd" fill="#FFFFFF" stroke="#1E1E1E" stroke-width="0.7087" stroke-miterlimit="10" d="
	M70.3,76.4c1.6,0,2.9-1.3,2.9-2.9c0-1.6-1.3-2.9-2.9-2.9s-2.9,1.3-2.9,2.9C67.4,75.2,68.7,76.4,70.3,76.4L70.3,76.4z"/>
<rect x="45.6" y="66.9" fill-rule="evenodd" clip-rule="evenodd" fill="#9D938F" stroke="#1E1E1E" stroke-width="0.7087" stroke-miterlimit="10" width="4.8" height="8.3"/>
<line fill="none" stroke="#1E1E1E" stroke-width="0.7087" stroke-miterlimit="10" x1="45.6" y1="73.7" x2="50.4" y2="73.7"/>
<path fill="none" stroke="#1E1E1E" stroke-width="0.7087" stroke-miterlimit="10" d="M45.6,72c1.6,0,3.2,0,4.8,0"/>
<path fill="none" stroke="#1E1E1E" stroke-width="0.7087" stroke-miterlimit="10" d="M45.6,70.3c1.6,0,3.2,0,4.8,0"/>
<line fill="none" stroke="#1E1E1E" stroke-width="0.7087" stroke-miterlimit="10" x1="45.6" y1="68.5" x2="50.4" y2="68.5"/>
<rect x="53" y="66.9" fill-rule="evenodd" clip-rule="evenodd" fill="#9D938F" stroke="#1E1E1E" stroke-width="0.7087" stroke-miterlimit="10" width="4.8" height="8.3"/>
<line fill="none" stroke="#1E1E1E" stroke-width="0.7087" stroke-miterlimit="10" x1="53" y1="73.7" x2="57.8" y2="73.7"/>
<path fill="none" stroke="#1E1E1E" stroke-width="0.7087" stroke-miterlimit="10" d="M53,72c1.6,0,3.2,0,4.8,0"/>
<path fill="none" stroke="#1E1E1E" stroke-width="0.7087" stroke-miterlimit="10" d="M53,70.3c1.6,0,3.2,0,4.8,0"/>
<line fill="none" stroke="#1E1E1E" stroke-width="0.7087" stroke-miterlimit="10" x1="53" y1="68.5" x2="57.8" y2="68.5"/>
<rect x="42.5" y="64.9" fill-rule="evenodd" clip-rule="evenodd" fill="#9D938F" stroke="#1E1E1E" stroke-width="0.7087" stroke-miterlimit="10" width="18.9" height="3.6"/>
<line fill="none" stroke="#1E1E1E" stroke-width="0.7087" stroke-miterlimit="10" x1="99" y1="61.2" x2="126.6" y2="61.2"/>
<line fill="none" stroke="#1E1E1E" stroke-width="0.7087" stroke-miterlimit="10" x1="177.3" y1="61.2" x2="204.9" y2="61.2"/>
<rect x="5" y="55.5" fill-rule="evenodd" clip-rule="evenodd" fill="#9D938F" stroke="#1E1E1E" stroke-width="0.7087" stroke-miterlimit="10" width="10.1" height="3.9"/>
<rect x="0.4" y="53.5" fill-rule="evenodd" clip-rule="evenodd" fill="#9D938F" stroke="#1E1E1E" stroke-width="0.7087" stroke-miterlimit="10" width="4.7" height="8.2"/>
<line fill="none" stroke="#1E1E1E" stroke-width="0.7087" stroke-miterlimit="10" x1="28.2" y1="66.4" x2="23.7" y2="61.1"/>
<line fill="none" stroke="#1E1E1E" stroke-width="0.7087" stroke-miterlimit="10" x1="76.5" y1="66.4" x2="81.1" y2="61.1"/>
<line fill="none" stroke="#1E1E1E" stroke-width="0.7087" stroke-miterlimit="10" x1="27.5" y1="7.1" x2="27.5" y2="48.8"/>
<path fill="none" stroke="#1E1E1E" stroke-width="0.7087" stroke-miterlimit="10" d="M39.3,7.1c0,13.9,0,27.8,0,41.7"/>
<path fill="none" stroke="#1E1E1E" stroke-width="0.7087" stroke-miterlimit="10" d="M51.2,7.1c0,13.9,0,27.8,0,41.7"/>
<path fill="none" stroke="#1E1E1E" stroke-width="0.7087" stroke-miterlimit="10" d="M63,7.1c0,13.9,0,27.8,0,41.7"/>
<path fill="none" stroke="#1E1E1E" stroke-width="0.7087" stroke-miterlimit="10" d="M74.8,7.1c0,13.9,0,27.8,0,41.7"/>
<path fill="none" stroke="#1E1E1E" stroke-width="0.7087" stroke-miterlimit="10" d="M86.6,7.1c0,13.9,0,27.8,0,41.7"/>
<path fill="none" stroke="#1E1E1E" stroke-width="0.7087" stroke-miterlimit="10" d="M98.4,7.1c0,13.9,0,27.8,0,41.7"/>
<path fill="none" stroke="#1E1E1E" stroke-width="0.7087" stroke-miterlimit="10" d="M110.3,7.1c0,13.9,0,27.8,0,41.7"/>
<path fill="none" stroke="#1E1E1E" stroke-width="0.7087" stroke-miterlimit="10" d="M122.1,7.1c0,13.9,0,27.8,0,41.7"/>
<path fill="none" stroke="#1E1E1E" stroke-width="0.7087" stroke-miterlimit="10" d="M133.9,7.1c0,13.9,0,27.8,0,41.7"/>
<path fill="none" stroke="#1E1E1E" stroke-width="0.7087" stroke-miterlimit="10" d="M145.7,7.1c0,13.9,0,27.8,0,41.7"/>
<path fill="none" stroke="#1E1E1E" stroke-width="0.7087" stroke-miterlimit="10" d="M157.5,7.1c0,13.9,0,27.8,0,41.7"/>
<path fill="none" stroke="#1E1E1E" stroke-width="0.7087" stroke-miterlimit="10" d="M169.4,7.1c0,13.9,0,27.8,0,41.7"/>
<path fill="none" stroke="#1E1E1E" stroke-width="0.7087" stroke-miterlimit="10" d="M181.2,7.1c0,13.9,0,27.8,0,41.7"/>
<path fill="none" stroke="#1E1E1E" stroke-width="0.7087" stroke-miterlimit="10" d="M193,7.1c0,13.9,0,27.8,0,41.7"/>
<path fill="none" stroke="#1E1E1E" stroke-width="0.7087" stroke-miterlimit="10" d="M204.8,7.1c0,13.9,0,27.8,0,41.7"/>
<path fill="none" stroke="#1E1E1E" stroke-width="0.7087" stroke-miterlimit="10" d="M216.7,7.1c0,13.9,0,27.8,0,41.7"/>
<path fill="none" stroke="#1E1E1E" stroke-width="0.7087" stroke-miterlimit="10" d="M228.5,7.1c0,13.9,0,27.8,0,41.7"/>
<path fill="none" stroke="#1E1E1E" stroke-width="0.7087" stroke-miterlimit="10" d="M240.3,7.1c0,13.9,0,27.8,0,41.7"/>
<path fill="none" stroke="#1E1E1E" stroke-width="0.7087" stroke-miterlimit="10" d="M252.1,7.1c0,13.9,0,27.8,0,41.7"/>
<path fill="none" stroke="#1E1E1E" stroke-width="0.7087" stroke-miterlimit="10" d="M263.9,7.1c0,13.9,0,27.8,0,41.7"/>
<line fill="none" stroke="#1E1E1E" stroke-width="0.7087" stroke-miterlimit="10" x1="275.8" y1="7.1" x2="275.8" y2="48.8"/>
<path fill-rule="evenodd" clip-rule="evenodd" fill="#9D938F" stroke="#1E1E1E" stroke-width="0.7087" stroke-miterlimit="10" d="
	M269.3,82.8c5.1,0,9.3-4.2,9.3-9.3c0-5.1-4.2-9.2-9.3-9.2s-9.2,4.2-9.2,9.2C260,78.6,264.2,82.8,269.3,82.8L269.3,82.8z"/>
<path fill-rule="evenodd" clip-rule="evenodd" fill="#D1D1D3" stroke="#1E1E1E" stroke-width="0.7087" stroke-miterlimit="10" d="
	M269.3,80.4c3.8,0,6.8-3.1,6.8-6.9c0-3.7-3.1-6.8-6.8-6.8s-6.8,3.1-6.8,6.8C262.4,77.3,265.5,80.4,269.3,80.4L269.3,80.4z"/>
<path fill-rule="evenodd" clip-rule="evenodd" fill="#9D938F" stroke="#1E1E1E" stroke-width="0.7087" stroke-miterlimit="10" d="
	M233.1,82.8c5.1,0,9.3-4.2,9.3-9.3c0-5.1-4.2-9.2-9.3-9.2c-5.1,0-9.3,4.2-9.3,9.2C223.8,78.6,228,82.8,233.1,82.8L233.1,82.8z"/>
<path fill-rule="evenodd" clip-rule="evenodd" fill="#D1D1D3" stroke="#1E1E1E" stroke-width="0.7087" stroke-miterlimit="10" d="
	M233.1,80.4c3.8,0,6.8-3.1,6.8-6.9c0-3.7-3.1-6.8-6.8-6.8s-6.8,3.1-6.8,6.8C226.3,77.3,229.3,80.4,233.1,80.4L233.1,80.4z"/>
<path fill-rule="evenodd" clip-rule="evenodd" fill="#C8C7C9" stroke="#1E1E1E" stroke-width="0.7087" stroke-miterlimit="10" d="
	M254.1,68.5h-2h-0.9h-2h-11.5h-13.7v3.8h12.3c4,0,7,2.2,8.3,6.1h4.6h2h0.9h2h4.6c1.3-3.9,4.3-6.1,8.3-6.1h11.5v-3.8h-12.9H254.1z"/>
<path fill-rule="evenodd" clip-rule="evenodd" fill="#FFFFFF" stroke="#1E1E1E" stroke-width="0.7087" stroke-miterlimit="10" d="
	M269.3,76.4c1.6,0,2.9-1.3,2.9-2.9c0-1.6-1.3-2.9-2.9-2.9s-2.9,1.3-2.9,2.9C266.4,75.2,267.7,76.4,269.3,76.4L269.3,76.4z"/>
<path fill-rule="evenodd" clip-rule="evenodd" fill="#FFFFFF" stroke="#1E1E1E" stroke-width="0.7087" stroke-miterlimit="10" d="
	M233.1,76.4c1.6,0,2.9-1.3,2.9-2.9c0-1.6-1.3-2.9-2.9-2.9s-2.9,1.3-2.9,2.9C230.2,75.2,231.5,76.4,233.1,76.4L233.1,76.4z"/>
<rect x="253" y="66.9" fill-rule="evenodd" clip-rule="evenodd" fill="#9D938F" stroke="#1E1E1E" stroke-width="0.7087" stroke-miterlimit="10" width="4.8" height="8.3"/>
<line fill="none" stroke="#1E1E1E" stroke-width="0.7087" stroke-miterlimit="10" x1="257.8" y1="73.7" x2="253" y2="73.7"/>
<path fill="none" stroke="#1E1E1E" stroke-width="0.7087" stroke-miterlimit="10" d="M257.8,72c-1.6,0-3.2,0-4.8,0"/>
<path fill="none" stroke="#1E1E1E" stroke-width="0.7087" stroke-miterlimit="10" d="M257.8,70.3c-1.6,0-3.2,0-4.8,0"/>
<line fill="none" stroke="#1E1E1E" stroke-width="0.7087" stroke-miterlimit="10" x1="257.8" y1="68.5" x2="253" y2="68.5"/>
<rect x="245.6" y="66.9" fill-rule="evenodd" clip-rule="evenodd" fill="#9D938F" stroke="#1E1E1E" stroke-width="0.7087" stroke-miterlimit="10" width="4.8" height="8.3"/>
<line fill="none" stroke="#1E1E1E" stroke-width="0.7087" stroke-miterlimit="10" x1="250.4" y1="73.7" x2="245.6" y2="73.7"/>
<path fill="none" stroke="#1E1E1E" stroke-width="0.7087" stroke-miterlimit="10" d="M250.4,72c-1.6,0-3.2,0-4.8,0"/>
<path fill="none" stroke="#1E1E1E" stroke-width="0.7087" stroke-miterlimit="10" d="M250.4,70.3c-1.6,0-3.2,0-4.8,0"/>
<line fill="none" stroke="#1E1E1E" stroke-width="0.7087" stroke-miterlimit="10" x1="250.4" y1="68.5" x2="245.6" y2="68.5"/>
<rect x="242" y="64.9" fill-rule="evenodd" clip-rule="evenodd" fill="#9D938F" stroke="#1E1E1E" stroke-width="0.7087" stroke-miterlimit="10" width="18.9" height="3.6"/>
<rect x="288.3" y="55.5" fill-rule="evenodd" clip-rule="evenodd" fill="#9D938F" stroke="#1E1E1E" stroke-width="0.7087" stroke-miterlimit="10" width="10.1" height="3.9"/>
<rect x="298.4" y="53.5" fill-rule="evenodd" clip-rule="evenodd" fill="#9D938F" stroke="#1E1E1E" stroke-width="0.7087" stroke-miterlimit="10" width="4.7" height="8.2"/>
<line fill="none" stroke="#1E1E1E" stroke-width="0.7087" stroke-miterlimit="10" x1="275.2" y1="66.4" x2="279.7" y2="61.1"/>
<line fill="none" stroke="#1E1E1E" stroke-width="0.7087" stroke-miterlimit="10" x1="226.9" y1="66.4" x2="222.4" y2="61.1"/>
</svg>
