<svg xmlns="http://www.w3.org/2000/svg" viewBox="0 0 94.9 40.9"><path fill="#242626" d="M63.8 40.9H31.4V26.5h32.4v14.4zm-31.4-1h30.4V27.5H32.4v12.4z"/><path fill="#242626" d="M32.4 40.9H0V26.5h32.4v14.4zM1 39.9h30.4V27.5H1v12.4z"/><path fill="#242626" d="M48.1 40.7H31.4V26.5h16.7v14.2zm-15.7-1h14.7V27.5H32.4v12.2z"/><path fill="#242626" d="M32.4 27.5H0V13.2h32.4v14.3zM1 26.5h30.4V14.2H1v12.3z"/><path fill="#242626" d="M16.7 27.3H0V13.2h16.7v14.1zM1 26.3h14.7V14.2H1v12.1zM94.9 27.5H62.6V13.2H95v14.3zm-31.3-1H94V14.2H63.6v12.3z"/><path fill="#242626" d="M79.5 27.4H62.8V13.3h16.7v14.1zm-15.7-1h14.7V14.3H63.8v12.1zM26.3 37.5c-.3 0-.5-.2-.5-.5v-6.8c0-.3.2-.5.5-.5s.5.2.5.5V37c0 .3-.2.5-.5.5zm-4.1 0c-.3 0-.5-.2-.5-.5v-6.8c0-.3.2-.5.5-.5s.5.2.5.5V37c0 .3-.2.5-.5.5zm-4.3 0c-.3 0-.5-.2-.5-.5v-6.8c0-.3.2-.5.5-.5s.5.2.5.5V37c0 .3-.2.5-.5.5zm-4.1 0c-.3 0-.5-.2-.5-.5v-6.8c0-.3.2-.5.5-.5s.5.2.5.5V37c0 .3-.2.5-.5.5zm-4.1 0c-.3 0-.5-.2-.5-.5v-6.8c0-.3.2-.5.5-.5s.5.2.5.5V37c0 .3-.2.5-.5.5zm-4 0c-.3 0-.5-.2-.5-.5v-6.8c0-.3.2-.5.5-.5s.5.2.5.5V37c0 .3-.3.5-.5.5z"/><path fill="#242626" d="M63.8 27.5H31.4V13.2h32.4v14.3zm-31.4-1h30.4V14.2H32.4v12.3z"/><path fill="#242626" d="M57.7 24.2c-.3 0-.5-.2-.5-.5v-6.8c0-.3.2-.5.5-.5s.5.2.5.5v6.8c0 .2-.2.5-.5.5zm-4.1 0c-.3 0-.5-.2-.5-.5v-6.8c0-.3.2-.5.5-.5s.5.2.5.5v6.8c0 .2-.2.5-.5.5zm-4.3 0c-.3 0-.5-.2-.5-.5v-6.8c0-.3.2-.5.5-.5s.5.2.5.5v6.8c0 .2-.2.5-.5.5zm-4.1 0c-.3 0-.5-.2-.5-.5v-6.8c0-.3.2-.5.5-.5s.5.2.5.5v6.8c0 .2-.2.5-.5.5zm-4.1 0c-.3 0-.5-.2-.5-.5v-6.8c0-.3.2-.5.5-.5s.5.2.5.5v6.8c0 .2-.2.5-.5.5zm-4.1 0c-.3 0-.5-.2-.5-.5v-6.8c0-.3.2-.5.5-.5s.5.2.5.5v6.8c0 .2-.2.5-.5.5zM32.4 14.3H0V0h32.4v14.3zM1 13.3h30.4V1H1v12.3z"/><path fill="#242626" d="M26.3 10.9c-.3 0-.5-.2-.5-.5V3.7c0-.3.2-.5.5-.5s.5.2.5.5v6.8c0 .2-.2.4-.5.4zm-4.1 0c-.3 0-.5-.2-.5-.5V3.7c0-.3.2-.5.5-.5s.5.2.5.5v6.8c0 .2-.2.4-.5.4zm-4.3 0c-.3 0-.5-.2-.5-.5V3.7c0-.3.2-.5.5-.5s.5.2.5.5v6.8c0 .2-.2.4-.5.4zm-4.1 0c-.3 0-.5-.2-.5-.5V3.7c0-.3.2-.5.5-.5s.5.2.5.5v6.8c0 .2-.2.4-.5.4zm-4.1 0c-.3 0-.5-.2-.5-.5V3.7c0-.3.2-.5.5-.5s.5.2.5.5v6.8c0 .2-.2.4-.5.4zm-4 0c-.3 0-.5-.2-.5-.5V3.7c0-.3.2-.5.5-.5s.5.2.5.5v6.8c0 .2-.3.4-.5.4zM94.9 40.9H62.6V26.5H95v14.4zm-31.3-1H94V27.5H63.6v12.4z"/><path fill="#242626" d="M89.3 37.5c-.3 0-.5-.2-.5-.5v-6.8c0-.3.2-.5.5-.5s.5.2.5.5V37c0 .3-.2.5-.5.5zm-4.3 0c-.3 0-.5-.2-.5-.5v-6.8c0-.3.2-.5.5-.5s.5.2.5.5V37c0 .3-.2.5-.5.5zm-4.1 0c-.3 0-.5-.2-.5-.5v-6.8c0-.3.2-.5.5-.5s.5.2.5.5V37c0 .3-.2.5-.5.5zm-4.1 0c-.3 0-.5-.2-.5-.5v-6.8c0-.3.2-.5.5-.5s.5.2.5.5V37c0 .3-.2.5-.5.5zm-4.1 0c-.3 0-.5-.2-.5-.5v-6.8c0-.3.2-.5.5-.5s.5.2.5.5V37c0 .3-.2.5-.5.5zm-4.3 0c-.3 0-.5-.2-.5-.5v-6.8c0-.3.2-.5.5-.5s.5.2.5.5V37c0 .3-.2.5-.5.5z"/></svg>