<?xml version="1.0" encoding="utf-8"?>
<!-- Generator: Adobe Illustrator 19.1.0, SVG Export Plug-In . SVG Version: 6.00 Build 0)  -->
<svg version="1.1" id="Слой_1" xmlns="http://www.w3.org/2000/svg" xmlns:xlink="http://www.w3.org/1999/xlink" x="0px" y="0px"
	 viewBox="0 0 16.6 10.9" enable-background="new 0 0 16.6 10.9" xml:space="preserve">
<path fill="none" stroke="#0D1413" stroke-width="0.7336" stroke-miterlimit="10" d="M8.3,7.8c1.3,0,2.3-1,2.3-2.3S9.6,3.1,8.3,3.1
	C7,3.1,6,4.1,6,5.4S7,7.8,8.3,7.8L8.3,7.8z"/>
<line fill="none" stroke="#0D1413" stroke-width="0.7336" stroke-linecap="round" stroke-miterlimit="10" x1="8.3" y1="1.9" x2="8.3" y2="3.1"/>
<line fill="none" stroke="#0D1413" stroke-width="0.7336" stroke-linecap="round" stroke-miterlimit="10" x1="8.3" y1="7.8" x2="8.3" y2="8.9"/>
<line fill="none" stroke="#0D1413" stroke-width="0.7336" stroke-linecap="round" stroke-miterlimit="10" x1="4.8" y1="5.4" x2="6" y2="5.4"/>
<line fill="none" stroke="#0D1413" stroke-width="0.7336" stroke-linecap="round" stroke-miterlimit="10" x1="10.7" y1="5.4" x2="11.8" y2="5.4"/>
<rect x="0.4" y="0.4" fill="none" stroke="#0D1413" stroke-width="0.7336" stroke-miterlimit="10" width="15.9" height="10.2"/>
<path fill="none" stroke="#0D1413" stroke-width="0.7336" stroke-miterlimit="10" d="M8.3,6.2c0.4,0,0.7-0.3,0.7-0.7
	c0-0.4-0.3-0.7-0.7-0.7c-0.4,0-0.7,0.3-0.7,0.7C7.6,5.8,7.9,6.2,8.3,6.2L8.3,6.2z"/>
</svg>
