<?xml version="1.0" encoding="utf-8"?>
<!-- Generator: Adobe Illustrator 19.1.0, SVG Export Plug-In . SVG Version: 6.00 Build 0)  -->
<svg version="1.1" id="Слой_1" xmlns="http://www.w3.org/2000/svg" xmlns:xlink="http://www.w3.org/1999/xlink" x="0px" y="0px"
	 viewBox="0 0 16.9 12.4" enable-background="new 0 0 16.9 12.4" xml:space="preserve">
<path fill="none" stroke="#0D1413" stroke-width="0.7336" stroke-linecap="round" stroke-miterlimit="10" d="M8.1,2.6
	c0.6,0,1.1-0.5,1.1-1.1c0-0.6-0.5-1.1-1.1-1.1C7.5,0.4,7,0.9,7,1.5C7,2.1,7.5,2.6,8.1,2.6L8.1,2.6z"/>
<path fill="none" stroke="#0D1413" stroke-width="0.7336" stroke-linecap="round" stroke-miterlimit="10" d="M11.1,6.7
	c-0.7,0.9-1.9,1.5-3.1,1.5S5.7,7.6,5,6.6"/>
<line fill="none" stroke="#0D1413" stroke-width="0.7336" stroke-linecap="round" stroke-miterlimit="10" x1="8.1" y1="2.3" x2="8.1" y2="8"/>
<line fill="none" stroke="#0D1413" stroke-width="0.7336" stroke-linecap="round" stroke-miterlimit="10" x1="6.4" y1="4.2" x2="9.7" y2="4.2"/>
<path fill="none" stroke="#0F1412" stroke-width="0.79" stroke-linecap="round" stroke-miterlimit="10" d="M3.6,11.6
	C3.1,11.6,2.6,12,2,12c-0.5,0-1.1-0.5-1.6-0.5"/>
<path fill="none" stroke="#0F1412" stroke-width="0.79" stroke-linecap="round" stroke-miterlimit="10" d="M10.1,11.6
	C9.6,11.6,9,12,8.5,12c-0.5,0-1.1-0.5-1.6-0.5S5.8,12,5.2,12s-1.1-0.5-1.6-0.5"/>
<path fill="none" stroke="#0F1412" stroke-width="0.79" stroke-linecap="round" stroke-miterlimit="10" d="M16.6,11.6
	c-0.5,0-1.1,0.5-1.6,0.5c-0.5,0-1.1-0.5-1.6-0.5c-0.5,0-1.1,0.5-1.6,0.5c-0.5,0-1.1-0.5-1.6-0.5"/>
</svg>
