<?xml version="1.0" encoding="utf-8"?>
<!-- Generator: Adobe Illustrator 19.1.0, SVG Export Plug-In . SVG Version: 6.00 Build 0)  -->
<svg version="1.1" id="Layer_1" xmlns="http://www.w3.org/2000/svg" xmlns:xlink="http://www.w3.org/1999/xlink" x="0px" y="0px"
	 viewBox="0 0 781.1 415.9" style="enable-background:new 0 0 781.1 415.9;" xml:space="preserve">
<style type="text/css">
	.st0{fill-rule:evenodd;clip-rule:evenodd;fill:#8B8D8E;}
</style>
<path class="st0" d="M22.3,249.9l-6.4-8.4l3.8-10.7l-3.3-2.7l-2.4,1.7l-9.4-6.4l-1.5,2.4l0.3,7.4L0,237l1.1,5.8l6.3-0.4l6.7,8.4
	l5,2.9l0.3-0.3L22.3,249.9L22.3,249.9z M631.5,82.6l-0.7,1.9l1.6,1.1l1.9-1.1l-0.7-2.3L631.5,82.6L631.5,82.6z M18.9,253.2l-4.6-2.7
	L7.6,242l-6.1,0.4l-0.9-5.1l3.5-3.7l-0.4-7.5l1.2-1.9l9.2,6.3l2.3-1.6l2.7,2.2l-3.7,10.6l6.3,8.3L18.9,253.2L18.9,253.2z
	 M238.4,220.1L238.4,220.1l-0.1-0.1l-7.4-6.1l-2.7,1.5l-0.1,0l-0.1,0l-7.3-0.8l0-0.1l-4.9-2.5l0,0l0,0l-4.5-5.1l-5.8-0.6l-1.7,4.3
	l4.1,5.4l0,0.1l0,0.1l0.2,3.9l0,0.2l-0.2,0.1l-6.8,2.9v2.3l1.9,1.6l0.2,0.1l-2.1,2.8l0,0l-1.9,2.1l-2.5,6.4l0,0l0,0l-2.1,2.2
	l-1.4,3.5l0,0l0,0l-2.3,2.5l-0.1,0.1l-0.1,0l-2-0.1l-0.1,4.8l2.2-0.1l0.3,0v3.8l4.8,0.2l0.2,0l0,0.2l0.2,2.7l2,0.5l0.1,0l0,0.1
	l0.3,1.4l0,0l0.3,1.9l0.7,1l1.8-0.5l4-4.8l0.1-0.1l0.1,0l4.6-0.5l2.9-4.6l0.2-0.3l0.2,0.2l2.1,2.3l1.8-1.2l0.7-3.2l0-0.2l0.2,0
	l5.1-0.2l1.4-1.7l0.4-3.5l0-0.1l0-0.1l2.2-2.6l-1.6-3.2l0-0.1l0-0.1l0.1-2.6l0-0.1l0.1-0.1l5.4-2.4l6.2-6.1l4.2-5.5l0.8-1.8
	L238.4,220.1L238.4,220.1z M780.6,239l-1-13.1l-1.4-6l-4.3-4.3l0.4-6.4l2.2-1.8l-7.4-8.6l0.1-6l3.1-3.4l-0.8-3.4l-6.3-1.8l-6.4-11.4
	l1.6-1l2,2.7l3.1-2l-4.8-4.6l-2.6,1.4l-4.2-2.7l-0.1,0.1l-2.2-5.1h-4.3l-0.5,3l-2.7-0.3l-8.9-17.8l0.5-5.6l3.5-0.8l-2.6-10.4
	l5.6,4.4l0.1-12.5l4.4-4.6l6.7-0.1l-3.8-9.3l-1.8-20l-4.3,1.3l-0.1,0l-0.1,0l-3.2-1.7l-5.5,15.9l-0.1,0.2l-0.2,0l-7.1-0.2l-6.5,2
	l-0.2,0.1l-0.1-0.2l-2.1-5.8l-8.8,0.5l-1.6,2.8l-0.1,0.1l-0.1,0l-6.1,1.4l-1,3.1l0,0.1l-0.2,0l-3.3,0.3l-1,3.7l0,0.1l-0.1,0
	l-3.8,1.2l0.7,3.7l5.5,7.9l3.4,0.7l0.1,0l0,0.1l2.3,6.1l3.8-0.4l0.1,0l0.1,0.1l2.6,2.4l0.1,0.1l0,0.1l0.7,3.7l3.5,2l2.5-2.3l-6.7-8
	l1.6-5.2l6.4-2.2l-3.4,5.1l0.8,3.9l5.1,3.5l2.3,0.1l-0.1,3.7l2.2,0.5l-2.1,10.4l2.4,3.9l0.8,12.1l1.8,7.8l2.5,7.8l-2.9,3.1l0.9,3
	l-1.6,2.1l4,4.7l0.7,7.4l5.6,6.3v0l6.6,7.4L780.6,239L780.6,239z M474.7,245l-0.1,0.1l-0.1-0.1l-2.7-2.1h-6.5l0-0.3l0.4-3.6l0-0.1
	l0-0.1l3.8-4.5l1.1-3l-2.4-1.7l-0.1-0.1v-3.4l-2.1-2.3l-0.1-0.1l0-0.1l1-4.6l-2.5-1.9l-0.2-0.2l0.2-0.2l3.7-4.1l-1.4-17.3l-4.3-6.7
	l2.2-1.1l5.2-4.3l0.1-0.1l0.1,0l3.1,0.4l1.1-5.4l0,0l0,0l1.5-2.3l0.4-3l0-0.1l0.1-0.1l6.4-5.1l-2.8-3.3l-0.1-0.1V159l-5.6-7.9l0,0
	l0-0.1l-0.8-4l-1.7-2.3l-0.1-0.1l0-0.1l0.2-2.3l-3.4,1.7l-3.9,3l-5.4,1.6l-2.1,3.7l0.1-5.2l10.8-11.2l6-10.8l2.7-9.7l-8.4-9.5
	l-7.8-0.3l-2.7,3.9l-3.1,0.5l2.3-6.7l-6.4-0.8l2.1-3l-3.9-3.3l-3.5,1.3l-5.6,8.4l1.3,5l-6,0.4l0.1,1.6l2.2,3.3l-4.3-0.9l-2.2,2.1
	l-5-0.9l-0.7-2.2l-7.1,0.1l0.1,4l-8.5,1.2l-5.7,4.6l-4.4,0.1l-3.3,2.9l-1.4,5.9l2.7,5l-4.2,1l-11.1-1.8l-6.4-0.1l-2,3.5l-0.3,9.1
	l4,3.9l2,4.6H374l-4.8-9l-3.5,0.2l0,0.5l3.1,6.6l0.1,0.3l-0.3,0.1l-3.3,0.6l-0.7,4l3.1,6.5l0,0.1l0,0.1l-0.8,3.1l0,0.1l-0.1,0
	l-7.3,3.2l-0.9,3.7l4.7,6.2l5.3,1.3l0.2,0l0,0.2l1.2,6.7l-0.3,0.9v0l-1.9,4.8l0,0.1l-0.1,0l-4.9,1.3l1.5,3.5l0,0.1l0,0.1l-1.6,4.6
	l3.9,5.1l0.1,0.1l0,0.1l-1,9.2l3.1,4.3l0.1,0.1l0,0.1l-1.2,6.6l4.7,3.5l0.1,0.1l0,0.1l0.8,4.8l0,0.1l-0.1,0.1l-4.1,5.7l-0.4,5.1
	l0,0.1l0,0.1l-6.4,8.1v6.3l5.2,3l0.2,0.1l-0.1,0.2l-0.9,2.4l0,0.1l-0.1,0l-4.7,2l0,0l0,0l-4,0.5l1.7,6.1l0,0.1l-0.1,0.1l-1.7,2.1
	v3.2l12.5,1.9l0.1,0l0.1,0.1l3.7,7.5l3.4,0.4l0.2,0l0,0.2l-0.2,2.8l0,0.1l-0.1,0.1l-4.9,4.3l0.4,3.5l2.7,2.7l4.1,1.3l0.2,0.1
	l-0.1,0.2l-0.7,2.4l0,0.1l-0.1,0l-4.5,3.4l-0.2,4.5l0,0.2l0,0l-0.6,2.9l3.9,7.6l0.1,0.2l-0.1,0.1l-2,2l0,0l0,0l-1.7,0.8l2,5.8h3.8
	l3.7-0.4l0.1,0l0.1,0l2.4,1.5l0.2,0.1l-0.1,0.2l-1.3,2.7l2.8,4.3l0,0l0,0l0.7,3.7l1.3,3.9l0,0l0,0l0.2,2.8l0,0.2l-0.1,0.1l-3.2,1.7
	v2.5l0,0l-1.1,2.4l0,0.1l-0.1,0l-3.4,1.3l-1.8,3.9l5.5,3.9l9,1.2l3.9-3.3l0,0l0.1,0l2.1-0.5l0.1-2.1l0-0.1l0.1-0.1l3.2-2.1l-0.2-2.2
	l0-0.2l0.2-0.1l2.4-0.6l0.8-3.2l0-0.2l0.2,0l12-1l0.6-2.8l-6.7-6l-0.1-0.1v-2.8l0.1-0.1l3-1.4l0.1,0l0.1,0l3.7,0.4l0.8-11.7l0,0l0,0
	l2.4-4.6l0.1-0.1l0.1,0l4-0.6l0.7-3.3l-4.1-6.5l-0.1-0.1l0.1-0.1l3.8-7l0.1-0.1l0.1,0l9.2-0.4l2.5-3.3l0.2-0.3l0.2,0.4l3.5,7.5
	l2-0.8l-0.4-4.4l0-0.1l0.1-0.1l8.9-9.7l0.6-3.9l0-0.1l4.8-2.2l0.1,0.2l2.2,4.7l4,2.4l0.9-3.3l0-0.1l0,0l2.3-2.3l-0.9-2.7l-2.1-0.6
	l-0.2-0.1l0-0.2l0.2-2.6l0-0.1l0.1-0.1l3.1-3.3l-0.5-2.5l-4.2-1.3l-0.1,0l0-0.1l-1.2-4l0-0.1l0.1-0.1l2.1-2.9l-1.9-3.2l-0.1-0.2
	l0.2-0.1l5.1-3.1l2.9-5.6l-0.4-4.4l-2-3.1l-0.1-0.1l0.1-0.1l1.9-4.3l-1-2.5l0,0l0,0l-0.2-4l0-0.2l0.2-0.1l3.6-1.6l0,0l0,0l3.7-0.8
	l1.6-1.8l-1.3-1.7L474.7,245L474.7,245z M525.5,378.7l-1.2,3.1l8.2,5.1l14.2-6.8h0h0l-3.8-3.5l-0.3-0.3l0.4-0.1l2.5-0.6l0.5-2.7
	l-4.1-2.6l-3.4,0.7l-1.8,4.1l-0.1,0.3l-0.3-0.2l-1.8-1.6l-2,4.2l-0.1,0.1l-0.1,0L525.5,378.7L525.5,378.7z M523.9,381.6l1.2-3.1
	l0.1-0.1l0.1-0.1l0.1,0l0.1,0l6.8-0.8l1.9-4l0.1-0.3l0.1-0.3l0.2,0.2l0.2,0.2l1.5,1.4l1.6-3.8l0-0.1l0.1-0.1l0.1,0l0.1,0l3.4-0.7v0
	l0.1,0l0.1,0l0.1,0.1l0.1,0.1v0l4.1,2.6l0.1,0.1l0.1,0.1l0,0.2l0,0.2l-0.5,2.7l0,0.2l0,0.2l-0.2,0l-0.2,0l-2,0.5l3.4,3.1h0l0.3,0.2
	l0.3,0.2l-0.3,0.2l-0.3,0.2l-14.2,6.8l-0.1,0.1l-0.1,0.1l-0.1-0.1l-0.1-0.1l-8.2-5.1l-0.2-0.1l-0.2-0.1l0.1-0.2L523.9,381.6
	L523.9,381.6z M494.4,396.9l1.1-4l3.5-1.8l0.3-0.2l-0.2-0.2l-3.6-3.9l3.4-2.7l0.1-0.1l-0.1-0.2l-1.3-3.8h6.3h0.1l0.1-0.1l4-3.4
	l3.7,0.5l0.1,0l0.1-0.1l6.8-9l4.3-0.3l0.1,0l0.1-0.1l1.3-2.2l3.7-1.5l0.1,0l0,0l2.9-3.6l0-0.1l0-0.1l0.3-3.9l0-0.1l-0.1-0.1l-3-2
	v-3.3l6.4-4.9l0,0l0-0.1l2.2-5l5.7-2l0.2-0.1l0-0.2l-0.3-4.8l0-0.1l-0.1-0.1l-3.6-3.2l-0.1,0l-0.1,0l-3.8-0.7l-3.2-9.6l0-0.1l0,0
	l-1.9-1.7l1.8-2.6l6.5,1l0.1,0l0.1-0.1l3.9-2.7l0.1-0.1l0-0.1l0.2-5.1l0-0.1l-0.1-0.1l-4-2.8l-0.3-5.9l2.1-1.6l5.6-0.2l6.9,12.9
	l0,0.1l0.1,0l5.4,3.6l-1.6,2.2l-0.1,0.2l0.1,0.1l2.7,2.7l0.1,0.1l0.2-0.1l4.4-2.5l2.1,3.7l0.1,0.2l0.2,0l3.3-0.8l0.5,6.6l0,0.1
	l0.1,0.1l3.4,1.9l-1.9,2.7l-0.1,0.1l0.1,0.1l5.6,8.4l-6.2,4.3l-3.5,6.5l5,0.5l2.4,6.3l-3.5,3.5l-2.1,13.1l2,4.8l-4.7,3.3l-2,5.4
	l-13.8-2.2l-3.3,3l-2.3-2.2l-7.8,0.4l-5.6,5.2l-1.2,3.8l-3.7,0.1l-11.5,6.9l-17.1-1.6l-2.2-4.2L494.4,396.9L494.4,396.9z
	 M455.6,363.2l2.1-0.7l0.2-0.1l0.2-0.1l-0.1-0.2l-0.1-0.2l-0.9-3.3l2.4-0.9l2.1,4.1l0.1,0.2l0.1,0.2l0.2-0.1l0.2-0.1l5.2-3.1
	l1.7,2.4l0,0l0,0l0,0l0,0h0l1.6,1.5l0.1,0.1l0.1,0.1l0.1-0.1l0.1-0.1l2-0.8h2.7l1.3,2l-5.4,6.8l-3.2-2.3l-0.1,0l-0.1-0.1l-0.1,0
	l-0.1,0l-4.1,0.4l-2.4-1.5l-2.9-2.1l-0.1,0l-0.1,0l-0.1,0l-0.1,0l-2.8-0.2L455.6,363.2L455.6,363.2z M455.5,365.4l-0.5-2.4l0-0.2
	l0.2-0.1l2.3-0.7l-1-3.5l-0.1-0.2l0.2-0.1l2.8-1l0.2-0.1l0.1,0.2l2.2,4.3l5.4-3.2l0.2-0.1l0.1,0.2l1.9,2.6l0,0l1.6,1.5l2.1-0.8l0,0
	h0h2.9h0.1l0.1,0.1l1.4,2.3l0.1,0.1l-0.1,0.1l-5.6,7.1l-0.1,0.2l-0.2-0.1l-3.4-2.4l-4.2,0.4l-0.1,0l-0.1,0l-2.5-1.5l0,0l-2.9-2.1
	l-3-0.3l-0.2,0L455.5,365.4L455.5,365.4z M479.1,245.2l1.9,2.8l-2.3,1.4l-0.1,0.1v0.1v3.1v0.2l0.2,0l2.9,0.2l0.1,0l0.1-0.1l2-1.4
	l2.5,4.9l-0.2,6.2l0,0.1l0.1,0.1l3.4,1.9l-1.5,6.3l0,0.1l0,0.1l2,4.5l0,0.1l0.1,0l4.2,1.3l-3.3,7.6l0,0l0,0l-0.7,9.9l0,0.1l0.1,0.1
	l3.6,3.8l0.1,0.2l0.2-0.1l3.8-2.9l5.5-0.2l0.1,0l0.1-0.1l1.9-3.3l2.9,2.9l0.2,0.2l0.2-0.2l4-4.7l0,0l0,0l6-12.9l3.9-0.6l7.7,3.1
	l1.8,5.3l0.1,0.3l0.2-0.1l4.8-2.2l2.8,1.9l5.1,11.6l-5.5,0.2l-0.1,0l-0.1,0l-2.2,1.7l-0.1,0.1l0,0.1l0.3,6.2l0,0.1l0.1,0.1l4,2.8
	l-0.2,4.9l-3.8,2.6l-6.4-1l-0.3-3.2l-0.1-0.6l-0.4,0.4l-2.6,3l-2.1-0.3l-0.2,0l-0.1,0.2l-1.2,4.5l-10.5,2.8l-1.8-2.4l-0.1-0.1h-0.1
	h-2.5l-2.5-1.3l-0.2-0.1l-0.1,0.2L506,321l-4.9,1.6l-2.8-1l-0.3-0.1l-0.1,0.3l-0.6,3.1l-5.3,0.7l-0.3,0l0,0.3l0.5,2.9l0,0.1l0.1,0.1
	l3.1,2.6l-2.6,3.1l0,0.1l0,0.1l-0.5,5l0,0.1l0,0.1l2,4.6l-1.9,5.5l-2.5,6.9l-2.9,4.5l0,0l-2.4,4.1l0,0l0,0l-0.9,2.7l-4.1,3.7l0,0
	l0,0l-2,3l-5.5,3.8l-2.7,0.4l0,0l0,0l-2,1.2l-0.2,0.1l0.1,0.2l0.9,2l0.1,0.1h0.2h4.2l-0.8,2.8l-4,1.3l-0.6-2.4l0-0.1l-0.2,0
	l-4.6-0.9l-0.4-3.3l0-0.1l0-0.1l-3.3-4.3l-0.1-0.1h-0.1h-4.3l-8.8-7l-2.9-4l-0.1-0.2l-0.2,0.1l-4.6,3.3l-2.6-0.1l-0.2-0.7l0-0.2
	l-0.2,0l-4,0.3l-10-7l-6.7-6v-2.3l2.8-1.3l3.9,0.4l0.3,0l0-0.3l0.8-11.9l2.3-4.4l4-0.6l0.2,0l0-0.2l0.8-3.6l0-0.1l-0.1-0.1l-4.1-6.4
	l3.6-6.7l9.2-0.4l0.1,0l0.1-0.1l2.3-3.1l3.4,7.4l0.1,0.2l0.2-0.1l2.4-1l0.2-0.1l0-0.2l-0.4-4.5l8.9-9.7l0.1-0.1l0-0.1l0.6-3.8l4-1.8
	l2.1,4.5l0,0.1l0.1,0l4.4,2.6l0.3,0.2l0.1-0.3l1-3.5l2.3-2.3l0.1-0.1l0-0.1l-1-3l0-0.1l-0.1,0l-2-0.5l0.2-2.3l3.1-3.3l0.1-0.1l0-0.1
	l-0.6-2.8l0-0.1l-0.1,0l-4.2-1.4l-1.1-3.7l2.1-2.9l0.1-0.1l-0.1-0.1l-1.9-3.2l5-3.1l0.1,0l0-0.1l3-5.8l0-0.1l0-0.1l-0.4-4.6l0-0.1
	l0-0.1l-1.9-3.1l1.9-4.3l0-0.1l0-0.1l-1-2.5l-0.2-3.8l3.4-1.5l3.8-0.8l0.1,0l0.1-0.1L479.1,245.2L479.1,245.2z M367.3,143.6l1.8-2.6
	l1.5,0.8l0.5,4l-1.5,0.7L367.3,143.6L367.3,143.6z M373.3,337.3l2,5.9l0.1,0.2h0.2h3.9h0l0,0l3.6-0.4l2.2,1.4l-1.2,2.7L384,347
	l0.1,0.1l2.8,4.3l0.6,3.7l0,0l0,0l1.3,3.9l0.2,2.7l-3.1,1.7l-0.1,0.1v0.1v2.6l-1,2.3l-3.4,1.3l-0.1,0l0,0.1l-1.9,4l-2.7-0.2l-0.2,0
	l-0.1,0.2l-1.7,4.5l-6.4,0.4l0-0.2l-0.4,0.3l-3.5,2.7l-2.8-3.7l1-4.6l2.9-1.1l0,0l0,0l2.2-1.1l0,0l0,0l3.7-3.7l0.1-0.1l-0.1-0.1
	l-0.8-2.3l0.6-2.6l0-0.1l0-0.1l-0.8-3.4l2.3-3l0,0l0,0l1.3-3.9l0.1-0.2l-0.2-0.1l-3.6-1.3l-0.6-2l2.8-3.6l0.1-0.1l-0.1-0.1l-1.5-3.6
	l0.6-2.7L373.3,337.3L373.3,337.3z M357.1,275.8l1.7,6.2l-1.7,2.1l-0.1,0.1v0.1v3.5v0.2l0.2,0l12.6,1.9l3.7,7.5l0.1,0.1l0.1,0
	l3.3,0.4l-0.2,2.5l-5,4.3l-0.1,0.1l0,0.1l0.4,3.7l0,0.1l0.1,0.1l2.8,2.8l0,0l0.1,0l3.9,1.2l-0.6,2.1l-4.5,3.5l-0.1,0.1l0,0.1
	l-0.2,4.4l-4.4,1.9l-5.4-2.4l-0.1,0l-0.1,0l-6.3,0.9l-0.1,0l-0.1,0.1l-2.3,2.8l-6.2,0v0h-0.2H346h-0.1l-0.1,0.1l-3.1,2.6l-1.1-1.5
	l0.4-6.7l0-0.3l-0.3,0l-9.5-0.3l-1.7-3.1l-0.1-0.1l-0.1,0l-4.8,0.1l-0.9-3.3l0,0l0,0l-3.1-4.1l0,0l-0.1,0l-16.7-7.9V294v-0.1
	l-0.1-0.1l-2.2-2.3l2.3-2.8l0.1-0.1l0-0.1l-0.3-2.1l4.5-2.6l0.1-0.1l0-0.1l0.5-2.7l2.5-1.6l3.2,0.4l0.2,0l0.1-0.2l2.8-8.9l3.7-2.8
	l4,1.2l5.6,3.7l0.1,0l0.1,0l8.5,0.1l5.9,4.4l0.1,0.1l0.1-0.1l7.1-4.1L357.1,275.8L357.1,275.8z M266,310.3l1.9,0.5l0.1,3.4l-1.2,1.3
	l0.8,2.4l-2.6,3l0.5,2.2l5.6,1.3l0.3,3l2.7,0.1l2.1,0.5l2.1,2.3l-3,2.5v2.1l3-0.9l2.6,1.4l2.3-0.5l2-1.7l5.6-1l2.2-5.3l-0.4-9.5
	l0-0.1l0-0.1l1.9-3.4l0-0.1l0.1,0l3.3-1.4l0.1,0l0.1,0l3.7,0.2l-0.9-3.3l0-0.2l0.2-0.1l3.1-1.8v-13.2l-2.2-2.4l-0.1-0.2l0.1-0.2
	l2.4-2.9l-0.2-1.8l-4.4,3l-0.1,0l-0.1,0l-3.4-0.1l-0.1,0l-0.1,0l-3.3-1.9l-3.6,0.5l-0.1,0l-0.1-0.1l-4.7-3.4l-2.1-0.4l-0.4-0.1
	l0.2-0.3l1.5-2.1l-2.3-2.3l-4.4,4.3l-0.4,4l0,0.1l0,0.1l-1.3,1.5l0.3,1.3l2.7,1l0.1,0l0,0.1l1,2.6l0,0.1l0,0.1l-0.5,2.4l0,0l0,0
	l-1,1.5l-0.1,0.1l-0.2,0l-3.3-0.7l-2.4,2.7l-0.7,3.1l0,0.1l-0.1,0.1l-4.3,4L266,310.3L266,310.3z M291.4,332.2l6.8,0.2l-2.7,2.9
	l5.7,9.3l2.7-1.6l0.1-0.1l0.1,0.1l2,1.3l1.2-0.9l0.1-0.1l0.1,0.1l2.8,1.2l12.9-4.4l0.2-0.1l0.1,0.1l3.3,4.3l0,0l0,0l0.7,2.8l3.6,3.5
	l4.9-4.7l0.2-0.1l0.2,0.1l1.8,1.4l1.6-1.2l0.1-0.1l0.1,0l5.6,0.5l2.8-2.6l0.1-17.3h-2.2l-3.2,2.7l-0.2,0.2l-0.2-0.2l-1.4-1.8
	l-0.1-0.1l0-0.1l0.4-6.5l-9.4-0.3l-0.1,0l-0.1-0.1l-1.7-3.1l-4.9,0.1l-0.2,0l0-0.2l-0.9-3.5l-3.1-4l-16.4-7.8v5.3v0.1l-0.1,0.1
	l-3.1,1.8l0.9,3.5l0.1,0.3l-0.3,0l-4-0.3l-3.1,1.3l-1.8,3.3l0.4,9.4l0,0l0,0.1L291.4,332.2L291.4,332.2z M301.2,345l2.6-1.6l2,1.3
	l0.1,0.1l0.1-0.1l1.2-0.9l2.7,1.2l0.1,0l0.1,0l12.9-4.4l3.1,4.2l0.7,2.8l0,0.1l0.1,0.1l3.8,3.7l0.2,0.2l0.2-0.2l4.9-4.7l1.7,1.4
	l0.1,0.1l0.2-0.1l1.7-1.3l5.6,0.5l0.1,0l0.1-0.1l2.9-2.7l2.3-0.3l0.4,3.3l0,0.1l0.1,0.1l3.2,3.5l1.1,3l0,0.1l0.1,0l2.8,2l-2.2,2.6
	l-0.1,0.2l0.1,0.2l1.9,2.1l-0.8,3.3l-2.3,1.5l-0.1,0.1l0,0.1l-0.2,4.4l-3,0.6l-3-2.3l-0.4-0.3l0,0.5l-0.2,2.6l-2.5,3.8L341,375
	l-0.1,0l0,0l-3.9,1.3l-0.1,0l0,0.1l-1.8,2.4l-0.2,0.2l0.3,0.1l2.5,1.3l0.6,2.5l-4.1,0.5l-2.1-4.4l-3-1.3l-5.6,2.1l-7.2-3.9l-0.7-3.5
	l-2.2-0.9l-2.3,3.4l-3.4,0.5L301.2,345L301.2,345z M362.5,372.8l-1.8-2l-0.1-0.1l-0.1,0l-5.3-0.2l0.2-4.1l2.3-1.5l0.1-0.1l0-0.1
	l0.9-3.5l0-0.1l-0.1-0.1l-1.8-2l2.3-2.7l0.2-0.2L359,356l-3-2.1l-1.1-3l0,0l0,0l-3.2-3.4l-0.4-3.4l0-0.2l-0.2,0l-2.3,0.3l0.1-17.1
	l6.4,0h0.1l0.1-0.1l2.3-2.8l6.2-0.9l5.4,2.4l0.1,0l0.1,0l4.2-1.8l-0.6,2.6l0,0.1l0,0.1l3.9,7.5l-1.8,1.8l-3.7,1.7l-0.1,0.1l0,0.1
	l-0.7,2.8l0,0.1l0,0.1l1.5,3.6l-2.8,3.6l-0.1,0.1l0,0.1l0.7,2.2l0,0.1l0.1,0l3.5,1.2l-1.2,3.7l-2.4,3l-0.1,0.1l0,0.1l0.9,3.4
	l-0.6,2.6l0,0.1l0,0.1l0.8,2.3l-3.6,3.6l-2.1,1.1L362.5,372.8L362.5,372.8z M334.2,383.8l4.3-0.5l0.3,0l-0.1-0.3l-0.7-2.8l0-0.1
	l-0.1,0l-2.4-1.2l1.5-2.1l3.8-1.3l4.8,0.4l0.1,0l0.1-0.1l2.6-3.9l0-0.1l0-0.1l0.2-2.2l2.7,2.1l0.1,0.1l0.1,0l3.3-0.7l0.2,0l0-0.1
	l5.2,0.2l1.7,2l-1.1,4.7l0,0.1l0.1,0.1l3.1,3.9l0.1,0.2l0.2-0.1l3.4-2.6l0.4,4.4l0,0.1l0,0l3.8,6.8l-2.7,1.8l-0.1,0.1l0,0.1l0.7,4.6
	l-4.2,3.1l-6.3,0.3l-1.4,3.1l-4.7-0.5l-3-4.4l-0.9-3.3l-4.7,2.5l-1.7-2.1l-4.2-0.9l-0.1-4.4l-4.2-2.4L334.2,383.8L334.2,383.8z
	 M370.5,397.1l-0.6-4.3l2.7-1.9l0.2-0.1l-0.1-0.2l-3.9-7l-0.4-4.5l6.5-0.4l0.2,0l0.1-0.1l1.7-4.4l2.6,0.2l5.6,4l0,0l0.1,0l9.2,1.2
	l0.1,0l0.1-0.1l4-3.3l2.2-0.5l0.2,0l0-0.2l0.1-2.1l3.2-2.1l0.1-0.1l0-0.1l-0.2-2.2l2.3-0.6l0.1,0l0-0.1l0.8-3.2l12-1.1l0.2,0l0-0.2
	l0.6-2.7l9.8,6.9l0.1,0.1l0.1,0l3.9-0.3l0.3,1.4l-1.4,1.4l-0.1,0.1l0,0.1l0.5,2l-1.9,2.2l-0.1,0.1l0.1,0.1l1.8,3.4l-0.8,2.9
	l-2.7,0.1l-0.1,2.7l-2.1,0.7l-0.4,6l3.3,3.9l-2,4.8l-2.7,2.4l-3,1l-2-1.8l-3.8-0.5l-9.5-1L404,398l-0.7-4l-9-2l-1-1.6l-6,0.4
	L370.5,397.1L370.5,397.1z M433.7,378.3L432,375l1.9-2.1l0.1-0.1l0-0.1l-0.5-2l1.4-1.4l0.1-0.1l0-0.1l-0.1-0.6l2.6,0.1l0.1,0l0.1,0
	l4.5-3.2l2.8,3.8l0,0l0,0l8.9,7.1l0.1,0.1h0.1h4.3l3.2,4.1l0.4,3.4l0,0.2l0.2,0l4.6,0.9l0.6,2.5l0.1,0.3l0.2-0.1l4.4-1.5l0.1,0
	l0-0.1l0.9-3.1l6.8-3l0,0l0,0l2.1-2.4l0-0.1l0-0.1l0.8-4.3l2.8,0.3l0.1,0l0.1-0.1l2.5-3.4l3.8-1.2l0.1,0l0-0.1l2.5-4.1l0-0.1l0-0.1
	l0.1-2.2l2-0.5l0.1,0l0-0.1l0.8-2l0-0.1l0-0.1l-0.6-2l0.6-1.1l1.8-1.7l0,0l0-0.1l1.2-3.1l0-0.1l0-0.1l-0.9-3.2l-0.4-5.8l1.1-6l0,0
	l0,0l-0.4-2.5l0-0.2l-0.2,0l-2.3-0.3l-0.2,0l-0.1,0.1l-1.7,3.1l0,0l0,0l-1.1,6.6l-0.3,0.8l-1.7-4.1l0.5-4.8l2.7-3.2l0.2-0.2
	l-0.2-0.2l-3.2-2.7l-0.5-2.6l5.2-0.7l0.2,0l0-0.2l0.6-3l2.6,0.9l0.1,0l0.1,0l5.1-1.7l0.1,0l0-0.1l1.3-3l2.3,1.2l0.1,0h0.1h2.4
	l1.8,2.5l0.1,0.1l0.2,0l10.8-2.9l0.1,0l0-0.1l1.1-4.4l2,0.3l0.1,0l0.1-0.1l2.4-2.7l0.3,2.8l-2,2.8l-0.1,0.2l0.2,0.1l2,1.8l3.2,9.7
	l0,0.1l0.1,0l3.9,0.7l3.5,3.1l0.3,4.5l-5.6,2l-0.1,0l0,0.1l-2.2,5.1l-6.5,4.9l-0.1,0.1v0.1v3.6v0.1l0.1,0.1l3,2l-0.3,3.7l-2.8,3.5
	l-3.7,1.5l-0.1,0l0,0.1l-1.3,2.1l-4.3,0.3l-0.1,0l-0.1,0.1l-6.8,9l-3.6-0.5l-0.1,0l-0.1,0.1l-4,3.4h-6.6H497l0.1,0.3l1.3,3.9
	l-3.5,2.8l-0.2,0.2l0.2,0.2l3.6,3.9l-3.3,1.7l-0.1,0l0,0.1l-1.1,4.2l-3.5-0.1l-1.6-2.7l-6,0.4l-5.7-1.8l-7.4,4.4l-5.2,0.1l-7.4-3.9
	l-2.1-8.1l-10.2-2.4L433.7,378.3L433.7,378.3z M26.1,282.8l0.2,3.1l3.4,1.6l4.9-5.4l0.4-0.4l0.1,0.5l0.5,3.8l2.9-3.8l0.2-4l-2.1-1.7
	l-0.1-0.1l0-0.1l-0.2-3h-2.9h-0.1l-0.1-0.1l-2.1-3.3l-2.5-0.9l-0.4,2.7l2.9,3.4h0v0l2.6,1.6l0.3,0.2l-0.3,0.2l-3.9,2.9l0,0v2.1v0.2
	l-0.2,0L26.1,282.8L26.1,282.8z M49.6,277.5l-1.8,1.5l-0.2,0.2l-0.1-0.2l-1.3-2.3l-1.7,0.8l-0.2,1.5l0,0.1l-0.1,0.1l-1.6,1.6
	l1.4,1.3l0.1,0.1l-0.1,0.2l-1.4,2.6l1,1.5l0.2,0.3l-0.3,0.1l-2.6,1.1l-1.1,2.2l3.1,5.9l0.1,0.2l-0.2,0.1l-2.1,1.4l0.2,3.9l5.3,4.8
	h2.8h0.2l0.1,0.2l0.9,2.9l0,0.1l-0.1,0.1l-0.9,1.5l2.6,2.1l3,0.2l0.1,0l0.1,0.1l0.9,1.2l1.9-1.2l-0.8-1.6l-0.1-0.2l0.2-0.1l2.5-2
	l0.1-0.1l0.1,0l4.3,0.2l1.5-1.1l0.2-3.8l-0.9-3.7l-2.7-4.9l0-0.1l0-0.1l0.7-4.3l-2.5-4.3l0,0l0,0l-1-2.8l-2.4-0.7l-0.1,0l-0.1-0.1
	l-1.2-1.7l-1.8,0.3l-0.1,0l-0.1-0.1L49.6,277.5L49.6,277.5z M25.8,285.9l-0.2-3.1l0-0.2l0-0.2l0.2,0l0.2,0l3.2-0.3v-1.9h0v-0.1v-0.1
	l0.1-0.1l0.1-0.1L33,277l-2.3-1.4h0l0,0l0,0l0,0l0,0v0l-2.9-3.4l-0.1-0.1l-0.1-0.1l0-0.1l0-0.1l0.4-2.7l0-0.3l0-0.3l0.3,0.1l0.3,0.1
	l2.5,0.9l0.1,0l0.1,0l0,0.1l0,0.1l2,3.2h2.8h0.2h0.2l0,0.2l0,0.2l0.2,2.9l2,1.7l0.1,0.1l0.1,0.1l0,0.1l0,0.1l-0.2,4l0,0.1l0,0.1
	l0,0.1l0,0.1l-2.9,3.8l-0.4,0.5l-0.4,0.5l-0.1-0.6l-0.1-0.6l-0.4-3.3l-4.5,5l-0.1,0.1l-0.1,0.1l-0.2-0.1l-0.2-0.1l-3.4-1.6l-0.1-0.1
	l-0.1-0.1l0-0.1L25.8,285.9L25.8,285.9z M20.9,257.2l2.9-2.6l3.7,6.1l1.8-2.4l5-0.3l2.6,1.3l0.7-6.3l4.8,4.3l1.6,3.1l0.1,0.1h0.2
	h2.6l2.9,3.6l-2.3,4.4l-0.1,0.1l0.1,0.1l3,3.7l-0.7,1.3l0,0l0,0l-0.2,3l-1.7,1.4l-1.3-2.3l-0.1-0.2l-0.2,0.1l-2,0.9L44,277l0,0.1
	l-0.2,1.5l-1.8,1.8l-0.2,0.2l0.2,0.2l1.5,1.3l-1.4,2.5l-0.1,0.1l0.1,0.1l0.9,1.4l-2.4,1l-0.1,0l0,0.1l-2.3,4.6l-3.2-0.3l-1.9-2.6
	l-0.1-0.1l-0.2,0.1l-6.2,2.2l-1.4-2.3l-2.1,0.9l-1-1.4l0.9-8l0.4-4.8l-1.2-5.2l0.1-3.3l-2.1-1.6l-0.7-2l1.4-1.7L20.9,257.2
	L20.9,257.2z M27,291.5l5.9-2.1l1.9,2.6l0.1,0.1l0.1,0l3.4,0.4l0.2,0l0.1-0.2l1-1.9l2.8,5.4l-2,1.3l-0.1,0.1l0,0.1l0.2,3.9l-3.7-0.2
	l-0.1,0l-0.1,0.1l-3.3,2.5l-3.2-3.5v-3.3L27,291.5L27,291.5z M33.7,304l3.2-2.5l3.8,0.2l5.4,4.8l0.1,0.1h0.1H49l0.8,2.6l-1.8,3.2
	l-5.8-1.4l-0.1,0l-0.1,0l-4.5,1.4l0,0l0,0l-0.8-1.3l-0.1-4.2L33.7,304L33.7,304z M37.5,313L37.5,313l4.5-1.5l5.9,1.4l0.2,0l0.1-0.2
	l0.9-1.5l2.3,1.8l-2.9,1.3l-0.1,0l0,0.1l-1.2,3.9l-1.7,1.4l-2.4,0.8l0-0.8l-5.2-2.5L37.5,313L37.5,313z M43,321.2l2.6-0.9l0,0l0,0
	l1.8-1.5l0.1,0l0-0.1l1.2-3.9l1.3-0.6l1.5,5.7l-7.1,3.3l-1.4-1L43,321.2L43,321.2z M44.8,323.7l7.2-3.4l0.2-0.1l-0.1-0.2l-1.6-6
	l1.4-0.6l2.9,0.2l3.7,5.3l0.1,0.1l0.1,0l2.7,0.5l0.8,3.1l-1.9,0.8l-2.3-0.2l-0.2,0l-0.1,0.1l-2.8,5.4l-2.1-1.8l-0.2-0.2l-0.2,0.2
	l-1.4,1.5l-5.1-0.4l-0.4-1.9L44.8,323.7L44.8,323.7z M45.9,328.6l5.4,0.5l0.1,0l0.1-0.1l1.3-1.5l2.2,1.8l0.2,0.2l0.1-0.3l2.8-5.5
	l2.2,0.2l0.1,0l0.1,0l2.2-0.9l0.2-0.1l-0.1-0.2l-0.9-3.4l0-0.1l-0.2,0l-2.8-0.5l-2.6-3.7l2.1-1.3l0.2-0.1l-0.1-0.2l-0.8-1.6l2.3-1.8
	l4.3,0.2l0.1,0l0.1-0.1l1.5-1.1l4,4l0.9,2.3l-3,2.3l0.7,2.7l-0.5,6.3l-6.3,6l-1.7,9.8v6.9l-2.5,1.6l-2.1-0.7l-2-1l-0.9,1.6l-1.6,0.7
	l-3.3-4l0.7-2.6l0.3-5.5l-3.7-5.2l-0.3-3.9L45.9,328.6L45.9,328.6z M71.1,315l-0.9-2.4l0-0.1l0,0l-4.1-4.1l0.2-3.9l0,0l0,0l-0.9-3.8
	l0,0l0,0l-2.7-4.8l0.7-4.3l0-0.1l0-0.1l-2.5-4.3l-1.1-2.9l0-0.1l-0.1,0l-2.5-0.7l-1.2-1.7l-0.1-0.1l-0.2,0l-1.9,0.3l-1.8-2.2
	l1.6-1.8l2.7,1l0.2,0.1l0.1-0.2l1-1.6l1.8,0.8v3.3v0.2l0.1,0.1l2.6,1.2v3.1v0.1l0,0.1l1.5,2.4l0.1,0.1l0.2,0l3.4-0.4l0.1,0l0.1-0.1
	l1-1.9h5.1h0.1l0.1-0.1l3.3-3.6l0.1-0.1l0-0.1l-0.2-2l0-0.2l-0.2,0l-2.9-0.3l-0.1-2l6.4,0.7l0.2,0l0.1-0.2l0.7-1.8l1.8,0.1l0.7,3.3
	l0,0.2l0.2,0l2.6,0.3l1.4,3.6l-1.4,6.8l0,0.1l0,0.1l1.8,3.2l-1.8,5.2l0,0.1l0,0.1l0.7,2.9l-2.9-0.3l-0.1,0l-0.1,0l-1.6,0.7l-1.2-1.8
	l-0.2-0.3l-0.2,0.3l-1.3,1.6l-0.1,0.1l0.1,0.1l1.7,4l-2.1,1.7l-2.2,1.2l-0.2,0.1l0.2,0.2l2.6,3.6l-3.9,1.8L71.1,315L71.1,315z
	 M79.7,313.4l4.1,1.5l11-0.3l-0.9-4.3l2.7-0.5l2.1-11.7l-1.8-2.5l-2.7-0.7l0.4-2.2l3.4-3.1l-3-4.2l1.5-0.8l1.9-0.8l-1.9-3.5
	l-7.5-1.6l-2,1.3l1.4,3.6l0,0.1l0,0.1l-1.4,6.8l1.8,3.2l0.1,0.1l0,0.1l-1.8,5.2l0.7,3.2l0.1,0.3l-0.3,0l-3.2-0.4l-1.7,0.7l-0.2,0.1
	l-0.1-0.2l-1.2-1.7l-1,1.2l1.7,4l0.1,0.2l-0.1,0.1l-2.3,1.9l0,0l0,0l-2,1.1L79.7,313.4L79.7,313.4z M98.7,283.5l4.4-1.5l0.7-3.4
	l3.8-2.1l4-1l1.5-0.4l-0.1-5.6l-2.5-0.5l-0.1,0l-0.1-0.1l-1.2-1.7l0-0.1l0-0.1l-0.1-3.3l-1.5,0.7l-0.1,0l-0.1,0l-1.9-0.1l-0.2,0
	l0-0.2l0.1-2.4l0-0.1l0.1-0.1l1.9-2.2v-3l-4.3-4.2l-2.5-0.5l-0.1,0l-0.1-0.1l-1.7-2.3l0-0.1l0-0.1l-0.3-3.2l-3.6-1.3l-0.1,0l0-0.1
	l-1.5-3l-1.9,0.6l-0.1,0l-0.1,0l-3.8-0.5l-0.4,2.6l0,0.1l-0.1,0.1l-3.6,2.2l0.7,6.6l0,0.1l-0.1,0.1l-4,2.6l0.5,5.1l0,0.1l0,0.1
	l-1.6,3.3l-0.1,0.1l-0.1,0l-2.9,0.2l-0.1,0l-0.1-0.1l-1.3-1.3l-3.4,2l1.7,2.5l0.1,0.1l0,0.1l-1.4,5.1l2.6,3.6l6.4,0.7l0.7-1.8
	l0.1-0.2l0.2,0l2.2,0.2l0.2,0l0,0.2l0.7,3.3l2.5,0.3l2.2-1.4l0.1-0.1l0.1,0l7.7,1.6l0.1,0l0.1,0.1L98.7,283.5L98.7,283.5z
	 M71.5,244.9l3.1,1.7l2.5,1.6l0.1,0.1l0.1-0.1l2.3-1.6l3.2,0.2l0.7,6.4l-4,2.6l-0.1,0.1l0,0.1l0.5,5.2l-1.5,3.1l-2.7,0.2l-1.4-1.4
	l-0.1-0.1L74,263l-3.8,2.2l-0.2,0.1l0.1,0.2l1.8,2.6l-1.4,5.2l0,0.1l0.1,0.1l2.7,3.8l0.2,2.5l0,0.2l0.2,0l2.9,0.3l0.2,1.7l-3.1,3.5
	h-5.1h-0.1l-0.1,0.1l-1,1.9l-3.2,0.3l-1.3-2.2v-3.2v-0.2l-0.1-0.1l-2.6-1.2v-3.3v-0.2l-0.2-0.1l-2.2-0.9l-0.2-0.1l-0.1,0.2l-1,1.6
	l-2.7-1l-0.2-0.1l-0.1,0.1l-1.6,1.9l-1.8-2.2l0.2-2.9l0.7-1.4l0.1-0.1l-0.1-0.1l-3-3.7l2.3-4.4l0.1-0.1l-0.1-0.1l-3.1-3.8l-0.1-0.1
	h-0.1h-2.6l-1.3-2.5l2.1-1.6l3.7,2.2l2.1-1.4l-7-4.2l3.3-3.4l7,0.9l3,4.4l4.2-1.6l2.5-4.4l2.1-0.3l1.6-2.3l4,0.1L71.5,244.9
	L71.5,244.9z M40.4,104.6l8.8,19.1l5.5-2.9l0.5-10.5l-2.6-4.1l-1.2,4.8l-2.6-1.7l-2.1-6.2l-2.6,1.7L40.4,104.6L40.4,104.6z
	 M219.5,135.9l-3.9,3.5l-1.8-3.4l2.6-0.5l-3.3-6.1l-5,0.8l-5-1.7l-6.1,0.9l-3.4,8.5l-2.5-1.4l-3.5-8.2l0.5-6.4l-5.7,0.7l-1.6,5.5
	l2.5,3l-2.4,3.1l-3.8-2.1l-0.7-4.4l-0.1,0.1l-1.9,2.1l-0.1,0.1l-0.1,0l-1.6-0.3l0,0l-2.2-0.6l-0.3,1.7l0,0.1l-0.1,0.1l-3.5,3.5
	l-0.8,2.7l1.1,1.9l1,1.6l0.1,0.2l-0.1,0.1l-3.7,3.8l-0.8,3.6l0,0.2h-0.2h-2l-1.5,1.7l0,0l-3.3,3.8l-0.6,4.7l8.5,9.6l2.9,2.7l3,1.9
	l0,0l0,0l3.2,3.6l5.1,0.2l0.2,0l0.1,0.1l2,5.1l1.5-0.7l0.1,0l0.1,0l2.9,1l0.2,0.1l-0.1,0.2l-0.9,2.4l2.7,1.4l0.1,0.1v0.2v2.8
	l2.8-0.4l0.1,0l0.1,0.1l2.3,2.7l0,0.1l0,0.1l0.3,3.3l2.2-1.8l0.1-0.1l0.1,0.1l3.4,1.4l2.5-1.9l0.2-3.4l0-0.1l0.1-0.1l7.8-6.2
	l-1.9-3.8l-3.1,1l-1.6,1.9l-0.1,0.1l-0.2-0.1l-3.9-1.6l-0.2-0.1l0-0.2l0.2-2.6l0-0.1l0-0.1l3.1-4l0.1-0.1l0.1,0l3.6-0.1l-0.1-1.6
	l-1.1-1.9l-0.1-0.2l0.1-0.1l2.4-2.4l0.8-3.5l-2.7-4.4l-0.1-0.1l0.1-0.1l1.3-1.9l0.1-0.2l0.2,0.2l9.8,7.6l0.1,0.1l0,0.1l0.6,2.7
	l3.7-0.2l0.1,0l0.1,0l3.9,2.5l2.8-1.6l-0.8-3.2l0-0.1l0-0.1l1.1-2l-1.7-2.6l-0.1-0.1l0.1-0.1l4.9-6.3l-1.9-2.8l-3.8-0.5l-0.1,0
	l-0.1-0.1l-4.2-6.3l0,0l0-0.1L219.5,135.9L219.5,135.9z M289,133.3l1.2-11.6l0.9-4.4l3.8-4.1l4.6-1.5l1.8-2.6l-1.1-3.2l3.4,2.1
	l3.1-0.3l0.8-2.3l2,0.2l0.2-2.3l2.4,0.9l0.5-2.3l1.8,2l1.4-1.8l0.5-2.7l2.6,1.8l1.7-1.5l3.5,0.8l2.9-3.4l22.3-0.5l5.3-2.9l0.6-4
	l-2.3-2.7l-5.3,1.4l-0.9,2l-9.2-0.8l-4-3.4l-3.5,2l-3.5-1.5l-4.4,2.9h-3.7l-1.8,1.5l-2.4-2.6l-1.2,5.3l-2.7,0.2l-0.3,2.1l-6.9,2.1
	l-2.4-1.1l-1.5,1.8l2,2l-2.7,2.6l-4.4-1.8l-0.6,3.4l-3.2-0.2l-0.2,2.6l-4.4,2.3l-2.7-0.9l-3.1,2.3l-0.2,3.4l2.9,2.9l0.2,4.4
	l-2.7,2.7l2.1,4.7l2.4,0.3l0.2,2.1l2.7,0.6L289,133.3L289,133.3z M249.7,129.3l2.2,3l5.3,0.1l0.6-2l-0.3-3l-2.8-3l-4,1.4
	L249.7,129.3L249.7,129.3z M294.5,147.3l-2.9,0.3l-2.3-3.8l0.6-3.5l3.7-0.9l1.1,4L294.5,147.3L294.5,147.3z M306,160.8l-3.1,2.6
	l-0.2,0.1l0.1,0.2l1.7,3.1l-1.7,3l-2-0.4l-0.2,0l-0.1,0.1l-1.1,1.7h-2.1h-0.1l-0.1,0.1l-2.7,2.5l-3.3-0.8l-0.1,0l-0.1,0.1l-2.6,2.9
	l-7.3,0.6l-32.4-23.1l-0.1-0.1l-0.1,0l-3.2,1l-13.9-1.5l-2-3l-0.1-0.1l-0.1,0l-3.8-0.5l-4.1-6.2l-1.5-7.8l3.7-3.4l0.7-3.9l7.8-5.1
	l1.7-6.1l5.7,6.3l0.1,6.1l-2.1,3.4l-4.3-3l-4.7,1.6l1.2,3.4l-1.2,3.4l3.9,3.8l7.6-4.4l2.1,2l1.8-1.8l14.4,3.5l1.3,2.4l2.6-3.1
	l5.6,1.3l-2.2,4.3l-4.2,0.4l2.5,3.4l7-0.7l4.6,3.4l9.3,0.1v2.9l-2.9,2.6l2.5,2l1.3-2l2,0.4l3.5-2.1l0.1-4.3l0.7-2.9h5l6.5,7
	L306,160.8L306,160.8z M279.1,121.7l-0.3-4.4l2,0.5v2.7L279.1,121.7L279.1,121.7z M182,118l1,1.1l1.4-0.9l-0.4-1.6l-1-0.8l-0.8,1.1
	L182,118L182,118z M231.4,153.5l14,1.5l0,0l0,0l3.1-1l32.3,23.1l0.1,0.1l0.1,0l7.5-0.6l0.1,0l0.1-0.1l2.5-2.9l3.3,0.8l0.1,0l0.1-0.1
	l2.8-2.6h2.1h0.1l0.1-0.1l1.1-1.7l1.7,0.3l-1.6,2.9l-0.1,0.1l0,0.1l1.4,4.5l-2.1,3.3l-3.5,1.2l-0.1,0l0,0.1l-2.4,2.7l-9,0.4l-0.1,0
	l-0.1,0l-4.6,3.8l-6.3,0.1l-0.1,0l-0.1,0.1l-4.1,3.6l-3.5,0.2l-1.3-2l-0.2-0.2l-0.2,0.2l-6.2,5.5l-0.1,0l0,0.1l-0.9,3.4l-6.2,5.6
	l0,0l0,0l-8.3,14.3l-4.6-0.6l-7.5-6.2l-0.1-0.1l-0.1,0.1l-2.7,1.5l-6.9-0.8l-5-2.6l-4.5-5.1l-0.1-0.1l-0.1,0l-6.1-0.6l-0.2,0
	L205,206l-1.8,4.5l-3.2,1.5l-9.2-3.5l-0.2-0.1l-0.1,0.1l-3,3.4l-1.2-0.9v-5.4l0,0l0,0l-0.7-1.7l7.3-8.1l2.5-2l3.4,1.4l0.1,0.1
	l0.1-0.1l2.7-2.1l0.1-0.1l0-0.1l0.2-3.4l7.8-6.2l0.2-0.1l-0.1-0.2l-2.1-4.2l-0.1-0.2l-0.2,0.1l-3.4,1.1l-0.1,0l0,0.1l-1.5,1.8
	l-3.6-1.5l0.1-2.3l3-3.9l3.8-0.2l0.3,0l0-0.3l-0.2-1.9l0-0.1l0,0l-1-1.8l2.3-2.3l0-0.1l0-0.1l0.8-3.7l0-0.1l-0.1-0.1l-2.7-4.4
	l1.1-1.6l9.6,7.4l0.6,2.8l0,0.2l0.2,0l3.8-0.2l4,2.5l0.1,0.1l0.1-0.1l3.1-1.8l0.2-0.1l0-0.2l-0.8-3.3l1.1-2l0.1-0.1l-0.1-0.1
	l-1.7-2.6L231.4,153.5L231.4,153.5z M176.4,127.1l-0.3,0.1l0,0l0,0l-1.8,2l-1.5-0.3l-2.4-0.6l-0.3-0.1l0,0.3l-0.3,1.9l-3.5,3.5l0,0
	l0,0.1l-0.8,2.9l0,0.1l0,0.1l1.1,1.9l0,0l0.9,1.5l-3.6,3.7l0,0.1l0,0.1l-0.8,3.5h-1.9H161l-0.1,0.1l-1.5,1.7l-2.1-0.7v-3.4v-0.2
	l-0.2,0l-2.6,0l1-3.7l3.9-4.4l2.3-2.2l0.1-0.1l0-0.1l0.5-3.1l0-0.1l0-0.1l-1-1.8l-0.1-0.1l-0.1,0l-3.1-0.7l-0.1,0l-0.1,0.1l-5.3,5.8
	l0,0l0,0l-1.5,2.9l0,0.1l0,0.1l0.3,4.1l-0.5,1.3l-3.3-4.3l-0.1-0.1l-0.1,0l-2.1-0.4l-1-3.4l-0.1-0.2l-0.2,0l-1.7,0.2l-0.2,0l0,0.2
	l-0.2,1.9l-0.7-0.2l-0.8-1.5l-0.1-0.2l-0.2,0.1l-1.4,0.4l-0.2,0l0,0.2l-0.1,2.3l-1.1-0.2l-0.8-1.7l0.6-1.6l2.1-1.6l0.1-0.1l0-0.1
	l0.4-2.8l0,0l0,0l-0.2-3.2l1.4-1.7l0.1-0.1l0-0.1l0.1-2.9l0-0.1l0-0.1l-1.6-2.3l-0.1-0.1l-0.1,0l-4.1-0.6l0,0l0,0l-3.1,0.6l-0.2-3.7
	l5.8-0.2l12.8,1.7l2.9-1.2l0.9-6.9l1.3-4.6l4.8,0.8l1.4-1.4l-1.2-2.2l2.1-1.6l1.2-2.2l1-2.6l2.6,0.1l3.7-2.5l2.9,0.1l5.6-7l4.7,6.3
	l-0.8,3.9l0,0.2l0.2,0.1l4.1,2.1l0.9,1.6l-0.9,5.9l-2.3,4l-4,1.3l-4.8,6l-1.6,2.9l1.7,2.4l-0.4,1.8L176.4,127.1L176.4,127.1z
	 M188.6,99.9l-0.7-1.2l0-0.1l-0.1,0l-4-2l0.8-3.9l0-0.1l-0.1-0.1l-4.9-6.5l2.2-2.8l6.7-0.1l3.4-5.5l-0.1-3.9l5-2.9l2-1.4l9.9,0.9
	l6.9,4.7l1.8,3.5l-2,1.3l-2-2.7l-1.4,0.9l0.5,4l3.3,5.2l1.3,4.3l-0.3,11.7l2.1,8.1l-1.3,6.8l-4.7,6.4l-6.3,1.2l-10.2-6.1l-0.7-4.3
	l-2.7-4.2l-0.5-6.9l-2-4.2l0.7-4.7l-1.6-2.2L188.6,99.9L188.6,99.9z M131.1,116.2l-4.3,0.2l-5.4,2l-0.3,4.3l0.5,2l-1.6,1.3l-1.2-3
	l-2.1-0.1l-3.3-3.1l-4,2.6l-2.7,0.3l0.2,3.7l1.9,3.1l0.1,0.1l0,0.1l-1.5,4.6l0.7,2.3l2.5-1.3l0.1-0.1l0.1,0.1l1.7,0.8l0.1,0l0,0.1
	l1.3,2.3l2.3-0.3l0.1,0l0.1,0.1l1.5,1.3l1.3,0.1l0.7-0.9l0.1-0.1l0.2,0.1l2.5,0.8l0.2,0l0,0.2l0.2,2l0,0.1l0,0.1l-0.7,1.3l0.7,1.2
	l2.8,0.1l0.2,0l0,0.2l0.4,1.5l1.6,0.2l0.3,0l-0.1,0.3l-0.5,2.4l1.6,3.1l0,0l0,0l0.3,2.8l2.1-1.1l0.1,0l0.1,0l4.1,0.3l2.5-5.2l0-0.1
	l0,0l3.9-3l0,0l0,0l2.5-0.8l0,0h0l3.4,0.1l1.8-1.4l-3.3-4.3l-2.1-0.4l-0.1,0l0-0.1l-1-3.3l-1.3,0.1l-0.2,2l0,0.3l-0.3-0.1l-1.1-0.2
	l-0.1,0l-0.1-0.1l-0.8-1.4l-1,0.3l-0.2,2.4l0,0.3l-0.3-0.1l-1.5-0.3l-0.1,0l-0.1-0.1l-0.8-1.8l-4.1,0.1l-0.1,0l-0.1-0.1l-1.6-2.4
	h-3.9h-0.1l-0.1-0.1l-1.1-1.3l-0.1-0.2l0.1-0.2l6.7-8.1L131.1,116.2L131.1,116.2z M106.3,122.6l0.2,3.8l0,0.1l0,0.1l1.9,3.1L107,134
	l-1.4,1.2l-0.1,0l0,0.1l-0.8,2l0,0l0,0l0.1,6l-4.5,1.5l-0.1,0l0,0.2l-0.3,2.1l-1.5,0.1l-0.2,0l0,0.2l-0.4,1.6l-2.5,2.5l0,0l0,0.1
	l-0.9,3.7l-1.6,2.4l-4,0.8l-1.1-0.6l-0.1,0l-0.1,0l-2.1,0.5l-0.2,0l1-1.8l-0.7-3.3l-3.1-0.8l-0.5-2.2l2.2-2.7l-2-2.5l-0.3-4.6
	l4.8-3.1l0.1-3.5l3.3-0.4l2.7-4.6l4.6,0.3l2.3-3.3l4-3.1L106.3,122.6L106.3,122.6z M135.3,169.8l-0.6-4.9l0-0.2l-0.2,0l-4.1,0
	l0.2-2.1l0,0l0,0l-0.7-2.4l0-0.1l0,0l-1.8-1.9l1.7-2.6l2.3-1.3l4.2,0.3l0.2,0l0.1-0.2l2.5-5.3l3.9-2.9l2.4-0.8l1.6,0l1.7,1.8
	l0.1,0.1l0.1,0l3.6,0.2l0.1,0l0.1-0.1l1.7-1.7l2.6,0v3.3v0.2l0.2,0.1l2.1,0.7l-3.1,3.6l0,0.1l0,0.1l-0.6,4.8l0,0.1l0.1,0.1l8.6,9.7
	l0,0l0,0l2.9,2.7l0,0l0,0l3,1.9l3.2,3.7l0.1,0.1l0.1,0l5,0.2l2,5.2l0.1,0.2l0.2-0.1l1.7-0.8l2.6,0.9l-0.9,2.3l-0.1,0.2l0.2,0.1
	l2.8,1.4v2.8l-4,2.6l-3.8-0.2l-0.2,0l-0.1,0.2l-0.6,1.6l-0.1,0.2l0.1,0.1l2.6,2.4l-2.9,3l-1.8-1.8l-0.1-0.1l-0.1,0l-4.1,1l-6-3.5
	l-3.7-6.9l0-0.1l-0.1,0l-5.7-3.5l-0.1,0l-0.1,0l-8.7-0.4l-3.2-3.1l1.2-4.4l0-0.1l-0.1-0.1l-2.5-3.1l-0.1-0.1l-0.1,0l-2.1,0.1
	L135.3,169.8L135.3,169.8z M107.1,134.6l0.7,2.3l0.1,0.3l0.3-0.1l2.7-1.3l1.5,0.7l1.4,2.4l0.1,0.1l0.2,0l2.3-0.3l1.5,1.3l0.1,0.1
	l0.1,0l1.5,0.2l0.1,0l0.1-0.1l0.6-0.8l2.1,0.7l0.1,1.7l-0.7,1.3l-0.1,0.1l0.1,0.1l0.8,1.5l0.1,0.1l0.1,0l2.8,0.1l0.4,1.5l0,0.2
	l0.2,0l1.5,0.2l-0.4,2.2l0,0.1l0,0.1l1.6,3.2l0.3,3l-1.8,2.7l-0.1,0.2l0.1,0.1l1.9,2l0.7,2.3l-0.2,1.9l-4.1-3.6l-0.1-0.1l-0.1,0
	l-2.6,0.2l-3-2.4l-0.6-2.3l0-0.1l-0.1-0.1l-2.5-1.8l-0.1-0.1l-0.1,0.1l-1.1,0.8l-0.1,0.1l0,0.1l-0.4,2l-5.4-0.5l-1.9-1.7l0,0l-0.1,0
	l-5.6-1.5l-2.9-2.1l-1.5-1.6l0.7-0.7l0,0l0-0.1l0.4-1.5l1.5-0.1l0.2,0l0-0.2l0.3-2.1l4.5-1.5l0.2-0.1l0-0.2l-0.1-6.1l0.7-1.9
	L107.1,134.6L107.1,134.6z M277.2,189.9l-0.3,7.5l-3.6,5l-0.1,0.1l0.1,0.1l2.4,5.1l0.1,0.1l0.1,0l8.7,0.7l4,3.1l0.1,4.2l0,0.1
	l0.1,0.1l1.6,1.5l0.1,0.1l0.1,0l9.9,0.5l2.9,3.7l0.3,6.3l0,0.1l0,0.1l1.7,2.2l-0.1,4.3l0,0.3h0.2h6.7l5.9,5.4l0,0l0,0l8.2,3.6l3,5
	l0,0.1l0.1,0l5.5,3.3l0,0l0.1,0l5.6,0.5l0.1,0l0.1-0.1l4.4-3.2l4,3.7l0.1,0.1l0.1,0l4.1-0.1l3.1,4.6l0.1,0.1l0.1,0l1.6,0.1l3.1,3.1
	v6.4v0.1l0.1,0.1l5.2,3l-0.8,2.1l-4.5,1.9l-4.1,0.5l-3.7-2.6l-0.1-0.1l-0.1,0.1l-7.1,4.1l-5.9-4.3l-0.1,0h-0.1l-8.5-0.1l-5.5-3.7
	l0,0l0,0l-4.1-1.2l-0.1,0l-0.1,0.1l-3.9,2.9l-0.1,0l0,0.1l-2.7,8.7l-3.1-0.4l-0.1,0l-0.1,0l-2.7,1.7l-0.1,0.1l0,0.1l-0.5,2.7
	l-4.4,2.5l-8-6l-3.8-7.4l-2.8-6.4l0-0.1l-0.1,0l-2.3-0.5l-4.6-1.9l-2.5-2.4l-0.3-0.3l-0.1,0.3l-0.8,2l-3.6-0.1l-0.1,0l-0.1,0.1
	l-0.9,1.1l-2.2,1.2l-1.8-0.4l-0.1,0l-0.1,0.1l-1.2,0.9h-2.2l-3.1-1.3l-0.2-0.1l-0.1,0.2l-1.3,2.5l-4,0.8l-1.8-2.8l0.2-2.6l0.7-5.1
	l0-0.2l-0.1-0.1l-5.1-3.3l-0.8-2l2.9-3.5l0.1-0.1l0-0.1l-0.6-3.1l-1-5.2l2.4-3.4l0-0.1l0-0.1l-0.1-4.1l0,0l0,0l-2.8-6.8l0-0.1
	l-0.1,0l-4.7-2.8l-0.7-3.2l0-0.1l0,0L245,218l6.9-11.8l6.3-5.6l0.1,0l0-0.1l0.9-3.4l5.9-5.3l1.2,1.9l0.1,0.1l0.1,0l3.7-0.2l0.1,0
	l0.1-0.1l4.1-3.6L277.2,189.9L277.2,189.9z M244.7,218.4l1.3,1.3l0.7,3.3l0,0.1l0.1,0.1l4.7,2.8l2.8,6.7l0.1,3.9l-2.4,3.4l-0.1,0.1
	l0,0.1l1,5.3v0l0.6,3l-2.9,3.5l-0.1,0.1l0.1,0.1l0.9,2.2l0,0.1l0.1,0l5,3.2l-0.7,4.9v0l-0.2,2.7l0,0.1l0,0.1l1.9,2.8l-2.6,4.4
	l-7.4-0.2l-0.2,0l-0.1,0.1l-2.1,4.4l0,0.1l0,0.1l0.1,4l-1.8,0.5L240,280l-0.1,0l-0.1,0.1l-2.5,1.3l-2-2.6l0-0.1l-0.1,0l-4.7-1.6
	l-0.1,0l-0.1,0l-5.2,1.6l-0.3-1.4l0-0.1l-0.1-0.1l-2.1-2l-0.1-0.1l-0.2,0.1l-1.1,0.7l-1.6-0.4l-7.5-6.4l-0.1-0.1l-0.1,0l-1.5,0.4
	l-1.4-0.2l-4.4-2l-1.8-1.5l-0.7-2.2l3.9-4.7l4.6-0.5l0.1,0l0.1-0.1l2.8-4.4l2,2.2l0.1,0.2l0.2-0.1l2.1-1.4l0.1-0.1l0-0.1l0.7-3.1
	l5-0.2l0.1,0l0.1-0.1l1.5-1.8l0-0.1l0-0.1l0.4-3.5l2.3-2.7l0.1-0.1l-0.1-0.1l-1.7-3.3l0.1-2.4l5.3-2.4l0,0l0,0l6.3-6.2l0,0l0,0
	l4.2-5.5l0,0l0,0l0.9-2.1L244.7,218.4L244.7,218.4z M192.6,313l1.5-2l5-0.4l0.4-3.5l2.3-1.3l2.5,0.1l3,2.3l1.8-1.7l-2.2-3.7l-1-3.7
	l2.5-2.6l2.2-0.7l3.4,3.7l7,0.4l0,0l0,0l0,0l1.9-3.5l-5.2-3.1l-0.1-0.1l0-0.1l0.2-2.8l0-0.1l0.1-0.1l7-5.2l0.1-4.5l-0.6-3.2
	l-1.9-1.8l-1,0.6l-0.1,0.1l-0.1,0l-1.8-0.4l-0.1,0l0,0l-7.4-6.4l-1.3,0.3l-0.4,2.5l0,0l0,0l-1.6,2.9l0.2,1.5l1.6,2.1l0.1,0.1
	l-0.1,0.1l-0.9,1.8l0,0.1l-0.1,0l-1.4,0.8l-0.2,0.1l-0.1-0.1l-2.6-2.5l-1-0.7l-1.5-0.1l-1.8,0.8l-0.1,0.1l-0.1-0.1l-1.5-1.2
	l-0.1-0.1v-0.1l-0.1-3.2l-1.3-1.8l-1.6-0.1l-3.1,1.9l-0.8,2.3l1.8,4l1.5,1.2l6.8,2.2l1.5-0.8l0,0l1.1-0.5l0.2-0.1l0.1,0.1l2,2.1
	l0.2,0.2l-0.2,0.2l-1.4,1.1l0,0l0,0l-2.1,0.6l-0.8,2.8l-0.1,0.2h-0.2h-1.3h-0.1l-0.1,0l-2.1-1.1l-4.2,2.3l-2.5,4.3l-0.4,2.6l0,0.2
	l-0.2,0l-3.1,0.7l-0.3,2.1l0,0l-0.3,2.2l5.1,1.6l0.1,0l0,0.1l1.1,2.3l0,0.1l0,0.1l-0.5,1.6l0,0.1l-0.1,0l-1.9,1.5L192.6,313
	L192.6,313z M221.5,300.2l7.4,1.7l4.2,2.6l2.5-2l3.7,2l12.3,2.4l4.5-2l0-0.1l-0.3-2.3l-4.2-3.7l-0.1-0.1l0-0.1l-0.1-2.7l-2.8-2.5
	l-3.2-1l-0.1,0l0-0.1l-0.7-2.7l-1.7-3.9l0-0.1l0-0.1l0.7-3.3l-3.5-1.7l-2.6,1.3l-0.2,0.1l-0.1-0.2l-2.1-2.7l-4.5-1.6l-5.1,1.6
	l0.3,1.4l0,0l0,0l-0.1,4.7l0,0.1l-0.1,0.1l-7,5.2l-0.2,2.5l5.3,3.2l0.2,0.1l-0.1,0.2L221.5,300.2L221.5,300.2z M256.4,304.7l3.7-0.1
	l3,5.1l2.4,0.4l0.1-0.1l0.8-2.1l0-0.1l0,0l4.3-4l0.7-3l0-0.1l0,0l2.6-2.8l0.1-0.1l0.1,0l3.2,0.6l0.8-1.3l0.5-2.3l-0.9-2.4l-2.7-1
	l-0.1,0l0-0.1l-0.4-1.5l0-0.1l0.1-0.1l1.3-1.6l0.4-4l0-0.1l0.1-0.1l4.6-4.5l0.2-0.2l0.2,0.2l2.6,2.6l0.1,0.1l-0.1,0.2l-1.4,2
	l1.8,0.3l0.1,0l0,0l4.7,3.3l3.6-0.5l0.1,0l0.1,0l3.3,1.9l3.3,0.1l4.4-3l-7.9-5.9l0,0l0,0l-3.8-7.5l0,0l-2.8-6.3l-2.2-0.5l0,0l0,0
	l-4.6-1.9l0,0l0,0l-2.3-2.2l-0.7,1.8l-0.1,0.2l-0.2,0l-3.7-0.1l-0.9,1l0,0l0,0l-2.3,1.2l-0.1,0l-0.1,0l-1.8-0.4l-1.1,0.9l-0.1,0.1
	H269h-2.3h0l0,0l-2.9-1.3l-1.3,2.4l-0.1,0.1l-0.1,0l-4.1,0.8l-2.7,4.6l-0.1,0.1l-0.1,0l-7.4-0.2l-2,4.2l0.1,4.1l0,0.2l-0.2,0.1
	l-2,0.5l-0.7,3.3l1.7,3.9l0,0l0,0l0.7,2.6l3.1,0.9l0.1,0l0,0l2.9,2.6l0.1,0.1l0,0.1l0.1,2.7l4.2,3.7l0.1,0.1l0,0.1L256.4,304.7
	L256.4,304.7L256.4,304.7L256.4,304.7z M365.1,149.3l0,0.5l0,0l0,0l3,6.3l-3.2,0.5l-0.2,0l0,0.2l-0.8,4.3l0,0.1l0,0.1l3.1,6.5
	l-0.7,2.9l-7.3,3.3l-0.1,0l0,0.1l-1,3.9l0,0.1l0.1,0.1l4.9,6.4l0.1,0.1l0.1,0l5.3,1.3l1.1,6.4l-2.1,5.4l-5,1.4l-0.3,0.1l0.1,0.3
	l1.6,3.7l-1.6,4.7l0,0.1l0.1,0.1l3.9,5.1l-1,9.2l0,0.1l0.1,0.1l3.1,4.3l-1.2,6.7l0,0.1l0.1,0.1l4.7,3.5l0.8,4.6l-4.1,5.7l0,0.1
	l0,0.1l-0.4,5.1l-6.2,7.9l-3-3l-0.1-0.1l-0.1,0l-1.6-0.1l-3.1-4.6l-0.1-0.1l-0.1,0l-4.2,0.1l-4.1-3.8l-0.1-0.1l-0.2,0.1l-4.5,3.3
	l-5.5-0.5l-5.4-3.3l-3-5l0-0.1l-0.1,0l-8.2-3.6l-6-5.4l-0.1-0.1h-0.1h-6.5l0.1-4.1l0-0.1l-0.1-0.1l-1.7-2.2l-0.3-6.3l0-0.1l-0.1-0.1
	l-3.1-3.9l-0.1-0.1l-0.1,0l-9.9-0.5l-1.5-1.3l-0.1-4.2l0-0.1l-0.1-0.1l-4.1-3.2l-0.1,0l-0.1,0l-8.7-0.7l-2.3-4.8l3.5-4.9l0-0.1
	l0-0.1l0.3-7.6l2.9,0l0.1,0l0.1-0.1l4.6-3.8l9-0.4l0.1,0l0.1-0.1l2.4-2.8l3.6-1.2l0.1,0l0-0.1l2.2-3.4l0.1-0.1l0-0.1l-1.4-4.5
	l3.6-6.4l0.1-0.1l-0.1-0.1l-1.7-3l2.9-2.4l5.1,8.2l1.3,5.6l1.6,2.5l4.8-4.4l-1.4-2.1l-0.7-2.3l1.3-3.7l-3.8-3.9l0.1-2l4.3-1.3
	l3.1-5.6l-2.9-3.8l2.9-2.7l5.5-1.3l3.7-3.5l4.7-6l3.9-3l2.6,1l-0.9-2.2l0.3-3.7l4.1,0.3l0.6,5l-4.2,0.5l4,5.4l-1,6.9l-5.2,5l0.9,4.3
	l-0.9,3.3l-8,18.9l0.8,5.1l-4.7,9.4l-6.9,4.4l-4.3,1.7l-8.2-3.8v3.7l12.3,7.6l3.7-3.9l5.4-2l5.9-6l0.4-7.7l3.5-3.4l6.4,0.9l1.8,5.5
	l-4.2,7.3l1.6,5.9l5.6-1.3l-3-1.7l-1-2.1l3.8-4.6v-6.1l-5.4-6.4H339l-0.4-6.1l6.4-10.1l-0.1-10.3l2.6-3.9l2.7-0.8l2.6-2.3l1.7-4.7
	l1.4-0.7l-0.5,6.9l-3.5,4.3l0.3,4.7l8.4,7.4l-0.3-4.3l-4.6-5l1.2-4l4.3,3.9l1.3-4.7L365.1,149.3L365.1,149.3z M360.1,147.7l0.7-1.4
	l2.7-1.5l0.9,3.3l-2.2,0.4L360.1,147.7L360.1,147.7z M354.3,138.3l1.8,0.2l0.3-1.2l-1.2-1.3l-1.5,0.5L354.3,138.3L354.3,138.3z
	 M203.3,210.9l4,5.3l0.2,3.6l-6.8,2.8l-0.1,0.1v0.2v2.6v0.1l0.1,0.1l1.8,1.6l-1.6,2.1l-2,2.3l-1.2-0.9l-1.5-1.7l-0.1-0.1l-0.1,0
	l-1.9,0.4l-2.5-2.4l-0.1-0.1l-0.1,0l-4.3-0.2l-0.2,0l0,0.2l-0.1,1.6l-0.2,1.8l-2.6,2.2l-2.1-1l0,0l0,0l-2-0.2l-0.2,0l-0.1,0.2
	l-1.8,6.5l-3.8,0.6l-0.1,0l-0.1,0.1l-1.6,4.1l-0.3-0.9l-0.1-7.5l0,0l0-0.1l-0.2-4.5l0,0l0,0l-0.9-2.2l0,0l0,0l-2.7-3l-0.1-0.1
	l-0.1,0l-6.9-1.2l-1.5-1.2l-0.6-2.9l2.8-4l3.4,2.4l0.1,0.1l0.1-0.1l2.6-1.1l0,0l0,0l1.2-1.4l0.1-0.1l-0.1-0.2l-2.2-2.8l0,0l0,0l-2-2
	l3.1-3.2l7.9,0.1l0.2,0l0-0.2l0.1-5l1.6-1.7l0,0l3.2-3.3l0.2-0.2l-0.2-0.2l-2.6-2.5l0.5-1.3l3.7,0.2l0.1,0l0.1,0l4.2-2.7l2.9-0.5
	l2.1,2.6l0.3,3.5l-7.3,8.2l-0.1,0.1l0.1,0.1l0.8,1.8v5.5v0.1l0.1,0.1l1.5,1.2l0.2,0.1l0.2-0.2l3.1-3.5l9.1,3.5l0.1,0l0.1,0
	L203.3,210.9L203.3,210.9z M188.5,252.2l2.1-0.1v3.6v0.2l0.2,0l4.8,0.2l0.2,2.7l0,0.2l0.2,0l2.1,0.5l0.3,1.2h0l0.3,2l0,0.1l0,0
	l0.8,1.1l0.1,0.1l0.2,0l1.8-0.5l0.7,2.1l0,0.1l0.1,0l1.9,1.5l0,0l0,0l4.5,2l0,0l0,0l1.3,0.2l-0.3,2.4l-1.6,2.9l0,0.1l0,0.1l0.2,1.6
	l0,0.1l0,0l1.5,2l-0.8,1.6l-1.1,0.6l-2.5-2.4l0,0l0,0l-1.1-0.8l-0.1,0l-0.1,0l-1.6-0.2l-0.1,0l-0.1,0l-1.7,0.8l-1.3-1.1l-0.1-3.2
	l0-0.1l0-0.1l-1.4-1.9l-0.1-0.1l-0.1,0l-1.8-0.2l-0.1,0l-0.1,0l-3.3,2l-0.1,0l0,0.1l-0.8,2.4l0,0.1l0,0.1l1.8,4.1l0,0.1l0,0l1.6,1.3
	l0,0l0,0l6.9,2.3l0.1,0l0.1,0l1.6-0.8l1-0.5l1.7,1.7l-1.2,0.9l-2.2,0.7l-0.1,0l0,0.1l-0.8,2.8h-1.1l-2.2-1.1l-0.1-0.1l-0.1,0.1
	l-4.3,2.4l-0.1,0l0,0.1l-2.6,4.4l0,0l0,0l-0.4,2.5l-3.1,0.7l-0.2,0l0,0.2l-0.3,2.3l-0.4,2.2l-2.4,0.6l-0.1,0l0,0.1l-1.2,2.9
	l-2.9-0.3l-2.8-2.8l0-0.1l-0.1,0l-5.2-1.2l-1-2l2.1-2.2l0.2-0.2l-0.2-0.2l-1.4-1.4l0.1-1.1l1.9-0.6l0.2-0.1l0-0.2l0.2-3.7l0-0.3
	l-0.3,0l-3,0.2l-0.1,0l-0.1,0l-1,0.7l-0.4-3.2l1.2-0.5l0.1-0.1l0-0.2l0.2-2.5l0-0.1l-0.1-0.1l-1.2-1.4l0.2-5.3l0-0.1l0-0.1l-1.5-2.1
	v-6.8h0.7h0.2l0.1-0.1l0.9-2.1h0l1-2.2l1.6,0.1l2.5,1.6l0.2,0.1l0.1-0.2l0.8-1.1l0.1-0.1l0-0.1l-0.5-2.8l0-0.1l-0.1-0.1l-1.7-1.7
	l0.3-2.3l4.3,0.5l0.1,0l0.1,0l3.8-1.2l0.1,0l0-0.1l0.5-3.1h2.2h0.1l0.1-0.1L188.5,252.2L188.5,252.2z M172.4,243.6l1.8-4.5l3.8-0.6
	l0.2,0l0-0.2l1.8-6.4l1.7,0.1l2.2,1l0.1,0.1l0.1-0.1l2.8-2.4l0.1-0.1l0-0.1l0.2-1.9v0l0.1-1.4l3.9,0.1l2.5,2.4l0.1,0.1l0.1,0
	l1.9-0.4l1.4,1.6l0,0l0,0l1.2,1l-2.4,6.3l-2.1,2.3l0,0l0,0l-1.4,3.5l-2.2,2.4l-2.1-0.1l-0.3,0l0,0.3l-0.1,5.2l-2.3,2.1h-2.3
	l-1.4-0.2l-0.6-0.7l1.8-1.3l0.1-0.1l0-0.1l0.2-1l0-0.2l-0.3,0l-1.7-0.2l-0.2-0.8l1-1.8l0.1-0.2l-0.2-0.1l-0.9-0.7l-0.1-0.1l-0.1,0.1
	l-3.3,1.8l-3.6-0.7l-1.5-2.5L172.4,243.6L172.4,243.6z M171.4,234.9l-1.9,1.8l-0.2,0.2l-0.2-0.3l-1.3-2.2l-3.7-1.2l-5.4,0.7l-2,0.8
	l0,0l-0.2,0l-3.6,0.9l-1.6,0.9l-0.4,2.6l0,0.2l-0.2,0l-3.5,0.4l-2.5,0.7l0.4,1l3,0.1l0.1,0l0.1,0.1l2.4,3.4l4.3,0.3l0.2,0l0,0.2
	l0.2,2.5l0,0.1l-0.1,0.1l-0.8,1l2,2.4l0,0l0.1,0.2l2.3,3.3l0.9-0.2l1.4-0.9l0.2-0.1l0.1,0.1l1.3,1.2l0,0l0,0l2.8,4.1l0.1,0.1l0,0.1
	l-0.2,0.7l2.2,2.5l0.1,0.1l0,0.1l-0.7,2.9l1.3,3h0.6l0.9-1.9l1.1-2.4l0.1-0.1l0.2,0l1.8,0.1l0.1,0l0.1,0l2.4,1.5l0.6-0.8l-0.4-2.6
	l-1.7-1.7l-0.1-0.1l0-0.1l0.4-2.7l0-0.2l0.2,0l4.4,0.5l3.6-1.2l0.5-3l-1.3-0.2l-0.1,0l-0.1-0.1l-0.8-1l-0.2-0.2l0.2-0.2l1.9-1.4
	l0.1-0.6l-1.7-0.2l-0.2,0l0-0.2l-0.2-1.1l0-0.1l0-0.1l1-1.7l-0.6-0.5l-3.2,1.8l-0.1,0l-0.1,0l-3.8-0.8l-0.1,0l-0.1-0.1l-1.6-2.6l0,0
	l0,0l-1-3.1l0,0l0,0L171.4,234.9L171.4,234.9z M158.4,219.2l-3.7-2.3l-1.8,1.4l-0.1,0l-0.1,0l-3.3,0.1l-0.2,5.4l6.6,2.1l0.1,0l0,0.1
	l1,5.2l0,0l0,0l-0.3,2.7l1.8-0.7l0,0l0,0l5.5-0.8l0.1,0l0.1,0l3.9,1.2l0.1,0l0,0.1l1.2,2l2-1.9l-0.1-4.3l-0.9-2.1l-2.7-3l-6.8-1.2
	l-0.1,0l0,0l-1.6-1.3l-0.1-0.1l0-0.1L158.4,219.2L158.4,219.2z M124.1,212.7l1,2.6l0.7,1.8l4.2,4.2l0.1,0.1l0,0.1l0.5,5.2l1.8,3.4
	l1.5,0.2l0.4-0.9l0.1-0.1l0.2,0l3.5-0.1l0.5-0.9l0.1-0.2l0.2,0.1l1.2,0.7l0.1,0.1l0,0.1l0.2,1.5l1.3,0.8l2.9-2.1l0.4-3.9l0-0.2
	l0.2,0l3.8-1.1l0.2-5.7l0-0.2l0.2,0l3.4-0.1l1.8-1.5l0.1-0.1l0.1,0.1l3.7,2.3l2.9-4.1l0.1-0.2l0.2,0.1l3.5,2.5l2.4-1.1l1.1-1.3
	l-2.1-2.7l-4.2-4.3l-2.3-1l-0.1,0l0-0.1l-0.8-2.2l-2.6-0.1l-1.1,0.7l-0.1,0l-0.1,0l-8.9-0.1l-2,1.2l-0.2,0.1l-0.1-0.1l-1.2-1.1
	l-2.7,0.2l-1.1,1.6l-0.1,0.1l-0.1,0l-1.8,0.4l-5,3l-0.1,0l-0.1,0l-4.4,0.1L124.1,212.7L124.1,212.7z M141.9,231.6l3-2.2l0.1-0.1
	l0-0.1l0.4-3.9l3.7-1.1l6.5,2.1l0.9,5.1l-0.4,2.9l-3.4,0.9l0,0l0,0l-1.7,1l-0.1,0.1l0,0.1l-0.3,2.6l-3.3,0.4l0,0l0,0l-2.5,0.7
	l-0.5-1.2l0,0l0,0l-3.4-4.1l1-1.7l0-0.1l0-0.1L141.9,231.6L141.9,231.6z M125.5,217.5l4,4.1l0.5,5.1l0,0.1l0,0l1.9,3.5l0.1,0.1
	l0.1,0l1.8,0.3l0.2,0l0.1-0.2l0.4-1l3.5-0.1l0.1,0l0.1-0.1l0.5-0.8l0.9,0.5l0.2,1.5l0,0.1l0.1,0.1l1.4,0.8l-0.1,1.3l-1.1,1.8
	l-0.7,0.8l0,0l0,0.1l-0.6,2.9l-0.6,0.9l-5.2-1.8l-0.3-0.1v0.1l-1.8-0.1l-1.4-2.9l-0.1-0.1l-0.1,0l-3.4-0.6l-0.1,0l-0.1,0.1l-0.9,0.8
	l-1.8-2.9l-0.3-3.8l0-0.2h-0.2h-3.3l-1.4-4l4.9-4.4L125.5,217.5L125.5,217.5z M117.5,224l1.5,4.2l0.1,0.2h0.2h3.3l0.3,3.6l0,0.1l0,0
	l1.9,3.2l0.1,0.2l0.2-0.2l1-0.9l3.1,0.6l1.4,3l0.1,0.1l0.1,0l1.9,0.1v5.3l-1.1,1.3l-0.1,0.1l0.1,0.1l1,1.9l-0.4,1.1l-4.1,3.8
	l-5.4-0.9l-5.6-3.3v-1.8v-0.1l0-0.1l-0.9-1.6l-0.1-0.1l-0.1,0l-2.8-0.3l-4-6.3l0.6-0.3l0.1,0l0,0l0.9-1.2l0-0.1l0-0.1l0.1-5.4
	l0.6-3.5l2.8-3.3l1.6,0.6l0,0l0,0L117.5,224L117.5,224z M128.5,252.2l4.1-3.9l0,0l0-0.1l0.4-1.3l0-0.1l0-0.1l-1-1.9l1.1-1.2l0.1-0.1
	v-0.1v-5.3l5.1,1.8l0.2,0.1l0.1-0.2l0.7-1.1l0,0l0,0l0.6-2.9l0.4-0.6l3.3,3.9l1.1,2.7l0.1,0.1l0.2,0l3,0.1l2.4,3.4l0.1,0.1l0.1,0
	l4.2,0.3l0.2,2.2l-0.9,1l-0.1,0.2l0.1,0.2l2.1,2.6l-0.7,0.5l0,0l0,0l-2.8,3l-1.5,0.9l-1.9-0.5l-3.2-2.8l0,0l0,0l-2.2-1.6l-0.1-0.1
	l-0.1,0l-2.1,0.2l0,0l-3.4,0.4l-0.1,0l-0.1,0.1l-1.4,2l0,0.1l0,0.1l-0.1,1l0,0.2l0.1,0.1l1,0.5l-0.3,1.9l-1.4,0.6l-1.9-0.6l-5.4-2.9
	L128.5,252.2L128.5,252.2z M136.1,259.2l1.4-0.6l0.1-0.1l0-0.1l0.4-2.2l0-0.2l-0.2-0.1l-1.1-0.5l0.1-0.8l1.3-1.9l3.3-0.4l2-0.2
	l2.2,1.6l3.2,2.8l0,0l0.1,0l2.1,0.5l0.1,0l0.1-0.1l1.6-1l0,0l0,0l2.8-3l0.7-0.5l2.2,3.2l0.1,0.1l0.2,0l1.1-0.2l0,0l0,0l1.3-0.9
	l1.2,1.1l2.8,4l-0.3,1.5l-1,3.2l-0.7,1.3l-5.5,3.1l-0.1,0l0,0.1l-1.4,2.5l-3.7,1.2l-2,0.3l-0.1,0l-0.1,0l-3.9,3.4l-5.4,0.4l0.1-1.6
	l0,0l0,0l-0.2-1.6l0-0.1l0,0l-2-2.8l0.3-3.5l0-0.1l-0.1-0.1l-2.3-2.9l-0.8-3.1L136.1,259.2L136.1,259.2z M113.6,275.3l-0.1-5.9
	l0-0.2l-0.2,0l-2.6-0.5l-1.1-1.6l-0.1-3.5l0-0.4l-0.3,0.1l-1.8,0.8l-1.6-0.1l0.1-2.1l1.9-2.2l0.1-0.1v-0.1v-3.2v-0.1l-0.1-0.1
	l-4.4-4.3l0-0.1l-0.1,0l-2.4-0.5l-1.6-2.1l-0.3-3.1l0.9-0.8l0.1-0.1l0-0.1l0.2-4l3.2-0.5l0,0l0,0l5.4-2.8l4.1,6.5l0.1,0.1l0.1,0
	l2.8,0.3l0.8,1.4v1.9v0.1l0.1,0.1l5.8,3.4l0,0l0,0l5.4,0.9l0.1,3l0,0.1l0.1,0.1l5.5,3l0,0l0,0l1.9,0.6l0.1,1.9l0,0l0,0l0.8,3.2
	l0,0.1l0,0l2.3,2.8l-0.3,3.5l0,0.1l0,0.1l2,2.9l0.2,1.5l-0.1,1.8l-0.1,0.2l-2,0.4l-3,0.8l-4,0.3l-1.2-0.9l-1.6,0.1l-2.2,1.8l-4-0.8
	l-1.7,1.8l-1.4,2.9l-2.9,1.3l-1.4-2.6l0.7-2.1l0.3-2.6L113.6,275.3L113.6,275.3z M141,277.6l0.1-0.2l5.6-0.4l0.1,0l0.1-0.1l3.9-3.4
	l2-0.3l0,0l0,0l3.8-1.2l0.1,0l0-0.1l1.4-2.6l5.5-3.1l0.1,0l0-0.1l0.7-1.4l0,0l0,0l1-3.2l0,0l0.1-0.3l1.9,2.1l-0.7,2.8l0,0.1l0,0.1
	l1.4,3.2v7.1v0.1l0,0.1l1.5,2.1l-0.2,5.3l0,0.1l0.1,0.1l1.2,1.4l-0.1,2.3l-1.2,0.5l-0.2,0.1l0,0.2l0.5,3.8l0,0.4l0.3-0.2l1.3-0.9
	l2.7-0.1l-0.2,3.2l-1.9,0.6l-0.2,0l0,0.2l-0.1,1.4l0,0.1l0.1,0.1l1.3,1.4l-2.1,2.2l-0.1,0.1l0.1,0.2l1.1,2.2l0.1,0.1l0.1,0l5.3,1.2
	l2.8,2.8l0.1,0.1l0.1,0l3.1,0.3l0.2,0l0.1-0.2l1.2-2.9l2.4-0.6l5.2,1.6l1,2.1l-0.5,1.5l-2,1.6l-0.1,0.1l0.1,0.2l0.8,2.4l0,0.1l0.1,0
	l0.3,0.2l3.7,8.1l-2.1,3l-2.1,1.6l-4.8-1.6l-1.2-2.4l-1.6-0.5l-2,1.2l-2-0.7l-2.3-2.6l-0.5-2.1l0.5-3.7l-2.4-1.4l-1.8-1.8l-1.7,1.8
	l-2.1-0.4l-0.9-1.6l0.1-2l-4.2-1.8l-2.2-0.1l-2.4,1.6l-2-1.4l-0.7-3.4l-0.9-2l-1.3-0.4l-3,1.8l-1.2-2.3l1.2-2.9l-1-4.6l-1-3.7
	l-2.6-0.9l-0.9-1l0.8-1.7l0.1-1.8l-2.7-1.3l-1.3,1.2l-1.8,0.4l-1.6-3.8L141,277.6L141,277.6z M146.9,184.1l-3.2-3l-0.1-0.1l0-0.1
	l1.2-4.4l-2.3-2.9l-2,0.1l-0.1,0l-0.1,0l-5.3-3.4l-4.1,4l-0.1,0.1l-0.1,0l-3.1-0.2l-1.1,6l0.6,1.9l0.1,0.2l-0.2,0.1l-3.9,1.8
	l-0.4,1.9l0.2,3l2,2.2l2.4-2l0.2-0.1l0.2,0.2l0.6,0.6l4.6-0.5l0.1,0l0.1,0l2.3,1.2l4.2-2.5l1-1.6l0.1-0.1l0.1,0l3.4-0.1L146.9,184.1
	L146.9,184.1z M123,183.5l-2.1-2.5l-0.1-0.1l-0.1,0l-5.1,0.1l-5.4-3.4l0.1-2.1l0-0.2l-0.1-0.1l-1-0.5l-0.2-0.1l-0.1,0.1l-0.6,0.6
	l-4.5,0.6l0-0.3l0-0.1l-0.1-0.1l-2.1-2.6l-0.3-2.5l0-0.2l-0.2,0l-5.4-0.9l-2.4-1.8l-3.3-6.2l-1-2.3l3.9-0.8l0.1,0l0.1-0.1l1.7-2.6
	l0,0l0,0l0.9-3.7l1.5-1.5l1.6,1.6l0,0l0,0l3,2.1l0,0l0,0l5.6,1.5l1.9,1.7l0.1,0.1l0.1,0l5.7,0.5l0.2,0l0-0.2l0.4-2.1l0.9-0.7
	l2.3,1.7l0.6,2.3l0,0.1l0.1,0.1l3.1,2.5l0.1,0.1l0.1,0l2.6-0.2l4.4,3.9l0.4,0.3l0-0.3l4,0l0.5,4.7l-4,3.9l-3.2-0.2l-0.2,0l0,0.2
	l-1.1,6.3l0,0.1l0,0.1l0.5,1.7L123,183.5L123,183.5z M135.9,190.7l4-2.4l0,0l0,0l1-1.6l3.3-0.1l0.1,0l0.1,0l2.9-2.1l8.6,0.4l5.6,3.4
	l3.7,6.9l0,0.1l0.1,0l6.2,3.6l0.1,0.1l0.1,0l4.1-1l1.7,1.7l-1.5,1.6l-0.1,0.1l0,0.1l-0.1,4.9l-7.7-0.1l-0.1,0l-0.1,0.1l-3.2,3.2
	l-2-2l0,0l0,0l-2.3-1l-0.8-2.2l-0.1-0.2l-0.2,0l-2.8-0.1l-0.1,0l-0.1,0l-1.1,0.7l-8.6-0.1l0.5-6.4l0-0.2l-0.1-0.1l-2.9-1.6l-0.1-2.6
	l0-0.1l-0.1-0.1l-1.5-1.4l-0.1-0.1l-0.1,0l-2.2,0.7L135.9,190.7L135.9,190.7z M128.7,190.2l0.3,0.3l0.1,0.1l0,0.1l-0.6,2.4l0,0l0,0
	l-1.2,1.6l1.6,1.8l2.4,1l0.1,0l0,0.1l4.8,6.2l0,0l0,0l1,2.9l1.6-0.3l1.1-1.6l0.1-0.1l0.1,0l2.9-0.2l0.1,0l0.1,0.1l1.1,1.1l1.8-1
	l0.5-6.3l-2.9-1.6l-0.1-0.1l0-0.1l-0.1-2.6l-1.3-1.2l-2.1,0.7l-0.1,0l-0.1,0l-7-3.7L128.7,190.2L128.7,190.2z M122.3,186.4l-1.3,1.2
	l-2.6,3l-0.8,2.4l1.1,3.4l1.4,1.8l0.9,0.8l0.1,0.1l-0.1,0.2l-0.9,2.5l0,0l0,0l-1.2,1.9l5,8.4l3.5-2.1l0.1,0l0.1,0l4.4-0.1l4.9-2.9
	l-1-2.8l-4.8-6.1l-2.4-1l0,0l0,0l-1.8-2l-0.1-0.1l0.1-0.2l1.3-1.8l0.6-2.2l-1.1-1.1l-2.4,2l-0.2,0.1l-0.2-0.2l-2.3-2.4l-0.1-0.1
	l0-0.1L122.3,186.4L122.3,186.4z M100.6,181.5l0.4,2.5l1.4,2.2l1.9,1.1l0.1,0.1v0.1v4.2v0.1l0,0.1l-1.2,1.8l0,0l-0.7,0.9l0.8,1.6
	l1.9,1.2l0.1,0.1l0,0.1l0.3,3.4l0,0.1l-0.1,0.1l-1.6,1.6v1.5l2.2-0.1l0.9-0.8l0.1-0.1l0.1,0.1l1.3,0.6l2.1-0.5l0.7-0.6l0.1-0.1
	l0.2,0.1l1.4,1l1.1,0.7l1-0.9l0.1-0.1l0.1,0l3.2,0.1l1.2-1.8l0.8-2.4l-0.8-0.7l0,0l0,0l-1.4-1.8l0,0l0,0l-1.2-3.6l0-0.1l0-0.1
	l0.8-2.5l0,0l0,0l2.7-3.1l0,0l0,0l1.7-1.5l0.4-1.9l-2.1-2.5l-5,0.1l-0.1,0l-0.1,0l-5.5-3.6l-0.1-0.1l0-0.1l0.1-2.1l-0.7-0.3
	l-0.6,0.6l-0.1,0.1l-0.1,0l-4.7,0.7l0,0.4l0,0.1l0,0.1L100.6,181.5L100.6,181.5z M102,194.2l0.7-0.9l1.2-1.7v-4l-1.9-1l-0.1,0l0-0.1
	l-1.4-2.3l0,0l0,0l-0.4-2.3l-2.6,1.6l0,0l-0.1,0l-4.9,0.5l-0.1,0l-0.1-0.1l-0.9-1.3l-1.6-0.2l-1.1,0.6l-0.3,0.2l-0.1-0.3l-1-3.6
	l-2.1-0.1l-1.8,1.6l-0.1,0.1l-0.1,0l-3.3-0.1l-1.6,0.7l-1,1.6l0.1,1.5l0.8,1.6l1.2,0.7l0.8-0.7l0.1-0.1l0.1,0l1.9,0.1l0.2,0l0,0.2
	l0.2,1.4l0,0.2l-0.1,0.1l-1.5,0.9l-0.9,0.9v1.1l0.7,1.1l6.7,3.5l4.3-2.5l0.1-0.1l0.1,0l1.1,0.3l0,0l0,0l3.3,2l0.9-1.1l0.1-0.1l0.1,0
	L102,194.2L102,194.2z M103.8,204.7l2.4-0.1l0.1,0l0.1-0.1l0.8-0.8l1.2,0.5l0.1,0l0.1,0l2.2-0.5l0.1,0l0,0l0.6-0.5l1.2,0.9l0,0
	l1.2,0.8l0.2,0.1l0.1-0.1l1.1-1l3.1,0.1l5.1,8.6l1,2.8l0.6,1.7l-2.7,1.9l0,0l0,0l-5,4.5l-1.5,0.1l-1.7-0.6l-2.5-2.8l-0.1-0.2
	l-0.2,0.1l-1.5,0.9l-1,0.3l-1.6-0.9l-1.6-3l-0.1-0.1l-0.1,0l-2.7-0.1l0-1.7l0,0l0,0l-0.5-1.7l0-0.1l-0.1,0l-1.9-1.5l-0.6-1.7
	l0.2-1.2l1.3-1.7L103.8,204.7L103.8,204.7z M88.1,196.1l4.2-2.4l1,0.3l3.5,2.1l0.2,0.1l0.1-0.2l1-1.1l4-0.2l0.8,1.7l0,0.1l0.1,0
	l1.9,1.2l0.3,3.2l-1.6,1.6l-0.1,0.1v0.1v1.8l-2.6,2.8l0,0l0,0l-1.3,1.8l0,0l0,0.1l-0.2,1.1l-1.8-0.2l-0.1,0l-0.1,0l-2.9,1.3
	l-1.9-0.2l-1.8-2.2l0.5-4.2l0-0.1l-0.1-0.1l-2.2-2l-1-2.3L88.1,196.1L88.1,196.1z M102.9,217.7l0,0.4l0,0.1l-0.1,0.1l-2.3,2.1l0,0
	l0,0l-3.6,1.7l-0.8,1.4l0.6,1.2l0,0l0,0l0.3,2.2l0,0.1l0,0.1l-0.6,1.4l0,0.1l-0.1,0l-2.2,1l-0.2,3.7l2.1,1.5l0,0l0,0l1.5,1.4
	l0.1,0.1l0,0.1l0.2,2.5l2.2,1.6l3.2-0.6l6.4-3.3l0.8-1.1l0.1-5.3v0l0,0l0.6-3.6l0-0.1l0,0l2.8-3.3l-2.3-2.5l-1.3,0.8l0,0l0,0
	l-1.2,0.3l-0.1,0l-0.1-0.1l-1.8-1l-0.1,0l0-0.1l-1.6-2.9L102.9,217.7L102.9,217.7z M90.5,209.4l-4.8,3.9l-0.9,1.5l-0.1,0.1l-0.1,0
	l-2.5-0.1l0.1,1.9l1.6,2.1l2.7,0.2l0.1,0l0.1,0.1l0.8,1.4l0,0.1v0.1v1.5l1.6,0.8l0.1,0.1l0,0.1l0.4,2.6l4.3,3.3l2.1-1l0.6-1.3
	l-0.3-2.1l-0.6-1.3l-0.1-0.1l0.1-0.1l0.9-1.6l0-0.1l0.1,0l3.7-1.7l2.2-2l0.1-2.4L102,214l-1.9-1.5l-0.1,0l0-0.1l-0.6-1.7l-1.8-0.2
	l-2.9,1.3l-0.1,0l-0.1,0l-2.1-0.2l-0.1,0l-0.1-0.1L90.5,209.4L90.5,209.4z M73.1,198.5l8-5.8l6.6,3.5l-0.1,4.2l0,0.1l0,0.1l1.1,2.4
	l0,0l0,0l2.2,2l-0.5,4.1l-5,4l0,0l0,0l-0.8,1.4l-2.6-0.1l-1.7-0.5l-0.4-1V211V211l-0.1-0.1l-0.8-1v-3.8V206l-0.1-0.1L73.1,198.5
	L73.1,198.5z M84.9,158.9l-0.6,1l-4.3,2.5l-2.2,3.5l-2.3,4.8l-0.3,3.9l0.7,2.4l-1.7,2.1l-0.1,1.6l0.1,0l4.1,0.3l1.7-0.7l0,0H80
	l3.3,0.1l1.8-1.6l0.1-0.1l0.1,0l2.4,0.1l0.2,0l0,0.2l1,3.5l0.9-0.5l0.1,0l0.1,0l1.8,0.3l0.1,0l0.1,0.1l0.9,1.3l4.7-0.5l2.8-1.8
	l3.1-4.4l0.1-1.1l-2.1-2.6l0-0.1l0-0.1l-0.3-2.4l-5.2-0.9l-0.1,0l0,0l-2.5-1.8l0,0l0,0l-3.4-6.3l0,0l0,0l-1.1-2.5l-1-0.5l-2,0.5
	l-0.1,0l0,0L84.9,158.9L84.9,158.9z M73.6,181l0.3,0.2l0.1,0l0.1,0l3.9,0.2l-0.8,1.4l0,0.1l0,0.1l0.1,1.6l0,0.1l0,0l0.9,1.7l0,0.1
	l0.1,0l1.4,0.8l0.1,0.1l0.1-0.1l0.9-0.7l1.6,0.1l0.2,1.1l-1.4,0.8l0,0l0,0l-1,1l-0.1,0.1v0.1v1.3v0.1l0,0.1l0.6,1l-8,5.9l-6.5-0.2
	l3.4-4.5v-1.8l-2.7-0.5l-2.3,0.3l-0.8-3.7l-2.1-1.7l-2.7,0.1l-0.4-2.9l5.2-4.4l1.4-3.5l2.5,0.5l-0.3,2.4l2.6,2.5L73.6,181L73.6,181z
	 M65.5,198.4l7.1,0.3l5.7,7.5v3.8v0.1l0,0.1l0.8,1v1.8v0.1l0,0.1l0.5,1.1l0,0.1l0.1,0l1.7,0.5l0.2,2.1l0,0.1l0,0.1l1.6,2.2l-0.4,0.9
	l-0.7,0.1l-0.7-0.8l-0.1-0.1h-0.1h-1.3H80l-0.1,0.1l-1.6,1.5l-3.6-3.6l-0.1-0.1l-0.1,0l-3.6-0.8l-2.4-1.6l-0.7-2.2l0-0.1l-0.2,0
	l-1.5-0.3l-0.1,0l-0.1,0l-1.2,0.7l-2.6-2.3l0.5-4.9l-2.2-1.3l0.1-2.6l1.6-0.4l1-2.1L65.5,198.4L65.5,198.4z M62.1,211.1l-1.9,2.3
	l-0.9,1.4l0.4,2l2,0.9l-0.3,3l5,3.1l0.1,5.7l3.9,7.4l5.4-5.5l-0.5-2.4l0-0.1l0-0.1l0.8-1.4l0.1-0.1l0.1,0l1.7,0.1l-0.1-1l-0.9-0.7
	l-0.2-0.1l0.1-0.2l1.1-1.5v-2.7l-3.6-3.7l-3.6-0.7l0,0l0,0l-2.5-1.7l-0.1,0l0-0.1l-0.6-2.1l-1.3-0.2l-1.3,0.7l-0.1,0.1l-0.1-0.1
	L62.1,211.1L62.1,211.1z M70.6,237.5l5.6-5.7l0.1-0.1l0-0.1l-0.5-2.4l0.7-1.2l1.8,0.1l0.3,0l0-0.3l-0.1-1.4l0-0.1l-0.1-0.1l-0.8-0.6
	l1-1.3l0-0.1v-0.1v-2.8l1.6-1.5h1.1l0.7,0.8l0.1,0.1l0.1,0l1-0.2l0.1,0l0.1-0.1l0.4-1l2.5,0.1l0.7,1.2v1.6v0.2l0.1,0.1l1.7,0.8
	l0.4,2.6l0,0.1l0.1,0.1l4.4,3.4l-0.2,3.9l0,0.1l0.1,0.1l2.2,1.6l1.4,1.4l0.2,2.5l0,0.1l0.1,0.1l2.3,1.7l-0.2,3.9l-0.8,0.7l-3.5-1.3
	l-1.6-3.1l-0.1-0.2l-0.2,0.1l-2.1,0.7l-4-0.5l-0.2,0l0,0.2l-0.4,2.7l-3.5,2.2l-3.4-0.2l-0.1,0l-0.1,0l-2.2,1.5l-2.4-1.5l0,0
	l-3.3-1.8l0.2-4.8L70.6,237.5L70.6,237.5z M695,295.2l1.5,3.6l2.2,10.8l2.5,3l7.6,15.4l1.7,4.8l-1.2,15.4l-2.4-0.7l-0.6-3.2l0-0.1
	l-0.1-0.1l-4.7-3.3l-0.1-0.1l-0.1,0.1l-5.4,4l-0.2,0.2l0.2,0.2l3.2,3.5l0.1,0.1l0.1,0l4.6,0.4l-1,6.9l-3.4,0.1l-0.3,0l0,0.3l0.5,4.8
	l-4.6,3.1l-8,0.5l-0.1,0l-0.1,0.1l-2.1,2.8l-0.1,0.1l0.1,0.1l1.5,2.9l-3.7,0.8l-2.1-6.1l1.3-4.2l-3.5-5.7l1.1-4.3l0.1-0.4l-0.4,0.1
	l-10.2,3.4l-3.4-2.7l-0.1,0l-0.1,0l-7.6-0.1l-0.1,0l-0.1,0.1l-3.6,3.4l-5.7-7.9l0,0l-0.1,0l-7.1-3.5v-4.3l2.6-3.5l0.1-0.1l-0.1-0.1
	l-1.7-2.1l3.9-4.6l0-0.1l0-0.1l0.7-3.8l2.7-2.9l0.1-0.1l-0.1-0.1l-1.7-3.5l6.7-1.1l0.1,0l0.1-0.1l1.8-1.8l0.1-0.1l0-0.1l-2.7-8.3
	l0-0.1l-0.1,0l-2.9-0.4l-0.2,0l-0.1,0.2L649,309h-4.1h-0.2l0,0.2l-0.9,3.8l-5.5,5.1l-3.4,0.2l-3.1-4.6l-0.1-0.1h-0.1h-6.7l-0.2-3.4
	l3-1.7l0.1-0.1l0-0.2l-0.4-4.2l4-8.7l0.1-0.1l-0.1-0.1l-2.7-2.9l-0.1-0.1l-0.2,0.1l-8.2,4.3l-2-5.6l2.8-3l0.1-0.1l-0.1-0.1l-1.2-3.1
	l0-0.1l-0.1,0l-5.2-3.4l2.8-5.4l0.1-0.2l-0.2-0.1l-5.1-3.5l2.3-2.7l0.1-0.1v-0.1v-11.7l10.1-3.8l0.1-0.1l0-0.2l0.4-4.5l6-0.4l0.2,0
	l0.1-0.1l1.4-3.9l0,0l0-0.1l-0.2-3.7l2.9-1.4l0.2-0.1l-0.1-0.2l-2.3-8l0-0.1l-0.1-0.1l-4-2.8l2.6-9.3l0-0.1l0-0.1l-3.6-9.7l1.9-2.4
	l7,2.4l0.1,0l0.1,0l4.7-1l0.1,0l0.1-0.1l1.6-2.8l5.4-0.8l0.2,0l0-0.2l1-3.6l4.1-2.8l9,3l1,4.9l-2.2,4l-0.1,0.1l0.1,0.1l1.8,3.7
	l0.1,0.3l0.2-0.2l3.8-2.8h4.5l2.3,4l-1.8,1.2l1.2,1.8l-0.4,1.6l-4.2-0.8L656.6,231l0.9,6l-2.1,5.6l1.6,6.3l-1.8,7.6l-1.6,15.7
	l-6.3,15.7l-0.3,4.6l4.8,0.8l5.7-3.5l2.7,8l3.3-4.2l2.9,3.7l2.4-10.3l6.8-3.5l8.7,1.6l4.2,1.7l-1.7,3.4l2,2.3l5.7,2.3l0.3,0.1
	l-4.2-9.5l-4.2-3.1l0.7-3l2.1,0.5l1.3-1.7l-2.4-3.5l-4.3-3l0.5-2.5l2.3-1l3.4,4.3l7.3,5.1l5.4,10.1l11.6,10.4l16.4,11.1l-7.3,0.4
	l-3.9,2.2l1.8,5.4l3.3,8.4l5.1,3.7l4.4,2h4.2l2.9,6l-3.5-1.8l-1.4,0.7l-3.8,0.3l0.7,4l-0.4,5.4l-4.8-6.1l-0.7-4.7l-4.7-2.2l-1-3
	l-1.2-3.4l-3.8-2.9l-3.3-5.4l-4.6-7.3l-3.8-4.8l-2.5-6.5l-7.7-4.2L695,295.2L695,295.2z M578.3,339.8l8.9-4.6l6.8,2.3l8.2-1.3
	l12,11.9l14.9,15.4l5.9-2.3l3.7,1.7l2.6-1.3l5,1.6l2.7-0.4l4.7-7.2l-5.7-7.9l-7.1-3.6l-0.1-0.1v-0.1v-4.5v-0.1l0-0.1l2.6-3.4
	l-1.7-2.1l-0.1-0.2l0.1-0.2l4-4.7l0.7-3.8l0-0.1l0-0.1l2.6-2.8l-1.7-3.7l-0.1-0.3l0.3-0.1l6.9-1.1l1.6-1.6l-2.6-8l-2.6-0.4l-1.3,2.5
	l-0.1,0.1h-0.2H645l-0.9,3.6l0,0.1l-0.1,0.1l-5.6,5.2l-0.1,0.1l-0.1,0l-3.6,0.2l-0.1,0l-0.1-0.1l-3.1-4.6h-6.8h-0.2l0-0.2l-0.2-3.8
	l0-0.2l0.1-0.1l3-1.7l-0.4-4.1l0-0.1l0-0.1l4-8.6l-2.5-2.7l-16.5,8.6l0.4,2.5l0,0.2l-0.2,0.1l-3.6,1.3l-0.1,0l-0.1,0l-3.1-0.7
	l-10.7,4.9l-0.1,0.1l-0.1-0.1l-2.6-2.2l-7.7,2.9l-0.1,0l-0.1-0.1l-4-3.1l-6.1-0.2l-2.6,2.6l-0.2,0.2l-0.2-0.2l-2.8-2.5l-1.9,1.7
	l-0.2,0.1l-0.2-0.1l-3.5-2.8l-4.3,1.7l-4.2,2.8l5.3,3.6l0.2,0.1l-0.1,0.2l-1.6,2.2l2.5,2.5l4.5-2.5l0.2-0.1l0.1,0.2l2.1,3.8l3.4-0.8
	l0.3-0.1l0,0.3l0.5,6.7l3.5,2l0.2,0.1l-0.2,0.2l-2,2.8L578.3,339.8L578.3,339.8z M649.3,363l3.9,6.2l4.2,3.7l8.9-4.3l1.2-3.7
	l6.7-7.4l3.6-1.7l1-3.8l-9.9,3.3l-0.1,0l-0.1-0.1l-3.4-2.8l-7.4-0.1l-3.7,3.5L649.3,363L649.3,363z M682.5,372.3l-0.5,15.2l2.7,4.7
	l-10.7,0.9l-3.5,7.7l9.9,10.2l0.3,3.8l5.5-5.2l9.4,0.1l6.8-5.5l4-8.1l2-22.2l2.7-11.6l-1.8-13.6l-2.7-0.8l-0.1,0l0-0.1l-0.7-3.3
	l-4.5-3.2l-5,3.7l3,3.2l4.7,0.4l0.3,0l0,0.3l-1.1,7.4l0,0.2l-0.2,0l-3.4,0.1l0.5,4.7l0,0.1l-0.1,0.1l-4.8,3.2l-0.1,0l-0.1,0
	l-7.9,0.5l-2,2.6l1.5,3.1l0.1,0.3l-0.3,0.1L682.5,372.3L682.5,372.3z M675.4,214l-2.3-4.1l-0.1-0.1h-0.1h-4.7h-0.1l-0.1,0l-3.7,2.7
	l-1.7-3.3l2.2-4l0-0.1l0-0.1l-1-5.1l0-0.1l-0.1,0l-9.2-3.1l-0.1,0l-0.1,0.1l-4.1,2.7l-8.8-18.4l0.9-4.4l6.1-4.3l0.2-0.1l-0.1-0.2
	l-2.3-4.4l5.6-5.3l5.2-0.5l0.1,0l0.1-0.1l3.1-3.5l0.1-0.1l0-0.1l0.5-6l0-0.1l-0.1-0.1l-3.4-3l-0.2-3.7l0-0.1l0-0.1l-2.1-3.1l2.6-2.4
	l0.2-0.2l-0.1-0.2l-2.8-3.3l6.5-6l3.1-1.3l0.1,0l0-0.1l2.4-3.5l0.1-0.1l-0.1-0.1l-2-4.1l3.1,0.5l2.3,4.1l0.1,0.2l0.2-0.1l4.8-2.3
	l4.5,1.4l0.1,0l0.1-0.1l3.4-3l5.2-0.4l0.1,0l0.1-0.1l3.8-4l5.4,7.8l0.1,0.1l0.1,0l3.4,0.7l2.3,6.1l0.1,0.2l0.2,0l3.9-0.4l2.4,2.3
	l0.7,3.8l0,0.1l0.1,0.1l3.8,2.1l1,4.1l0.9,5.9l-0.3,2.9l-3.9,0.7l-5.6-7.7l-1.3,3.9l-2.7,0.1l-4.8,6.9l-0.8,5.9l2.5,8l0.8,13.4
	l2.9,2.7l2.7-3.4l3.1,2.3l-3,3.9l-3.8,1.4l-1,7.4l-4.2,4.7l-2.9-2.5l3-4.3l-4,0.1l-4.4,3.9l-5.7,1.8l1,6.7l-3.3,0.8l-2.4,2
	L675.4,214L675.4,214z M742.4,145.5l1.9,0.3l3.1,1.4l-0.8,9.3l-5.8-6.5L742.4,145.5L742.4,145.5z M747.8,87.4l-4.3,1.3l-3.4-1.8
	l-0.3-0.1l-0.1,0.3l-5.6,16l-6.9-0.2l0,0l0,0l-6.3,1.9l-2.1-5.8l-0.1-0.2l-0.2,0l-9.1,0.5l-0.1,0l-0.1,0.1l-1.6,2.8l-6.1,1.4l-0.1,0
	l0,0.1l-1,3.1l-3.3,0.3l-0.2,0l0,0.2l-1.1,3.7l-3.9,1.2l-0.2,0.1l0,0.2l0.7,3.9l-3.8,4l-5.2,0.4l-0.1,0l-0.1,0.1l-3.4,3l-4.4-1.4
	l-0.1,0l-0.1,0l-4.7,2.3l-2.3-4l-0.1-0.1l-0.1,0l-3.5-0.5l-2.1-4.4l-0.1-0.1h-0.2H657l-4-1.8l-2.1-5.4l8.5-9.9l0.1-0.1v-0.1v-5.1
	v-0.1l-0.1-0.1L648,84.8l2.6-5.1l6.8-5.1v-8.5l6.7,4.2l3.1-1.8l4.7-0.5l0.5-5.1l-5.1-2.9l-3.4,1l-3.8-4.7l5.4-4.8l3.8-1l-0.5-2.7
	l5.6-9.1l20.9-11.4l14-9.3l12,3.3l4-1.8l-7.4-3l3-3.9l0.7-5.4l11.1-6.5l3.9,5.1L733.3,8l3.4,2.5l-2.6,3.3l6.7,1.3l1.4,3.1l5-0.9
	l0.1,4.4l-4.6-0.7l2.2,2.6l-9.1,6.9l-5.5-0.5l-3.1,2.6l0.4,4.7l-1.7,3.9l-2.9-3.1l-2,1.6l-3.4-3l-1,5.1l2.7,3.1l4-1.6l0.1,3.4
	l2.1-1.3l1.7,0.7l0.9,9.3l-1.7,3.5l-4.3,1.4v5.1l3.8,0.3l0.5-3.7l4.7-0.4l2.1-2.7l17.2,1.4l1.3,4.3l-9.3,6.4l3.9,2.2L747.8,87.4
	L747.8,87.4z M647.7,85.3l11.1,8.3v4.9l-8.5,9.9l-0.1,0.1l0.1,0.1l2.2,5.6l0,0.1l0.1,0l4.2,1.8l0,0h0.1h5.3l4.2,8.8l-2.2,3.3l-3,1.2
	l0,0l0,0l-6.7,6.2l-0.2,0.2l0.2,0.2l2.8,3.3l-2.6,2.4l-0.2,0.1l0.1,0.2l2.1,3.2l0.2,3.7l0,0.1l0.1,0.1l3.4,3l-0.5,5.8l-3,3.3
	l-5.2,0.5l-0.1,0l-0.1,0.1l-5.8,5.5l-0.1,0.1l0.1,0.2l2.3,4.4l-6,4.2l-0.1,0.1l0,0.1l-0.9,4.5l0,0.1l0,0.1l9,18.6l-1,3.5l-5.4,0.8
	l-0.1,0l-0.1,0.1l-1.6,2.8l-4.5,1l-7.1-2.4l-0.2-0.1l-0.1,0.1l-2.1,2.7l-0.1,0.1l0,0.1l3.7,9.8l-2.6,9.4l0,0.2l0.1,0.1l4,2.8
	l2.2,7.7l-2.9,1.3l-0.2,0.1l0,0.2l0.2,3.8l-1.4,3.7l-6,0.4l-0.2,0l0,0.2l-0.4,4.6l-10.1,3.8l-0.2,0.1v0.2v11.8l-2.4,2.8l-0.2,0.2
	l0.2,0.2l5.2,3.6l-2.8,5.4l-0.1,0.2l0.2,0.1l5.3,3.4l1.1,2.9l-2.8,3l-0.1,0.1l0,0.1l2.1,5.8l-8.2,4.3l-0.2,0.1l0,0.2l0.4,2.5
	l-3.3,1.3l-3.1-0.7l-0.1,0l-0.1,0l-10.7,4.9l-2.6-2.2l-0.1-0.1l-0.1,0l-7.7,2.9l-3.9-3.1l-0.1,0l-0.1,0l-6.3-0.2l-0.1,0l-0.1,0.1
	l-2.5,2.5l-2.8-2.5l-0.2-0.1l-0.2,0.1l-1.9,1.7l-3.4-2.8l-0.1-0.1l-0.1,0.1l-4.5,1.8l0,0l0,0l-4.3,2.8l-6.9-12.8l-5.3-12l0-0.1
	l-0.1,0l-2.9-2l-0.1-0.1l-0.1,0.1l-4.7,2.1l-1.7-5.1l0-0.1l-0.1,0l-7.9-3.1l-0.1,0l-0.1,0l-4.1,0.7l-0.1,0l-0.1,0.1l-6.1,13
	l-3.9,4.5l-3-3l-0.2-0.2l-0.2,0.3l-2,3.5l-5.5,0.2l-0.1,0l-0.1,0l-3.7,2.8l-3.4-3.6l0.7-9.7l3.4-7.8l0.1-0.3l-0.3-0.1l-4.4-1.3
	l-1.9-4.3l1.6-6.4l0-0.2l-0.2-0.1l-3.5-2l0.2-6.1l0-0.1l0-0.1l-2.7-5.2l-0.1-0.2l-0.2,0.2l-2.2,1.5l-2.6-0.2v-2.8l2.4-1.5l0.2-0.1
	l-0.1-0.2l-2.1-3.2l0,0l-0.1-0.2l-1.6-2l-0.1-0.2l-0.2,0.1l-2.8,1.9l-2.6-2.1l-0.1-0.1h-0.1h-6.1l0.4-3.2l3.7-4.5l0,0l0,0l1.2-3.2
	l0.1-0.2l-0.2-0.1l-2.5-1.7v-3.2V226l-0.1-0.1l-2.1-2.3l1-4.6l0-0.1l-0.1-0.1l-2.4-1.8l3.6-4l0.1-0.1l0-0.1l-1.4-17.5l0-0.1l0-0.1
	l-4.1-6.3l1.7-0.9l0,0l0,0l5.2-4.2l3.2,0.4l0.2,0l0-0.2l1.2-5.6l1.5-2.3l0,0l0-0.1l0.4-3l6.5-5.2l0.2-0.2l-0.2-0.2l-2.9-3.4v-5.2
	v-0.1l0-0.1l-5.6-7.9l-0.8-4l0-0.1l0,0l-1.7-2.3l0.2-2.5l3.6-1.8l2.6-2.7l2.2,2l0.8,4l0.8-2.7l3.1-4.2l11.9,0.1l-0.7,2.3l4.4,3
	l11.6-5l0.9-9.9l6.4,2.5l5.7-2l3.8,1.8l5.9,8.7l-3.5,2.5l9.7,8.7l6.3,1v-13.1l8.9,1.6l1.6-5.9l5.2,1.6l3.9-0.7l-1.3-3.1l1.4-2
	l4.8-1.2l-3.1-3.7l-0.3-3.8l-2.6,1.3l-1.4-2.6l3.7-3.5l-2.5-3l12.8-6.5l4.3-0.3l-4,3.7l0.7,3l2.7-2.5h2.7v5.9l4-3.9l-2.2-7.6l4-3.5
	l7,0.5l-3,3l2.1,2l1.7-1.8l1.8,1.6l2.1-2.7l4-0.4l4.2,2.1l3.4-1l1.8-6.4l5.1-6.3l7.4-4.8l5.2,0.5l5.2,5l7.2-4L647.7,85.3L647.7,85.3
	z M468.5,139.5l0.3-1.1l1.2-1.8l2.1,0.1l0.8,2l-3.3,2.1L468.5,139.5L468.5,139.5z M474.4,132.5l1.2-2.9l2,0.3l1.7,1l-0.5,1.8
	l-1.4,2.2L474.4,132.5L474.4,132.5z M294,138.8l-0.5,0.1l-3.7,0.9l-0.3,0.1l-0.1,0.3l-0.6,3.5l0,0.2l0.1,0.2l2.3,3.8l0.2,0.3l0.3,0
	l2.9-0.3l0.4,0l0-0.4l0.2-4l0-0.1l0-0.1l-1.1-4L294,138.8L294,138.8z M281.9,117.6l-2.8-2.8l-0.2-0.2l0-0.2l0.2-3.4l0-0.2l0.2-0.1
	l3.1-2.3l0.2-0.2l0.2,0.1l2.6,0.9l4-2.1l0.1-2.3l0-0.5l0.5,0l2.8,0.1l0.5-2.9l0.1-0.6l0.6,0.2l4.1,1.7l2.2-2l-1.9-1.9l0.3-0.3
	l1.5-1.8l0.2-0.3l0.3,0.1l2.3,1l6.4-2l0.3-1.8l0.1-0.4l0.4,0l2.4-0.1l1.1-5l0.2-0.9l0.6,0.7l2.1,2.3l1.5-1.2l0.1-0.1h3.7l4.3-2.8
	l0.2-0.1l0.2,0.1l3.3,1.4l3.3-1.9l0.3-0.2l0.3,0.2l3.8,3.3l8.7,0.7l0.8-1.7l0.1-0.2l0.2-0.1l5.3-1.4l0.3-0.1l0.2,0.2l2.3,2.7
	l0.1,0.2l0,0.2l-0.6,4l0,0.2l-0.2,0.1l-5.3,2.9l-0.1,0.1l-0.1,0l-22.1,0.5l-2.8,3.2l-0.2,0.2l-0.3-0.1l-3.3-0.7l-1.5,1.4l-0.3,0.3
	l-0.3-0.2l-2-1.4l-0.3,2l0,0.1l-0.1,0.1l-1.4,1.8l-0.4,0.5l-0.4-0.4l-1.2-1.3l-0.3,1.4l-0.1,0.6l-0.5-0.2l-1.8-0.7l-0.1,1.6l0,0.5
	l-0.5,0l-1.6-0.1l-0.7,2.2l-0.3,0l-3.1,0.3l-0.2,0l-0.1-0.1l-2.2-1.4l0.6,1.9l0.1,0.2l-0.1,0.2l-1.8,2.6l-0.1,0.1l-0.2,0l-4.5,1.5
	l-3.6,3.9l-0.9,4.3l-1.2,11.6l-0.1,0.7l-0.6-0.3l-1.8-0.9l-2.7-0.6l-0.4-0.1l0-0.4l-0.1-1.7l-2-0.3l-0.3,0l-0.1-0.2l-2.1-4.7
	l-0.1-0.3l0.2-0.2l2.6-2.6L281.9,117.6L281.9,117.6z M251.6,132.5l-2.2-3l-0.1-0.2l0.1-0.2l1-3.5l0.1-0.2l0.2-0.1l4-1.4l0.3-0.1
	l0.2,0.2l2.8,3l0.1,0.1l0,0.2l0.3,3l0,0.1l0,0.1l-0.6,2l-0.1,0.4l-0.4,0l-5.3-0.1l-0.2,0L251.6,132.5L251.6,132.5z M48.9,123.8
	L40,104.7l-0.3-0.7l0.8,0.1l3.4,0.2l2.5-1.6l0.5-0.3l0.2,0.6l2.1,6l1.9,1.2l1-4.1l0.3-1.1l0.6,0.9l2.6,4.1l0.1,0.1l0,0.2l-0.5,10.5
	l0,0.3l-0.2,0.1l-5.5,2.9l-0.5,0.2L48.9,123.8L48.9,123.8z M278.6,121.7l-0.3-4.4l0-0.7l0.6,0.1l2,0.5l0.4,0.1v3.4l-0.2,0.1
	l-1.7,1.2l-0.7,0.5L278.6,121.7L278.6,121.7z M355.4,135.4l-0.3,0.1l-1.5,0.5l-0.4,0.1l0.1,0.5l0.5,1.9l0.1,0.3l0.3,0l1.8,0.2l0.4,0
	l0.1-0.4l0.3-1.2l0.1-0.3l-0.2-0.2l-1.2-1.3L355.4,135.4L355.4,135.4z M499.3,354l-1.8,1.7l-0.1,0.1l0,0.1l-0.6,1.1l-0.1,0.2
	l0.1,0.2l0.6,2l-0.7,1.8l-1.8,0.5l-0.3,0.1l0,0.4l-0.1,2.2l-2.5,4l-3.7,1.1l-0.2,0l-0.1,0.1l-2.4,3.3l-2.7-0.2l-0.4,0l-0.1,0.4
	l-0.8,4.2l-2.1,2.3l-6.8,3l-0.1,0h-4.3l-0.8-1.7l1.8-1.1l2.7-0.4l0.1,0l0.1-0.1l5.5-3.8l0.1-0.1l0.1-0.1l2-3l4.1-3.7l0.1-0.1l0-0.1
	l0.9-2.7l2.4-4.1l2.9-4.5l0,0l0-0.1l2.5-6.9l0,0l0,0l0.2-0.6h0l1.5-4.4l0.4-1.2l0.3-0.8l0,0l0,0l1.1-6.6l1.6-2.9l1.9,0.2l0.4,2.3
	l-1.1,5.9l0,0.1l0,0.1l0.4,5.8l0,0l0,0.1l0.9,3.1L499.3,354L499.3,354z M161.3,134.6l-2.2,2.2l0,0l-3.9,4.4l-0.1,0.1l0,0.1l-1,3.7
	l-0.1,0.2l0,0l-1.7,1.6l-3.4-0.2l-1.3-1.4l1.1,0l0.2,0l0.1-0.1l1.8-1.4l0.1,0.2l0.1-0.4l0.1-0.1l-0.1-0.1l0.1-0.3l0.5-1.3l0-0.1
	l0-0.1l-0.3-4l1.4-2.8l5.2-5.6l2.9,0.7l0.9,1.6L161.3,134.6L161.3,134.6z M140.4,125.1l0.1-2.7l-1.5-2.2l-4-0.6l-3.1,0.6l-0.1,0
	l0.2,4l0,0.2l-0.1,0.1l-6.5,7.9l0.9,1.1h4l0.1,0.2l1.6,2.3l4-0.1l0.6-1.5l0-0.1l0.1-0.1l2-1.5l0.4-2.7l-0.2-3.2l0-0.2l0.1-0.1
	L140.4,125.1L140.4,125.1z M781.1,238.9l-0.8,0.4l-36-24.1l-0.1,0l0,0l-6.3-7.1l0,0l-0.3-0.3l-5.6-6.3l-0.1-0.1l0-0.2l-0.6-7.3
	l-3.9-4.6l-0.3-0.3l0.2-0.3l1.4-1.9l-0.8-2.8l-0.1-0.3l0.2-0.2l2.7-2.9l-2.4-7.6l0,0l-1.8-7.8l0,0l0,0l-0.8-12l-2.3-3.8l-0.1-0.2
	l0-0.2l2-10l-1.8-0.4l-0.4-0.1l0-0.4l0.1-3.2l-1.9-0.1l-0.1,0l-0.1-0.1l-5.1-3.5l-0.2-0.1l0-0.2l-0.8-3.9l0-0.2l0.1-0.2l2.6-3.9
	l-4.8,1.7l-1.4,4.7l6.5,7.8l0.3,0.4l-0.3,0.3l-2.4,2.3l0,0l1,4.1l0,0l0.9,5.9l0,0.1l0,0.1l-0.3,2.9l0,0.4l-0.4,0.1L713,154l-0.3,0
	l-0.2-0.2l-5.1-6.9l-1,3l-0.1,0.3l-0.3,0l-2.5,0.1l-4.6,6.6l-0.8,5.6l2.4,7.9l0,0.1l0,0.1l0.8,13.3l2.4,2.2l2.4-3l0.3-0.4l0.4,0.3
	l3.1,2.4l0.4,0.3L710,186l-3,3.9l-0.1,0.1l-0.1,0.1l-3.5,1.3l-1,7.2l0,0.1l-0.1,0.1l-4.2,4.7l-0.3,0.4l-0.4-0.3l-2.9-2.5l-0.3-0.3
	l0.2-0.4l2.4-3.5l-2.9,0.1l-4.3,3.8l-0.1,0.1l-0.1,0l-5.3,1.7l1,6.2l0.1,0.4l-0.4,0.1l-3.2,0.8l-2.3,1.9l0,0l0,0l-3.5,2.3l-0.3,0.2
	l-0.1,0.1l-1.4,0.9l0.9,1.4l0.1,0.2l-0.1,0.2l-0.4,1.6l-0.1,0.4l-0.4-0.1l-3.9-0.7l-12.8,12.6l0.9,5.8l0,0.1l0,0.1l-2,5.5l1.5,6.1
	l0,0.1l0,0.1l-1.8,7.5l-1.6,15.6l0,0.1l0,0.1l-6.2,15.6l-0.2,4.1l4.2,0.7l5.6-3.4l0.5-0.3l0.2,0.6l2.4,7.1l2.7-3.5l0.4-0.5l0.4,0.5
	l2.2,2.9l2.1-9.3l0.1-0.2l0.2-0.1l6.8-3.5l0.1-0.1l0.2,0l8.7,1.6l0.1,0l0,0l4.2,1.7l0.5,0.2l-0.2,0.5l-1.6,3.1l1.7,2l4.8,2l-3.6-8.3
	l-4.1-3.1l-0.3-0.2l0.1-0.3l0.7-3l0.1-0.5l0.5,0.1l1.8,0.4l0.9-1.2l-2.1-3.2l-4.2-2.9l-0.3-0.2l0.1-0.3l0.5-2.5l0.1-0.2l0.2-0.1
	l2.3-1l0.3-0.2l0.2,0.3l3.3,4.2l7.3,5l0.1,0.1l0.1,0.1l5.3,10l11.5,10.4l16.4,11.1l1.2,0.8l-1.4,0.1l-7.2,0.4l-3.5,2l1.7,5l3.2,8.2
	l4.9,3.5l4.3,1.9h4.4l0.1,0.3l2.9,6l0.6,1.3l-1.3-0.7l-3.3-1.7l-1.2,0.6l-0.1,0l-0.1,0l-3.3,0.2l0.6,3.5l0,0.1l0,0.1l-0.4,5.4
	l-0.1,1.3l-0.8-1l-4.8-6.1l-0.1-0.1l0-0.1l-0.6-4.4l-4.5-2.1l-0.2-0.1l-0.1-0.2l-1-3v0l-1.1-3.3l-3.7-2.8l-0.1-0.1l0-0.1l-3.3-5.3
	l-4.6-7.3l-3.8-4.8l0-0.1l0-0.1l-2.4-6.4l-6.3-3.4l1.2,2.8l0,0l0,0.1l2.2,10.7l2.4,2.9l0,0l0,0.1l7.6,15.4l0,0l0,0l1.7,4.8l0,0.1
	l0,0.1l-1.2,15.4l0,0.2l0,0.2l1.8,13.6l0,0.1l0,0.1l-2.7,11.6l-2,22.2l0,0.1l0,0.1l-4,8.1l0,0.1l-0.1,0.1l-6.8,5.5l-0.1,0.1h-0.2
	l-9.2-0.1l-5.3,5.1l-0.7,0.7l-0.1-1l-0.2-3.6l-9.8-10.1l-0.2-0.2l0.1-0.3l3.5-7.7l0.1-0.3l0.3,0l9.9-0.8l-2.4-4l-0.1-0.1l0-0.1
	l0.5-15.2l0-0.2l0-0.1l-2.1-6.1l-0.1-0.2l0-0.2l1.2-4l-3.3-5.4l-3.4,1.6l-6.5,7.3l-1.1,3.6l-0.1,0.2l-0.2,0.1l-8.9,4.3l-0.3,0.1
	l-0.2-0.2l-4.2-3.7l-0.1,0l0-0.1l-3.9-6.1l0,0l-2.7,0.3l-0.1,0l-0.1,0l-4.8-1.5l-2.4,1.2l-0.2,0.1l-0.2-0.1l-3.5-1.6l-5.7,2.3
	l-0.3,0.1l-0.2-0.2l-14.9-15.4L602,336.7l-8,1.3l-0.1,0l-0.1,0l-6.6-2.3l-8.7,4.5l-0.2,0.1l-0.2,0.1l-6.1,4.2l-3.1,5.8l4.2,0.4
	l0.3,0l0.1,0.3l2.3,6.3l0.1,0.3l-0.2,0.2l-3.4,3.4l-2,12.8l1.9,4.7l0.1,0.4l-0.3,0.2l-4.6,3.2l-1.9,5.2l-0.1,0.4l-0.4-0.1l-13.6-2.2
	l-3.1,2.8l-0.3,0.3l-0.3-0.3l-2.2-2.1l-7.4,0.4l-5.4,5l-1.1,3.7l-0.1,0.3l-0.3,0l-3.5,0.1l-11.4,6.9l-0.1,0.1l-0.2,0l-17.1-1.6
	l-0.3,0l-0.1-0.2l-2.1-3.9l-1.9-0.1l-0.1,0l-0.4,0l-3.5-0.1l-0.3,0l-0.1-0.2l-1.4-2.5l-5.7,0.4l-0.1,0l-0.1,0l-5.5-1.8l-7.3,4.3
	l-0.1,0.1l-0.1,0l-5.2,0.1l-0.1,0l-0.1-0.1l-7.4-3.9l-0.2-0.1l-0.1-0.2l-2-7.8l-9.9-2.3l0,0l0,0l-10.9-4.4l-0.8,3.1l-0.4,0l-2.3,0.1
	l-0.1,2.3l0,0.3l-0.3,0.1l-1.8,0.6l-0.4,5.5l3.1,3.8l0.2,0.2l-0.1,0.3l-2,4.8l0,0.1l-0.1,0.1l-2.7,2.3l-0.1,0.1l-0.1,0l-3,1
	l-0.3,0.1l-0.2-0.2l-1.8-1.7l-3.6-0.5l-9.5-1l-0.1,0l-0.1,0l-3.4-1.7l-0.2-0.1l0-0.2l-0.6-3.7l-8.7-1.9l-0.2,0l-0.1-0.2l-0.9-1.3
	l-5.7,0.4l-16.7,6.3l-0.2,0.1l-0.2,0.1l-4.2,3.1l-0.1,0.1l-0.2,0l-6,0.2l-1.3,2.9l-0.1,0.3l-0.3,0l-4.7-0.5l-0.2,0l-0.1-0.2l-3-4.4
	l0-0.1l0-0.1l-0.8-2.7l-4.2,2.2l-0.4,0.2l-0.3-0.3l-1.6-2l-4-0.9l-0.4-0.1l0-0.4l-0.1-4.2l-3.9-2.2l-0.2-0.1l0-0.3l-0.5-4.5l0-0.2
	l-0.1-0.2l-2.1-4.3l-2.7-1.2l-5.4,2l-0.2,0.1l-0.2-0.1l-7.2-3.9l-0.2-0.1l0-0.2l-0.6-3.3l-1.6-0.7l-2.1,3.1l-0.1,0.2l-0.2,0
	l-3.4,0.5l-0.5,0.1l-0.1-0.5l-6.3-30.3l0-0.2l-0.1-0.1l-5.7-9.3l-0.2-0.3l0.3-0.3l2-2.1l-5.7-0.1l-0.2,0l-0.2,0l-5.5,1l-1.9,1.6
	l-0.1,0.1l-0.1,0l-2.3,0.5l-0.2,0l-0.2-0.1l-2.4-1.3l-2.8,0.9l-0.6,0.2v-3l0.2-0.1l2.6-2.2l-1.7-1.9l-1.9-0.5l-2.7-0.1l-0.4,0l0-0.4
	l-0.2-2.7l-5.3-1.2l-0.3-0.1l-0.1-0.3l-0.5-2.2l-0.1-0.2l0.2-0.2l2.4-2.8l-0.7-2.1l-0.1-0.3l0.2-0.2l1-1.2l-0.1-2.8l-1.6-0.5
	l-0.2-0.1l-0.3,0l-2.4-0.4l-0.2,0l-0.1-0.2l-2.9-4.8l-3.4,0.1h-0.1l-0.2,0.1l-4.5,2l-0.1,0.1l-0.2,0l-12.3-2.4l-0.1,0l-0.1,0
	l-3.4-1.8l-2.2,1.8l-0.3,0.2l-0.3-0.2l-4.1-2.6l-7.3-1.7l-0.2,0l-0.2,0l-7-0.4l-0.2,0l-0.1-0.1l-3.2-3.4l-1.8,0.5l-2.2,2.3l1,3.3
	l2.2,3.6l0.2,0.3l-0.3,0.3l-1.8,1.7l-0.3,0.3l-0.3-0.3l-2.9-2.3l-2.2-0.1l-2,1.1l-0.4,3.3l0,0.4l-0.4,0l-4.7,0.4l-1.4,1.8l0,0l0,0
	l0.1,0.1l3.7,8.1l0.1,0.3l-0.2,0.2l-2.1,3l0,0.1l-0.1,0l-2.1,1.6l-0.2,0.1l-0.2-0.1l-4.8-1.6l-0.2-0.1l-0.1-0.2l-1.1-2.2l-1.2-0.4
	l-1.8,1.1l-0.2,0.1l-0.2-0.1l-2-0.7l-0.1,0l-0.1-0.1l-2.3-2.6l-0.1-0.1l0-0.1l-0.5-2.1l0-0.1l0-0.1l0.5-3.3l-2.1-1.3l-0.1,0l0,0
	l-1.5-1.5l-1.4,1.5l-0.2,0.2l-0.3,0l-2.1-0.4l-0.2,0l-0.1-0.2l-0.9-1.6l-0.1-0.1l0-0.1l0.1-1.6l-3.8-1.7l-2-0.1l-2.2,1.5l-0.3,0.2
	l-0.3-0.2l-2-1.4l-0.2-0.1l0-0.2l-0.6-3.3l-0.8-1.7l-0.9-0.3l-2.8,1.7l-0.5,0.3l-0.2-0.5l-1.3-2.5l0.1-0.2l1.1-2.7l-1-4.4l-1-3.4
	l-2.4-0.8l-0.1,0l-0.1-0.1l-0.9-1l-0.2-0.2l0.1-0.3l0.7-1.6l0.1-1.4l-2.2-1l-1.1,1l-0.1,0.1l-0.1,0l-1.8,0.4l-0.4,0.1l-0.2-0.4
	l-1.6-3.8l0-0.1l0-0.1l0.1-2.8l-1.7,0.4l-3,0.8l0,0l0,0l-4,0.3l-0.2,0l-0.1-0.1l-1-0.8l-1.2,0.1l-2.1,1.7l-0.2,0.1l-0.2,0l-3.8-0.7
	l-1.5,1.6l-1.4,2.8l-0.1,0.2l-0.2,0.1l-2.9,1.3l-0.4,0.2l-0.2-0.4l-1.4-2.6l-0.1-0.2l0.1-0.2l0.6-2l0.2-2.3l-2.3-2.2l0,0l-1.4,0.4
	l0,0l-4,1l-3.5,2l-0.6,3.2l-0.1,0.3l-0.3,0.1l-4.4,1.5l-0.2,0.1l-0.2,0.1l-1.9,0.8l-1,0.5l2.7,3.7l0.3,0.4l-0.3,0.3l-3.3,3l-0.3,1.6
	L97,295l0.2,0l0.1,0.1l1.8,2.5l0.1,0.2l0,0.2l-2.1,11.7l-0.1,0.3l-0.3,0.1l-2.3,0.4l0.8,3.8l0.1,0.6l-0.6,0l-11,0.3l-0.1,0l-0.1,0
	l-4.1-1.5l-0.1-0.1l0,0l-0.1,0l-3.9,1.8l-0.1,0l-0.1,0l-4.1-0.1l-0.1,0l-0.1,0.1l-2.8,2.1l0.6,2.4l0,0.1l0,0.1l-0.5,6.3l0,0.2
	l-0.1,0.1l-6.2,5.9l-1.7,9.6v7.1l-0.2,0.1l-2.5,1.6l-0.2,0.1l-0.2-0.1l-2.1-0.7l0,0l0,0l-1.5-0.8l-0.7,1.2l-0.1,0.1l-0.2,0.1
	l-1.6,0.7l-0.3,0.1l-0.2-0.3l-3.3-4l-0.2-0.2l0.1-0.2l0.6-2.6l0.3-5.3l-3.6-5.1l-0.1-0.1l0-0.1l-0.3-3.9l0-0.2l0.2-0.2l1.4-1.4l0,0
	l-0.4-1.9l-0.9-2.5l0-0.1l-0.1-0.1l-1.4-1l-0.2-0.1l0-0.2l-0.1-1h0l0-0.3l0-0.2l0-0.1l0-0.5l-5-2.4l-0.3-0.1l0-0.3l-0.2-4.5l0-0.2
	l-0.1-0.1l-0.8-1.3l-0.1-0.1l0-0.1l-0.1-4l-2.6-2.9l-0.4-0.4h0l-3.2-3.5l-0.1-0.1v-3.3l-3.1-5.3l-0.1-0.1l-0.2-0.3l-1.2-1.9
	l-1.7,0.7l-0.4,0.2l-0.2-0.3l-1-1.4l-0.1-0.2l0-0.2l0.9-7.9l0.4-4.8l-1.2-5.1l0-0.1l0-0.1l0.1-3l-1.9-1.4l-0.1-0.1l-0.7-2.1
	l-0.1-0.3l0.2-0.2l1.3-1.6l-0.3-4.4l0-0.2l0.2-0.2l2.9-2.6l0.4-0.4l0.3,0.5l3.3,5.5l1.4-1.8l0.1-0.2l0.2,0l5-0.3l0.1,0l0.1,0.1l2,1
	L37,253l0.1-1l0.7,0.6l4.8,4.3l0.1,0.1l0,0.1l0,0.1l2-1.6l0.3-0.2l0.3,0.2l3.4,2.1l1.2-0.8l-6.4-3.8l-0.5-0.3l0.4-0.4l3.3-3.4
	l0.2-0.2l0.2,0l7,0.9l0.2,0l0.1,0.2l2.8,4.1l3.7-1.4l2.4-4.3l0.1-0.2l0.2,0l1.9-0.2l1.4-2.2l0.1-0.2l0.3,0l3.6,0.1l0-0.8l0-0.2v0
	l0-0.5h0l0.2-4.4l-1-2l-0.2-0.3l-0.1-0.1l-3.9-7.4l-0.1-0.1l0-0.1l-0.1-5.5l-4.7-3l-0.3-0.2l0-0.3l0.2-2.7l-1.6-0.8l-0.2-0.1l0-0.2
	l-0.4-2l0-0.2l0.1-0.2l0.9-1.4l0,0l0,0l1.9-2.3l0.1-0.1l0-0.2l0.5-4.6l-1.9-1.1l-0.3-0.1l0-0.3l0.1-2.6l0-0.4l0.3-0.1L62,201
	l0.9-1.9l0.1-0.2l0.2-0.1l2.2-0.9l0.1,0l0.1,0l0.1,0l0.2-0.3l3.3-4.4V192l-2.3-0.4l-2.3,0.3l-0.4,0l-0.1-0.4l-0.7-3.5l-1.8-1.5
	l-2.6,0.1l-0.4,0l-0.1-0.4l-0.4-2.9l0-0.3l0.2-0.2l5.1-4.4l1.4-3.4l0.2-0.4l0.4,0.1l2.5,0.5l0.4,0.1l0,0.4l-0.2,2.1l2.3,2.2l3.4,0.3
	l0.1-1.4l0-0.2l0.1-0.1l1.5-1.9l-0.6-2.1l0-0.1l0-0.1l0.3-3.9l0-0.1l0-0.1l2.3-4.8l0,0l0,0l2.2-3.5l0.1-0.1l0.1-0.1l4.2-2.4l0.4-0.8
	l0.1-0.2l0.2-0.3l0.1-0.2l0.9-1.6l-0.6-2.8l-2.8-0.7L82,153l-0.1-0.3l-0.5-2.2l-0.1-0.2l0.2-0.2l2-2.4l-1.7-2.2l-0.1-0.1l0-0.2
	l-0.3-4.6l0-0.3l0.2-0.2l4.6-3l0.1-3.3l0-0.4l0.4,0l3-0.4l2.6-4.4l0.2-0.3l0.3,0l4.3,0.2l2.2-3l0-0.1l0.1,0l4-3.1l0.1-0.1l0.1,0
	l2.5-0.3l0.5-0.1l2.6-0.3l3.9-2.5l0.3-0.2l0.3,0.3l3.1,3l1.9,0.1l0.3,0l0.1,0.3l0.9,2.4l0.8-0.7l-0.4-1.7l0-0.1l0-0.1l0.3-4.3l0-0.3
	l0.3-0.1l5.4-2l0.1,0l0.1,0l4.3-0.2l0.2,0l0.2,0l5.8-0.2l0,0l0,0l12.7,1.7l2.5-1l0.9-6.6l0,0l0,0l1.3-4.6l0.1-0.4l0.4,0.1l4.6,0.7
	l1-1l-1-1.9l-0.2-0.4l2.3-1.7l1.1-2.1l1-2.6l0.1-0.3l0.3,0l2.5,0.1l3.5-2.4l0.1-0.1l0.2,0l2.6,0.1l5.4-6.8L179,86l0.2-0.2l0.2-0.2
	l2.1-2.7l0.1-0.2l0.2,0l6.4-0.1l3.2-5.1l-0.1-4.1l0.3-0.1l4.9-2.9l1.9-1.4l0.1-0.1l0.2,0l9.9,0.9l0.1,0l0.1,0.1l6.9,4.7l0.1,0.1
	l0.1,0.1l1.8,3.5l0.2,0.4l-0.4,0.2l-2,1.3l-0.4,0.3l-0.3-0.4l-1.7-2.4l-0.8,0.5l0.5,3.6l3.2,5.1l0,0.1l0,0.1l1.3,4.3l0,0.1l0,0.1
	l-0.3,11.7l2.1,8l0,0.1l0,0.1l-1.3,6.8l0,0.1l-0.1,0.1l-4.7,6.4l-0.1,0.2l-0.2,0l-6.3,1.2l-0.2,0l-0.2-0.1l-10.2-6.1L196,120l0-0.2
	l-0.6-4.2l-2.7-4.1l-0.1-0.1l0-0.1l-0.5-6.8l-1.9-4.1l-0.1-0.1l0-0.1l0.6-4.5l-0.8-1.1l-0.9,5.5l-0.1,0.6l0,0l0,0.2l-0.9,5.9l0,0.1
	l0,0.1l-2.4,4l-0.1,0.2l-0.2,0.1l-3.9,1.3l-4.7,5.9l-1.4,2.6l1.5,2.1l0.1,0.2l0,0.2l-0.4,1.7l0.3,2.1l0,0.2l0,0.3l0.6,4.2l3.2,1.8
	l1.9-2.5l-2.2-2.7l-0.2-0.2l0.1-0.2l1.6-5.5l0.1-0.3l0.3,0l5.7-0.7l0.6-0.1l0,0.6l-0.5,6.3l3.4,8l1.9,1.1l3.2-8l0.1-0.3l0.3,0
	l6.1-0.9l0.1,0l0.1,0l4.9,1.7l4.8-0.8l0.3-0.1l0.2,0.3l3.3,6.1l0.3,0.6l-0.6,0.1l-2,0.4l1.2,2.3l3.5-3.1l0.2-0.2l0.2-0.2l0,0
	l0.2-0.2l3.4-3.1l0.6-3.8l0-0.2l0.2-0.1l7.7-5l1.6-6l0.2-0.8l0.6,0.6l5.7,6.3l0.1,0.1l0,0.2l0.1,6.1l0,0.1l-0.1,0.1L238,133
	l-0.3,0.4l-0.4-0.3l-4.1-2.9l-4,1.3l1,2.9l0.1,0.2l-0.1,0.2l-1.1,3.1l3.4,3.3l7.3-4.3l0.3-0.2l0.3,0.2l1.7,1.6l1.7-1.7l0.3,0.1
	l14.4,3.5l0.2,0.1l0.1,0.2l1,1.7l2.2-2.6l0.2-0.2l0.3,0.1l5.6,1.3l0.6,0.1l-0.3,0.6l-2.2,4.3l-0.1,0.2l-0.3,0l-3.3,0.3l1.8,2.5
	l6.8-0.6l0.2,0l0.1,0.1l4.4,3.3l9.1,0.1l0.5,0v3.6l-0.2,0.1l-2.4,2.2l1.6,1.3l1-1.5l0.2-0.3l0.3,0.1l1.8,0.4l3.1-1.9l0.1-4l0,0l0,0
	l0.7-2.9l0.1-0.4h5.6l0.1,0.2l6.5,7l0,0l0,0l2.5,4.6l0.1,0.2l0.1,0.2l5.1,8.2l0,0.1l0,0.1l1.3,5.5l1.2,1.9l4.1-3.8l-1.2-1.7l0-0.1
	l0-0.1l-0.7-2.3l0-0.2l0.1-0.1l1.2-3.4l-3.6-3.7l-0.1-0.2l0-0.2l0.1-2l0-0.3l0.3-0.1l4.1-1.2l2.9-5.2l-2.7-3.5l-0.3-0.3l0.3-0.3
	l2.9-2.7l0.1-0.1l0.1,0l5.4-1.3l3.5-3.4l4.7-6l0-0.1l0,0l3.9-3l0.2-0.2l0.3,0.1l1.6,0.6l-0.5-1.2l0-0.1l0-0.1l0.3-3.7l0-0.5l0.5,0
	l4.1,0.3l0.4,0l0,0.4l0.6,5l0.1,0.5l-0.5,0.1l-3.3,0.4l3.5,4.7l0.1,0.2l0,0.2l-1,6.9l0,0.2l-0.1,0.1l-5,4.8l0.9,4l0,0.1l0,0.1
	l-0.9,3.3l0,0l0,0l-7.9,18.8l0.8,5l0,0.1l-0.1,0.1l-4.7,9.4l-0.1,0.1l-0.1,0.1l-6.9,4.4l0,0l0,0l-4.3,1.7l-0.2,0.1l-0.2-0.1
	l-7.5-3.5v2.6l11.7,7.2l3.4-3.6l0.1-0.1l0.1,0l5.2-1.9l5.7-5.8l0.4-7.5l0-0.2l0.1-0.1l3.5-3.4l0.2-0.2l0.2,0l6.4,0.9l0.3,0l0.1,0.3
	l1.8,5.5l0.1,0.2l-0.1,0.2l-4.1,7.1l1.4,5.2l3.9-0.9l-1.9-1.1l-0.1-0.1l-0.1-0.1l-1-2.1l-0.1-0.3l0.2-0.2l3.7-4.4v-5.8l-5.1-6.1
	h-6.8l0-0.5l-0.4-6.1l0-0.2l0.1-0.1l6.3-9.9l-0.1-10.2l0-0.2l0.1-0.1l2.6-3.9l0.1-0.1l0.2,0l2.6-0.8l2.4-2.2l1.7-4.6l0.1-0.2
	l0.2-0.1l1.4-0.7l0.7-0.3l-0.1,0.8l-0.5,6.9l0,0.2l-0.1,0.1l-3.4,4.2l0.2,4.3l7.3,6.5l-0.2-3l-4.5-4.8l-0.2-0.2l0.1-0.3l1.2-4
	l0.2-0.7l0.6,0.5l3.7,3.4l1.1-3.9l0.1-0.3l0.3,0l2.6-0.2l0.3,0l0.2,0l0,0l3.5-0.2l0.3,0l0.1,0.3l4.7,8.7h4.6l-1.6-3.8l-4-3.8
	l-0.2-0.1l0-0.2l0.3-9.1l0-0.1l0.1-0.1l2-3.5l0.1-0.3l0.3,0l6.4,0.1l0,0l0,0l11,1.8l3.5-0.9l-2.4-4.4l-0.1-0.2l0-0.2l1.4-5.9l0-0.2
	l0.1-0.1l3.3-2.9l0.1-0.1l0.2,0l4.3-0.1l5.6-4.5l0.1-0.1l0.1,0l8.1-1.1l-0.1-3.6l0-0.5l0.5,0l7-0.1l0.4,0l0.1,0.4l0.6,1.9l4.4,0.8
	l2-1.9l0.2-0.2l0.2,0.1l3.1,0.7l-1.5-2.3l-0.1-0.1l0-0.1l-0.1-1.6l0-0.5l0.5,0l5.4-0.4l-1.2-4.4l-0.1-0.2l0.1-0.2l5.6-8.4l0.1-0.1
	L445,97l3.5-1.3l0.3-0.1l0.2,0.2l3.9,3.3l0.3,0.3l-0.3,0.4l-1.6,2.3l5.6,0.7l0.6,0.1l-0.2,0.6l-2.1,5.9l2.1-0.4l2.6-3.7l0.2-0.2
	l0.3,0l7.8,0.3l0.2,0l0.1,0.2l8.4,9.5l0.2,0.2l-0.1,0.3l-2.7,9.7l0,0.1l0,0.1l-6,10.8l0,0.1l0,0l-10.7,11.1l-0.1,3.1l1.1-2l0.1-0.2
	l0.2-0.1l5.3-1.5l3.8-2.9l0,0l0,0l3.4-1.7l0.3-0.1l0.2-0.1l0.2-0.1l0,0l3.3-1.6l2.6-2.7l0.3-0.3l0.3,0.3l2.2,2l0.1,0.1l0,0.2l0.4,2
	l0.2-0.8l0-0.1l0.1-0.1l3.1-4.2l0.1-0.2l0.2,0l11.9,0.1l0.6,0l-0.2,0.6l-0.6,2l3.9,2.7l11.1-4.7l0.9-9.6l0.1-0.6l0.6,0.2l6.2,2.4
	l5.6-1.9l0.2-0.1l0.2,0.1l3.8,1.8l0.1,0.1l0.1,0.1l5.9,8.7l0.3,0.4l-0.4,0.3l-3,2.1l9.1,8.2l5.6,0.9v-13.1l0.6,0.1l8.4,1.5l1.4-5.4
	l0.1-0.5l0.5,0.1l5.1,1.5l3.2-0.5l-1.1-2.6l-0.1-0.3l0.2-0.2l1.4-2l0.1-0.1l0.2,0l4.1-1l-2.6-3.1l-0.1-0.1l0-0.2l-0.2-3.1l-2,1
	l-0.4,0.2l-0.2-0.4l-1.4-2.6l-0.2-0.3l0.3-0.3l3.3-3.2l-2.2-2.7l-0.4-0.5l0.5-0.3l12.8-6.5l0.1,0l0.1,0l4.3-0.3l1.4-0.1l-1,0.9
	l-3.8,3.5l0.4,1.9l2.1-1.9l0.1-0.1h3.4v5.2l3-2.9l-2.1-7.3l-0.1-0.3l0.2-0.2l4-3.5l0.2-0.1l0.2,0l7,0.5l1.1,0.1l-3.4,3.4l1.4,1.3
	l1.4-1.5l0.3-0.3l0.4,0.3l1.4,1.2l1.8-2.3l0.1-0.2l0.2,0l4-0.4l0.1,0l0.1,0.1l4,2l3-0.9l1.8-6.1l0-0.1l0.1-0.1l5.1-6.3l0.1-0.1
	l0.1,0l7.4-4.8l0.1-0.1l0.2,0l5.2,0.5l0.2,0l0.1,0.1l5,4.7l6.7-3.8l1.3-2.5l0-0.1l0-0.1l0.2-0.4l2.6-5l0.1-0.1l0.1-0.1l6.6-4.9v-9.1
	l0.7,0.5l6.4,4l2.9-1.7L667,68l0.1,0l4.3-0.5l0.4-4.4l-4.6-2.6l-3.2,1l-0.3,0.1l-0.2-0.3l-3.8-4.7l-0.3-0.4l0.3-0.3l5.4-4.8l0.1-0.1
	l0.1,0l3.4-0.9l-0.4-2.3l0-0.2l0.1-0.2l5.6-9.1l0.1-0.1l0.1-0.1L695,26.9l14-9.3l0.2-0.1l0.2,0.1l11.8,3.2l2.9-1.3l-6.4-2.6
	l-0.6-0.2l0.4-0.5l2.9-3.8l0.6-5.2l0-0.2l0.2-0.1l11.1-6.5l0.4-0.2l0.3,0.3l3.9,5.1l0.3,0.4l-0.4,0.3L734.2,8L737,10l0.4,0.3
	l-0.3,0.4l-2.1,2.6l5.9,1.2l0.2,0l0.1,0.2l1.3,2.8l4.6-0.8l0.6-0.1l0,0.6l0.1,4.4l0,0.6l-0.6-0.1l-3.3-0.5l1.4,1.6l0.3,0.4l-0.4,0.3
	l-9.1,6.9L736,31l-0.2,0l-5.3-0.5l-2.8,2.3l0.4,4.4l0,0.1l0,0.1l-1.7,3.9l-0.3,0.7l-0.5-0.6l-2.6-2.8l-1.6,1.3l-0.3,0.3l-0.3-0.3
	l-2.8-2.4l-0.8,4l2.4,2.7l3.7-1.4l0.6-0.2l0,0.7l0.1,2.6l1.4-0.9l0.2-0.1l0.2,0.1l1.7,0.7l0.3,0.1l0,0.3l0.9,9.3l0,0.1l-0.1,0.1
	l-1.7,3.5l-0.1,0.2l-0.2,0.1l-4,1.3v4.3l2.9,0.2l0.5-3.2l0.1-0.4l0.4,0l4.5-0.4l2-2.6l0.2-0.2l0.3,0l17.2,1.4l0.3,0l0.1,0.3l1.3,4.3
	l0.1,0.3l-0.3,0.2l-8.6,6l3.2,1.8l0.2,0.1l0,0.3l1.3,14.1l0,0.1l0,0.4l1.8,19.9l3.8,9.2l0.3,0.7l-0.7,0l-6.5,0.1l-4.2,4.3l-0.1,12.3
	l0,1l-0.8-0.6l-4.5-3.6l2.3,9.1l0.1,0.5l-0.5,0.1l-3.2,0.7l-0.5,5.1l8.7,17.4l2,0.2l0.4-2.6l0.1-0.4h5l0.1,0.3l1.9,4.6l0,0.1
	l0.1,0.1l3.9,2.5l2.4-1.3l0.3-0.2l0.3,0.2l4.8,4.6l0.5,0.4l-0.5,0.3l-3.1,2l-0.4,0.2l-0.3-0.4l-1.7-2.4l-0.8,0.5l6.1,10.8l6.1,1.8
	l0.3,0.1l0.1,0.3l0.8,3.4l0.1,0.2l-0.2,0.2l-3,3.3l-0.1,5.6l7.3,8.5l0.3,0.4l-0.4,0.3l-2.1,1.7l-0.4,6l4.2,4.2l0.1,0.1l0,0.1l1.4,6
	l0,0l0,0L781.1,238.9L781.1,238.9z M744.5,145.4L744.5,145.4l3.2,1.4l0.3,0.1l0,0.3l-0.8,9.3l-0.1,1.1l-0.7-0.8l-5.8-6.5l-0.2-0.2
	l0.1-0.3l1.5-4.6l0.1-0.4l0.4,0.1L744.5,145.4L744.5,145.4L744.5,145.4z M472.5,136.2l0.1,0.3l0.8,2l0.1,0.4l-0.3,0.2l-3.3,2.1
	l-0.4,0.2l-0.3-0.3l-1-1.2l-0.1-0.2l0.1-0.2l0.3-1.1l0-0.1l0-0.1l1.2-1.8l0.2-0.2l0.3,0l2.1,0.1L472.5,136.2L472.5,136.2z
	 M184.5,116.3l0,0.2l0.4,1.6l0.1,0.3l-0.3,0.2l-1.4,0.9l-0.4,0.2l-0.3-0.3l-1-1.1l-0.2-0.2l0-0.2l0.1-1.1l0-0.1l0.1-0.1l0.8-1.1
	l0.3-0.4l0.4,0.3l1,0.8L184.5,116.3L184.5,116.3z M475.3,129l0.4,0.1l2,0.3l0.1,0l0.1,0.1l1.7,1l0.3,0.2l-0.1,0.3l-0.5,1.8l0,0.1
	l0,0.1l-1.4,2.2l-0.3,0.5l-0.4-0.3l-3-2.4l-0.3-0.2l0.1-0.3l1.2-2.9L475.3,129L475.3,129z M632.3,85.9l-1.6-1.1l-0.3-0.2l0.1-0.4
	l0.7-1.9l0.1-0.3l0.3-0.1l2.2-0.4l0.4-0.1l0.1,0.4l0.7,2.3l0.1,0.4l-0.3,0.2l-1.9,1.1l-0.3,0.2L632.3,85.9L632.3,85.9z M363.8,144
	l0.2,0.6l0.9,3.3l0.1,0.5l-0.5,0.1l-2.2,0.4l-0.1,0l-0.1,0l-2.2-0.8l-0.5-0.2l0.3-0.5l0.7-1.4l0.1-0.1l0.1-0.1l2.7-1.5L363.8,144
	L363.8,144z M371.1,141.4l0,0.3l0.5,4l0,0.4l-0.3,0.1l-1.5,0.7l-0.3,0.2l-0.2-0.3l-2.2-2.9l-0.2-0.3l0.2-0.3l1.8-2.6l0.2-0.4
	l0.4,0.2l1.5,0.8L371.1,141.4z"/>
</svg>
