<svg xmlns="http://www.w3.org/2000/svg" viewBox="0 0 419.9 139.5"><path fill-rule="evenodd" clip-rule="evenodd" fill="#FFF" stroke="#1E1E1E" stroke-width=".709" stroke-linecap="round" stroke-miterlimit="10" d="M328.5 105.8V82.3l-14.9-17.5h-19.9l-.1 40.9 33.4.1h1.5zM351.2 91.8l-10.4-38.1-12.6-.2.4 23.4v14.9zM288.3 54.7h25.5v10.1h-25.5zM303.6 35.4h-2.3v19.1h3.7zM293.7 31.9H305v3.5h-11.3z"/><path fill-rule="evenodd" clip-rule="evenodd" fill="#FFF" stroke="#1E1E1E" stroke-width=".709" stroke-linecap="round" stroke-miterlimit="10" d="M293.6 89.1h63.8v16.6h-63.8z"/><path fill="none" stroke="#1E1E1E" stroke-width=".709" stroke-linecap="round" stroke-miterlimit="10" d="M309.8 58.5v1.3M305.8 58.5v1.3M301.9 58.5v1.3M288.8 59.3h7.3M329.1 64.4h14.7M329.1 80.3H348M294.3 72.6h25.8M294.3 80.6h32.3M302.3 31.9V.9M301.8 12.3h-2.7M301.8 17.1h-2.7M301.8 17.1h-2.7M301.8 21.9h-2.7M301.8 26.9h-2.7"/><path fill-rule="evenodd" clip-rule="evenodd" fill="#FFF" stroke="#1E1E1E" stroke-width=".709" stroke-linecap="round" stroke-miterlimit="10" d="M302.1 4.9c-1.2 0-2.3-1-2.3-2.3 0-1.2 1-2.3 2.3-2.3 1.3 0 2.3 1 2.3 2.3-.1 1.3-1.1 2.3-2.3 2.3z"/><path fill="none" stroke="#1E1E1E" stroke-width=".709" stroke-linecap="round" stroke-miterlimit="10" d="M309.1 68.3v1.3M305.1 68.3v1.3M301.2 68.3v1.3M297.3 68.3v1.3M316.6 73.1l-5 7.1M316.6 81.3l-5 7.1M309.1 75.9v1.3M305.1 75.9v1.3M301.2 75.9v1.3M297.3 75.9v1.3M309.1 83.9v1.3M305.1 83.9v1.3M301.2 83.9v1.3M297.3 83.9v1.3M326.4 97.5v.1c0 2 1.7 3.7 3.8 3.7h13c2.1 0 3.7-1.7 3.7-3.7v-.1h-20.5zM343.1 96.7v-2.4M336.4 96.7v-2.4M329.7 96.7v-2.4M325.6 93.4h21.7M316.6 90l-5 7.1M294.3 97.5h32.3M316.6 98.1l-5 7.1"/><path fill-rule="evenodd" clip-rule="evenodd" fill="#FFF" stroke="#1E1E1E" stroke-width=".709" stroke-linecap="round" stroke-miterlimit="10" d="M59.2 101.6h16.5v3H59.2zM39.3 101.6h16.5v3H39.3zM25.8 85.5h-2.4v19h3.8zM22 82h7v3.4h-7z"/><path fill="none" stroke="#1E1E1E" stroke-width=".709" stroke-linecap="round" stroke-miterlimit="10" d="M24.4 82V61.8M25.8 71.9H23M25.8 75.8H23"/><path fill-rule="evenodd" clip-rule="evenodd" fill="#FFF" stroke="#1E1E1E" stroke-width=".709" stroke-linecap="round" stroke-miterlimit="10" d="M357.4 101.1h34.8v4.6h-34.8zM379 87l36.6-22.1 2.6.5-33.6 24.1zM379.5 90.4h4.3V101h-4.3z"/><path fill-rule="evenodd" clip-rule="evenodd" fill="#FFF" stroke="#1E1E1E" stroke-width=".709" stroke-linecap="round" stroke-miterlimit="10" d="M377.6 82h9.3v10.6h-9.3z"/><path fill="none" stroke="#1E1E1E" stroke-width=".709" stroke-linecap="round" stroke-miterlimit="10" d="M382.9 85.6h4M416.8 81.7V67.8"/><path fill-rule="evenodd" clip-rule="evenodd" fill="#FFF" stroke="#1E1E1E" stroke-width=".709" stroke-linecap="round" stroke-miterlimit="10" d="M416.8 63.3h-.2c-1.3 0-2.4 1.1-2.4 2.4 0 1.3 1.1 2.4 2.4 2.4h.2c1.3 0 2.4-1 2.4-2.4-.1-1.3-1.1-2.4-2.4-2.4zM415.1 81.7h3.3v1.8h-3.3zM362.7 94.3h7.1v2.6h-7.1z"/><path fill-rule="evenodd" clip-rule="evenodd" fill="#FFF" stroke="#1E1E1E" stroke-width=".709" stroke-linecap="round" stroke-miterlimit="10" d="M364.2 96.8h4.3v4.1h-4.3z"/><path fill="none" stroke="#1E1E1E" stroke-width=".709" stroke-linecap="round" stroke-miterlimit="10" d="M378.3 110.3h5.9M363.6 110.3h5.8"/><path fill-rule="evenodd" clip-rule="evenodd" fill="#BCBCD1" stroke="#1E1E1E" stroke-width=".709" stroke-miterlimit="10" d="M244.6 100.7h25.5v11.1h-25.5z"/><path fill-rule="evenodd" clip-rule="evenodd" fill="#9BA6D5" stroke="#1E1E1E" stroke-width=".709" stroke-miterlimit="10" d="M219.1 100.7h25.5v11.1h-25.5z"/><path fill-rule="evenodd" clip-rule="evenodd" fill="#E3AA8D" stroke="#1E1E1E" stroke-width=".709" stroke-miterlimit="10" d="M193.7 100.7h25.5v11.1h-25.5z"/><path fill-rule="evenodd" clip-rule="evenodd" fill="#DEDEE5" stroke="#1E1E1E" stroke-width=".709" stroke-miterlimit="10" d="M168.2 89.6h25.5v11h-25.5z"/><path fill-rule="evenodd" clip-rule="evenodd" fill="#E3AA8D" stroke="#1E1E1E" stroke-width=".709" stroke-miterlimit="10" d="M142.6 89.6h25.5v22.2h-25.5z"/><path fill-rule="evenodd" clip-rule="evenodd" fill="#DEDEE5" stroke="#1E1E1E" stroke-width=".709" stroke-miterlimit="10" d="M117.1 100.7h25.5v11.1h-25.5z"/><path fill-rule="evenodd" clip-rule="evenodd" fill="#9BA6D5" stroke="#1E1E1E" stroke-width=".709" stroke-miterlimit="10" d="M117.1 100.7H91.6v10.4l3.5.7h22z"/><path fill-rule="evenodd" clip-rule="evenodd" fill="#DEDEE5" stroke="#1E1E1E" stroke-width=".709" stroke-miterlimit="10" d="M244.6 89.6h25.5v11h-25.5z"/><path fill-rule="evenodd" clip-rule="evenodd" fill="#BCBCD1" stroke="#1E1E1E" stroke-width=".709" stroke-miterlimit="10" d="M219.1 89.6h25.5v11h-25.5z"/><path fill-rule="evenodd" clip-rule="evenodd" fill="#DEDEE5" stroke="#1E1E1E" stroke-width=".709" stroke-miterlimit="10" d="M193.7 78.5h25.5v22.1h-25.5z"/><path fill-rule="evenodd" clip-rule="evenodd" fill="#BCBCD1" stroke="#1E1E1E" stroke-width=".709" stroke-miterlimit="10" d="M168.2 100.7h25.5v11.1h-25.5zM117.1 89.6h25.5v11h-25.5z"/><path fill-rule="evenodd" clip-rule="evenodd" fill="#E3AA8D" stroke="#1E1E1E" stroke-width=".709" stroke-miterlimit="10" d="M244.6 78.5h25.5v11.1h-25.5z"/><path fill-rule="evenodd" clip-rule="evenodd" fill="#9BA6D5" stroke="#1E1E1E" stroke-width=".709" stroke-miterlimit="10" d="M142.6 78.5h25.5v11.1h-25.5z"/><path fill-rule="evenodd" clip-rule="evenodd" fill="#E3AA8D" stroke="#1E1E1E" stroke-width=".709" stroke-miterlimit="10" d="M117.1 78.5h25.5v11.1h-25.5z"/><path fill="none" stroke="#1E1E1E" stroke-width=".709" stroke-miterlimit="10" d="M196.4 80.9h20.2v17.5h-20.2z"/><path fill="none" stroke="#1E1E1E" stroke-width=".567" stroke-miterlimit="10" d="M216.5 98.3l-20.1-17.4"/><path fill-rule="evenodd" clip-rule="evenodd" fill="#DEDEE5" stroke="#1E1E1E" stroke-width=".709" stroke-miterlimit="10" d="M231.9 78.5h12.8v11.1h-12.8zM180.9 89.6h12.8v11h-12.8zM104.3 89.6h12.8v11.1h-12.8z"/><path fill="none" stroke="#1E1E1E" stroke-width=".709" stroke-miterlimit="10" d="M183.4 91.7h7.9v6.8h-7.9zM170.6 91.7h7.9v6.8h-7.9zM234.3 80.7h7.9v6.8h-7.9z"/><path fill="none" stroke="#1E1E1E" stroke-width=".567" stroke-linecap="round" stroke-miterlimit="10" d="M265.9 103.5v5.5M262.5 103.5v5.5M259.2 103.5v5.5M255.8 103.5v5.5M252.4 103.5v5.5M249 103.5v5.5M265.9 81.3v5.5M262.5 81.3v5.5M259.2 81.3v5.5M255.8 81.3v5.5M252.4 81.3v5.5M249 81.3v5.5M189.2 103.5v5.5M185.9 103.5v5.5M182.5 103.5v5.5M179.1 103.5v5.5M175.7 103.5v5.5M172.3 103.5v5.5M240.2 92.3v5.5M236.8 92.3v5.5M233.5 92.3v5.5M230.1 92.3v5.5M226.7 92.3v5.5M223.3 92.3v5.5M215 103.5v5.5M211.6 103.5v5.5M208.2 103.5v5.5M204.8 103.5v5.5M201.4 103.5v5.5M198.1 103.5v5.5M163.7 92.6v15.8M160.4 92.6v15.8M157 92.6v15.8M153.6 92.6v15.8M150.3 92.6v15.8M146.8 92.6v15.8M138.2 92.4v5.5M134.8 92.4v5.5M131.5 92.4v5.5M128.1 92.4v5.5M124.7 92.4v5.5M121.3 92.4v5.5M112.8 103.5v5.5M109.4 103.5v5.5M106.1 103.5v5.5M102.7 103.5v5.5M99.3 103.5v5.5M95.9 103.5v5.5"/><path fill="none" stroke="#1E1E1E" stroke-width=".709" stroke-linecap="round" stroke-miterlimit="10" d="M65.2 110.3h5.9M44.3 110.3h5.8"/><path fill="none" stroke="#FFF" stroke-width=".709" stroke-linecap="round" stroke-miterlimit="10" d="M389 139.1l-366.4-3.2"/><path fill="#FFF" stroke="#1E1E1E" stroke-width=".709" stroke-linecap="round" stroke-miterlimit="10" d="M389 139.1c9.6-17 7.6-33.3 7.6-33.3l-116.3-.1c-3.3 4.3-5.1 5.8-10.6 6.1l-166.6.1c-4.5 0-7.6.2-12-.9-4.8-1.2-9-3.2-12.2-6.4H.4l18 20.4c2.7 3 5.8 7.5 4.2 10.9"/></svg>