<?xml version="1.0" encoding="utf-8"?>
<!-- Generator: Adobe Illustrator 19.1.0, SVG Export Plug-In . SVG Version: 6.00 Build 0)  -->
<svg version="1.1" id="Слой_1" xmlns="http://www.w3.org/2000/svg" xmlns:xlink="http://www.w3.org/1999/xlink" x="0px" y="0px"
	 viewBox="0 0 325.7 84" enable-background="new 0 0 325.7 84" xml:space="preserve">
<polygon fill-rule="evenodd" clip-rule="evenodd" fill="#DEDEE5" stroke="#1E1E1E" stroke-width="0.7087" stroke-miterlimit="10" points="
	292.5,55.5 217.9,55.5 213.8,55.5 98.3,55.5 94,55.5 19.4,55.5 19.4,61.1 94,61.1 94,61.2 100.6,68.1 152.7,68.1 159.2,68.1 
	211.3,68.1 217.9,61.2 217.9,61.1 292.5,61.1 "/>
<rect x="19.5" y="0.4" fill-rule="evenodd" clip-rule="evenodd" fill="#9BA6D5" stroke="#1E1E1E" stroke-width="0.7087" stroke-miterlimit="10" width="272.9" height="55.2"/>
<path fill-rule="evenodd" clip-rule="evenodd" fill="#9D938F" stroke="#1E1E1E" stroke-width="0.7087" stroke-miterlimit="10" d="
	M38.4,82.8c5.1,0,9.2-4.2,9.2-9.3c0-5.1-4.1-9.2-9.2-9.2c-5.1,0-9.3,4.2-9.3,9.2C29.1,78.6,33.3,82.8,38.4,82.8L38.4,82.8z"/>
<path fill-rule="evenodd" clip-rule="evenodd" fill="#D1D1D3" stroke="#1E1E1E" stroke-width="0.7087" stroke-miterlimit="10" d="
	M38.4,80.4c3.8,0,6.8-3.1,6.8-6.9c0-3.7-3.1-6.8-6.8-6.8s-6.8,3.1-6.8,6.8C31.6,77.3,34.6,80.4,38.4,80.4L38.4,80.4z"/>
<path fill-rule="evenodd" clip-rule="evenodd" fill="#9D938F" stroke="#1E1E1E" stroke-width="0.7087" stroke-miterlimit="10" d="
	M74.6,82.8c5.1,0,9.2-4.2,9.2-9.3c0-5.1-4.1-9.2-9.2-9.2s-9.3,4.2-9.3,9.2C65.3,78.6,69.5,82.8,74.6,82.8L74.6,82.8z"/>
<path fill-rule="evenodd" clip-rule="evenodd" fill="#D1D1D3" stroke="#1E1E1E" stroke-width="0.7087" stroke-miterlimit="10" d="
	M74.6,80.4c3.8,0,6.8-3.1,6.8-6.9c0-3.7-3.1-6.8-6.8-6.8s-6.8,3.1-6.8,6.8C67.7,77.3,70.8,80.4,74.6,80.4L74.6,80.4z"/>
<path fill-rule="evenodd" clip-rule="evenodd" fill="#C8C7C9" stroke="#1E1E1E" stroke-width="0.7087" stroke-miterlimit="10" d="
	M53.6,68.5h2h0.9h2H70h13.7v3.8H71.5c-4,0-7,2.2-8.3,6.1h-4.6h-2h-0.9h-2H49c-1.3-3.9-4.3-6.1-8.3-6.1H29.2v-3.8h12.9H53.6z"/>
<path fill-rule="evenodd" clip-rule="evenodd" fill="#FFFFFF" stroke="#1E1E1E" stroke-width="0.7087" stroke-miterlimit="10" d="
	M38.4,76.4c1.6,0,2.9-1.3,2.9-2.9c0-1.6-1.3-2.9-2.9-2.9s-2.9,1.3-2.9,2.9C35.5,75.2,36.8,76.4,38.4,76.4L38.4,76.4z"/>
<path fill-rule="evenodd" clip-rule="evenodd" fill="#FFFFFF" stroke="#1E1E1E" stroke-width="0.7087" stroke-miterlimit="10" d="
	M74.6,76.4c1.6,0,2.9-1.3,2.9-2.9c0-1.6-1.3-2.9-2.9-2.9s-2.9,1.3-2.9,2.9C71.7,75.2,73,76.4,74.6,76.4L74.6,76.4z"/>
<rect x="49.9" y="66.9" fill-rule="evenodd" clip-rule="evenodd" fill="#9D938F" stroke="#1E1E1E" stroke-width="0.7087" stroke-miterlimit="10" width="4.8" height="8.3"/>
<line fill="none" stroke="#1E1E1E" stroke-width="0.7087" stroke-miterlimit="10" x1="49.9" y1="73.7" x2="54.7" y2="73.7"/>
<path fill="none" stroke="#1E1E1E" stroke-width="0.7087" stroke-miterlimit="10" d="M49.9,72c1.6,0,3.2,0,4.8,0"/>
<path fill="none" stroke="#1E1E1E" stroke-width="0.7087" stroke-miterlimit="10" d="M49.9,70.3c1.6,0,3.2,0,4.8,0"/>
<line fill="none" stroke="#1E1E1E" stroke-width="0.7087" stroke-miterlimit="10" x1="49.9" y1="68.5" x2="54.7" y2="68.5"/>
<rect x="57.2" y="66.9" fill-rule="evenodd" clip-rule="evenodd" fill="#9D938F" stroke="#1E1E1E" stroke-width="0.7087" stroke-miterlimit="10" width="4.8" height="8.3"/>
<line fill="none" stroke="#1E1E1E" stroke-width="0.7087" stroke-miterlimit="10" x1="57.2" y1="73.7" x2="62.1" y2="73.7"/>
<path fill="none" stroke="#1E1E1E" stroke-width="0.7087" stroke-miterlimit="10" d="M57.2,72c1.6,0,3.2,0,4.8,0"/>
<path fill="none" stroke="#1E1E1E" stroke-width="0.7087" stroke-miterlimit="10" d="M57.2,70.3c1.6,0,3.2,0,4.8,0"/>
<line fill="none" stroke="#1E1E1E" stroke-width="0.7087" stroke-miterlimit="10" x1="57.2" y1="68.5" x2="62.1" y2="68.5"/>
<rect x="46.8" y="64.9" fill-rule="evenodd" clip-rule="evenodd" fill="#9D938F" stroke="#1E1E1E" stroke-width="0.7087" stroke-miterlimit="10" width="18.9" height="3.6"/>
<line fill="none" stroke="#1E1E1E" stroke-width="0.7087" stroke-miterlimit="10" x1="103.2" y1="61.2" x2="130.8" y2="61.2"/>
<line fill="none" stroke="#1E1E1E" stroke-width="0.7087" stroke-miterlimit="10" x1="181.6" y1="61.2" x2="209.2" y2="61.2"/>
<rect x="9.3" y="55.5" fill-rule="evenodd" clip-rule="evenodd" fill="#9D938F" stroke="#1E1E1E" stroke-width="0.7087" stroke-miterlimit="10" width="10.1" height="3.9"/>
<rect x="4.6" y="53.5" fill-rule="evenodd" clip-rule="evenodd" fill="#9D938F" stroke="#1E1E1E" stroke-width="0.7087" stroke-miterlimit="10" width="4.7" height="8.2"/>
<line fill="none" stroke="#1E1E1E" stroke-width="0.7087" stroke-miterlimit="10" x1="32.5" y1="66.4" x2="27.9" y2="61.1"/>
<line fill="none" stroke="#1E1E1E" stroke-width="0.7087" stroke-miterlimit="10" x1="80.8" y1="66.4" x2="85.3" y2="61.1"/>
<line fill="none" stroke="#1E1E1E" stroke-width="0.7087" stroke-miterlimit="10" x1="31.8" y1="7.1" x2="31.8" y2="48.8"/>
<path fill="none" stroke="#1E1E1E" stroke-width="0.7087" stroke-miterlimit="10" d="M43.6,7.1c0,13.9,0,27.8,0,41.7"/>
<path fill="none" stroke="#1E1E1E" stroke-width="0.7087" stroke-miterlimit="10" d="M55.4,7.1c0,13.9,0,27.8,0,41.7"/>
<path fill="none" stroke="#1E1E1E" stroke-width="0.7087" stroke-miterlimit="10" d="M67.2,7.1c0,13.9,0,27.8,0,41.7"/>
<path fill="none" stroke="#1E1E1E" stroke-width="0.7087" stroke-miterlimit="10" d="M79,7.1c0,13.9,0,27.8,0,41.7"/>
<path fill="none" stroke="#1E1E1E" stroke-width="0.7087" stroke-miterlimit="10" d="M90.9,7.1c0,13.9,0,27.8,0,41.7"/>
<path fill="none" stroke="#1E1E1E" stroke-width="0.7087" stroke-miterlimit="10" d="M102.7,7.1c0,13.9,0,27.8,0,41.7"/>
<path fill="none" stroke="#1E1E1E" stroke-width="0.7087" stroke-miterlimit="10" d="M114.5,7.1c0,13.9,0,27.8,0,41.7"/>
<path fill="none" stroke="#1E1E1E" stroke-width="0.7087" stroke-miterlimit="10" d="M126.3,7.1c0,13.9,0,27.8,0,41.7"/>
<path fill="none" stroke="#1E1E1E" stroke-width="0.7087" stroke-miterlimit="10" d="M138.1,7.1c0,13.9,0,27.8,0,41.7"/>
<path fill="none" stroke="#1E1E1E" stroke-width="0.7087" stroke-miterlimit="10" d="M150,7.1c0,13.9,0,27.8,0,41.7"/>
<path fill="none" stroke="#1E1E1E" stroke-width="0.7087" stroke-miterlimit="10" d="M161.8,7.1c0,13.9,0,27.8,0,41.7"/>
<path fill="none" stroke="#1E1E1E" stroke-width="0.7087" stroke-miterlimit="10" d="M173.6,7.1c0,13.9,0,27.8,0,41.7"/>
<path fill="none" stroke="#1E1E1E" stroke-width="0.7087" stroke-miterlimit="10" d="M185.5,7.1c0,13.9,0,27.8,0,41.7"/>
<path fill="none" stroke="#1E1E1E" stroke-width="0.7087" stroke-miterlimit="10" d="M197.3,7.1c0,13.9,0,27.8,0,41.7"/>
<path fill="none" stroke="#1E1E1E" stroke-width="0.7087" stroke-miterlimit="10" d="M209.1,7.1c0,13.9,0,27.8,0,41.7"/>
<path fill="none" stroke="#1E1E1E" stroke-width="0.7087" stroke-miterlimit="10" d="M220.9,7.1c0,13.9,0,27.8,0,41.7"/>
<path fill="none" stroke="#1E1E1E" stroke-width="0.7087" stroke-miterlimit="10" d="M232.7,7.1c0,13.9,0,27.8,0,41.7"/>
<path fill="none" stroke="#1E1E1E" stroke-width="0.7087" stroke-miterlimit="10" d="M244.6,7.1c0,13.9,0,27.8,0,41.7"/>
<path fill="none" stroke="#1E1E1E" stroke-width="0.7087" stroke-miterlimit="10" d="M256.4,7.1c0,13.9,0,27.8,0,41.7"/>
<path fill="none" stroke="#1E1E1E" stroke-width="0.7087" stroke-miterlimit="10" d="M268.2,7.1c0,13.9,0,27.8,0,41.7"/>
<line fill="none" stroke="#1E1E1E" stroke-width="0.7087" stroke-miterlimit="10" x1="280" y1="7.1" x2="280" y2="48.8"/>
<line fill="none" stroke="#1E1E1E" stroke-width="0.7087" stroke-linecap="round" stroke-miterlimit="10" x1="0.4" y1="83.6" x2="325.4" y2="83.3"/>
<path fill-rule="evenodd" clip-rule="evenodd" fill="#9D938F" stroke="#1E1E1E" stroke-width="0.7087" stroke-miterlimit="10" d="
	M273.5,82.8c5.1,0,9.3-4.2,9.3-9.3c0-5.1-4.2-9.2-9.3-9.2s-9.2,4.2-9.2,9.2C264.3,78.6,268.4,82.8,273.5,82.8L273.5,82.8z"/>
<path fill-rule="evenodd" clip-rule="evenodd" fill="#D1D1D3" stroke="#1E1E1E" stroke-width="0.7087" stroke-miterlimit="10" d="
	M273.5,80.4c3.8,0,6.8-3.1,6.8-6.9c0-3.7-3.1-6.8-6.8-6.8s-6.8,3.1-6.8,6.8C266.7,77.3,269.8,80.4,273.5,80.4L273.5,80.4z"/>
<path fill-rule="evenodd" clip-rule="evenodd" fill="#9D938F" stroke="#1E1E1E" stroke-width="0.7087" stroke-miterlimit="10" d="
	M237.4,82.8c5.1,0,9.3-4.2,9.3-9.3c0-5.1-4.2-9.2-9.3-9.2c-5.1,0-9.3,4.2-9.3,9.2C228.1,78.6,232.3,82.8,237.4,82.8L237.4,82.8z"/>
<path fill-rule="evenodd" clip-rule="evenodd" fill="#D1D1D3" stroke="#1E1E1E" stroke-width="0.7087" stroke-miterlimit="10" d="
	M237.4,80.4c3.8,0,6.8-3.1,6.8-6.9c0-3.7-3.1-6.8-6.8-6.8s-6.8,3.1-6.8,6.8C230.5,77.3,233.6,80.4,237.4,80.4L237.4,80.4z"/>
<path fill-rule="evenodd" clip-rule="evenodd" fill="#C8C7C9" stroke="#1E1E1E" stroke-width="0.7087" stroke-miterlimit="10" d="
	M258.4,68.5h-2h-0.9h-2h-11.5h-13.7v3.8h12.3c4,0,7,2.2,8.3,6.1h4.6h2h0.9h2h4.6c1.3-3.9,4.3-6.1,8.3-6.1h11.5v-3.8h-12.9H258.4z"/>
<path fill-rule="evenodd" clip-rule="evenodd" fill="#FFFFFF" stroke="#1E1E1E" stroke-width="0.7087" stroke-miterlimit="10" d="
	M273.5,76.4c1.6,0,2.9-1.3,2.9-2.9c0-1.6-1.3-2.9-2.9-2.9s-2.9,1.3-2.9,2.9C270.6,75.2,271.9,76.4,273.5,76.4L273.5,76.4z"/>
<path fill-rule="evenodd" clip-rule="evenodd" fill="#FFFFFF" stroke="#1E1E1E" stroke-width="0.7087" stroke-miterlimit="10" d="
	M237.4,76.4c1.6,0,2.9-1.3,2.9-2.9c0-1.6-1.3-2.9-2.9-2.9s-2.9,1.3-2.9,2.9C234.5,75.2,235.8,76.4,237.4,76.4L237.4,76.4z"/>
<rect x="257.2" y="66.9" fill-rule="evenodd" clip-rule="evenodd" fill="#9D938F" stroke="#1E1E1E" stroke-width="0.7087" stroke-miterlimit="10" width="4.8" height="8.3"/>
<line fill="none" stroke="#1E1E1E" stroke-width="0.7087" stroke-miterlimit="10" x1="262" y1="73.7" x2="257.2" y2="73.7"/>
<path fill="none" stroke="#1E1E1E" stroke-width="0.7087" stroke-miterlimit="10" d="M262,72c-1.6,0-3.2,0-4.8,0"/>
<path fill="none" stroke="#1E1E1E" stroke-width="0.7087" stroke-miterlimit="10" d="M262,70.3c-1.6,0-3.2,0-4.8,0"/>
<line fill="none" stroke="#1E1E1E" stroke-width="0.7087" stroke-miterlimit="10" x1="262" y1="68.5" x2="257.2" y2="68.5"/>
<rect x="249.9" y="66.9" fill-rule="evenodd" clip-rule="evenodd" fill="#9D938F" stroke="#1E1E1E" stroke-width="0.7087" stroke-miterlimit="10" width="4.8" height="8.3"/>
<line fill="none" stroke="#1E1E1E" stroke-width="0.7087" stroke-miterlimit="10" x1="254.7" y1="73.7" x2="249.9" y2="73.7"/>
<path fill="none" stroke="#1E1E1E" stroke-width="0.7087" stroke-miterlimit="10" d="M254.7,72c-1.6,0-3.2,0-4.8,0"/>
<path fill="none" stroke="#1E1E1E" stroke-width="0.7087" stroke-miterlimit="10" d="M254.7,70.3c-1.6,0-3.2,0-4.8,0"/>
<line fill="none" stroke="#1E1E1E" stroke-width="0.7087" stroke-miterlimit="10" x1="254.7" y1="68.5" x2="249.9" y2="68.5"/>
<rect x="246.2" y="64.9" fill-rule="evenodd" clip-rule="evenodd" fill="#9D938F" stroke="#1E1E1E" stroke-width="0.7087" stroke-miterlimit="10" width="18.9" height="3.6"/>
<rect x="292.5" y="55.5" fill-rule="evenodd" clip-rule="evenodd" fill="#9D938F" stroke="#1E1E1E" stroke-width="0.7087" stroke-miterlimit="10" width="10.1" height="3.9"/>
<rect x="302.6" y="53.5" fill-rule="evenodd" clip-rule="evenodd" fill="#9D938F" stroke="#1E1E1E" stroke-width="0.7087" stroke-miterlimit="10" width="4.7" height="8.2"/>
<line fill="none" stroke="#1E1E1E" stroke-width="0.7087" stroke-miterlimit="10" x1="279.5" y1="66.4" x2="284" y2="61.1"/>
<line fill="none" stroke="#1E1E1E" stroke-width="0.7087" stroke-miterlimit="10" x1="231.2" y1="66.4" x2="226.6" y2="61.1"/>
</svg>
