<svg id="Слой_1" xmlns="http://www.w3.org/2000/svg" viewBox="0 0 106.7 18.3"><style>.st0,.st1{fill-rule:evenodd;clip-rule:evenodd;fill:#424243}.st1{fill:#32a457}</style><path class="st0" d="M65.6 6.6v7.6h-2.4v-1.1c-.1.2-.2.3-.4.5s-.3.3-.5.4c-.2.1-.4.2-.7.3-.2.1-.5.1-.7.1-.5 0-1-.1-1.5-.3-.5-.2-.9-.5-1.2-.8-.3-.4-.6-.8-.8-1.3-.2-.5-.3-1-.3-1.6 0-.6.1-1.1.3-1.6.2-.5.4-.9.8-1.3.3-.4.7-.6 1.2-.8.5-.2 1-.3 1.5-.3.2 0 .5 0 .7.1.2.1.5.2.7.3.2.1.4.3.5.4.2.2.3.3.4.5V6.6h2.4zm-4.2 5.7c.3 0 .5-.1.7-.2.2-.1.4-.2.6-.4.2-.2.3-.4.4-.6.1-.2.1-.5.1-.8 0-.3-.1-.5-.1-.7-.1-.2-.2-.4-.4-.6-.2-.2-.3-.3-.6-.4-.2-.1-.5-.2-.7-.2-.3 0-.5.1-.7.2-.2.1-.4.2-.6.4-.2.2-.3.4-.4.6-.1.2-.1.5-.1.7 0 .3 0 .5.1.8.1.2.2.4.4.6.2.2.3.3.6.4.2.2.4.2.7.2zm45.3-.3v2.2h-7.1v-11h2.6V12h4.5zM93.3 8.3H98c0 1.1 0 1.1-.1 1.9-.1.6-.3 1.2-.6 1.7s-.7 1-1.1 1.3c-.5.4-1 .7-1.6.9-.6.2-1.3.3-2.1.3-.9 0-1.8-.2-2.5-.5s-1.3-.7-1.8-1.3c-.5-.5-.9-1.2-1.1-1.9-.3-.7-.4-1.4-.4-2.2 0-.8.1-1.5.4-2.2.3-.7.6-1.3 1.1-1.9.5-.5 1.1-1 1.8-1.3.7-.3 1.5-.5 2.4-.5.7 0 1.4.1 2 .3.7.5 1.2.7 1.6 1.1.4.4.8.8 1.1 1.2.3.5.4 1 .5 1.5H95c-.3-1.6-2.6-2-3.9-1.4-.4.2-.7.5-1 .8-.3.3-.5.7-.6 1.2-.1.4-.2.9-.2 1.4 0 .5.1 1 .2 1.4.1.4.3.8.6 1.2.3.3.6.6 1.1.8.4.2.9.3 1.5.3 1.3 0 2.6-.7 2.8-2.1h-2.1c-.1-.7-.1-1.3-.1-2zM80.9 9.7c.3.1.7.2.9.3.3.1.6.2.8.4.2.2.4.4.5.6.1.2.2.5.2.9 0 .5-.1.8-.3 1.1-.2.3-.4.6-.8.8-.3.2-.7.3-1.1.4-.4.1-.9.1-1.3.1-1.1 0-1.9-.2-2.6-.7-.6-.5-.9-1.2-.9-2h2.4c0 .4.1.7.3.9.2.2.5.3.9.3.3 0 .5-.1.7-.2.2-.1.3-.3.3-.5 0-.1 0-.3-.1-.4-.1-.1-.2-.2-.4-.3-.2-.1-.4-.2-.6-.2l-.9-.3-.9-.3c-.3-.1-.5-.2-.8-.4-.2-.2-.4-.4-.5-.6-.1-.2-.2-.5-.2-.9 0-.8.3-1.4.9-1.8.6-.4 1.4-.6 2.5-.6.5 0 1 .1 1.4.2.4.1.8.3 1 .5.3.2.5.5.6.8.1.3.2.7.2 1h-2.4c0-.3-.1-.6-.2-.7-.1-.1-.3-.1-.7-.1-.2 0-.5.1-.6.2-.2.1-.3.3-.3.5 0 .1 0 .2.1.3.1.1.2.2.4.2.2.1.4.1.6.2l.9.3zM67.5 6.6h2.4v1.1c.2-.4.5-.7 1-1 .4-.2.9-.3 1.5-.3.5 0 .9.1 1.3.2.3.2.6.4.8.7.2.3.4.6.5 1 .1.4.1.9.1 1.4v4.6h-2.4v-4c0-.5-.1-1-.3-1.3-.2-.3-.5-.5-1-.5s-.9.2-1.1.5c-.2.4-.4.8-.4 1.4v3.8h-2.4V6.6zm-11 2.2c-.2 0-.3-.1-.4-.1h-.4c-.7 0-1.2.2-1.6.6-.4.4-.6 1.1-.6 2v3h-2.4V6.7h2.4v1.2c.2-.4.5-.7.9-.9.4-.3.9-.4 1.4-.4.3 0 .5 0 .7.1v2.1zm-6.9 5.4c-.2 0-.4.1-.7.1H48c-.3 0-.6 0-.9-.1-.3 0-.6-.2-.9-.3-.3-.2-.5-.4-.7-.8-.2-.4-.3-.9-.3-1.5V8.4H44V6.6h1.2V4.3h2.4v2.3h1.7v1.8h-1.7v2.7c0 .3 0 .5.1.7.1.2.1.3.2.4.1.1.2.2.3.2h1.3c.1.6.1 1.2.1 1.8zM35.5 6.6h2.4v1.1c.2-.4.5-.7 1-1 .4-.2.9-.3 1.5-.3.5 0 .9.1 1.3.2.3.2.6.4.8.7.2.3.4.6.5 1 .1.4.1.9.1 1.4v4.6h-2.4v-4c0-.5-.1-1-.3-1.3-.2-.3-.5-.5-1-.5s-.9.2-1.1.5c-.2.4-.4.8-.4 1.4v3.8h-2.4V6.6zm-4.4 0h2.4v7.6h-2.4V6.6zm-5.5-1.2v2.9h3.8v2.1h-3.8v3.8H23v-11h6.5v2.2h-3.9zm5.6-2.2h2.3v2.2h-2.3V3.2z"/><path class="st1" d="M15.1 5.4c-.6-1.1-1.4-1.7-2.4-2.3-1-.6-2.3-.9-3.5-.9-1.9 0-3.7.8-5 2.1-1.3 1.3-2.1 3-2.1 5 0 1.9.8 3.7 2.1 5 1.3 1.3 3 2.1 5 2.1 1.4 0 2.7-.4 3.8-1.1 1.1-.7 2-1.7 2.6-2.9l1.9.9c-.8 1.6-1.9 2.9-3.4 3.8-1.4.9-3.1 1.4-4.9 1.4-2.5 0-4.8-1-6.5-2.7C1 14 0 11.7 0 9.1c0-2.5 1-4.8 2.7-6.5C4.3 1 6.6 0 9.1 0c1.6 0 3.2.4 4.6 1.2 1.4.8 2.5 1.9 3.3 3.4l-1.9.8z"/><path class="st1" d="M5.9 5l9.6 4.1-9.7 4.2 2-4.2z"/></svg>