<svg xmlns="http://www.w3.org/2000/svg" viewBox="0 0 419.9 141.3"><path fill-rule="evenodd" clip-rule="evenodd" fill="#FFF" stroke="#1E1E1E" stroke-width=".709" stroke-linecap="round" stroke-miterlimit="10" d="M90.9 105.8V82.3l14.9-17.5h19.9l.1 40.9-33.4.1h-1.5z"/><path fill-rule="evenodd" clip-rule="evenodd" fill="#FFF" stroke="#1E1E1E" stroke-width=".709" stroke-linecap="round" stroke-miterlimit="10" d="M68.3 91.8l10.4-38.1 12.6-.2-.4 23.4v14.9zM105.7 54.7h25.5v10.1h-25.5zM115.9 35.4h2.3v19.1h-3.7zM114.5 31.9h11.3v3.5h-11.3z"/><path fill-rule="evenodd" clip-rule="evenodd" fill="#FFF" stroke="#1E1E1E" stroke-width=".709" stroke-linecap="round" stroke-miterlimit="10" d="M62.1 89.1h63.8v16.6H62.1z"/><path fill="none" stroke="#1E1E1E" stroke-width=".709" stroke-linecap="round" stroke-miterlimit="10" d="M109.7 58.5v1.3M113.7 58.5v1.3M117.6 58.5v1.3M130.7 59.3h-7.3M90.4 64.4H75.7M90.4 80.3H71.5M125.2 72.6H99.4M125.2 80.6H92.9M117.2 31.9V.9M117.7 12.3h2.7M117.7 17.1h2.7M117.7 17.1h2.7M117.7 21.9h2.7M117.7 26.9h2.7"/><path fill-rule="evenodd" clip-rule="evenodd" fill="#FFF" stroke="#1E1E1E" stroke-width=".709" stroke-linecap="round" stroke-miterlimit="10" d="M117.4 4.9c1.2 0 2.3-1 2.3-2.3 0-1.2-1-2.3-2.3-2.3-1.3 0-2.3 1-2.3 2.3.1 1.3 1 2.3 2.3 2.3z"/><path fill="none" stroke="#1E1E1E" stroke-width=".709" stroke-linecap="round" stroke-miterlimit="10" d="M110.4 68.3v1.3M114.4 68.3v1.3M118.3 68.3v1.3M122.2 68.3v1.3M102.9 73.1l5 7.1M102.9 81.3l5 7.1M110.4 75.9v1.3M114.4 75.9v1.3M118.3 75.9v1.3M122.2 75.9v1.3M110.4 83.9v1.3M114.4 83.9v1.3M118.3 83.9v1.3M122.2 83.9v1.3M93.1 97.5v.1c0 2-1.7 3.7-3.8 3.7h-13c-2.1 0-3.7-1.7-3.7-3.7v-.1h20.5zM76.4 96.7v-2.4M83.1 96.7v-2.4M89.8 96.7v-2.4M93.9 93.4H72.2M102.9 90l5 7.1M125.2 97.5H92.9M102.9 98.1l5 7.1"/><path fill-rule="evenodd" clip-rule="evenodd" fill="#FFF" stroke="#1E1E1E" stroke-width=".709" stroke-linecap="round" stroke-miterlimit="10" d="M343.8 101.6h16.5v3h-16.5zM363.8 101.6h16.5v3h-16.5zM393.7 85.5h2.4v19h-3.8zM390.5 82h7v3.4h-7z"/><path fill="none" stroke="#1E1E1E" stroke-width=".709" stroke-linecap="round" stroke-miterlimit="10" d="M395.1 82V61.8M393.7 71.9h2.8M393.7 75.8h2.8"/><path fill-rule="evenodd" clip-rule="evenodd" fill="#FFF" stroke="#1E1E1E" stroke-width=".709" stroke-linecap="round" stroke-miterlimit="10" d="M27.3 101.1h34.8v4.6H27.3zM40.5 87L3.9 64.9l-2.6.5 33.6 24.1zM35.7 90.4H40V101h-4.3z"/><path fill-rule="evenodd" clip-rule="evenodd" fill="#FFF" stroke="#1E1E1E" stroke-width=".709" stroke-linecap="round" stroke-miterlimit="10" d="M32.6 82h9.3v10.6h-9.3z"/><path fill="#FFF" stroke="#1E1E1E" stroke-width=".709" stroke-linecap="round" stroke-miterlimit="10" d="M396.9 135.9c.4.8 2.1 3.3 2.1 3.3-1.9.3-3.9 1.7-5.8 1.7-2.2 0-4.4-1.8-6.6-1.8-2.2 0-4.4 1.8-6.6 1.8-2.2 0-4.4-1.8-6.6-1.8-2.2 0-4.4 1.8-6.6 1.8-2.2 0-4.4-1.8-6.6-1.8-2.2 0-4.4 1.8-6.6 1.8-2.2 0-4.4-1.8-6.6-1.8-2.2 0-4.4 1.8-6.6 1.8-2.2 0-4.4-1.8-6.6-1.8-2.2 0-4.4 1.8-6.5 1.8-2.2 0-4.4-1.8-6.6-1.8-2.2 0-4.4 1.8-6.6 1.8-2.2 0-4.4-1.8-6.6-1.8-2.2 0-4.4 1.8-6.6 1.8-2.2 0-4.4-1.8-6.6-1.8-2.2 0-4.4 1.8-6.6 1.8-2.2 0-4.4-1.8-6.6-1.8-2.2 0-4.4 1.8-6.6 1.8-2.2 0-4.4-1.8-6.6-1.8-2.2 0-4.4 1.8-6.6 1.8-2.2 0-4.4-1.8-6.6-1.8-2.2 0-4.4 1.8-6.6 1.8-2.2 0-4.4-1.8-6.6-1.8-2.2 0-4.4 1.8-6.6 1.8-2.2 0-4.4-1.8-6.6-1.8-2.2 0-4.4 1.8-6.6 1.8-2.2 0-4.4-1.8-6.6-1.8-2.2 0-4.4 1.8-6.6 1.8-2.2 0-4.4-1.8-6.6-1.8-2.2 0-4.4 1.8-6.6 1.8s-4.4-1.8-6.6-1.8c-2.2 0-4.4 1.8-6.6 1.8-2.2 0-4.4-1.8-6.6-1.8-2.2 0-4.4 1.8-6.6 1.8-2.2 0-4.4-1.8-6.6-1.8-2.2 0-4.4 1.8-6.6 1.8h.2c-2.2 0-4.4-1.8-6.6-1.8-2.2 0-4.4 1.8-6.6 1.8-2.2 0-4.4-1.8-6.6-1.8s-4.4 1.8-6.6 1.8c-2.2 0-4.4-1.8-6.6-1.8-2.2 0-4.4 1.8-6.6 1.8-2.2 0-4.4-1.8-6.6-1.8-2.2 0-4.4 1.8-6.6 1.8h-.1c-2.2 0-4.4-1.8-6.6-1.8-2.2 0-4.4 1.8-6.6 1.8-2.2 0-4.4-1.8-6.6-1.8-2.2 0-4.4 1.8-6.6 1.8-2.2 0-4.4-1.8-6.6-1.8-2.2 0-4.4 1.8-6.6 1.8-2.2 0-4.4-1.8-6.6-1.8-2.2 0-4.4 1.8-6.6 1.8s-4.4-1.8-6.6-1.8c-2.2 0-4.4 1.8-6.6 1.8-2.2 0-6.6-1.8-6.6-1.8-9.6-17-7.6-33.3-7.6-33.3l116.3-.1c3.3 4.3 5.1 5.8 10.6 6.1l166.6.1c4.5 0 7.6.2 12-.9 4.8-1.2 9-3.2 12.2-6.4H419L401.1 125c-2.7 3.1-5.8 7.5-4.2 10.9"/><path fill="none" stroke="#1E1E1E" stroke-width=".709" stroke-linecap="round" stroke-miterlimit="10" d="M30.5 139.1c-2.2 0-4.4 1.8-6.6 1.8-2.2 0-4.4-1.8-6.6-1.8-2.2 0-4.4 1.8-6.6 1.8M418.9 140.9c-2.2 0-4.4-1.8-6.6-1.8s-4.4 1.8-6.6 1.8c-2.2 0-4.4-1.8-6.6-1.8M36.6 85.6h-4M2.7 81.7V67.8"/><path fill-rule="evenodd" clip-rule="evenodd" fill="#FFF" stroke="#1E1E1E" stroke-width=".709" stroke-linecap="round" stroke-miterlimit="10" d="M2.7 63.3h.2c1.3 0 2.4 1.1 2.4 2.4C5.3 67 4.2 68 2.9 68h-.2c-1.3 0-2.4-1-2.4-2.4.1-1.2 1.1-2.3 2.4-2.3zM1.1 81.7h3.3v1.8H1.1zM49.6 94.3h7.1v2.6h-7.1z"/><path fill-rule="evenodd" clip-rule="evenodd" fill="#FFF" stroke="#1E1E1E" stroke-width=".709" stroke-linecap="round" stroke-miterlimit="10" d="M51.1 96.8h4.3v4.1h-4.3z"/><path fill="none" stroke="#1E1E1E" stroke-width=".709" stroke-linecap="round" stroke-miterlimit="10" d="M41.2 110.3h-5.9M55.9 110.3h-5.8"/><path fill-rule="evenodd" clip-rule="evenodd" fill="#BCBCD1" stroke="#1E1E1E" stroke-width=".709" stroke-miterlimit="10" d="M149.4 100.7h25.5v11.1h-25.5z"/><path fill-rule="evenodd" clip-rule="evenodd" fill="#9BA6D5" stroke="#1E1E1E" stroke-width=".709" stroke-miterlimit="10" d="M174.9 100.7h25.5v11.1h-25.5z"/><path fill-rule="evenodd" clip-rule="evenodd" fill="#E3AA8D" stroke="#1E1E1E" stroke-width=".709" stroke-miterlimit="10" d="M200.3 100.7h25.5v11.1h-25.5z"/><path fill-rule="evenodd" clip-rule="evenodd" fill="#DEDEE5" stroke="#1E1E1E" stroke-width=".709" stroke-miterlimit="10" d="M225.8 89.6h25.5v11h-25.5z"/><path fill-rule="evenodd" clip-rule="evenodd" fill="#E3AA8D" stroke="#1E1E1E" stroke-width=".709" stroke-miterlimit="10" d="M251.4 89.6h25.5v22.2h-25.5z"/><path fill-rule="evenodd" clip-rule="evenodd" fill="#DEDEE5" stroke="#1E1E1E" stroke-width=".709" stroke-miterlimit="10" d="M276.9 100.7h25.5v11.1h-25.5z"/><path fill-rule="evenodd" clip-rule="evenodd" fill="#9BA6D5" stroke="#1E1E1E" stroke-width=".709" stroke-miterlimit="10" d="M302.4 100.7h25.5v10.4l-3.5.7h-22z"/><path fill-rule="evenodd" clip-rule="evenodd" fill="#DEDEE5" stroke="#1E1E1E" stroke-width=".709" stroke-miterlimit="10" d="M149.4 89.6h25.5v11h-25.5z"/><path fill-rule="evenodd" clip-rule="evenodd" fill="#BCBCD1" stroke="#1E1E1E" stroke-width=".709" stroke-miterlimit="10" d="M174.9 89.6h25.5v11h-25.5z"/><path fill-rule="evenodd" clip-rule="evenodd" fill="#DEDEE5" stroke="#1E1E1E" stroke-width=".709" stroke-miterlimit="10" d="M200.3 78.5h25.5v22.1h-25.5z"/><path fill-rule="evenodd" clip-rule="evenodd" fill="#BCBCD1" stroke="#1E1E1E" stroke-width=".709" stroke-miterlimit="10" d="M225.8 100.7h25.5v11.1h-25.5zM276.9 89.6h25.5v11h-25.5z"/><path fill-rule="evenodd" clip-rule="evenodd" fill="#E3AA8D" stroke="#1E1E1E" stroke-width=".709" stroke-miterlimit="10" d="M149.4 78.5h25.5v11.1h-25.5z"/><path fill-rule="evenodd" clip-rule="evenodd" fill="#9BA6D5" stroke="#1E1E1E" stroke-width=".709" stroke-miterlimit="10" d="M251.4 78.5h25.5v11.1h-25.5z"/><path fill-rule="evenodd" clip-rule="evenodd" fill="#E3AA8D" stroke="#1E1E1E" stroke-width=".709" stroke-miterlimit="10" d="M276.9 78.5h25.5v11.1h-25.5z"/><path fill="none" stroke="#1E1E1E" stroke-width=".709" stroke-miterlimit="10" d="M203 80.9h20.2v17.5H203z"/><path fill="none" stroke="#1E1E1E" stroke-width=".567" stroke-miterlimit="10" d="M203 98.3l20.1-17.4"/><path fill-rule="evenodd" clip-rule="evenodd" fill="#DEDEE5" stroke="#1E1E1E" stroke-width=".709" stroke-miterlimit="10" d="M174.9 78.5h12.8v11.1h-12.8zM225.8 89.6h12.8v11h-12.8zM302.5 89.6h12.8v11.1h-12.8z"/><path fill="none" stroke="#1E1E1E" stroke-width=".709" stroke-miterlimit="10" d="M228.2 91.7h7.9v6.8h-7.9zM241 91.7h7.9v6.8H241zM177.3 80.7h7.9v6.8h-7.9z"/><path fill="none" stroke="#1E1E1E" stroke-width=".567" stroke-linecap="round" stroke-miterlimit="10" d="M153.6 103.5v5.5M157 103.5v5.5M160.3 103.5v5.5M163.7 103.5v5.5M167.1 103.5v5.5M170.5 103.5v5.5M153.6 81.3v5.5M157 81.3v5.5M160.3 81.3v5.5M163.7 81.3v5.5M167.1 81.3v5.5M170.5 81.3v5.5M230.3 103.5v5.5M233.6 103.5v5.5M237 103.5v5.5M240.4 103.5v5.5M243.8 103.5v5.5M247.2 103.5v5.5M179.3 92.3v5.5M182.7 92.3v5.5M186 92.3v5.5M189.4 92.3v5.5M192.8 92.3v5.5M196.2 92.3v5.5M204.5 103.5v5.5M207.9 103.5v5.5M211.3 103.5v5.5M214.7 103.5v5.5M218.1 103.5v5.5M221.4 103.5v5.5M255.8 92.6v15.8M259.1 92.6v15.8M262.5 92.6v15.8M265.9 92.6v15.8M269.2 92.6v15.8M272.7 92.6v15.8M281.3 92.4v5.5M284.7 92.4v5.5M288 92.4v5.5M291.4 92.4v5.5M294.8 92.4v5.5M298.2 92.4v5.5M306.7 103.5v5.5M310.1 103.5v5.5M313.4 103.5v5.5M316.8 103.5v5.5M320.2 103.5v5.5M323.6 103.5v5.5"/><path fill="none" stroke="#1E1E1E" stroke-width=".709" stroke-linecap="round" stroke-miterlimit="10" d="M354.3 110.3h-5.9M375.2 110.3h-5.8"/></svg>