<svg id="Слой_1" data-name="Слой 1" xmlns="http://www.w3.org/2000/svg" viewBox="0 0 85.21 66.71"><defs><style>.cls-1{fill:#747880}</style></defs><title>photo</title><circle class="cls-1" cx="42.6" cy="37.84" r="13.3"/><path class="cls-1" d="M80.21 9H5a5 5 0 0 0-5 5v47.71a5 5 0 0 0 5 5h75.21a5 5 0 0 0 5-5V14a5 5 0 0 0-5-5zM42.6 59.58a21.74 21.74 0 1 1 21.74-21.74A21.75 21.75 0 0 1 42.6 59.58z"/><path class="cls-1" d="M59.41 8.8c0 2.76-3.4 5-7.6 5H33.4c-4.19 0-7.6-2.24-7.6-5V5c0-2.76 3.4-5 7.6-5h18.41c4.19 0 7.6 2.24 7.6 5v3.8z"/></svg>