<?xml version="1.0" encoding="utf-8"?>
<!-- Generator: Adobe Illustrator 19.1.0, SVG Export Plug-In . SVG Version: 6.00 Build 0)  -->
<svg version="1.1" id="Instagram" xmlns="http://www.w3.org/2000/svg" xmlns:xlink="http://www.w3.org/1999/xlink" x="0px" y="0px"
	 viewBox="0 0 30 30" enable-background="new 0 0 30 30" xml:space="preserve">
<g>
	<path id="Camera" d="M26,0C26,0,3.5,0,3.5,0C1.6,0,0,1.6,0,3.5l0,0c0,0,0,23,0,23C0,28.4,1.6,30,3.5,30c0,0,23,0,23,0
		c1.9-0.1,3.5-1.6,3.5-3.5c0,0,0-23,0-23C30,1.6,27.9,0.1,26,0z M15,9.5c3,0,5.5,2.5,5.5,5.5c0,3-2.5,5.5-5.5,5.5
		c-3,0-5.5-2.5-5.5-5.5C9.5,12,12,9.5,15,9.5z M26,24c0,1.1-0.9,2-2,2H6c-1.1,0-2-0.9-2-2V12.5h2.4C6.1,13.3,6,14.1,6,15
		c0,5,4,9,9,9c5,0,9-4,9-9c0-0.9-0.1-1.7-0.4-2.5H26V24C26,24,26,24,26,24z M26,5v3h0c0,0.5-0.4,1-1,1v0h-3c-0.5,0-1-0.4-1-1h0V5h0
		c0,0,0,0,0,0c0-0.6,0.4-1,1-1h3v0C25.6,4,26,4.5,26,5C26,5,26,5,26,5L26,5z"/>
</g>
</svg>
