<svg id="Слой_1" xmlns="http://www.w3.org/2000/svg" viewBox="0 0 90 90"><style>.st0{fill:#D7DBE0;}</style><path class="st0" d="M45 .5C20.5.5.5 20.5.5 45s20 44.5 44.5 44.5 44.5-20 44.5-44.5S69.5.5 45 .5zm0 85.6C22.4 86.1 3.9 67.6 3.9 45S22.4 3.9 45 3.9 86.1 22.4 86.1 45 67.6 86.1 45 86.1z"/><path class="st0" d="M52.4 49.6c2.1-2.2 3.5-4.8 3.9-6.4.3-1 .5-2.1.6-2.9.9-.4 1.6-1.1 1.9-2 .5-1.3.8-4.1.8-4.2.2-2.2-.6-3.5-.6-3.6.9-9-2-10.8-3.9-11.2-.7-.1-1.7-.4-2.2-.9-1.1-1.2-1.6-2.5-3.4-2.4-.7 0-1.6-.2-2.2-.6-.7-.6-1.7-1.3-2.4-1.3s-1.6.7-2.3 1.3c-.5.5-1.4.7-2.1.7-1.9-.1-2.3 1.2-3.4 2.4-.5.5-1.5.8-2.2.9-1.9.3-4.8 2.1-3.9 11.2-.1.1-.8 1.4-.6 3.6 0 .1.3 2.9.8 4.2.4.9 1 1.6 1.9 2 .1.8.3 1.9.6 2.9.4 1.6 1.9 4.3 4 6.5-.2 10.6-18.9 7.4-21.5 19.4C23 77.4 33.4 82.6 45 82.6s22-5.3 28.9-13.5c-2.7-12.1-21.2-9-21.5-19.5z"/></svg>