<svg id="Слой_1" xmlns="http://www.w3.org/2000/svg" viewBox="0 0 45 45"><style>.st0,.st1{fill-rule:evenodd;clip-rule:evenodd;fill:#0c0e0f}.st1{fill:none;stroke:#0c0e0f;stroke-width:2;stroke-miterlimit:10}</style><path class="st0" d="M24.9 28.3l-.4.4c-.4.4-1 .4-1.4 0l-5-4.9c-.4-.4-.4-1 0-1.4l.4-.4c.4-.4 1-.4 1.4 0l5 4.9c.4.4.4 1 0 1.4z"/><path class="st0" d="M24.5 17.3l.4.4c.4.4.4 1 0 1.4l-5 4.9c-.4.4-1 .4-1.4 0l-.4-.4c-.4-.4-.4-1 0-1.4l5-4.9c.4-.4 1-.4 1.4 0z"/><path class="st1" d="M22.4 1C10.6 1 1 10.7 1 22.5s9.6 21.4 21.5 21.4S44 34.3 44 22.5C43.9 10.7 34.3 1 22.4 1z"/></svg>