<svg id="Слой_1" xmlns="http://www.w3.org/2000/svg" viewBox="0 0 45 45"><style>.st0,.st1{fill-rule:evenodd;clip-rule:evenodd;fill:#0c0e0f}.st1{fill:none;stroke:#0c0e0f;stroke-width:2;stroke-miterlimit:10}</style><path class="st0" d="M20 28.3l.4.4c.4.4 1 .4 1.4 0l5-5c.4-.4.4-1 0-1.4l-.4-.4c-.4-.4-1-.4-1.4 0l-5 5c-.3.4-.3 1 0 1.4z"/><path class="st0" d="M20.4 17.3l-.4.4c-.4.4-.4 1 0 1.4l5 5c.4.4 1 .4 1.4 0l.4-.4c.4-.4.4-1 0-1.4l-5-5c-.4-.4-1-.4-1.4 0z"/><path class="st1" d="M22.5 1C34.4 1 44 10.6 44 22.5S34.4 44 22.5 44 1 34.4 1 22.5 10.6 1 22.5 1z"/></svg>