<svg id="Слой_1" xmlns="http://www.w3.org/2000/svg" viewBox="0 0 60 60"><style>.st0{fill-rule:evenodd;clip-rule:evenodd;fill:#4b4b4b}</style><path class="st0" d="M47 52v8H13v-8H3v-2c.5-12.5 9.4-22.8 21.2-25.4C19.9 22.5 17 18.1 17 13c0-1 .1-2 .4-3H15V8h2V4c0-2.2 1.8-4 4-4h18c2.2 0 4 1.8 4 4v4h2v2h-2.4c.2 1 .4 2 .4 3 0 5.1-2.9 9.5-7.2 11.6C47.6 27.2 56.5 37.5 57 50v2H47zm-2 6V39H35v8H25v-8H15v19h30zM33 39h-6v6h6v-6zm8-35c0-1.1-.9-2-2-2H21c-1.1 0-2 .9-2 2v4h22V4zm0 9c0-1-.2-2-.4-3H19.4c-.3 1-.4 2-.4 3 0 6.1 4.9 11 11 11s11-4.9 11-11zM30 26C16.5 26 5.6 36.7 5.1 50H13V37h34v13h7.9C54.4 36.7 43.5 26 30 26z"/></svg>