<svg id="Слой_1" xmlns="http://www.w3.org/2000/svg" viewBox="0 0 60 60"><style>.st0{fill:#4b4b4b}</style><path class="st0" d="M50 51.9h-2V56h-2v-4.1H15V56h-2v-4.1H9V38.6h2v5.1h39v-5.1h2v13.3h-2zm-39-6.2v4.1h39v-4.1H11z"/><path class="st0" d="M13 40c-4.4 0-8-3.6-8-8s3.6-8 8-8 8 3.6 8 8-3.6 8-8 8zm0-14c-3.3 0-6 2.7-6 6s2.7 6 6 6 6-2.7 6-6-2.7-6-6-6zm35 14c-4.4 0-8-3.6-8-8s3.6-8 8-8 8 3.6 8 8-3.6 8-8 8zm0-14c-3.3 0-6 2.7-6 6s2.7 6 6 6 6-2.7 6-6-2.7-6-6-6z"/><path class="st0" d="M19 34h23v2H19v-2zm8.4-16l8.6 8.6-1.4 1.4-8.6-8.6 1.4-1.4z"/><path class="st0" d="M34.6 18L26 26.6l1.4 1.4 8.6-8.6-1.4-1.4z"/><path class="st0" d="M46 25v-2c0-8.3-6.7-15-15-15h-1c-8.3 0-15 6.7-15 15v2h-2v-1.5C13 13.8 20.8 6 30.5 6S48 13.8 48 23.5V25h-2z"/></svg>