<svg id="Слой_1" xmlns="http://www.w3.org/2000/svg" viewBox="0 0 60 60"><style>.st0{fill-rule:evenodd;clip-rule:evenodd;fill:#4b4b4b}</style><path class="st0" d="M57 58H2V28h16v-3H7c-1.1 0-2-.9-2-2V3c0-1.1.9-2 2-2h28c1.1 0 2 .9 2 2v20c0 1.1-.9 2-2 2H25v3h15v-5h2v-4h10v4h2v5h4v30h-1zM35 3H7v16h28V3zm0 20v-2H7v2h28zm-15 2v3h3v-3h-3zm30-4h-6v2h6v-2zm2 4H42v3h10v-3zm4 5H4v26h32V34H6v-2h48v2H38v6h18V30zm0 12H38v6h18v-6zm-18 8v6h18v-6H38zm9 4c-.6 0-1-.4-1-1s.4-1 1-1 1 .4 1 1-.4 1-1 1zm0-10c.6 0 1 .4 1 1s-.4 1-1 1-1-.4-1-1 .4-1 1-1zm0-8c.6 0 1 .4 1 1s-.4 1-1 1-1-.4-1-1 .4-1 1-1z"/></svg>