<svg id="Слой_1" xmlns="http://www.w3.org/2000/svg" viewBox="0 0 60 60"><style>.st0{fill:#4b4b4b}</style><path class="st0" d="M7 2h45c.6 0 1 .4 1 1s-.4 1-1 1H7c-.6 0-1-.4-1-1s.4-1 1-1zm0 14h45c.6 0 1 .4 1 1s-.4 1-1 1H7c-.6 0-1-.4-1-1s.4-1 1-1zm0 20h45c.6 0 1 .4 1 1s-.4 1-1 1H7c-.6 0-1-.4-1-1s.4-1 1-1zm5.3 11H46c.6 0 1.1.4 1.1 1s-.4 1-1.1 1H12.3c-.6 0-1.1-.4-1.1-1s.4-1 1.1-1zM25 9h10c.6 0 1 .4 1 1s-.4 1-1 1H25c-.6 0-1-.4-1-1s.4-1 1-1zM11 48v8c0 .6-.4 1-1 1s-1-.4-1-1v-8c0-.6.4-1 1-1s1 .4 1 1zm40-.8v8.7c0 .7-.4 1.1-1 1.1s-1-.4-1-1.1v-8.7c0-.7.4-1.1 1-1.1s1 .4 1 1.1z"/><path class="st0" d="M53 3v39c0 .6-.4 1-1 1s-1-.4-1-1V3c0-.6.4-1 1-1s1 .4 1 1zM8 3v39c0 .6-.4 1-1 1s-1-.4-1-1V3c0-.6.4-1 1-1s1 .4 1 1z"/><path class="st0" d="M46.5 49c-3.6 0-6.5-2.9-6.5-6.5s2.9-6.5 6.5-6.5 6.5 2.9 6.5 6.5-2.9 6.5-6.5 6.5zm0-11C44 38 42 40 42 42.5s2 4.5 4.5 4.5 4.5-2 4.5-4.5-2-4.5-4.5-4.5zm-34 11C8.9 49 6 46.1 6 42.5S8.9 36 12.5 36s6.5 2.9 6.5 6.5-2.9 6.5-6.5 6.5zm0-11C10 38 8 40 8 42.5s2 4.5 4.5 4.5 4.5-2 4.5-4.5-2-4.5-4.5-4.5z"/></svg>