<svg id="Слой_1" xmlns="http://www.w3.org/2000/svg" viewBox="0 0 60 60"><style>.st0{fill:#4b4b4b}</style><path class="st0" d="M59.8 42l.2 2H49.2c1.1 2.5 1.7 5.2 1.8 8H8.2v-2c.2-2.1.8-4.1 1.6-6H0l.2-2c.7-4.7 4-8.6 8.3-10.2C5.8 30.3 4 27.3 4 24c0-5 4-9 9-9 1.7 0 3.3.5 4.7 1.4C19.4 11.5 24 8 29.5 8c5.7 0 10.4 3.8 12 8.9C43 15.7 44.9 15 47 15c5 0 9 4 9 9 0 3.3-1.8 6.3-4.5 7.8 4.3 1.6 7.6 5.5 8.3 10.2zm-11 8c-.8-6.6-5-12.2-10.7-15l-.3-.1c-2.5-1.2-5.3-1.9-8.3-1.9-9.9 0-18.1 7.4-19.3 17h38.6zM24 31.7c-1.4-.7-2.6-1.6-3.6-2.7-.8 1.1-1.8 2.1-3 2.8 1 .4 1.9.8 2.7 1.4 1.3-.6 2.6-1.1 3.9-1.5zM2.2 42h8.6c1.8-3.1 4.3-5.8 7.3-7.7-1.5-.8-3.2-1.3-5.1-1.3-5.4 0-9.9 3.9-10.8 9zm15-23.6C16 17.5 14.6 17 13 17c-3.9 0-7 3.1-7 7s3.1 7 7 7c2.6 0 4.9-1.5 6.1-3.6-1.3-2-2.1-4.3-2.1-6.9 0-.7.1-1.4.2-2.1zM29.5 10C23.7 10 19 14.7 19 20.5S23.7 31 29.5 31 40 26.3 40 20.5 35.3 10 29.5 10zM54 24c0-3.9-3.1-7-7-7-2 0-3.8.8-5.1 2.2 0 .4.1.9.1 1.3 0 2.4-.7 4.7-1.9 6.6.1-.2.2-1.1.4-.7C41.5 29 44 31 47 31c3.9 0 7-3.1 7-7zm-7 9c-2.1 0-4.1.7-5.7 1.7-.6-.4-1.2-.9-1.8-1.2.9-.7 2-1.2 3.1-1.6-1.4-.8-2.6-2-3.4-3.4.1-.7.6-.8.8-1.2-1.2 1.9-3 3.5-5 4.5C40.7 33.2 45.4 37 48.2 42h9.6c-.9-5.1-5.4-9-10.8-9z"/></svg>