<svg width="88" height="56" viewBox="0 0 88 56" xmlns="http://www.w3.org/2000/svg"><g fill="none" fill-rule="evenodd"><path d="M14.327 44.652h-1.58v1h-.025c-.521-.81-1.327-1.232-2.355-1.232-1.983 0-3.566 1.611-3.566 3.843 0 2.287 1.686 3.716 3.516 3.716.379 0 1.57-.07 2.405-1.19h.025v.95h1.58v-7.087zm-3.688 1.38c1.248 0 2.068.921 2.068 2.153 0 1.289-.83 2.182-2.068 2.182-1.253 0-2.112-.901-2.112-2.104 0-1.286.863-2.232 2.112-2.232zm4.836 5.707h1.727v-9.473h-1.727v9.473zm10.02-7.087h-1.587v1h-.022c-.52-.81-1.326-1.232-2.35-1.232-1.987 0-3.571 1.611-3.571 3.843 0 2.287 1.687 3.716 3.517 3.716.379 0 1.57-.07 2.404-1.19h.022v.95h1.587v-7.087zm-3.684 1.38c1.24 0 2.061.921 2.061 2.153 0 1.289-.831 2.182-2.061 2.182-1.263 0-2.12-.901-2.12-2.104 0-1.286.87-2.232 2.12-2.232zm4.826 5.707h1.726v-3.825c0-.387-.025-1.854 1.545-1.84V44.42a1.69 1.69 0 0 0-1.663.865h-.028v-.633h-1.58v7.087zm3.895 0h1.727v-3.762c0-.636.078-1.946 1.405-1.946 1.33 0 1.412 1.31 1.412 1.946v3.762h1.727v-3.762c0-.636.082-1.946 1.402-1.946 1.334 0 1.42 1.31 1.42 1.946v3.762h1.722v-4.145c0-1.995-1.18-3.174-2.932-3.174-1.17 0-1.883.538-2.297 1.105-.496-.796-1.38-1.105-2.108-1.105-.546 0-1.363.176-1.869.886h-.022v-.654h-1.587v7.087zm11.574.341h.982v-4.246c0-.314-.03-2.441 1.956-2.441 1.339 0 1.964 1.015 1.964 2.44v4.247h.978v-4.246c0-.526-.03-1.205.447-1.784a1.989 1.989 0 0 1 1.47-.657c.741 0 2 .388 2 2.44v4.247h.98v-4.23c0-2.718-1.788-3.382-2.93-3.382-.989 0-1.942.526-2.443 1.44-.266-.515-.953-1.428-2.466-1.428-.77 0-1.549.354-1.985 1.145h-.022v-.97h-.931v7.425zm15.655-7.6c-2.142 0-3.779 1.69-3.779 3.898 0 2.21 1.651 3.88 3.779 3.88 2.134 0 3.792-1.67 3.792-3.88 0-2.209-1.64-3.898-3.792-3.898zm0 .913c1.628 0 2.81 1.303 2.81 2.985 0 1.68-1.182 2.97-2.81 2.97-1.626 0-2.804-1.29-2.804-2.97 0-1.682 1.178-2.985 2.804-2.985zm5.73 6.687h.986v-6.511h1.676v-.914h-1.676v-2.62h-.986v2.62h-1.505v.914h1.505v6.51zm6.902-7.6c-2.142 0-3.786 1.69-3.786 3.898 0 2.21 1.655 3.88 3.786 3.88 2.13 0 3.781-1.67 3.781-3.88 0-2.209-1.636-3.898-3.781-3.898zm0 .913c1.629 0 2.803 1.303 2.803 2.985 0 1.68-1.174 2.97-2.803 2.97-1.626 0-2.804-1.29-2.804-2.97 0-1.682 1.178-2.985 2.804-2.985zm4.894 6.687h.982v-4.395c0-1.508 1.124-2.135 2.05-2.187V44.49a2.22 2.22 0 0 0-2.079 1.238h-.026v-1.074h-.927v7.425zm3.178-2.183c0 1.235.698 2.362 2.211 2.362 1.48 0 2.324-1.004 2.324-2.362 0-1.395-1.014-1.776-1.877-2.063-.672-.22-1.411-.489-1.411-1.347 0-.616.393-1.094 1.08-1.094.612 0 1.062.444 1.048 1.112h.978c.015-1.146-.808-2.025-1.996-2.025-1.31 0-2.091.921-2.091 2.092 0 1.415 1.134 1.822 1.887 2.075.69.246 1.407.508 1.407 1.41 0 .672-.436 1.292-1.272 1.292-.873 0-1.379-.687-1.306-1.452h-.982zM41.437 8.076S43.088 3.03 50.33 3.03c2.55 0 5.493.777 7.84 3.42.76.792 1.52 2.132 1.983 3.055.592-1.035 1.313-2.158 2.34-3.153 1.997-1.985 4.798-3.322 8.244-3.322 2.61 0 6.103.679 8.604 3.42 2.956 3.24 3.549 5.937 3.549 13.007v18.637h-8.055V19.823c0-2.084-.192-4.343-1.187-6.082-.814-1.646-2.32-2.786-4.994-2.786-2.722 0-4.51 1.252-5.44 3.043-.989 1.795-1.07 3.565-1.07 5.459v18.637h-8.048V19.48c.015-1.812-.139-3.726-.952-5.409-.9-1.794-2.412-3.103-5.148-3.117-2.828-.036-4.501 1.372-5.404 3.153-.913 1.738-1.155 3.818-1.155 5.666V8.076" fill="#FFF"/><path d="M32.919 21.43c-.072 1.637-.493 3.234-1.342 4.684-1.484 2.921-4.405 5.194-8.832 5.194-7.198 0-10.17-6.01-10.184-10.071v-.056c0-5.03 3.578-10.29 10.113-10.29h.071c4.855.043 7.88 2.731 9.253 5.775a9.608 9.608 0 0 1 .92 4.765zM32.883 4.1v4.736c-1.341-2.47-4.68-5.384-10.138-5.768-.4-.035-.82-.052-1.27-.052C11.891 3.016 4 10.296 4 21.072c0 9.624 6.482 18.116 17.475 18.116.428 0 .849-.018 1.27-.06 4.245-.302 8.212-2.223 10.138-5.757v4.73h8.575V4.098h-8.575z" fill="#D9222A"/></g></svg>