<?xml version="1.0" encoding="UTF-8" standalone="no"?>
<svg width="20px" height="20px" viewBox="0 0 20 20" version="1.1" xmlns="http://www.w3.org/2000/svg" xmlns:xlink="http://www.w3.org/1999/xlink">
    <!-- Generator: sketchtool 39.1 (31720) - http://www.bohemiancoding.com/sketch -->
    <title>86E0BB72-D171-44EB-B95E-27B4C775FE8D</title>
    <desc>Created with sketchtool.</desc>
    <defs></defs>
    <g id="Page-1" stroke="none" stroke-width="1" fill="none" fill-rule="evenodd">
        <g id="Landing-model-320@2x" transform="translate(-273.000000, -2421.000000)" fill="#FFFFFF">
            <g id="phone" transform="translate(260.000000, 2408.000000)">
                <path d="M29.8408619,25.5520448 C29.122787,24.8339699 28.2251933,24.8339699 27.5071183,25.5520448 C26.9685621,26.090601 26.407566,26.6291573 25.8914497,27.1901533 C25.7568106,27.3472322 25.6221715,27.3696721 25.4426528,27.2799127 C25.0836153,27.0779541 24.7245778,26.9433151 24.3879802,26.7189166 C22.8171912,25.7315636 21.4932405,24.4524925 20.3263687,23.0163426 C19.7429328,22.2982677 19.2268164,21.535313 18.8677789,20.682599 C18.8004594,20.5030803 18.8004594,20.390881 18.9575383,20.256242 C19.4960945,19.7401256 20.0346508,19.1791296 20.573207,18.6630132 C21.3137218,17.9224984 21.3137218,17.0249047 20.573207,16.2843899 C20.14685,15.8580329 19.720493,15.4316759 19.294136,15.0053188 C18.8453391,14.556522 18.4189821,14.130165 17.9701852,13.6813681 C17.2296704,12.9632932 16.3320767,12.9632932 15.6140018,13.6589283 C15.0754456,14.1974845 14.5368893,14.7584806 13.9758933,15.274597 C13.4597769,15.7682735 13.1904988,16.3741492 13.1456191,17.0697844 C13.0558597,18.2142163 13.3475777,19.2913288 13.729055,20.3235615 C14.5368893,22.5002262 15.7710807,24.4076129 17.2521103,26.1803604 C19.2492563,28.5814236 21.6503194,30.4663703 24.4552997,31.8127609 C25.7119309,32.4186366 27.0358816,32.8898733 28.4495917,32.9796327 C29.4369448,33.0245124 30.2896588,32.7776741 30.9628541,32.0147195 C31.4340908,31.4986031 31.9502071,31.0273664 32.4438837,30.51125 C33.1843985,29.7707352 33.1843985,28.8731415 32.4438837,28.1326267 C31.5911697,27.3023525 30.7160158,26.4271987 29.8408619,25.5520448 L29.8408619,25.5520448 Z" id="phone-mobile"></path>
            </g>
        </g>
    </g>
</svg>