<svg width="22" height="22" viewBox="0 0 22 22" xmlns="http://www.w3.org/2000/svg"><title>phone</title><path d="M14.866 13.16c-.467-.467-1.05-.467-1.517 0-.35.352-.715.702-1.05 1.067-.088.103-.176.117-.293.059-.233-.132-.466-.22-.685-.365-1.022-.643-1.883-1.476-2.641-2.41-.38-.468-.715-.965-.949-1.52-.043-.117-.043-.19.059-.278.35-.336.7-.701 1.05-1.037.482-.482.482-1.067 0-1.549l-.831-.833-.861-.862c-.482-.467-1.065-.467-1.532-.014-.35.35-.7.716-1.066 1.052a1.72 1.72 0 0 0-.54 1.169c-.058.745.132 1.446.38 2.118.525 1.417 1.328 2.659 2.29 3.813a13.806 13.806 0 0 0 4.684 3.667c.818.394 1.678.701 2.598.76.642.029 1.196-.132 1.634-.629.306-.336.642-.642.963-.978.481-.482.481-1.067 0-1.549-.555-.54-1.124-1.11-1.693-1.68zm-2.28-10.206l-.109 6.19 6.19-.109m-5.963-.119l6.433-6.433" stroke="#727272" fill="none"/></svg>