<svg width="52" height="41" viewBox="0 0 52 41" xmlns="http://www.w3.org/2000/svg" xmlns:xlink="http://www.w3.org/1999/xlink"><title>AA310BF8-670F-4C72-B0E4-6EE4696D664C</title><defs><path d="M41 18.5v16c0 1.683-1.343 3-3 3H10c-1.656 0-3-1.317-3-3v-16" id="a"/><mask id="e" x="0" y="0" width="34" height="19" fill="#fff"><use xlink:href="#a"/></mask><rect id="b" x="4" y="10.5" width="40" height="9" rx="3"/><mask id="f" x="0" y="0" width="40" height="9" fill="#fff"><use xlink:href="#b"/></mask><path d="M14.083 11.5H24s-4.745-8-9.917-8C11.828 3.5 10 5.29 10 7.5s1.828 4 4.083 4z" id="c"/><mask id="g" x="0" y="0" width="14" height="8" fill="#fff"><use xlink:href="#c"/></mask><path d="M28.083 11.5H38s-4.745-8-9.917-8C25.828 3.5 24 5.29 24 7.5s1.828 4 4.083 4z" id="d"/><mask id="h" x="0" y="0" width="14" height="8" fill="#fff"><use xlink:href="#d"/></mask></defs><g transform="translate(0 .5)" stroke="#ED2324" stroke-width="2" fill="none" fill-rule="evenodd"><use mask="url(#e)" xlink:href="#a"/><use mask="url(#f)" xlink:href="#b"/><use mask="url(#g)" xlink:href="#c"/><use mask="url(#h)" transform="matrix(-1 0 0 1 62 0)" xlink:href="#d"/></g></svg>