<svg width="52" height="40" viewBox="0 0 52 40" xmlns="http://www.w3.org/2000/svg"><title>C7EC6E83-6A98-4238-9894-DB4754331F30</title><g stroke="#ED2324" fill="none" fill-rule="evenodd"><path d="M20.603 6.114c-2.128 1.353-5.762 3.096-10.987 3.72-.352.042-.616.322-.616.654v8.886c0 5.683 2.706 11.065 7.238 14.396a18.193 18.193 0 0 0 4.504 2.445.747.747 0 0 0 .516 0 18.235 18.235 0 0 0 4.505-2.445C30.294 30.44 33 25.057 33 19.374v-8.886c0-.332-.264-.612-.617-.655-5.224-.623-8.858-2.366-10.986-3.72a.748.748 0 0 0-.794 0"/><path d="M13.112 20.239c0 3.736 1.779 7.275 4.76 9.466.938.69 1.934 1.23 2.96 1.607a.491.491 0 0 0 .34 0 11.99 11.99 0 0 0 2.961-1.607c2.98-2.191 4.76-5.73 4.76-9.466"/></g></svg>